<svg width="678" height="156" viewBox="0 0 678 156" fill="none" xmlns="http://www.w3.org/2000/svg">
<path d="M17.5881 140.282C16.2788 140.367 15.2755 140.224 14.578 139.852C13.9145 139.51 13.4544 139.091 13.1978 138.594C12.9731 138.096 12.8514 137.703 12.8328 137.416C12.7728 136.49 13.1383 135.696 13.9292 135.036C14.7501 134.341 15.6874 133.96 16.7412 133.892C17.763 133.825 19.0151 133.6 20.4973 133.215C22.0094 132.797 23.5931 132.245 25.2483 131.561C26.9354 130.874 28.5334 130.049 30.0423 129.086C31.5831 128.12 32.908 127.04 34.0171 125.846C35.1263 124.652 35.8609 123.369 36.2211 121.999C35.5103 121.917 34.8015 121.867 34.0949 121.848C33.3861 121.798 32.6805 121.796 31.978 121.841C29.6149 121.994 27.1886 122.408 24.699 123.082C22.2094 123.757 19.7347 124.414 17.275 125.055C16.6765 125.222 16.1264 125.145 15.6247 124.825C15.6042 125.5 15.5807 126.126 15.5541 126.705C15.5573 127.25 15.5637 127.843 15.5731 128.484C15.6106 130.053 15.5455 131.275 15.3778 132.152C15.24 132.995 15.0548 133.6 14.8221 133.968C14.5894 134.336 14.3314 134.561 14.0481 134.643C13.7649 134.726 13.4955 134.775 13.24 134.792C13.1442 134.798 13.0804 134.802 13.0484 134.804C12.4736 134.841 11.9215 134.733 11.3919 134.479C10.8624 134.224 10.409 133.66 10.0317 132.787C9.65239 131.882 9.40273 130.503 9.28274 128.651C8.90208 122.775 9.21801 117.752 10.2305 113.582C11.2729 109.378 12.9383 106.127 15.2266 103.831C17.5447 101.5 20.4122 100.224 23.8291 100.002C26.5114 99.8287 28.6506 100.428 30.2467 101.799C31.8406 103.139 32.7255 105.166 32.9014 107.88C32.9903 109.254 32.8078 110.644 32.3539 112.053C31.9 113.461 31.2216 114.868 30.3185 116.273C30.917 116.106 31.5015 115.972 32.0722 115.871C32.6408 115.738 33.1805 115.655 33.6915 115.622C36.6932 115.427 38.9477 115.826 40.455 116.819C41.9603 117.779 42.7708 119.154 42.8867 120.942C43.0025 122.73 42.6002 124.44 41.6797 126.071C40.7912 127.7 39.5591 129.223 37.9834 130.639C36.4375 132.022 34.7088 133.305 32.7972 134.487C30.8836 135.637 28.9606 136.643 27.0284 137.506C25.094 138.337 23.292 138.983 21.6223 139.444C19.9547 139.936 18.6099 140.216 17.5881 140.282ZM15.8798 119.854C16.0652 119.746 16.2686 119.668 16.4901 119.622C19.333 118.957 21.494 118.159 22.973 117.23C24.452 116.3 25.4386 115.194 25.9327 113.912C26.4268 112.629 26.618 111.125 26.5063 109.401C26.4773 108.954 26.3824 108.479 26.2216 107.976C26.0608 107.474 25.7774 107.059 25.3714 106.733C24.9953 106.372 24.44 106.216 23.7056 106.264C21.2787 106.421 19.45 107.646 18.2197 109.938C17.0191 112.196 16.2392 115.502 15.8798 119.854ZM54.2697 138.002C53.2478 138.068 52.3031 137.841 51.4356 137.32C50.5702 136.831 49.869 136.155 49.3321 135.292C48.7931 134.396 48.4895 133.422 48.4212 132.368C48.2929 130.388 48.5989 128.429 49.339 126.489C50.1111 124.547 51.1608 122.683 52.4881 120.897C53.8155 119.112 55.2798 117.462 56.8813 115.947C58.5126 114.398 60.1413 113.058 61.7676 111.927C63.4258 110.793 64.9388 109.893 66.3066 109.228C67.7063 108.56 68.8054 108.2 69.6037 108.148C70.5298 108.088 71.2936 108.247 71.8953 108.625C72.5269 108.969 72.8695 109.556 72.9233 110.386C72.9399 110.642 72.8895 110.853 72.7721 111.021C73.1934 111.09 73.5442 111.308 73.8245 111.675C74.1048 112.041 74.2698 112.608 74.3194 113.374C74.3401 113.694 74.3141 114.529 74.2413 115.881C74.1685 117.232 74.0984 118.872 74.0309 120.8C73.9954 122.727 74.0449 124.728 74.1793 126.803C74.2 127.123 74.2665 127.407 74.3789 127.656C74.4892 127.874 74.704 127.972 75.0233 127.951C76.3006 127.868 77.5774 127.529 78.8535 126.933C80.1595 126.304 81.4104 125.565 82.6061 124.718C83.8317 123.837 84.9307 122.98 85.9029 122.148C86.9049 121.281 87.7407 120.57 88.4101 120.013C89.1094 119.423 89.5708 119.12 89.7943 119.106C90.8801 119.035 91.4581 119.543 91.5284 120.629C91.5471 120.916 91.2351 121.546 90.5926 122.517C89.9799 123.455 89.1211 124.553 88.0161 125.811C86.9091 127.037 85.6583 128.272 84.2639 129.517C82.8993 130.728 81.4584 131.751 79.9413 132.587C78.4561 133.421 76.995 133.884 75.558 133.977C73.8017 134.091 72.4336 133.763 71.4537 132.993C70.5058 132.22 69.7948 131.144 69.3205 129.764C68.8762 128.349 68.5801 126.749 68.4323 124.963C66.9548 127.4 65.3968 129.585 63.7584 131.519C62.1498 133.419 60.5335 134.951 58.9093 136.114C57.2851 137.278 55.7386 137.907 54.2697 138.002ZM69.6714 112.906C66.6392 114.609 63.9408 116.516 61.5762 118.625C59.2096 120.702 57.3601 122.842 56.0277 125.045C54.7272 127.246 54.1401 129.32 54.2663 131.268C54.3015 131.811 54.5745 132.066 55.0855 132.033C55.6922 131.993 56.4678 131.59 57.4122 130.824C58.3885 130.055 59.4302 129.058 60.5372 127.831C61.6422 126.573 62.7389 125.188 63.8274 123.674C64.9137 122.129 65.9182 120.556 66.8407 118.957C67.7633 117.358 68.4824 115.837 68.9981 114.392C69.1885 113.867 69.413 113.371 69.6714 112.906ZM96.791 134.766C95.0028 134.882 93.4271 134.567 92.0641 133.822C90.7031 133.108 89.63 132.136 88.8447 130.904C88.0574 129.64 87.6192 128.322 87.5303 126.949C87.3813 124.649 87.595 122.503 88.1713 120.51C88.7456 118.484 89.5558 116.636 90.6019 114.965C91.646 113.262 92.7983 111.744 94.0588 110.412C95.3513 109.078 96.6093 107.954 97.8328 107.041C99.0862 106.094 100.21 105.38 101.205 104.898C102.198 104.385 102.934 104.113 103.413 104.082C104.275 104.026 104.894 104.178 105.271 104.539C105.677 104.865 105.906 105.444 105.96 106.274C105.991 106.753 105.677 107.35 105.018 108.066C104.391 108.781 103.547 109.605 102.485 110.539C101.455 111.472 100.368 112.52 99.2252 113.685C98.0821 114.849 96.9952 116.138 95.9644 117.552C94.9656 118.963 94.1666 120.49 93.5675 122.132C93.0004 123.772 92.7778 125.534 92.8999 127.418C92.9454 128.121 93.1083 128.656 93.3886 129.022C93.7008 129.387 94.1762 129.548 94.8149 129.507C96.6351 129.389 98.5623 128.944 100.597 128.17C102.661 127.363 104.699 126.397 106.71 125.273C108.751 124.115 110.663 122.933 112.445 121.727C114.259 120.519 115.808 119.441 117.093 118.492C117.611 118.073 118.055 117.74 118.423 117.492C118.792 117.243 119.056 117.114 119.216 117.103C120.174 117.041 120.685 117.505 120.749 118.495C120.782 119.006 120.444 119.718 119.733 120.629C118.911 121.805 117.772 123.033 116.316 124.314C114.892 125.593 113.289 126.835 111.507 128.041C109.757 129.244 107.952 130.339 106.092 131.326C104.264 132.31 102.536 133.111 100.909 133.73C99.2812 134.348 97.9087 134.694 96.791 134.766ZM121.063 135.599C119.594 135.694 118.513 135.347 117.821 134.558C117.128 133.769 116.73 132.577 116.627 130.98C116.532 129.511 116.679 127.577 117.069 125.179C117.489 122.747 118.066 120.032 118.802 117.034C119.568 114.002 120.44 110.883 121.419 107.677C122.395 104.439 123.424 101.262 124.505 98.1459C125.583 94.9976 126.647 92.1068 127.695 89.4735C128.197 88.3186 128.754 87.5129 129.366 87.0564C129.978 86.5999 130.667 86.3468 131.433 86.2972C132.168 86.2496 132.804 86.4168 133.342 86.7989C133.877 87.149 134.173 87.7551 134.229 88.6173C134.242 88.8089 134.034 89.5599 133.605 90.8703C133.175 92.1488 132.61 93.8208 131.91 95.8864C131.208 97.9201 130.443 100.214 129.614 102.769C128.784 105.292 127.96 107.927 127.144 110.673C126.326 113.388 125.602 116.064 124.971 118.703C124.34 121.341 123.856 123.777 123.52 126.012C124.541 124.439 125.631 122.7 126.79 120.798C127.979 118.861 129.186 116.939 130.409 115.032C131.662 113.09 132.893 111.311 134.103 109.694C135.345 108.074 136.511 106.764 137.601 105.763C138.69 104.763 139.666 104.234 140.528 104.179C142.125 104.075 143.431 104.439 144.447 105.272C145.493 106.07 146.085 107.538 146.224 109.678C146.288 110.668 146.174 111.878 145.882 113.308C145.587 114.706 145.219 116.189 144.775 117.756C144.361 119.29 144.008 120.772 143.716 122.202C143.424 123.632 143.312 124.874 143.38 125.928C143.418 126.503 143.708 126.772 144.251 126.737C145.815 126.636 147.374 126.198 148.927 125.424C150.513 124.648 152.008 123.717 153.412 122.632C154.847 121.513 156.139 120.419 157.288 119.351C158.467 118.248 159.419 117.337 160.141 116.617C160.651 116.071 161.124 115.703 161.561 115.515C161.996 115.294 162.405 115.171 162.788 115.146C164.097 115.062 164.794 115.674 164.879 116.983C164.896 117.239 164.868 117.561 164.797 117.95C164.724 118.308 164.45 118.775 163.974 119.351C163.498 119.927 162.782 120.743 161.824 121.799C160.866 122.855 159.737 123.986 158.436 125.193C157.168 126.397 155.768 127.562 154.237 128.688C152.737 129.779 151.177 130.698 149.558 131.444C147.939 132.19 146.347 132.614 144.782 132.715C142.419 132.868 140.555 132.316 139.191 131.057C137.829 129.831 137.075 128.084 136.928 125.817C136.826 124.252 137.018 122.267 137.504 119.863C137.987 117.427 138.548 114.937 139.185 112.395C138.137 113.553 137.056 114.922 135.939 116.501C134.821 118.049 133.693 119.693 132.555 121.434C131.415 123.143 130.29 124.836 129.18 126.511C128.1 128.152 127.06 129.663 126.059 131.042C125.056 132.39 124.132 133.476 123.288 134.3C122.443 135.125 121.702 135.557 121.063 135.599ZM168.29 130.423C166.31 130.551 164.669 129.968 163.367 128.673C162.062 127.347 161.31 125.135 161.109 122.037C160.981 120.058 161.076 118.063 161.395 116.054C161.743 114.012 162.275 112.069 162.989 110.227C163.734 108.351 164.619 106.674 165.646 105.197C166.704 103.717 167.894 102.534 169.216 101.647C170.535 100.727 171.929 100.22 173.398 100.125C175.889 99.9637 177.88 100.508 179.372 101.758C180.864 103.008 181.677 104.671 181.812 106.747C181.915 108.344 181.562 109.826 180.753 111.193C179.973 112.526 178.866 113.752 177.432 114.871C175.997 115.99 174.381 117.025 172.582 117.975C170.784 118.925 168.933 119.799 167.028 120.596C166.943 121.756 166.929 122.783 166.987 123.677C167.022 124.22 167.343 124.471 167.95 124.432C169.387 124.339 170.905 124.016 172.505 123.464C174.134 122.877 175.772 122.162 177.417 121.318C179.059 120.442 180.637 119.554 182.15 118.654C183.661 117.722 185.031 116.848 186.261 116.031C187.521 115.18 188.551 114.504 189.353 114.003C190.184 113.468 190.727 113.192 190.983 113.176C191.685 113.13 192.209 113.305 192.556 113.699C192.902 114.093 193.091 114.53 193.122 115.009C193.136 115.233 192.737 115.756 191.924 116.578C191.144 117.398 190.053 118.383 188.653 119.532C187.282 120.646 185.722 121.822 183.975 123.057C182.257 124.259 180.456 125.418 178.572 126.534C176.718 127.616 174.9 128.503 173.117 129.196C171.368 129.919 169.759 130.328 168.29 130.423ZM167.566 116.28C168.826 115.429 170.067 114.547 171.291 113.634C172.544 112.687 173.568 111.658 174.362 110.549C175.154 109.407 175.503 108.118 175.41 106.681C175.383 106.266 175.254 106.001 175.022 105.888C174.788 105.743 174.464 105.684 174.048 105.711C172.931 105.783 171.941 106.344 171.079 107.394C170.249 108.442 169.534 109.771 168.932 111.381C168.361 112.958 167.906 114.59 167.566 116.28ZM200.587 129.1C197.713 129.286 195.389 128.555 193.615 126.906C191.871 125.223 190.892 122.737 190.679 119.448C190.563 117.66 190.667 115.553 190.991 113.127C191.312 110.669 191.77 108.074 192.362 105.342C192.985 102.576 193.657 99.8388 194.38 97.1304C195.134 94.42 195.885 91.9021 196.632 89.577C197.379 87.2518 198.038 85.3011 198.61 83.7249C199.108 82.5061 199.884 81.8626 200.938 81.7943C201.608 81.7509 202.165 81.9233 202.607 82.3115C203.081 82.6977 203.348 83.3538 203.408 84.2798C203.437 84.7269 203.276 85.7153 202.926 87.2452C202.577 88.775 202.106 90.6654 201.514 92.9163C200.952 95.1333 200.338 97.53 199.671 100.107C199.036 102.681 198.434 105.269 197.865 107.872C197.328 110.472 196.91 112.92 196.609 115.216C196.307 117.48 196.207 119.395 196.308 120.96C196.35 121.598 196.558 122.098 196.934 122.458C197.342 122.817 197.85 122.976 198.456 122.937C199.766 122.852 201.091 122.526 202.433 121.958C203.808 121.388 205.141 120.692 206.435 119.871C207.76 119.047 209.003 118.181 210.163 117.272C211.322 116.363 212.357 115.511 213.268 114.714C214.208 113.884 214.967 113.225 215.545 112.739C216.304 112.08 216.827 111.742 217.115 111.723C218.2 111.653 218.777 112.144 218.846 113.198C218.862 113.454 218.577 114.001 217.99 114.841C217.493 115.579 216.784 116.523 215.865 117.672C214.945 118.822 213.87 120.046 212.639 121.345C211.438 122.609 210.138 123.815 208.737 124.964C207.368 126.111 205.987 127.067 204.594 127.83C203.2 128.594 201.865 129.017 200.587 129.1ZM223.934 126.77C221.666 126.917 219.794 126.236 218.318 124.729C216.839 123.189 216.012 121.062 215.836 118.348C215.78 117.485 215.835 116.6 216.001 115.691C216.198 114.781 216.448 113.931 216.749 113.142C216.539 112.867 216.356 112.51 216.199 112.071C216.072 111.598 215.988 111.043 215.947 110.404C215.812 108.328 216.056 106.404 216.679 104.632C217.3 102.829 218.192 101.248 219.354 99.8896C220.517 98.5316 221.826 97.4527 223.281 96.6529C224.736 95.8531 226.231 95.4036 227.763 95.3043C230.382 95.1347 232.578 95.8742 234.353 97.523C236.159 99.1696 237.182 101.845 237.422 105.549C237.542 107.401 237.377 109.304 236.926 111.257C236.475 113.211 235.812 115.097 234.936 116.918C234.089 118.704 233.072 120.325 231.884 121.781C230.727 123.235 229.456 124.408 228.071 125.299C226.718 126.189 225.339 126.679 223.934 126.77ZM222.118 110.629C222.301 110.97 222.407 111.38 222.438 111.859C222.47 112.338 222.406 112.839 222.247 113.363C222.089 113.886 221.942 114.585 221.806 115.46C221.668 116.302 221.65 117.506 221.751 119.071C221.778 119.486 221.849 119.834 221.963 120.115C222.108 120.362 222.387 120.473 222.802 120.446C223.888 120.375 224.887 119.958 225.8 119.193C226.744 118.427 227.562 117.444 228.254 116.244C228.978 115.043 229.566 113.722 230.018 112.282C230.499 110.808 230.836 109.327 231.029 107.839C231.251 106.318 231.32 104.918 231.238 103.641C231.184 102.811 230.987 102.246 230.647 101.948C230.307 101.649 229.738 101.526 228.939 101.577C227.854 101.648 226.759 102.071 225.655 102.848C224.58 103.591 223.698 104.579 223.009 105.81C222.317 107.009 222.018 108.343 222.113 109.812C222.132 110.099 222.134 110.372 222.118 110.629ZM246.196 125.857C245.397 125.908 244.692 125.665 244.08 125.128C243.5 124.588 243.175 123.776 243.105 122.69C243.073 122.211 243.087 121.424 243.144 120.33C243.231 119.202 243.34 117.913 243.471 116.461C243.633 115.008 243.775 113.491 243.897 111.912C244.051 110.331 244.163 108.832 244.231 107.417C244.332 106 244.382 104.794 244.382 103.8C244.367 102.582 244.631 101.699 245.172 101.151C245.712 100.571 246.381 100.255 247.179 100.203C247.818 100.162 248.403 100.284 248.935 100.571C249.496 100.823 249.872 101.424 250.062 102.374C250.281 103.289 250.384 104.629 250.37 106.394C251.61 103.748 252.883 101.373 254.19 99.2682C255.528 97.1612 256.957 95.4653 258.478 94.1803C260.998 91.9968 263.327 90.8358 265.467 90.6971C266.68 90.6185 267.496 90.8382 267.915 91.3563C268.333 91.8743 268.561 92.4207 268.598 92.9955C268.623 93.3787 268.55 93.7362 268.379 94.0679C268.24 94.3976 267.91 94.7557 267.39 95.1421C266.87 95.5285 266.07 96.0454 264.99 96.6926C263.538 97.5562 262.119 98.6583 260.73 99.9988C259.374 101.337 258.041 103.027 256.73 105.068C255.419 107.109 254.121 109.598 252.836 112.535C251.552 115.473 250.254 118.956 248.944 122.985C248.727 124.089 248.358 124.835 247.838 125.221C247.35 125.605 246.802 125.817 246.196 125.857ZM485.638 109.959C484.329 110.044 483.326 109.901 482.628 109.529C481.965 109.187 481.504 108.768 481.248 108.272C481.023 107.773 480.901 107.38 480.883 107.093C480.823 106.167 481.188 105.374 481.979 104.713C482.8 104.018 483.737 103.637 484.791 103.569C485.813 103.503 487.065 103.277 488.547 102.893C490.059 102.474 491.643 101.922 493.298 101.238C494.985 100.551 496.583 99.7264 498.092 98.7628C499.633 97.7972 500.958 96.7173 502.067 95.5231C503.176 94.3289 503.911 93.0467 504.271 91.6766C503.56 91.5943 502.852 91.5441 502.145 91.5257C501.436 91.4754 500.731 91.473 500.028 91.5186C497.665 91.6716 495.239 92.0854 492.749 92.7597C490.259 93.4341 487.785 94.0915 485.325 94.7318C484.727 94.8989 484.176 94.8223 483.675 94.502C483.654 95.1768 483.631 95.8036 483.604 96.3825C483.607 96.9275 483.614 97.5203 483.623 98.161C483.661 99.7299 483.596 100.953 483.428 101.829C483.29 102.672 483.105 103.277 482.872 103.645C482.639 104.013 482.381 104.238 482.098 104.32C481.815 104.403 481.546 104.452 481.29 104.469C481.194 104.475 481.13 104.479 481.098 104.481C480.524 104.519 479.972 104.41 479.442 104.156C478.912 103.902 478.459 103.338 478.082 102.464C477.702 101.559 477.453 100.18 477.333 98.328C476.952 92.4524 477.268 87.4294 478.281 83.2592C479.323 79.0551 480.988 75.8046 483.277 73.5078C485.595 71.1771 488.462 69.901 491.879 69.6797C494.562 69.5059 496.701 70.1049 498.297 71.4766C499.891 72.8163 500.776 74.8433 500.951 77.5576C501.04 78.9308 500.858 80.3215 500.404 81.7298C499.95 83.1381 499.272 84.5449 498.369 85.9502C498.967 85.7831 499.552 85.6491 500.122 85.548C500.691 85.4149 501.231 85.3319 501.742 85.2988C504.743 85.1043 506.998 85.5034 508.505 86.496C510.01 87.4567 510.821 88.8312 510.937 90.6194C511.053 92.4077 510.65 94.1173 509.73 95.7482C508.841 97.377 507.609 98.8999 506.033 100.317C504.488 101.7 502.759 102.982 500.847 104.164C498.934 105.314 497.011 106.321 495.078 107.183C493.144 108.014 491.342 108.66 489.672 109.121C488.005 109.614 486.66 109.893 485.638 109.959ZM483.93 89.5311C484.115 89.4229 484.319 89.3456 484.54 89.2992C487.383 88.634 489.544 87.8366 491.023 86.9071C492.502 85.9775 493.489 84.8714 493.983 83.5888C494.477 82.3062 494.668 80.8027 494.556 79.0783C494.527 78.6312 494.432 78.1563 494.272 77.6537C494.111 77.151 493.827 76.7365 493.421 76.4101C493.045 76.0496 492.49 75.8932 491.756 75.9408C489.329 76.098 487.5 77.3228 486.27 79.6151C485.069 81.8735 484.289 85.1788 483.93 89.5311ZM526.346 107.178C524.079 107.325 522.207 106.644 520.731 105.137C519.252 103.597 518.425 101.47 518.249 98.7557C518.193 97.8935 518.248 97.0081 518.414 96.0995C518.611 95.1888 518.861 94.3389 519.162 93.5498C518.952 93.2748 518.769 92.9179 518.612 92.4791C518.485 92.0063 518.401 91.4506 518.36 90.8119C518.225 88.7363 518.469 86.8125 519.092 85.0405C519.713 83.2366 520.604 81.6557 521.767 80.2977C522.93 78.9396 524.239 77.8608 525.694 77.061C527.149 76.2612 528.643 75.8117 530.176 75.7124C532.795 75.5428 534.991 76.2823 536.765 77.9311C538.572 79.5777 539.595 82.2532 539.835 85.9574C539.955 87.8095 539.789 89.7122 539.339 91.6654C538.888 93.6187 538.225 95.5055 537.349 97.3259C536.502 99.1124 535.485 100.734 534.297 102.189C533.14 103.643 531.869 104.816 530.484 105.707C529.131 106.597 527.752 107.087 526.346 107.178ZM524.531 91.0374C524.714 91.3783 524.82 91.7883 524.851 92.2673C524.882 92.7463 524.819 93.2475 524.66 93.7708C524.502 94.2941 524.355 94.9931 524.219 95.8677C524.081 96.7104 524.063 97.9141 524.164 99.4788C524.191 99.8939 524.262 100.242 524.376 100.523C524.52 100.77 524.8 100.881 525.215 100.854C526.301 100.783 527.3 100.366 528.213 99.6013C529.157 98.8347 529.975 97.8517 530.667 96.6525C531.391 95.4512 531.979 94.1304 532.431 92.6902C532.912 91.216 533.249 89.7351 533.441 88.2475C533.664 86.726 533.733 85.3266 533.651 84.0492C533.597 83.219 533.4 82.6545 533.06 82.3559C532.72 82.0572 532.151 81.9338 531.352 81.9855C530.267 82.0558 529.172 82.4795 528.068 83.2565C526.993 83.9995 526.111 84.9866 525.421 86.2178C524.73 87.417 524.431 88.7511 524.526 90.22C524.545 90.5074 524.547 90.7799 524.531 91.0374ZM555.252 105.065C553.464 105.181 551.888 104.866 550.525 104.12C549.164 103.407 548.091 102.434 547.306 101.202C546.518 99.9386 546.08 98.6202 545.991 97.247C545.842 94.9479 546.056 92.8016 546.632 90.8081C547.206 88.7828 548.017 86.9345 549.063 85.2634C550.107 83.5603 551.259 82.0427 552.52 80.7104C553.812 79.376 555.07 78.2523 556.294 77.3393C557.547 76.3923 558.671 75.6782 559.666 75.1968C560.659 74.6836 561.395 74.4114 561.874 74.3804C562.736 74.3245 563.355 74.4768 563.731 74.8372C564.137 75.1637 564.367 75.742 564.421 76.5723C564.452 77.0513 564.138 77.6488 563.479 78.3649C562.852 79.079 562.007 79.9033 560.945 80.8379C559.916 81.7704 558.829 82.8189 557.686 83.9832C556.543 85.1476 555.456 86.4365 554.425 87.8501C553.426 89.2616 552.627 90.7885 552.028 92.4307C551.461 94.0708 551.239 95.8328 551.361 97.7169C551.406 98.4194 551.569 98.954 551.849 99.3206C552.162 99.6852 552.637 99.8468 553.276 99.8054C555.096 99.6875 557.023 99.242 559.057 98.4689C561.122 97.6617 563.159 96.696 565.171 95.5716C567.212 94.4132 569.124 93.2311 570.906 92.0254C572.719 90.8176 574.269 89.7392 575.554 88.7901C576.072 88.3717 576.516 88.0384 576.884 87.79C577.253 87.5417 577.517 87.4123 577.677 87.402C578.635 87.3399 579.146 87.8038 579.21 88.7938C579.243 89.3047 578.904 90.0161 578.194 90.9279C577.372 92.1035 576.233 93.3317 574.777 94.6125C573.353 95.8913 571.75 97.1335 569.968 98.3392C568.218 99.5429 566.413 100.638 564.553 101.624C562.725 102.608 560.997 103.41 559.369 104.028C557.742 104.647 556.369 104.992 555.252 105.065ZM584.534 103.168C582.746 103.283 581.17 102.969 579.807 102.223C578.446 101.51 577.373 100.537 576.588 99.3053C575.801 98.0415 575.362 96.7231 575.273 95.35C575.124 93.0508 575.338 90.9045 575.914 88.9111C576.489 86.8857 577.299 85.0374 578.345 83.3663C579.389 81.6633 580.541 80.1456 581.802 78.8133C583.094 77.479 584.352 76.3553 585.576 75.4423C586.829 74.4953 587.954 73.7811 588.948 73.2998C589.941 72.7865 590.677 72.5143 591.156 72.4833C592.019 72.4275 592.638 72.5797 593.014 72.9402C593.42 73.2666 593.65 73.845 593.703 74.6752C593.734 75.1542 593.42 75.7518 592.761 76.4679C592.134 77.1819 591.29 78.0062 590.228 78.9408C589.198 79.8734 588.111 80.9218 586.968 82.0861C585.825 83.2505 584.738 84.5395 583.708 85.953C582.709 87.3646 581.91 88.8914 581.311 90.5336C580.744 92.1737 580.521 93.9358 580.643 95.8198C580.689 96.5223 580.851 97.0569 581.132 97.4236C581.444 97.7881 581.919 97.9498 582.558 97.9084C584.378 97.7905 586.305 97.3449 588.34 96.5718C590.404 95.7647 592.442 94.7989 594.453 93.6745C596.495 92.5161 598.406 91.334 600.188 90.1283C602.002 88.9205 603.551 87.8421 604.837 86.893C605.355 86.4747 605.798 86.1413 606.167 85.8929C606.535 85.6446 606.8 85.5152 606.959 85.5049C607.917 85.4428 608.428 85.9068 608.492 86.8967C608.526 87.4076 608.187 88.119 607.476 89.0308C606.655 90.2064 605.516 91.4346 604.059 92.7155C602.635 93.9942 601.032 95.2365 599.25 96.4422C597.5 97.6458 595.695 98.7408 593.835 99.7271C592.007 100.711 590.279 101.513 588.652 102.131C587.024 102.75 585.652 103.095 584.534 103.168ZM635.682 100.96C634.437 101.041 633.505 100.765 632.887 100.131C632.271 99.5299 631.899 98.2552 631.773 96.3073C631.666 94.6468 631.797 92.4737 632.169 89.7881C632.54 87.1025 632.961 84.2051 633.433 81.0961C630.145 85.2855 626.221 88.073 621.661 89.4587C620.859 91.4347 619.887 93.2613 618.746 94.9387C617.604 96.616 616.33 97.9972 614.925 99.0823C613.55 100.133 612.081 100.71 610.516 100.811C608.568 100.937 606.85 100.407 605.362 99.2208C603.906 98.0325 603.093 96.1131 602.921 93.4626C602.805 91.6744 602.978 90.14 603.44 88.8594C603.901 87.5469 604.461 86.5486 605.122 85.8644C604.469 84.6882 604.092 83.3177 603.99 81.753C603.854 79.6454 604.307 77.7401 605.352 76.037C606.396 74.334 607.83 72.9584 609.654 71.9103C611.51 70.8601 613.555 70.2626 615.791 70.1178C617.036 70.0371 618.238 70.2799 619.397 70.8461C620.586 71.3784 621.573 72.2604 622.359 73.4922C623.174 74.69 623.643 76.2469 623.767 78.1629C623.871 79.7595 623.745 81.5314 623.39 83.4784C625.571 81.9903 627.687 80.0093 629.739 77.5355C631.824 75.0596 633.65 72.3118 635.218 69.2921C635.705 68.3947 636.443 67.9139 637.433 67.8498C638.264 67.796 638.935 68.0091 639.447 68.489C639.989 68.9349 640.286 69.557 640.337 70.3553C640.348 70.515 640.286 71.0481 640.152 71.9546C640.019 72.8612 639.839 74.0433 639.613 75.5009C639.384 76.9267 639.133 78.4982 638.86 80.2155C638.618 81.9307 638.379 83.6778 638.141 85.4569C637.904 87.236 637.692 88.9172 637.506 90.5005C638.239 88.9459 639.03 87.2913 639.878 85.5368C640.756 83.7483 641.668 81.9896 642.615 80.2608C643.559 78.5001 644.497 76.9001 645.43 75.4608C646.363 74.0214 647.235 72.8747 648.045 72.0205C648.854 71.1344 649.561 70.6717 650.168 70.6324C651.381 70.5537 652.426 70.8388 653.302 71.4875C654.177 72.1363 654.639 72.8279 654.687 73.5623C654.734 74.2968 654.728 75.4356 654.668 76.9787C654.607 78.5219 654.511 80.2597 654.38 82.1922C654.279 84.0908 654.162 86.0063 654.031 87.9388C653.899 89.8714 653.805 91.6252 653.746 93.2002C653.686 94.7433 653.681 95.8981 653.73 96.6645C653.772 97.3032 653.508 97.9295 652.938 98.5437C652.369 99.1578 651.701 99.4896 650.934 99.5393C650.87 99.5434 650.759 99.5507 650.599 99.561C650.218 99.6178 649.862 99.5767 649.533 99.4377C649.205 99.3306 648.903 98.8692 648.625 98.0534C648.38 97.2356 648.193 95.8367 648.065 93.8569C647.978 92.5157 647.947 91.0426 647.971 89.4377C647.995 87.8328 648.052 86.2258 648.14 84.6167C648.258 82.9737 648.399 81.4413 648.563 80.0197C647.822 81.4466 646.997 83.0713 646.089 84.8939C645.211 86.6824 644.288 88.5219 643.32 90.4124C642.35 92.271 641.388 94.0008 640.434 95.6019C639.509 97.169 638.63 98.4445 637.796 99.4285C636.993 100.41 636.289 100.921 635.682 100.96ZM616.636 86.1286C616.97 84.8563 617.221 83.5413 617.39 82.1836C617.557 80.7939 617.597 79.4445 617.513 78.1352C617.477 77.5923 617.332 77.0727 617.075 76.5762C616.818 76.0798 616.419 75.8492 615.876 75.8843C614.79 75.9547 613.735 76.2475 612.71 76.7628C611.717 77.2761 610.912 77.9696 610.295 78.8433C609.678 79.717 609.407 80.7286 609.482 81.8782C609.548 82.9001 609.939 83.7406 610.655 84.3996C611.403 85.0567 612.3 85.5277 613.344 85.8128C614.421 86.0957 615.47 86.2041 616.492 86.1379C616.524 86.1359 616.572 86.1328 616.636 86.1286ZM614.945 90.471C613.825 90.5115 612.73 90.4381 611.66 90.2509C610.587 90.0318 609.603 89.6947 608.708 89.2396C608.645 89.7568 608.582 90.258 608.517 90.7432C608.45 91.1964 608.43 91.6306 608.457 92.0458C608.502 92.7483 608.656 93.3797 608.916 93.94C609.207 94.4663 609.736 94.7047 610.502 94.655C611.3 94.6033 612.076 94.2003 612.829 93.4461C613.613 92.6897 614.319 91.6981 614.945 90.471ZM666.274 97.2468C665.38 97.3047 664.562 97.053 663.82 96.4918C663.11 95.9285 662.711 94.9603 662.622 93.5872C662.574 92.8528 662.603 91.8087 662.708 90.4551C662.844 89.0995 663.038 87.6279 663.287 86.0404C663.535 84.421 663.816 82.8155 664.13 81.2239C664.475 79.6302 664.817 78.2132 665.153 76.9728C665.488 75.7005 665.795 74.7507 666.075 74.1233C666.442 73.3619 666.797 72.89 667.138 72.7076C667.508 72.4912 667.869 72.3716 668.221 72.3488C668.859 72.3075 669.462 72.4608 670.03 72.8088C670.63 73.1548 670.972 73.9824 671.057 75.2916C671.09 75.8026 671.048 76.639 670.931 77.801C670.812 78.9311 670.657 80.2559 670.467 81.7753C670.277 83.2948 670.058 84.8643 669.81 86.4837C669.594 88.101 669.373 89.6385 669.147 91.0962C668.95 92.5199 668.787 93.7169 668.658 94.6873C668.55 95.496 668.253 96.1085 667.767 96.5248C667.315 96.9709 666.817 97.2116 666.274 97.2468ZM669.877 67.4795C668.823 67.5478 667.83 67.3076 666.896 66.7588C665.961 66.178 665.451 65.233 665.366 63.9238C665.296 62.838 665.51 61.9423 666.01 61.2365C666.509 60.5308 667.117 60.0104 667.832 59.6754C668.578 59.3064 669.238 59.1033 669.813 59.0661C670.388 59.0289 671.035 59.1152 671.754 59.3252C672.471 59.5032 673.106 59.895 673.658 60.5005C674.24 61.0721 674.568 61.9327 674.643 63.0823C674.693 63.8486 674.467 64.5688 673.965 65.2426C673.462 65.8845 672.822 66.4069 672.047 66.8099C671.303 67.2108 670.58 67.434 669.877 67.4795Z" fill="#4274D8"/>
<path d="M343.752 4.67655C342.089 5.47863 341.92 8.03481 342.197 26.1057C342.409 38.1518 342.388 39.4878 341.73 40.1643C341.344 40.5859 338.146 43.2363 334.592 46.0643L328.147 51.2052L327.175 34.7834C326.547 24.2931 326.014 17.7631 325.644 16.7277C324.615 13.5775 322.912 13.4914 322.036 16.524C321.509 18.3274 321.51 32.891 321.996 45.6531C322.213 50.5385 322.247 54.9465 322.148 55.4364C322.011 56.0088 317.893 59.7923 311.578 65.1298C305.886 69.9137 301.129 73.8874 301.008 73.8927C300.887 73.8981 300.359 67.4893 299.85 59.6637C298.555 39.6153 297.809 32.852 296.823 31.6013C295.797 30.3524 294.214 30.2204 293.333 31.3114C292.067 32.8645 292.224 40.9485 294.505 87.734C296.514 128.383 296.785 132.659 297.775 138.562C298.337 142.097 298.71 145.033 298.592 145.119C296.296 146.233 295.627 147.557 296.841 148.474C297.176 148.742 300.26 148.969 304.551 149.062C310.341 149.209 315.424 148.943 332.311 147.626C359.393 145.492 369.706 144.589 382.387 143.297C388.145 142.717 397.045 141.877 402.12 141.409C407.235 140.938 416.095 140.1 421.852 139.52C427.61 138.941 434.413 138.234 436.95 138C439.486 137.725 442.337 137.275 443.294 136.949C444.248 136.583 445.053 136.507 445.224 136.702C445.354 136.898 446.087 137.027 446.814 136.995C449.195 136.889 449.323 136.115 449.229 123.093C449.032 102.267 447.505 56.0954 446.482 41.2535C445.562 27.823 445.482 26.9366 444.63 25.9631C443.517 24.5966 442.143 24.6172 441.195 26.0348C440.245 27.412 440.126 32.9191 440.547 50.5791C440.731 57.4482 440.852 64.7247 440.823 66.7892L440.747 70.5548L438.141 68.3243C436.711 67.0933 432.471 63.6003 428.655 60.5336C424.879 57.465 420.432 53.8599 418.795 52.5167L415.774 50.0619L414.835 34.4072C413.876 18.268 413.704 17.1428 412.087 16.2438C411.009 15.6444 409.342 16.3658 408.873 17.6407C408.66 18.2975 408.623 23.8414 408.815 31.8024L409.153 44.8543L401.147 38.5351L393.142 32.2158L392.325 20.1966C391.474 7.41031 391.12 4.91783 389.912 4.12198C388.953 3.47686 387.662 3.53426 386.764 4.26189C385.748 5.07565 385.568 7.38958 385.641 17.2168C385.695 22.069 385.629 26.0365 385.507 26.0419C385.386 26.0473 383 24.2115 380.233 22.0285C374.532 17.5082 373.079 16.6424 371.682 17.0685C370.805 17.3503 353.167 30.8773 351.268 32.7417C350.919 33.0809 350.524 33.3007 350.4 33.2253C350.314 33.1078 349.804 27.1027 349.279 19.8442C348.409 7.54414 348.284 6.53836 347.472 5.56307C346.658 4.5474 344.942 4.13824 343.752 4.67655ZM379.225 28.4652L385.857 33.915L387.651 71.5391L389.484 109.161L387.443 106.906C381.914 100.8 374.696 98.5317 367.752 100.62C362.645 102.182 356.904 105.876 353.833 109.573C353.027 110.539 352.331 111.257 352.287 111.179C352.245 111.14 352.193 108.149 352.196 104.588C352.238 97.3452 351.325 58.5897 350.855 48.0115L350.55 41.1478L356.91 35.9296C360.38 33.0245 365.255 28.9647 367.71 26.8733C370.165 24.7819 372.27 23.0297 372.392 23.0243C372.513 23.0189 375.572 25.4316 379.225 28.4652ZM403.131 47.6706C406.529 50.4323 409.436 53.054 409.537 53.4945C409.637 53.9351 410.382 67.0498 411.155 82.6309L412.536 110.969L411.138 110.464C407.52 109.128 403.023 109.854 398.648 112.435L396.523 113.744L395.916 94.6354C395.613 84.1712 394.998 67.6121 394.564 57.8413L393.778 40.1571L395.371 41.4213C396.211 42.1122 399.732 44.9089 403.131 47.6706ZM343.338 65.4174C343.628 75.5991 344.344 89.8882 344.992 99.0022C345.624 107.753 346.066 114.975 345.989 115.059C345.912 115.143 345.211 114.851 344.384 114.442C341.111 112.687 336.414 113.462 332.459 116.388C331.325 117.248 330.341 117.858 330.258 117.821C330.214 117.742 329.978 110.592 329.795 101.943C329.611 93.2535 329.331 83.3141 329.214 79.7593L328.93 73.38L329.869 73.581C330.766 73.7434 331.321 73.4761 333.86 71.4619L334.916 70.6463L336.474 72.0334C338.327 73.6906 339.22 73.7723 340.047 72.3601C341.741 69.5339 338.845 65.3339 335.334 65.49C333.396 65.5761 331.192 66.9282 329.663 68.9379L328.822 70.0271L328.545 64.6994L328.308 59.3699L335.411 53.5928C339.313 50.3854 342.594 47.7718 342.675 47.7682C342.755 47.7646 343.069 55.7203 343.338 65.4174ZM421.24 62.0363C423.544 63.8353 427.524 66.9352 430.042 69.0078C435.41 73.3002 440.387 77.0032 440.831 76.9834C440.992 76.9762 441.424 83.9557 441.804 92.5152C442.184 101.075 442.374 108.065 442.253 108.07C442.132 108.076 441.55 107.737 440.966 107.318C436.372 104.044 425.008 105.884 419.403 110.785L417.886 112.147L417.572 99.6199C417.428 92.749 417.011 80.6311 416.657 72.6772C416.148 61.2108 416.138 58.258 416.552 58.4823C416.802 58.6331 418.936 60.2373 421.24 62.0363ZM323.676 91.6563L324.905 119.313L322.542 118.002C316.077 114.487 309.997 115.081 304.824 119.72L303.151 121.21L302.28 100.698L301.367 80.1473L311.808 72.1182C317.556 67.6959 322.289 64.0874 322.37 64.0838C322.409 64.0416 323.002 76.4753 323.676 91.6563ZM375.796 107.828C378.147 108.856 381.349 111.748 384.431 115.575C385.972 117.489 387.971 119.706 388.815 120.478L390.415 121.904L390.964 128.797L391.474 135.733L384.987 136.264C381.4 136.544 373.301 137.228 366.974 137.711C360.648 138.235 354.806 138.738 354.004 138.895C353.202 139.052 352.433 139.045 352.346 138.887C352.256 138.689 352.179 135.133 352.192 130.884L352.214 123.197L354.682 119.568C359.2 112.935 363.88 109.045 369.11 107.518C371.745 106.754 373.609 106.833 375.796 107.828ZM436.364 112.054C437.508 112.327 438.841 113.198 440.485 114.703L442.891 116.982L443.227 124.533L443.563 132.083L438.437 132.31C435.571 132.438 429.924 132.77 425.809 132.993L418.389 133.485L418.158 126.456C418.068 122.617 418.037 119.179 418.143 118.851C418.388 117.99 421.822 115.168 423.879 114.146C428.073 112.058 433.011 111.232 436.364 112.054ZM410.774 116.832L412.886 117.952L413.343 121.856C413.559 123.99 413.838 127.538 413.939 129.799L414.12 133.877L408.601 134.365C405.581 134.661 401.671 134.956 399.895 135.035L396.666 135.178L396.854 133.026C396.925 131.89 396.904 128.695 396.782 125.949L396.561 120.983L397.84 119.713C399.309 118.191 402.224 116.443 404.301 115.866C406.457 115.244 408.33 115.525 410.774 116.832ZM341.442 119.226C342.102 119.52 343.367 120.677 344.265 121.77C345.205 122.901 346.147 124.073 346.445 124.424C346.786 124.813 347.11 127.55 347.437 132.188L347.915 139.287L346.271 139.602C345.348 139.765 341.482 140.139 337.695 140.469L330.725 141.062L330.561 136.457C330.448 133.914 330.448 130.273 330.483 128.329C330.609 124.804 330.607 124.764 332.343 122.866C334.269 120.717 337.419 118.797 339.115 118.722C339.76 118.693 340.822 118.929 341.442 119.226ZM317.229 122.203C318.991 122.731 320.324 123.603 322.43 125.491L325.253 128.036L325.67 134.692L326.087 141.349L322.871 141.775C321.1 141.975 316.876 142.486 313.458 142.921C310.079 143.314 306.381 143.843 305.262 144.135C304.141 144.387 303.218 144.55 303.176 144.511C303.091 144.434 303.166 141.558 303.336 138.112C303.466 134.668 303.567 131.467 303.586 130.981C303.534 129.81 307.898 124.276 310.016 122.807C312.214 121.293 313.986 121.133 317.229 122.203Z" fill="#4274D8"/>
<path d="M369.326 31.6143C368.711 32.3293 368.705 33.0983 369.137 39.1877C369.635 45.8406 370.238 48.4838 371.598 49.9607C372.406 50.8552 373.57 49.7516 374.591 47.2385C375.392 45.2611 375.505 44.1638 375.491 40.1999C375.468 36.0341 375.355 35.3109 374.463 33.4492C373.888 32.342 373.111 31.2438 372.699 31.0598C371.5 30.4659 370.054 30.6919 369.326 31.6143Z" fill="#4274D8"/>
<path d="M368.202 56.0138C365.599 57.5049 359.751 66.058 359.85 68.2786C359.92 69.8533 362.109 70.8887 363.444 69.9798C363.719 69.8058 365.283 67.6731 366.876 65.2964C368.507 62.8775 370.156 60.8624 370.516 60.7655C370.916 60.6668 372.583 61.7659 374.643 63.5353C379.814 67.9578 380.955 68.1498 380.793 64.5161C380.605 60.2767 374.741 54.8332 370.584 55.0179C370.221 55.0341 369.149 55.4862 368.202 56.0138Z" fill="#4274D8"/>
<path d="M368.689 71.6077C367.781 72.0931 366.571 73.0773 365.959 73.8732C362.289 78.6481 359.706 91.5061 361.951 93.7932C362.416 94.2579 362.998 94.5962 363.32 94.5818C363.603 94.5693 364.384 94.8582 364.965 95.1965C366.669 96.2131 371.507 95.8767 374.682 94.5219C378.81 92.7608 379.634 90.3778 379.007 82.6383C378.519 77.1177 377.461 74.252 375.229 72.2476C373.378 70.6307 371.022 70.4118 368.689 71.6077ZM371.643 78.9201C371.656 79.2027 371.92 80.6069 372.187 82.0514C372.453 83.496 372.631 85.6726 372.567 86.97L372.425 89.2418L370.016 89.632C368.732 89.8509 367.563 89.9433 367.438 89.8679C367.227 89.675 368.98 83.6098 370.1 80.6069C370.86 78.5908 371.595 77.83 371.643 78.9201Z" fill="#4274D8"/>
<path d="M401.788 62.903C399.417 64.1411 396.216 67.6411 396.275 68.9735C396.322 70.0232 397.288 70.8298 398.499 70.776C398.821 70.7617 400.16 69.9336 401.491 68.944L403.958 67.1352L405.439 68.6067C406.284 69.4187 407.074 69.9095 407.267 69.6986C407.46 69.4878 407.697 68.4658 407.772 67.4107C408.024 64.8913 407.18 63.1893 405.452 62.5379C403.727 61.9268 403.807 61.9232 401.788 62.903Z" fill="#4274D8"/>
<path d="M401.459 84.6439C401.041 85.2289 400.566 86.3827 400.481 87.1955C400.139 89.5167 401.196 100.554 402.064 103.712C403.316 108.227 404.291 107.415 405.969 100.585C407.782 93.1416 407.635 86.1899 405.653 84.3766C404.262 83.1034 402.488 83.2227 401.459 84.6439Z" fill="#4274D8"/>
<path d="M335.152 86.8972C333.88 88.2888 333.883 88.3696 334.396 96.2759C334.735 102.086 335.626 106.659 336.915 109.271C337.937 111.329 338.428 111.469 339.257 110.098C340.648 107.73 341.242 102.889 341.016 95.9817C340.73 88.6317 340.247 86.8731 338.147 86.036C336.665 85.4545 336.427 85.546 335.152 86.8972Z" fill="#4274D8"/>
<path d="M426.795 83.3081C426.024 84.1515 425.998 84.4763 426.339 88.5066C426.648 91.8102 427.048 93.5319 428.054 96.1572C430.017 101.208 430.893 100.886 431.991 94.6473C432.73 90.3666 432.295 85.1269 431.055 83.6043C429.858 82.1606 427.991 82.0009 426.795 83.3081Z" fill="#4274D8"/>
<path d="M311.243 87.6808C310.892 87.9796 310.442 88.7682 310.227 89.3846C309.769 90.9018 310.14 99.2594 310.884 103.272C311.799 108.369 314.038 112.355 315.195 111.09C316.198 109.994 316.982 103.972 316.962 98.0662C316.915 91.5551 316.444 89.1488 314.969 87.7984C314.041 86.9496 312.22 86.9092 311.243 87.6808Z" fill="#4274D8"/>
</svg>
