<svg width="433" height="190" viewBox="0 0 433 190" fill="none" xmlns="http://www.w3.org/2000/svg">
<path d="M15.8628 122.756C14.5768 123.015 13.5632 123.008 12.8221 122.733C12.1187 122.484 11.6065 122.13 11.2855 121.673C10.9959 121.209 10.8226 120.836 10.7655 120.554C10.5817 119.644 10.8373 118.809 11.5323 118.048C12.2524 117.25 13.13 116.746 14.165 116.537C15.1687 116.334 16.3791 115.942 17.7963 115.362C19.2384 114.744 20.7336 113.985 22.2819 113.084C23.8615 112.177 25.3342 111.145 26.7 109.987C28.0971 108.824 29.265 107.575 30.2036 106.243C31.1422 104.911 31.698 103.541 31.8708 102.135C31.1554 102.149 30.4464 102.195 29.7436 102.271C29.0346 102.317 28.335 102.409 27.645 102.549C25.3239 103.018 22.9751 103.754 20.5987 104.756C18.2222 105.759 15.8583 106.743 13.5069 107.708C12.9363 107.954 12.3809 107.952 11.8406 107.702C11.9111 108.373 11.9719 108.998 12.0233 109.575C12.0997 110.114 12.1857 110.701 12.2811 111.335C12.529 112.884 12.6288 114.105 12.5804 114.996C12.557 115.85 12.4548 116.474 12.2736 116.87C12.0924 117.266 11.867 117.523 11.5974 117.643C11.3278 117.763 11.0675 117.848 10.8166 117.899C10.7225 117.918 10.6597 117.931 10.6284 117.937C10.0638 118.051 9.50204 118.018 8.94313 117.837C8.38423 117.656 7.85919 117.158 7.36801 116.343C6.8705 115.497 6.43789 114.164 6.07019 112.345C4.90367 106.574 4.54197 101.554 4.98511 97.2857C5.45327 92.9796 6.66686 89.5349 8.62589 86.9516C10.6099 84.3305 13.28 82.6808 16.6362 82.0025C19.2709 81.4699 21.4712 81.7761 23.237 82.9209C24.9964 84.0344 26.1456 85.9242 26.6845 88.5903C26.9571 89.939 26.9631 91.3416 26.7025 92.7981C26.4419 94.2546 25.9586 95.7398 25.2525 97.2537C25.8231 97.0078 26.3843 96.7964 26.9362 96.6196C27.4818 96.4114 28.0055 96.2565 28.5074 96.1551C31.4557 95.5592 33.7434 95.6518 35.3704 96.4329C36.9911 97.1827 37.979 98.4358 38.334 100.192C38.689 101.949 38.52 103.697 37.827 105.437C37.1653 107.17 36.1489 108.845 34.7778 110.46C33.4317 112.038 31.891 113.541 30.1555 114.97C28.4137 116.366 26.6434 117.622 24.8445 118.736C23.0393 119.82 21.3404 120.702 19.7478 121.383C18.1615 122.095 16.8665 122.553 15.8628 122.756ZM11.4257 102.742C11.5949 102.61 11.7861 102.506 11.9993 102.43C14.7271 101.389 16.7614 100.309 18.1021 99.1887C19.4429 98.0689 20.2719 96.8403 20.5892 95.5029C20.9065 94.1655 20.894 92.65 20.5517 90.9562C20.4629 90.5171 20.3051 90.0593 20.0782 89.5828C19.8513 89.1063 19.5148 88.7336 19.0687 88.4647C18.6476 88.158 18.0763 88.0776 17.3549 88.2234C14.9711 88.7052 13.3236 90.1646 12.4123 92.6014C11.526 95.0005 11.1972 98.3807 11.4257 102.742ZM56.9944 114.589C55.7398 114.842 54.7291 114.687 53.9623 114.124C53.1955 113.561 52.7392 112.919 52.5934 112.197C52.4222 111.35 52.4491 110.676 52.674 110.173C52.8989 109.671 53.444 109.218 54.3092 108.814C55.4504 108.322 56.6259 107.758 57.8358 107.122C59.0771 106.479 60.2525 105.834 61.362 105.185C62.4965 104.499 63.4742 103.844 64.295 103.221C65.1095 102.567 65.6794 101.994 66.0048 101.504C65.4459 101.323 64.5795 101.156 63.4056 101.001C62.2254 100.815 60.907 100.592 59.4505 100.331C58.019 100.033 56.6156 99.6313 55.2402 99.1257C53.8648 98.6202 52.6835 97.9448 51.6965 97.0996C50.7095 96.2544 50.086 95.1888 49.8261 93.9028C49.4647 92.115 49.5804 90.345 50.173 88.5929C50.7656 86.8407 51.6784 85.1381 52.9113 83.4851C54.1443 81.8321 55.5249 80.2634 57.0531 78.7793C58.6127 77.2887 60.1788 75.9111 61.7515 74.6465C63.3491 73.3442 64.7808 72.1896 66.0464 71.1829C66.5162 70.7615 66.9769 70.4562 67.4283 70.267C67.9048 70.0401 68.3469 69.8854 68.7547 69.803C70.1662 69.5177 71.2082 69.6662 71.8809 70.2485C72.5536 70.8308 72.9629 71.4826 73.1087 72.204C73.2101 72.7059 73.0953 73.3494 72.7643 74.1345C72.427 74.8883 71.7978 75.6521 70.8769 76.4259C69.9873 77.1933 68.7367 77.8705 67.125 78.4575C66.849 78.5459 66.6045 78.628 66.3912 78.7037C65.2634 79.5846 64.0668 80.61 62.8015 81.7799C61.5362 82.9497 60.3588 84.1508 59.2694 85.3831C58.2049 86.5776 57.3601 87.7278 56.7347 88.8336C56.1094 89.9394 55.8729 90.8687 56.025 91.6215C56.1962 92.4684 56.6965 93.1671 57.526 93.7177C58.3492 94.2369 59.3511 94.671 60.5316 95.02C61.7372 95.3313 62.9867 95.6175 64.28 95.8784C65.6047 96.133 66.8542 96.4191 68.0284 96.7368C69.2276 97.0168 70.2356 97.4007 71.0525 97.8885C71.8693 98.3763 72.357 99.0123 72.5155 99.7965C72.731 100.863 72.5764 101.955 72.0515 103.073C71.5266 104.192 70.7695 105.291 69.7802 106.373C68.7845 107.423 67.6631 108.417 66.4162 109.354C65.1692 110.292 63.9189 111.132 62.6653 111.875C61.4494 112.644 60.3336 113.261 59.3178 113.727C58.3021 114.194 57.5277 114.481 56.9944 114.589ZM90.7582 107.226C89.0017 107.581 87.398 107.48 85.9472 106.925C84.5027 106.4 83.3087 105.581 82.365 104.466C81.4151 103.319 80.8038 102.072 80.5311 100.723C80.0747 98.4645 79.9981 96.3089 80.3014 94.2561C80.5984 92.172 81.153 90.2316 81.9652 88.4351C82.771 86.6072 83.709 84.9485 84.7791 83.459C85.8805 81.9631 86.9762 80.6806 88.066 79.6115C89.1808 78.5047 90.1988 77.646 91.1201 77.0354C92.0351 76.3934 92.7278 76.0248 93.1983 75.9297C94.0452 75.7586 94.6791 75.8263 95.1002 76.133C95.5464 76.4019 95.8518 76.9441 96.0167 77.7596C96.1118 78.2301 95.8809 78.8644 95.324 79.6626C94.7984 80.4544 94.0723 81.3847 93.1457 82.4535C92.2504 83.5159 91.3146 84.7008 90.3383 86.0081C89.362 87.3155 88.458 88.7388 87.6265 90.278C86.8263 91.8109 86.2397 93.4313 85.8667 95.139C85.525 96.8405 85.5412 98.6165 85.9152 100.467C86.0547 101.157 86.2879 101.665 86.6149 101.991C86.9733 102.31 87.4661 102.406 88.0934 102.279C89.8813 101.918 91.7312 101.218 93.6432 100.178C95.5802 99.1012 97.4698 97.8704 99.312 96.486C101.179 95.0638 102.915 93.6357 104.518 92.2016C106.153 90.7611 107.544 89.4843 108.69 88.3711C109.147 87.887 109.542 87.4971 109.874 87.2014C110.206 86.9058 110.45 86.7421 110.607 86.7104C111.548 86.5202 112.117 86.9113 112.313 87.8836C112.415 88.3855 112.175 89.1359 111.593 90.1349C110.937 91.4103 109.973 92.7803 108.702 94.2452C107.463 95.7037 106.041 97.15 104.437 98.5841C102.865 100.012 101.223 101.339 99.5127 102.567C97.8333 103.788 96.2288 104.814 94.6992 105.645C93.1697 106.477 91.856 107.004 90.7582 107.226ZM128.897 90.7511C128.402 88.3045 128.384 85.7943 128.843 83.2203C129.296 80.6149 130.101 78.0528 131.256 75.5339C132.437 72.9772 133.857 70.5519 135.515 68.2579C137.174 65.9639 138.993 63.8986 140.972 62.062C142.945 60.1941 144.953 58.6618 146.997 57.4653C149.065 56.231 151.056 55.4205 152.969 55.0338C155.667 54.4886 158.203 54.7595 160.577 55.8466C162.945 56.9024 164.982 58.6617 166.688 61.1246C168.419 63.5498 169.646 66.5502 170.368 70.1259C170.863 72.5724 170.977 74.9162 170.712 77.1572C170.441 79.3668 169.911 81.351 169.124 83.1098C168.362 84.8309 167.439 86.2417 166.356 87.3421C165.304 88.4363 164.213 89.0974 163.084 89.3257C162.519 89.4398 161.892 89.485 161.201 89.4613C160.511 89.4376 159.82 89.2508 159.129 88.9007C158.432 88.5193 157.762 87.8712 157.12 86.9562C156.478 86.0413 155.908 84.7528 155.408 83.0907C154.345 84.6116 153.227 86.0291 152.056 87.3431C150.911 88.6194 149.789 89.6949 148.693 90.5694C147.621 91.4063 146.678 91.9071 145.863 92.072C143.949 92.4587 142.464 92.2201 141.408 91.3562C140.384 90.486 139.706 89.2354 139.377 87.6043C139.136 86.4124 139.221 85.0567 139.632 83.5371C140.037 81.9862 140.658 80.3752 141.496 78.7042C142.358 76.9954 143.331 75.346 144.413 73.7561C145.521 72.1284 146.644 70.6607 147.784 69.353C148.917 68.014 149.972 66.9356 150.949 66.1177C151.952 65.2622 152.751 64.7742 153.347 64.6537C153.88 64.5459 154.395 64.5888 154.891 64.7823C155.418 64.9695 155.73 65.2984 155.825 65.7689C155.99 66.5844 155.781 67.3285 155.199 68.0012C154.61 68.6425 154.009 69.3027 153.395 69.9817C152.481 70.95 151.457 72.1037 150.324 73.4428C149.222 74.7755 148.199 76.1739 147.254 77.6381C146.303 79.0709 145.563 80.4939 145.032 81.907C144.502 83.3201 144.35 84.5912 144.579 85.7204C144.744 86.5359 145.061 86.8961 145.532 86.801C146.034 86.6996 146.776 86.1741 147.759 85.2244C148.736 84.2434 149.82 82.9798 151.009 81.4335C152.192 79.8559 153.365 78.1496 154.528 76.3147C154.676 74.9463 154.953 73.6498 155.358 72.4252C155.757 71.1693 156.235 70.1422 156.792 69.3441C157.374 68.5082 157.948 68.0332 158.512 67.9191C159.108 67.7986 159.579 67.8667 159.925 68.1233C160.264 68.3485 160.51 68.8375 160.662 69.5903C160.839 70.4686 160.788 71.5073 160.508 72.7065C160.222 73.8744 159.776 75.1399 159.17 76.5029C159.165 77.2874 159.179 78.0028 159.212 78.6492C159.245 79.2955 159.315 79.8853 159.423 80.4185C159.511 80.8576 159.632 81.372 159.783 81.9616C159.96 82.5135 160.168 82.9775 160.408 83.3535C160.678 83.7232 160.986 83.8732 161.331 83.8035C162.335 83.6006 163.074 82.9778 163.549 81.9351C164.017 80.861 164.313 79.577 164.435 78.0831C164.551 76.5578 164.532 75.0109 164.379 73.4423C164.256 71.8673 164.071 70.4682 163.824 69.245C163.418 67.2376 162.762 65.5256 161.856 64.1092C160.98 62.6864 159.842 61.6595 158.442 61.0285C157.072 60.3912 155.446 60.2627 153.565 60.6431C151.902 60.9791 150.231 61.676 148.551 62.7337C146.872 63.7915 145.261 65.1127 143.721 66.6973C142.18 68.2819 140.772 70.0357 139.495 71.9587C138.213 73.8503 137.128 75.8325 136.241 77.9053C135.379 79.9404 134.775 81.9562 134.427 83.9526C134.08 85.949 134.084 87.8254 134.439 89.5819C134.825 91.4952 135.895 92.9929 137.649 94.075C139.395 95.1258 141.593 95.7426 144.242 95.9254C146.897 96.1397 149.777 95.933 152.882 95.3053C155.486 94.7791 158.183 93.9891 160.973 92.9354C163.77 91.913 166.406 90.4987 168.881 88.6925C169.22 88.4283 169.561 88.1797 169.906 87.9468C170.282 87.7075 170.674 87.5467 171.082 87.4643C171.583 87.3628 172.042 87.4498 172.456 87.7251C172.903 87.994 173.176 88.3794 173.278 88.8812C173.398 89.4772 173.337 90.061 173.093 90.6326C172.85 91.2041 172.496 91.7163 172.032 92.1691C169.464 94.4839 166.628 96.3629 163.525 97.8064C160.428 99.2813 157.295 100.339 154.127 100.979C150.928 101.626 147.884 101.833 144.997 101.6C142.141 101.361 139.57 100.755 137.284 99.7804C135.004 98.8374 133.137 97.5986 131.684 96.064C130.225 94.4981 129.296 92.7271 128.897 90.7511ZM214.165 82.6737C212.879 82.9336 211.866 82.9263 211.124 82.6517C210.421 82.4021 209.909 82.0485 209.588 81.5911C209.298 81.1272 209.125 80.7542 209.068 80.4719C208.884 79.5623 209.14 78.7271 209.835 77.9663C210.555 77.1678 211.432 76.664 212.467 76.4548C213.471 76.2519 214.681 75.8603 216.099 75.2801C217.541 74.6621 219.036 73.9028 220.584 73.0022C222.164 72.0953 223.637 71.0631 225.002 69.9055C226.399 68.7417 227.567 67.4936 228.506 66.1612C229.445 64.8288 230 63.4596 230.173 62.0535C229.458 62.0675 228.749 62.1129 228.046 62.1896C227.337 62.235 226.637 62.3274 225.947 62.4669C223.626 62.936 221.277 63.6719 218.901 64.6746C216.525 65.6773 214.161 66.6612 211.809 67.6262C211.239 67.8721 210.683 67.8701 210.143 67.6202C210.213 68.2915 210.274 68.9158 210.326 69.4931C210.402 70.0326 210.488 70.6192 210.583 71.2529C210.831 72.8025 210.931 74.0229 210.883 74.9142C210.859 75.7677 210.757 76.3924 210.576 76.7881C210.395 77.1838 210.169 77.4416 209.9 77.5614C209.63 77.6812 209.37 77.7664 209.119 77.8172C209.025 77.8362 208.962 77.8489 208.931 77.8552C208.366 77.9693 207.804 77.936 207.245 77.7551C206.687 77.5742 206.161 77.0764 205.67 76.2616C205.173 75.4153 204.74 74.0826 204.372 72.2634C203.206 66.4921 202.844 61.4723 203.287 57.2039C203.756 52.8978 204.969 49.4531 206.928 46.8697C208.912 44.2487 211.582 42.599 214.938 41.9207C217.573 41.3881 219.773 41.6943 221.539 42.8391C223.299 43.9526 224.448 45.8424 224.987 48.5085C225.259 49.8572 225.265 51.2598 225.005 52.7163C224.744 54.1728 224.261 55.658 223.555 57.1719C224.125 56.926 224.687 56.7146 225.239 56.5378C225.784 56.3295 226.308 56.1747 226.81 56.0733C229.758 55.4773 232.046 55.5699 233.673 56.3511C235.293 57.1009 236.281 58.354 236.636 60.1105C236.991 61.867 236.822 63.6151 236.129 65.3549C235.468 67.0883 234.451 68.7629 233.08 70.3786C231.734 71.9565 230.193 73.4596 228.458 74.8877C226.716 76.2845 224.946 77.5401 223.147 78.6546C221.342 79.7377 219.643 80.6198 218.05 81.3008C216.464 82.0132 215.169 82.4708 214.165 82.6737ZM209.728 62.66C209.897 62.5279 210.088 62.424 210.302 62.3482C213.029 61.3071 215.064 60.2267 216.404 59.1069C217.745 57.9871 218.574 56.7585 218.891 55.4211C219.209 54.0837 219.196 52.5681 218.854 50.8744C218.765 50.4353 218.607 49.9775 218.38 49.501C218.154 49.0245 217.817 48.6518 217.371 48.3828C216.95 48.0762 216.379 47.9958 215.657 48.1416C213.273 48.6234 211.626 50.0827 210.715 52.5196C209.828 54.9187 209.499 58.2989 209.728 62.66ZM254.131 74.4487C251.904 74.8988 249.957 74.4761 248.292 73.1804C246.62 71.8534 245.514 69.8568 244.975 67.1907C244.804 66.3438 244.74 65.4591 244.782 64.5365C244.855 63.6075 244.988 62.7318 245.181 61.9093C244.936 61.665 244.706 61.336 244.492 60.9222C244.303 60.4708 244.145 59.9314 244.018 59.3041C243.606 57.2653 243.589 55.3261 243.968 53.4866C244.341 51.6156 245.012 49.9292 245.982 48.4274C246.952 46.9255 248.104 45.6805 249.438 44.6925C250.773 43.7045 252.193 43.0583 253.699 42.754C256.271 42.2342 258.547 42.672 260.526 44.0674C262.537 45.4565 263.911 47.9703 264.646 51.6087C265.014 53.4279 265.106 55.3355 264.921 57.3316C264.737 59.3276 264.333 61.2865 263.71 63.2081C263.111 65.0921 262.321 66.8352 261.339 68.4375C260.388 70.0335 259.286 71.3662 258.033 72.4357C256.812 73.4987 255.511 74.1698 254.131 74.4487ZM250.164 58.6985C250.39 59.0118 250.551 59.4037 250.646 59.8742C250.741 60.3447 250.745 60.8498 250.659 61.3897C250.572 61.9296 250.52 62.642 250.503 63.5269C250.48 64.3805 250.623 65.5757 250.934 67.1126C251.016 67.5204 251.133 67.8559 251.284 68.1192C251.46 68.3447 251.752 68.4163 252.16 68.3339C253.227 68.1184 254.161 67.5705 254.962 66.6902C255.795 65.8036 256.474 64.7197 256.998 63.4384C257.554 62.1507 257.959 60.7629 258.213 59.2751C258.493 57.7495 258.628 56.2368 258.618 54.7369C258.634 53.1993 258.515 51.8032 258.262 50.5486C258.097 49.7331 257.826 49.2002 257.449 48.9499C257.072 48.6997 256.491 48.6538 255.707 48.8123C254.64 49.0278 253.612 49.5947 252.623 50.513C251.658 51.3936 250.917 52.4902 250.398 53.8029C249.874 55.0842 249.757 56.4463 250.049 57.8891C250.106 58.1714 250.144 58.4412 250.164 58.6985ZM282.49 68.4717C280.734 68.8267 279.13 68.7265 277.679 68.1709C276.235 67.6467 275.041 66.827 274.097 65.7118C273.147 64.5653 272.536 63.3177 272.263 61.969C271.807 59.7106 271.73 57.5551 272.033 55.5023C272.33 53.4182 272.885 51.4778 273.697 49.6813C274.503 47.8534 275.441 46.1947 276.511 44.7052C277.613 43.2093 278.708 41.9268 279.798 40.8577C280.913 39.7509 281.931 38.8922 282.852 38.2816C283.767 37.6396 284.46 37.271 284.93 37.1759C285.777 37.0048 286.411 37.0725 286.832 37.3791C287.278 37.6481 287.584 38.1903 287.749 39.0058C287.844 39.4763 287.613 40.1106 287.056 40.9088C286.53 41.7006 285.804 42.6309 284.878 43.6997C283.982 44.7621 283.047 45.947 282.07 47.2543C281.094 48.5617 280.19 49.985 279.359 51.5242C278.558 53.0571 277.972 54.6775 277.599 56.3852C277.257 58.0866 277.273 59.8626 277.647 61.7132C277.787 62.4033 278.02 62.9111 278.347 63.2368C278.705 63.5561 279.198 63.6524 279.825 63.5256C281.613 63.1642 283.463 62.4638 285.375 61.4244C287.312 60.3473 289.202 59.1166 291.044 57.7322C292.911 56.31 294.647 54.8819 296.25 53.4477C297.885 52.0073 299.276 50.7305 300.422 49.6173C300.879 49.1331 301.274 48.7432 301.606 48.4476C301.938 48.152 302.182 47.9883 302.339 47.9566C303.28 47.7664 303.849 48.1575 304.045 49.1298C304.147 49.6317 303.907 50.3821 303.325 51.3811C302.669 52.6564 301.705 54.0265 300.434 55.4914C299.195 56.9499 297.773 58.3962 296.169 59.8303C294.597 61.2581 292.956 62.5857 291.245 63.8129C289.565 65.0338 287.961 66.0601 286.431 66.8916C284.902 67.7231 283.588 68.2498 282.49 68.4717ZM311.252 62.6582C309.496 63.0132 307.892 62.9129 306.441 62.3573C304.997 61.8331 303.803 61.0135 302.859 59.8983C301.909 58.7518 301.298 57.5042 301.025 56.1554C300.569 53.8971 300.492 51.7415 300.796 49.6888C301.093 47.6046 301.647 45.6643 302.459 43.8678C303.265 42.0399 304.203 40.3812 305.273 38.8916C306.375 37.3958 307.47 36.1133 308.56 35.0442C309.675 33.9374 310.693 33.0787 311.614 32.468C312.529 31.826 313.222 31.4575 313.692 31.3624C314.539 31.1912 315.173 31.259 315.594 31.5656C316.04 31.8346 316.346 32.3768 316.511 33.1923C316.606 33.6628 316.375 34.2971 315.818 35.0953C315.293 35.8871 314.566 36.8174 313.64 37.8861C312.745 38.9486 311.809 40.1334 310.832 41.4408C309.856 42.7481 308.952 44.1714 308.121 45.7107C307.32 47.2436 306.734 48.8639 306.361 50.5717C306.019 52.2731 306.035 54.0491 306.409 55.8997C306.549 56.5897 306.782 57.0976 307.109 57.4233C307.467 57.7426 307.96 57.8389 308.588 57.7121C310.375 57.3507 312.225 56.6503 314.137 55.6109C316.074 54.5338 317.964 53.303 319.806 51.9186C321.673 50.4965 323.409 49.0684 325.013 47.6342C326.648 46.1937 328.038 44.9169 329.184 43.8038C329.641 43.3196 330.036 42.9297 330.368 42.6341C330.7 42.3384 330.945 42.1748 331.101 42.1431C332.042 41.9529 332.611 42.3439 332.808 43.3163C332.909 43.8181 332.669 44.5686 332.087 45.5676C331.431 46.8429 330.467 48.213 329.196 49.6778C327.957 51.1363 326.535 52.5827 324.931 54.0168C323.359 55.4446 321.718 56.7721 320.007 57.9994C318.327 59.2203 316.723 60.2465 315.193 61.0781C313.664 61.9096 312.35 62.4363 311.252 62.6582ZM361.64 53.5998C360.417 53.8471 359.456 53.6984 358.759 53.1539C358.067 52.6407 357.528 51.4274 357.142 49.5141C356.812 47.8831 356.651 45.712 356.658 43.0009C356.665 40.2898 356.693 37.3621 356.743 34.2178C354.048 38.8109 350.534 42.1003 346.201 44.086C345.672 46.1518 344.954 48.0925 344.048 49.908C343.142 51.7235 342.066 53.2633 340.819 54.5272C339.598 55.7535 338.219 56.522 336.682 56.8326C334.769 57.2193 332.995 56.9249 331.361 55.9492C329.759 54.9672 328.695 53.1745 328.169 50.5711C327.814 48.8147 327.779 47.2709 328.065 45.9399C328.345 44.5774 328.766 43.5129 329.329 42.7461C328.524 41.6683 327.966 40.3609 327.655 38.824C327.237 36.7539 327.43 34.8049 328.236 32.977C329.042 31.1491 330.278 29.5933 331.945 28.3097C333.643 27.0197 335.59 26.1528 337.786 25.709C339.009 25.4618 340.233 25.5408 341.457 25.9463C342.707 26.314 343.804 27.0554 344.747 28.1706C345.716 29.248 346.391 30.7277 346.771 32.6097C347.088 34.1779 347.201 35.9506 347.111 37.9276C349.072 36.1602 350.903 33.9128 352.604 31.1857C354.337 28.4522 355.778 25.484 356.926 22.281C357.288 21.3264 357.955 20.7508 358.928 20.5543C359.743 20.3894 360.437 20.5104 361.009 20.9171C361.606 21.2862 361.983 21.8628 362.142 22.6469C362.174 22.8037 362.184 23.3403 362.173 24.2566C362.163 25.1729 362.143 26.3684 362.115 27.8433C362.08 29.2868 362.043 30.8777 362.002 32.6162C361.993 34.3483 361.99 36.1118 361.994 37.9067C361.998 39.7015 362.014 41.3959 362.042 42.9899C362.56 41.3509 363.121 39.6051 363.726 37.7525C364.356 35.8622 365.024 33.997 365.729 32.1567C366.428 30.2851 367.143 28.5735 367.874 27.0219C368.605 25.4704 369.315 24.2169 370.003 23.2616C370.685 22.2749 371.324 21.7213 371.92 21.6009C373.112 21.36 374.186 21.5021 375.141 22.0273C376.096 22.5525 376.646 23.1758 376.792 23.8972C376.938 24.6187 377.084 25.748 377.232 27.2852C377.379 28.8225 377.518 30.5575 377.647 32.4901C377.802 34.3851 377.944 36.2989 378.073 38.2315C378.203 40.1642 378.344 41.9148 378.498 43.4835C378.646 45.0207 378.795 46.1657 378.948 46.9185C379.074 47.5458 378.897 48.202 378.415 48.887C377.933 49.5721 377.316 49.9907 376.563 50.1428C376.5 50.1555 376.391 50.1777 376.234 50.2094C375.864 50.3168 375.506 50.3238 375.161 50.2304C374.822 50.1683 374.46 49.7517 374.076 48.9806C373.723 48.2031 373.349 46.8421 372.956 44.8974C372.69 43.58 372.461 42.1245 372.27 40.5309C372.078 38.9372 371.918 37.3373 371.789 35.7309C371.685 34.0869 371.62 32.5495 371.592 31.1187C371.049 32.6322 370.45 34.353 369.795 36.281C369.165 38.1713 368.497 40.1181 367.792 42.1215C367.081 44.0936 366.36 45.937 365.629 47.6517C364.923 49.3288 364.223 50.7109 363.529 51.798C362.866 52.8788 362.236 53.4794 361.64 53.5998ZM340.774 41.4613C340.934 40.1556 341.007 38.8187 340.991 37.4506C340.97 36.0512 340.829 34.7085 340.569 33.4225C340.461 32.8893 340.247 32.3939 339.926 31.9364C339.605 31.479 339.178 31.3041 338.645 31.4119C337.578 31.6275 336.572 32.0594 335.625 32.7077C334.711 33.3497 334.006 34.145 333.512 35.0937C333.018 36.0423 332.886 37.0812 333.114 38.2104C333.317 39.2141 333.817 39.9944 334.615 40.5513C335.445 41.1019 336.396 41.4482 337.47 41.5904C338.575 41.7262 339.629 41.6927 340.633 41.4898C340.664 41.4835 340.711 41.4739 340.774 41.4613ZM339.682 45.9914C338.577 46.182 337.482 46.2564 336.397 46.2147C335.305 46.1416 334.284 45.9397 333.336 45.609C333.343 46.1299 333.348 46.6351 333.349 47.1246C333.343 47.5827 333.382 48.0157 333.464 48.4234C333.604 49.1135 333.84 49.7186 334.174 50.2388C334.533 50.7213 335.088 50.8865 335.841 50.7343C336.625 50.5758 337.34 50.0723 337.984 49.2238C338.66 48.3689 339.226 47.2914 339.682 45.9914ZM391.456 45.8104C390.578 45.9879 389.733 45.8484 388.923 45.392C388.144 44.9291 387.618 44.0234 387.345 42.6746C387.199 41.9532 387.088 40.9148 387.009 39.5594C386.963 38.1977 386.957 36.7135 386.991 35.1068C387.019 33.4688 387.082 31.8401 387.179 30.2208C387.307 28.5951 387.455 27.1451 387.622 25.8708C387.782 24.5651 387.959 23.5826 388.152 22.9233C388.414 22.1194 388.702 21.6042 389.015 21.3777C389.353 21.1134 389.695 20.9464 390.04 20.8767C390.667 20.7499 391.286 20.8208 391.895 21.0894C392.536 21.3517 392.986 22.1258 393.246 23.4118C393.347 23.9136 393.418 24.7482 393.458 25.9154C393.492 27.0512 393.516 28.3848 393.532 29.916C393.548 31.4472 393.542 33.0319 393.514 34.6699C393.517 36.3016 393.504 37.8549 393.476 39.3297C393.473 40.7669 393.472 41.9749 393.474 42.9539C393.476 43.7698 393.264 44.4166 392.838 44.8944C392.45 45.3973 391.989 45.7026 391.456 45.8104ZM391.028 15.829C389.993 16.0382 388.976 15.9336 387.977 15.5151C386.972 15.0653 386.339 14.1974 386.08 12.9114C385.864 11.845 385.956 10.9286 386.356 10.1621C386.756 9.39565 387.289 8.79837 387.953 8.37026C388.642 7.90445 389.269 7.61449 389.834 7.50037C390.399 7.38626 391.051 7.38492 391.792 7.49637C392.526 7.57646 393.208 7.87944 393.837 8.40532C394.49 8.89349 394.931 9.70216 395.159 10.8313C395.312 11.5841 395.184 12.328 394.778 13.0631C394.365 13.7668 393.802 14.3705 393.087 14.874C392.404 15.3712 391.718 15.6895 391.028 15.829ZM403.015 59.1446C400.344 60.468 398.835 60.2671 398.486 58.542C398.302 57.6324 398.683 56.7718 399.629 55.9603C401.001 54.671 401.983 52.9871 402.575 50.9086C403.135 48.8365 403.441 46.5546 403.493 44.063C403.576 41.5651 403.526 39.0612 403.346 36.5513C403.3 35.5159 403.464 34.797 403.84 34.3946C404.21 33.9608 404.645 33.6932 405.147 33.5918C406.119 33.3952 407.108 33.6034 408.114 34.2164C409.113 34.798 409.79 35.967 410.145 37.7235C410.626 40.1073 410.725 42.4542 410.441 44.7643C410.189 47.068 409.672 49.1965 408.892 51.1499C408.149 53.1282 407.249 54.812 406.191 56.2011C405.133 57.5902 404.075 58.5713 403.015 59.1446ZM59.0646 180.281C58.155 180.465 57.4079 180.322 56.8233 179.852C56.2701 179.376 55.8952 178.652 55.6987 177.68C55.5402 176.896 55.4352 176.215 55.3839 175.638C55.3325 175.061 55.3375 174.439 55.3989 173.774C55.4539 173.077 55.5275 172.23 55.6196 171.232C55.7367 170.196 55.8784 168.878 56.0446 167.277C56.1493 166.342 56.263 165.127 56.3854 163.634C56.5329 162.102 56.655 160.445 56.7518 158.662C56.8423 156.849 56.8543 155.05 56.7879 153.268C56.7465 151.448 56.5768 149.801 56.2789 148.327C56.076 147.324 55.6694 146.443 55.0591 145.684C52.7254 149.16 50.726 153.482 49.0609 158.65C47.4272 163.812 46.2279 169.67 45.4631 176.223C45.1778 177.88 44.697 179.055 44.0206 179.747C43.3379 180.407 42.6359 180.81 41.9145 180.956C41.6949 181 41.3402 180.941 40.8504 180.779C40.3542 180.586 39.845 180.166 39.3228 179.521C38.8006 178.876 38.4063 177.894 38.1401 176.577C38.0767 176.263 38.0758 175.855 38.1376 175.353C38.193 174.819 38.3204 174.239 38.52 173.611C38.4726 171.923 38.3246 170.141 38.076 168.265C37.8525 166.351 37.5694 164.466 37.2267 162.609C36.909 160.714 36.5854 158.951 36.2557 157.32C36.0021 156.066 35.6861 154.987 35.3077 154.084C34.1639 156.339 33.1808 158.987 32.3587 162.026C31.5365 165.065 30.8746 168.251 30.3731 171.585C29.9029 174.912 29.6083 178.138 29.4891 181.264C29.4468 182.023 29.3635 182.742 29.2394 183.42C29.1089 184.067 28.8308 184.629 28.405 185.107C28.0043 185.547 27.3491 185.859 26.4395 186.043C25.4358 186.245 24.6006 185.99 23.9339 185.276C23.2672 184.562 22.7976 183.53 22.525 182.182C22.3157 181.146 22.2659 179.769 22.3753 178.049C22.4784 176.298 22.7098 174.374 23.0695 172.277C23.4229 170.149 23.8797 167.967 24.44 165.732C25.0253 163.459 25.6734 161.255 26.3845 159.12C27.0956 156.985 27.8635 155.05 28.6884 153.316C29.5383 151.545 30.392 150.115 31.2495 149.028C32.1321 147.903 33.0125 147.251 33.8908 147.074C33.9221 147.068 33.9692 147.058 34.0319 147.045C34.722 146.906 35.362 146.842 35.9519 146.853C36.5669 146.827 37.151 147.052 37.7042 147.527C38.2825 147.965 38.8709 148.777 39.4695 149.962C40.0681 151.147 40.7243 152.859 41.438 155.098C41.6149 155.65 41.7982 156.314 41.9881 157.092C42.1716 157.839 42.3458 158.62 42.5106 159.435C43.0766 156.905 43.7651 154.497 44.5763 152.211C45.4188 149.918 46.3403 147.855 47.3406 146.02C48.3724 144.179 49.4582 142.687 50.598 141.542C51.7379 140.398 52.8724 139.711 54.0015 139.483C55.3189 139.217 56.6087 139.299 57.871 139.729C59.127 140.128 60.2521 141.011 61.2465 142.377C62.2409 143.743 63.0011 145.728 63.5273 148.331C64.0852 151.091 64.3764 153.824 64.4007 156.529C64.4187 159.202 64.2827 161.76 63.9928 164.202C63.7028 166.643 63.3748 168.897 63.0087 170.963C62.6364 172.997 62.3387 174.754 62.1158 176.236C61.9046 177.291 61.5958 178.186 61.1893 178.921C60.7766 179.625 60.0684 180.078 59.0646 180.281ZM77.8568 176.531C76.9786 176.709 76.1342 176.569 75.3237 176.113C74.5446 175.65 74.0187 174.744 73.7461 173.396C73.6003 172.674 73.4883 171.636 73.4102 170.28C73.3635 168.919 73.3574 167.434 73.3917 165.828C73.4198 164.19 73.4823 162.561 73.5794 160.942C73.7079 159.316 73.8556 157.866 74.0224 156.592C74.1829 155.286 74.3598 154.304 74.553 153.644C74.8149 152.84 75.1025 152.325 75.4159 152.099C75.7542 151.834 76.0959 151.667 76.4409 151.598C77.0682 151.471 77.6865 151.542 78.2958 151.81C78.9365 152.073 79.3868 152.847 79.6467 154.133C79.7482 154.635 79.8189 155.469 79.8589 156.636C79.8926 157.772 79.9173 159.106 79.933 160.637C79.9487 162.168 79.9425 163.753 79.9145 165.391C79.9178 167.022 79.9053 168.576 79.8769 170.051C79.8736 171.488 79.8729 172.696 79.8749 173.675C79.8766 174.491 79.6645 175.138 79.2387 175.615C78.8507 176.118 78.39 176.424 77.8568 176.531ZM77.4285 146.55C76.3934 146.759 75.3765 146.654 74.3778 146.236C73.3728 145.786 72.7403 144.918 72.4804 143.632C72.2648 142.566 72.3571 141.649 72.7572 140.883C73.1572 140.117 73.6895 139.519 74.3538 139.091C75.0432 138.625 75.6702 138.335 76.2347 138.221C76.7993 138.107 77.452 138.106 78.1928 138.217C78.9272 138.297 79.6087 138.6 80.2374 139.126C80.891 139.614 81.332 140.423 81.5602 141.552C81.7124 142.305 81.5853 143.049 81.1788 143.784C80.7661 144.488 80.2025 145.091 79.4881 145.595C78.805 146.092 78.1185 146.41 77.4285 146.55ZM100.437 173.681C97.6137 174.252 95.2124 173.839 93.2327 172.444C91.278 171.011 89.9742 168.679 89.3212 165.448C88.9662 163.692 88.7862 161.59 88.7812 159.142C88.7698 156.663 88.8743 154.031 89.0945 151.244C89.3398 148.419 89.6384 145.616 89.9904 142.835C90.3738 140.048 90.7796 137.452 91.2077 135.048C91.6358 132.643 92.0271 130.622 92.3814 128.983C92.7115 127.709 93.394 126.967 94.4291 126.757C95.0877 126.624 95.6622 126.72 96.1523 127.046C96.6739 127.365 97.0266 127.979 97.2104 128.889C97.2992 129.328 97.273 130.329 97.1318 131.892C96.9907 133.455 96.7781 135.391 96.4942 137.701C96.2352 139.974 95.9484 142.431 95.6338 145.074C95.3505 147.71 95.1017 150.356 94.8875 153.011C94.7046 155.66 94.6187 158.142 94.6297 160.458C94.6344 162.742 94.792 164.653 95.1027 166.19C95.2295 166.817 95.5034 167.284 95.9245 167.591C96.377 167.891 96.9012 167.981 97.4971 167.86C98.7831 167.6 100.053 167.099 101.307 166.356C102.592 165.606 103.82 164.738 104.991 163.75C106.194 162.756 107.309 161.731 108.336 160.674C109.363 159.618 110.274 158.634 111.07 157.722C111.89 156.773 112.554 156.019 113.061 155.459C113.724 154.705 114.197 154.299 114.48 154.242C115.546 154.026 116.184 154.436 116.393 155.471C116.444 155.722 116.235 156.303 115.766 157.214C115.372 158.012 114.797 159.042 114.04 160.305C113.283 161.568 112.382 162.925 111.337 164.377C110.317 165.791 109.191 167.162 107.957 168.488C106.755 169.809 105.514 170.941 104.236 171.885C102.958 172.829 101.691 173.428 100.437 173.681ZM118.647 167.748C116.671 168.147 115.107 167.843 113.957 166.835C112.831 165.789 112.078 164.325 111.698 162.443C111.337 160.656 111.38 158.851 111.828 157.03C112.27 155.178 112.994 153.35 114.001 151.547C115.008 149.744 116.193 148.019 117.558 146.372C118.916 144.694 120.319 143.153 121.766 141.751C123.238 140.311 124.666 139.059 126.051 137.995C127.429 136.901 128.642 136.035 129.689 135.399C130.735 134.763 131.51 134.394 132.011 134.293C132.545 134.185 133.012 134.238 133.414 134.45C133.842 134.625 134.131 135.089 134.283 135.842C134.442 136.626 134.271 137.395 133.77 138.149C133.27 138.903 132.609 139.592 131.788 140.215C130.629 141.102 129.326 142.165 127.879 143.404C126.457 144.606 125.044 145.936 123.641 147.395C122.239 148.854 120.977 150.366 119.857 151.931C118.768 153.489 117.943 155.06 117.381 156.643C116.813 158.194 116.675 159.691 116.967 161.134C117.03 161.447 117.144 161.686 117.307 161.848C117.471 162.011 117.756 162.051 118.164 161.969C118.697 161.861 119.352 161.468 120.129 160.788C120.9 160.078 121.717 159.194 122.581 158.138C123.438 157.051 124.28 155.885 125.106 154.64C125.925 153.365 126.666 152.105 127.329 150.861C128.017 149.579 128.564 148.408 128.969 147.346C129.263 146.536 129.66 145.836 130.161 145.245C130.693 144.648 131.288 144.282 131.947 144.149C132.48 144.041 132.951 144.109 133.359 144.353C133.793 144.56 134.086 145.039 134.238 145.792C134.288 146.043 134.393 146.642 134.552 147.589C134.705 148.505 134.883 149.628 135.086 150.958C135.315 152.251 135.572 153.602 135.857 155.014C136.104 156.237 136.429 157.281 136.833 158.147C137.261 158.974 137.868 159.309 138.652 159.15C139.593 158.96 140.498 158.434 141.369 157.573C142.233 156.68 143.031 155.621 143.763 154.395C144.52 153.132 145.186 151.822 145.76 150.466C146.335 149.109 146.797 147.84 147.146 146.66C147.52 145.442 147.766 144.478 147.883 143.768C147.733 140.926 147.829 138.654 148.171 136.952C148.506 135.22 148.999 133.945 149.65 133.127C150.333 132.304 151.05 131.816 151.803 131.664C152.65 131.493 153.397 131.554 154.044 131.848C154.722 132.135 155.213 133.031 155.518 134.537C155.676 135.321 155.585 136.564 155.243 138.265C154.901 139.967 154.372 141.869 153.654 143.973C153.689 145.435 153.827 146.925 154.068 148.444C154.31 149.962 154.689 151.354 155.206 152.621C155.933 151.854 156.618 150.801 157.261 149.463C157.899 148.094 158.511 146.599 159.097 144.979C159.678 143.327 160.258 141.675 160.838 140.024C161.412 138.34 161.996 136.786 162.589 135.36C163.214 133.928 163.858 132.753 164.521 131.836C165.209 130.88 165.961 130.32 166.777 130.155C167.624 129.984 168.424 129.986 169.177 130.16C169.956 130.296 170.666 130.74 171.308 131.492C171.974 132.206 172.588 133.306 173.15 134.793C173.736 136.241 174.277 138.189 174.772 140.635C175.031 141.921 175.411 143.15 175.909 144.323C176.401 145.464 177.024 146.367 177.778 147.03C178.526 147.663 179.434 147.871 180.5 147.655C182.225 147.307 183.705 146.714 184.94 145.877C186.168 145.008 187.205 144.08 188.05 143.093C188.895 142.106 189.59 141.264 190.134 140.566C190.704 139.831 191.177 139.425 191.553 139.349C192.181 139.222 192.689 139.315 193.079 139.628C193.494 139.903 193.755 140.308 193.863 140.841C193.926 141.155 193.77 141.757 193.396 142.649C193.046 143.504 192.512 144.493 191.792 145.618C191.098 146.705 190.243 147.808 189.229 148.927C188.24 150.009 187.143 150.965 185.94 151.796C184.737 152.627 183.461 153.178 182.112 153.451C179.666 153.945 177.554 153.915 175.777 153.36C174.024 152.768 172.544 151.5 171.335 149.557C170.151 147.576 169.195 144.782 168.466 141.175C168.421 140.956 168.38 140.752 168.342 140.564C168.304 140.375 168.266 140.187 168.228 139.999C168.069 139.215 167.917 138.544 167.772 137.985C167.658 137.421 167.491 136.998 167.27 136.716C166.94 137.664 166.544 138.854 166.082 140.286C165.652 141.711 165.162 143.247 164.614 144.892C164.065 146.537 163.45 148.18 162.769 149.819C162.12 151.452 161.429 152.963 160.698 154.351C159.967 155.74 159.188 156.893 158.361 157.811C157.566 158.722 156.745 159.264 155.898 159.435C155.271 159.562 154.517 159.388 153.638 158.912C152.789 158.431 152.007 157.708 151.289 156.743C150.566 155.746 150.064 154.558 149.785 153.178C148.779 155.144 147.697 156.979 146.539 158.682C145.376 160.354 144.17 161.74 142.924 162.841C141.715 163.967 140.483 164.657 139.228 164.91C138.193 165.119 137.129 165.024 136.037 164.625C134.975 164.219 133.944 163.317 132.943 161.92C131.943 160.523 131.063 158.431 130.304 155.647C129.204 157.795 127.997 159.737 126.682 161.472C125.399 163.2 124.069 164.612 122.69 165.706C121.343 166.795 119.995 167.475 118.647 167.748ZM195.845 151.948C195.092 152.101 194.288 152.002 193.434 151.652C192.605 151.265 191.857 150.632 191.19 149.755C190.516 148.847 190.037 147.687 189.752 146.275C189.371 144.393 189.217 142.335 189.287 140.101C189.39 137.86 189.601 135.597 189.923 133.312C190.245 131.027 190.576 128.871 190.917 126.843C191.078 125.864 191.378 125.166 191.817 124.751C192.249 124.305 192.872 123.999 193.688 123.834C195.539 123.46 196.651 124.199 197.025 126.049C197.088 126.363 197.071 127.003 196.972 127.97C196.868 128.905 196.71 130.063 196.499 131.444C196.32 132.819 196.132 134.31 195.934 135.917C195.762 137.486 195.627 139.081 195.53 140.7C195.458 142.281 195.448 143.769 195.501 145.162C196.001 143.918 196.525 142.392 197.073 140.584C197.647 138.738 198.252 136.803 198.888 134.781C199.555 132.753 200.248 130.85 200.966 129.072C201.678 127.264 202.434 125.756 203.235 124.549C204.036 123.343 204.891 122.647 205.8 122.464C206.585 122.305 207.353 122.313 208.107 122.487C208.885 122.624 209.627 123.061 210.331 123.8C211.029 124.508 211.675 125.602 212.268 127.082C212.892 128.555 213.458 130.547 213.965 133.056C214.218 134.311 214.575 135.512 215.036 136.659C215.521 137.769 216.126 138.659 216.849 139.329C217.566 139.968 218.441 140.182 219.477 139.973C221.264 139.612 222.797 138.959 224.076 138.015C225.354 137.071 226.438 136.052 227.327 134.959C228.216 133.865 228.954 132.916 229.542 132.111C229.893 131.583 230.199 131.162 230.462 130.848C230.757 130.527 231.014 130.345 231.233 130.3C231.892 130.167 232.397 130.245 232.749 130.532C233.133 130.814 233.385 131.253 233.505 131.849C233.568 132.162 233.419 132.797 233.057 133.751C232.695 134.706 232.139 135.83 231.388 137.125C230.663 138.381 229.79 139.635 228.77 140.886C227.749 142.137 226.6 143.235 225.322 144.179C224.043 145.122 222.667 145.743 221.193 146.041C218.715 146.542 216.572 146.518 214.763 145.97C212.98 145.384 211.483 144.119 210.275 142.176C209.059 140.202 208.081 137.379 207.339 133.71C207.32 133.616 207.288 133.459 207.244 133.239C207.047 132.267 206.857 131.407 206.674 130.661C206.522 129.908 206.351 129.306 206.162 128.855C205.825 129.935 205.417 131.225 204.937 132.726C204.488 134.221 203.995 135.822 203.459 137.53C202.916 139.207 202.339 140.874 201.728 142.532C201.11 144.159 200.466 145.66 199.798 147.036C199.16 148.405 198.507 149.533 197.837 150.419C197.167 151.306 196.503 151.815 195.845 151.948ZM234.99 144.036C234.238 144.188 233.434 144.089 232.58 143.74C231.751 143.352 231.003 142.72 230.336 141.843C229.662 140.934 229.183 139.774 228.898 138.363C228.517 136.481 228.363 134.423 228.433 132.188C228.535 129.948 228.747 127.685 229.069 125.4C229.391 123.115 229.722 120.958 230.063 118.931C230.224 117.951 230.524 117.254 230.962 116.839C231.395 116.393 232.018 116.087 232.834 115.922C234.684 115.548 235.797 116.286 236.171 118.137C236.234 118.451 236.217 119.091 236.118 120.057C236.013 120.993 235.856 122.151 235.645 123.532C235.466 124.907 235.278 126.398 235.08 128.005C234.908 129.574 234.773 131.168 234.676 132.788C234.604 134.369 234.594 135.856 234.647 137.25C235.147 136.006 235.671 134.48 236.219 132.671C236.793 130.825 237.398 128.891 238.034 126.869C238.701 124.84 239.394 122.938 240.112 121.16C240.824 119.351 241.58 117.843 242.381 116.637C243.182 115.43 244.037 114.735 244.946 114.551C245.73 114.393 246.499 114.401 247.253 114.575C248.031 114.711 248.773 115.149 249.477 115.888C250.175 116.596 250.821 117.69 251.413 119.169C252.038 120.643 252.604 122.634 253.111 125.144C253.364 126.398 253.721 127.599 254.182 128.747C254.667 129.857 255.272 130.747 255.995 131.417C256.711 132.055 257.587 132.27 258.622 132.061C260.41 131.699 261.943 131.047 263.222 130.103C264.5 129.159 265.584 128.14 266.473 127.046C267.361 125.952 268.1 125.003 268.688 124.199C269.039 123.671 269.345 123.25 269.608 122.935C269.903 122.615 270.159 122.432 270.379 122.388C271.038 122.255 271.543 122.332 271.895 122.62C272.279 122.902 272.53 123.341 272.651 123.936C272.714 124.25 272.565 124.884 272.203 125.839C271.841 126.794 271.285 127.918 270.534 129.212C269.809 130.469 268.936 131.723 267.915 132.974C266.895 134.225 265.746 135.322 264.467 136.266C263.189 137.21 261.813 137.831 260.339 138.129C257.861 138.63 255.718 138.606 253.909 138.057C252.126 137.471 250.629 136.207 249.42 134.264C248.205 132.289 247.227 129.467 246.485 125.797C246.466 125.703 246.434 125.546 246.39 125.327C246.193 124.355 246.003 123.495 245.82 122.749C245.668 121.996 245.497 121.394 245.308 120.942C244.971 122.022 244.563 123.313 244.082 124.814C243.634 126.308 243.141 127.91 242.605 129.618C242.062 131.294 241.485 132.962 240.874 134.62C240.256 136.247 239.612 137.748 238.944 139.124C238.306 140.493 237.653 141.621 236.983 142.507C236.313 143.393 235.649 143.903 234.99 144.036ZM274.136 136.124C273.384 136.276 272.58 136.177 271.726 135.827C270.897 135.44 270.149 134.808 269.482 133.93C268.808 133.022 268.329 131.862 268.044 130.45C267.663 128.568 267.508 126.51 267.579 124.276C267.681 122.035 267.893 119.773 268.215 117.488C268.536 115.202 268.868 113.046 269.209 111.018C269.37 110.039 269.67 109.342 270.108 108.927C270.54 108.48 271.164 108.175 271.98 108.01C273.83 107.636 274.943 108.374 275.317 110.225C275.38 110.538 275.363 111.178 275.264 112.145C275.159 113.08 275.002 114.239 274.791 115.62C274.612 116.994 274.424 118.485 274.226 120.092C274.053 121.662 273.919 123.256 273.822 124.875C273.749 126.457 273.74 127.944 273.793 129.337C274.293 128.094 274.817 126.568 275.365 124.759C275.939 122.913 276.544 120.979 277.18 118.957C277.847 116.928 278.54 115.025 279.258 113.248C279.969 111.439 280.726 109.931 281.527 108.725C282.327 107.518 283.183 106.823 284.092 106.639C284.876 106.48 285.645 106.488 286.399 106.662C287.177 106.799 287.918 107.237 288.623 107.976C289.321 108.683 289.966 109.777 290.559 111.257C291.184 112.731 291.749 114.722 292.257 117.231C292.51 118.486 292.867 119.687 293.328 120.835C293.813 121.944 294.417 122.834 295.141 123.504C295.857 124.143 296.733 124.358 297.768 124.148C299.556 123.787 301.089 123.134 302.368 122.19C303.646 121.246 304.729 120.228 305.618 119.134C306.507 118.04 307.246 117.091 307.834 116.286C308.185 115.759 308.491 115.337 308.754 115.023C309.048 114.702 309.305 114.52 309.525 114.476C310.184 114.342 310.689 114.42 311.041 114.708C311.424 114.989 311.676 115.428 311.797 116.024C311.86 116.338 311.711 116.972 311.349 117.927C310.987 118.881 310.43 120.006 309.68 121.3C308.955 122.557 308.082 123.81 307.061 125.061C306.041 126.312 304.892 127.41 303.613 128.354C302.335 129.298 300.959 129.919 299.485 130.217C297.007 130.718 294.863 130.694 293.055 130.145C291.271 129.559 289.775 128.294 288.566 126.351C287.351 124.377 286.373 121.555 285.631 117.885C285.612 117.791 285.58 117.634 285.536 117.414C285.339 116.442 285.149 115.583 284.966 114.836C284.813 114.084 284.643 113.481 284.454 113.03C284.117 114.11 283.708 115.401 283.228 116.901C282.779 118.396 282.287 119.997 281.751 121.705C281.208 123.382 280.631 125.05 280.019 126.708C279.401 128.334 278.758 129.835 278.089 131.211C277.452 132.581 276.799 133.708 276.129 134.595C275.459 135.481 274.795 135.991 274.136 136.124ZM313.282 128.211C312.529 128.364 311.726 128.265 310.872 127.915C310.043 127.528 309.294 126.895 308.627 126.018C307.954 125.11 307.475 123.949 307.189 122.538C306.809 120.656 306.654 118.598 306.725 116.364C306.827 114.123 307.039 111.86 307.361 109.575C307.682 107.29 308.014 105.134 308.355 103.106C308.516 102.127 308.816 101.429 309.254 101.014C309.686 100.568 310.31 100.262 311.126 100.097C312.976 99.7233 314.088 100.462 314.463 102.312C314.526 102.626 314.508 103.266 314.41 104.233C314.305 105.168 314.148 106.326 313.937 107.707C313.758 109.082 313.569 110.573 313.372 112.18C313.199 113.749 313.065 115.343 312.967 116.963C312.895 118.544 312.886 120.032 312.939 121.425C313.438 120.181 313.962 118.655 314.511 116.847C315.085 115 315.689 113.066 316.325 111.044C316.993 109.016 317.685 107.113 318.404 105.335C319.115 103.526 319.872 102.019 320.672 100.812C321.473 99.6056 322.328 98.9104 323.238 98.7265C324.022 98.568 324.791 98.5759 325.544 98.75C326.323 98.8865 327.064 99.3243 327.769 100.063C328.467 100.771 329.112 101.865 329.705 103.345C330.33 104.818 330.895 106.81 331.402 109.319C331.656 110.574 332.013 111.775 332.474 112.922C332.959 114.032 333.563 114.922 334.286 115.592C335.003 116.231 335.879 116.445 336.914 116.236C338.702 115.875 340.235 115.222 341.513 114.278C342.792 113.334 343.875 112.315 344.764 111.221C345.653 110.128 346.392 109.179 346.98 108.374C347.33 107.846 347.637 107.425 347.9 107.111C348.194 106.79 348.451 106.608 348.671 106.563C349.329 106.43 349.835 106.507 350.187 106.795C350.57 107.077 350.822 107.516 350.943 108.112C351.006 108.425 350.857 109.06 350.495 110.014C350.133 110.969 349.576 112.093 348.826 113.388C348.101 114.644 347.228 115.898 346.207 117.149C345.187 118.4 344.037 119.497 342.759 120.441C341.481 121.385 340.105 122.006 338.63 122.304C336.152 122.805 334.009 122.781 332.201 122.233C330.417 121.647 328.921 120.382 327.712 118.439C326.497 116.464 325.518 113.642 324.777 109.973C324.758 109.879 324.726 109.722 324.682 109.502C324.485 108.53 324.295 107.67 324.111 106.924C323.959 106.171 323.789 105.569 323.599 105.118C323.263 106.198 322.854 107.488 322.374 108.989C321.925 110.484 321.433 112.085 320.897 113.793C320.354 115.47 319.777 117.137 319.165 118.795C318.547 120.422 317.904 121.923 317.235 123.299C316.598 124.668 315.944 125.796 315.275 126.682C314.605 127.569 313.941 128.078 313.282 128.211ZM352.428 120.299C351.675 120.451 350.872 120.352 350.018 120.003C349.188 119.615 348.44 118.983 347.773 118.106C347.1 117.197 346.621 116.037 346.335 114.626C345.955 112.744 345.8 110.686 345.871 108.451C345.973 106.211 346.185 103.948 346.507 101.663C346.828 99.3778 347.16 97.2214 347.501 95.1936C347.662 94.2143 347.962 93.5171 348.4 93.102C348.832 92.6555 349.456 92.3499 350.271 92.185C352.122 91.811 353.234 92.5493 353.608 94.3998C353.672 94.7135 353.654 95.3537 353.556 96.3203C353.451 97.2556 353.293 98.4138 353.083 99.7949C352.904 101.17 352.715 102.661 352.518 104.268C352.345 105.837 352.21 107.431 352.113 109.05C352.041 110.632 352.032 112.119 352.085 113.513C352.584 112.269 353.108 110.743 353.657 108.934C354.23 107.088 354.835 105.154 355.471 103.132C356.139 101.103 356.831 99.2005 357.549 97.423C358.261 95.6141 359.017 94.1064 359.818 92.8998C360.619 91.6932 361.474 90.998 362.384 90.8142C363.168 90.6557 363.937 90.6635 364.69 90.8377C365.469 90.9742 366.21 91.412 366.915 92.1511C367.613 92.8588 368.258 93.9526 368.851 95.4324C369.475 96.906 370.041 98.8974 370.548 101.407C370.802 102.661 371.159 103.862 371.619 105.01C372.105 106.12 372.709 107.01 373.432 107.68C374.149 108.318 375.025 108.533 376.06 108.324C377.848 107.962 379.381 107.31 380.659 106.366C381.938 105.422 383.021 104.403 383.91 103.309C384.799 102.215 385.538 101.266 386.126 100.462C386.476 99.9338 386.783 99.5127 387.046 99.1984C387.34 98.8777 387.597 98.6952 387.817 98.6508C388.475 98.5177 388.981 98.5951 389.333 98.8831C389.716 99.1647 389.968 99.6035 390.088 100.199C390.152 100.513 390.003 101.147 389.641 102.102C389.278 103.057 388.722 104.181 387.972 105.475C387.246 106.732 386.373 107.986 385.353 109.237C384.333 110.488 383.183 111.585 381.905 112.529C380.627 113.473 379.25 114.094 377.776 114.392C375.298 114.893 373.155 114.869 371.347 114.32C369.563 113.734 368.067 112.47 366.858 110.527C365.643 108.552 364.664 105.73 363.922 102.06C363.903 101.966 363.872 101.809 363.827 101.59C363.631 100.617 363.441 99.7581 363.257 99.0116C363.105 98.2588 362.934 97.6567 362.745 97.2053C362.409 98.2854 362 99.5759 361.52 101.077C361.071 102.571 360.579 104.173 360.042 105.881C359.5 107.557 358.923 109.225 358.311 110.883C357.693 112.51 357.05 114.011 356.381 115.386C355.744 116.756 355.09 117.884 354.421 118.77C353.751 119.656 353.087 120.166 352.428 120.299ZM391.574 112.387C390.821 112.539 390.018 112.44 389.163 112.09C388.334 111.703 387.586 111.071 386.919 110.193C386.246 109.285 385.766 108.125 385.481 106.713C385.101 104.831 384.946 102.773 385.017 100.539C385.119 98.2983 385.331 96.0355 385.652 93.7505C385.974 91.4654 386.305 89.309 386.646 87.2813C386.808 86.3019 387.107 85.6047 387.546 85.1896C387.978 84.7432 388.602 84.4375 389.417 84.2727C391.268 83.8986 392.38 84.6369 392.754 86.4875C392.818 86.8011 392.8 87.4413 392.702 88.408C392.597 89.3433 392.439 90.5015 392.229 91.8825C392.049 93.2573 391.861 94.7482 391.664 96.3552C391.491 97.9244 391.356 99.5188 391.259 101.138C391.187 102.72 391.178 104.207 391.231 105.6C391.73 104.357 392.254 102.831 392.803 101.022C393.376 99.1757 393.981 97.2416 394.617 95.2195C395.284 93.1911 395.977 91.2881 396.695 89.5106C397.407 87.7017 398.163 86.194 398.964 84.9875C399.765 83.7809 400.62 83.0857 401.53 82.9018C402.314 82.7433 403.083 82.7512 403.836 82.9253C404.615 83.0618 405.356 83.4996 406.06 84.2387C406.759 84.9464 407.404 86.0402 407.997 87.5201C408.621 88.9936 409.187 90.985 409.694 93.4943C409.948 94.7489 410.305 95.95 410.765 97.0975C411.251 98.2073 411.855 99.0972 412.578 99.7672C413.295 100.406 414.171 100.621 415.206 100.411C416.994 100.05 418.527 99.3974 419.805 98.4534C421.083 97.5094 422.167 96.4905 423.056 95.3968C423.945 94.303 424.683 93.3538 425.272 92.5493C425.622 92.0214 425.929 91.6003 426.192 91.286C426.486 90.9654 426.743 90.7828 426.963 90.7385C427.621 90.6053 428.127 90.6827 428.479 90.9707C428.862 91.2523 429.114 91.6911 429.234 92.2871C429.298 92.6007 429.148 93.2349 428.786 94.1895C428.424 95.1442 427.868 96.2687 427.118 97.563C426.392 98.8196 425.519 100.073 424.499 101.324C423.479 102.575 422.329 103.673 421.051 104.617C419.773 105.561 418.396 106.182 416.922 106.48C414.444 106.981 412.301 106.957 410.492 106.408C408.709 105.822 407.213 104.557 406.004 102.614C404.789 100.64 403.81 97.8177 403.068 94.1479C403.049 94.0538 403.018 93.897 402.973 93.6774C402.777 92.7051 402.587 91.8457 402.403 91.0993C402.251 90.3465 402.08 89.7444 401.891 89.2929C401.554 90.373 401.146 91.6635 400.666 93.1644C400.217 94.6589 399.725 96.2602 399.188 97.9683C398.646 99.6451 398.069 101.312 397.457 102.97C396.839 104.597 396.196 106.098 395.527 107.474C394.89 108.844 394.236 109.971 393.567 110.858C392.897 111.744 392.233 112.254 391.574 112.387Z" fill="#4274D8"/>
</svg>
