<svg width="566" height="323" viewBox="0 0 566 323" fill="none" xmlns="http://www.w3.org/2000/svg">
<path d="M24.5393 306.006C23.2534 306.266 22.2398 306.258 21.4987 305.984C20.7953 305.734 20.2831 305.381 19.9621 304.923C19.6725 304.459 19.4992 304.086 19.4421 303.804C19.2582 302.894 19.5138 302.059 20.2089 301.298C20.929 300.5 21.8065 299.996 22.8416 299.787C23.8453 299.584 25.0557 299.192 26.4729 298.612C27.915 297.994 29.4102 297.235 30.9585 296.334C32.5381 295.427 34.0108 294.395 35.3766 293.238C36.7737 292.074 37.9415 290.826 38.8802 289.493C39.8188 288.161 40.3746 286.792 40.5474 285.386C39.832 285.4 39.1229 285.445 38.4202 285.522C37.7112 285.567 37.0116 285.66 36.3216 285.799C34.0005 286.268 31.6517 287.004 29.2753 288.007C26.8988 289.009 24.5349 289.993 22.1835 290.958C21.6129 291.204 21.0575 291.202 20.5172 290.952C20.5876 291.624 20.6485 292.248 20.6999 292.825C20.7763 293.365 20.8623 293.951 20.9577 294.585C21.2056 296.135 21.3054 297.355 21.257 298.246C21.2336 299.1 21.1314 299.724 20.9502 300.12C20.769 300.516 20.5436 300.774 20.274 300.894C20.0044 301.013 19.7441 301.099 19.4932 301.149C19.3991 301.168 19.3363 301.181 19.305 301.187C18.7404 301.301 18.1786 301.268 17.6197 301.087C17.0608 300.906 16.5358 300.409 16.0446 299.594C15.5471 298.747 15.1145 297.415 14.7468 295.596C13.5803 289.824 13.2186 284.804 13.6617 280.536C14.1299 276.23 15.3435 272.785 17.3025 270.202C19.2865 267.581 21.9566 265.931 25.3128 265.253C27.9475 264.72 30.1477 265.026 31.9136 266.171C33.673 267.285 34.8222 269.175 35.3611 271.841C35.6337 273.189 35.6397 274.592 35.3791 276.048C35.1185 277.505 34.6352 278.99 33.9291 280.504C34.4997 280.258 35.0609 280.047 35.6128 279.87C36.1584 279.662 36.6821 279.507 37.184 279.405C40.1323 278.809 42.42 278.902 44.047 279.683C45.6677 280.433 46.6556 281.686 47.0106 283.443C47.3656 285.199 47.1966 286.947 46.5035 288.687C45.8419 290.42 44.8255 292.095 43.4544 293.711C42.1083 295.289 40.5676 296.792 38.8321 298.22C37.0903 299.617 35.32 300.872 33.5211 301.987C31.7159 303.07 30.017 303.952 28.4244 304.633C26.8381 305.345 25.5431 305.803 24.5393 306.006ZM20.1023 285.992C20.2715 285.86 20.4627 285.756 20.6759 285.68C23.4037 284.639 25.438 283.559 26.7787 282.439C28.1194 281.319 28.9485 280.091 29.2658 278.753C29.5831 277.416 29.5706 275.9 29.2283 274.207C29.1395 273.767 28.9817 273.31 28.7548 272.833C28.5279 272.357 28.1914 271.984 27.7452 271.715C27.3241 271.408 26.7529 271.328 26.0315 271.474C23.6477 271.956 22.0002 273.415 21.0889 275.852C20.2026 278.251 19.8738 281.631 20.1023 285.992ZM60.5821 298.819C59.5784 299.021 58.6118 298.923 57.6821 298.523C56.7588 298.155 55.9732 297.579 55.3252 296.796C54.6709 295.981 54.2391 295.057 54.0299 294.022C53.6368 292.077 53.6767 290.094 54.1495 288.072C54.6537 286.044 55.4435 284.056 56.519 282.108C57.5944 280.161 58.8239 278.329 60.2073 276.613C61.6157 274.859 63.0497 273.312 64.5092 271.972C66.0001 270.626 67.3785 269.532 68.6445 268.688C69.9419 267.838 70.9826 267.334 71.7667 267.176C72.6763 266.992 73.4546 267.047 74.1016 267.34C74.7737 267.596 75.1921 268.132 75.3569 268.947C75.4077 269.198 75.3861 269.415 75.2924 269.597C75.7191 269.609 76.096 269.777 76.423 270.103C76.75 270.429 76.9896 270.968 77.1418 271.721C77.2052 272.034 77.2916 272.866 77.401 274.215C77.5105 275.564 77.6613 277.198 77.8535 279.118C78.077 281.032 78.3949 283.008 78.807 285.047C78.8704 285.361 78.9745 285.633 79.1193 285.865C79.2577 286.066 79.4838 286.134 79.7975 286.071C81.0521 285.817 82.2717 285.31 83.4563 284.548C84.6658 283.748 85.8062 282.849 86.8773 281.849C87.9734 280.811 88.9473 279.814 89.7988 278.859C90.6754 277.865 91.408 277.048 91.9966 276.407C92.6102 275.728 93.0268 275.366 93.2464 275.321C94.3128 275.106 94.9538 275.531 95.1694 276.598C95.2264 276.88 95.0018 277.546 94.4957 278.595C94.0145 279.606 93.3109 280.809 92.385 282.205C91.4527 283.568 90.3792 284.961 89.1646 286.381C87.9751 287.764 86.6847 288.972 85.2936 290.004C83.9339 291.03 82.5483 291.685 81.1368 291.971C79.4117 292.319 78.0119 292.178 76.9375 291.546C75.8944 290.908 75.0452 289.937 74.3899 288.633C73.7596 287.291 73.2512 285.745 72.8648 283.995C71.728 286.608 70.4777 288.983 69.1139 291.12C67.7752 293.219 66.3793 294.953 64.9261 296.325C63.4729 297.696 62.0249 298.527 60.5821 298.819ZM72.473 271.881C69.6971 273.976 67.2793 276.228 65.2195 278.636C63.1533 281.012 61.6081 283.381 60.5837 285.743C59.5906 288.099 59.2875 290.233 59.6742 292.146C59.782 292.679 60.0868 292.895 60.5886 292.794C61.1846 292.673 61.899 292.17 62.7319 291.283C63.5961 290.39 64.4943 289.262 65.4266 287.898C66.3526 286.503 67.2532 284.983 68.1284 283.337C68.9973 281.659 69.7815 279.966 70.4809 278.258C71.1803 276.55 71.6885 274.945 72.0055 273.444C72.1236 272.898 72.2794 272.377 72.473 271.881ZM102.283 289.9C100.527 290.255 98.9233 290.155 97.4724 289.599C96.028 289.075 94.8339 288.255 93.8903 287.14C92.9403 285.994 92.329 284.746 92.0564 283.397C91.5999 281.139 91.5233 278.983 91.8267 276.931C92.1236 274.846 92.6782 272.906 93.4904 271.11C94.2962 269.282 95.2342 267.623 96.3043 266.134C97.4058 264.638 98.5014 263.355 99.5912 262.286C100.706 261.179 101.724 260.321 102.645 259.71C103.56 259.068 104.253 258.699 104.724 258.604C105.57 258.433 106.204 258.501 106.625 258.807C107.072 259.076 107.377 259.619 107.542 260.434C107.637 260.905 107.406 261.539 106.849 262.337C106.324 263.129 105.598 264.059 104.671 265.128C103.776 266.19 102.84 267.375 101.864 268.683C100.887 269.99 99.9833 271.413 99.1517 272.953C98.3516 274.485 97.765 276.106 97.3919 277.814C97.0502 279.515 97.0664 281.291 97.4404 283.142C97.5799 283.832 97.8131 284.339 98.1402 284.665C98.4985 284.984 98.9914 285.081 99.6187 284.954C101.407 284.593 103.256 283.892 105.168 282.853C107.105 281.776 108.995 280.545 110.837 279.16C112.705 277.738 114.44 276.31 116.044 274.876C117.679 273.436 119.069 272.159 120.215 271.046C120.673 270.561 121.067 270.172 121.399 269.876C121.731 269.58 121.976 269.417 122.132 269.385C123.073 269.195 123.642 269.586 123.839 270.558C123.94 271.06 123.7 271.81 123.118 272.809C122.462 274.085 121.498 275.455 120.227 276.92C118.988 278.378 117.566 279.825 115.963 281.259C114.39 282.686 112.749 284.014 111.038 285.241C109.359 286.462 107.754 287.488 106.224 288.32C104.695 289.151 103.381 289.678 102.283 289.9ZM126.447 287.464C125.004 287.756 123.887 287.558 123.095 286.869C122.302 286.18 121.748 285.052 121.431 283.483C121.139 282.041 121.026 280.105 121.09 277.676C121.179 275.209 121.386 272.441 121.713 269.372C122.064 266.265 122.509 263.057 123.049 259.748C123.582 256.409 124.174 253.122 124.827 249.889C125.473 246.624 126.138 243.617 126.823 240.866C127.165 239.655 127.609 238.781 128.154 238.247C128.699 237.712 129.348 237.369 130.101 237.217C130.822 237.071 131.475 237.151 132.059 237.457C132.637 237.732 133.012 238.293 133.183 239.14C133.221 239.328 133.116 240.1 132.867 241.457C132.613 242.781 132.277 244.514 131.861 246.655C131.439 248.764 130.989 251.141 130.511 253.784C130.027 256.395 129.565 259.117 129.125 261.948C128.679 264.748 128.32 267.498 128.05 270.197C127.779 272.896 127.627 275.375 127.594 277.634C128.394 275.938 129.241 274.07 130.134 272.028C131.052 269.949 131.989 267.882 132.945 265.828C133.926 263.736 134.908 261.808 135.889 260.042C136.902 258.27 137.882 256.816 138.827 255.678C139.772 254.54 140.668 253.885 141.515 253.714C143.084 253.397 144.427 253.583 145.545 254.271C146.689 254.921 147.473 256.297 147.898 258.399C148.094 259.371 148.144 260.585 148.046 262.041C147.943 263.466 147.776 264.985 147.547 266.599C147.344 268.174 147.193 269.69 147.095 271.146C146.998 272.602 147.054 273.848 147.263 274.883C147.377 275.448 147.701 275.676 148.234 275.568C149.771 275.258 151.257 274.614 152.692 273.639C154.159 272.657 155.515 271.534 156.761 270.27C158.033 268.968 159.166 267.711 160.161 266.497C161.182 265.246 162.002 264.216 162.621 263.405C163.053 262.795 163.473 262.368 163.88 262.122C164.281 261.845 164.67 261.668 165.046 261.592C166.332 261.332 167.105 261.846 167.365 263.131C167.416 263.382 167.432 263.706 167.414 264.101C167.39 264.465 167.181 264.964 166.787 265.599C166.393 266.234 165.792 267.139 164.985 268.314C164.178 269.489 163.211 270.762 162.084 272.132C160.988 273.496 159.758 274.839 158.393 276.159C157.052 277.442 155.63 278.562 154.126 279.519C152.621 280.476 151.101 281.11 149.564 281.421C147.243 281.89 145.322 281.593 143.801 280.529C142.286 279.496 141.304 277.867 140.854 275.64C140.543 274.103 140.467 272.111 140.625 269.663C140.777 267.183 140.998 264.641 141.287 262.036C140.405 263.325 139.517 264.826 138.623 266.541C137.723 268.225 136.826 270.006 135.932 271.884C135.032 273.731 134.145 275.559 133.27 277.369C132.42 279.14 131.592 280.777 130.786 282.278C129.973 283.748 129.203 284.949 128.477 285.879C127.751 286.809 127.074 287.338 126.447 287.464ZM172.551 275.991C170.606 276.384 168.902 276.027 167.437 274.919C165.966 273.78 164.923 271.689 164.308 268.646C163.915 266.702 163.742 264.713 163.788 262.679C163.859 260.608 164.125 258.612 164.585 256.691C165.071 254.732 165.723 252.951 166.542 251.349C167.392 249.741 168.412 248.408 169.602 247.352C170.786 246.263 172.1 245.574 173.542 245.282C175.989 244.787 178.035 245.059 179.682 246.098C181.328 247.136 182.357 248.675 182.769 250.714C183.086 252.282 182.936 253.798 182.318 255.261C181.724 256.687 180.792 258.051 179.521 259.352C178.249 260.654 176.786 261.897 175.132 263.08C173.478 264.263 171.76 265.377 169.98 266.423C170.052 267.584 170.176 268.603 170.354 269.481C170.461 270.015 170.813 270.221 171.409 270.1C172.821 269.815 174.282 269.291 175.793 268.529C177.329 267.729 178.855 266.8 180.371 265.743C181.882 264.654 183.326 263.562 184.704 262.467C186.077 261.341 187.317 260.29 188.426 259.315C189.56 258.303 190.49 257.494 191.217 256.89C191.968 256.249 192.47 255.903 192.721 255.852C193.411 255.712 193.954 255.815 194.35 256.159C194.746 256.504 194.992 256.911 195.087 257.381C195.131 257.601 194.806 258.173 194.111 259.097C193.448 260.014 192.499 261.136 191.266 262.463C190.057 263.752 188.67 265.126 187.104 266.585C185.563 268.007 183.934 269.397 182.217 270.756C180.526 272.078 178.843 273.201 177.169 274.127C175.533 275.078 173.994 275.699 172.551 275.991ZM169.934 262.074C171.068 261.061 172.179 260.02 173.269 258.951C174.384 257.844 175.26 256.688 175.898 255.481C176.529 254.244 176.702 252.919 176.417 251.508C176.335 251.1 176.171 250.856 175.926 250.775C175.675 250.662 175.345 250.647 174.937 250.73C173.84 250.951 172.934 251.64 172.221 252.797C171.539 253.946 171.009 255.36 170.629 257.036C170.275 258.675 170.043 260.354 169.934 262.074ZM204.378 270.342C201.555 270.912 199.154 270.5 197.174 269.104C195.219 267.671 193.915 265.339 193.262 262.109C192.907 260.352 192.727 258.25 192.722 255.803C192.711 253.324 192.815 250.691 193.036 247.904C193.281 245.079 193.579 242.277 193.932 239.496C194.315 236.709 194.721 234.113 195.149 231.708C195.577 229.304 195.968 227.282 196.323 225.643C196.653 224.369 197.335 223.627 198.37 223.418C199.029 223.285 199.603 223.381 200.093 223.706C200.615 224.025 200.968 224.639 201.152 225.549C201.24 225.988 201.214 226.989 201.073 228.552C200.932 230.115 200.719 232.051 200.435 234.361C200.176 236.634 199.89 239.091 199.575 241.734C199.292 244.37 199.043 247.016 198.829 249.671C198.646 252.32 198.56 254.802 198.571 257.118C198.575 259.402 198.733 261.313 199.044 262.85C199.171 263.477 199.444 263.944 199.866 264.251C200.318 264.551 200.842 264.641 201.438 264.521C202.724 264.261 203.994 263.759 205.248 263.016C206.533 262.267 207.761 261.398 208.932 260.41C210.135 259.416 211.25 258.391 212.277 257.335C213.304 256.278 214.216 255.294 215.011 254.383C215.831 253.433 216.495 252.679 217.002 252.119C217.665 251.365 218.138 250.959 218.421 250.902C219.487 250.687 220.125 251.096 220.334 252.131C220.385 252.382 220.176 252.963 219.707 253.874C219.313 254.672 218.738 255.702 217.981 256.965C217.225 258.228 216.324 259.586 215.278 261.038C214.258 262.452 213.132 263.822 211.898 265.149C210.696 266.469 209.455 267.601 208.177 268.545C206.899 269.489 205.632 270.088 204.378 270.342ZM227.199 264.896C224.972 265.346 223.026 264.924 221.36 263.628C219.688 262.301 218.583 260.304 218.044 257.638C217.873 256.791 217.808 255.907 217.85 254.984C217.924 254.055 218.057 253.179 218.25 252.357C218.004 252.113 217.775 251.784 217.56 251.37C217.371 250.918 217.213 250.379 217.086 249.752C216.674 247.713 216.658 245.774 217.037 243.934C217.41 242.063 218.081 240.377 219.05 238.875C220.02 237.373 221.172 236.128 222.507 235.14C223.842 234.152 225.262 233.506 226.767 233.202C229.339 232.682 231.615 233.12 233.595 234.515C235.606 235.904 236.979 238.418 237.715 242.056C238.082 243.875 238.174 245.783 237.99 247.779C237.806 249.775 237.402 251.734 236.778 253.656C236.18 255.54 235.389 257.283 234.407 258.885C233.457 260.481 232.355 261.814 231.102 262.883C229.88 263.946 228.579 264.617 227.199 264.896ZM223.232 249.146C223.459 249.459 223.62 249.851 223.715 250.322C223.81 250.792 223.814 251.297 223.727 251.837C223.64 252.377 223.589 253.09 223.572 253.975C223.548 254.828 223.692 256.023 224.003 257.56C224.085 257.968 224.202 258.303 224.353 258.567C224.529 258.792 224.821 258.864 225.229 258.781C226.295 258.566 227.229 258.018 228.031 257.138C228.864 256.251 229.542 255.167 230.067 253.886C230.623 252.598 231.028 251.211 231.282 249.723C231.561 248.197 231.696 246.684 231.687 245.184C231.703 243.647 231.584 242.251 231.33 240.996C231.165 240.181 230.894 239.648 230.517 239.397C230.14 239.147 229.56 239.101 228.775 239.26C227.709 239.475 226.681 240.042 225.691 240.961C224.727 241.841 223.985 242.938 223.467 244.25C222.942 245.532 222.826 246.894 223.118 248.337C223.175 248.619 223.213 248.889 223.232 249.146ZM249.137 261.001C248.353 261.159 247.621 261.013 246.943 260.563C246.295 260.106 245.864 259.344 245.648 258.278C245.553 257.807 245.461 257.026 245.371 255.935C245.306 254.805 245.24 253.512 245.174 252.057C245.14 250.594 245.077 249.073 244.986 247.491C244.927 245.904 244.836 244.404 244.713 242.992C244.623 241.574 244.51 240.373 244.377 239.387C244.198 238.183 244.341 237.273 244.804 236.657C245.261 236.009 245.881 235.606 246.666 235.448C247.293 235.321 247.889 235.364 248.454 235.576C249.045 235.751 249.498 236.296 249.813 237.211C250.154 238.089 250.436 239.403 250.659 241.154C251.532 238.366 252.474 235.841 253.487 233.58C254.53 231.312 255.719 229.439 257.052 227.962C259.256 225.46 261.409 223.996 263.51 223.571C264.702 223.33 265.54 223.438 266.025 223.896C266.509 224.353 266.808 224.864 266.922 225.428C266.998 225.805 266.974 226.169 266.849 226.52C266.755 226.866 266.477 227.265 266.013 227.718C265.55 228.17 264.826 228.79 263.843 229.576C262.521 230.627 261.262 231.91 260.066 233.425C258.902 234.933 257.808 236.787 256.783 238.986C255.758 241.184 254.807 243.825 253.928 246.908C253.049 249.991 252.232 253.617 251.474 257.786C251.408 258.909 251.143 259.698 250.679 260.15C250.247 260.597 249.733 260.88 249.137 261.001ZM289.608 243.271C289.113 240.825 289.096 238.315 289.555 235.741C290.008 233.135 290.812 230.573 291.968 228.054C293.149 225.498 294.568 223.072 296.227 220.778C297.885 218.484 299.704 216.419 301.683 214.582C303.656 212.714 305.665 211.182 307.708 209.986C309.777 208.751 311.768 207.941 313.681 207.554C316.378 207.009 318.914 207.28 321.289 208.367C323.657 209.423 325.694 211.182 327.399 213.645C329.13 216.07 330.357 219.07 331.08 222.646C331.574 225.093 331.689 227.436 331.424 229.677C331.152 231.887 330.623 233.871 329.835 235.63C329.073 237.351 328.151 238.762 327.067 239.862C326.015 240.957 324.924 241.618 323.795 241.846C323.231 241.96 322.603 242.005 321.913 241.982C321.222 241.958 320.532 241.771 319.841 241.421C319.143 241.04 318.474 240.391 317.832 239.476C317.19 238.562 316.619 237.273 316.12 235.611C315.056 237.132 313.939 238.549 312.768 239.863C311.622 241.14 310.501 242.215 309.404 243.09C308.333 243.927 307.389 244.427 306.574 244.592C304.661 244.979 303.176 244.74 302.12 243.876C301.095 243.006 300.418 241.756 300.088 240.125C299.847 238.933 299.932 237.577 300.344 236.057C300.748 234.506 301.369 232.895 302.207 231.224C303.07 229.516 304.042 227.866 305.124 226.276C306.232 224.649 307.355 223.181 308.495 221.873C309.628 220.534 310.683 219.456 311.661 218.638C312.663 217.782 313.462 217.294 314.058 217.174C314.591 217.066 315.106 217.109 315.602 217.303C316.13 217.49 316.441 217.819 316.536 218.289C316.701 219.105 316.492 219.849 315.91 220.521C315.321 221.163 314.72 221.823 314.107 222.502C313.192 223.47 312.169 224.624 311.036 225.963C309.934 227.296 308.911 228.694 307.966 230.158C307.015 231.591 306.274 233.014 305.744 234.427C305.213 235.84 305.062 237.112 305.29 238.241C305.455 239.056 305.773 239.416 306.243 239.321C306.745 239.22 307.488 238.694 308.471 237.745C309.448 236.764 310.531 235.5 311.72 233.954C312.903 232.376 314.076 230.67 315.24 228.835C315.388 227.467 315.664 226.17 316.07 224.946C316.469 223.69 316.947 222.662 317.504 221.864C318.086 221.028 318.659 220.553 319.224 220.439C319.819 220.319 320.29 220.387 320.636 220.644C320.975 220.869 321.221 221.358 321.373 222.111C321.551 222.989 321.5 224.028 321.22 225.227C320.933 226.395 320.487 227.66 319.881 229.023C319.877 229.808 319.891 230.523 319.923 231.169C319.956 231.816 320.026 232.406 320.134 232.939C320.223 233.378 320.343 233.892 320.495 234.482C320.672 235.034 320.88 235.498 321.119 235.874C321.39 236.244 321.697 236.393 322.042 236.324C323.046 236.121 323.785 235.498 324.26 234.455C324.729 233.381 325.024 232.097 325.147 230.603C325.263 229.078 325.244 227.531 325.09 225.963C324.968 224.388 324.783 222.989 324.535 221.765C324.13 219.758 323.474 218.046 322.567 216.629C321.692 215.207 320.554 214.18 319.153 213.549C317.784 212.911 316.158 212.783 314.276 213.163C312.614 213.499 310.942 214.196 309.263 215.254C307.583 216.312 305.973 217.633 304.432 219.218C302.892 220.802 301.483 222.556 300.207 224.479C298.924 226.371 297.839 228.353 296.953 230.426C296.091 232.461 295.486 234.476 295.139 236.473C294.791 238.469 294.795 240.346 295.15 242.102C295.537 244.015 296.607 245.513 298.36 246.595C300.107 247.646 302.304 248.263 304.953 248.446C307.608 248.66 310.488 248.453 313.594 247.826C316.197 247.299 318.894 246.509 321.684 245.456C324.481 244.433 327.117 243.019 329.593 241.213C329.931 240.949 330.273 240.7 330.617 240.467C330.993 240.228 331.385 240.067 331.793 239.985C332.295 239.883 332.753 239.97 333.168 240.245C333.614 240.514 333.888 240.9 333.989 241.402C334.11 241.997 334.048 242.581 333.805 243.153C333.561 243.724 333.207 244.237 332.744 244.689C330.176 247.004 327.34 248.883 324.236 250.327C321.139 251.802 318.006 252.859 314.838 253.499C311.639 254.146 308.596 254.353 305.708 254.121C302.853 253.882 300.281 253.275 297.995 252.301C295.715 251.358 293.849 250.119 292.396 248.584C290.937 247.018 290.007 245.247 289.608 243.271ZM374.876 235.194C373.59 235.454 372.577 235.447 371.836 235.172C371.132 234.922 370.62 234.569 370.299 234.111C370.01 233.648 369.836 233.274 369.779 232.992C369.595 232.083 369.851 231.247 370.546 230.487C371.266 229.688 372.144 229.184 373.179 228.975C374.182 228.772 375.393 228.381 376.81 227.8C378.252 227.182 379.747 226.423 381.296 225.523C382.875 224.616 384.348 223.583 385.714 222.426C387.111 221.262 388.279 220.014 389.217 218.681C390.156 217.349 390.712 215.98 390.885 214.574C390.169 214.588 389.46 214.633 388.757 214.71C388.048 214.755 387.349 214.848 386.659 214.987C384.338 215.456 381.989 216.192 379.612 217.195C377.236 218.198 374.872 219.181 372.521 220.146C371.95 220.392 371.395 220.39 370.854 220.14C370.925 220.812 370.986 221.436 371.037 222.013C371.113 222.553 371.199 223.14 371.295 223.773C371.543 225.323 371.642 226.543 371.594 227.434C371.571 228.288 371.468 228.913 371.287 229.308C371.106 229.704 370.881 229.962 370.611 230.082C370.341 230.201 370.081 230.287 369.83 230.337C369.736 230.356 369.673 230.369 369.642 230.375C369.077 230.49 368.516 230.456 367.957 230.275C367.398 230.095 366.873 229.597 366.382 228.782C365.884 227.936 365.452 226.603 365.084 224.784C363.917 219.012 363.556 213.993 363.999 209.724C364.467 205.418 365.681 201.973 367.64 199.39C369.624 196.769 372.294 195.119 375.65 194.441C378.285 193.908 380.485 194.215 382.251 195.359C384.01 196.473 385.159 198.363 385.698 201.029C385.971 202.377 385.977 203.78 385.716 205.237C385.456 206.693 384.972 208.178 384.266 209.692C384.837 209.446 385.398 209.235 385.95 209.058C386.496 208.85 387.019 208.695 387.521 208.594C390.469 207.998 392.757 208.09 394.384 208.871C396.005 209.621 396.993 210.874 397.348 212.631C397.703 214.387 397.534 216.135 396.841 217.875C396.179 219.609 395.163 221.283 393.791 222.899C392.445 224.477 390.905 225.98 389.169 227.408C387.427 228.805 385.657 230.06 383.858 231.175C382.053 232.258 380.354 233.14 378.761 233.821C377.175 234.533 375.88 234.991 374.876 235.194ZM370.439 215.18C370.609 215.048 370.8 214.944 371.013 214.868C373.741 213.827 375.775 212.747 377.116 211.627C378.457 210.507 379.286 209.279 379.603 207.941C379.92 206.604 379.908 205.088 379.565 203.395C379.477 202.956 379.319 202.498 379.092 202.021C378.865 201.545 378.528 201.172 378.082 200.903C377.661 200.596 377.09 200.516 376.369 200.662C373.985 201.144 372.337 202.603 371.426 205.04C370.54 207.439 370.211 210.819 370.439 215.18ZM414.842 226.969C412.615 227.419 410.669 226.996 409.003 225.701C407.331 224.374 406.226 222.377 405.687 219.711C405.516 218.864 405.451 217.979 405.493 217.057C405.566 216.128 405.7 215.252 405.892 214.43C405.647 214.185 405.417 213.856 405.203 213.443C405.014 212.991 404.856 212.452 404.729 211.824C404.317 209.786 404.301 207.846 404.68 206.007C405.052 204.136 405.724 202.45 406.693 200.948C407.663 199.446 408.815 198.201 410.15 197.213C411.485 196.225 412.905 195.579 414.41 195.274C416.982 194.754 419.258 195.192 421.238 196.588C423.249 197.977 424.622 200.491 425.358 204.129C425.725 205.948 425.817 207.856 425.633 209.852C425.449 211.848 425.045 213.807 424.421 215.728C423.822 217.612 423.032 219.355 422.05 220.958C421.099 222.554 419.998 223.886 418.745 224.956C417.523 226.019 416.222 226.69 414.842 226.969ZM410.875 211.219C411.102 211.532 411.262 211.924 411.358 212.394C411.453 212.865 411.457 213.37 411.37 213.91C411.283 214.45 411.231 215.162 411.214 216.047C411.191 216.901 411.335 218.096 411.645 219.633C411.728 220.041 411.845 220.376 411.996 220.639C412.172 220.865 412.464 220.937 412.872 220.854C413.938 220.639 414.872 220.091 415.674 219.21C416.506 218.324 417.185 217.24 417.71 215.959C418.266 214.671 418.671 213.283 418.925 211.795C419.204 210.27 419.339 208.757 419.33 207.257C419.345 205.72 419.227 204.323 418.973 203.069C418.808 202.253 418.537 201.72 418.16 201.47C417.783 201.22 417.202 201.174 416.418 201.333C415.352 201.548 414.324 202.115 413.334 203.033C412.369 203.914 411.628 205.011 411.11 206.323C410.585 207.605 410.469 208.967 410.76 210.409C410.818 210.692 410.856 210.961 410.875 211.219ZM443.202 220.992C441.445 221.347 439.841 221.247 438.391 220.691C436.946 220.167 435.752 219.347 434.808 218.232C433.858 217.086 433.247 215.838 432.975 214.489C432.518 212.231 432.442 210.075 432.745 208.023C433.042 205.938 433.596 203.998 434.409 202.202C435.214 200.374 436.152 198.715 437.223 197.225C438.324 195.73 439.42 194.447 440.509 193.378C441.624 192.271 442.642 191.412 443.564 190.802C444.479 190.16 445.171 189.791 445.642 189.696C446.489 189.525 447.123 189.593 447.544 189.899C447.99 190.168 448.295 190.711 448.46 191.526C448.555 191.997 448.324 192.631 447.767 193.429C447.242 194.221 446.516 195.151 445.589 196.22C444.694 197.282 443.758 198.467 442.782 199.775C441.805 201.082 440.901 202.505 440.07 204.044C439.27 205.577 438.683 207.198 438.31 208.906C437.968 210.607 437.985 212.383 438.359 214.233C438.498 214.924 438.731 215.431 439.058 215.757C439.417 216.076 439.91 216.173 440.537 216.046C442.325 215.685 444.175 214.984 446.087 213.945C448.024 212.868 449.913 211.637 451.755 210.252C453.623 208.83 455.358 207.402 456.962 205.968C458.597 204.528 459.987 203.251 461.134 202.138C461.591 201.653 461.985 201.264 462.317 200.968C462.649 200.672 462.894 200.509 463.051 200.477C463.992 200.287 464.56 200.678 464.757 201.65C464.858 202.152 464.618 202.902 464.037 203.901C463.38 205.177 462.417 206.547 461.146 208.012C459.906 209.47 458.484 210.916 456.881 212.351C455.308 213.778 453.667 215.106 451.956 216.333C450.277 217.554 448.672 218.58 447.143 219.412C445.613 220.243 444.299 220.77 443.202 220.992ZM471.964 215.178C470.207 215.533 468.604 215.433 467.153 214.878C465.708 214.353 464.514 213.534 463.571 212.419C462.621 211.272 462.009 210.024 461.737 208.676C461.28 206.417 461.204 204.262 461.507 202.209C461.804 200.125 462.359 198.185 463.171 196.388C463.977 194.56 464.915 192.901 465.985 191.412C467.086 189.916 468.182 188.634 469.272 187.564C470.386 186.458 471.404 185.599 472.326 184.988C473.241 184.346 473.933 183.978 474.404 183.883C475.251 183.711 475.885 183.779 476.306 184.086C476.752 184.355 477.057 184.897 477.222 185.713C477.317 186.183 477.086 186.817 476.529 187.616C476.004 188.407 475.278 189.338 474.351 190.406C473.456 191.469 472.52 192.654 471.544 193.961C470.567 195.268 469.664 196.692 468.832 198.231C468.032 199.764 467.445 201.384 467.072 203.092C466.731 204.793 466.747 206.569 467.121 208.42C467.26 209.11 467.493 209.618 467.82 209.944C468.179 210.263 468.672 210.359 469.299 210.232C471.087 209.871 472.937 209.171 474.849 208.131C476.786 207.054 478.675 205.823 480.518 204.439C482.385 203.017 484.12 201.589 485.724 200.154C487.359 198.714 488.75 197.437 489.896 196.324C490.353 195.84 490.747 195.45 491.079 195.154C491.411 194.859 491.656 194.695 491.813 194.663C492.754 194.473 493.322 194.864 493.519 195.837C493.62 196.338 493.38 197.089 492.799 198.088C492.142 199.363 491.179 200.733 489.908 202.198C488.668 203.657 487.247 205.103 485.643 206.537C484.071 207.965 482.429 209.292 480.718 210.52C479.039 211.741 477.434 212.767 475.905 213.598C474.375 214.43 473.062 214.957 471.964 215.178ZM522.352 206.12C521.128 206.367 520.168 206.219 519.47 205.674C518.779 205.161 518.24 203.948 517.853 202.034C517.523 200.403 517.362 198.232 517.369 195.521C517.376 192.81 517.405 189.882 517.455 186.738C514.759 191.331 511.245 194.621 506.913 196.606C506.384 198.672 505.666 200.613 504.759 202.428C503.853 204.244 502.777 205.784 501.531 207.048C500.309 208.274 498.93 209.042 497.393 209.353C495.48 209.74 493.707 209.445 492.073 208.469C490.471 207.487 489.406 205.695 488.88 203.091C488.525 201.335 488.491 199.791 488.777 198.46C489.056 197.098 489.478 196.033 490.041 195.266C489.235 194.189 488.677 192.881 488.367 191.344C487.948 189.274 488.142 187.325 488.948 185.497C489.754 183.669 490.99 182.114 492.657 180.83C494.355 179.54 496.302 178.673 498.497 178.229C499.72 177.982 500.944 178.061 502.169 178.467C503.419 178.834 504.515 179.576 505.459 180.691C506.427 181.768 507.102 183.248 507.482 185.13C507.799 186.698 507.913 188.471 507.823 190.448C509.783 188.68 511.614 186.433 513.316 183.706C515.049 180.972 516.489 178.004 517.637 174.801C517.999 173.847 518.667 173.271 519.639 173.075C520.454 172.91 521.148 173.031 521.72 173.437C522.317 173.806 522.695 174.383 522.853 175.167C522.885 175.324 522.895 175.861 522.885 176.777C522.874 177.693 522.855 178.889 522.826 180.364C522.791 181.807 522.754 183.398 522.714 185.136C522.705 186.869 522.702 188.632 522.706 190.427C522.709 192.222 522.725 193.916 522.754 195.51C523.271 193.871 523.832 192.125 524.437 190.273C525.067 188.382 525.735 186.517 526.44 184.677C527.139 182.805 527.855 181.094 528.586 179.542C529.317 177.991 530.026 176.737 530.715 175.782C531.397 174.795 532.036 174.242 532.632 174.121C533.824 173.88 534.897 174.022 535.852 174.548C536.807 175.073 537.358 175.696 537.503 176.418C537.649 177.139 537.796 178.268 537.943 179.806C538.091 181.343 538.229 183.078 538.359 185.01C538.513 186.905 538.655 188.819 538.785 190.752C538.914 192.684 539.056 194.435 539.21 196.004C539.357 197.541 539.507 198.686 539.659 199.439C539.786 200.066 539.608 200.722 539.126 201.407C538.645 202.092 538.027 202.511 537.275 202.663C537.212 202.676 537.102 202.698 536.945 202.73C536.575 202.837 536.217 202.844 535.872 202.751C535.533 202.689 535.171 202.272 534.787 201.501C534.434 200.723 534.061 199.362 533.668 197.418C533.402 196.1 533.173 194.645 532.981 193.051C532.79 191.458 532.629 189.858 532.501 188.251C532.397 186.607 532.331 185.07 532.303 183.639C531.76 185.153 531.161 186.873 530.506 188.801C529.876 190.692 529.209 192.638 528.504 194.642C527.792 196.614 527.071 198.457 526.34 200.172C525.635 201.849 524.934 203.231 524.24 204.318C523.577 205.399 522.948 206 522.352 206.12ZM501.485 193.982C501.646 192.676 501.718 191.339 501.703 189.971C501.681 188.571 501.54 187.229 501.28 185.943C501.173 185.41 500.958 184.914 500.637 184.457C500.316 183.999 499.889 183.824 499.356 183.932C498.29 184.148 497.283 184.58 496.337 185.228C495.422 185.87 494.718 186.665 494.224 187.614C493.73 188.563 493.597 189.602 493.825 190.731C494.028 191.734 494.529 192.515 495.327 193.072C496.156 193.622 497.108 193.969 498.181 194.111C499.286 194.246 500.34 194.213 501.344 194.01C501.375 194.004 501.422 193.994 501.485 193.982ZM500.393 198.512C499.289 198.702 498.194 198.777 497.108 198.735C496.016 198.662 494.996 198.46 494.047 198.129C494.055 198.65 494.059 199.155 494.06 199.645C494.055 200.103 494.093 200.536 494.176 200.944C494.315 201.634 494.552 202.239 494.885 202.759C495.244 203.242 495.8 203.407 496.553 203.255C497.337 203.096 498.051 202.593 498.696 201.744C499.372 200.889 499.938 199.812 500.393 198.512ZM552.167 198.331C551.289 198.508 550.445 198.369 549.634 197.912C548.855 197.449 548.329 196.544 548.057 195.195C547.911 194.474 547.799 193.435 547.721 192.08C547.674 190.718 547.668 189.234 547.702 187.627C547.73 185.989 547.793 184.36 547.89 182.741C548.018 181.115 548.166 179.665 548.333 178.391C548.494 177.085 548.67 176.103 548.864 175.444C549.125 174.64 549.413 174.125 549.726 173.898C550.065 173.634 550.406 173.467 550.752 173.397C551.379 173.27 551.997 173.341 552.606 173.61C553.247 173.872 553.697 174.646 553.957 175.932C554.059 176.434 554.129 177.268 554.17 178.436C554.203 179.571 554.228 180.905 554.244 182.436C554.259 183.968 554.253 185.552 554.225 187.19C554.228 188.822 554.216 190.375 554.188 191.85C554.184 193.287 554.183 194.495 554.185 195.474C554.187 196.29 553.975 196.937 553.549 197.415C553.161 197.918 552.701 198.223 552.167 198.331ZM551.739 168.349C550.704 168.558 549.687 168.454 548.688 168.035C547.683 167.586 547.051 166.718 546.791 165.432C546.575 164.365 546.668 163.449 547.068 162.682C547.468 161.916 548 161.319 548.664 160.891C549.354 160.425 549.981 160.135 550.545 160.021C551.11 159.907 551.763 159.905 552.503 160.017C553.238 160.097 553.919 160.4 554.548 160.926C555.202 161.414 555.643 162.222 555.871 163.352C556.023 164.104 555.896 164.848 555.489 165.583C555.077 166.287 554.513 166.891 553.799 167.394C553.116 167.891 552.429 168.21 551.739 168.349Z" fill="#4274D8"/>
<path d="M190.688 20.2063C188.824 21.4024 188.993 24.4707 191.942 45.9486C193.94 60.2618 194.107 61.8557 193.423 62.7565C193.025 63.3145 189.6 66.9339 185.777 70.8164L178.848 77.8718L175.311 58.4583C173.043 46.058 171.462 38.3596 170.872 37.1802C169.19 33.5784 167.15 33.7224 166.546 37.4605C166.181 39.6842 168.291 57.0259 170.719 72.152C171.686 77.9378 172.365 83.1817 172.318 83.7795C172.238 84.4809 167.882 89.5829 161.137 96.8535C155.052 103.375 149.963 108.796 149.82 108.82C149.677 108.844 148.12 101.289 146.379 92.0442C141.932 68.3592 140.064 60.4138 138.709 59.0673C137.306 57.7288 135.402 57.8011 134.51 59.228C133.228 61.2607 134.587 70.8639 144.083 126.244C152.365 174.355 153.307 179.408 155.341 186.293C156.522 190.421 157.392 193.864 157.265 193.983C154.692 195.642 154.087 197.316 155.665 198.232C156.103 198.502 159.808 198.326 164.931 197.814C171.846 197.151 177.861 196.097 197.778 192.082C229.717 185.617 241.866 183.047 256.78 179.671C263.551 178.146 274.028 175.856 280.003 174.563C286.026 173.262 296.454 170.979 303.226 169.455C309.997 167.931 317.996 166.103 320.983 165.457C323.963 164.763 327.293 163.813 328.384 163.287C329.468 162.713 330.416 162.505 330.647 162.712C330.83 162.927 331.722 162.975 332.583 162.831C335.403 162.36 335.443 161.42 333.444 145.927C330.191 121.158 321.684 66.3993 318.314 48.8747C315.272 33.0156 315.049 31.9716 313.893 30.9359C312.37 29.4699 310.737 29.6936 309.814 31.5189C308.882 33.2965 309.538 39.8714 312.598 60.8392C313.813 68.9919 315.012 77.6389 315.275 80.1015L315.731 84.5963L312.305 82.318C310.424 81.0593 304.869 77.5144 299.88 74.4157C294.939 71.309 289.121 67.6606 286.978 66.2984L283.025 63.813L279.639 45.308C276.157 26.2293 275.79 24.9144 273.734 24.0782C272.364 23.5207 270.484 24.6211 270.11 26.2072C269.951 27.0202 270.711 33.627 272.093 43.0788L274.386 58.5715L263.938 52.2068L253.49 45.8421L250.775 31.6486C247.909 16.5466 247.127 13.6299 245.573 12.8573C244.338 12.228 242.808 12.4835 241.844 13.4801C240.753 14.5962 240.874 17.3776 242.385 29.0689C243.152 34.8389 243.648 39.5728 243.504 39.5967C243.361 39.6207 240.253 37.7806 236.643 35.582C229.199 31.0256 227.343 30.2052 225.741 30.9151C224.738 31.3776 205.695 50.0409 203.704 52.536C203.338 52.9904 202.9 53.3094 202.741 53.2377C202.621 53.1102 201.144 46.0334 199.467 37.4663C196.649 22.9461 196.354 21.7667 195.246 20.723C194.13 19.6315 192.026 19.393 190.688 20.2063ZM236.375 43.3926L245.062 48.921L252.649 93.4622L260.284 137.995L257.527 135.605C250.058 129.136 241.134 127.481 233.168 130.974C227.313 133.574 221.013 138.804 217.892 143.651C217.072 144.918 216.347 145.875 216.283 145.787C216.228 145.748 215.732 142.193 215.221 137.953C214.221 129.322 207.517 83.3065 205.425 70.7785L204.067 62.6497L210.884 55.5146C214.595 51.5524 219.812 46.0118 222.432 43.1657C225.052 40.3197 227.306 37.928 227.449 37.9041C227.593 37.8801 231.585 40.3097 236.375 43.3926ZM267.623 62.7976C272.07 65.5936 275.912 68.2942 276.095 68.8042C276.279 69.3143 279.066 84.8227 282.244 103.264L287.994 136.807L286.257 136.409C281.755 135.343 276.505 136.859 271.671 140.566L269.329 142.432L265.838 119.767C263.961 107.35 260.829 87.7214 258.896 76.1497L255.398 55.206L257.478 56.4806C258.578 57.1816 263.176 60.0015 267.623 62.7976ZM198.996 92.5939C200.818 104.676 203.741 121.587 205.833 132.345C207.853 142.674 209.426 151.209 209.346 151.321C209.266 151.432 208.39 151.185 207.346 150.819C203.194 149.202 197.713 150.806 193.429 154.864C192.202 156.052 191.119 156.921 191.015 156.889C190.952 156.802 189.633 148.322 188.163 138.049C186.685 127.729 184.911 115.934 184.256 111.718L182.994 104.163L184.142 104.266C185.233 104.33 185.855 103.931 188.586 101.165L189.725 100.041L191.781 101.467C194.228 103.171 195.304 103.139 196.084 101.338C197.692 97.7269 193.634 93.1455 189.476 93.8401C187.181 94.2234 184.752 96.1528 183.223 98.7674L182.379 100.186L181.277 93.8825L180.223 87.5707L187.844 79.6623C192.026 75.2776 195.554 71.6901 195.649 71.6741C195.745 71.6581 197.27 81.086 198.996 92.5939ZM291.269 77.2795C294.273 79.0878 299.461 82.2024 302.76 84.3054C309.774 88.6389 316.237 92.3269 316.762 92.2391C316.954 92.2072 318.479 100.455 320.172 110.593C321.865 120.73 323.104 129.026 322.96 129.05C322.817 129.074 322.076 128.755 321.319 128.341C315.374 125.107 302.109 128.945 296.145 135.593L294.536 137.435L292.347 122.564C291.18 114.403 288.927 100.034 287.354 90.6143C285.086 77.0343 284.646 73.5198 285.172 73.7268C285.491 73.8702 288.264 75.4713 291.269 77.2795ZM179.386 126.687L184.858 159.441L181.853 158.223C173.646 154.974 166.491 156.562 161.005 162.836L159.229 164.853L155.219 140.554L151.154 116.215L162.423 105.142C168.627 99.0429 173.74 94.0601 173.836 94.0442C173.875 93.9884 176.383 108.708 179.386 126.687ZM243.792 138.391C246.74 139.275 250.972 142.254 255.197 146.365C257.309 148.421 260.011 150.771 261.126 151.568L263.238 153.034L264.891 161.162L266.504 169.347L258.856 170.919C254.625 171.773 245.081 173.761 237.616 175.253C230.159 176.794 223.276 178.238 222.344 178.542C221.412 178.845 220.496 178.949 220.368 178.773C220.233 178.55 219.626 174.326 219.026 169.266L217.939 160.109L220.351 155.43C224.769 146.877 229.778 141.567 235.785 138.991C238.812 137.699 241.043 137.523 243.792 138.391ZM316.525 134.647C317.927 134.806 319.641 135.65 321.816 137.203L325.012 139.57L326.506 148.511L327.999 157.453L321.929 158.467C318.535 159.034 311.859 160.247 306.991 161.11L298.227 162.77L296.933 154.434C296.27 149.875 295.735 145.787 295.814 145.38C295.981 144.32 299.66 140.462 301.962 138.947C306.654 135.853 312.413 134.154 316.525 134.647ZM286.747 144.044L289.424 145.072L290.533 149.654C291.1 152.164 291.946 156.348 292.394 159.026L293.2 163.855L286.699 165.236C283.146 166.026 278.534 166.944 276.43 167.296L272.606 167.934L272.518 165.344C272.437 163.981 271.95 160.18 271.407 156.928L270.424 151.047L271.762 149.349C273.291 147.324 276.509 144.821 278.899 143.832C281.376 142.779 283.647 142.842 286.747 144.044ZM204.536 156.941C205.365 157.196 207.038 158.391 208.266 159.562C209.549 160.773 210.84 162.032 211.247 162.406C211.709 162.82 212.491 166.032 213.553 171.507L215.15 179.891L213.238 180.505C212.163 180.832 207.614 181.838 203.152 182.779L194.939 184.496L194.076 179.036C193.573 176.024 193.045 171.689 192.805 169.369C192.445 165.153 192.437 165.106 194.229 162.595C196.211 159.757 199.684 157.014 201.692 156.679C202.456 156.551 203.755 156.678 204.536 156.941ZM176.135 163.995C178.31 164.369 180.024 165.213 182.805 167.157L186.535 169.778L187.996 177.644L189.457 185.509L185.689 186.483C183.61 186.978 178.655 188.199 174.648 189.212C170.68 190.17 166.354 191.334 165.064 191.845C163.765 192.308 162.69 192.635 162.634 192.595C162.523 192.515 162.194 189.08 161.898 184.952C161.554 180.832 161.21 177.006 161.161 176.424C160.93 175.038 165.325 167.816 167.635 165.759C170.032 163.638 172.119 163.191 176.135 163.995Z" fill="#4274D8"/>
<path d="M225.055 48.5781C224.426 49.5188 224.53 50.4353 225.927 57.6237C227.484 65.4735 228.584 68.5336 230.418 70.0951C231.51 71.0432 232.736 69.5604 233.587 66.42C234.255 63.9492 234.231 62.6262 233.639 57.9082C233.008 52.9512 232.769 52.1064 231.437 50.0187C230.592 48.7837 229.508 47.5885 228.99 47.4293C227.476 46.8958 225.787 47.3745 225.055 48.5781Z" fill="#4274D8"/>
<path d="M227.236 77.7987C224.352 79.9514 218.628 90.9834 219.067 93.6134C219.379 95.4782 222.136 96.3939 223.594 95.1183C223.896 94.8711 225.449 92.1051 227.001 89.0442C228.593 85.9275 230.265 83.289 230.68 83.1215C231.142 82.946 233.285 84.0133 235.995 85.8216C242.793 90.3385 244.179 90.4018 243.461 86.0983C242.622 81.0775 234.851 75.4452 229.928 76.2676C229.498 76.3395 228.287 77.0332 227.236 77.7987Z" fill="#4274D8"/>
<path d="M230.077 96.2983C229.065 97.0079 227.767 98.3552 227.154 99.3915C223.476 105.609 222.263 121.294 225.268 123.692C225.889 124.178 226.63 124.497 227.013 124.433C227.347 124.377 228.32 124.608 229.061 124.926C231.236 125.89 236.948 124.788 240.533 122.715C245.193 120.02 245.829 117.063 243.961 107.938C242.58 101.435 240.905 98.1759 237.956 96.1126C235.518 94.4556 232.681 94.5362 230.077 96.2983ZM234.653 104.578C234.709 104.912 235.228 106.546 235.754 108.227C236.281 109.909 236.808 112.475 236.92 114.029L237.081 116.755L234.268 117.569C232.771 118.015 231.392 118.295 231.233 118.223C230.954 118.024 232.162 110.548 233.061 106.81C233.673 104.299 234.438 103.287 234.653 104.578Z" fill="#4274D8"/>
<path d="M268.224 81.1276C265.58 82.9455 262.275 87.577 262.539 89.155C262.746 90.3982 264.013 91.2187 265.448 90.9792C265.83 90.9153 267.303 89.7353 268.745 88.364L271.421 85.8527L273.398 87.3903C274.521 88.2348 275.533 88.7047 275.732 88.4257C275.931 88.1467 276.066 86.8954 276.002 85.6282C275.937 82.5917 274.686 80.6873 272.534 80.1619C270.391 79.6844 270.486 79.6684 268.224 81.1276Z" fill="#4274D8"/>
<path d="M270.989 107.062C270.575 107.819 270.177 109.261 270.193 110.242C270.123 113.055 272.98 126.045 274.472 129.679C276.617 134.875 277.66 133.766 278.669 125.39C279.748 116.264 278.566 108.008 275.944 106.136C274.103 104.821 272.008 105.22 270.989 107.062Z" fill="#4274D8"/>
<path d="M192.366 119.357C191.052 121.198 191.068 121.294 192.825 130.634C194.071 137.504 195.794 142.819 197.707 145.744C199.222 148.046 199.828 148.142 200.616 146.388C201.929 143.367 201.935 137.517 200.664 129.325C199.259 120.614 198.429 118.59 195.808 117.897C193.959 117.42 193.688 117.563 192.366 119.357Z" fill="#4274D8"/>
<path d="M300.964 101.807C300.167 102.923 300.183 103.314 301.173 108.063C302.02 111.952 302.745 113.945 304.324 116.925C307.394 122.654 308.39 122.144 308.793 114.556C309.054 109.352 307.776 103.176 306.079 101.543C304.445 99.9969 302.198 100.077 300.964 101.807Z" fill="#4274D8"/>
<path d="M164.013 123.752C163.639 124.158 163.217 125.163 163.05 125.928C162.724 127.801 164.377 137.699 165.845 142.369C167.672 148.306 170.917 152.728 172.111 151.054C173.146 149.603 173.207 142.319 172.328 135.29C171.329 127.543 170.419 124.746 168.466 123.352C167.239 122.476 165.064 122.691 164.013 123.752Z" fill="#4274D8"/>
</svg>
