<svg width="606" height="333" viewBox="0 0 606 333" fill="none" xmlns="http://www.w3.org/2000/svg">
<path d="M23.8015 315.627C22.5155 315.887 21.502 315.88 20.7609 315.605C20.0575 315.356 19.5453 315.002 19.2243 314.545C18.9346 314.081 18.7613 313.708 18.7042 313.425C18.5204 312.516 18.776 311.681 19.471 310.92C20.1911 310.121 21.0687 309.618 22.1038 309.408C23.1075 309.205 24.3179 308.814 25.735 308.234C27.1772 307.616 28.6724 306.856 30.2206 305.956C31.8003 305.049 33.273 304.017 34.6387 302.859C36.0358 301.695 37.2037 300.447 38.1423 299.115C39.081 297.782 39.6367 296.413 39.8096 295.007C39.0942 295.021 38.3851 295.066 37.6824 295.143C36.9733 295.189 36.2738 295.281 35.5837 295.42C33.2626 295.89 30.9139 296.626 28.5374 297.628C26.161 298.631 23.797 299.615 21.4456 300.58C20.875 300.826 20.3196 300.824 19.7794 300.574C19.8498 301.245 19.9107 301.869 19.9621 302.447C20.0385 302.986 20.1244 303.573 20.2198 304.206C20.4678 305.756 20.5675 306.977 20.5191 307.868C20.4958 308.721 20.3935 309.346 20.2123 309.742C20.0311 310.137 19.8057 310.395 19.5361 310.515C19.2665 310.635 19.0062 310.72 18.7553 310.771C18.6612 310.79 18.5985 310.802 18.5671 310.809C18.0025 310.923 17.4408 310.89 16.8819 310.709C16.323 310.528 15.7979 310.03 15.3068 309.215C14.8092 308.369 14.3766 307.036 14.0089 305.217C12.8424 299.446 12.4807 294.426 12.9238 290.157C13.392 285.851 14.6056 282.407 16.5646 279.823C18.5487 277.202 21.2188 275.553 24.5749 274.874C27.2096 274.342 29.4099 274.648 31.1757 275.793C32.9352 276.906 34.0844 278.796 34.6233 281.462C34.8959 282.811 34.9019 284.213 34.6413 285.67C34.3807 287.126 33.8973 288.612 33.1913 290.125C33.7618 289.88 34.3231 289.668 34.875 289.491C35.4206 289.283 35.9443 289.128 36.4461 289.027C39.3945 288.431 41.6822 288.524 43.3092 289.305C44.9299 290.054 45.9177 291.308 46.2727 293.064C46.6278 294.821 46.4588 296.569 45.7657 298.308C45.104 300.042 44.0876 301.716 42.7165 303.332C41.3705 304.91 39.8297 306.413 38.0943 307.841C36.3525 309.238 34.5821 310.494 32.7833 311.608C30.9781 312.691 29.2792 313.573 27.6865 314.254C26.1002 314.967 24.8052 315.424 23.8015 315.627ZM19.3645 295.614C19.5336 295.481 19.7248 295.378 19.9381 295.302C22.6659 294.261 24.7002 293.18 26.0409 292.06C27.3816 290.941 28.2106 289.712 28.5279 288.375C28.8453 287.037 28.8328 285.522 28.4904 283.828C28.4017 283.389 28.2438 282.931 28.0169 282.455C27.79 281.978 27.4535 281.605 27.0074 281.336C26.5863 281.03 26.015 280.949 25.2936 281.095C22.9098 281.577 21.2623 283.036 20.351 285.473C19.4648 287.872 19.1359 291.252 19.3645 295.614ZM59.8443 308.44C58.8406 308.643 57.8739 308.545 56.9443 308.145C56.021 307.776 55.2354 307.201 54.5874 306.417C53.933 305.603 53.5012 304.678 53.292 303.643C52.899 301.698 52.9388 299.715 53.4117 297.693C53.9159 295.665 54.7057 293.677 55.7811 291.73C56.8566 289.782 58.086 287.95 59.4694 286.234C60.8779 284.48 62.3119 282.934 63.7714 281.594C65.2623 280.248 66.6407 279.153 67.9067 278.31C69.204 277.46 70.2447 276.955 71.0289 276.797C71.9385 276.613 72.7168 276.668 73.3638 276.962C74.0358 277.218 74.4543 277.753 74.6191 278.569C74.6698 278.82 74.6483 279.036 74.5545 279.218C74.9813 279.23 75.3582 279.399 75.6852 279.724C76.0122 280.05 76.2518 280.589 76.4039 281.342C76.4673 281.656 76.5537 282.487 76.6632 283.836C76.7726 285.185 76.9234 286.82 77.1156 288.74C77.3392 290.653 77.657 292.63 78.0691 294.668C78.1325 294.982 78.2366 295.255 78.3814 295.487C78.5199 295.687 78.746 295.756 79.0596 295.692C80.3142 295.439 81.5338 294.931 82.7184 294.169C83.928 293.37 85.0683 292.47 86.1394 291.47C87.2356 290.432 88.2094 289.436 89.061 288.48C89.9375 287.487 90.6701 286.669 91.2587 286.028C91.8724 285.349 92.289 284.987 92.5085 284.943C93.575 284.727 94.2159 285.153 94.4315 286.219C94.4886 286.502 94.264 287.167 93.7578 288.216C93.2766 289.228 92.5731 290.431 91.6471 291.826C90.7148 293.19 89.6414 294.582 88.4268 296.003C87.2372 297.386 85.9469 298.593 84.5558 299.626C83.196 300.651 81.8104 301.307 80.399 301.592C78.6739 301.941 77.2741 301.799 76.1997 301.168C75.1566 300.53 74.3074 299.559 73.652 298.255C73.0217 296.913 72.5134 295.367 72.127 293.617C70.9901 296.23 69.7398 298.605 68.3761 300.741C67.0374 302.84 65.6414 304.575 64.1883 305.946C62.7351 307.317 61.2871 308.148 59.8443 308.44ZM71.7351 281.502C68.9592 283.598 66.5414 285.849 64.4816 288.257C62.4155 290.634 60.8702 293.003 59.8458 295.365C58.8528 297.72 58.5496 299.854 58.9363 301.768C59.0441 302.301 59.3489 302.517 59.8508 302.415C60.4467 302.295 61.1611 301.791 61.994 300.905C62.8582 300.012 63.7565 298.884 64.6888 297.52C65.6148 296.125 66.5154 294.604 67.3906 292.958C68.2595 291.281 69.0436 289.588 69.743 287.879C70.4424 286.171 70.9506 284.566 71.2676 283.066C71.3857 282.52 71.5416 281.998 71.7351 281.502ZM101.546 299.521C99.7891 299.877 98.1854 299.776 96.7346 299.221C95.2901 298.696 94.096 297.877 93.1524 296.762C92.2024 295.615 91.5911 294.367 91.3185 293.019C90.8621 290.76 90.7855 288.605 91.0888 286.552C91.3858 284.468 91.9404 282.528 92.7525 280.731C93.5584 278.903 94.4963 277.245 95.5665 275.755C96.6679 274.259 97.7636 272.977 98.8534 271.908C99.9682 270.801 100.986 269.942 101.908 269.331C102.822 268.689 103.515 268.321 103.986 268.226C104.833 268.055 105.467 268.122 105.888 268.429C106.334 268.698 106.639 269.24 106.804 270.056C106.899 270.526 106.668 271.16 106.111 271.959C105.586 272.75 104.86 273.681 103.933 274.749C103.038 275.812 102.102 276.997 101.126 278.304C100.149 279.611 99.2454 281.035 98.4139 282.574C97.6137 284.107 97.0271 285.727 96.654 287.435C96.3124 289.136 96.3285 290.912 96.7026 292.763C96.8421 293.453 97.0753 293.961 97.4023 294.287C97.7607 294.606 98.2535 294.702 98.8808 294.575C100.669 294.214 102.519 293.514 104.431 292.474C106.368 291.397 108.257 290.166 110.099 288.782C111.967 287.36 113.702 285.932 115.306 284.498C116.941 283.057 118.331 281.78 119.478 280.667C119.935 280.183 120.329 279.793 120.661 279.497C120.993 279.202 121.238 279.038 121.395 279.006C122.336 278.816 122.904 279.207 123.101 280.18C123.202 280.681 122.962 281.432 122.381 282.431C121.724 283.706 120.761 285.076 119.49 286.541C118.25 288 116.828 289.446 115.225 290.88C113.652 292.308 112.011 293.635 110.3 294.863C108.621 296.084 107.016 297.11 105.487 297.941C103.957 298.773 102.643 299.3 101.546 299.521ZM125.709 297.086C124.266 297.378 123.149 297.179 122.357 296.49C121.565 295.802 121.01 294.673 120.693 293.105C120.401 291.662 120.288 289.726 120.352 287.297C120.441 284.831 120.649 282.063 120.975 278.993C121.326 275.886 121.772 272.678 122.311 269.37C122.844 266.03 123.436 262.744 124.089 259.51C124.735 256.245 125.4 253.238 126.085 250.488C126.427 249.276 126.871 248.403 127.416 247.868C127.961 247.334 128.61 246.99 129.363 246.838C130.084 246.692 130.737 246.773 131.321 247.079C131.899 247.354 132.274 247.915 132.445 248.762C132.483 248.95 132.378 249.722 132.129 251.078C131.875 252.403 131.54 254.135 131.123 256.276C130.701 258.386 130.251 260.762 129.773 263.405C129.289 266.017 128.827 268.738 128.387 271.57C127.941 274.37 127.583 277.119 127.312 279.818C127.041 282.517 126.89 284.996 126.856 287.256C127.656 285.56 128.503 283.691 129.396 281.65C130.314 279.57 131.252 277.504 132.208 275.45C133.189 273.358 134.17 271.429 135.152 269.664C136.165 267.892 137.144 266.437 138.089 265.299C139.034 264.161 139.931 263.507 140.777 263.336C142.346 263.019 143.689 263.204 144.808 263.892C145.951 264.543 146.735 265.919 147.16 268.02C147.356 268.992 147.406 270.207 147.309 271.663C147.205 273.088 147.038 274.607 146.81 276.22C146.606 277.796 146.455 279.312 146.358 280.768C146.26 282.224 146.316 283.469 146.525 284.505C146.639 285.069 146.963 285.298 147.496 285.19C149.033 284.879 150.519 284.236 151.954 283.26C153.421 282.278 154.777 281.155 156.024 279.891C157.295 278.59 158.428 277.332 159.424 276.119C160.444 274.868 161.264 273.837 161.884 273.026C162.315 272.417 162.735 271.989 163.142 271.743C163.544 271.466 163.932 271.29 164.309 271.214C165.595 270.954 166.368 271.467 166.628 272.753C166.678 273.004 166.695 273.327 166.677 273.722C166.652 274.087 166.443 274.586 166.049 275.221C165.655 275.855 165.054 276.76 164.247 277.935C163.44 279.111 162.473 280.383 161.346 281.754C160.251 283.118 159.02 284.46 157.655 285.781C156.314 287.064 154.892 288.184 153.388 289.141C151.884 290.098 150.363 290.732 148.826 291.042C146.505 291.511 144.584 291.214 143.063 290.15C141.549 289.118 140.566 287.488 140.116 285.261C139.805 283.724 139.729 281.732 139.887 279.284C140.039 276.805 140.26 274.263 140.55 271.658C139.667 272.946 138.779 274.448 137.885 276.163C136.985 277.847 136.088 279.628 135.195 281.506C134.295 283.353 133.407 285.181 132.532 286.99C131.682 288.762 130.854 290.398 130.048 291.9C129.235 293.37 128.465 294.57 127.739 295.5C127.013 296.431 126.337 296.959 125.709 297.086ZM171.813 285.613C169.868 286.006 168.164 285.648 166.699 284.54C165.228 283.401 164.185 281.31 163.571 278.268C163.177 276.323 163.004 274.334 163.05 272.301C163.121 270.23 163.387 268.233 163.847 266.312C164.333 264.353 164.985 262.573 165.804 260.971C166.654 259.362 167.674 258.03 168.865 256.973C170.048 255.885 171.362 255.195 172.805 254.903C175.251 254.409 177.298 254.681 178.944 255.719C180.59 256.758 181.62 258.296 182.032 260.335C182.349 261.903 182.198 263.419 181.58 264.883C180.986 266.308 180.054 267.672 178.783 268.974C177.511 270.276 176.049 271.518 174.394 272.701C172.74 273.884 171.023 274.999 169.242 276.044C169.314 277.205 169.438 278.225 169.616 279.103C169.724 279.636 170.075 279.842 170.671 279.722C172.083 279.437 173.544 278.913 175.055 278.15C176.591 277.35 178.117 276.421 179.634 275.364C181.144 274.275 182.588 273.183 183.967 272.089C185.339 270.962 186.579 269.912 187.688 268.937C188.822 267.924 189.752 267.116 190.479 266.512C191.231 265.87 191.732 265.524 191.983 265.473C192.673 265.334 193.216 265.436 193.612 265.781C194.008 266.125 194.254 266.532 194.349 267.003C194.393 267.222 194.068 267.794 193.373 268.718C192.71 269.636 191.761 270.758 190.528 272.085C189.319 273.374 187.932 274.748 186.366 276.207C184.825 277.628 183.196 279.019 181.48 280.378C179.788 281.699 178.105 282.823 176.431 283.749C174.795 284.7 173.256 285.321 171.813 285.613ZM169.196 271.695C170.33 270.682 171.442 269.642 172.531 268.572C173.646 267.466 174.522 266.309 175.16 265.103C175.791 263.865 175.964 262.541 175.679 261.129C175.597 260.722 175.433 260.477 175.188 260.396C174.937 260.284 174.607 260.269 174.2 260.351C173.102 260.573 172.196 261.262 171.483 262.418C170.802 263.568 170.271 264.981 169.892 266.657C169.537 268.296 169.305 269.975 169.196 271.695ZM203.64 279.963C200.817 280.534 198.416 280.121 196.436 278.726C194.481 277.293 193.177 274.961 192.524 271.73C192.169 269.974 191.989 267.872 191.984 265.424C191.973 262.945 192.078 260.312 192.298 257.525C192.543 254.701 192.842 251.898 193.194 249.117C193.577 246.33 193.983 243.734 194.411 241.33C194.839 238.925 195.23 236.904 195.585 235.265C195.915 233.99 196.597 233.248 197.632 233.039C198.291 232.906 198.865 233.002 199.356 233.327C199.877 233.646 200.23 234.261 200.414 235.17C200.502 235.609 200.476 236.61 200.335 238.173C200.194 239.736 199.981 241.673 199.697 243.983C199.438 246.255 199.152 248.713 198.837 251.356C198.554 253.992 198.305 256.638 198.091 259.293C197.908 261.941 197.822 264.424 197.833 266.739C197.838 269.024 197.995 270.934 198.306 272.471C198.433 273.099 198.707 273.566 199.128 273.872C199.58 274.173 200.104 274.262 200.7 274.142C201.986 273.882 203.256 273.381 204.51 272.637C205.795 271.888 207.023 271.02 208.195 270.032C209.398 269.038 210.512 268.013 211.54 266.956C212.567 265.9 213.478 264.916 214.273 264.004C215.093 263.055 215.757 262.3 216.264 261.741C216.928 260.986 217.401 260.581 217.683 260.524C218.749 260.308 219.387 260.718 219.596 261.753C219.647 262.004 219.438 262.585 218.969 263.496C218.575 264.293 218 265.324 217.243 266.587C216.487 267.85 215.586 269.207 214.541 270.659C213.521 272.073 212.394 273.444 211.16 274.77C209.958 276.091 208.718 277.223 207.439 278.167C206.161 279.111 204.895 279.709 203.64 279.963ZM226.461 274.518C224.234 274.968 222.288 274.545 220.622 273.249C218.95 271.922 217.845 269.926 217.306 267.26C217.135 266.413 217.07 265.528 217.112 264.605C217.186 263.677 217.319 262.801 217.512 261.978C217.266 261.734 217.037 261.405 216.823 260.991C216.633 260.54 216.475 260 216.349 259.373C215.936 257.334 215.92 255.395 216.299 253.556C216.672 251.685 217.343 249.998 218.313 248.496C219.282 246.995 220.434 245.75 221.769 244.762C223.104 243.774 224.524 243.127 226.03 242.823C228.602 242.303 230.877 242.741 232.857 244.136C234.868 245.526 236.241 248.039 236.977 251.678C237.345 253.497 237.436 255.405 237.252 257.401C237.068 259.397 236.664 261.356 236.04 263.277C235.442 265.161 234.651 266.904 233.669 268.507C232.719 270.103 231.617 271.435 230.364 272.505C229.142 273.568 227.842 274.239 226.461 274.518ZM222.494 258.767C222.721 259.081 222.882 259.473 222.977 259.943C223.072 260.414 223.076 260.919 222.989 261.459C222.903 261.999 222.851 262.711 222.834 263.596C222.81 264.45 222.954 265.645 223.265 267.182C223.347 267.589 223.464 267.925 223.615 268.188C223.791 268.414 224.083 268.485 224.491 268.403C225.557 268.187 226.491 267.639 227.293 266.759C228.126 265.873 228.804 264.789 229.329 263.507C229.885 262.22 230.29 260.832 230.544 259.344C230.823 257.819 230.958 256.306 230.949 254.806C230.965 253.268 230.846 251.872 230.592 250.618C230.427 249.802 230.156 249.269 229.779 249.019C229.402 248.769 228.822 248.723 228.038 248.881C226.971 249.097 225.943 249.664 224.953 250.582C223.989 251.463 223.247 252.559 222.729 253.872C222.205 255.153 222.088 256.515 222.38 257.958C222.437 258.24 222.475 258.51 222.494 258.767ZM248.399 270.622C247.615 270.781 246.884 270.635 246.205 270.184C245.558 269.728 245.126 268.966 244.911 267.899C244.815 267.429 244.723 266.648 244.633 265.556C244.568 264.427 244.502 263.134 244.437 261.678C244.402 260.216 244.339 258.694 244.248 257.113C244.189 255.525 244.098 254.025 243.976 252.614C243.885 251.196 243.773 249.994 243.639 249.009C243.461 247.804 243.603 246.894 244.066 246.278C244.523 245.631 245.144 245.228 245.928 245.069C246.555 244.943 247.151 244.985 247.716 245.198C248.307 245.372 248.76 245.917 249.075 246.833C249.416 247.711 249.698 249.025 249.921 250.775C250.794 247.987 251.737 245.462 252.749 243.201C253.792 240.933 254.981 239.061 256.314 237.583C258.518 235.081 260.671 233.617 262.773 233.193C263.964 232.952 264.802 233.06 265.287 233.517C265.771 233.974 266.07 234.485 266.184 235.05C266.26 235.426 266.236 235.79 266.111 236.142C266.018 236.487 265.739 236.886 265.276 237.339C264.812 237.792 264.089 238.411 263.105 239.198C261.783 240.249 260.524 241.531 259.328 243.046C258.164 244.555 257.07 246.408 256.045 248.607C255.02 250.806 254.069 253.447 253.19 256.53C252.312 259.613 251.494 263.239 250.737 267.407C250.67 268.531 250.405 269.319 249.941 269.772C249.509 270.218 248.995 270.502 248.399 270.622ZM270.62 244.829C270.024 244.949 269.537 244.884 269.16 244.634C268.783 244.384 268.516 243.866 268.357 243.082C268.262 242.612 268.305 242.097 268.486 241.538C268.698 240.973 268.922 240.307 269.159 239.541C269.396 238.775 269.558 237.877 269.643 236.848C269.761 235.812 269.683 234.62 269.41 233.271C269.321 232.832 269.201 232.399 269.05 231.973C268.923 231.509 268.819 231.073 268.736 230.665C268.077 227.403 268.783 225.563 270.853 225.144C271.794 224.954 272.629 225.128 273.358 225.666C274.087 226.205 274.651 227.462 275.051 229.438C275.494 231.633 275.624 233.648 275.439 235.481C275.255 237.313 274.891 238.905 274.348 240.255C273.805 241.606 273.189 242.677 272.5 243.469C271.811 244.261 271.184 244.715 270.62 244.829ZM288.908 262.777C287.559 263.05 286.564 263.055 285.924 262.793C285.314 262.524 284.937 262.029 284.791 261.308C284.664 260.68 284.776 260.103 285.126 259.575C285.47 259.016 286.347 258.349 287.758 257.574C289.407 256.686 290.945 255.738 292.374 254.731C293.828 253.686 294.971 252.639 295.804 251.589C296.668 250.533 297.004 249.535 296.814 248.594C296.688 247.966 296.376 247.556 295.88 247.362C295.415 247.163 294.9 247.12 294.336 247.234C293.865 247.329 293.191 247.547 292.313 247.887C291.46 248.19 290.523 248.559 289.501 248.995C288.472 249.398 287.472 249.78 286.5 250.14C285.553 250.462 284.735 250.692 284.045 250.832C282.414 251.162 281.133 251.045 280.203 250.482C279.267 249.888 278.681 249.01 278.447 247.85C278.32 247.223 278.475 246.293 278.912 245.062C279.349 243.832 279.983 242.446 280.814 240.907C281.646 239.368 282.603 237.803 283.685 236.213C284.768 234.623 285.888 233.14 287.046 231.763C288.229 230.349 289.382 229.185 290.503 228.273C291.618 227.33 292.615 226.769 293.493 226.591C294.497 226.389 295.36 226.541 296.083 227.047C296.837 227.548 297.322 228.331 297.538 229.398C297.639 229.9 297.703 230.458 297.729 231.073C297.749 231.657 297.619 232.222 297.337 232.768C297.05 233.284 296.533 233.715 295.787 234.061C295.041 234.408 293.968 234.592 292.568 234.614C291.661 235.613 290.721 236.701 289.751 237.877C288.806 239.014 287.933 240.187 287.132 241.393C286.325 242.568 285.687 243.693 285.218 244.767C286.303 244.156 287.56 243.592 288.99 243.074C290.413 242.526 291.878 242.099 293.383 241.795C295.202 241.427 296.743 241.458 298.006 241.889C299.293 242.282 300.311 242.957 301.06 243.916C301.84 244.868 302.36 245.987 302.62 247.273C302.911 248.716 302.733 250.254 302.083 251.887C301.434 253.52 300.446 255.091 299.118 256.6C297.791 258.109 296.243 259.417 294.476 260.525C292.708 261.634 290.852 262.384 288.908 262.777ZM329.486 244.683C328.992 242.237 328.974 239.726 329.433 237.153C329.886 234.547 330.69 231.985 331.846 229.466C333.027 226.909 334.447 224.484 336.105 222.19C337.763 219.896 339.582 217.831 341.562 215.994C343.535 214.126 345.543 212.594 347.586 211.397C349.655 210.163 351.646 209.353 353.559 208.966C356.257 208.421 358.793 208.692 361.167 209.779C363.535 210.835 365.572 212.594 367.278 215.057C369.009 217.482 370.235 220.482 370.958 224.058C371.453 226.505 371.567 228.848 371.302 231.089C371.03 233.299 370.501 235.283 369.714 237.042C368.952 238.763 368.029 240.174 366.945 241.274C365.893 242.368 364.803 243.03 363.673 243.258C363.109 243.372 362.481 243.417 361.791 243.394C361.101 243.37 360.41 243.183 359.719 242.833C359.021 242.452 358.352 241.803 357.71 240.888C357.068 239.973 356.497 238.685 355.998 237.023C354.934 238.544 353.817 239.961 352.646 241.275C351.5 242.552 350.379 243.627 349.283 244.502C348.211 245.338 347.268 245.839 346.452 246.004C344.539 246.391 343.054 246.152 341.998 245.288C340.973 244.418 340.296 243.168 339.967 241.537C339.726 240.345 339.811 238.989 340.222 237.469C340.627 235.918 341.248 234.307 342.085 232.636C342.948 230.928 343.92 229.278 345.003 227.688C346.11 226.061 347.234 224.593 348.373 223.285C349.506 221.946 350.562 220.868 351.539 220.05C352.541 219.194 353.341 218.706 353.936 218.586C354.47 218.478 354.984 218.521 355.481 218.715C356.008 218.902 356.319 219.231 356.415 219.701C356.579 220.517 356.371 221.261 355.788 221.933C355.2 222.575 354.599 223.235 353.985 223.914C353.071 224.882 352.047 226.036 350.914 227.375C349.812 228.708 348.789 230.106 347.844 231.57C346.893 233.003 346.152 234.426 345.622 235.839C345.091 237.252 344.94 238.523 345.168 239.653C345.333 240.468 345.651 240.828 346.121 240.733C346.623 240.632 347.366 240.106 348.349 239.157C349.326 238.176 350.409 236.912 351.599 235.366C352.781 233.788 353.955 232.082 355.118 230.247C355.266 228.879 355.543 227.582 355.948 226.357C356.347 225.101 356.825 224.074 357.382 223.276C357.964 222.44 358.537 221.965 359.102 221.851C359.698 221.731 360.169 221.799 360.514 222.056C360.854 222.281 361.099 222.77 361.252 223.523C361.429 224.401 361.378 225.44 361.098 226.639C360.812 227.807 360.365 229.072 359.759 230.435C359.755 231.22 359.769 231.935 359.801 232.581C359.834 233.228 359.904 233.817 360.012 234.351C360.101 234.79 360.221 235.304 360.373 235.894C360.55 236.446 360.758 236.91 360.997 237.286C361.268 237.655 361.576 237.805 361.921 237.736C362.924 237.533 363.664 236.91 364.138 235.867C364.607 234.793 364.902 233.509 365.025 232.015C365.141 230.49 365.122 228.943 364.968 227.375C364.846 225.8 364.661 224.4 364.414 223.177C364.008 221.17 363.352 219.458 362.445 218.041C361.57 216.619 360.432 215.592 359.031 214.961C357.662 214.323 356.036 214.195 354.154 214.575C352.492 214.911 350.821 215.608 349.141 216.666C347.461 217.724 345.851 219.045 344.311 220.629C342.77 222.214 341.361 223.968 340.085 225.891C338.803 227.783 337.718 229.765 336.831 231.838C335.969 233.873 335.364 235.888 335.017 237.885C334.67 239.881 334.673 241.758 335.028 243.514C335.415 245.427 336.485 246.925 338.238 248.007C339.985 249.058 342.183 249.675 344.832 249.858C347.487 250.072 350.367 249.865 353.472 249.238C356.075 248.711 358.772 247.921 361.563 246.868C364.36 245.845 366.996 244.431 369.471 242.625C369.809 242.36 370.151 242.112 370.495 241.879C370.872 241.64 371.263 241.479 371.671 241.396C372.173 241.295 372.631 241.382 373.046 241.657C373.492 241.926 373.766 242.312 373.867 242.813C373.988 243.409 373.926 243.993 373.683 244.565C373.439 245.136 373.086 245.649 372.622 246.101C370.054 248.416 367.218 250.295 364.114 251.739C361.017 253.213 357.885 254.271 354.717 254.911C351.517 255.558 348.474 255.765 345.587 255.533C342.731 255.294 340.16 254.687 337.873 253.713C335.593 252.77 333.727 251.531 332.274 249.996C330.815 248.43 329.886 246.659 329.486 244.683ZM414.755 236.606C413.469 236.866 412.455 236.858 411.714 236.584C411.011 236.334 410.499 235.981 410.178 235.523C409.888 235.059 409.715 234.686 409.657 234.404C409.474 233.495 409.729 232.659 410.424 231.899C411.144 231.1 412.022 230.596 413.057 230.387C414.061 230.184 415.271 229.793 416.688 229.212C418.13 228.594 419.626 227.835 421.174 226.934C422.754 226.028 424.226 224.995 425.592 223.838C426.989 222.674 428.157 221.426 429.096 220.093C430.034 218.761 430.59 217.392 430.763 215.986C430.047 216 429.338 216.045 428.636 216.122C427.927 216.167 427.227 216.26 426.537 216.399C424.216 216.868 421.867 217.604 419.491 218.607C417.114 219.61 414.75 220.593 412.399 221.558C411.828 221.804 411.273 221.802 410.733 221.552C410.803 222.224 410.864 222.848 410.915 223.425C410.992 223.965 411.078 224.551 411.173 225.185C411.421 226.735 411.521 227.955 411.472 228.846C411.449 229.7 411.347 230.325 411.166 230.72C410.984 231.116 410.759 231.374 410.489 231.494C410.22 231.613 409.959 231.699 409.709 231.749C409.614 231.768 409.552 231.781 409.52 231.787C408.956 231.902 408.394 231.868 407.835 231.687C407.276 231.506 406.751 231.009 406.26 230.194C405.762 229.348 405.33 228.015 404.962 226.196C403.796 220.424 403.434 215.404 403.877 211.136C404.345 206.83 405.559 203.385 407.518 200.802C409.502 198.181 412.172 196.531 415.528 195.853C418.163 195.32 420.363 195.626 422.129 196.771C423.888 197.885 425.038 199.775 425.576 202.441C425.849 203.789 425.855 205.192 425.594 206.649C425.334 208.105 424.851 209.59 424.144 211.104C424.715 210.858 425.276 210.647 425.828 210.47C426.374 210.262 426.897 210.107 427.399 210.005C430.348 209.41 432.635 209.502 434.262 210.283C435.883 211.033 436.871 212.286 437.226 214.043C437.581 215.799 437.412 217.547 436.719 219.287C436.057 221.021 435.041 222.695 433.67 224.311C432.324 225.889 430.783 227.392 429.047 228.82C427.306 230.217 425.535 231.472 423.737 232.587C421.931 233.67 420.232 234.552 418.64 235.233C417.053 235.945 415.758 236.403 414.755 236.606ZM410.318 216.592C410.487 216.46 410.678 216.356 410.891 216.28C413.619 215.239 415.653 214.159 416.994 213.039C418.335 211.919 419.164 210.691 419.481 209.353C419.799 208.016 419.786 206.5 419.444 204.807C419.355 204.367 419.197 203.91 418.97 203.433C418.743 202.957 418.407 202.584 417.961 202.315C417.54 202.008 416.968 201.928 416.247 202.074C413.863 202.556 412.216 204.015 411.304 206.452C410.418 208.851 410.089 212.231 410.318 216.592ZM454.72 228.381C452.493 228.831 450.547 228.408 448.881 227.113C447.209 225.786 446.104 223.789 445.565 221.123C445.394 220.276 445.329 219.391 445.371 218.469C445.445 217.54 445.578 216.664 445.771 215.841C445.525 215.597 445.296 215.268 445.082 214.854C444.892 214.403 444.734 213.864 444.608 213.236C444.195 211.198 444.179 209.258 444.558 207.419C444.931 205.548 445.602 203.861 446.572 202.36C447.541 200.858 448.693 199.613 450.028 198.625C451.363 197.637 452.783 196.991 454.289 196.686C456.861 196.166 459.136 196.604 461.116 198C463.127 199.389 464.5 201.902 465.236 205.541C465.604 207.36 465.695 209.268 465.511 211.264C465.327 213.26 464.923 215.219 464.299 217.14C463.701 219.024 462.91 220.767 461.928 222.37C460.978 223.966 459.876 225.298 458.623 226.368C457.401 227.431 456.1 228.102 454.72 228.381ZM450.753 212.631C450.98 212.944 451.141 213.336 451.236 213.806C451.331 214.277 451.335 214.782 451.248 215.322C451.162 215.862 451.11 216.574 451.093 217.459C451.069 218.313 451.213 219.508 451.524 221.045C451.606 221.453 451.723 221.788 451.874 222.051C452.05 222.277 452.342 222.349 452.75 222.266C453.816 222.051 454.75 221.503 455.552 220.622C456.385 219.736 457.063 218.652 457.588 217.371C458.144 216.083 458.549 214.695 458.803 213.207C459.082 211.682 459.217 210.169 459.208 208.669C459.224 207.132 459.105 205.735 458.851 204.481C458.686 203.665 458.415 203.132 458.038 202.882C457.661 202.632 457.081 202.586 456.297 202.744C455.23 202.96 454.202 203.527 453.212 204.445C452.248 205.326 451.506 206.422 450.988 207.735C450.464 209.016 450.347 210.379 450.639 211.821C450.696 212.104 450.734 212.373 450.753 212.631ZM483.08 222.404C481.323 222.759 479.72 222.659 478.269 222.103C476.824 221.579 475.63 220.759 474.687 219.644C473.737 218.498 473.125 217.25 472.853 215.901C472.396 213.643 472.32 211.487 472.623 209.435C472.92 207.35 473.475 205.41 474.287 203.614C475.093 201.786 476.031 200.127 477.101 198.637C478.202 197.142 479.298 195.859 480.388 194.79C481.503 193.683 482.521 192.824 483.442 192.214C484.357 191.572 485.05 191.203 485.52 191.108C486.367 190.937 487.001 191.005 487.422 191.311C487.868 191.58 488.174 192.123 488.338 192.938C488.433 193.409 488.203 194.043 487.646 194.841C487.12 195.633 486.394 196.563 485.467 197.632C484.572 198.694 483.636 199.879 482.66 201.187C481.684 202.494 480.78 203.917 479.948 205.456C479.148 206.989 478.561 208.61 478.188 210.317C477.847 212.019 477.863 213.795 478.237 215.645C478.376 216.335 478.61 216.843 478.937 217.169C479.295 217.488 479.788 217.585 480.415 217.458C482.203 217.096 484.053 216.396 485.965 215.357C487.902 214.28 489.792 213.049 491.634 211.664C493.501 210.242 495.236 208.814 496.84 207.38C498.475 205.939 499.866 204.663 501.012 203.55C501.469 203.065 501.864 202.675 502.196 202.38C502.528 202.084 502.772 201.921 502.929 201.889C503.87 201.699 504.439 202.09 504.635 203.062C504.737 203.564 504.497 204.314 503.915 205.313C503.259 206.589 502.295 207.959 501.024 209.424C499.784 210.882 498.363 212.328 496.759 213.763C495.187 215.19 493.545 216.518 491.834 217.745C490.155 218.966 488.551 219.992 487.021 220.824C485.491 221.655 484.178 222.182 483.08 222.404ZM511.842 216.59C510.086 216.945 508.482 216.845 507.031 216.29C505.587 215.765 504.392 214.946 503.449 213.831C502.499 212.684 501.888 211.436 501.615 210.088C501.158 207.829 501.082 205.674 501.385 203.621C501.682 201.537 502.237 199.596 503.049 197.8C503.855 195.972 504.793 194.313 505.863 192.824C506.964 191.328 508.06 190.045 509.15 188.976C510.265 187.87 511.283 187.011 512.204 186.4C513.119 185.758 513.812 185.39 514.282 185.295C515.129 185.123 515.763 185.191 516.184 185.498C516.63 185.767 516.936 186.309 517.1 187.124C517.196 187.595 516.965 188.229 516.408 189.027C515.882 189.819 515.156 190.75 514.23 191.818C513.334 192.881 512.398 194.066 511.422 195.373C510.446 196.68 509.542 198.104 508.71 199.643C507.91 201.176 507.324 202.796 506.95 204.504C506.609 206.205 506.625 207.981 506.999 209.832C507.138 210.522 507.372 211.03 507.699 211.355C508.057 211.675 508.55 211.771 509.177 211.644C510.965 211.283 512.815 210.583 514.727 209.543C516.664 208.466 518.554 207.235 520.396 205.851C522.263 204.429 523.999 203.001 525.602 201.566C527.237 200.126 528.628 198.849 529.774 197.736C530.231 197.252 530.626 196.862 530.958 196.566C531.29 196.271 531.534 196.107 531.691 196.075C532.632 195.885 533.201 196.276 533.397 197.248C533.499 197.75 533.259 198.501 532.677 199.5C532.021 200.775 531.057 202.145 529.786 203.61C528.546 205.069 527.125 206.515 525.521 207.949C523.949 209.377 522.307 210.704 520.597 211.932C518.917 213.153 517.313 214.179 515.783 215.01C514.253 215.842 512.94 216.368 511.842 216.59ZM562.23 207.532C561.007 207.779 560.046 207.631 559.348 207.086C558.657 206.573 558.118 205.36 557.731 203.446C557.402 201.815 557.24 199.644 557.247 196.933C557.254 194.222 557.283 191.294 557.333 188.15C554.637 192.743 551.123 196.032 546.791 198.018C546.262 200.084 545.544 202.025 544.638 203.84C543.732 205.656 542.655 207.195 541.409 208.459C540.188 209.686 538.809 210.454 537.272 210.765C535.358 211.152 533.585 210.857 531.951 209.881C530.349 208.899 529.285 207.107 528.758 204.503C528.403 202.747 528.369 201.203 528.655 199.872C528.934 198.51 529.356 197.445 529.919 196.678C529.114 195.6 528.556 194.293 528.245 192.756C527.826 190.686 528.02 188.737 528.826 186.909C529.632 185.081 530.868 183.526 532.535 182.242C534.233 180.952 536.18 180.085 538.375 179.641C539.599 179.394 540.823 179.473 542.047 179.878C543.297 180.246 544.393 180.988 545.337 182.103C546.306 183.18 546.98 184.66 547.361 186.542C547.678 188.11 547.791 189.883 547.701 191.86C549.662 190.092 551.493 187.845 553.194 185.118C554.927 182.384 556.367 179.416 557.516 176.213C557.878 175.259 558.545 174.683 559.517 174.486C560.333 174.322 561.026 174.443 561.598 174.849C562.195 175.218 562.573 175.795 562.732 176.579C562.763 176.736 562.774 177.273 562.763 178.189C562.752 179.105 562.733 180.301 562.704 181.775C562.67 183.219 562.632 184.81 562.592 186.548C562.583 188.281 562.58 190.044 562.584 191.839C562.587 193.634 562.603 195.328 562.632 196.922C563.149 195.283 563.711 193.537 564.316 191.685C564.946 189.794 565.613 187.929 566.319 186.089C567.018 184.217 567.733 182.506 568.464 180.954C569.195 179.403 569.905 178.149 570.593 177.194C571.275 176.207 571.914 175.654 572.51 175.533C573.702 175.292 574.775 175.434 575.73 175.96C576.685 176.485 577.236 177.108 577.382 177.829C577.527 178.551 577.674 179.68 577.822 181.217C577.969 182.755 578.108 184.49 578.237 186.422C578.391 188.317 578.533 190.231 578.663 192.164C578.792 194.096 578.934 195.847 579.088 197.416C579.235 198.953 579.385 200.098 579.537 200.851C579.664 201.478 579.487 202.134 579.005 202.819C578.523 203.504 577.906 203.923 577.153 204.075C577.09 204.088 576.98 204.11 576.823 204.142C576.453 204.249 576.096 204.256 575.75 204.163C575.411 204.101 575.05 203.684 574.665 202.913C574.312 202.135 573.939 200.774 573.546 198.83C573.28 197.512 573.051 196.057 572.859 194.463C572.668 192.869 572.508 191.269 572.379 189.663C572.275 188.019 572.209 186.482 572.181 185.051C571.638 186.564 571.039 188.285 570.384 190.213C569.754 192.103 569.087 194.05 568.382 196.054C567.67 198.026 566.949 199.869 566.219 201.584C565.513 203.261 564.813 204.643 564.118 205.73C563.455 206.811 562.826 207.412 562.23 207.532ZM541.363 195.393C541.524 194.088 541.596 192.751 541.581 191.383C541.559 189.983 541.419 188.641 541.159 187.355C541.051 186.821 540.837 186.326 540.516 185.869C540.195 185.411 539.767 185.236 539.234 185.344C538.168 185.56 537.161 185.992 536.215 186.64C535.3 187.282 534.596 188.077 534.102 189.026C533.608 189.975 533.475 191.013 533.704 192.143C533.906 193.146 534.407 193.927 535.205 194.484C536.035 195.034 536.986 195.38 538.06 195.523C539.164 195.658 540.219 195.625 541.222 195.422C541.254 195.416 541.301 195.406 541.363 195.393ZM540.271 199.924C539.167 200.114 538.072 200.189 536.986 200.147C535.894 200.074 534.874 199.872 533.926 199.541C533.933 200.062 533.937 200.567 533.938 201.057C533.933 201.515 533.971 201.948 534.054 202.356C534.193 203.046 534.43 203.651 534.764 204.171C535.122 204.654 535.678 204.819 536.431 204.667C537.215 204.508 537.929 204.005 538.574 203.156C539.25 202.301 539.816 201.224 540.271 199.924ZM592.046 199.743C591.167 199.92 590.323 199.781 589.513 199.324C588.733 198.861 588.208 197.956 587.935 196.607C587.789 195.885 587.677 194.847 587.599 193.492C587.552 192.13 587.546 190.646 587.581 189.039C587.609 187.401 587.671 185.772 587.768 184.153C587.897 182.527 588.044 181.077 588.211 179.803C588.372 178.497 588.549 177.515 588.742 176.855C589.004 176.052 589.291 175.536 589.605 175.31C589.943 175.046 590.285 174.879 590.63 174.809C591.257 174.682 591.875 174.753 592.485 175.022C593.125 175.284 593.576 176.058 593.836 177.344C593.937 177.846 594.008 178.68 594.048 179.848C594.081 180.983 594.106 182.317 594.122 183.848C594.138 185.379 594.131 186.964 594.103 188.602C594.107 190.234 594.094 191.787 594.066 193.262C594.062 194.699 594.062 195.907 594.064 196.886C594.065 197.702 593.853 198.349 593.428 198.827C593.04 199.33 592.579 199.635 592.046 199.743ZM591.617 169.761C590.582 169.97 589.565 169.866 588.567 169.447C587.562 168.998 586.929 168.13 586.669 166.844C586.454 165.777 586.546 164.861 586.946 164.094C587.346 163.328 587.878 162.731 588.543 162.302C589.232 161.837 589.859 161.547 590.424 161.433C590.988 161.318 591.641 161.317 592.382 161.429C593.116 161.509 593.798 161.812 594.426 162.338C595.08 162.826 595.521 163.634 595.749 164.764C595.901 165.516 595.774 166.26 595.368 166.995C594.955 167.699 594.391 168.303 593.677 168.806C592.994 169.303 592.307 169.622 591.617 169.761Z" fill="#4274D8"/>
<path d="M224.688 20.2063C222.824 21.4024 222.993 24.4707 225.942 45.9486C227.94 60.2618 228.107 61.8557 227.423 62.7565C227.025 63.3145 223.6 66.9339 219.777 70.8164L212.848 77.8718L209.311 58.4583C207.043 46.058 205.462 38.3596 204.872 37.1802C203.19 33.5784 201.15 33.7224 200.546 37.4605C200.181 39.6842 202.291 57.0259 204.719 72.152C205.686 77.9378 206.365 83.1817 206.318 83.7795C206.238 84.4809 201.882 89.5829 195.137 96.8535C189.052 103.375 183.963 108.796 183.82 108.82C183.677 108.844 182.12 101.289 180.379 92.0442C175.932 68.3592 174.064 60.4138 172.709 59.0673C171.306 57.7288 169.402 57.8011 168.51 59.228C167.228 61.2607 168.587 70.8639 178.083 126.244C186.365 174.355 187.307 179.408 189.341 186.293C190.522 190.421 191.392 193.864 191.265 193.983C188.692 195.642 188.087 197.316 189.665 198.232C190.103 198.502 193.808 198.326 198.931 197.814C205.846 197.151 211.861 196.097 231.778 192.082C263.717 185.617 275.866 183.047 290.78 179.671C297.551 178.146 308.028 175.856 314.003 174.563C320.026 173.262 330.454 170.979 337.226 169.455C343.997 167.931 351.996 166.103 354.983 165.457C357.963 164.763 361.293 163.813 362.384 163.287C363.468 162.713 364.416 162.505 364.647 162.712C364.83 162.927 365.722 162.975 366.583 162.831C369.403 162.36 369.443 161.42 367.444 145.927C364.191 121.158 355.684 66.3993 352.314 48.8747C349.272 33.0156 349.049 31.9716 347.893 30.9359C346.37 29.4699 344.737 29.6936 343.814 31.5189C342.882 33.2965 343.538 39.8714 346.598 60.8392C347.813 68.9919 349.012 77.6389 349.275 80.1015L349.731 84.5963L346.305 82.318C344.424 81.0593 338.869 77.5144 333.88 74.4157C328.939 71.309 323.121 67.6606 320.978 66.2984L317.025 63.813L313.639 45.308C310.157 26.2293 309.79 24.9144 307.734 24.0782C306.364 23.5207 304.484 24.6211 304.11 26.2072C303.951 27.0202 304.711 33.627 306.093 43.0788L308.386 58.5715L297.938 52.2068L287.49 45.8421L284.775 31.6486C281.909 16.5466 281.127 13.6299 279.573 12.8573C278.338 12.228 276.808 12.4835 275.844 13.4801C274.753 14.5962 274.874 17.3776 276.385 29.0689C277.152 34.8389 277.648 39.5728 277.504 39.5967C277.361 39.6207 274.253 37.7806 270.643 35.582C263.199 31.0256 261.343 30.2052 259.741 30.9151C258.738 31.3776 239.695 50.0409 237.704 52.536C237.338 52.9904 236.9 53.3094 236.741 53.2377C236.621 53.1102 235.144 46.0334 233.467 37.4663C230.649 22.9461 230.354 21.7667 229.246 20.723C228.13 19.6315 226.026 19.393 224.688 20.2063ZM270.375 43.3926L279.062 48.921L286.649 93.4622L294.284 137.995L291.527 135.605C284.058 129.136 275.134 127.481 267.168 130.974C261.313 133.574 255.013 138.804 251.892 143.651C251.072 144.918 250.347 145.875 250.283 145.787C250.228 145.748 249.732 142.193 249.221 137.953C248.221 129.322 241.517 83.3065 239.425 70.7785L238.067 62.6497L244.884 55.5146C248.595 51.5524 253.812 46.0118 256.432 43.1657C259.052 40.3197 261.306 37.928 261.449 37.9041C261.593 37.8801 265.585 40.3097 270.375 43.3926ZM301.623 62.7976C306.07 65.5936 309.912 68.2942 310.095 68.8042C310.279 69.3143 313.066 84.8227 316.244 103.264L321.994 136.807L320.257 136.409C315.755 135.343 310.505 136.859 305.671 140.566L303.329 142.432L299.838 119.767C297.961 107.35 294.829 87.7214 292.896 76.1497L289.398 55.206L291.478 56.4806C292.578 57.1816 297.176 60.0015 301.623 62.7976ZM232.996 92.5939C234.818 104.676 237.741 121.587 239.833 132.345C241.853 142.674 243.426 151.209 243.346 151.321C243.266 151.432 242.39 151.185 241.346 150.819C237.194 149.202 231.713 150.806 227.429 154.864C226.202 156.052 225.119 156.921 225.015 156.889C224.952 156.802 223.633 148.322 222.163 138.049C220.685 127.729 218.911 115.934 218.256 111.718L216.994 104.163L218.142 104.266C219.233 104.33 219.855 103.931 222.586 101.165L223.725 100.041L225.781 101.467C228.228 103.171 229.304 103.139 230.084 101.338C231.692 97.7269 227.634 93.1455 223.476 93.8401C221.181 94.2234 218.752 96.1528 217.223 98.7674L216.379 100.186L215.277 93.8825L214.223 87.5707L221.844 79.6623C226.026 75.2776 229.554 71.6901 229.649 71.6741C229.745 71.6581 231.27 81.086 232.996 92.5939ZM325.269 77.2795C328.273 79.0878 333.461 82.2024 336.76 84.3054C343.774 88.6389 350.237 92.3269 350.762 92.2391C350.954 92.2072 352.479 100.455 354.172 110.593C355.865 120.73 357.104 129.026 356.96 129.05C356.817 129.074 356.076 128.755 355.319 128.341C349.374 125.107 336.109 128.945 330.145 135.593L328.536 137.435L326.347 122.564C325.18 114.403 322.927 100.034 321.354 90.6143C319.086 77.0343 318.646 73.5198 319.172 73.7268C319.491 73.8702 322.264 75.4713 325.269 77.2795ZM213.386 126.687L218.858 159.441L215.853 158.223C207.646 154.974 200.491 156.562 195.005 162.836L193.229 164.853L189.219 140.554L185.154 116.215L196.423 105.142C202.627 99.0429 207.74 94.0601 207.836 94.0442C207.875 93.9884 210.383 108.708 213.386 126.687ZM277.792 138.391C280.74 139.275 284.972 142.254 289.197 146.365C291.309 148.421 294.011 150.771 295.126 151.568L297.238 153.034L298.891 161.162L300.504 169.347L292.856 170.919C288.625 171.773 279.081 173.761 271.616 175.253C264.159 176.794 257.276 178.238 256.344 178.542C255.412 178.845 254.496 178.949 254.368 178.773C254.233 178.55 253.626 174.326 253.026 169.266L251.939 160.109L254.351 155.43C258.769 146.877 263.778 141.567 269.785 138.991C272.812 137.699 275.043 137.523 277.792 138.391ZM350.525 134.647C351.927 134.806 353.641 135.65 355.816 137.203L359.012 139.57L360.506 148.511L361.999 157.453L355.929 158.467C352.535 159.034 345.859 160.247 340.991 161.11L332.227 162.77L330.933 154.434C330.27 149.875 329.735 145.787 329.814 145.38C329.981 144.32 333.66 140.462 335.962 138.947C340.654 135.853 346.413 134.154 350.525 134.647ZM320.747 144.044L323.424 145.072L324.533 149.654C325.1 152.164 325.946 156.348 326.394 159.026L327.2 163.855L320.699 165.236C317.146 166.026 312.534 166.944 310.43 167.296L306.606 167.934L306.518 165.344C306.437 163.981 305.95 160.18 305.407 156.928L304.424 151.047L305.762 149.349C307.291 147.324 310.509 144.821 312.899 143.832C315.376 142.779 317.647 142.842 320.747 144.044ZM238.536 156.941C239.365 157.196 241.038 158.391 242.266 159.562C243.549 160.773 244.84 162.032 245.247 162.406C245.709 162.82 246.491 166.032 247.553 171.507L249.15 179.891L247.238 180.505C246.163 180.832 241.614 181.838 237.152 182.779L228.939 184.496L228.076 179.036C227.573 176.024 227.045 171.689 226.805 169.369C226.445 165.153 226.437 165.106 228.229 162.595C230.211 159.757 233.684 157.014 235.692 156.679C236.456 156.551 237.755 156.678 238.536 156.941ZM210.135 163.995C212.31 164.369 214.024 165.213 216.805 167.157L220.535 169.778L221.996 177.644L223.457 185.509L219.689 186.483C217.61 186.978 212.655 188.199 208.648 189.212C204.68 190.17 200.354 191.334 199.064 191.845C197.765 192.308 196.69 192.635 196.634 192.595C196.523 192.515 196.194 189.08 195.898 184.952C195.554 180.832 195.21 177.006 195.161 176.424C194.93 175.038 199.325 167.816 201.635 165.759C204.032 163.638 206.119 163.191 210.135 163.995Z" fill="#4274D8"/>
<path d="M259.055 48.5781C258.426 49.5188 258.53 50.4353 259.927 57.6237C261.484 65.4735 262.584 68.5336 264.418 70.0951C265.51 71.0432 266.736 69.5604 267.587 66.42C268.255 63.9492 268.231 62.6262 267.639 57.9082C267.008 52.9512 266.769 52.1064 265.437 50.0187C264.592 48.7837 263.508 47.5885 262.99 47.4293C261.476 46.8958 259.787 47.3745 259.055 48.5781Z" fill="#4274D8"/>
<path d="M261.236 77.7987C258.352 79.9514 252.628 90.9834 253.067 93.6134C253.379 95.4782 256.136 96.3939 257.594 95.1183C257.896 94.8711 259.449 92.1051 261.001 89.0442C262.593 85.9275 264.265 83.289 264.68 83.1215C265.142 82.946 267.285 84.0133 269.995 85.8216C276.793 90.3385 278.179 90.4018 277.461 86.0983C276.622 81.0775 268.851 75.4452 263.928 76.2676C263.498 76.3395 262.287 77.0332 261.236 77.7987Z" fill="#4274D8"/>
<path d="M264.077 96.2983C263.065 97.0079 261.767 98.3552 261.154 99.3915C257.476 105.609 256.263 121.294 259.268 123.692C259.889 124.178 260.63 124.497 261.013 124.433C261.347 124.377 262.32 124.608 263.061 124.926C265.236 125.89 270.948 124.788 274.533 122.715C279.193 120.02 279.829 117.063 277.961 107.938C276.58 101.435 274.905 98.1759 271.956 96.1126C269.518 94.4556 266.681 94.5362 264.077 96.2983ZM268.653 104.578C268.709 104.912 269.228 106.546 269.754 108.227C270.281 109.909 270.808 112.475 270.92 114.029L271.081 116.755L268.268 117.569C266.771 118.015 265.392 118.295 265.233 118.223C264.954 118.024 266.162 110.548 267.061 106.81C267.673 104.299 268.438 103.287 268.653 104.578Z" fill="#4274D8"/>
<path d="M302.224 81.1276C299.58 82.9455 296.275 87.577 296.539 89.155C296.746 90.3982 298.013 91.2187 299.448 90.9792C299.83 90.9153 301.303 89.7353 302.745 88.364L305.421 85.8527L307.398 87.3903C308.521 88.2348 309.533 88.7047 309.732 88.4257C309.931 88.1467 310.066 86.8954 310.002 85.6282C309.937 82.5917 308.686 80.6873 306.534 80.1619C304.391 79.6844 304.486 79.6684 302.224 81.1276Z" fill="#4274D8"/>
<path d="M304.989 107.062C304.575 107.819 304.177 109.261 304.193 110.242C304.123 113.055 306.98 126.045 308.472 129.679C310.617 134.875 311.66 133.766 312.669 125.39C313.748 116.264 312.566 108.008 309.944 106.136C308.103 104.821 306.008 105.22 304.989 107.062Z" fill="#4274D8"/>
<path d="M226.366 119.357C225.052 121.198 225.068 121.294 226.825 130.634C228.071 137.504 229.794 142.819 231.707 145.744C233.222 148.046 233.828 148.142 234.616 146.388C235.929 143.367 235.935 137.517 234.664 129.325C233.259 120.614 232.429 118.59 229.808 117.897C227.959 117.42 227.688 117.563 226.366 119.357Z" fill="#4274D8"/>
<path d="M334.964 101.807C334.167 102.923 334.183 103.314 335.173 108.063C336.02 111.952 336.745 113.945 338.324 116.925C341.394 122.654 342.39 122.144 342.793 114.556C343.054 109.352 341.776 103.176 340.079 101.543C338.445 99.9969 336.198 100.077 334.964 101.807Z" fill="#4274D8"/>
<path d="M198.013 123.752C197.639 124.158 197.217 125.163 197.05 125.928C196.724 127.801 198.377 137.699 199.845 142.369C201.672 148.306 204.917 152.728 206.111 151.054C207.146 149.603 207.207 142.319 206.328 135.29C205.329 127.543 204.419 124.746 202.466 123.352C201.239 122.476 199.064 122.691 198.013 123.752Z" fill="#4274D8"/>
</svg>
