<svg width="720" height="156" viewBox="0 0 720 156" fill="none" xmlns="http://www.w3.org/2000/svg">
<path d="M21.3255 140.195C20.0162 140.28 19.0128 140.136 18.3154 139.765C17.6519 139.423 17.1918 139.004 16.9352 138.507C16.7105 138.009 16.5888 137.616 16.5702 137.328C16.5102 136.402 16.8757 135.609 17.6666 134.948C18.4875 134.254 19.4248 133.872 20.4785 133.804C21.5004 133.738 22.7525 133.513 24.2347 133.128C25.7468 132.709 27.3304 132.158 28.9857 131.473C30.6728 130.787 32.2708 129.962 33.7797 128.998C35.3205 128.033 36.6454 126.953 37.7545 125.758C38.8637 124.564 39.5983 123.282 39.9585 121.912C39.2477 121.83 38.5389 121.779 37.8323 121.761C37.1235 121.711 36.4179 121.708 35.7154 121.754C33.3523 121.907 30.926 122.321 28.4364 122.995C25.9468 123.669 23.4721 124.327 21.0124 124.967C20.4139 125.134 19.8638 125.058 19.362 124.737C19.3416 125.412 19.3181 126.039 19.2915 126.618C19.2947 127.163 19.301 127.756 19.3105 128.396C19.348 129.965 19.2829 131.188 19.1152 132.065C18.9774 132.907 18.7922 133.513 18.5595 133.88C18.3268 134.248 18.0688 134.473 17.7855 134.556C17.5022 134.638 17.2329 134.688 16.9774 134.704C16.8816 134.711 16.8178 134.715 16.7858 134.717C16.211 134.754 15.6589 134.646 15.1293 134.391C14.5998 134.137 14.1464 133.573 13.7691 132.7C13.3898 131.794 13.1401 130.416 13.0201 128.563C12.6395 122.688 12.9554 117.665 13.9679 113.495C15.0103 109.29 16.6756 106.04 18.9639 103.743C21.2821 101.412 24.1496 100.136 27.5665 99.9151C30.2488 99.7413 32.388 100.34 33.984 101.712C35.578 103.052 36.4629 105.079 36.6387 107.793C36.7277 109.166 36.5452 110.557 36.0913 111.965C35.6374 113.373 34.9589 114.78 34.0559 116.186C34.6544 116.019 35.2389 115.884 35.8096 115.783C36.3782 115.65 36.9179 115.567 37.4289 115.534C40.4306 115.34 42.6851 115.739 44.1924 116.731C45.6977 117.692 46.5082 119.067 46.6241 120.855C46.7399 122.643 46.3376 124.353 45.4171 125.984C44.5286 127.612 43.2964 129.135 41.7207 130.552C40.1749 131.935 38.4462 133.217 36.5346 134.399C34.621 135.55 32.698 136.556 30.7657 137.419C28.8314 138.25 27.0294 138.895 25.3597 139.356C23.6921 139.849 22.3473 140.129 21.3255 140.195ZM19.6172 119.767C19.8026 119.658 20.006 119.581 20.2275 119.535C23.0704 118.869 25.2314 118.072 26.7104 117.142C28.1894 116.213 29.176 115.107 29.6701 113.824C30.1642 112.542 30.3554 111.038 30.2437 109.314C30.2147 108.867 30.1198 108.392 29.959 107.889C29.7981 107.386 29.5147 106.972 29.1088 106.645C28.7327 106.285 28.1774 106.129 27.443 106.176C25.0161 106.333 23.1874 107.558 21.957 109.851C20.7565 112.109 19.9766 115.414 19.6172 119.767ZM58.007 137.915C56.9852 137.981 56.0405 137.753 55.173 137.232C54.3076 136.743 53.6064 136.067 53.0695 135.204C52.5305 134.309 52.2269 133.335 52.1586 132.281C52.0303 130.301 52.3363 128.341 53.0764 126.401C53.8485 124.459 54.8982 122.596 56.2255 120.81C57.5528 119.024 59.0172 117.374 60.6187 115.86C62.2499 114.311 63.8787 112.971 65.505 111.839C67.1632 110.706 68.6762 109.806 70.044 109.14C71.4437 108.472 72.5428 108.113 73.3411 108.061C74.2671 108.001 75.031 108.16 75.6327 108.538C76.2643 108.882 76.6069 109.469 76.6607 110.299C76.6773 110.554 76.6268 110.766 76.5095 110.934C76.9308 111.003 77.2816 111.221 77.5619 111.587C77.8422 111.954 78.0072 112.52 78.0568 113.287C78.0775 113.606 78.0515 114.442 77.9787 115.793C77.9059 117.145 77.8358 118.785 77.7683 120.713C77.7328 122.639 77.7822 124.64 77.9167 126.716C77.9374 127.035 78.0039 127.32 78.1163 127.569C78.2265 127.786 78.4414 127.885 78.7607 127.864C80.038 127.781 81.3147 127.442 82.5909 126.846C83.8969 126.216 85.1478 125.478 86.3435 124.631C87.5691 123.75 88.668 122.893 89.6402 122.06C90.6423 121.194 91.4781 120.482 92.1475 119.926C92.8468 119.335 93.3082 119.033 93.5317 119.018C94.6175 118.948 95.1955 119.456 95.2658 120.541C95.2844 120.829 94.9725 121.458 94.33 122.43C93.7173 123.368 92.8585 124.465 91.7535 125.723C90.6464 126.95 89.3957 128.185 88.0013 129.43C86.6367 130.64 85.1958 131.664 83.6787 132.5C82.1935 133.333 80.7324 133.797 79.2954 133.89C77.5391 134.004 76.171 133.675 75.1911 132.905C74.2432 132.133 73.5322 131.057 73.0579 129.676C72.6136 128.262 72.3175 126.662 72.1697 124.876C70.6921 127.312 69.1342 129.498 67.4958 131.432C65.8872 133.332 64.2709 134.863 62.6467 136.027C61.0225 137.19 59.476 137.819 58.007 137.915ZM73.4088 112.818C70.3766 114.522 67.6782 116.428 65.3136 118.538C62.947 120.615 61.0975 122.755 59.7651 124.958C58.4646 127.159 57.8775 129.233 58.0037 131.181C58.0389 131.724 58.3119 131.978 58.8228 131.945C59.4296 131.906 60.2051 131.503 61.1496 130.736C62.1259 129.968 63.1676 128.97 64.2746 127.744C65.3796 126.486 66.4763 125.1 67.5647 123.587C68.6511 122.041 69.6556 120.469 70.5781 118.87C71.5007 117.271 72.2198 115.749 72.7355 114.305C72.9259 113.78 73.1504 113.284 73.4088 112.818ZM100.528 134.679C98.7402 134.795 97.1645 134.48 95.8015 133.734C94.4405 133.021 93.3674 132.048 92.5821 130.816C91.7948 129.553 91.3566 128.234 91.2677 126.861C91.1187 124.562 91.3324 122.416 91.9087 120.422C92.483 118.397 93.2932 116.549 94.3393 114.878C95.3834 113.174 96.5357 111.657 97.7962 110.325C99.0887 108.99 100.347 107.866 101.57 106.953C102.824 106.006 103.948 105.292 104.943 104.811C105.936 104.298 106.672 104.026 107.151 103.995C108.013 103.939 108.632 104.091 109.008 104.451C109.414 104.778 109.644 105.356 109.698 106.186C109.729 106.665 109.415 107.263 108.756 107.979C108.128 108.693 107.284 109.517 106.222 110.452C105.192 111.385 104.106 112.433 102.963 113.597C101.819 114.762 100.733 116.051 99.7018 117.464C98.703 118.876 97.904 120.403 97.3049 122.045C96.7377 123.685 96.5152 125.447 96.6373 127.331C96.6828 128.034 96.8457 128.568 97.126 128.935C97.4382 129.299 97.9136 129.461 98.5523 129.42C100.372 129.302 102.3 128.856 104.334 128.083C106.398 127.276 108.436 126.31 110.447 125.186C112.489 124.027 114.4 122.845 116.182 121.64C117.996 120.432 119.545 119.353 120.831 118.404C121.349 117.986 121.792 117.653 122.161 117.404C122.53 117.156 122.794 117.026 122.953 117.016C123.911 116.954 124.423 117.418 124.487 118.408C124.52 118.919 124.181 119.63 123.47 120.542C122.649 121.718 121.51 122.946 120.054 124.227C118.629 125.505 117.026 126.748 115.244 127.953C113.495 129.157 111.69 130.252 109.829 131.238C108.001 132.223 106.273 133.024 104.646 133.642C103.019 134.261 101.646 134.606 100.528 134.679ZM124.8 135.511C123.331 135.607 122.251 135.26 121.558 134.471C120.866 133.682 120.468 132.489 120.364 130.893C120.269 129.424 120.417 127.49 120.806 125.092C121.226 122.66 121.804 119.945 122.539 116.947C123.305 113.915 124.177 110.796 125.156 107.59C126.133 104.352 127.161 101.175 128.242 98.0585C129.321 94.9102 130.384 92.0194 131.432 89.3862C131.935 88.2313 132.492 87.4256 133.103 86.9691C133.715 86.5126 134.404 86.2595 135.171 86.2098C135.905 86.1622 136.541 86.3295 137.079 86.7115C137.615 87.0616 137.911 87.6677 137.966 88.5299C137.979 88.7215 137.771 89.4725 137.343 90.783C136.913 92.0614 136.348 93.7335 135.648 95.7991C134.946 97.8327 134.18 100.127 133.352 102.682C132.521 105.205 131.698 107.84 130.882 110.586C130.063 113.301 129.339 115.977 128.708 118.615C128.077 121.254 127.594 123.69 127.258 125.924C128.278 124.351 129.368 122.613 130.527 120.71C131.717 118.773 132.923 116.851 134.146 114.944C135.399 113.003 136.631 111.224 137.841 109.606C139.083 107.986 140.248 106.676 141.338 105.676C142.428 104.675 143.404 104.147 144.266 104.091C145.862 103.988 147.169 104.352 148.185 105.184C149.23 105.982 149.823 107.451 149.961 109.591C150.025 110.58 149.911 111.79 149.619 113.22C149.325 114.618 148.956 116.101 148.512 117.669C148.099 119.203 147.746 120.685 147.454 122.115C147.161 123.545 147.049 124.787 147.118 125.84C147.155 126.415 147.445 126.685 147.988 126.65C149.553 126.548 151.112 126.111 152.665 125.337C154.25 124.561 155.745 123.63 157.15 122.545C158.584 121.426 159.876 120.332 161.026 119.263C162.205 118.161 163.156 117.25 163.879 116.529C164.389 115.983 164.862 115.616 165.299 115.427C165.733 115.207 166.142 115.084 166.525 115.059C167.835 114.974 168.532 115.587 168.616 116.896C168.633 117.151 168.606 117.474 168.535 117.863C168.462 118.221 168.187 118.687 167.712 119.263C167.236 119.839 166.519 120.655 165.561 121.711C164.604 122.767 163.474 123.899 162.174 125.105C160.905 126.31 159.505 127.475 157.975 128.6C156.474 129.692 154.914 130.61 153.295 131.357C151.676 132.103 150.084 132.527 148.519 132.628C146.156 132.781 144.293 132.228 142.929 130.97C141.566 129.743 140.812 127.997 140.665 125.729C140.564 124.165 140.756 122.18 141.241 119.776C141.725 117.339 142.285 114.85 142.922 112.307C141.875 113.465 140.793 114.834 139.677 116.414C138.558 117.961 137.43 119.606 136.293 121.347C135.153 123.056 134.028 124.748 132.918 126.424C131.838 128.065 130.797 129.575 129.796 130.955C128.793 132.303 127.869 133.389 127.025 134.213C126.181 135.037 125.439 135.47 124.8 135.511ZM172.027 130.335C170.048 130.464 168.406 129.88 167.104 128.586C165.8 127.26 165.047 125.048 164.846 121.95C164.718 119.97 164.813 117.976 165.132 115.967C165.481 113.924 166.012 111.982 166.727 110.14C167.471 108.264 168.356 106.587 169.383 105.11C170.442 103.63 171.632 102.447 172.953 101.559C174.272 100.64 175.666 100.133 177.135 100.038C179.626 99.8764 181.618 100.421 183.109 101.671C184.601 102.921 185.415 104.584 185.549 106.66C185.653 108.256 185.3 109.738 184.49 111.105C183.711 112.439 182.604 113.665 181.169 114.784C179.735 115.903 178.118 116.938 176.32 117.888C174.521 118.838 172.67 119.712 170.766 120.508C170.68 121.668 170.667 122.695 170.725 123.589C170.76 124.132 171.081 124.384 171.687 124.345C173.124 124.252 174.643 123.929 176.242 123.376C177.872 122.79 179.509 122.074 181.154 121.23C182.797 120.354 184.375 119.466 185.888 118.567C187.399 117.635 188.769 116.761 189.999 115.943C191.258 115.092 192.289 114.416 193.09 113.915C193.921 113.38 194.464 113.105 194.72 113.088C195.422 113.043 195.947 113.217 196.293 113.612C196.639 114.006 196.828 114.443 196.859 114.922C196.873 115.145 196.474 115.668 195.662 116.49C194.881 117.311 193.791 118.295 192.39 119.444C191.019 120.559 189.46 121.734 187.712 122.97C185.994 124.172 184.193 125.33 182.31 126.446C180.456 127.529 178.637 128.416 176.854 129.109C175.105 129.831 173.496 130.24 172.027 130.335ZM171.304 116.193C172.563 115.341 173.805 114.459 175.028 113.546C176.282 112.599 177.305 111.571 178.099 110.461C178.891 109.32 179.241 108.03 179.147 106.593C179.121 106.178 178.991 105.914 178.759 105.801C178.526 105.656 178.201 105.596 177.786 105.623C176.668 105.696 175.678 106.257 174.817 107.307C173.987 108.355 173.271 109.684 172.67 111.294C172.098 112.87 171.643 114.503 171.304 116.193ZM204.325 129.013C201.451 129.199 199.127 128.467 197.352 126.819C195.608 125.136 194.629 122.65 194.416 119.361C194.3 117.573 194.404 115.466 194.728 113.04C195.05 110.582 195.507 107.987 196.1 105.255C196.722 102.489 197.395 99.7514 198.117 97.043C198.871 94.3326 199.622 91.8148 200.369 89.4896C201.117 87.1644 201.776 85.2137 202.347 83.6375C202.845 82.4187 203.621 81.7752 204.675 81.707C205.346 81.6635 205.902 81.8359 206.344 82.2241C206.818 82.6103 207.085 83.2664 207.145 84.1925C207.174 84.6395 207.014 85.628 206.664 87.1578C206.314 88.6876 205.843 90.578 205.251 92.829C204.69 95.0459 204.075 97.4427 203.408 100.019C202.774 102.594 202.172 105.182 201.603 107.784C201.066 110.384 200.647 112.832 200.347 115.129C200.045 117.393 199.944 119.307 200.046 120.872C200.087 121.511 200.296 122.01 200.672 122.371C201.08 122.729 201.587 122.889 202.194 122.849C203.503 122.765 204.829 122.438 206.171 121.87C207.545 121.3 208.879 120.605 210.172 119.783C211.498 118.96 212.74 118.094 213.9 117.185C215.06 116.276 216.095 115.423 217.005 114.627C217.946 113.796 218.705 113.138 219.282 112.651C220.041 111.993 220.565 111.654 220.852 111.636C221.938 111.565 222.515 112.057 222.583 113.111C222.599 113.366 222.314 113.914 221.727 114.754C221.23 115.491 220.522 116.435 219.602 117.585C218.682 118.735 217.607 119.959 216.377 121.257C215.176 122.521 213.875 123.728 212.474 124.877C211.106 126.024 209.725 126.979 208.331 127.743C206.938 128.507 205.602 128.93 204.325 129.013ZM227.671 126.682C225.404 126.829 223.532 126.149 222.055 124.641C220.577 123.102 219.749 120.975 219.574 118.26C219.518 117.398 219.573 116.513 219.738 115.604C219.936 114.693 220.185 113.843 220.487 113.054C220.277 112.779 220.093 112.422 219.936 111.984C219.81 111.511 219.726 110.955 219.684 110.316C219.55 108.241 219.794 106.317 220.417 104.545C221.037 102.741 221.929 101.16 223.092 99.8022C224.254 98.4442 225.563 97.3653 227.019 96.5655C228.474 95.7658 229.968 95.3163 231.501 95.217C234.119 95.0473 236.316 95.7869 238.09 97.4356C239.896 99.0823 240.919 101.758 241.159 105.462C241.279 107.314 241.114 109.217 240.663 111.17C240.213 113.123 239.549 115.01 238.673 116.83C237.827 118.617 236.809 120.238 235.621 121.694C234.465 123.148 233.194 124.32 231.809 125.212C230.455 126.101 229.076 126.591 227.671 126.682ZM225.856 110.542C226.038 110.883 226.145 111.293 226.176 111.772C226.207 112.251 226.143 112.752 225.985 113.275C225.826 113.799 225.679 114.498 225.543 115.372C225.405 116.215 225.387 117.419 225.489 118.983C225.516 119.398 225.586 119.747 225.701 120.028C225.845 120.275 226.125 120.385 226.54 120.358C227.625 120.288 228.625 119.87 229.537 119.106C230.481 118.339 231.3 117.356 231.992 116.157C232.715 114.956 233.303 113.635 233.755 112.195C234.237 110.721 234.574 109.24 234.766 107.752C234.988 106.231 235.058 104.831 234.975 103.554C234.921 102.724 234.724 102.159 234.384 101.86C234.044 101.562 233.475 101.438 232.677 101.49C231.591 101.56 230.496 101.984 229.392 102.761C228.318 103.504 227.436 104.491 226.746 105.722C226.054 106.922 225.756 108.256 225.851 109.725C225.869 110.012 225.871 110.284 225.856 110.542ZM249.933 125.769C249.135 125.821 248.43 125.578 247.818 125.04C247.237 124.501 246.912 123.688 246.842 122.602C246.811 122.123 246.824 121.337 246.881 120.243C246.969 119.115 247.078 117.825 247.208 116.374C247.37 114.92 247.513 113.404 247.635 111.825C247.789 110.243 247.9 108.745 247.969 107.33C248.069 105.912 248.12 104.706 248.119 103.712C248.105 102.495 248.368 101.612 248.91 101.064C249.449 100.484 250.118 100.168 250.917 100.116C251.555 100.075 252.14 100.197 252.672 100.483C253.234 100.735 253.609 101.336 253.799 102.286C254.019 103.202 254.122 104.542 254.108 106.307C255.347 103.661 256.62 101.286 257.927 99.1808C259.265 97.0739 260.695 95.3779 262.215 94.0929C264.735 91.9094 267.065 90.7484 269.204 90.6098C270.418 90.5312 271.234 90.7509 271.652 91.2689C272.07 91.787 272.298 92.3334 272.336 92.9082C272.36 93.2914 272.287 93.6488 272.116 93.9806C271.977 94.3102 271.648 94.6683 271.128 95.0547C270.608 95.4412 269.807 95.958 268.727 96.6052C267.276 97.4688 265.856 98.5709 264.468 99.9115C263.112 101.25 261.778 102.94 260.467 104.981C259.156 107.022 257.859 109.511 256.574 112.448C255.289 115.385 253.991 118.868 252.681 122.898C252.464 124.002 252.096 124.747 251.575 125.134C251.087 125.518 250.54 125.73 249.933 125.769ZM275.417 103.194C274.811 103.234 274.337 103.104 273.997 102.805C273.657 102.507 273.461 101.958 273.41 101.16C273.379 100.681 273.49 100.177 273.745 99.6472C274.031 99.1155 274.343 98.4861 274.681 97.7587C275.018 97.0314 275.299 96.1634 275.522 95.1549C275.777 94.1442 275.86 92.9524 275.771 91.5793C275.742 91.1322 275.681 90.6872 275.589 90.2443C275.526 89.7674 275.481 89.3213 275.454 88.9062C275.239 85.5852 276.185 83.8564 278.292 83.7198C279.25 83.6578 280.055 83.9424 280.705 84.5737C281.355 85.2049 281.745 86.5265 281.875 88.5383C282.02 90.7736 281.878 92.787 281.449 94.5785C281.02 96.37 280.446 97.8983 279.726 99.1635C279.006 100.429 278.252 101.407 277.463 102.1C276.674 102.792 275.992 103.157 275.417 103.194ZM291.128 123.437C289.755 123.526 288.769 123.398 288.169 123.052C287.601 122.704 287.294 122.162 287.246 121.428C287.205 120.789 287.393 120.232 287.811 119.756C288.227 119.248 289.186 118.705 290.688 118.126C292.441 117.468 294.093 116.735 295.644 115.929C297.225 115.089 298.499 114.205 299.465 113.277C300.463 112.346 300.931 111.402 300.869 110.444C300.827 109.806 300.574 109.357 300.108 109.099C299.674 108.838 299.17 108.726 298.595 108.764C298.116 108.795 297.419 108.92 296.503 109.14C295.617 109.325 294.639 109.565 293.568 109.859C292.494 110.121 291.452 110.365 290.44 110.591C289.459 110.783 288.617 110.901 287.914 110.947C286.254 111.054 285 110.767 284.154 110.084C283.306 109.369 282.844 108.421 282.768 107.24C282.726 106.601 283.005 105.701 283.603 104.54C284.201 103.379 285.016 102.092 286.046 100.678C287.077 99.2644 288.236 97.8426 289.522 96.4124C290.808 94.9823 292.117 93.6628 293.45 92.4542C294.813 91.2115 296.111 90.2135 297.345 89.4601C298.576 88.6748 299.639 88.2532 300.534 88.1953C301.555 88.1291 302.39 88.3957 303.039 88.995C303.719 89.5923 304.094 90.4338 304.164 91.5195C304.197 92.0305 304.185 92.5924 304.129 93.2053C304.07 93.7863 303.865 94.3288 303.513 94.8326C303.159 95.3045 302.589 95.6621 301.803 95.9054C301.017 96.1487 299.929 96.1871 298.539 96.0206C297.505 96.8893 296.429 97.8409 295.309 98.8754C294.22 99.8759 293.197 100.92 292.241 102.008C291.284 103.064 290.5 104.093 289.892 105.095C291.049 104.635 292.37 104.245 293.856 103.924C295.341 103.571 296.849 103.345 298.382 103.246C300.234 103.126 301.757 103.364 302.95 103.96C304.173 104.522 305.091 105.329 305.704 106.379C306.349 107.428 306.714 108.606 306.799 109.916C306.894 111.385 306.51 112.885 305.647 114.416C304.785 115.947 303.594 117.37 302.076 118.687C300.558 120.004 298.849 121.093 296.949 121.954C295.048 122.814 293.108 123.309 291.128 123.437ZM524.499 107.597C523.19 107.681 522.187 107.538 521.489 107.166C520.826 106.824 520.366 106.405 520.109 105.909C519.884 105.41 519.763 105.017 519.744 104.73C519.684 103.804 520.05 103.011 520.841 102.35C521.661 101.656 522.599 101.274 523.652 101.206C524.674 101.14 525.926 100.914 527.409 100.53C528.921 100.111 530.504 99.5595 532.16 98.8751C533.847 98.1886 535.445 97.3635 536.954 96.4C538.494 95.4343 539.819 94.3544 540.928 93.1602C542.038 91.966 542.772 90.6838 543.132 89.3137C542.422 89.2315 541.713 89.1812 541.006 89.1628C540.297 89.1125 539.592 89.1102 538.889 89.1557C536.526 89.3088 534.1 89.7225 531.61 90.3969C529.121 91.0712 526.646 91.7286 524.186 92.3689C523.588 92.536 523.038 92.4594 522.536 92.1392C522.516 92.8139 522.492 93.4407 522.465 94.0197C522.469 94.5646 522.475 95.1574 522.484 95.7981C522.522 97.367 522.457 98.5898 522.289 99.4664C522.151 100.309 521.966 100.914 521.733 101.282C521.501 101.65 521.243 101.875 520.959 101.958C520.676 102.04 520.407 102.09 520.151 102.106C520.056 102.112 519.992 102.117 519.96 102.119C519.385 102.156 518.833 102.047 518.303 101.793C517.774 101.539 517.32 100.975 516.943 100.101C516.564 99.196 516.314 97.8173 516.194 95.9652C515.813 90.0895 516.129 85.0665 517.142 80.8964C518.184 76.6922 519.85 73.4417 522.138 71.145C524.456 68.8142 527.324 67.5382 530.74 67.3168C533.423 67.143 535.562 67.742 537.158 69.1137C538.752 70.4534 539.637 72.4805 539.813 75.1948C539.902 76.5679 539.719 77.9586 539.265 79.3669C538.811 80.7752 538.133 82.182 537.23 83.5873C537.828 83.4203 538.413 83.2862 538.984 83.1851C539.552 83.0521 540.092 82.969 540.603 82.9359C543.605 82.7414 545.859 83.1405 547.366 84.1331C548.872 85.0938 549.682 86.4683 549.798 88.2565C549.914 90.0448 549.512 91.7544 548.591 93.3853C547.703 95.0142 546.47 96.537 544.895 97.9538C543.349 99.3367 541.62 100.619 539.709 101.801C537.795 102.951 535.872 103.958 533.94 104.82C532.005 105.651 530.203 106.297 528.534 106.758C526.866 107.251 525.521 107.53 524.499 107.597ZM522.791 87.1683C522.977 87.06 523.18 86.9827 523.401 86.9363C526.244 86.2711 528.405 85.4738 529.884 84.5442C531.363 83.6146 532.35 82.5085 532.844 81.2259C533.338 79.9433 533.529 78.4398 533.418 76.7154C533.389 76.2683 533.294 75.7935 533.133 75.2908C532.972 74.7882 532.689 74.3736 532.283 74.0472C531.907 73.6867 531.351 73.5303 530.617 73.5779C528.19 73.7351 526.361 74.9599 525.131 77.2522C523.93 79.5106 523.151 82.8159 522.791 87.1683ZM565.208 104.815C562.94 104.962 561.069 104.281 559.592 102.774C558.113 101.234 557.286 99.1071 557.11 96.3928C557.054 95.5306 557.109 94.6452 557.275 93.7366C557.472 92.826 557.722 91.976 558.024 91.1869C557.813 90.9119 557.63 90.555 557.473 90.1162C557.346 89.6434 557.262 89.0877 557.221 88.4491C557.087 86.3734 557.331 84.4496 557.953 82.6776C558.574 80.8737 559.466 79.2928 560.628 77.9348C561.791 76.5768 563.1 75.4979 564.555 74.6981C566.011 73.8984 567.505 73.4488 569.038 73.3495C571.656 73.1799 573.852 73.9194 575.627 75.5682C577.433 77.2149 578.456 79.8903 578.696 83.5945C578.816 85.4467 578.651 87.3493 578.2 89.3026C577.749 91.2558 577.086 93.1426 576.21 94.9631C575.364 96.7495 574.346 98.3707 573.158 99.8265C572.001 101.28 570.731 102.453 569.345 103.344C567.992 104.234 566.613 104.724 565.208 104.815ZM563.392 88.6745C563.575 89.0155 563.682 89.4254 563.713 89.9044C563.744 90.3834 563.68 90.8846 563.521 91.4079C563.363 91.9313 563.216 92.6302 563.08 93.5048C562.942 94.3475 562.924 95.5512 563.025 97.1159C563.052 97.5311 563.123 97.8792 563.237 98.1604C563.382 98.4076 563.661 98.5178 564.077 98.4909C565.162 98.4205 566.161 98.0031 567.074 97.2385C568.018 96.4718 568.836 95.4889 569.528 94.2896C570.252 93.0883 570.84 91.7675 571.292 90.3273C571.774 88.8531 572.111 87.3722 572.303 85.8847C572.525 84.3631 572.595 82.9637 572.512 81.6864C572.458 80.8561 572.261 80.2917 571.921 79.993C571.581 79.6944 571.012 79.5709 570.214 79.6226C569.128 79.693 568.033 80.1166 566.929 80.8936C565.855 81.6366 564.973 82.6237 564.283 83.8549C563.591 85.0541 563.292 86.3882 563.388 87.8571C563.406 88.1445 563.408 88.417 563.392 88.6745ZM594.113 102.702C592.325 102.818 590.749 102.503 589.386 101.757C588.025 101.044 586.952 100.071 586.167 98.8395C585.379 97.5757 584.941 96.2573 584.852 94.8842C584.703 92.585 584.917 90.4387 585.493 88.4452C586.068 86.4199 586.878 84.5716 587.924 82.9005C588.968 81.1974 590.12 79.6798 591.381 78.3475C592.673 77.0131 593.931 75.8895 595.155 74.9765C596.408 74.0294 597.532 73.3153 598.527 72.8339C599.52 72.3207 600.256 72.0485 600.735 72.0175C601.597 71.9616 602.217 72.1139 602.593 72.4744C602.999 72.8008 603.228 73.3792 603.282 74.2094C603.313 74.6884 602.999 75.286 602.34 76.0021C601.713 76.7161 600.869 77.5404 599.807 78.475C598.777 79.4076 597.69 80.456 596.547 81.6203C595.404 82.7847 594.317 84.0736 593.286 85.4872C592.288 86.8988 591.489 88.4256 590.89 90.0678C590.322 91.7079 590.1 93.47 590.222 95.354C590.267 96.0565 590.43 96.5911 590.711 96.9578C591.023 97.3223 591.498 97.4839 592.137 97.4426C593.957 97.3246 595.884 96.8791 597.919 96.106C599.983 95.2988 602.021 94.3331 604.032 93.2087C606.074 92.0503 607.985 90.8682 609.767 89.6625C611.581 88.4547 613.13 87.3763 614.415 86.4272C614.933 86.0089 615.377 85.6755 615.746 85.4271C616.114 85.1788 616.378 85.0494 616.538 85.0391C617.496 84.977 618.007 85.441 618.071 86.4309C618.104 86.9418 617.766 87.6532 617.055 88.565C616.233 89.7406 615.094 90.9688 613.638 92.2497C612.214 93.5284 610.611 94.7706 608.829 95.9764C607.079 97.18 605.274 98.275 603.414 99.2613C601.586 100.246 599.858 101.047 598.231 101.665C596.603 102.284 595.231 102.629 594.113 102.702ZM623.395 100.805C621.607 100.921 620.032 100.606 618.669 99.8604C617.308 99.1469 616.234 98.1742 615.449 96.9424C614.662 95.6786 614.224 94.3602 614.135 92.9871C613.986 90.6879 614.199 88.5416 614.776 86.5482C615.35 84.5228 616.16 82.6746 617.206 81.0034C618.25 79.3004 619.403 77.7827 620.663 76.4504C621.956 75.1161 623.214 73.9924 624.437 73.0794C625.691 72.1324 626.815 71.4182 627.81 70.9369C628.803 70.4236 629.539 70.1515 630.018 70.1204C630.88 70.0646 631.499 70.2169 631.875 70.5773C632.281 70.9037 632.511 71.4821 632.565 72.3124C632.596 72.7913 632.282 73.3889 631.623 74.105C630.995 74.819 630.151 75.6434 629.089 76.578C628.059 77.5105 626.973 78.5589 625.83 79.7233C624.687 80.8876 623.6 82.1766 622.569 83.5902C621.57 85.0017 620.771 86.5285 620.172 88.1707C619.605 89.8108 619.382 91.5729 619.504 93.4569C619.55 94.1595 619.713 94.694 619.993 95.0607C620.305 95.4253 620.781 95.5869 621.419 95.5455C623.24 95.4276 625.167 94.9821 627.201 94.2089C629.265 93.4018 631.303 92.436 633.314 91.3116C635.356 90.1532 637.267 88.9712 639.049 87.7655C640.863 86.5577 642.412 85.4792 643.698 84.5302C644.216 84.1118 644.659 83.7784 645.028 83.5301C645.397 83.2817 645.661 83.1524 645.82 83.142C646.778 83.08 647.29 83.5439 647.354 84.5338C647.387 85.0447 647.048 85.7561 646.338 86.668C645.516 87.8436 644.377 89.0718 642.921 90.3526C641.496 91.6313 639.893 92.8736 638.111 94.0793C636.362 95.2829 634.557 96.3779 632.696 97.3642C630.868 98.3485 629.14 99.1499 627.513 99.7684C625.886 100.387 624.513 100.732 623.395 100.805ZM674.544 98.5974C673.298 98.6781 672.366 98.4018 671.748 97.7684C671.132 97.167 670.761 95.8923 670.635 93.9444C670.527 92.2839 670.659 90.1108 671.03 87.4252C671.401 84.7396 671.823 81.8423 672.295 78.7333C669.007 82.9226 665.083 85.7101 660.523 87.0958C659.721 89.0718 658.749 90.8984 657.607 92.5758C656.465 94.2531 655.191 95.6343 653.787 96.7194C652.412 97.7705 650.942 98.3467 649.377 98.4481C647.429 98.5743 645.711 98.0442 644.224 96.858C642.768 95.6696 641.954 93.7502 641.782 91.0997C641.666 89.3115 641.84 87.7771 642.302 86.4965C642.762 85.184 643.322 84.1857 643.984 83.5015C643.33 82.3253 642.953 80.9548 642.851 79.3901C642.715 77.2825 643.169 75.3772 644.213 73.6742C645.257 71.9711 646.691 70.5955 648.515 69.5474C650.371 68.4972 652.417 67.8997 654.652 67.7549C655.897 67.6742 657.1 67.917 658.259 68.4832C659.447 69.0155 660.435 69.8975 661.22 71.1293C662.035 72.3271 662.505 73.884 662.629 75.8C662.732 77.3967 662.606 79.1685 662.252 81.1155C664.432 79.6274 666.548 77.6465 668.601 75.1726C670.685 72.6967 672.511 69.9489 674.079 66.9292C674.566 66.0318 675.305 65.5511 676.295 65.4869C677.125 65.4332 677.796 65.6462 678.308 66.1261C678.85 66.572 679.147 67.1941 679.199 67.9924C679.209 68.1521 679.147 68.6852 679.014 69.5917C678.88 70.4983 678.7 71.6804 678.474 73.1381C678.245 74.5638 677.995 76.1353 677.721 77.8526C677.479 79.5678 677.24 81.3149 677.002 83.094C676.765 84.8731 676.553 86.5543 676.367 88.1376C677.1 86.583 677.891 84.9284 678.739 83.1739C679.617 81.3854 680.53 79.6267 681.476 77.8979C682.42 76.1372 683.358 74.5372 684.291 73.0979C685.224 71.6586 686.096 70.5118 686.906 69.6576C687.715 68.7715 688.422 68.3088 689.029 68.2695C690.243 68.1909 691.287 68.4759 692.163 69.1247C693.039 69.7734 693.5 70.465 693.548 71.1995C693.596 71.9339 693.589 73.0727 693.529 74.6159C693.468 76.159 693.373 77.8968 693.241 79.8293C693.14 81.7279 693.023 83.6434 692.892 85.5759C692.761 87.5085 692.666 89.2623 692.608 90.8373C692.547 92.3805 692.542 93.5352 692.592 94.3016C692.633 94.9403 692.369 95.5667 691.799 96.1808C691.23 96.7949 690.562 97.1268 689.796 97.1764C689.732 97.1805 689.62 97.1878 689.46 97.1981C689.079 97.2549 688.724 97.2138 688.394 97.0748C688.066 96.9678 687.764 96.5063 687.487 95.6906C687.241 94.8727 687.054 93.4739 686.926 91.494C686.839 90.1528 686.808 88.6798 686.832 87.0748C686.857 85.4699 686.913 83.8629 687.001 82.2539C687.119 80.6108 687.26 79.0785 687.425 77.6568C686.683 79.0838 685.859 80.7085 684.951 82.531C684.072 84.3195 683.149 86.159 682.182 88.0496C681.212 89.9081 680.25 91.638 679.295 93.239C678.37 94.8061 677.491 96.0816 676.657 97.0656C675.855 98.0475 675.15 98.5581 674.544 98.5974ZM655.497 83.7658C655.831 82.4935 656.083 81.1785 656.251 79.8207C656.418 78.431 656.459 77.0816 656.374 75.7723C656.339 75.2295 656.193 74.7098 655.936 74.2134C655.68 73.7169 655.28 73.4863 654.737 73.5214C653.651 73.5918 652.596 73.8846 651.571 74.4C650.578 74.9132 649.773 75.6067 649.157 76.4804C648.54 77.3541 648.269 78.3658 648.343 79.5154C648.409 80.5372 648.8 81.3777 649.517 82.0368C650.265 82.6938 651.161 83.1648 652.205 83.4499C653.282 83.7329 654.331 83.8413 655.353 83.7751C655.385 83.773 655.433 83.7699 655.497 83.7658ZM653.806 88.1081C652.686 88.1486 651.591 88.0753 650.521 87.8881C649.448 87.6689 648.465 87.3318 647.569 86.8768C647.507 87.3939 647.443 87.8951 647.378 88.3803C647.311 88.8335 647.291 89.2677 647.318 89.6829C647.364 90.3854 647.517 91.0168 647.778 91.5771C648.068 92.1034 648.597 92.3418 649.363 92.2921C650.162 92.2404 650.937 91.8374 651.69 91.0832C652.475 90.3269 653.18 89.3352 653.806 88.1081ZM705.135 94.8839C704.241 94.9418 703.423 94.6902 702.681 94.129C701.972 93.5657 701.572 92.5975 701.483 91.2243C701.436 90.4899 701.464 89.4459 701.569 88.0923C701.706 86.7366 701.899 85.265 702.149 83.6775C702.397 82.0581 702.677 80.4526 702.991 78.861C703.337 77.2673 703.678 75.8503 704.014 74.6099C704.349 73.3377 704.656 72.3878 704.936 71.7604C705.304 70.999 705.658 70.5272 705.999 70.3447C706.37 70.1283 706.731 70.0087 707.082 69.986C707.721 69.9446 708.324 70.0979 708.891 70.4459C709.491 70.7919 709.833 71.6195 709.918 72.9288C709.951 73.4397 709.909 74.2762 709.792 75.4382C709.673 76.5682 709.518 77.893 709.328 79.4125C709.138 80.9319 708.919 82.5014 708.671 84.1208C708.455 85.7381 708.234 87.2756 708.008 88.7333C707.811 90.157 707.648 91.354 707.519 92.3244C707.411 93.1331 707.114 93.7456 706.628 94.1619C706.176 94.6081 705.678 94.8487 705.135 94.8839ZM708.739 65.1167C707.685 65.1849 706.691 64.9447 705.758 64.3959C704.822 63.8151 704.312 62.8701 704.227 61.5609C704.157 60.4752 704.371 59.5794 704.871 58.8737C705.37 58.1679 705.978 57.6475 706.694 57.3125C707.439 56.9436 708.1 56.7405 708.674 56.7032C709.249 56.666 709.896 56.7523 710.615 56.9623C711.332 57.1403 711.967 57.5321 712.519 58.1377C713.101 58.7092 713.43 59.5698 713.504 60.7194C713.554 61.4858 713.328 62.2059 712.826 62.8797C712.323 63.5216 711.683 64.044 710.908 64.447C710.164 64.8479 709.441 65.0712 708.739 65.1167Z" fill="#4274D8"/>
<path d="M385.294 8.70701C383.739 9.4568 383.581 11.8463 383.84 28.7389C384.038 39.9995 384.018 41.2483 383.403 41.8807C383.043 42.2749 380.053 44.7524 376.73 47.396L370.706 52.2017L369.797 36.8507C369.21 27.0444 368.712 20.9402 368.367 19.9723C367.404 17.0276 365.813 16.947 364.993 19.7819C364.501 21.4677 364.501 35.0817 364.956 47.0116C365.159 51.5784 365.191 55.699 365.098 56.157C364.97 56.6921 361.12 60.2289 355.218 65.2183C349.897 69.6902 345.45 73.4048 345.337 73.4098C345.224 73.4149 344.73 67.4239 344.254 60.1086C343.043 41.3675 342.346 35.0453 341.425 33.8761C340.466 32.7086 338.986 32.5853 338.162 33.6051C336.979 35.0569 337.125 42.6137 339.258 86.3486C341.136 124.347 341.389 128.344 342.315 133.862C342.84 137.166 343.189 139.912 343.079 139.992C340.932 141.033 340.307 142.271 341.441 143.128C341.755 143.379 344.637 143.591 348.649 143.677C354.061 143.815 358.813 143.566 374.598 142.335C399.914 140.34 409.555 139.496 421.41 138.288C426.792 137.747 435.111 136.961 439.855 136.523C444.637 136.084 452.919 135.3 458.301 134.758C463.683 134.216 470.043 133.555 472.415 133.337C474.785 133.08 477.45 132.659 478.344 132.355C479.236 132.012 479.989 131.941 480.148 132.123C480.27 132.307 480.956 132.428 481.635 132.397C483.861 132.298 483.98 131.575 483.893 119.402C483.708 99.9341 482.281 56.773 481.325 42.8989C480.464 30.3442 480.39 29.5155 479.593 28.6055C478.553 27.3281 477.269 27.3474 476.383 28.6725C475.495 29.96 475.383 35.108 475.777 51.6164C475.949 58.0376 476.062 64.8396 476.034 66.7695L475.964 70.2896L473.527 68.2045C472.191 67.0537 468.228 63.7886 464.66 60.9218C461.13 58.0533 456.973 54.6833 455.443 53.4277L452.619 51.1329L451.742 36.499C450.844 21.4122 450.684 20.3604 449.173 19.52C448.165 18.9597 446.607 19.634 446.168 20.8258C445.969 21.4398 445.935 26.6222 446.114 34.0641L446.429 46.2649L438.946 40.3577L431.463 34.4505L430.699 23.2151C429.903 11.2625 429.573 8.93256 428.444 8.1886C427.547 7.58555 426.34 7.63921 425.501 8.31939C424.551 9.08009 424.383 11.2431 424.451 20.4296C424.501 24.9654 424.439 28.6742 424.326 28.6792C424.213 28.6842 421.982 26.9682 419.396 24.9275C414.067 20.702 412.708 19.8926 411.402 20.291C410.582 20.5543 394.094 33.1993 392.319 34.9421C391.993 35.2592 391.624 35.4647 391.508 35.3942C391.427 35.2843 390.951 29.6708 390.46 22.8856C389.647 11.3876 389.53 10.4474 388.771 9.53573C388.01 8.58629 386.406 8.20381 385.294 8.70701ZM418.454 30.9444L424.653 36.0389L426.33 71.2096L428.044 106.379L426.136 104.27C420.967 98.5625 414.219 96.4421 407.728 98.3946C402.954 99.8547 397.588 103.308 394.717 106.763C393.964 107.666 393.313 108.338 393.272 108.264C393.232 108.228 393.184 105.432 393.187 102.104C393.226 95.333 392.372 59.1047 391.933 49.2162L391.648 42.8001L397.593 37.9222C400.837 35.2065 405.394 31.4114 407.689 29.4564C409.984 27.5014 411.952 25.8634 412.066 25.8584C412.179 25.8533 415.039 28.1087 418.454 30.9444ZM440.8 48.8975C443.977 51.4792 446.694 53.9299 446.788 54.3417C446.882 54.7535 447.578 67.0131 448.301 81.5782L449.592 108.068L448.286 107.597C444.903 106.348 440.699 107.026 436.61 109.439L434.623 110.662L434.056 92.8C433.773 83.018 433.198 67.5387 432.792 58.4051L432.058 41.874L433.547 43.0558C434.331 43.7016 437.623 46.3159 440.8 48.8975ZM384.906 65.4872C385.178 75.0049 385.847 88.3623 386.453 96.882C387.043 105.062 387.456 111.813 387.384 111.892C387.312 111.97 386.657 111.697 385.884 111.315C382.825 109.674 378.434 110.399 374.737 113.134C373.677 113.938 372.757 114.508 372.68 114.474C372.639 114.4 372.417 107.716 372.247 99.631C372.075 91.5081 371.813 82.2168 371.703 78.8938L371.438 72.9305L372.316 73.1184C373.155 73.2702 373.673 73.0203 376.046 71.1374L377.033 70.3751L378.49 71.6718C380.222 73.2209 381.057 73.2972 381.83 71.9771C383.414 69.3352 380.706 65.4091 377.424 65.555C375.613 65.6355 373.552 66.8994 372.123 68.7781L371.337 69.7963L371.078 64.816L370.856 59.834L377.497 54.4336C381.144 51.4353 384.211 48.9922 384.286 48.9888C384.362 48.9855 384.655 56.4223 384.906 65.4872ZM457.728 62.3265C459.882 64.0082 463.603 66.906 465.957 68.8435C470.974 72.856 475.627 76.3174 476.042 76.299C476.193 76.2923 476.596 82.8166 476.952 90.818C477.307 98.8193 477.484 105.354 477.371 105.359C477.258 105.364 476.715 105.048 476.168 104.656C471.874 101.595 461.251 103.315 456.011 107.896L454.593 109.17L454.3 97.4594C454.165 91.0365 453.775 79.7088 453.445 72.2736C452.969 61.5548 452.959 58.7946 453.347 59.0043C453.58 59.1452 455.575 60.6448 457.728 62.3265ZM366.527 90.0151L367.676 115.868L365.467 114.643C359.423 111.357 353.739 111.912 348.904 116.249L347.34 117.642L346.526 98.4673L345.672 79.2565L355.432 71.751C360.806 67.6171 365.23 64.2439 365.306 64.2405C365.342 64.2011 365.896 75.824 366.527 90.0151ZM415.248 105.132C417.446 106.093 420.439 108.797 423.32 112.375C424.761 114.164 426.629 116.236 427.418 116.957L428.913 118.29L429.427 124.734L429.904 131.217L423.839 131.714C420.486 131.976 412.916 132.615 407.001 133.067C401.087 133.557 395.626 134.026 394.877 134.173C394.127 134.32 393.409 134.314 393.327 134.166C393.243 133.981 393.171 130.656 393.183 126.685L393.204 119.499L395.511 116.106C399.734 109.906 404.109 106.27 408.998 104.843C411.461 104.128 413.203 104.202 415.248 105.132ZM471.866 109.083C472.936 109.338 474.182 110.152 475.719 111.559L477.968 113.69L478.282 120.748L478.596 127.805L473.804 128.018C471.125 128.137 465.846 128.448 461.999 128.656L455.064 129.116L454.847 122.545C454.764 118.956 454.734 115.743 454.834 115.436C455.063 114.632 458.272 111.994 460.196 111.038C464.116 109.087 468.732 108.314 471.866 109.083ZM447.945 113.549L449.92 114.596L450.347 118.245C450.549 120.24 450.809 123.557 450.903 125.67L451.073 129.482L445.914 129.938C443.091 130.215 439.436 130.491 437.776 130.565L434.758 130.699L434.933 128.687C434.999 127.625 434.98 124.638 434.866 122.072L434.659 117.43L435.854 116.242C437.227 114.82 439.952 113.186 441.894 112.646C443.91 112.065 445.66 112.327 447.945 113.549ZM383.134 115.787C383.751 116.062 384.934 117.144 385.773 118.165C386.652 119.223 387.532 120.318 387.811 120.646C388.13 121.01 388.433 123.568 388.739 127.904L389.185 134.54L387.648 134.835C386.785 134.986 383.171 135.336 379.631 135.645L373.116 136.199L372.962 131.895C372.857 129.517 372.857 126.113 372.889 124.297C373.008 121.002 373.006 120.964 374.628 119.19C376.429 117.181 379.374 115.386 380.959 115.316C381.562 115.289 382.555 115.51 383.134 115.787ZM360.5 118.57C362.147 119.064 363.393 119.878 365.362 121.644L368 124.022L368.39 130.245L368.78 136.467L365.774 136.866C364.119 137.053 360.17 137.531 356.975 137.937C353.816 138.305 350.36 138.799 349.313 139.072C348.265 139.308 347.403 139.46 347.363 139.423C347.284 139.351 347.354 136.663 347.513 133.442C347.635 130.222 347.729 127.23 347.746 126.776C347.698 125.681 351.777 120.508 353.758 119.134C355.812 117.719 357.469 117.57 360.5 118.57Z" fill="#4274D8"/>
<path d="M409.193 33.893C408.618 34.5615 408.612 35.2803 409.016 40.9726C409.481 47.1917 410.045 49.6626 411.316 51.0431C412.071 51.8793 413.16 50.8477 414.114 48.4985C414.863 46.65 414.969 45.6243 414.955 41.9188C414.934 38.0247 414.828 37.3487 413.995 35.6083C413.457 34.5733 412.731 33.5467 412.345 33.3748C411.224 32.8195 409.873 33.0309 409.193 33.893Z" fill="#4274D8"/>
<path d="M408.156 56.6957C405.723 58.0896 400.256 66.085 400.348 68.1608C400.414 69.6328 402.46 70.6007 403.708 69.7511C403.965 69.5884 405.427 67.5948 406.916 65.3731C408.441 63.1119 409.983 61.2282 410.319 61.1376C410.693 61.0454 412.251 62.0728 414.177 63.7268C419.01 67.8609 420.077 68.0404 419.926 64.6436C419.75 60.6807 414.269 55.5921 410.383 55.7648C410.043 55.7799 409.041 56.2026 408.156 56.6957Z" fill="#4274D8"/>
<path d="M408.594 71.2676C407.745 71.7214 406.614 72.6414 406.042 73.3854C402.611 77.8489 400.196 89.8685 402.295 92.0064C402.73 92.4409 403.274 92.7571 403.575 92.7437C403.84 92.732 404.57 93.002 405.113 93.3182C406.705 94.2685 411.228 93.9541 414.196 92.6877C418.055 91.0414 418.825 88.8137 418.239 81.579C417.783 76.4184 416.794 73.7395 414.707 71.8658C412.977 70.3544 410.775 70.1497 408.594 71.2676ZM411.355 78.1032C411.367 78.3674 411.614 79.68 411.863 81.0303C412.112 82.3807 412.278 84.4154 412.219 85.6282L412.086 87.7518L409.834 88.1166C408.634 88.3212 407.541 88.4076 407.425 88.3372C407.228 88.1568 408.866 82.4871 409.913 79.68C410.623 77.7954 411.31 77.0842 411.355 78.1032Z" fill="#4274D8"/>
<path d="M439.552 63.1374C437.335 64.2948 434.342 67.5666 434.398 68.8121C434.441 69.7934 435.344 70.5474 436.476 70.4971C436.778 70.4837 438.029 69.7095 439.273 68.7845L441.58 67.0937L442.964 68.4692C443.754 69.2282 444.493 69.687 444.673 69.4899C444.853 69.2928 445.075 68.3375 445.145 67.3512C445.38 64.9961 444.591 63.405 442.977 62.7961C441.363 62.2249 441.439 62.2216 439.552 63.1374Z" fill="#4274D8"/>
<path d="M439.231 83.4569C438.839 84.0037 438.396 85.0823 438.316 85.8422C437.997 88.0119 438.984 98.3298 439.796 101.281C440.967 105.503 441.878 104.744 443.447 98.3584C445.141 91.4004 445.003 84.9021 443.151 83.207C441.851 82.0168 440.192 82.1284 439.231 83.4569Z" fill="#4274D8"/>
<path d="M377.251 85.5643C376.061 86.8651 376.064 86.9406 376.544 94.3314C376.861 99.7629 377.694 104.037 378.899 106.479C379.854 108.403 380.313 108.534 381.088 107.252C382.388 105.038 382.943 100.514 382.732 94.0564C382.464 87.1856 382.013 85.5417 380.05 84.7592C378.665 84.2156 378.442 84.3012 377.251 85.5643Z" fill="#4274D8"/>
<path d="M462.918 82.201C462.197 82.9894 462.173 83.293 462.492 87.0605C462.78 90.1486 463.154 91.7581 464.095 94.2122C465.93 98.9334 466.749 98.6323 467.775 92.8007C468.467 88.7992 468.06 83.9011 466.9 82.4778C465.782 81.1283 464.036 80.979 462.918 82.201Z" fill="#4274D8"/>
<path d="M354.895 86.3043C354.567 86.5836 354.146 87.3208 353.945 87.897C353.517 89.3153 353.864 97.1279 354.56 100.879C355.414 105.643 357.508 109.37 358.59 108.187C359.527 107.162 360.26 101.533 360.241 96.0125C360.198 89.926 359.757 87.6765 358.378 86.4142C357.511 85.6208 355.808 85.583 354.895 86.3043Z" fill="#4274D8"/>
</svg>
