<svg width="457" height="272" viewBox="0 0 457 272" fill="none" xmlns="http://www.w3.org/2000/svg">
<path d="M47.3897 17.6474C46.1665 17.2701 45.3394 16.8755 44.9084 16.4635C44.4773 16.0515 44.2659 15.6514 44.274 15.2632C44.2821 14.875 44.3254 14.5535 44.404 14.2987C44.4118 14.2732 44.4158 14.2605 44.4158 14.2605C44.5887 13.6999 45.0085 13.2433 45.6754 12.8909C46.3501 12.5129 47.1775 12.3635 48.1578 12.4426C48.9694 12.5254 49.9212 12.6515 51.0131 12.8209C52.1383 12.9726 53.3067 13.1655 54.5182 13.3996C55.763 13.6161 56.9451 13.8551 58.0644 14.1166C59.1837 14.3781 60.1638 14.6385 61.0047 14.8979C62.126 15.2437 62.9413 15.6765 63.4507 16.1964C63.9679 16.6908 64.2784 17.1773 64.382 17.6557C64.511 18.142 64.5323 18.5253 64.4459 18.8056C64.3673 19.0604 64.225 19.2956 64.019 19.5111C63.813 19.7267 63.4159 19.8833 62.8276 19.9809C62.2649 20.0864 61.413 20.0888 60.272 19.988C59.131 19.8873 57.5863 19.648 55.6377 19.2703C55.4515 19.2408 55.2525 19.2073 55.0408 19.1699C54.5245 20.2107 53.9031 21.4562 53.1767 22.9065C52.4582 24.3314 51.6906 25.8248 50.874 27.3869C50.0907 28.9313 49.3271 30.412 48.5831 31.829C47.8724 33.2284 47.254 34.419 46.728 35.4009C47.8042 35.6212 48.7451 35.8277 49.5508 36.0203C50.3819 36.2209 50.9377 36.3644 51.218 36.4508C52.1098 36.7259 52.6625 37.1056 52.8758 37.59C53.0971 38.049 53.1173 38.5715 52.9366 39.1576C52.8658 39.3869 52.3481 39.6179 51.3833 39.8506C50.4186 40.0832 49.1235 40.2559 47.4981 40.3685C45.8982 40.489 44.1013 40.479 42.1075 40.3385C40.7979 40.2415 39.5207 40.0848 38.2759 39.8683C37.0311 39.6518 36.1411 39.4611 35.606 39.296C34.5612 38.9738 33.9449 38.5744 33.757 38.0979C33.5946 37.6292 33.6037 37.1018 33.7845 36.5157C33.9417 36.0061 34.2557 35.5308 34.7265 35.09C35.2228 34.6571 35.7994 34.4163 36.4562 34.3677C37.1385 34.327 37.8806 34.3187 38.6825 34.3427C39.4843 34.3668 40.3038 34.4242 41.1409 34.5149C41.3962 33.8681 41.7693 33.0204 42.2601 31.9718C42.751 30.9232 43.286 29.7767 43.8652 28.5321C44.4777 27.2699 45.0942 25.9949 45.7146 24.7073C46.3683 23.4019 46.9818 22.1819 47.555 21.0471C48.1616 19.8947 48.6789 18.8961 49.1069 18.0514C48.3443 17.8999 47.7719 17.7653 47.3897 17.6474ZM83.1566 53.1244C80.8632 52.417 79.2701 51.1583 78.3773 49.3481C77.5178 47.5202 77.4928 45.294 78.3023 42.6693C78.7424 41.2423 79.4483 39.6322 80.42 37.8389C81.3995 36.0201 82.5251 34.1348 83.7969 32.1829C85.102 30.2134 86.4374 28.2812 87.8032 26.3862C89.1945 24.4991 90.526 22.761 91.7975 21.1718C93.069 19.5826 94.1609 18.259 95.0733 17.2009C95.8227 16.3995 96.6179 16.1285 97.4588 16.3878C97.994 16.5529 98.3761 16.8521 98.6052 17.2856C98.8598 17.7268 98.8731 18.317 98.6452 19.056C98.5352 19.4127 98.1171 20.1349 97.3909 21.2226C96.6648 22.3102 95.7375 23.6428 94.6092 25.2203C93.5141 26.7802 92.3249 28.4645 91.0415 30.2732C89.7836 32.0899 88.5472 33.9271 87.3324 35.7849C86.143 37.6506 85.091 39.433 84.1762 41.1322C83.2693 42.8059 82.6233 44.2671 82.2382 45.5158C82.081 46.0254 82.0954 46.4763 82.2814 46.8686C82.4929 47.2687 82.8407 47.5434 83.3249 47.6927C84.3696 48.0149 85.4988 48.1539 86.7125 48.1096C87.9516 48.0732 89.1966 47.927 90.4477 47.671C91.7242 47.4228 92.9487 47.1168 94.1214 46.7529C95.2941 46.389 96.353 46.0319 97.2982 45.6816C98.2768 45.3137 99.0632 45.026 99.6574 44.8186C100.444 44.5309 100.952 44.4224 101.181 44.4931C102.047 44.7604 102.351 45.3144 102.092 46.1553C102.029 46.3592 101.644 46.7011 100.938 47.1809C100.332 47.6079 99.5003 48.1328 98.4431 48.7556C97.386 49.3783 96.1857 50.0128 94.8423 50.6589C93.5322 51.2873 92.1614 51.8413 90.7298 52.3207C89.3238 52.8079 87.9649 53.1423 86.6531 53.3237C85.3414 53.5052 84.1759 53.4387 83.1566 53.1244ZM97.2161 55.9955C96.5026 55.7755 95.9402 55.3369 95.5289 54.6798C95.1431 54.0306 95.1192 53.1582 95.4572 52.0624C95.6379 51.4763 95.9698 50.6717 96.4528 49.6486C96.9612 48.6334 97.5482 47.5447 98.2136 46.3825C98.8868 45.1949 99.5817 44.0278 100.298 42.8813C101.04 41.7427 101.726 40.7404 102.356 39.8742C102.993 38.9826 103.514 38.334 103.919 37.9284C104.431 37.4445 104.846 37.182 105.166 37.1411C105.519 37.0825 105.836 37.0964 106.116 37.1829C106.626 37.3401 107.05 37.6384 107.389 38.0777C107.753 38.525 107.774 39.271 107.452 40.3158C107.326 40.7235 107.045 41.3625 106.61 42.2327C106.182 43.0774 105.668 44.0632 105.07 45.1901C104.471 46.3171 103.835 47.4744 103.162 48.662C102.514 49.8575 101.886 50.9894 101.277 52.0575C100.702 53.108 100.22 53.9919 99.8314 54.7092C99.5075 55.3069 99.0945 55.6958 98.5925 55.8759C98.1081 56.0892 97.6493 56.1291 97.2161 55.9955ZM108.85 33.8821C108.009 33.6228 107.307 33.141 106.743 32.4367C106.186 31.707 106.069 30.8198 106.391 29.775C106.659 28.9086 107.091 28.2747 107.69 27.8732C108.288 27.4716 108.915 27.2466 109.572 27.198C110.262 27.1318 110.837 27.1694 111.295 27.3109C111.754 27.4524 112.232 27.7115 112.73 28.0883C113.236 28.4395 113.614 28.9329 113.864 29.5683C114.148 30.186 114.149 30.9536 113.866 31.8709C113.677 32.4825 113.288 32.9763 112.697 33.3524C112.115 33.7029 111.462 33.9201 110.738 34.0039C110.04 34.0956 109.411 34.055 108.85 33.8821ZM125.615 67.182C123.882 66.6476 122.39 65.783 121.14 64.5882C119.882 63.4188 118.823 62.0594 117.961 60.51C117.107 58.9351 116.412 57.2976 115.876 55.5974C115.374 53.8796 115.003 52.2305 114.765 50.6501C114.027 51.9573 113.377 53.0686 112.816 53.9838C112.28 54.9068 111.834 55.6761 111.476 56.2915C111.192 56.7618 110.898 57.2155 110.596 57.6525C110.319 58.0974 109.994 58.4295 109.619 58.6488C109.244 58.8681 108.802 58.8992 108.293 58.742C107.197 58.4041 106.61 57.8184 106.532 56.9852C106.462 56.1264 106.608 55.1109 106.97 53.9387C107.292 52.8939 107.882 51.569 108.74 49.9638C109.623 48.3666 110.684 46.6008 111.922 44.6665C113.161 42.7323 114.508 40.7618 115.964 38.7551C117.453 36.7309 118.974 34.786 120.526 32.9206C122.086 31.0297 123.583 29.3426 125.017 27.8594C125.908 26.962 126.613 26.44 127.133 26.2933C127.66 26.1211 128.217 26.1254 128.803 26.3062C129.389 26.487 129.788 26.7774 130 27.1775C130.211 27.5776 130.238 28.0325 130.081 28.5421C129.979 28.8734 129.8 29.1811 129.545 29.4652C129.29 29.7493 128.999 30.1059 128.671 30.5351C127.684 31.6539 126.605 32.9815 125.433 34.5178C124.27 36.0286 123.112 37.611 121.96 39.265C120.816 40.8934 119.763 42.4524 118.801 43.9418C120.278 43.5879 121.887 43.3027 123.628 43.0862C125.377 42.8443 127.115 42.6827 128.842 42.6015C130.603 42.5027 132.222 42.4999 133.701 42.593C135.179 42.6861 136.389 42.8781 137.332 43.1689C138.071 43.3968 138.565 43.7863 138.814 44.3374C139.062 44.8885 139.108 45.4188 138.951 45.9285C138.833 46.3107 138.6 46.6576 138.253 46.9691C137.906 47.2806 137.32 47.4625 136.494 47.5149C133.796 47.5758 131.107 47.6535 128.427 47.7477C125.773 47.8499 122.803 48.0224 119.519 48.2653C119.761 49.6516 120.094 51.1075 120.516 52.6331C120.946 54.1333 121.464 55.5766 122.069 56.9631C122.682 58.3242 123.379 59.502 124.16 60.4965C124.95 61.4655 125.829 62.0994 126.797 62.398C128.224 62.8381 129.687 62.9822 131.185 62.8303C132.69 62.6529 134.13 62.3294 135.502 61.8597C136.883 61.3646 138.116 60.8518 139.2 60.3212C140.31 59.7985 141.174 59.3952 141.792 59.1113C142.159 58.9174 142.489 58.7961 142.783 58.7473C143.103 58.7063 143.466 58.7487 143.874 58.8745C144.358 59.0238 144.681 59.2906 144.841 59.675C145.035 60.0418 145.048 60.4506 144.881 60.9014C144.722 61.3267 144.372 61.6931 143.831 62.0006C143.39 62.2551 142.69 62.6674 141.733 63.2373C140.809 63.7895 139.705 64.3838 138.421 65.0202C137.169 65.6389 135.811 66.1967 134.346 66.6938C132.915 67.1731 131.454 67.4761 129.964 67.6025C128.466 67.7544 127.016 67.6143 125.615 67.182ZM142.136 70.6451C140.556 70.1578 139.451 69.217 138.821 67.8226C138.198 66.4027 138.268 64.4569 139.031 61.9851C139.518 60.4052 140.184 58.8804 141.028 57.4105C141.905 55.923 142.895 54.5679 143.998 53.3453C145.134 52.105 146.32 51.0618 147.558 50.2156C148.821 49.3773 150.099 48.8086 151.391 48.5095C152.691 48.1849 153.927 48.2034 155.1 48.5649C157.087 49.1779 158.477 50.1925 159.268 51.6085C160.059 53.0246 160.199 54.5608 159.688 56.2171C159.295 57.4912 158.581 58.5407 157.545 59.3654C156.543 60.1725 155.317 60.799 153.868 61.2451C152.419 61.6911 150.853 62.0175 149.171 62.2242C147.488 62.4309 145.787 62.5621 144.068 62.6178C143.658 63.4959 143.342 64.2917 143.122 65.0052C142.989 65.4384 143.164 65.7296 143.648 65.879C144.795 66.2326 146.073 66.4315 147.483 66.4756C148.926 66.502 150.413 66.4305 151.944 66.2609C153.483 66.0659 154.975 65.8424 156.42 65.5904C157.873 65.313 159.2 65.0384 160.4 64.7667C161.633 64.4773 162.636 64.2565 163.409 64.104C164.215 63.934 164.72 63.8804 164.924 63.9433C165.484 64.1162 165.841 64.4076 165.993 64.8175C166.146 65.2273 166.164 65.6234 166.046 66.0056C165.991 66.184 165.525 66.4728 164.648 66.8722C163.797 67.2795 162.656 67.7228 161.224 68.2022C159.826 68.6639 158.263 69.1168 156.535 69.5607C154.841 69.9869 153.095 70.3553 151.297 70.6659C149.532 70.9588 147.853 71.1106 146.259 71.1213C144.683 71.1654 143.308 71.0066 142.136 70.6451ZM145.767 59.4164C147 59.127 148.229 58.8083 149.452 58.4601C150.709 58.0943 151.812 57.597 152.759 56.9683C153.714 56.3141 154.369 55.4137 154.722 54.267C154.824 53.9357 154.802 53.6916 154.655 53.5347C154.516 53.3522 154.281 53.2099 153.95 53.1078C153.058 52.8327 152.12 52.9762 151.138 53.5382C150.181 54.1081 149.229 54.9309 148.284 56.0066C147.371 57.0647 146.532 58.2013 145.767 59.4164ZM177.868 82.377C176.772 82.0391 176.042 81.6465 175.678 81.1992C175.339 80.7598 175.26 80.2471 175.441 79.661C175.598 79.1514 175.91 78.7732 176.377 78.5265C176.851 78.2542 177.759 78.1157 179.1 78.1107C180.661 78.1176 182.164 78.0372 183.611 77.8696C185.092 77.6843 186.346 77.3734 187.373 76.9369C188.427 76.5082 189.071 75.9116 189.307 75.1472C189.464 74.6375 189.4 74.213 189.114 73.8736C188.853 73.5421 188.493 73.3056 188.035 73.1642C187.652 73.0463 187.072 72.9371 186.294 72.8366C185.549 72.7185 184.716 72.615 183.794 72.5261C182.881 72.4118 181.997 72.2926 181.142 72.1685C180.321 72.0268 179.63 71.8695 179.069 71.6966C177.744 71.2879 176.853 70.6923 176.397 69.9097C175.948 69.1017 175.87 68.2262 176.16 67.2834C176.318 66.7738 176.801 66.1555 177.612 65.4287C178.422 64.7019 179.438 63.9408 180.66 63.1457C181.882 62.3505 183.206 61.5867 184.631 60.8544C186.057 60.1221 187.468 59.4829 188.865 58.9369C190.294 58.3732 191.601 57.9809 192.786 57.7602C193.978 57.5139 194.931 57.5008 195.644 57.7209C196.46 57.9724 197.031 58.4276 197.358 59.0866C197.71 59.7534 197.753 60.52 197.486 61.3864C197.36 61.7942 197.184 62.2283 196.958 62.6889C196.74 63.124 196.42 63.4855 195.996 63.7734C195.58 64.0359 195.03 64.1453 194.346 64.1017C193.662 64.0581 192.803 63.7654 191.77 63.2236C190.707 63.5935 189.587 64.0152 188.408 64.4889C187.263 64.945 186.157 65.4549 185.09 66.0189C184.031 66.5573 183.116 67.1263 182.345 67.7257C183.382 67.7107 184.527 67.7987 185.78 67.9897C187.04 68.1552 188.282 68.4266 189.505 68.8039C190.983 69.2597 192.098 69.8966 192.851 70.7147C193.636 71.5151 194.112 72.4154 194.278 73.4154C194.469 74.4232 194.404 75.4495 194.082 76.4943C193.72 77.6665 192.977 78.7208 191.851 79.6572C190.725 80.5936 189.375 81.3495 187.802 81.9248C186.23 82.5002 184.576 82.8412 182.841 82.9479C181.105 83.0546 179.448 82.8643 177.868 82.377ZM226.603 74.1761C226.509 74.4819 226.325 74.718 226.05 74.8845C225.775 75.0509 225.466 75.1507 225.12 75.1838C224.632 75.2286 223.81 75.2261 222.653 75.1763C221.496 75.1265 220.099 75.0442 218.46 74.9294C216.846 74.8225 215.114 74.6929 213.263 74.5407C211.42 74.363 209.582 74.1726 207.747 73.9695C206.33 76.2114 204.876 78.5259 203.387 80.9129C201.905 83.2744 200.435 85.5977 198.977 87.8827C198.447 88.696 197.933 89.277 197.434 89.6256C196.928 89.9998 196.242 90.0532 195.376 89.786C194.433 89.4952 193.89 88.993 193.747 88.2792C193.622 87.5988 193.832 86.7843 194.376 85.8358C195.895 83.2626 197.304 80.8647 198.603 78.6423C199.928 76.4277 200.997 74.6365 201.81 73.2685C200.202 73.0518 198.801 72.8431 197.607 72.6423C196.421 72.416 195.59 72.2155 195.114 72.0407C194.595 71.8247 194.215 71.4706 193.977 70.9783C193.738 70.486 193.717 69.9635 193.916 69.4108C194.124 68.9168 194.487 68.5544 195.005 68.3234C195.53 68.0669 196.085 67.9869 196.669 68.0833C197.483 68.2505 198.538 68.4502 199.833 68.6824C201.129 68.9146 202.56 69.1607 204.127 69.4205C204.859 68.2231 205.653 67.0031 206.511 65.7607C207.377 64.4928 208.235 63.2925 209.087 62.1599C209.972 61.0096 210.78 60.0171 211.512 59.1824C212.244 58.3477 212.855 57.7687 213.345 57.4456C213.728 57.2007 214.15 57.052 214.613 56.9994C215.101 56.9546 215.549 56.9951 215.957 57.1209C216.492 57.2859 216.866 57.6106 217.08 58.095C217.293 58.5794 217.321 59.0765 217.164 59.5861C217.101 59.79 217.022 60.0026 216.925 60.2241C216.837 60.4201 216.723 60.6082 216.584 60.7885C215.707 61.9133 214.709 63.2939 213.59 64.9302C212.497 66.5744 211.323 68.3891 210.069 70.3743C212.067 70.6835 214.026 70.9808 215.948 71.2664C217.902 71.5343 219.67 71.7727 221.252 71.9816C222.868 72.1728 224.166 72.308 225.146 72.3871C225.71 72.3659 226.132 72.5377 226.41 72.9026C226.696 73.2419 226.76 73.6664 226.603 74.1761ZM214.146 93.0218C213.331 92.7703 212.662 92.313 212.141 91.65C211.612 91.0124 211.267 90.278 211.105 89.4466C210.95 88.5897 211.003 87.7408 211.262 86.8999C211.75 85.32 212.569 83.8844 213.721 82.5932C214.898 81.3098 216.268 80.1696 217.831 79.1728C219.395 78.1759 221.024 77.3251 222.721 76.6204C224.45 75.8981 226.116 75.3375 227.718 74.9386C229.346 74.5476 230.791 74.2956 232.054 74.1827C233.342 74.0777 234.305 74.1235 234.942 74.3199C235.681 74.5478 236.228 74.8982 236.585 75.3709C236.975 75.826 237.067 76.3848 236.863 77.0474C236.8 77.2512 236.698 77.4012 236.557 77.4971C236.865 77.6757 237.073 77.9494 237.183 78.318C237.292 78.6867 237.253 79.1768 237.064 79.7884C236.986 80.0432 236.718 80.6861 236.26 81.7171C235.803 82.748 235.262 84.0044 234.637 85.4862C234.038 86.9758 233.483 88.5488 232.972 90.2051C232.894 90.46 232.861 90.7011 232.875 90.9285C232.896 91.1305 233.034 91.2708 233.289 91.3494C234.309 91.6637 235.403 91.7782 236.574 91.6927C237.778 91.5896 238.971 91.3855 240.153 91.0804C241.369 90.7577 242.479 90.4163 243.483 90.0563C244.521 89.6786 245.382 89.3723 246.069 89.1375C246.788 88.8851 247.237 88.7863 247.416 88.8414C248.282 89.1086 248.582 89.6754 248.315 90.5418C248.244 90.7711 247.814 91.1688 247.026 91.7349C246.271 92.2834 245.276 92.8836 244.043 93.5357C242.817 94.1622 241.476 94.7534 240.021 95.3093C238.599 95.8475 237.174 96.2171 235.744 96.4181C234.341 96.6269 233.065 96.5545 231.919 96.2009C230.517 95.7686 229.549 95.1072 229.014 94.2168C228.505 93.3342 228.271 92.2851 228.311 91.0696C228.384 89.8365 228.628 88.5024 229.043 87.0676C227.169 88.527 225.308 89.7668 223.458 90.787C221.642 91.7896 219.929 92.5031 218.319 92.9275C216.709 93.3519 215.318 93.3833 214.146 93.0218ZM233.583 78.0451C230.717 78.4726 228.05 79.157 225.583 80.0984C223.124 81.0143 221.049 82.1324 219.358 83.4527C217.692 84.7809 216.62 86.2222 216.141 87.7766C216.007 88.2098 216.144 88.4893 216.552 88.615C217.036 88.7643 217.759 88.6805 218.722 88.3635C219.711 88.0544 220.818 87.5866 222.043 86.96C223.277 86.308 224.542 85.554 225.839 84.6981C227.143 83.8167 228.391 82.8901 229.584 81.9185C230.777 80.9468 231.788 79.9751 232.618 79.0032C232.922 78.6505 233.244 78.3311 233.583 78.0451ZM241.34 101.66C240.703 101.463 240.225 101.065 239.908 100.465C239.617 99.8727 239.604 99.1434 239.871 98.277C239.989 97.8947 240.233 97.2861 240.602 96.4512C241.005 95.5986 241.472 94.6265 242.004 93.5348C242.561 92.4509 243.122 91.3122 243.685 90.1186C244.274 88.9329 244.805 87.799 245.279 86.7171C245.777 85.643 246.174 84.7189 246.469 83.9447C246.818 82.992 247.285 82.3826 247.87 82.1164C248.462 81.8246 249.077 81.777 249.714 81.9735C250.223 82.1307 250.643 82.3996 250.972 82.7801C251.334 83.1431 251.449 83.7225 251.315 84.5184C251.214 85.2967 250.897 86.3709 250.363 87.7409C252.113 86.0482 253.808 84.5759 255.45 83.3242C257.118 82.0804 258.734 81.1835 260.299 80.6336C262.909 79.6805 265.068 79.4673 266.775 79.9939C267.743 80.2925 268.313 80.7056 268.486 81.2331C268.658 81.7606 268.673 82.2537 268.532 82.7124C268.437 83.0182 268.274 83.2749 268.043 83.4826C267.837 83.6981 267.474 83.8792 266.954 84.0259C266.435 84.1726 265.658 84.3377 264.625 84.5214C263.239 84.7635 261.806 85.2008 260.328 85.8331C258.874 86.4732 257.335 87.3937 255.709 88.5944C254.082 89.7952 252.334 91.3487 250.462 93.2551C248.59 95.1615 246.547 97.4893 244.331 100.239C243.835 101.034 243.327 101.505 242.807 101.652C242.313 101.807 241.824 101.809 241.34 101.66ZM290.411 93.8556C290.317 94.1614 290.132 94.3975 289.858 94.564C289.583 94.7304 289.273 94.8302 288.928 94.8633C288.44 94.9081 287.617 94.9056 286.461 94.8558C285.304 94.806 283.906 94.7237 282.267 94.6089C280.654 94.502 278.922 94.3724 277.071 94.2202C275.228 94.0425 273.389 93.8521 271.554 93.649C270.137 95.8909 268.684 98.2054 267.194 100.592C265.712 102.954 264.242 105.277 262.784 107.562C262.254 108.376 261.74 108.956 261.242 109.305C260.736 109.679 260.05 109.733 259.183 109.466C258.24 109.175 257.698 108.672 257.555 107.959C257.43 107.278 257.639 106.464 258.183 105.515C259.702 102.942 261.112 100.544 262.411 98.3218C263.736 96.1072 264.805 94.316 265.617 92.948C264.01 92.7313 262.609 92.5226 261.415 92.3218C260.229 92.0955 259.398 91.895 258.922 91.7202C258.402 91.5042 258.023 91.15 257.784 90.6578C257.545 90.1655 257.525 89.643 257.723 89.0903C257.932 88.5963 258.295 88.2339 258.812 88.0029C259.338 87.7464 259.893 87.6664 260.477 87.7628C261.291 87.93 262.345 88.1297 263.641 88.3619C264.937 88.5941 266.368 88.8402 267.934 89.1C268.666 87.9026 269.461 86.6826 270.319 85.4402C271.184 84.1723 272.043 82.972 272.894 81.8394C273.779 80.6891 274.588 79.6966 275.32 78.8619C276.051 78.0272 276.662 77.4482 277.153 77.125C277.535 76.8802 277.958 76.7315 278.421 76.6789C278.909 76.6341 279.357 76.6746 279.765 76.8003C280.3 76.9654 280.674 77.2901 280.887 77.7745C281.101 78.2589 281.129 78.7559 280.972 79.2656C280.909 79.4694 280.829 79.6821 280.733 79.9036C280.645 80.0996 280.531 80.2877 280.391 80.468C279.514 81.5928 278.516 82.9734 277.398 84.6097C276.305 86.2539 275.131 88.0686 273.877 90.0538C275.875 90.363 277.834 90.6603 279.755 90.9459C281.71 91.2138 283.478 91.4522 285.06 91.6611C286.675 91.8523 287.973 91.9875 288.953 92.0666C289.518 92.0454 289.939 92.2172 290.218 92.5821C290.504 92.9214 290.568 93.3459 290.411 93.8556ZM288.756 118.419C288.17 118.238 287.709 117.831 287.375 117.197C287.057 116.597 287.068 115.749 287.406 114.654C287.657 113.838 288.071 112.724 288.646 111.311C289.255 109.88 290.12 108.068 291.243 105.875C289.786 107.434 288.353 108.778 286.944 109.907C285.536 111.035 284.234 111.862 283.04 112.386C281.879 112.893 280.878 113.017 280.037 112.758C278.687 112.341 277.742 111.603 277.204 110.544C276.673 109.46 276.761 107.771 277.469 105.477C277.807 104.382 278.277 103.173 278.88 101.852C279.508 100.539 280.187 99.2417 280.917 97.96C281.648 96.6782 282.331 95.5494 282.966 94.5734C283.636 93.5799 284.18 92.8548 284.6 92.3983C284.945 92.0025 285.31 91.7243 285.695 91.5638C286.105 91.4112 286.564 91.4134 287.074 91.5706C287.889 91.8221 288.431 92.2822 288.699 92.951C288.967 93.6197 289.015 94.2344 288.842 94.795C288.709 95.2282 288.414 95.821 287.959 96.5736C287.529 97.334 287.021 98.1679 286.434 99.0753C285.872 99.9905 285.29 100.927 284.688 101.886C284.085 102.844 283.541 103.75 283.054 104.605C282.593 105.467 282.264 106.217 282.067 106.854C281.824 107.644 282.008 108.133 282.619 108.322C282.976 108.432 283.541 108.229 284.313 107.714C285.112 107.207 286.006 106.478 286.997 105.528C288.021 104.56 289.077 103.49 290.164 102.319C291.284 101.129 292.344 99.9075 293.345 98.6534C294.379 97.3817 295.289 96.1971 296.074 95.0997C296.564 94.4139 297.073 93.9848 297.601 93.8127C298.128 93.6405 298.672 93.6408 299.233 93.8137C300.099 94.081 300.687 94.5274 300.997 95.153C301.331 95.7865 301.361 96.5492 301.086 97.441C300.96 97.8488 300.684 98.5171 300.258 99.4462C299.832 100.375 299.317 101.458 298.712 102.695C298.133 103.939 297.492 105.249 296.789 106.622C296.087 107.996 295.392 109.345 294.705 110.668C294.043 111.999 293.417 113.215 292.826 114.316C292.243 115.392 291.769 116.25 291.404 116.891C290.834 117.832 290.34 118.349 289.92 118.443C289.501 118.537 289.113 118.529 288.756 118.419ZM294.746 129.726C294.032 129.506 293.55 129.079 293.3 128.443C293.067 127.841 293.108 127.031 293.422 126.011C293.854 124.61 294.497 122.98 295.349 121.122C296.201 119.264 297.177 117.319 298.279 115.286C299.38 113.254 300.508 111.271 301.662 109.339C303.012 107.132 304.283 105.138 305.474 103.357C306.691 101.584 307.786 100.205 308.759 99.2214C309.765 98.2202 310.587 97.8179 311.224 98.0144C311.81 98.1951 312.253 98.5689 312.553 99.1357C312.885 99.6849 312.926 100.367 312.675 101.183C312.494 101.769 312.082 102.562 311.438 103.564C310.802 104.54 310.007 105.76 309.053 107.224C310.36 106.064 311.684 104.937 313.026 103.844C314.393 102.759 315.734 101.805 317.048 100.983C318.362 100.16 319.58 99.559 320.702 99.1793C321.823 98.7997 322.792 98.7357 323.607 98.9872C324.576 99.2858 325.343 99.8294 325.909 100.618C326.501 101.414 326.864 102.363 326.998 103.465C327.133 104.567 327.011 105.73 326.634 106.953C325.935 109.221 324.847 111.299 323.371 113.188C321.904 115.052 320.184 116.601 318.213 117.835C316.267 119.076 314.186 119.899 311.968 120.304C309.758 120.683 307.545 120.53 305.328 119.846C304.691 119.65 304.124 119.405 303.628 119.113C303.15 118.854 302.718 118.581 302.332 118.294C301.523 119.831 300.716 121.41 299.909 123.031C299.119 124.685 298.29 126.424 297.42 128.249C296.682 129.556 295.791 130.049 294.746 129.726ZM322.599 103.615C322.038 103.443 321.207 103.605 320.104 104.102C319.028 104.607 317.8 105.331 316.421 106.273C315.05 107.189 313.631 108.217 312.163 109.355C310.73 110.475 309.342 111.582 308 112.675C306.684 113.776 305.55 114.738 304.598 115.561C306.598 115.954 308.462 115.971 310.192 115.612C311.929 115.227 313.505 114.596 314.919 113.721C316.333 112.846 317.563 111.844 318.609 110.715C319.688 109.569 320.577 108.406 321.276 107.226C321.974 106.046 322.469 104.985 322.76 104.042C322.831 103.813 322.777 103.67 322.599 103.615ZM327.275 128.457C326.179 128.119 325.449 127.726 325.085 127.279C324.746 126.84 324.667 126.327 324.848 125.741C325.005 125.231 325.317 124.853 325.783 124.606C326.258 124.334 327.166 124.196 328.507 124.191C330.068 124.198 331.571 124.117 333.018 123.95C334.499 123.764 335.753 123.453 336.78 123.017C337.834 122.588 338.478 121.992 338.714 121.227C338.871 120.718 338.807 120.293 338.52 119.954C338.26 119.622 337.9 119.386 337.442 119.244C337.059 119.126 336.479 119.017 335.701 118.917C334.956 118.798 334.123 118.695 333.201 118.606C332.288 118.492 331.404 118.373 330.549 118.249C329.728 118.107 329.037 117.95 328.476 117.777C327.151 117.368 326.26 116.772 325.804 115.99C325.355 115.182 325.277 114.306 325.567 113.363C325.725 112.854 326.208 112.236 327.019 111.509C327.829 110.782 328.845 110.021 330.067 109.226C331.289 108.43 332.613 107.667 334.038 106.934C335.464 106.202 336.875 105.563 338.272 105.017C339.701 104.453 341.008 104.061 342.193 103.84C343.385 103.594 344.338 103.581 345.051 103.801C345.867 104.052 346.438 104.508 346.765 105.167C347.117 105.833 347.16 106.6 346.893 107.466C346.767 107.874 346.591 108.308 346.365 108.769C346.147 109.204 345.827 109.565 345.403 109.853C344.987 110.116 344.437 110.225 343.753 110.182C343.069 110.138 342.21 109.845 341.177 109.304C340.114 109.673 338.994 110.095 337.815 110.569C336.67 111.025 335.564 111.535 334.497 112.099C333.438 112.637 332.523 113.206 331.752 113.806C332.789 113.791 333.934 113.879 335.187 114.07C336.447 114.235 337.689 114.507 338.912 114.884C340.39 115.34 341.505 115.977 342.257 116.795C343.043 117.595 343.519 118.495 343.685 119.495C343.876 120.503 343.811 121.53 343.489 122.574C343.127 123.746 342.384 124.801 341.258 125.737C340.132 126.674 338.782 127.429 337.209 128.005C335.637 128.58 333.983 128.921 332.247 129.028C330.512 129.135 328.855 128.944 327.275 128.457ZM363.694 137.722C362.089 137.227 361.066 136.381 360.626 135.185C360.219 133.971 360.251 132.6 360.723 131.071C361.171 129.618 361.921 128.315 362.975 127.161C364.036 125.981 365.295 124.932 366.75 124.014C368.206 123.095 369.761 122.305 371.416 121.644C373.079 120.957 374.719 120.388 376.337 119.938C377.988 119.471 379.532 119.124 380.97 118.897C382.415 118.645 383.647 118.495 384.667 118.447C385.686 118.399 386.4 118.437 386.808 118.563C387.241 118.697 387.562 118.921 387.772 119.237C388.015 119.535 388.042 119.99 387.853 120.602C387.657 121.239 387.225 121.734 386.558 122.086C385.891 122.439 385.133 122.679 384.284 122.808C383.082 122.995 381.705 123.254 380.152 123.585C378.632 123.897 377.069 124.308 375.461 124.817C373.853 125.325 372.327 125.929 370.883 126.628C369.465 127.335 368.236 128.156 367.194 129.09C366.16 129.999 365.462 131.04 365.101 132.212C365.022 132.467 365.01 132.686 365.065 132.871C365.12 133.055 365.313 133.198 365.644 133.3C366.077 133.434 366.714 133.407 367.553 133.219C368.4 133.006 369.35 132.685 370.403 132.257C371.464 131.802 372.545 131.285 373.645 130.703C374.753 130.096 375.798 129.469 376.778 128.823C377.792 128.159 378.659 127.519 379.379 126.904C379.917 126.428 380.487 126.074 381.089 125.841C381.716 125.616 382.298 125.586 382.833 125.751C383.266 125.884 383.583 126.122 383.785 126.463C384.02 126.787 384.043 127.254 383.855 127.866C383.792 128.07 383.63 128.55 383.368 129.307C383.115 130.038 382.798 130.931 382.417 131.985C382.069 133.022 381.718 134.114 381.365 135.261C381.058 136.254 380.88 137.148 380.831 137.942C380.814 138.719 381.125 139.205 381.762 139.402C382.526 139.637 383.399 139.613 384.379 139.33C385.368 139.021 386.374 138.564 387.398 137.958C388.455 137.336 389.464 136.642 390.425 135.878C391.386 135.114 392.23 134.37 392.956 133.645C393.715 132.902 394.279 132.295 394.648 131.823C395.671 129.682 396.646 128.058 397.574 126.949C398.51 125.814 399.379 125.078 400.181 124.739C401.009 124.408 401.729 124.337 402.34 124.526C403.028 124.738 403.55 125.08 403.907 125.553C404.289 126.034 404.291 126.886 403.914 128.109C403.718 128.746 403.155 129.619 402.227 130.728C401.299 131.837 400.153 133.018 398.79 134.272C398.232 135.356 397.74 136.502 397.311 137.709C396.883 138.917 396.606 140.087 396.48 141.22C397.317 140.948 398.238 140.451 399.242 139.728C400.254 138.98 401.298 138.129 402.373 137.177C403.456 136.2 404.539 135.222 405.622 134.244C406.712 133.241 407.759 132.336 408.761 131.529C409.789 130.73 410.729 130.127 411.58 129.719C412.464 129.295 413.238 129.184 413.9 129.389C414.588 129.601 415.173 129.921 415.655 130.349C416.171 130.759 416.514 131.367 416.684 132.173C416.887 132.961 416.898 134.011 416.717 135.322C416.569 136.616 416.188 138.257 415.575 140.245C415.253 141.289 415.041 142.34 414.938 143.397C414.843 144.428 414.94 145.337 415.227 146.123C415.523 146.884 416.104 147.398 416.97 147.665C418.372 148.098 419.691 148.253 420.928 148.133C422.173 147.986 423.302 147.72 424.314 147.335C425.326 146.949 426.17 146.61 426.847 146.316C427.557 146.005 428.064 145.896 428.37 145.991C428.88 146.148 429.215 146.419 429.375 146.803C429.569 147.17 429.599 147.57 429.466 148.003C429.387 148.258 429.033 148.637 428.403 149.14C427.807 149.626 427.021 150.137 426.047 150.674C425.105 151.193 424.04 151.66 422.852 152.075C421.697 152.472 420.514 152.735 419.302 152.863C418.09 152.992 416.936 152.887 415.841 152.549C413.853 151.936 412.319 151.073 411.24 149.958C410.194 148.826 409.615 147.308 409.505 145.405C409.428 143.483 409.841 141.057 410.745 138.127C410.8 137.948 410.851 137.783 410.898 137.63C410.945 137.477 410.992 137.324 411.04 137.171C411.236 136.534 411.392 135.982 411.508 135.516C411.65 135.057 411.696 134.681 411.647 134.387C411.027 134.949 410.263 135.662 409.355 136.526C408.472 137.398 407.502 138.327 406.445 139.312C405.387 140.298 404.283 141.255 403.131 142.183C402.005 143.12 400.898 143.95 399.809 144.675C398.721 145.399 397.691 145.933 396.72 146.275C395.775 146.626 394.959 146.695 394.271 146.483C393.761 146.325 393.279 145.898 392.825 145.199C392.396 144.509 392.111 143.668 391.97 142.676C391.838 141.658 391.944 140.589 392.29 139.467C390.77 140.505 389.247 141.417 387.721 142.202C386.203 142.962 384.769 143.496 383.418 143.805C382.084 144.147 380.908 144.161 379.889 143.847C379.048 143.588 378.307 143.094 377.666 142.366C377.051 141.646 376.656 140.576 376.48 139.154C376.305 137.732 376.494 135.851 377.049 133.511C375.387 134.645 373.73 135.585 372.077 136.331C370.449 137.085 368.913 137.587 367.467 137.839C366.048 138.099 364.79 138.06 363.694 137.722ZM443.958 139.915C446.389 137.009 448.686 133.95 450.849 130.738C451.273 130.087 451.735 129.63 452.235 129.366C452.76 129.109 453.38 129.091 454.094 129.311C454.68 129.492 455.071 129.808 455.266 130.259C455.47 130.684 455.481 131.19 455.301 131.776C455.151 132.26 454.68 133.064 453.887 134.187C453.102 135.284 452.126 136.685 450.958 138.39C449.791 140.095 448.533 142.093 447.184 144.384C445.836 146.675 444.502 149.236 443.183 152.066C441.863 154.896 440.685 157.993 439.647 161.357C439.364 162.274 438.954 162.971 438.417 163.447C437.897 163.956 437.216 164.081 436.375 163.822C435.458 163.539 434.881 163.012 434.644 162.242C434.433 161.479 434.481 160.6 434.787 159.607C435.392 157.645 435.959 156.033 436.487 154.773C437.049 153.495 437.552 152.408 437.995 151.513C436.086 153.268 434.192 154.707 432.311 155.829C430.463 156.934 428.776 157.697 427.251 158.119C425.717 158.567 424.492 158.65 423.575 158.367C422.071 157.903 420.978 157.106 420.294 155.974C419.611 154.842 419.532 153.423 420.059 151.715C420.467 150.39 421.206 149.125 422.276 147.92C423.353 146.69 424.626 145.548 426.095 144.494C427.564 143.44 429.108 142.507 430.726 141.694C432.377 140.864 433.982 140.187 435.539 139.662C437.104 139.112 438.516 138.739 439.777 138.542C441.038 138.344 442.012 138.352 442.7 138.564C443.465 138.8 443.884 139.25 443.958 139.915ZM442.442 141.708C442.258 141.763 442.061 141.813 441.851 141.86C441.675 141.89 441.494 141.932 441.31 141.986C440.153 142.299 438.893 142.72 437.53 143.248C436.175 143.751 434.801 144.36 433.409 145.075C432.024 145.764 430.713 146.532 429.475 147.378C428.271 148.207 427.232 149.086 426.359 150.017C425.52 150.93 424.946 151.883 424.64 152.877C424.585 153.056 424.622 153.206 424.751 153.33C424.881 153.454 425.009 153.535 425.136 153.574C426.028 153.85 427.106 153.749 428.369 153.274C429.657 152.806 431.052 152.036 432.555 150.965C434.091 149.876 435.689 148.541 437.348 146.96C439.034 145.387 440.732 143.636 442.442 141.708ZM44.3534 99.8852C43.1812 99.5237 42.4425 98.9331 42.1372 98.1134C41.8319 97.2936 41.8757 96.2467 42.2687 94.9726C42.6302 93.8004 43.3183 92.3383 44.3331 90.5862C45.3812 88.8165 46.6363 86.8734 48.0984 84.757C49.5937 82.6229 51.1979 80.4527 52.911 78.2462C54.6319 76.0142 56.3753 73.845 58.1412 71.7386C59.915 69.6067 61.6004 67.6708 63.1975 65.9308C63.9312 65.1804 64.604 64.7182 65.2158 64.5441C65.8276 64.37 66.4393 64.3773 67.0509 64.5659C67.637 64.7466 68.0828 65.0655 68.3884 65.5226C68.7018 65.9541 68.7524 66.5139 68.5402 67.2019C68.493 67.3548 68.1084 67.878 67.3863 68.7715C66.6721 69.6396 65.7361 70.7741 64.5785 72.1752C63.4287 73.5507 62.1523 75.1105 60.7493 76.8545C59.3542 78.573 57.9316 80.3807 56.4815 82.2775C55.0392 84.1489 53.6812 86.0184 52.4076 87.886C51.1339 89.7536 50.0348 91.5076 49.1103 93.1479C50.3716 92.2254 51.7358 91.195 53.2031 90.0569C54.7037 88.9011 56.2131 87.7621 57.7314 86.6397C59.2829 85.4996 60.7697 84.4792 62.1917 83.5783C63.6392 82.6852 64.9356 82.0106 66.0809 81.5546C67.2262 81.0985 68.1428 80.9766 68.8308 81.1888C70.105 81.5818 71.0142 82.2529 71.5586 83.2022C72.1364 84.1338 72.162 85.4533 71.6354 87.1606C71.3918 87.9506 70.9441 88.859 70.2926 89.8859C69.6488 90.8873 68.9217 91.9328 68.1113 93.0223C67.3342 94.0943 66.6199 95.1437 65.9683 96.1706C65.3167 97.1975 64.8612 98.1314 64.6018 98.9723C64.4604 99.431 64.6062 99.7271 65.0394 99.8607C66.2881 100.246 67.632 100.367 69.0711 100.225C70.5358 100.091 71.976 99.8095 73.3918 99.381C74.841 98.935 76.1715 98.4663 77.3835 97.975C78.6288 97.4661 79.6397 97.0384 80.4164 96.6919C80.9753 96.4178 81.4528 96.272 81.8488 96.2546C82.2528 96.2118 82.6076 96.2375 82.9134 96.3318C83.9582 96.654 84.3194 97.3375 83.9972 98.3823C83.9343 98.5862 83.8175 98.8292 83.6468 99.1114C83.4839 99.3681 83.1317 99.6502 82.5904 99.9577C82.0491 100.265 81.2489 100.688 80.1898 101.227C79.1308 101.765 77.9158 102.311 76.545 102.865C75.1997 103.427 73.7642 103.919 72.2386 104.342C70.7464 104.746 69.2591 104.999 67.7768 105.1C66.2946 105.201 64.9291 105.059 63.6805 104.674C61.7948 104.092 60.5074 103.109 59.8182 101.725C59.1211 100.366 59.0516 98.7814 59.6096 96.9722C59.9947 95.7235 60.7329 94.235 61.8241 92.5065C62.9232 90.7525 64.0977 88.9799 65.3478 87.1888C64.1887 87.7801 62.9403 88.5253 61.6026 89.4243C60.2728 90.2978 58.9066 91.2439 57.5041 92.2624C56.1095 93.2555 54.7315 94.2398 53.3703 95.2153C52.0423 96.1731 50.784 97.0408 49.5954 97.8184C48.4146 98.5704 47.3732 99.1422 46.4711 99.5337C45.5689 99.9253 44.8631 100.042 44.3534 99.8852ZM77.4695 108.425C76.6541 108.173 75.9858 107.716 75.4647 107.053C74.9358 106.415 74.5903 105.681 74.4281 104.849C74.2738 103.992 74.3263 103.144 74.5856 102.303C75.0729 100.723 75.8924 99.2872 77.0441 97.9959C78.2213 96.7125 79.5915 95.5724 81.1548 94.5755C82.718 93.5786 84.3478 92.7278 86.0442 92.0231C87.7739 91.3008 89.4398 90.7402 91.0418 90.3413C92.6693 89.9503 94.1145 89.6984 95.3771 89.5855C96.6653 89.4805 97.6279 89.5262 98.265 89.7227C99.004 89.9506 99.5517 90.3009 99.9082 90.7737C100.298 91.2288 100.391 91.7876 100.186 92.4501C100.124 92.654 100.022 92.8039 99.8803 92.8999C100.188 93.0785 100.397 93.3521 100.506 93.7208C100.616 94.0895 100.576 94.5796 100.388 95.1911C100.309 95.446 100.041 96.0889 99.5834 97.1198C99.1259 98.1508 98.585 99.4071 97.9605 100.889C97.3616 102.379 96.8067 103.952 96.2958 105.608C96.2172 105.863 96.1847 106.104 96.1983 106.331C96.2197 106.533 96.3578 106.674 96.6127 106.752C97.6319 107.066 98.7269 107.181 99.8974 107.095C101.101 106.992 102.294 106.788 103.477 106.483C104.693 106.16 105.802 105.819 106.807 105.459C107.844 105.081 108.706 104.775 109.392 104.54C110.112 104.288 110.561 104.189 110.739 104.244C111.606 104.511 111.905 105.078 111.638 105.945C111.567 106.174 111.138 106.572 110.349 107.138C109.594 107.686 108.6 108.286 107.366 108.938C106.14 109.565 104.8 110.156 103.345 110.712C101.923 111.25 100.497 111.62 99.0679 111.821C97.6639 112.03 96.3886 111.957 95.2419 111.604C93.8404 111.171 92.8723 110.51 92.3377 109.62C91.8285 108.737 91.594 107.688 91.634 106.472C91.7073 105.239 91.9513 103.905 92.366 102.47C90.4926 103.93 88.6312 105.17 86.7817 106.19C84.9656 107.192 83.2526 107.906 81.6426 108.33C80.0327 108.755 78.6417 108.786 77.4695 108.425ZM96.9068 93.4478C94.0401 93.8753 91.3733 94.5597 88.9063 95.5011C86.4471 96.4171 84.3721 97.5352 82.6812 98.8555C81.0158 100.184 79.9434 101.625 79.4639 103.179C79.3303 103.613 79.4674 103.892 79.8751 104.018C80.3593 104.167 81.0828 104.083 82.0456 103.766C83.034 103.457 84.141 102.989 85.3668 102.363C86.6004 101.711 87.8655 100.957 89.162 100.101C90.4664 99.2194 91.7149 98.2929 92.9076 97.3212C94.1002 96.3496 95.1116 95.3778 95.9415 94.4059C96.2456 94.0532 96.5674 93.7339 96.9068 93.4478ZM109.633 117.926C108.206 117.486 107.072 116.773 106.231 115.788C105.383 114.829 104.836 113.753 104.59 112.561C104.351 111.343 104.401 110.187 104.739 109.091C105.305 107.256 106.108 105.648 107.148 104.267C108.196 102.86 109.375 101.661 110.685 100.669C112.003 99.6527 113.351 98.8125 114.728 98.1488C116.13 97.4929 117.443 96.9909 118.666 96.6427C119.923 96.277 121.011 96.0542 121.928 95.9744C122.854 95.8691 123.507 95.8755 123.89 95.9933C124.578 96.2055 125.015 96.5078 125.201 96.9C125.42 97.2746 125.428 97.7932 125.223 98.4557C125.105 98.838 124.684 99.2102 123.958 99.5724C123.258 99.9425 122.356 100.334 121.252 100.747C120.173 101.168 119.016 101.662 117.78 102.23C116.545 102.798 115.316 103.479 114.094 104.274C112.898 105.077 111.823 106.029 110.869 107.131C109.941 108.24 109.245 109.546 108.781 111.049C108.608 111.61 108.577 112.075 108.686 112.443C108.821 112.82 109.144 113.087 109.653 113.244C111.106 113.692 112.739 113.916 114.552 113.918C116.399 113.901 118.273 113.753 120.173 113.474C122.106 113.178 123.945 112.824 125.69 112.413C127.461 112.011 128.988 111.63 130.27 111.272C130.798 111.1 131.242 110.972 131.603 110.888C131.963 110.804 132.207 110.782 132.335 110.821C133.099 111.057 133.36 111.57 133.116 112.359C132.99 112.767 132.516 113.221 131.692 113.72C130.703 114.392 129.452 115.011 127.938 115.576C126.45 116.15 124.833 116.642 123.088 117.052C121.368 117.471 119.637 117.788 117.896 118.005C116.181 118.229 114.597 118.341 113.147 118.34C111.696 118.339 110.524 118.201 109.633 117.926ZM144.84 130.668C143.107 130.134 141.616 129.269 140.366 128.074C139.108 126.905 138.048 125.545 137.186 123.996C136.333 122.421 135.638 120.783 135.102 119.083C134.599 117.366 134.229 115.716 133.99 114.136C133.252 115.443 132.603 116.554 132.041 117.47C131.505 118.393 131.059 119.162 130.702 119.777C130.417 120.248 130.124 120.701 129.821 121.138C129.545 121.583 129.219 121.915 128.844 122.135C128.47 122.354 128.028 122.385 127.518 122.228C126.422 121.89 125.836 121.304 125.758 120.471C125.688 119.612 125.833 118.597 126.195 117.425C126.517 116.38 127.107 115.055 127.965 113.45C128.848 111.852 129.909 110.087 131.148 108.152C132.386 106.218 133.733 104.248 135.189 102.241C136.679 100.217 138.199 98.2719 139.752 96.4065C141.311 94.5156 142.808 92.8285 144.243 91.3453C145.133 90.448 145.839 89.9259 146.358 89.7792C146.886 89.6071 147.442 89.6114 148.029 89.7921C148.615 89.9729 149.013 90.2633 149.225 90.6634C149.436 91.0635 149.464 91.5184 149.306 92.028C149.204 92.3593 149.026 92.667 148.771 92.9511C148.515 93.2352 148.224 93.5918 147.896 94.021C146.909 95.1398 145.83 96.4674 144.659 98.0037C143.495 99.5145 142.337 101.097 141.185 102.751C140.041 104.379 138.988 105.938 138.027 107.428C139.503 107.074 141.112 106.789 142.853 106.572C144.602 106.33 146.34 106.169 148.068 106.087C149.828 105.989 151.448 105.986 152.926 106.079C154.404 106.172 155.615 106.364 156.558 106.655C157.297 106.883 157.79 107.272 158.039 107.823C158.288 108.374 158.333 108.905 158.176 109.414C158.058 109.797 157.826 110.143 157.479 110.455C157.131 110.766 156.545 110.948 155.72 111.001C153.022 111.062 150.333 111.139 147.653 111.234C144.998 111.336 142.029 111.508 138.744 111.751C138.987 113.138 139.319 114.593 139.741 116.119C140.172 117.619 140.689 119.063 141.294 120.449C141.907 121.81 142.604 122.988 143.386 123.982C144.175 124.951 145.054 125.585 146.022 125.884C147.449 126.324 148.912 126.468 150.41 126.316C151.916 126.139 153.355 125.815 154.728 125.346C156.108 124.851 157.341 124.338 158.425 123.807C159.535 123.284 160.399 122.881 161.017 122.597C161.384 122.403 161.714 122.282 162.008 122.233C162.328 122.192 162.692 122.235 163.099 122.36C163.584 122.51 163.906 122.777 164.066 123.161C164.26 123.528 164.274 123.936 164.107 124.387C163.948 124.813 163.598 125.179 163.056 125.486C162.615 125.741 161.916 126.153 160.959 126.723C160.035 127.275 158.931 127.87 157.646 128.506C156.395 129.125 155.037 129.683 153.572 130.18C152.14 130.659 150.679 130.962 149.189 131.088C147.691 131.24 146.242 131.1 144.84 130.668ZM158.634 133.457C157.819 133.206 157.151 132.749 156.63 132.086C156.101 131.448 155.755 130.714 155.593 129.882C155.439 129.025 155.491 128.176 155.751 127.335C156.238 125.756 157.057 124.32 158.209 123.029C159.386 121.745 160.756 120.605 162.32 119.608C163.883 118.611 165.513 117.761 167.209 117.056C168.939 116.334 170.605 115.773 172.207 115.374C173.834 114.983 175.279 114.731 176.542 114.618C177.83 114.513 178.793 114.559 179.43 114.755C180.169 114.983 180.717 115.334 181.073 115.806C181.463 116.262 181.556 116.82 181.351 117.483C181.288 117.687 181.186 117.837 181.045 117.933C181.353 118.111 181.562 118.385 181.671 118.754C181.781 119.122 181.741 119.612 181.552 120.224C181.474 120.479 181.206 121.122 180.748 122.153C180.291 123.184 179.75 124.44 179.125 125.922C178.526 127.411 177.972 128.984 177.461 130.641C177.382 130.896 177.35 131.137 177.363 131.364C177.385 131.566 177.523 131.706 177.778 131.785C178.797 132.099 179.892 132.214 181.062 132.128C182.266 132.025 183.459 131.821 184.642 131.516C185.857 131.193 186.967 130.852 187.971 130.492C189.009 130.114 189.871 129.808 190.557 129.573C191.277 129.321 191.726 129.222 191.904 129.277C192.771 129.544 193.07 130.111 192.803 130.977C192.732 131.207 192.303 131.604 191.514 132.17C190.759 132.719 189.764 133.319 188.531 133.971C187.305 134.598 185.965 135.189 184.509 135.745C183.088 136.283 181.662 136.653 180.233 136.854C178.829 137.062 177.554 136.99 176.407 136.636C175.005 136.204 174.037 135.543 173.503 134.652C172.993 133.77 172.759 132.721 172.799 131.505C172.872 130.272 173.116 128.938 173.531 127.503C171.658 128.963 169.796 130.202 167.947 131.223C166.13 132.225 164.417 132.939 162.808 133.363C161.198 133.787 159.807 133.819 158.634 133.457ZM178.072 118.481C175.205 118.908 172.538 119.593 170.071 120.534C167.612 121.45 165.537 122.568 163.846 123.888C162.181 125.216 161.108 126.658 160.629 128.212C160.495 128.645 160.632 128.925 161.04 129.051C161.524 129.2 162.248 129.116 163.211 128.799C164.199 128.49 165.306 128.022 166.532 127.396C167.765 126.744 169.03 125.99 170.327 125.134C171.631 124.252 172.88 123.326 174.072 122.354C175.265 121.382 176.276 120.411 177.106 119.439C177.411 119.086 177.732 118.767 178.072 118.481ZM217.923 129.055C217.828 129.361 217.644 129.597 217.369 129.764C217.095 129.93 216.785 130.03 216.44 130.063C215.952 130.108 215.129 130.105 213.972 130.055C212.816 130.006 211.418 129.923 209.779 129.809C208.165 129.702 206.433 129.572 204.583 129.42C202.74 129.242 200.901 129.052 199.066 128.849C197.649 131.091 196.196 133.405 194.706 135.792C193.224 138.154 191.754 140.477 190.296 142.762C189.766 143.575 189.252 144.156 188.754 144.505C188.248 144.879 187.561 144.932 186.695 144.665C185.752 144.374 185.209 143.872 185.067 143.158C184.942 142.478 185.151 141.664 185.695 140.715C187.214 138.142 188.623 135.744 189.923 133.521C191.248 131.307 192.316 129.516 193.129 128.148C191.521 127.931 190.121 127.722 188.927 127.521C187.741 127.295 186.91 127.095 186.433 126.92C185.914 126.704 185.535 126.35 185.296 125.857C185.057 125.365 185.037 124.843 185.235 124.29C185.443 123.796 185.806 123.434 186.324 123.203C186.85 122.946 187.405 122.866 187.989 122.963C188.802 123.13 189.857 123.329 191.153 123.562C192.448 123.794 193.88 124.04 195.446 124.3C196.178 123.102 196.973 121.882 197.83 120.64C198.696 119.372 199.554 118.172 200.406 117.039C201.291 115.889 202.099 114.896 202.831 114.062C203.563 113.227 204.174 112.648 204.665 112.325C205.047 112.08 205.47 111.931 205.932 111.879C206.421 111.834 206.869 111.874 207.276 112C207.811 112.165 208.186 112.49 208.399 112.974C208.612 113.459 208.641 113.956 208.483 114.465C208.42 114.669 208.341 114.882 208.245 115.103C208.156 115.299 208.043 115.487 207.903 115.668C207.026 116.792 206.028 118.173 204.91 119.809C203.816 121.454 202.643 123.268 201.389 125.254C203.386 125.563 205.346 125.86 207.267 126.146C209.221 126.413 210.99 126.652 212.572 126.861C214.187 127.052 215.485 127.187 216.465 127.266C217.03 127.245 217.451 127.417 217.729 127.782C218.015 128.121 218.08 128.546 217.923 129.055ZM206.31 149.836C205.138 149.474 204.399 148.884 204.094 148.064C203.788 147.244 203.832 146.197 204.225 144.923C204.587 143.751 205.275 142.289 206.29 140.537C207.338 138.767 208.593 136.824 210.055 134.708C211.55 132.573 213.154 130.403 214.867 128.197C216.588 125.965 218.332 123.796 220.098 121.689C221.871 119.557 223.557 117.621 225.154 115.881C225.888 115.131 226.56 114.669 227.172 114.495C227.784 114.32 228.396 114.328 229.007 114.516C229.593 114.697 230.039 115.016 230.345 115.473C230.658 115.905 230.709 116.464 230.497 117.152C230.449 117.305 230.065 117.828 229.343 118.722C228.629 119.59 227.693 120.725 226.535 122.126C225.385 123.501 224.109 125.061 222.706 126.805C221.311 128.523 219.888 130.331 218.438 132.228C216.996 134.099 215.638 135.969 214.364 137.837C213.09 139.704 211.991 141.458 211.067 143.098C212.328 142.176 213.692 141.146 215.16 140.007C216.66 138.852 218.17 137.713 219.688 136.59C221.239 135.45 222.726 134.43 224.148 133.529C225.596 132.636 226.892 131.961 228.037 131.505C229.183 131.049 230.099 130.927 230.787 131.139C232.061 131.532 232.971 132.203 233.515 133.153C234.093 134.084 234.118 135.404 233.592 137.111C233.348 137.901 232.901 138.809 232.249 139.836C231.605 140.838 230.878 141.883 230.068 142.973C229.291 144.045 228.576 145.094 227.925 146.121C227.273 147.148 226.818 148.082 226.558 148.923C226.417 149.381 226.563 149.678 226.996 149.811C228.245 150.196 229.588 150.318 231.028 150.176C232.492 150.041 233.932 149.76 235.348 149.332C236.797 148.885 238.128 148.417 239.34 147.926C240.585 147.417 241.596 146.989 242.373 146.642C242.932 146.368 243.409 146.223 243.805 146.205C244.209 146.162 244.564 146.188 244.87 146.282C245.915 146.605 246.276 147.288 245.954 148.333C245.891 148.537 245.774 148.78 245.603 149.062C245.44 149.319 245.088 149.601 244.547 149.908C244.006 150.216 243.205 150.639 242.146 151.177C241.087 151.715 239.872 152.262 238.502 152.816C237.156 153.377 235.721 153.87 234.195 154.292C232.703 154.697 231.216 154.95 229.733 155.051C228.251 155.152 226.886 155.01 225.637 154.625C223.751 154.043 222.464 153.06 221.775 151.675C221.078 150.316 221.008 148.732 221.566 146.923C221.951 145.674 222.689 144.185 223.781 142.457C224.88 140.703 226.054 138.93 227.304 137.139C226.145 137.731 224.897 138.476 223.559 139.375C222.229 140.248 220.863 141.194 219.461 142.213C218.066 143.206 216.688 144.19 215.327 145.166C213.999 146.124 212.741 146.991 211.552 147.769C210.371 148.521 209.33 149.093 208.428 149.484C207.525 149.876 206.82 149.993 206.31 149.836ZM261.319 165.671C260.325 165.365 259.681 164.873 259.387 164.197C259.086 163.546 259.175 162.443 259.654 160.888C260.063 159.563 260.81 157.91 261.896 155.929C262.981 153.947 264.169 151.816 265.458 149.535C261.655 151.822 257.773 152.829 253.81 152.556C252.6 153.857 251.301 154.991 249.915 155.959C248.528 156.926 247.126 157.625 245.711 158.053C244.328 158.464 243.013 158.477 241.764 158.091C240.21 157.612 239.029 156.69 238.222 155.325C237.441 153.967 237.376 152.231 238.029 150.116C238.469 148.689 239.059 147.546 239.798 146.686C240.546 145.8 241.279 145.189 241.996 144.852C241.836 143.742 241.949 142.563 242.334 141.314C242.853 139.632 243.771 138.283 245.089 137.267C246.407 136.25 247.932 135.604 249.664 135.329C251.42 135.061 253.191 135.203 254.974 135.753C255.968 136.059 256.833 136.605 257.567 137.39C258.335 138.157 258.842 139.136 259.089 140.328C259.368 141.503 259.272 142.855 258.801 144.384C258.408 145.658 257.784 147 256.931 148.411C259.07 147.899 261.306 146.984 263.638 145.666C265.995 144.356 268.232 142.758 270.349 140.871C270.994 140.317 271.712 140.161 272.502 140.405C273.164 140.609 273.624 140.974 273.88 141.5C274.17 142.008 274.217 142.58 274.02 143.217C273.981 143.345 273.775 143.742 273.402 144.408C273.029 145.074 272.538 145.942 271.93 147.01C271.329 148.052 270.668 149.202 269.945 150.458C269.249 151.722 268.544 153.012 267.831 154.327C267.119 155.642 266.455 156.888 265.841 158.066C266.873 157.073 267.979 156.019 269.16 154.904C270.375 153.772 271.607 152.673 272.856 151.607C274.114 150.516 275.319 149.548 276.472 148.704C277.626 147.86 278.645 147.225 279.529 146.8C280.422 146.35 281.11 146.199 281.594 146.349C282.562 146.647 283.291 147.179 283.781 147.944C284.271 148.709 284.425 149.384 284.244 149.971C284.063 150.557 283.721 151.442 283.216 152.625C282.711 153.809 282.121 155.134 281.446 156.6C280.804 158.049 280.145 159.506 279.47 160.972C278.794 162.438 278.2 163.776 277.688 164.985C277.183 166.169 276.837 167.067 276.648 167.678C276.491 168.188 276.099 168.597 275.474 168.907C274.848 169.216 274.23 169.277 273.618 169.088C273.567 169.072 273.478 169.045 273.35 169.005C273.037 168.937 272.772 168.799 272.557 168.593C272.333 168.413 272.235 167.964 272.261 167.246C272.312 166.536 272.581 165.392 273.069 163.812C273.399 162.741 273.811 161.585 274.306 160.342C274.801 159.1 275.321 157.865 275.867 156.638C276.446 155.393 277.011 154.242 277.56 153.183C276.56 154.075 275.436 155.096 274.188 156.246C272.974 157.378 271.709 158.537 270.395 159.722C269.089 160.882 267.826 161.944 266.608 162.907C265.423 163.854 264.36 164.586 263.419 165.105C262.503 165.632 261.803 165.821 261.319 165.671ZM250.884 148.472C251.522 147.58 252.108 146.631 252.642 145.624C253.184 144.591 253.616 143.552 253.938 142.507C254.071 142.074 254.112 141.626 254.059 141.163C254.007 140.701 253.764 140.402 253.33 140.269C252.464 140.002 251.555 139.917 250.604 140.014C249.679 140.119 248.847 140.421 248.107 140.918C247.368 141.416 246.856 142.123 246.573 143.04C246.322 143.856 246.377 144.626 246.74 145.352C247.127 146.086 247.686 146.718 248.415 147.25C249.169 147.79 249.954 148.185 250.769 148.437C250.795 148.445 250.833 148.456 250.884 148.472ZM248.28 151.352C247.396 151.052 246.564 150.67 245.786 150.207C245.016 149.718 244.35 149.164 243.788 148.544C243.586 148.928 243.387 149.299 243.193 149.658C243.007 149.991 242.862 150.323 242.76 150.655C242.587 151.215 242.519 151.752 242.556 152.266C242.626 152.762 242.967 153.105 243.579 153.293C244.216 153.49 244.939 153.406 245.749 153.042C246.585 152.685 247.428 152.122 248.28 151.352ZM286.814 173.534C285.718 173.196 284.988 172.804 284.623 172.357C284.285 171.917 284.205 171.405 284.386 170.818C284.543 170.309 284.855 169.931 285.322 169.684C285.797 169.412 286.705 169.273 288.046 169.268C289.606 169.275 291.11 169.195 292.557 169.027C294.038 168.842 295.291 168.531 296.319 168.094C297.372 167.666 298.017 167.069 298.252 166.305C298.41 165.795 298.345 165.37 298.059 165.031C297.799 164.7 297.439 164.463 296.98 164.322C296.598 164.204 296.018 164.095 295.24 163.994C294.495 163.876 293.661 163.772 292.74 163.684C291.827 163.569 290.942 163.45 290.088 163.326C289.266 163.184 288.575 163.027 288.015 162.854C286.69 162.445 285.799 161.85 285.343 161.067C284.894 160.259 284.815 159.384 285.106 158.441C285.263 157.931 285.747 157.313 286.557 156.586C287.367 155.859 288.384 155.098 289.605 154.303C290.827 153.508 292.151 152.744 293.577 152.012C295.003 151.28 296.414 150.64 297.81 150.094C299.24 149.531 300.547 149.138 301.731 148.918C302.923 148.671 303.876 148.658 304.59 148.878C305.405 149.13 305.976 149.585 306.303 150.244C306.656 150.911 306.699 151.677 306.431 152.544C306.306 152.952 306.13 153.386 305.904 153.846C305.686 154.281 305.365 154.643 304.942 154.931C304.526 155.193 303.976 155.303 303.292 155.259C302.607 155.216 301.749 154.923 300.716 154.381C299.653 154.751 298.532 155.173 297.354 155.646C296.208 156.102 295.102 156.612 294.035 157.176C292.976 157.715 292.061 158.284 291.29 158.883C292.328 158.868 293.473 158.956 294.725 159.147C295.986 159.313 297.228 159.584 298.451 159.961C299.929 160.417 301.044 161.054 301.796 161.872C302.582 162.673 303.058 163.573 303.224 164.573C303.415 165.581 303.35 166.607 303.028 167.652C302.666 168.824 301.922 169.878 300.796 170.815C299.67 171.751 298.321 172.507 296.748 173.082C295.175 173.658 293.521 173.999 291.786 174.105C290.051 174.212 288.393 174.022 286.814 173.534ZM324.826 184.421C323.297 183.949 322.334 183.318 321.936 182.525C321.557 181.766 321.528 180.864 321.85 179.82C323.217 175.386 325.472 171.016 328.614 166.711C331.789 162.388 335.643 158.26 340.177 154.329C340.946 153.645 341.519 153.278 341.898 153.227C342.276 153.176 342.669 153.214 343.077 153.339C343.663 153.52 344.11 153.881 344.417 154.423C344.75 154.972 344.815 155.578 344.61 156.24C344.547 156.444 344.158 156.938 343.442 157.722C342.726 158.505 341.791 159.501 340.637 160.708C339.509 161.922 338.258 163.309 336.885 164.866C335.519 166.399 334.135 168.037 332.732 169.781C331.354 171.533 330.075 173.329 328.893 175.169C330.098 174.34 331.425 173.522 332.874 172.713C334.357 171.887 335.846 171.174 337.343 170.575C338.847 169.951 340.25 169.518 341.552 169.278C342.862 169.012 343.963 169.017 344.854 169.292C345.695 169.551 346.41 169.995 346.997 170.623C347.611 171.258 348.013 172.08 348.205 173.088C348.396 174.096 348.28 175.288 347.855 176.664C347.391 178.167 346.483 179.575 345.129 180.888C343.801 182.208 342.113 183.292 340.066 184.14C338.044 184.995 335.731 185.482 333.127 185.6C330.549 185.726 327.782 185.333 324.826 184.421ZM327.775 180.559C329.785 181.011 331.685 181.137 333.477 180.936C335.295 180.743 336.934 180.314 338.395 179.648C339.856 178.983 341.066 178.183 342.023 177.251C342.988 176.293 343.628 175.304 343.942 174.285C344.013 174.055 343.985 173.921 343.857 173.882C343.322 173.717 342.572 173.751 341.608 173.983C340.651 174.19 339.566 174.54 338.354 175.031C337.142 175.522 335.894 176.086 334.609 176.722C333.325 177.359 332.091 178.011 330.909 178.679C329.726 179.346 328.681 179.973 327.775 180.559ZM359.336 195.651C358.75 195.47 358.29 195.063 357.955 194.429C357.637 193.829 357.648 192.981 357.986 191.885C358.237 191.07 358.651 189.956 359.226 188.542C359.835 187.112 360.701 185.3 361.824 183.107C360.366 184.666 358.933 186.01 357.524 187.139C356.116 188.267 354.814 189.093 353.62 189.618C352.459 190.125 351.458 190.249 350.617 189.99C349.267 189.573 348.322 188.835 347.784 187.776C347.253 186.692 347.341 185.003 348.049 182.709C348.387 181.613 348.857 180.405 349.46 179.084C350.088 177.771 350.767 176.473 351.498 175.192C352.228 173.91 352.911 172.781 353.547 171.805C354.216 170.812 354.76 170.087 355.18 169.63C355.526 169.234 355.89 168.956 356.275 168.796C356.685 168.643 357.144 168.645 357.654 168.802C358.47 169.054 359.011 169.514 359.279 170.183C359.548 170.851 359.595 171.466 359.422 172.027C359.289 172.46 358.994 173.053 358.539 173.805C358.109 174.566 357.601 175.4 357.014 176.307C356.453 177.222 355.871 178.159 355.268 179.117C354.666 180.076 354.121 180.982 353.634 181.837C353.173 182.699 352.844 183.449 352.647 184.086C352.404 184.876 352.588 185.365 353.199 185.554C353.556 185.664 354.121 185.461 354.894 184.946C355.692 184.439 356.586 183.71 357.577 182.76C358.601 181.792 359.657 180.722 360.744 179.55C361.864 178.361 362.924 177.139 363.925 175.885C364.959 174.613 365.869 173.429 366.654 172.332C367.144 171.646 367.653 171.217 368.181 171.044C368.708 170.872 369.252 170.873 369.813 171.046C370.679 171.313 371.267 171.759 371.577 172.385C371.912 173.018 371.941 173.781 371.666 174.673C371.541 175.081 371.265 175.749 370.839 176.678C370.413 177.607 369.897 178.69 369.292 179.927C368.713 181.171 368.072 182.48 367.37 183.854C366.667 185.228 365.972 186.577 365.285 187.9C364.623 189.23 363.997 190.446 363.406 191.548C362.823 192.624 362.349 193.482 361.984 194.123C361.415 195.064 360.92 195.581 360.501 195.675C360.081 195.769 359.693 195.761 359.336 195.651ZM402.119 185.865C402.025 186.171 401.84 186.407 401.565 186.573C401.291 186.74 400.981 186.84 400.636 186.873C400.148 186.917 399.325 186.915 398.169 186.865C397.012 186.815 395.614 186.733 393.975 186.618C392.362 186.511 390.63 186.382 388.779 186.23C386.936 186.052 385.097 185.861 383.262 185.658C381.845 187.9 380.392 190.215 378.902 192.602C377.42 194.963 375.95 197.286 374.492 199.572C373.962 200.385 373.448 200.966 372.95 201.314C372.444 201.689 371.758 201.742 370.891 201.475C369.948 201.184 369.406 200.682 369.263 199.968C369.138 199.288 369.347 198.473 369.891 197.525C371.41 194.951 372.819 192.554 374.119 190.331C375.444 188.117 376.512 186.325 377.325 184.957C375.718 184.741 374.317 184.532 373.123 184.331C371.937 184.105 371.106 183.904 370.63 183.73C370.11 183.514 369.731 183.159 369.492 182.667C369.253 182.175 369.233 181.652 369.431 181.1C369.64 180.606 370.002 180.243 370.52 180.012C371.046 179.756 371.601 179.676 372.185 179.772C372.998 179.939 374.053 180.139 375.349 180.371C376.645 180.603 378.076 180.849 379.642 181.109C380.374 179.912 381.169 178.692 382.027 177.45C382.892 176.182 383.751 174.981 384.602 173.849C385.487 172.698 386.296 171.706 387.027 170.871C387.759 170.036 388.37 169.458 388.861 169.134C389.243 168.89 389.666 168.741 390.129 168.688C390.617 168.643 391.065 168.684 391.472 168.81C392.008 168.975 392.382 169.299 392.595 169.784C392.809 170.268 392.837 170.765 392.68 171.275C392.617 171.479 392.537 171.691 392.441 171.913C392.353 172.109 392.239 172.297 392.099 172.477C391.222 173.602 390.224 174.983 389.106 176.619C388.013 178.263 386.839 180.078 385.585 182.063C387.583 182.372 389.542 182.67 391.463 182.955C393.418 183.223 395.186 183.462 396.768 183.67C398.383 183.862 399.681 183.997 400.661 184.076C401.226 184.055 401.647 184.227 401.926 184.591C402.212 184.931 402.276 185.355 402.119 185.865ZM70.3719 139.848C69.1487 139.471 68.3216 139.077 67.8906 138.665C67.4595 138.253 67.2481 137.852 67.2562 137.464C67.2643 137.076 67.3076 136.755 67.3862 136.5C67.3941 136.474 67.398 136.462 67.398 136.462C67.5709 135.901 67.9907 135.444 68.6576 135.092C69.3323 134.714 70.1597 134.565 71.14 134.644C71.9516 134.727 72.9034 134.853 73.9953 135.022C75.1206 135.174 76.2889 135.367 77.5004 135.601C78.7452 135.817 79.9273 136.056 81.0466 136.318C82.1659 136.579 83.146 136.84 83.9869 137.099C85.1082 137.445 85.9235 137.878 86.4329 138.397C86.9501 138.892 87.2606 139.378 87.3642 139.857C87.4932 140.343 87.5145 140.726 87.4281 141.007C87.3495 141.262 87.2072 141.497 87.0012 141.712C86.7952 141.928 86.3981 142.084 85.8098 142.182C85.2471 142.287 84.3952 142.29 83.2542 142.189C82.1132 142.088 80.5685 141.849 78.6199 141.471C78.4337 141.442 78.2347 141.408 78.023 141.371C77.5067 142.412 76.8853 143.657 76.1589 145.108C75.4404 146.532 74.6728 148.026 73.8562 149.588C73.0729 151.132 72.3093 152.613 71.5653 154.03C70.8546 155.429 70.2362 156.62 69.7102 157.602C70.7864 157.822 71.7273 158.029 72.533 158.221C73.3641 158.422 73.9199 158.565 74.2002 158.652C75.092 158.927 75.6447 159.307 75.858 159.791C76.0793 160.25 76.0995 160.773 75.9188 161.359C75.848 161.588 75.3303 161.819 74.3655 162.052C73.4008 162.284 72.1057 162.457 70.4803 162.57C68.8804 162.69 67.0835 162.68 65.0897 162.54C63.7801 162.443 62.5029 162.286 61.2581 162.069C60.0133 161.853 59.1233 161.662 58.5882 161.497C57.5434 161.175 56.9271 160.775 56.7392 160.299C56.5768 159.83 56.5859 159.303 56.7667 158.717C56.9239 158.207 57.2379 157.732 57.7087 157.291C58.205 156.858 58.7816 156.617 59.4384 156.569C60.1207 156.528 60.8628 156.52 61.6647 156.544C62.4665 156.568 63.286 156.625 64.1231 156.716C64.3784 156.069 64.7515 155.221 65.2423 154.173C65.7332 153.124 66.2682 151.978 66.8474 150.733C67.4599 149.471 68.0764 148.196 68.6968 146.908C69.3505 145.603 69.964 144.383 70.5373 143.248C71.1438 142.096 71.6611 141.097 72.0891 140.252C71.3265 140.101 70.7541 139.966 70.3719 139.848ZM87.0479 150.978C86.5638 150.828 86.2336 150.587 86.0573 150.253C85.8811 149.92 85.8912 149.435 86.0877 148.798C86.2056 148.415 86.4421 148.056 86.7972 147.719C87.1777 147.39 87.6074 146.992 88.0861 146.526C88.5647 146.059 89.0406 145.467 89.5136 144.747C90.012 144.036 90.4302 143.133 90.7682 142.037C90.8782 141.68 90.9627 141.315 91.0218 140.943C91.1142 140.553 91.2115 140.192 91.3137 139.861C92.131 137.211 93.3806 136.145 95.0624 136.664C95.8269 136.9 96.3687 137.36 96.6878 138.044C97.0069 138.729 96.9189 139.873 96.4238 141.479C95.8737 143.263 95.1659 144.788 94.3004 146.056C93.4349 147.324 92.5344 148.344 91.5987 149.116C90.663 149.888 89.7852 150.426 88.9655 150.732C88.1458 151.037 87.5066 151.119 87.0479 150.978ZM121.127 176.892C120.55 178.221 119.522 178.658 118.044 178.202C117.28 177.966 116.739 177.548 116.422 176.948C116.13 176.356 116.118 175.627 116.385 174.76C116.841 173.282 117.392 171.722 118.038 170.079C118.718 168.419 119.426 166.754 120.165 165.084C120.928 163.422 121.656 161.833 122.347 160.316C121.021 161.358 119.632 162.422 118.181 163.51C116.729 164.597 115.289 165.646 113.861 166.656C112.433 167.667 111.083 168.562 109.81 169.342C108.57 170.103 107.47 170.685 106.509 171.086C105.556 171.462 104.825 171.571 104.315 171.414C103.092 171.037 102.172 170.265 101.555 169.098C100.946 167.906 100.858 166.609 101.29 165.207C101.44 164.723 101.691 164.089 102.044 163.305C102.406 162.495 102.808 161.643 103.252 160.747C103.695 159.851 104.098 158.999 104.459 158.189C104.821 157.38 105.076 156.733 105.225 156.249C105.225 156.249 105.233 156.223 105.249 156.172C105.314 156.053 105.308 155.981 105.231 155.958C105.129 155.926 104.743 156.184 104.072 156.73C103.409 157.251 102.581 157.945 101.589 158.811C100.596 159.677 99.5494 160.582 98.4488 161.526C97.3738 162.478 96.3606 163.366 95.4092 164.189C94.4832 165.019 93.73 165.652 93.1493 166.087C92.3215 166.78 91.6302 167.167 91.0753 167.247C90.5204 167.327 89.9244 167.269 89.2873 167.072C88.3955 166.797 87.7851 166.288 87.4562 165.545C87.1606 164.784 87.1818 163.856 87.5198 162.76C87.6613 162.301 87.9578 161.611 88.4093 160.69C88.8863 159.777 89.433 158.773 90.0494 157.68C90.6736 156.561 91.286 155.48 91.8866 154.437C92.5206 153.377 93.0613 152.483 93.5088 151.756C94.0604 150.782 94.6029 150.154 95.1364 149.872C95.7032 149.573 96.3178 149.525 96.9804 149.729C98.5348 150.209 99.0762 151.213 98.6047 152.742C98.5182 153.022 98.2876 153.453 97.9127 154.035C97.5378 154.617 97.0933 155.29 96.5792 156.052C96.065 156.814 95.5302 157.598 94.9748 158.404C94.4273 159.184 93.9465 159.928 93.5323 160.638C94.474 159.756 95.4902 158.814 96.5809 157.811C97.6717 156.807 98.7673 155.834 99.8678 154.89C100.994 153.953 102.076 153.115 103.113 152.374C104.176 151.642 105.164 151.109 106.076 150.776C106.995 150.418 107.787 150.341 108.449 150.546C109.112 150.75 109.687 151.193 110.175 151.873C110.67 152.528 111.008 153.288 111.188 154.153C111.401 155 111.382 155.831 111.13 156.647C110.894 157.411 110.509 158.297 109.976 159.305C109.442 160.312 108.866 161.362 108.25 162.456C107.634 163.55 107.102 164.641 106.654 165.731C107.819 165.03 109.074 164.217 110.42 163.293C111.773 162.343 113.164 161.362 114.592 160.352C116.02 159.341 117.411 158.361 118.764 157.411C120.143 156.469 121.41 155.618 122.565 154.858C123.746 154.105 124.758 153.539 125.601 153.157C126.453 152.75 127.057 152.601 127.413 152.711C128.458 153.033 129.187 153.565 129.6 154.306C130.047 155.03 130.062 156.067 129.645 157.418C129.386 158.259 128.984 159.335 128.44 160.646C127.922 161.965 127.317 163.383 126.626 164.9C125.968 166.4 125.277 167.917 124.553 169.451C123.861 170.968 123.218 172.375 122.623 173.67C122.029 174.966 121.53 176.04 121.127 176.892ZM147.793 188.214C146.697 187.876 145.967 187.484 145.603 187.036C145.264 186.597 145.185 186.084 145.365 185.498C145.523 184.989 145.835 184.61 146.301 184.364C146.776 184.091 147.684 183.953 149.025 183.948C150.586 183.955 152.089 183.874 153.536 183.707C155.017 183.521 156.271 183.211 157.298 182.774C158.351 182.345 158.996 181.749 159.232 180.984C159.389 180.475 159.324 180.05 159.038 179.711C158.778 179.379 158.418 179.143 157.96 179.001C157.577 178.883 156.997 178.774 156.219 178.674C155.474 178.556 154.641 178.452 153.719 178.363C152.806 178.249 151.922 178.13 151.067 178.006C150.246 177.864 149.555 177.707 148.994 177.534C147.669 177.125 146.778 176.529 146.322 175.747C145.873 174.939 145.795 174.063 146.085 173.121C146.243 172.611 146.726 171.993 147.536 171.266C148.347 170.539 149.363 169.778 150.585 168.983C151.807 168.188 153.131 167.424 154.556 166.692C155.982 165.959 157.393 165.32 158.79 164.774C160.219 164.21 161.526 163.818 162.711 163.597C163.903 163.351 164.856 163.338 165.569 163.558C166.384 163.81 166.956 164.265 167.283 164.924C167.635 165.591 167.678 166.357 167.411 167.224C167.285 167.631 167.109 168.065 166.883 168.526C166.665 168.961 166.345 169.323 165.921 169.611C165.505 169.873 164.955 169.982 164.271 169.939C163.587 169.895 162.728 169.603 161.695 169.061C160.632 169.431 159.512 169.852 158.333 170.326C157.188 170.782 156.082 171.292 155.015 171.856C153.956 172.395 153.041 172.963 152.27 173.563C153.307 173.548 154.452 173.636 155.704 173.827C156.965 173.992 158.207 174.264 159.43 174.641C160.908 175.097 162.023 175.734 162.775 176.552C163.561 177.352 164.037 178.253 164.203 179.253C164.394 180.26 164.329 181.287 164.007 182.331C163.645 183.504 162.901 184.558 161.775 185.494C160.649 186.431 159.3 187.187 157.727 187.762C156.155 188.337 154.501 188.678 152.765 188.785C151.03 188.892 149.373 188.701 147.793 188.214ZM196.528 180.013C196.434 180.319 196.249 180.555 195.975 180.722C195.7 180.888 195.39 180.988 195.045 181.021C194.557 181.066 193.735 181.063 192.578 181.013C191.421 180.964 190.023 180.881 188.384 180.767C186.771 180.66 185.039 180.53 183.188 180.378C181.345 180.2 179.507 180.01 177.672 179.807C176.255 182.049 174.801 184.363 173.312 186.75C171.83 189.112 170.36 191.435 168.902 193.72C168.372 194.533 167.858 195.114 167.359 195.463C166.853 195.837 166.167 195.89 165.301 195.623C164.358 195.332 163.815 194.83 163.672 194.116C163.547 193.436 163.757 192.622 164.3 191.673C165.82 189.1 167.229 186.702 168.528 184.479C169.853 182.265 170.922 180.474 171.734 179.106C170.127 178.889 168.726 178.68 167.532 178.479C166.346 178.253 165.515 178.053 165.039 177.878C164.52 177.662 164.14 177.308 163.902 176.815C163.663 176.323 163.642 175.801 163.841 175.248C164.049 174.754 164.412 174.392 164.93 174.161C165.455 173.904 166.01 173.824 166.594 173.921C167.408 174.088 168.462 174.287 169.758 174.52C171.054 174.752 172.485 174.998 174.051 175.258C174.784 174.06 175.578 172.84 176.436 171.598C177.301 170.33 178.16 169.13 179.012 167.997C179.897 166.847 180.705 165.854 181.437 165.02C182.169 164.185 182.78 163.606 183.27 163.283C183.653 163.038 184.075 162.889 184.538 162.837C185.026 162.792 185.474 162.832 185.882 162.958C186.417 163.123 186.791 163.448 187.005 163.932C187.218 164.417 187.246 164.914 187.089 165.423C187.026 165.627 186.947 165.84 186.85 166.061C186.762 166.257 186.648 166.445 186.509 166.626C185.632 167.75 184.634 169.131 183.515 170.767C182.422 172.412 181.248 174.226 179.994 176.212C181.992 176.521 183.951 176.818 185.872 177.104C187.827 177.371 189.595 177.61 191.177 177.819C192.793 178.01 194.091 178.145 195.071 178.224C195.635 178.203 196.057 178.375 196.335 178.74C196.621 179.079 196.685 179.504 196.528 180.013ZM184.189 196.886C183.475 196.666 182.913 196.227 182.501 195.57C182.116 194.921 182.092 194.049 182.43 192.953C182.61 192.367 182.942 191.562 183.425 190.539C183.934 189.524 184.521 188.435 185.186 187.273C185.859 186.085 186.554 184.918 187.271 183.772C188.012 182.633 188.698 181.631 189.328 180.765C189.966 179.873 190.487 179.224 190.891 178.819C191.403 178.335 191.819 178.072 192.139 178.032C192.491 177.973 192.808 177.987 193.088 178.073C193.598 178.23 194.022 178.529 194.361 178.968C194.726 179.415 194.747 180.161 194.424 181.206C194.299 181.614 194.018 182.253 193.582 183.123C193.154 183.968 192.641 184.954 192.042 186.081C191.443 187.208 190.807 188.365 190.134 189.552C189.486 190.748 188.858 191.88 188.25 192.948C187.675 193.998 187.193 194.882 186.804 195.6C186.48 196.197 186.067 196.586 185.565 196.766C185.081 196.98 184.622 197.02 184.189 196.886ZM195.823 174.773C194.982 174.513 194.279 174.031 193.715 173.327C193.159 172.597 193.042 171.71 193.364 170.665C193.631 169.799 194.064 169.165 194.662 168.764C195.26 168.362 195.888 168.137 196.545 168.088C197.235 168.022 197.809 168.06 198.268 168.201C198.727 168.343 199.205 168.602 199.703 168.979C200.208 169.33 200.586 169.823 200.837 170.459C201.121 171.076 201.121 171.844 200.838 172.761C200.65 173.373 200.26 173.867 199.67 174.243C199.087 174.593 198.434 174.811 197.711 174.894C197.013 174.986 196.383 174.945 195.823 174.773ZM199.644 204.164C197.351 203.457 195.758 202.198 194.865 200.388C194.005 198.56 193.98 196.334 194.79 193.709C195.23 192.282 195.936 190.672 196.908 188.879C197.887 187.06 199.013 185.175 200.284 183.223C201.59 181.253 202.925 179.321 204.291 177.426C205.682 175.539 207.013 173.801 208.285 172.212C209.557 170.623 210.648 169.299 211.561 168.241C212.31 167.439 213.105 167.168 213.946 167.428C214.482 167.593 214.864 167.892 215.093 168.325C215.347 168.767 215.361 169.357 215.133 170.096C215.023 170.453 214.605 171.175 213.878 172.262C213.152 173.35 212.225 174.683 211.097 176.26C210.002 177.82 208.812 179.504 207.529 181.313C206.271 183.13 205.035 184.967 203.82 186.825C202.631 188.69 201.578 190.473 200.664 192.172C199.757 193.846 199.111 195.307 198.726 196.556C198.569 197.065 198.583 197.516 198.769 197.908C198.98 198.309 199.328 198.583 199.812 198.733C200.857 199.055 201.986 199.194 203.2 199.15C204.439 199.113 205.684 198.967 206.935 198.711C208.212 198.463 209.436 198.157 210.609 197.793C211.782 197.429 212.841 197.072 213.786 196.722C214.764 196.354 215.551 196.066 216.145 195.858C216.931 195.571 217.439 195.462 217.669 195.533C218.535 195.8 218.838 196.354 218.579 197.195C218.516 197.399 218.132 197.741 217.426 198.221C216.819 198.648 215.988 199.173 214.931 199.795C213.874 200.418 212.673 201.053 211.33 201.699C210.02 202.327 208.649 202.881 207.217 203.361C205.811 203.848 204.452 204.182 203.141 204.364C201.829 204.545 200.663 204.479 199.644 204.164ZM218.263 209.907C215.97 209.199 214.377 207.941 213.484 206.13C212.624 204.303 212.599 202.076 213.409 199.452C213.849 198.025 214.555 196.415 215.526 194.621C216.506 192.803 217.632 190.917 218.903 188.965C220.208 186.996 221.544 185.064 222.91 183.169C224.301 181.281 225.632 179.543 226.904 177.954C228.175 176.365 229.267 175.041 230.18 173.983C230.929 173.182 231.724 172.911 232.565 173.17C233.1 173.335 233.483 173.634 233.712 174.068C233.966 174.509 233.98 175.099 233.752 175.838C233.642 176.195 233.224 176.917 232.497 178.005C231.771 179.093 230.844 180.425 229.716 182.003C228.621 183.563 227.431 185.247 226.148 187.056C224.89 188.872 223.654 190.709 222.439 192.567C221.249 194.433 220.197 196.215 219.283 197.915C218.376 199.588 217.73 201.049 217.345 202.298C217.188 202.808 217.202 203.259 217.388 203.651C217.599 204.051 217.947 204.326 218.431 204.475C219.476 204.797 220.605 204.936 221.819 204.892C223.058 204.856 224.303 204.709 225.554 204.453C226.831 204.205 228.055 203.899 229.228 203.535C230.401 203.171 231.459 202.814 232.405 202.464C233.383 202.096 234.17 201.808 234.764 201.601C235.55 201.313 236.058 201.205 236.287 201.276C237.154 201.543 237.457 202.097 237.198 202.938C237.135 203.142 236.751 203.483 236.045 203.963C235.438 204.39 234.607 204.915 233.55 205.538C232.492 206.161 231.292 206.795 229.949 207.441C228.639 208.07 227.268 208.624 225.836 209.103C224.43 209.59 223.071 209.925 221.76 210.106C220.448 210.288 219.282 210.221 218.263 209.907ZM250.091 218.928C248.562 218.456 247.598 217.824 247.201 217.032C246.821 216.273 246.792 215.371 247.115 214.326C248.482 209.892 250.737 205.523 253.878 201.217C257.053 196.894 260.908 192.767 265.441 188.835C266.21 188.151 266.784 187.784 267.162 187.734C267.541 187.683 267.934 187.72 268.342 187.846C268.928 188.027 269.374 188.388 269.682 188.929C270.015 189.478 270.079 190.084 269.875 190.747C269.812 190.951 269.422 191.444 268.706 192.228C267.99 193.012 267.055 194.007 265.902 195.214C264.774 196.429 263.523 197.815 262.149 199.373C260.784 200.905 259.399 202.543 257.997 204.287C256.619 206.039 255.34 207.835 254.158 209.675C255.362 208.847 256.689 208.028 258.139 207.22C259.621 206.393 261.111 205.68 262.607 205.082C264.111 204.457 265.515 204.025 266.816 203.784C268.126 203.519 269.227 203.523 270.119 203.798C270.96 204.058 271.674 204.501 272.262 205.129C272.875 205.765 273.278 206.587 273.469 207.594C273.661 208.602 273.544 209.794 273.12 211.17C272.656 212.674 271.747 214.082 270.394 215.394C269.066 216.715 267.378 217.799 265.33 218.647C263.308 219.502 260.996 219.989 258.392 220.107C255.814 220.232 253.047 219.839 250.091 218.928ZM253.04 215.065C255.049 215.518 256.95 215.643 258.742 215.443C260.56 215.25 262.199 214.82 263.66 214.155C265.121 213.489 266.33 212.69 267.288 211.757C268.253 210.799 268.893 209.811 269.207 208.791C269.278 208.562 269.249 208.428 269.122 208.388C268.587 208.223 267.837 208.257 266.872 208.49C265.915 208.697 264.831 209.046 263.619 209.538C262.407 210.029 261.159 210.593 259.874 211.229C258.589 211.865 257.356 212.517 256.173 213.185C254.99 213.853 253.946 214.48 253.04 215.065ZM271.183 225.977C270.546 225.781 270.068 225.382 269.751 224.782C269.46 224.19 269.447 223.46 269.714 222.594C269.832 222.212 270.076 221.603 270.445 220.768C270.847 219.916 271.315 218.944 271.847 217.852C272.404 216.768 272.965 215.629 273.528 214.436C274.117 213.25 274.648 212.116 275.122 211.034C275.62 209.96 276.017 209.036 276.312 208.262C276.661 207.309 277.128 206.7 277.713 206.433C278.305 206.142 278.92 206.094 279.557 206.291C280.066 206.448 280.486 206.717 280.815 207.097C281.177 207.46 281.292 208.04 281.158 208.835C281.057 209.614 280.74 210.688 280.206 212.058C281.956 210.365 283.651 208.893 285.293 207.641C286.961 206.397 288.577 205.501 290.142 204.951C292.752 203.998 294.911 203.784 296.618 204.311C297.586 204.61 298.156 205.023 298.329 205.55C298.501 206.078 298.516 206.571 298.375 207.029C298.28 207.335 298.117 207.592 297.886 207.8C297.68 208.015 297.317 208.196 296.797 208.343C296.278 208.49 295.501 208.655 294.468 208.838C293.082 209.081 291.649 209.518 290.171 210.15C288.717 210.79 287.178 211.711 285.552 212.911C283.925 214.112 282.177 215.666 280.305 217.572C278.433 219.479 276.39 221.806 274.174 224.556C273.678 225.351 273.17 225.822 272.65 225.969C272.156 226.124 271.667 226.126 271.183 225.977ZM292.761 232.172C290.952 231.614 289.696 230.529 288.993 228.917C288.298 227.279 288.285 225.377 288.953 223.211C289.165 222.523 289.47 221.85 289.869 221.192C290.293 220.541 290.739 219.953 291.208 219.428C291.126 219.151 291.089 218.819 291.097 218.431C291.138 218.025 291.238 217.567 291.395 217.058C291.906 215.401 292.666 213.976 293.677 212.78C294.695 211.56 295.858 210.593 297.167 209.88C298.475 209.167 299.814 208.715 301.185 208.524C302.555 208.333 303.852 208.426 305.075 208.803C307.165 209.447 308.656 210.675 309.549 212.485C310.467 214.303 310.47 216.69 309.559 219.646C309.103 221.124 308.41 222.557 307.48 223.944C306.549 225.332 305.473 226.604 304.251 227.762C303.062 228.902 301.789 229.863 300.432 230.645C299.1 231.434 297.763 231.97 296.419 232.254C295.102 232.545 293.882 232.518 292.761 232.172ZM296.134 219.064C296.175 219.383 296.137 219.734 296.019 220.116C295.901 220.499 295.702 220.87 295.424 221.231C295.145 221.591 294.823 222.092 294.458 222.733C294.101 223.348 293.73 224.28 293.345 225.529C293.243 225.86 293.194 226.152 293.2 226.405C293.239 226.64 293.424 226.809 293.756 226.911C294.622 227.178 295.524 227.15 296.461 226.825C297.424 226.508 298.353 225.985 299.247 225.256C300.167 224.535 301.017 223.681 301.796 222.693C302.608 221.688 303.31 220.635 303.901 219.533C304.525 218.414 304.994 217.345 305.308 216.326C305.513 215.663 305.527 215.165 305.351 214.832C305.174 214.499 304.768 214.234 304.131 214.037C303.264 213.77 302.286 213.775 301.196 214.053C300.139 214.313 299.159 214.82 298.257 215.574C297.362 216.303 296.734 217.253 296.373 218.426C296.302 218.655 296.222 218.868 296.134 219.064ZM327.366 244.519C325.633 243.984 324.141 243.12 322.891 241.925C321.633 240.756 320.574 239.396 319.712 237.847C318.858 236.272 318.163 234.634 317.627 232.934C317.125 231.216 316.754 229.567 316.516 227.987C315.778 229.294 315.128 230.405 314.567 231.321C314.031 232.244 313.585 233.013 313.227 233.628C312.943 234.099 312.649 234.552 312.347 234.989C312.07 235.434 311.745 235.766 311.37 235.986C310.995 236.205 310.553 236.236 310.044 236.079C308.948 235.741 308.361 235.155 308.283 234.322C308.213 233.463 308.359 232.448 308.721 231.276C309.043 230.231 309.633 228.906 310.491 227.301C311.374 225.703 312.435 223.938 313.673 222.003C314.912 220.069 316.259 218.099 317.715 216.092C319.204 214.068 320.725 212.123 322.277 210.257C323.837 208.366 325.334 206.679 326.768 205.196C327.659 204.299 328.364 203.777 328.884 203.63C329.411 203.458 329.968 203.462 330.554 203.643C331.14 203.824 331.539 204.114 331.751 204.514C331.962 204.914 331.989 205.369 331.832 205.879C331.73 206.21 331.551 206.518 331.296 206.802C331.041 207.086 330.75 207.443 330.422 207.872C329.435 208.991 328.356 210.318 327.184 211.855C326.021 213.365 324.863 214.948 323.711 216.602C322.567 218.23 321.514 219.789 320.552 221.279C322.029 220.925 323.638 220.64 325.379 220.423C327.128 220.181 328.866 220.02 330.593 219.938C332.354 219.84 333.973 219.837 335.452 219.93C336.93 220.023 338.14 220.215 339.083 220.506C339.822 220.734 340.316 221.123 340.565 221.674C340.813 222.225 340.859 222.756 340.702 223.265C340.584 223.648 340.351 223.994 340.004 224.306C339.657 224.617 339.071 224.799 338.245 224.852C335.547 224.913 332.858 224.99 330.178 225.085C327.524 225.187 324.554 225.359 321.27 225.602C321.512 226.988 321.845 228.444 322.267 229.97C322.697 231.47 323.215 232.913 323.82 234.3C324.433 235.661 325.13 236.839 325.911 237.833C326.701 238.802 327.58 239.436 328.548 239.735C329.975 240.175 331.438 240.319 332.936 240.167C334.441 239.99 335.881 239.666 337.253 239.197C338.634 238.701 339.867 238.189 340.951 237.658C342.061 237.135 342.925 236.732 343.543 236.448C343.91 236.254 344.24 236.133 344.534 236.084C344.854 236.043 345.217 236.086 345.625 236.211C346.109 236.361 346.432 236.627 346.592 237.012C346.786 237.379 346.799 237.787 346.632 238.238C346.473 238.664 346.123 239.03 345.582 239.337C345.141 239.592 344.441 240.004 343.484 240.574C342.56 241.126 341.456 241.721 340.172 242.357C338.92 242.976 337.562 243.534 336.097 244.031C334.666 244.51 333.205 244.813 331.715 244.939C330.217 245.091 328.767 244.951 327.366 244.519ZM343.887 247.982C342.307 247.495 341.202 246.554 340.572 245.159C339.949 243.74 340.019 241.794 340.782 239.322C341.269 237.742 341.934 236.217 342.779 234.747C343.656 233.26 344.646 231.905 345.749 230.682C346.885 229.442 348.071 228.399 349.309 227.552C350.572 226.714 351.85 226.145 353.142 225.846C354.442 225.522 355.678 225.54 356.851 225.902C358.838 226.515 360.228 227.529 361.019 228.945C361.81 230.361 361.95 231.898 361.439 233.554C361.046 234.828 360.332 235.877 359.296 236.702C358.294 237.509 357.068 238.136 355.619 238.582C354.17 239.028 352.604 239.354 350.922 239.561C349.239 239.768 347.538 239.899 345.819 239.955C345.409 240.833 345.093 241.628 344.873 242.342C344.74 242.775 344.915 243.066 345.399 243.216C346.546 243.569 347.824 243.768 349.234 243.812C350.677 243.839 352.164 243.767 353.695 243.598C355.234 243.403 356.726 243.179 358.171 242.927C359.624 242.65 360.951 242.375 362.151 242.103C363.384 241.814 364.387 241.593 365.16 241.441C365.966 241.271 366.471 241.217 366.675 241.28C367.235 241.453 367.592 241.744 367.744 242.154C367.897 242.564 367.914 242.96 367.797 243.342C367.742 243.521 367.276 243.81 366.399 244.209C365.548 244.616 364.407 245.06 362.975 245.539C361.577 246.001 360.014 246.454 358.286 246.897C356.592 247.324 354.846 247.692 353.048 248.003C351.283 248.296 349.604 248.447 348.01 248.458C346.434 248.502 345.059 248.343 343.887 247.982ZM347.518 236.753C348.751 236.464 349.98 236.145 351.203 235.797C352.46 235.431 353.563 234.934 354.51 234.305C355.465 233.651 356.12 232.75 356.473 231.604C356.575 231.273 356.553 231.028 356.406 230.871C356.267 230.689 356.032 230.547 355.701 230.445C354.809 230.17 353.871 230.313 352.889 230.875C351.932 231.445 350.98 232.268 350.035 233.343C349.122 234.402 348.283 235.538 347.518 236.753Z" fill="#028C32"/>
</svg>
