<svg width="724" height="145" viewBox="0 0 724 145" fill="none" xmlns="http://www.w3.org/2000/svg">
<path d="M13.1446 16.5527C11.8675 16.4662 10.972 16.2719 10.4579 15.9698C9.94378 15.6677 9.64614 15.3268 9.56495 14.9471C9.48377 14.5674 9.45219 14.2445 9.47021 13.9785C9.47201 13.9519 9.47292 13.9385 9.47292 13.9385C9.51257 13.3532 9.81648 12.8125 10.3846 12.3165C10.9546 11.7938 11.7257 11.4585 12.6979 11.3105C13.5069 11.205 14.4622 11.1093 15.5639 11.0236C16.6939 10.9131 17.8754 10.8328 19.1083 10.7827C20.3696 10.7077 21.5749 10.6691 22.7244 10.6668C23.8738 10.6645 24.8876 10.6931 25.7655 10.7526C26.9362 10.8319 27.8291 11.0661 28.4442 11.4553C29.0611 11.8178 29.4748 12.22 29.6854 12.6619C29.9227 13.1057 30.0314 13.4738 30.0115 13.7665C29.9935 14.0326 29.909 14.2941 29.7579 14.5512C29.6068 14.8082 29.2563 15.0517 28.7061 15.2817C28.1826 15.5135 27.354 15.7113 26.2203 15.8751C25.0867 16.0388 23.5282 16.1604 21.545 16.2398C21.3569 16.2538 21.1556 16.2669 20.9409 16.2791C20.6772 17.4105 20.3582 18.7654 19.984 20.3437C19.6116 21.8954 19.2072 23.5252 18.7707 25.2329C18.3627 26.9158 17.9592 28.5322 17.5601 30.0821C17.1895 31.6073 16.8609 32.908 16.5741 33.9844C17.6722 33.9519 18.6354 33.937 19.4637 33.9397C20.3187 33.9441 20.8926 33.9563 21.1852 33.9761C22.1164 34.0392 22.7414 34.282 23.0603 34.7045C23.3809 35.1004 23.5205 35.6044 23.479 36.2163C23.4628 36.4557 23.0119 36.7994 22.1263 37.2472C21.2406 37.695 20.0197 38.1602 18.4635 38.6428C16.934 39.1272 15.1827 39.5297 13.2099 39.8504C11.913 40.0566 10.6339 40.1971 9.37262 40.272C8.11133 40.3469 7.20133 40.3654 6.64261 40.3276C5.55178 40.2537 4.86025 40.0064 4.56802 39.5857C4.3024 39.1667 4.19032 38.6513 4.23178 38.0394C4.26783 37.5073 4.46441 36.9727 4.82154 36.4356C5.20527 35.9003 5.71121 35.5337 6.33936 35.3357C6.99412 35.1395 7.71449 34.9611 8.50048 34.8005C9.28646 34.64 10.0973 34.5078 10.9328 34.404C11.0329 33.7159 11.2015 32.8052 11.4387 31.672C11.6758 30.5388 11.9335 29.3 12.2117 27.9557C12.5182 26.5867 12.8257 25.2043 13.1341 23.8086C13.4709 22.3881 13.7881 21.0599 14.0856 19.8238C14.4116 18.563 14.686 17.4724 14.9087 16.552C14.1317 16.5795 13.5437 16.5798 13.1446 16.5527ZM56.0975 42.8764C53.703 42.7142 51.8636 41.8546 50.5792 40.2975C49.3233 38.7157 48.7881 36.5545 48.9738 33.8142C49.0747 32.3242 49.3923 30.5951 49.9266 28.6267C50.4627 26.6317 51.1257 24.5384 51.9157 22.3468C52.734 20.1304 53.5905 17.9433 54.4851 15.7855C55.4063 13.6295 56.3033 11.6322 57.1763 9.79369C58.0492 7.95516 58.8083 6.41628 59.4536 5.17707C59.9992 4.2251 60.7109 3.77886 61.5889 3.83835C62.1476 3.8762 62.5882 4.07979 62.9107 4.44909C63.2597 4.8202 63.4081 5.39154 63.3558 6.1631C63.3306 6.53558 63.0894 7.33444 62.6322 8.55967C62.175 9.7849 61.5782 11.2947 60.8419 13.089C60.134 14.8585 59.363 16.7708 58.5288 18.8258C57.7213 20.8826 56.9394 22.9544 56.1833 25.0414C55.4538 27.1302 54.8388 29.1065 54.3383 30.9703C53.8396 32.8074 53.5461 34.3779 53.4578 35.6815C53.4218 36.2137 53.5393 36.6493 53.8103 36.9884C54.1079 37.3293 54.5095 37.5168 55.015 37.5511C56.1058 37.625 57.2368 37.5012 58.4079 37.1796C59.6056 36.8598 60.7839 36.4318 61.9428 35.8956C63.1283 35.3612 64.25 34.7823 65.3078 34.1591C66.3657 33.5358 67.3145 32.9453 68.1541 32.3874C69.0221 31.8048 69.7215 31.3443 70.2523 31.0061C70.9517 30.5457 71.4211 30.3236 71.6605 30.3398C72.5651 30.4011 72.9877 30.8707 72.9282 31.7487C72.9138 31.9615 72.618 32.3825 72.0408 33.0116C71.5489 33.5663 70.8598 34.268 69.9738 35.1167C69.0877 35.9654 68.065 36.8583 66.9057 37.7954C65.7748 38.7077 64.5676 39.5614 63.2843 40.3565C62.0275 41.1534 60.7816 41.7906 59.5465 42.2682C58.3114 42.7458 57.1617 42.9485 56.0975 42.8764ZM70.4407 42.445C69.6958 42.3945 69.0477 42.0967 68.4967 41.5516C67.9722 41.0082 67.7487 40.1645 67.8262 39.0204C67.8677 38.4085 68.0061 37.5492 68.2414 36.4426C68.5034 35.3378 68.8249 34.1435 69.2058 32.8596C69.5886 31.5492 69.9971 30.2538 70.4313 28.9736C70.8921 27.6951 71.3297 26.5621 71.7441 25.5745C72.1603 24.5603 72.5185 23.8095 72.8188 23.322C73.2062 22.7335 73.5507 22.3827 73.8523 22.2695C74.1824 22.1315 74.4938 22.0724 74.7865 22.0922C75.3186 22.1283 75.8 22.3213 76.2306 22.6712C76.6879 23.0229 76.8796 23.7442 76.8057 24.835C76.7768 25.2607 76.6501 25.947 76.4256 26.894C76.2029 27.8144 75.9294 28.8917 75.6053 30.1259C75.2811 31.3602 74.9276 32.6325 74.5448 33.943C74.1886 35.2553 73.837 36.501 73.4898 37.6802C73.171 38.8346 72.9048 39.8055 72.6911 40.5929C72.513 41.249 72.2003 41.7223 71.7529 42.0127C71.3304 42.3316 70.893 42.4757 70.4407 42.445ZM76.6904 18.2521C75.8124 18.1927 75.0181 17.8849 74.3073 17.3289C73.5984 16.7464 73.2809 15.9096 73.3548 14.8188C73.4161 13.9142 73.6919 13.1979 74.182 12.6698C74.6722 12.1417 75.2313 11.7787 75.8595 11.5807C76.516 11.3579 77.0838 11.2627 77.5627 11.2952C78.0416 11.3276 78.5665 11.4701 79.1374 11.7226C79.7101 11.9485 80.1912 12.3419 80.5809 12.9029C80.9989 13.439 81.1755 14.186 81.1106 15.1438C81.0674 15.7824 80.8015 16.3524 80.3132 16.8538C79.8267 17.3287 79.2409 17.6899 78.5559 17.9375C77.8976 18.1869 77.2757 18.2918 76.6904 18.2521ZM100.648 46.817C98.8392 46.6944 97.1891 46.195 95.6983 45.3189C94.2056 44.4694 92.8622 43.3895 91.6681 42.0791C90.4757 40.7421 89.4236 39.3077 88.5117 37.7759C87.6283 36.2193 86.8893 34.6992 86.2949 33.2156C85.8765 34.6573 85.4991 35.8879 85.1628 36.9075C84.853 37.9289 84.5949 38.7801 84.3884 39.461C84.2193 39.9841 84.0378 40.493 83.8439 40.9877C83.6767 41.4842 83.4359 41.8822 83.1216 42.1816C82.8073 42.481 82.3841 42.6127 81.852 42.5767C80.7079 42.4992 80.0024 42.0638 79.7354 41.2706C79.4702 40.4508 79.3791 39.429 79.462 38.2051C79.5359 37.1143 79.8062 35.6893 80.2729 33.9302C80.7661 32.1728 81.3935 30.2107 82.1551 28.0439C82.9166 25.8771 83.7758 23.6501 84.7326 21.3629C85.7178 19.0509 86.7517 16.809 87.8343 14.6372C88.9187 12.4388 89.9887 10.4532 91.0443 8.68053C91.7053 7.60275 92.2719 6.93285 92.744 6.67083C93.218 6.38221 93.7609 6.25862 94.3728 6.30008C94.9848 6.34154 95.4395 6.53272 95.7372 6.87362C96.0348 7.21452 96.1656 7.65103 96.1296 8.18314C96.1061 8.52901 96.0029 8.86948 95.8198 9.20454C95.6367 9.5396 95.435 9.95357 95.2145 10.4465C94.5106 11.7619 93.7648 13.3017 92.9771 15.0658C92.1912 16.8033 91.4274 18.6091 90.6856 20.4833C89.9457 22.3308 89.2786 24.0898 88.6844 25.7601C90.0403 25.0768 91.5408 24.4301 93.1858 23.8199C94.8326 23.1831 96.4873 22.627 98.1499 22.1517C99.8409 21.6515 101.417 21.2771 102.877 21.0286C104.337 20.7801 105.559 20.6892 106.543 20.7559C107.315 20.8081 107.885 21.0739 108.253 21.5533C108.622 22.0326 108.788 22.5383 108.752 23.0704C108.725 23.4695 108.578 23.8605 108.312 24.2434C108.045 24.6262 107.516 24.9378 106.725 25.1782C104.113 25.8566 101.514 26.5491 98.9267 27.2558C96.3663 27.9644 93.5157 28.8136 90.3749 29.8036C90.9287 31.0973 91.5863 32.4382 92.3475 33.8261C93.1106 35.1875 93.9455 36.4736 94.8524 37.6843C95.7611 38.8684 96.71 39.8548 97.6989 40.6435C98.6897 41.4055 99.6905 41.8208 100.702 41.8893C102.191 41.9902 103.648 41.7949 105.071 41.3033C106.496 40.7851 107.823 40.14 109.051 39.3679C110.281 38.5693 111.363 37.7873 112.297 37.022C113.258 36.2585 114.006 35.6677 114.542 35.2497C114.855 34.9769 115.148 34.7829 115.423 34.6679C115.725 34.5547 116.089 34.5126 116.514 34.5414C117.02 34.5756 117.395 34.7614 117.639 35.0987C117.912 35.4112 118.019 35.806 117.96 36.2831C117.903 36.7336 117.646 37.1706 117.19 37.594C116.819 37.9431 116.233 38.5047 115.432 39.279C114.659 40.0285 113.721 40.8603 112.617 41.7745C111.541 42.6638 110.347 43.5183 109.035 44.3382C107.752 45.1333 106.399 45.7633 104.978 46.2283C103.555 46.7199 102.112 46.9161 100.648 46.817ZM117.524 46.3967C115.874 46.285 114.583 45.6228 113.649 44.4103C112.718 43.1711 112.339 41.2612 112.514 38.6804C112.626 37.0309 112.924 35.394 113.408 33.7696C113.921 32.1205 114.573 30.5744 115.366 29.1314C116.187 27.6635 117.103 26.3758 118.113 25.2683C119.15 24.1625 120.264 23.3158 121.453 22.7282C122.644 22.114 123.851 21.8483 125.075 21.9312C127.15 22.0718 128.735 22.7405 129.83 23.9372C130.925 25.134 131.414 26.5971 131.297 28.3264C131.207 29.6567 130.752 30.842 129.933 31.8824C129.143 32.8979 128.094 33.7891 126.785 34.5557C125.477 35.3224 124.028 35.9993 122.438 36.5865C120.848 37.1737 119.223 37.6917 117.562 38.1404C117.364 39.0892 117.24 39.9361 117.189 40.6811C117.159 41.1334 117.396 41.3766 117.902 41.4109C119.099 41.492 120.389 41.3923 121.771 41.1117C123.181 40.8064 124.612 40.3955 126.064 39.8791C127.517 39.3361 128.918 38.7762 130.267 38.1994C131.618 37.596 132.846 37.0244 133.951 36.4845C135.085 35.9199 136.011 35.4748 136.728 35.1492C137.473 34.7988 137.953 34.6308 138.165 34.6452C138.751 34.6848 139.165 34.8866 139.407 35.2505C139.65 35.6144 139.758 35.9959 139.731 36.395C139.718 36.5812 139.331 36.9693 138.569 37.5591C137.834 38.1508 136.825 38.8442 135.542 39.6393C134.287 40.4095 132.87 41.2089 131.29 42.0373C129.739 42.841 128.124 43.6002 126.445 44.315C124.794 45.005 123.195 45.5381 121.646 45.9143C120.122 46.3188 118.748 46.4797 117.524 46.3967ZM118.481 34.6345C119.615 34.0699 120.738 33.4778 121.849 32.8581C122.988 32.2137 123.947 31.4768 124.725 30.6475C125.505 29.7916 125.935 28.765 126.016 27.5677C126.039 27.2219 125.962 26.9894 125.783 26.8704C125.605 26.7247 125.344 26.6402 124.998 26.6167C124.067 26.5536 123.187 26.9083 122.36 27.6808C121.559 28.4551 120.822 29.4743 120.148 30.7383C119.503 31.9776 118.947 33.2763 118.481 34.6345ZM154.994 49.617C153.85 49.5395 153.049 49.3249 152.592 48.9732C152.161 48.6232 151.967 48.1423 152.008 47.5304C152.044 46.9983 152.261 46.5586 152.659 46.2114C153.058 45.8375 153.91 45.4943 155.214 45.1817C156.735 44.8304 158.18 44.4071 159.55 43.9119C160.948 43.3919 162.098 42.8016 162.998 42.1409C163.924 41.4821 164.415 40.7535 164.469 39.9554C164.505 39.4233 164.345 39.0248 163.988 38.7602C163.659 38.4973 163.255 38.3496 162.776 38.3172C162.377 38.2901 161.787 38.317 161.006 38.3977C160.254 38.4537 159.419 38.5441 158.502 38.6691C157.587 38.7674 156.699 38.8543 155.838 38.9296C155.006 38.9802 154.298 38.9856 153.712 38.946C152.329 38.8522 151.325 38.4769 150.702 37.8199C150.08 37.1363 149.802 36.3023 149.869 35.3178C149.905 34.7857 150.234 34.073 150.856 33.1797C151.477 32.2863 152.292 31.3125 153.299 30.2581C154.306 29.2038 155.419 28.1566 156.639 27.1167C157.858 26.0768 159.085 25.1309 160.319 24.279C161.581 23.4023 162.763 22.7207 163.865 22.234C164.969 21.7208 165.894 21.4894 166.639 21.5399C167.49 21.5976 168.15 21.9096 168.62 22.476C169.116 23.0441 169.333 23.7805 169.272 24.6851C169.243 25.1108 169.172 25.5737 169.058 26.0738C168.945 26.5473 168.716 26.9728 168.37 27.3502C168.025 27.7011 167.515 27.9338 166.839 28.0484C166.163 28.1629 165.26 28.075 164.131 27.7847C163.181 28.3885 162.187 29.0562 161.148 29.7877C160.138 30.4943 159.179 31.2445 158.27 32.0382C157.363 32.8053 156.602 33.569 155.99 34.3293C156.996 34.0768 158.13 33.8997 159.393 33.7982C160.658 33.6701 161.929 33.6493 163.206 33.7358C164.749 33.8403 165.981 34.2044 166.901 34.828C167.849 35.4269 168.519 36.1939 168.91 37.1291C169.328 38.0662 169.499 39.0801 169.426 40.1709C169.343 41.3948 168.861 42.5916 167.98 43.7614C167.098 44.9312 165.958 45.9765 164.56 46.8974C163.161 47.8183 161.629 48.5297 159.965 49.0317C158.301 49.5336 156.644 49.7288 154.994 49.617ZM200.547 30.4524C200.526 30.7717 200.4 31.0439 200.171 31.2689C199.942 31.4939 199.664 31.6621 199.335 31.7735C198.87 31.9291 198.069 32.1154 196.932 32.3324C195.795 32.5493 194.415 32.79 192.794 33.0543C191.199 33.3204 189.483 33.5917 187.647 33.8682C185.813 34.1181 183.979 34.3547 182.146 34.578C181.282 37.0853 180.398 39.6715 179.496 42.3366C178.596 44.9751 177.698 47.5737 176.803 50.1324C176.474 51.0456 176.107 51.729 175.702 52.1826C175.295 52.6629 174.639 52.8724 173.735 52.8111C172.75 52.7444 172.107 52.3801 171.804 51.7181C171.526 51.0846 171.543 50.2438 171.855 49.1958C172.743 46.3426 173.565 43.6854 174.319 41.2241C175.101 38.7647 175.73 36.776 176.207 35.2581C174.593 35.416 173.181 35.5342 171.973 35.6127C170.767 35.6646 169.912 35.6602 169.408 35.5993C168.853 35.5082 168.403 35.2505 168.057 34.8262C167.712 34.4019 167.572 33.898 167.639 33.3145C167.728 32.7859 167.998 32.3499 168.449 32.0062C168.902 31.636 169.423 31.4308 170.014 31.3906C170.844 31.3667 171.917 31.3191 173.231 31.2478C174.546 31.1765 175.995 31.0876 177.579 30.9811C178.017 29.6476 178.511 28.2778 179.06 26.8718C179.612 25.4391 180.172 24.0739 180.741 22.776C181.338 21.4534 181.898 20.3019 182.418 19.3215C182.939 18.3411 183.401 17.6374 183.804 17.2104C184.12 16.8843 184.498 16.6426 184.936 16.4852C185.401 16.3296 185.846 16.2662 186.272 16.2951C186.83 16.3329 187.269 16.5631 187.588 16.9856C187.907 17.4081 188.048 17.8855 188.012 18.4176C187.998 18.6304 187.969 18.8557 187.926 19.0933C187.885 19.3044 187.818 19.5136 187.723 19.721C187.128 21.0171 186.473 22.5898 185.76 24.4391C185.073 26.2903 184.347 28.3258 183.582 30.5459C185.598 30.3884 187.573 30.2282 189.508 30.0653C191.472 29.8777 193.248 29.704 194.836 29.5443C196.452 29.3598 197.746 29.1935 198.718 29.0456C199.263 28.8954 199.713 28.966 200.067 29.2572C200.423 29.5219 200.583 29.9203 200.547 30.4524ZM192.747 51.6536C191.895 51.596 191.14 51.3042 190.481 50.7785C189.82 50.2793 189.315 49.6437 188.966 48.8717C188.619 48.0731 188.476 47.2348 188.535 46.3568C188.647 44.7073 189.115 43.122 189.94 41.6009C190.791 40.0816 191.863 38.6575 193.156 37.3285C194.449 35.9996 195.84 34.7975 197.329 33.7224C198.847 32.6225 200.34 31.6946 201.808 30.9388C203.302 30.1847 204.651 29.6079 205.854 29.2083C207.084 28.8105 208.031 28.6342 208.696 28.6792C209.468 28.7315 210.081 28.9468 210.537 29.3251C211.021 29.6786 211.239 30.2013 211.192 30.893C211.178 31.1059 211.113 31.2752 210.998 31.401C211.338 31.5043 211.604 31.7227 211.795 32.0564C211.986 32.3901 212.06 32.8762 212.017 33.5148C211.999 33.7808 211.886 34.4681 211.677 35.5765C211.468 36.6849 211.23 38.0319 210.962 39.6174C210.721 41.2047 210.542 42.8631 210.424 44.5925C210.406 44.8585 210.43 45.1007 210.496 45.3189C210.563 45.5106 210.729 45.6154 210.995 45.6334C212.06 45.7055 213.152 45.5657 214.271 45.2139C215.419 44.8373 216.534 44.3649 217.615 43.7967C218.724 43.2036 219.726 42.6167 220.621 42.0358C221.544 41.4302 222.312 40.9343 222.926 40.5483C223.569 40.1375 223.983 39.9384 224.17 39.951C225.074 40.0123 225.496 40.4952 225.435 41.3998C225.418 41.6392 225.092 42.1249 224.454 42.8568C223.845 43.5639 223.015 44.3763 221.963 45.2941C220.914 46.1852 219.745 47.0682 218.456 47.9431C217.196 48.7931 215.893 49.48 214.548 50.0036C213.23 50.529 211.972 50.7511 210.774 50.67C209.311 50.5709 208.217 50.1493 207.492 49.4053C206.794 48.663 206.325 47.6958 206.085 46.5035C205.874 45.2864 205.805 43.932 205.88 42.4403C204.391 44.2906 202.864 45.9244 201.298 47.3418C199.76 48.7344 198.256 49.8219 196.787 50.6043C195.317 51.3868 193.971 51.7366 192.747 51.6536ZM208.229 32.6167C205.537 33.6905 203.098 34.9685 200.913 36.4509C198.73 37.9066 196.967 39.471 195.624 41.1441C194.308 42.8189 193.594 44.4678 193.484 46.0908C193.454 46.5431 193.651 46.7836 194.077 46.8125C194.583 46.8467 195.268 46.5991 196.132 46.0697C197.023 45.5421 197.993 44.8327 199.042 43.9416C200.094 43.0239 201.152 41.9997 202.217 40.8692C203.285 39.712 204.287 38.5237 205.225 37.3043C206.163 36.0849 206.925 34.907 207.509 33.7706C207.724 33.3576 207.964 32.9729 208.229 32.6167ZM221.197 53.8217C220.532 53.7767 219.976 53.4985 219.529 52.9871C219.11 52.4776 218.93 51.7705 218.992 50.8659C219.019 50.4668 219.116 49.8186 219.284 48.9212C219.48 47.999 219.712 46.9456 219.979 45.761C220.273 44.5781 220.557 43.3412 220.832 42.0501C221.133 40.7609 221.39 39.5354 221.602 38.3738C221.841 37.214 222.015 36.2235 222.124 35.4023C222.246 34.3949 222.56 33.6946 223.068 33.3013C223.578 32.8815 224.165 32.6941 224.83 32.7391C225.362 32.7752 225.832 32.9407 226.24 33.2356C226.676 33.5057 226.92 34.0434 226.973 34.8488C227.053 35.6293 226.991 36.7477 226.785 38.2038C228.1 36.1547 229.413 34.3326 230.724 32.7375C232.061 31.1443 233.428 29.9005 234.825 29.0062C237.147 27.4797 239.199 26.7768 240.982 26.8976C241.993 26.9661 242.643 27.2373 242.932 27.7112C243.22 28.1852 243.348 28.6616 243.316 29.1405C243.294 29.4597 243.195 29.747 243.017 30.0022C242.866 30.2593 242.554 30.5188 242.082 30.7808C241.61 31.0429 240.892 31.3818 239.928 31.7976C238.635 32.3514 237.341 33.1056 236.047 34.0603C234.779 35.0169 233.492 36.266 232.184 37.8079C230.877 39.3497 229.531 41.2631 228.147 43.5481C226.763 45.8331 225.308 48.5676 223.783 51.7518C223.482 52.6402 223.095 53.2154 222.623 53.4774C222.178 53.7412 221.702 53.856 221.197 53.8217ZM267.168 34.9662C267.146 35.2854 267.021 35.5576 266.792 35.7826C266.563 36.0076 266.284 36.1758 265.956 36.2872C265.491 36.4428 264.69 36.6291 263.553 36.8461C262.416 37.063 261.036 37.3037 259.415 37.568C257.82 37.8341 256.104 38.1054 254.268 38.3819C252.433 38.6318 250.6 38.8684 248.767 39.0917C247.902 41.599 247.019 44.1852 246.117 46.8503C245.216 49.4888 244.319 52.0874 243.423 54.6461C243.094 55.5593 242.727 56.2427 242.322 56.6964C241.916 57.1766 241.26 57.3861 240.355 57.3248C239.371 57.2581 238.727 56.8938 238.425 56.2318C238.147 55.5983 238.164 54.7575 238.475 53.7095C239.364 50.8563 240.185 48.1991 240.94 45.7378C241.721 43.2784 242.351 41.2897 242.828 39.7718C241.213 39.9297 239.802 40.0479 238.594 40.1264C237.388 40.1783 236.533 40.1739 236.029 40.113C235.474 40.0219 235.024 39.7642 234.678 39.3399C234.333 38.9156 234.193 38.4117 234.259 37.8282C234.349 37.2996 234.619 36.8636 235.07 36.5199C235.522 36.1497 236.044 35.9445 236.635 35.9043C237.465 35.8804 238.537 35.8328 239.852 35.7615C241.166 35.6902 242.616 35.6013 244.2 35.4948C244.638 34.1613 245.131 32.7916 245.681 31.3855C246.232 29.9528 246.793 28.5876 247.362 27.2897C247.959 25.9671 248.518 24.8156 249.039 23.8352C249.56 22.8548 250.022 22.1511 250.425 21.7241C250.741 21.398 251.118 21.1563 251.557 20.9989C252.021 20.8433 252.467 20.7799 252.892 20.8088C253.451 20.8466 253.89 21.0768 254.209 21.4993C254.528 21.9219 254.669 22.3992 254.633 22.9313C254.619 23.1441 254.59 23.3694 254.547 23.607C254.506 23.8181 254.438 24.0273 254.344 24.2347C253.749 25.5308 253.094 27.1035 252.381 28.9528C251.694 30.804 250.968 32.8395 250.203 35.0596C252.218 34.9021 254.194 34.7419 256.129 34.5791C258.093 34.3914 259.869 34.2177 261.456 34.058C263.073 33.8735 264.367 33.7072 265.339 33.5593C265.884 33.4091 266.333 33.4797 266.688 33.771C267.044 34.0356 267.204 34.434 267.168 34.9662ZM271.193 59.2538C270.581 59.2123 270.04 58.9217 269.569 58.382C269.122 57.8706 268.938 57.0429 269.015 55.8989C269.073 55.0475 269.22 53.8681 269.455 52.3606C269.72 50.8282 270.146 48.8659 270.736 46.4737C269.675 48.3262 268.589 49.9632 267.477 51.3846C266.365 52.806 265.288 53.909 264.246 54.6937C263.232 55.4536 262.286 55.8038 261.408 55.7443C259.998 55.6488 258.91 55.1474 258.142 54.2401C257.377 53.3063 257.076 51.6421 257.238 49.2476C257.315 48.1035 257.496 46.8194 257.779 45.3954C258.09 43.9731 258.453 42.5544 258.87 41.1393C259.286 39.7242 259.692 38.4688 260.087 37.373C260.51 36.2524 260.874 35.4217 261.178 34.881C261.423 34.4166 261.715 34.0621 262.052 33.8177C262.416 33.5751 262.864 33.4718 263.396 33.5078C264.247 33.5655 264.88 33.889 265.295 34.4784C265.709 35.0678 265.896 35.6551 265.857 36.2404C265.826 36.6927 265.676 37.3374 265.405 38.1743C265.161 39.0131 264.858 39.9414 264.495 40.9591C264.158 41.9787 263.807 43.024 263.44 44.095C263.074 45.166 262.752 46.1732 262.474 47.1166C262.223 48.0618 262.075 48.867 262.03 49.5321C261.974 50.3569 262.265 50.7909 262.904 50.8342C263.276 50.8594 263.779 50.5327 264.413 49.854C265.074 49.1771 265.777 48.2626 266.524 47.1104C267.298 45.9334 268.08 44.65 268.869 43.2601C269.687 41.8455 270.439 40.413 271.125 38.9628C271.84 37.4877 272.453 36.126 272.965 34.8778C273.285 34.0977 273.682 33.5633 274.156 33.2747C274.63 32.986 275.16 32.8616 275.745 32.9012C276.65 32.9625 277.324 33.2621 277.769 33.8001C278.24 34.3398 278.444 35.0753 278.381 36.0065C278.352 36.4322 278.237 37.146 278.036 38.1481C277.834 39.1501 277.581 40.3223 277.276 41.6648C276.998 43.009 276.675 44.4304 276.306 45.9289C275.937 47.4274 275.57 48.8993 275.205 50.3446C274.866 51.7917 274.536 53.119 274.213 54.3267C273.893 55.5077 273.628 56.452 273.42 57.1595C273.082 58.2057 272.719 58.8226 272.332 59.0102C271.946 59.1979 271.566 59.279 271.193 59.2538ZM279.618 68.8853C278.873 68.8349 278.306 68.5291 277.916 67.9682C277.551 67.4356 277.405 66.6373 277.477 65.573C277.576 64.1097 277.827 62.3761 278.23 60.372C278.633 58.368 279.138 56.2506 279.743 54.0198C280.349 51.7889 280.992 49.6007 281.671 47.4551C282.479 44.9974 283.259 42.765 284.01 40.7578C284.787 38.7525 285.536 37.1595 286.258 35.9789C287.008 34.7735 287.715 34.1933 288.38 34.2384C288.992 34.2798 289.509 34.542 289.931 35.025C290.381 35.4831 290.577 36.1379 290.519 36.9892C290.478 37.6012 290.259 38.4684 289.862 39.5908C289.467 40.6866 288.973 42.0563 288.381 43.7C289.386 42.2714 290.417 40.8712 291.472 39.4994C292.553 38.1294 293.639 36.8933 294.73 35.7911C295.82 34.689 296.868 33.8245 297.872 33.1976C298.877 32.5708 299.805 32.2862 300.656 32.3439C301.667 32.4124 302.539 32.7654 303.271 33.403C304.029 34.0424 304.6 34.883 304.984 35.9246C305.368 36.9663 305.517 38.1256 305.43 39.4027C305.27 41.7706 304.688 44.0432 303.685 46.2204C302.684 48.3709 301.366 50.2729 299.731 51.9261C298.122 53.5811 296.284 54.8598 294.219 55.7623C292.155 56.6381 289.965 56.9976 287.651 56.8408C286.986 56.7957 286.378 56.6877 285.828 56.5168C285.304 56.3744 284.82 56.208 284.379 56.0177C283.944 57.6988 283.52 59.4208 283.107 61.1835C282.718 62.9747 282.31 64.8581 281.882 66.8337C281.464 68.2753 280.709 68.9592 279.618 68.8853ZM300.736 37.0801C300.151 37.0405 299.379 37.3891 298.42 38.126C297.488 38.8646 296.459 39.8507 295.333 41.084C294.209 42.2908 293.064 43.6164 291.897 45.0608C290.758 46.4804 289.661 47.8762 288.606 49.248C287.578 50.6216 286.695 51.818 285.957 52.8371C287.994 52.7613 289.813 52.35 291.413 51.6031C293.016 50.8297 294.405 49.8547 295.581 48.6781C296.756 47.5016 297.723 46.2441 298.482 44.9056C299.27 43.5424 299.868 42.2065 300.277 40.8978C300.687 39.5892 300.925 38.4426 300.991 37.4582C301.008 37.2188 300.923 37.0927 300.736 37.0801ZM310.988 60.1859C309.844 60.1084 309.043 59.8938 308.586 59.5421C308.155 59.1922 307.961 58.7113 308.002 58.0993C308.038 57.5672 308.255 57.1275 308.653 56.7803C309.052 56.4065 309.904 56.0633 311.208 55.7507C312.729 55.3993 314.174 54.9761 315.544 54.4809C316.942 53.9609 318.092 53.3705 318.992 52.7099C319.918 52.051 320.409 51.3225 320.463 50.5243C320.499 49.9922 320.339 49.5938 319.982 49.3291C319.653 49.0662 319.248 48.9186 318.77 48.8861C318.37 48.8591 317.781 48.8859 317 48.9667C316.248 49.0226 315.413 49.1131 314.496 49.238C313.581 49.3364 312.693 49.4232 311.832 49.4986C311 49.5491 310.292 49.5546 309.706 49.5149C308.323 49.4212 307.319 49.0458 306.696 48.3888C306.074 47.7052 305.796 46.8712 305.863 45.8868C305.899 45.3547 306.228 44.6419 306.85 43.7486C307.471 42.8553 308.286 41.8814 309.293 40.8271C310.3 39.7727 311.413 38.7256 312.633 37.6857C313.852 36.6457 315.079 35.6998 316.313 34.8479C317.575 33.9713 318.757 33.2896 319.859 32.803C320.963 32.2898 321.888 32.0584 322.633 32.1089C323.484 32.1665 324.144 32.4786 324.614 33.0449C325.11 33.6131 325.327 34.3495 325.266 35.2541C325.237 35.6798 325.166 36.1427 325.052 36.6428C324.939 37.1162 324.71 37.5417 324.364 37.9192C324.019 38.27 323.509 38.5027 322.833 38.6173C322.157 38.7319 321.254 38.644 320.125 38.3536C319.175 38.9575 318.181 39.6251 317.142 40.3566C316.132 41.0633 315.173 41.8135 314.264 42.6072C313.356 43.3743 312.596 44.138 311.984 44.8983C312.99 44.6457 314.124 44.4687 315.387 44.3671C316.652 44.239 317.923 44.2182 319.2 44.3047C320.743 44.4093 321.975 44.7734 322.895 45.397C323.843 45.9958 324.513 46.7628 324.904 47.6981C325.322 48.6351 325.493 49.649 325.419 50.7399C325.337 51.9637 324.855 53.1606 323.973 54.3303C323.092 55.5001 321.952 56.5455 320.554 57.4663C319.155 58.3872 317.623 59.0987 315.959 59.6006C314.294 60.1026 312.637 60.2977 310.988 60.1859ZM348.562 60.8473C346.886 60.7338 345.696 60.1453 344.993 59.0821C344.318 57.994 344.035 56.6517 344.143 55.0554C344.246 53.5389 344.678 52.0981 345.438 50.7331C346.201 49.3414 347.185 48.0316 348.391 46.8037C349.596 45.5757 350.929 44.4498 352.388 43.4261C353.849 42.3758 355.315 41.4462 356.787 40.6371C358.286 39.8032 359.71 39.1112 361.057 38.561C362.405 37.9842 363.57 37.5553 364.552 37.2743C365.533 36.9933 366.236 36.8673 366.662 36.8961C367.114 36.9267 367.479 37.0717 367.755 37.331C368.06 37.5655 368.191 38.002 368.148 38.6405C368.103 39.3056 367.796 39.8862 367.228 40.3823C366.66 40.8784 365.977 41.2865 365.18 41.6067C364.053 42.0649 362.772 42.6329 361.336 43.3108C359.929 43.9638 358.501 44.7223 357.053 45.5864C355.604 46.4505 354.258 47.3883 353.013 48.3998C351.795 49.4131 350.787 50.4941 349.987 51.6426C349.189 52.7646 348.749 53.9375 348.666 55.1614C348.648 55.4275 348.687 55.6439 348.783 55.8108C348.878 55.9776 349.099 56.0727 349.445 56.0962C349.897 56.1268 350.51 55.9545 351.284 55.5793C352.06 55.1775 352.911 54.6471 353.837 53.9883C354.766 53.3028 355.699 52.5508 356.636 51.7323C357.576 50.8872 358.448 50.0376 359.255 49.1835C360.089 48.3045 360.786 47.4831 361.346 46.7192C361.76 46.1325 362.233 45.6567 362.766 45.2919C363.325 44.9289 363.884 44.7663 364.442 44.8041C364.895 44.8348 365.258 44.9931 365.533 45.2789C365.836 45.54 365.966 45.9898 365.923 46.6284C365.908 46.8412 365.861 47.3458 365.78 48.1422C365.701 48.9119 365.597 49.8537 365.468 50.9676C365.368 52.0566 365.277 53.1997 365.196 54.397C365.125 55.4346 365.157 56.3455 365.291 57.1297C365.454 57.8891 365.867 58.2913 366.533 58.3364C367.331 58.3905 368.174 58.167 369.064 57.6659C369.955 57.1383 370.829 56.4625 371.687 55.6386C372.573 54.7899 373.396 53.8835 374.156 52.9193C374.916 51.9552 375.567 51.037 376.107 50.1649C376.675 49.2679 377.085 48.5473 377.336 48.003C377.84 45.6851 378.417 43.88 379.066 42.5876C379.716 41.2685 380.393 40.3522 381.096 39.8385C381.826 39.3267 382.51 39.0924 383.148 39.1357C383.867 39.1843 384.454 39.3978 384.909 39.7761C385.391 40.1563 385.589 40.9849 385.502 42.2619C385.457 42.9271 385.11 43.9059 384.462 45.1983C383.813 46.4907 382.969 47.9036 381.929 49.4368C381.635 50.6196 381.419 51.8478 381.279 53.1213C381.139 54.3947 381.138 55.5974 381.275 56.7292C382.027 56.2724 382.81 55.577 383.621 54.6431C384.435 53.6825 385.255 52.6156 386.083 51.4422C386.913 50.2422 387.743 49.0422 388.572 47.8422C389.404 46.6156 390.215 45.4945 391.005 44.479C391.822 43.4652 392.598 42.6625 393.333 42.0708C394.097 41.4544 394.824 41.1696 395.516 41.2164C396.234 41.2651 396.877 41.4423 397.445 41.748C398.04 42.0289 398.513 42.5421 398.864 43.2875C399.243 44.008 399.494 45.0274 399.619 46.3455C399.772 47.6388 399.778 49.3231 399.637 51.3983C399.563 52.4891 399.598 53.5606 399.74 54.6126C399.885 55.638 400.187 56.5005 400.647 57.1998C401.11 57.8726 401.793 58.2397 402.698 58.301C404.161 58.4001 405.481 58.249 406.657 57.8476C407.836 57.4196 408.873 56.9019 409.769 56.2944C410.666 55.6869 411.41 55.1627 412.001 54.7216C412.62 54.2558 413.09 54.0337 413.409 54.0553C413.941 54.0914 414.33 54.278 414.574 54.6153C414.847 54.9278 414.968 55.3102 414.937 55.7625C414.919 56.0286 414.661 56.4789 414.164 57.1133C413.695 57.723 413.048 58.4008 412.222 59.1467C411.425 59.8678 410.496 60.5666 409.434 61.2431C408.401 61.8947 407.31 62.4221 406.16 62.8253C405.01 63.2285 403.863 63.3914 402.719 63.3139C400.644 63.1733 398.953 62.6845 397.646 61.8476C396.368 60.9859 395.457 59.6413 394.913 57.8136C394.397 55.9612 394.242 53.5051 394.45 50.4455C394.462 50.2592 394.474 50.0863 394.485 49.9266C394.496 49.767 394.507 49.6074 394.517 49.4477C394.562 48.7826 394.588 48.2097 394.594 47.729C394.626 47.2501 394.585 46.8731 394.47 46.598C393.996 47.2875 393.415 48.157 392.73 49.2063C392.07 50.2575 391.339 51.384 390.536 52.5858C389.733 53.7876 388.878 54.9725 387.97 56.1405C387.089 57.3103 386.202 58.3727 385.308 59.3278C384.415 60.283 383.535 61.0386 382.669 61.5946C381.83 62.1525 381.051 62.4071 380.332 62.3584C379.8 62.3223 379.233 62.0166 378.63 61.4413C378.054 60.8677 377.584 60.1142 377.22 59.1807C376.857 58.2207 376.716 57.1554 376.795 55.9847C375.554 57.3439 374.28 58.5807 372.975 59.695C371.672 60.7827 370.399 61.6319 369.154 62.2425C367.935 62.8816 366.793 63.1651 365.729 63.093C364.851 63.0335 364.017 62.723 363.226 62.1616C362.462 61.6021 361.832 60.6506 361.335 59.3073C360.838 57.9639 360.591 56.0896 360.593 53.6843C359.237 55.1693 357.839 56.4644 356.401 57.5698C354.99 58.6769 353.61 59.5189 352.261 60.0957C350.939 60.6743 349.706 60.9249 348.562 60.8473ZM427.187 44.565C428.887 41.1788 430.42 37.6744 431.788 34.0519C432.052 33.3214 432.396 32.7701 432.822 32.3981C433.275 32.0278 433.874 31.8679 434.619 31.9184C435.231 31.9599 435.684 32.1777 435.978 32.5718C436.274 32.9393 436.401 33.429 436.36 34.0409C436.325 34.5464 436.051 35.4366 435.537 36.7114C435.025 37.9597 434.396 39.5475 433.651 41.4748C432.906 43.4022 432.139 45.6355 431.353 48.1748C430.566 50.7141 429.855 53.5124 429.22 56.5699C428.586 59.6273 428.149 62.912 427.911 66.4239C427.846 67.3817 427.607 68.154 427.193 68.7407C426.804 69.3558 426.17 69.6336 425.292 69.5741C424.334 69.5092 423.652 69.1289 423.245 68.4331C422.864 67.7391 422.709 66.8733 422.779 65.8357C422.918 63.787 423.1 62.0888 423.325 60.7409C423.578 59.3682 423.818 58.1951 424.044 57.2215C422.589 59.368 421.075 61.2032 419.502 62.727C417.957 64.226 416.491 65.3561 415.103 66.1174C413.713 66.9052 412.539 67.2667 411.581 67.2018C410.012 67.0955 408.764 66.57 407.839 65.6253C406.914 64.6806 406.512 63.317 406.633 61.5344C406.727 60.1509 407.156 58.75 407.92 57.3318C408.686 55.8869 409.663 54.4831 410.851 53.1203C412.04 51.7575 413.328 50.495 414.716 49.3329C416.133 48.1459 417.539 47.1186 418.934 46.251C420.331 45.3567 421.621 44.6689 422.803 44.1877C423.985 43.7065 424.935 43.4902 425.653 43.5389C426.451 43.593 426.963 43.935 427.187 44.565ZM426.123 46.6578C425.956 46.7534 425.776 46.8482 425.583 46.942C425.418 47.011 425.252 47.0933 425.085 47.1889C424.031 47.7589 422.901 48.4575 421.696 49.2845C420.492 50.085 419.295 50.9928 418.103 52.0079C416.914 52.9965 415.814 54.0445 414.803 55.1521C413.821 56.2348 413.012 57.3293 412.376 58.4355C411.768 59.5169 411.429 60.5764 411.358 61.614C411.346 61.8002 411.417 61.9387 411.571 62.0293C411.725 62.1199 411.869 62.1698 412.002 62.1788C412.933 62.2419 413.959 61.8971 415.079 61.1444C416.225 60.3935 417.407 59.3243 418.624 57.9367C419.869 56.5243 421.117 54.8582 422.37 52.9385C423.649 51.0206 424.9 48.927 426.123 46.6578ZM454.665 71.0029C453.441 70.92 452.587 70.5146 452.101 69.7868C451.616 69.059 451.419 68.03 451.509 66.6997C451.592 65.4758 451.926 63.8948 452.512 61.9566C453.126 59.9936 453.901 57.8144 454.839 55.419C455.805 52.9987 456.868 50.5183 458.029 47.9776C459.192 45.4103 460.391 42.899 461.627 40.4436C462.864 37.9615 464.06 35.6905 465.215 33.6306C465.757 32.7318 466.306 32.1275 466.862 31.8177C467.417 31.5079 468.014 31.3746 468.653 31.4179C469.265 31.4593 469.772 31.6674 470.174 32.0421C470.578 32.3902 470.756 32.9235 470.707 33.6418C470.696 33.8015 470.442 34.399 469.944 35.4344C469.448 36.4431 468.798 37.7622 467.992 39.3915C467.189 40.9941 466.304 42.8052 465.339 44.8245C464.375 46.8173 463.406 48.9032 462.429 51.0822C461.455 53.2345 460.562 55.3657 459.751 57.4757C458.94 59.5857 458.273 61.5451 457.749 63.3539C458.765 62.1665 459.857 60.8506 461.024 59.4062C462.219 57.9369 463.427 56.4819 464.647 55.0411C465.895 53.5755 467.108 52.2411 468.286 51.0379C469.49 49.8366 470.597 48.8826 471.607 48.1759C472.617 47.4692 473.481 47.1402 474.2 47.1889C475.53 47.279 476.569 47.7236 477.316 48.5226C478.093 49.2969 478.42 50.5753 478.299 52.3578C478.244 53.1826 478.016 54.1695 477.618 55.3185C477.221 56.441 476.753 57.6254 476.214 58.8718C475.704 60.0934 475.249 61.2787 474.851 62.4278C474.452 63.5768 474.223 64.5903 474.164 65.4683C474.131 65.9472 474.341 66.202 474.794 66.2326C476.097 66.3209 477.433 66.1308 478.801 65.6622C480.196 65.1954 481.533 64.5911 482.813 63.8492C484.121 63.0826 485.309 62.3211 486.376 61.5648C487.471 60.7838 488.357 60.1355 489.033 59.62C489.514 59.225 489.946 58.9736 490.327 58.8658C490.71 58.7314 491.062 58.675 491.381 58.6966C492.472 58.7705 492.98 59.3529 492.906 60.4437C492.892 60.6566 492.834 60.9199 492.732 61.2338C492.633 61.521 492.355 61.8764 491.899 62.2999C491.442 62.7233 490.76 63.3186 489.853 64.0857C488.946 64.8528 487.889 65.6632 486.682 66.5168C485.501 67.3723 484.217 68.1807 482.829 68.942C481.469 69.6784 480.08 70.2658 478.66 70.7042C477.241 71.1426 475.879 71.3176 474.575 71.2293C472.606 71.0959 471.128 70.4344 470.139 69.2449C469.149 68.0819 468.718 66.556 468.846 64.667C468.934 63.3633 469.311 61.7451 469.977 59.8123C470.644 57.8529 471.38 55.8581 472.186 53.828C471.194 54.6695 470.15 55.6812 469.054 56.8632C467.96 58.0185 466.847 59.2528 465.716 60.566C464.586 61.8526 463.471 63.1268 462.37 64.3886C461.297 65.6255 460.271 66.7588 459.293 67.7884C458.316 68.7913 457.434 69.5868 456.646 70.1749C455.857 70.7629 455.197 71.0389 454.665 71.0029ZM488.857 71.7158C488.006 71.6581 487.25 71.3664 486.591 70.8406C485.93 70.3414 485.425 69.7059 485.076 68.9339C484.73 68.1353 484.586 67.297 484.645 66.419C484.757 64.7694 485.225 63.1841 486.05 61.6631C486.901 60.1438 487.973 58.7197 489.266 57.3907C490.559 56.0617 491.95 54.8597 493.44 53.7845C494.957 52.6846 496.45 51.7567 497.918 51.0009C499.412 50.2469 500.761 49.67 501.964 49.2705C503.194 48.8727 504.141 48.6963 504.806 48.7414C505.578 48.7937 506.192 49.009 506.647 49.3873C507.131 49.7408 507.349 50.2634 507.303 50.9552C507.288 51.168 507.223 51.3373 507.108 51.4632C507.448 51.5664 507.714 51.7849 507.905 52.1186C508.096 52.4523 508.17 52.9384 508.127 53.5769C508.109 53.843 507.996 54.5302 507.787 55.6386C507.578 56.7471 507.34 58.094 507.072 59.6796C506.831 61.2669 506.652 62.9252 506.535 64.6546C506.517 64.9207 506.54 65.1628 506.606 65.3811C506.673 65.5727 506.84 65.6776 507.106 65.6956C508.17 65.7677 509.262 65.6278 510.381 65.2761C511.53 64.8995 512.644 64.4271 513.725 63.8588C514.834 63.2658 515.836 62.6788 516.731 62.098C517.654 61.4923 518.423 60.9965 519.037 60.6105C519.679 60.1996 520.094 60.0005 520.28 60.0131C521.184 60.0744 521.606 60.5574 521.545 61.4619C521.529 61.7014 521.202 62.1871 520.564 62.919C519.955 63.6261 519.125 64.4385 518.074 65.3562C517.024 66.2473 515.855 67.1303 514.567 68.0052C513.306 68.8553 512.003 69.5421 510.658 70.0657C509.34 70.5911 508.082 70.8133 506.885 70.7322C505.421 70.633 504.327 70.2114 503.603 69.4674C502.905 68.7252 502.436 67.7579 502.196 66.5657C501.984 65.3486 501.915 63.9942 501.99 62.5025C500.501 64.3527 498.974 65.9866 497.408 67.4039C495.87 68.7965 494.367 69.884 492.897 70.6665C491.428 71.4489 490.081 71.7987 488.857 71.7158ZM504.339 52.6788C501.647 53.7526 499.208 55.0307 497.023 56.513C494.84 57.9688 493.077 59.5332 491.734 61.2062C490.418 62.8811 489.705 64.53 489.595 66.1529C489.564 66.6052 489.762 66.8458 490.187 66.8746C490.693 66.9089 491.378 66.6613 492.242 66.1318C493.133 65.6042 494.103 64.8948 495.153 64.0037C496.204 63.086 497.262 62.0619 498.328 60.9313C499.395 59.7741 500.398 58.5859 501.335 57.3665C502.273 56.1471 503.035 54.9692 503.62 53.8328C503.835 53.4197 504.075 53.0351 504.339 52.6788ZM522.342 73.5836C520.852 73.4826 519.585 73.0493 518.541 72.2837C517.495 71.5446 516.716 70.6231 516.203 69.5193C515.691 68.3888 515.474 67.2515 515.552 66.1075C515.682 64.1918 516.094 62.4424 516.789 60.8591C517.486 59.2492 518.359 57.8116 519.407 56.5462C520.457 55.2542 521.575 54.1272 522.763 53.1653C523.977 52.2052 525.14 51.4153 526.251 50.7957C527.391 50.1512 528.398 49.6849 529.273 49.3967C530.149 49.0819 530.787 48.9381 531.186 48.9651C531.905 49.0138 532.399 49.2077 532.67 49.5467C532.97 49.861 533.096 50.3641 533.049 51.0558C533.022 51.4549 532.697 51.914 532.074 52.433C531.477 52.9539 530.689 53.542 529.709 54.1972C528.756 54.8543 527.743 55.6009 526.671 56.437C525.599 57.2731 524.559 58.2183 523.552 59.2726C522.572 60.3288 521.744 61.5022 521.068 62.7928C520.42 64.0852 520.042 65.5163 519.936 67.086C519.896 67.6714 519.972 68.1309 520.163 68.4646C520.381 68.8 520.756 68.9858 521.288 69.0219C522.804 69.1246 524.445 68.9685 526.211 68.5536C528.005 68.1138 529.794 67.5401 531.579 66.8325C533.393 66.1001 535.102 65.3339 536.707 64.5339C538.338 63.7356 539.736 63.0152 540.902 62.3725C541.376 62.0839 541.779 61.8573 542.111 61.6927C542.443 61.5281 542.675 61.4503 542.808 61.4593C543.607 61.5134 543.978 61.9528 543.922 62.7776C543.893 63.2033 543.535 63.7537 542.848 64.4287C542.04 65.3095 540.964 66.1988 539.62 67.0967C538.303 67.9964 536.842 68.8462 535.238 69.6463C533.66 70.4481 532.048 71.1541 530.403 71.7643C528.785 72.3763 527.27 72.8483 525.857 73.1803C524.445 73.5122 523.273 73.6466 522.342 73.5836ZM559.534 77.9075C557.725 77.7849 556.075 77.2856 554.584 76.4095C553.091 75.56 551.748 74.48 550.554 73.1696C549.361 71.8326 548.309 70.3982 547.397 68.8664C546.514 67.3098 545.775 65.7897 545.18 64.3062C544.762 65.7478 544.385 66.9785 544.048 67.9981C543.738 69.0195 543.48 69.8706 543.274 70.5516C543.105 71.0747 542.923 71.5836 542.729 72.0782C542.562 72.5747 542.321 72.9727 542.007 73.2722C541.693 73.5716 541.27 73.7033 540.737 73.6672C539.593 73.5897 538.888 73.1544 538.621 72.3612C538.356 71.5414 538.265 70.5195 538.347 69.2957C538.421 68.2048 538.692 66.7799 539.158 65.0207C539.652 63.2634 540.279 61.3013 541.041 59.1345C541.802 56.9677 542.661 54.7406 543.618 52.4534C544.603 50.1414 545.637 47.8995 546.72 45.7277C547.804 43.5293 548.874 41.5438 549.93 39.7711C550.591 38.6933 551.157 38.0234 551.63 37.7614C552.103 37.4728 552.646 37.3492 553.258 37.3906C553.87 37.4321 554.325 37.6233 554.623 37.9642C554.92 38.3051 555.051 38.7416 555.015 39.2737C554.992 39.6196 554.888 39.96 554.705 40.2951C554.522 40.6301 554.32 41.0441 554.1 41.537C553.396 42.8524 552.65 44.3922 551.863 46.1563C551.077 47.8938 550.313 49.6997 549.571 51.5738C548.831 53.4214 548.164 55.1803 547.57 56.8506C548.926 56.1674 550.426 55.5207 552.071 54.9105C553.718 54.2737 555.373 53.7176 557.035 53.2422C558.726 52.742 560.302 52.3677 561.762 52.1192C563.222 51.8706 564.445 51.7797 565.429 51.8464C566.201 51.8987 566.771 52.1645 567.139 52.6438C567.507 53.1232 567.674 53.6289 567.638 54.161C567.611 54.5601 567.464 54.951 567.197 55.3339C566.931 55.7168 566.402 56.0284 565.61 56.2688C562.999 56.9471 560.399 57.6397 557.812 58.3464C555.252 59.0549 552.401 59.9042 549.26 60.8941C549.814 62.1879 550.472 63.5287 551.233 64.9167C551.996 66.278 552.831 67.5641 553.738 68.7748C554.647 69.959 555.595 70.9454 556.584 71.734C557.575 72.4961 558.576 72.9113 559.587 72.9798C561.077 73.0808 562.533 72.8855 563.957 72.3939C565.382 71.8757 566.708 71.2305 567.937 70.4585C569.167 69.6598 570.249 68.8778 571.183 68.1125C572.143 67.349 572.891 66.7583 573.428 66.3402C573.74 66.0674 574.034 65.8735 574.309 65.7585C574.611 65.6453 574.974 65.6031 575.4 65.6319C575.905 65.6662 576.28 65.852 576.525 66.1893C576.798 66.5017 576.905 66.8965 576.845 67.3736C576.788 67.8241 576.531 68.2611 576.075 68.6846C575.704 69.0336 575.118 69.5953 574.317 70.3696C573.545 71.1191 572.606 71.9509 571.502 72.865C570.426 73.7543 569.232 74.6089 567.921 75.4288C566.637 76.2238 565.285 76.8539 563.864 77.3188C562.44 77.8104 560.997 78.0067 559.534 77.9075ZM573.6 77.4573C572.749 77.3997 571.993 77.1079 571.334 76.5822C570.673 76.083 570.168 75.4474 569.82 74.6754C569.473 73.8768 569.329 73.0385 569.389 72.1605C569.5 70.511 569.969 68.9257 570.793 67.4046C571.645 65.8853 572.717 64.4612 574.009 63.1322C575.302 61.8032 576.693 60.6012 578.183 59.5261C579.701 58.4262 581.193 57.4983 582.661 56.7425C584.156 55.9884 585.504 55.4116 586.707 55.012C587.937 54.6142 588.885 54.4379 589.55 54.4829C590.321 54.5352 590.935 54.7505 591.39 55.1288C591.874 55.4823 592.093 56.005 592.046 56.6967C592.031 56.9096 591.966 57.0789 591.851 57.2047C592.191 57.308 592.457 57.5264 592.648 57.8601C592.84 58.1938 592.914 58.6799 592.87 59.3185C592.852 59.5845 592.739 60.2718 592.53 61.3802C592.322 62.4886 592.083 63.8356 591.815 65.4211C591.574 67.0084 591.395 68.6668 591.278 70.3962C591.26 70.6622 591.284 70.9044 591.349 71.1226C591.416 71.3143 591.583 71.4191 591.849 71.4371C592.913 71.5092 594.005 71.3694 595.125 71.0176C596.273 70.641 597.387 70.1686 598.468 69.6004C599.577 69.0073 600.579 68.4204 601.474 67.8395C602.397 67.2339 603.166 66.738 603.78 66.352C604.422 65.9412 604.837 65.7421 605.023 65.7547C605.928 65.816 606.349 66.2989 606.288 67.2035C606.272 67.4429 605.945 67.9286 605.307 68.6605C604.698 69.3676 603.868 70.18 602.817 71.0978C601.768 71.9889 600.599 72.8719 599.31 73.7467C598.049 74.5968 596.747 75.2837 595.402 75.8073C594.083 76.3327 592.825 76.5548 591.628 76.4737C590.165 76.3746 589.071 75.953 588.346 75.209C587.648 74.4667 587.179 73.4995 586.939 72.3072C586.727 71.0901 586.659 69.7357 586.733 68.244C585.245 70.0943 583.717 71.7281 582.151 73.1455C580.614 74.5381 579.11 75.6256 577.64 76.408C576.171 77.1905 574.824 77.5403 573.6 77.4573ZM589.082 58.4203C586.39 59.4942 583.952 60.7722 581.767 62.2546C579.583 63.7103 577.82 65.2747 576.477 66.9478C575.161 68.6226 574.448 70.2715 574.338 71.8945C574.307 72.3468 574.505 72.5873 574.93 72.6162C575.436 72.6504 576.121 72.4028 576.985 71.8734C577.876 71.3457 578.847 70.6364 579.896 69.7453C580.947 68.8276 582.005 67.8034 583.071 66.6729C584.138 65.5157 585.141 64.3274 586.079 63.108C587.017 61.8886 587.778 60.7107 588.363 59.5743C588.578 59.1613 588.818 58.7766 589.082 58.4203ZM630.297 59.5689C630.275 59.8882 630.15 60.1604 629.921 60.3854C629.691 60.6104 629.413 60.7786 629.084 60.89C628.62 61.0456 627.818 61.2319 626.681 61.4489C625.544 61.6658 624.165 61.9064 622.543 62.1708C620.948 62.4369 619.232 62.7082 617.396 62.9847C615.562 63.2346 613.728 63.4712 611.896 63.6945C611.031 66.2018 610.147 68.788 609.245 71.4531C608.345 74.0916 607.447 76.6902 606.552 79.2489C606.223 80.1621 605.856 80.8455 605.451 81.2991C605.044 81.7794 604.388 81.9889 603.484 81.9276C602.499 81.8609 601.856 81.4966 601.553 80.8346C601.276 80.2011 601.292 79.3603 601.604 78.3123C602.492 75.4591 603.314 72.8019 604.068 70.3406C604.85 67.8812 605.479 65.8925 605.956 64.3746C604.342 64.5325 602.93 64.6507 601.722 64.7292C600.516 64.7811 599.661 64.7766 599.157 64.7158C598.602 64.6247 598.152 64.367 597.807 63.9427C597.461 63.5184 597.322 63.0145 597.388 62.4309C597.477 61.9024 597.747 61.4664 598.198 61.1227C598.651 60.7525 599.173 60.5473 599.763 60.5071C600.593 60.4832 601.666 60.4356 602.98 60.3643C604.295 60.2929 605.744 60.204 607.328 60.0976C607.766 58.7641 608.26 57.3943 608.809 55.9883C609.361 54.5556 609.921 53.1904 610.49 51.8925C611.088 50.5699 611.647 49.4184 612.168 48.438C612.688 47.4576 613.15 46.7539 613.553 46.3269C613.869 46.0008 614.247 45.7591 614.685 45.6017C615.15 45.4461 615.595 45.3827 616.021 45.4116C616.58 45.4494 617.018 45.6796 617.337 46.1021C617.656 46.5246 617.797 47.002 617.761 47.5341C617.747 47.7469 617.718 47.9722 617.676 48.2098C617.635 48.4209 617.567 48.6301 617.473 48.8375C616.877 50.1336 616.223 51.7063 615.509 53.5556C614.823 55.4068 614.097 57.4423 613.331 59.6624C615.347 59.5049 617.322 59.3447 619.257 59.1818C621.221 58.9942 622.997 58.8205 624.585 58.6608C626.201 58.4763 627.495 58.31 628.467 58.1621C629.012 58.0119 629.462 58.0824 629.816 58.3737C630.173 58.6384 630.333 59.0368 630.297 59.5689ZM623.762 82.4596C622.538 82.3766 621.683 81.9713 621.198 81.2435C620.713 80.5157 620.515 79.4866 620.605 78.1564C620.688 76.9325 621.023 75.3515 621.608 73.4133C622.222 71.4503 622.998 69.2711 623.936 66.8757C624.901 64.4554 625.965 61.975 627.126 59.4343C628.289 56.867 629.488 54.3557 630.723 51.9003C631.961 49.4182 633.157 47.1472 634.312 45.0873C634.854 44.1885 635.403 43.5842 635.958 43.2744C636.514 42.9646 637.111 42.8313 637.75 42.8746C638.362 42.916 638.869 43.1241 639.271 43.4988C639.675 43.8469 639.853 44.3802 639.804 45.0985C639.793 45.2582 639.539 45.8557 639.041 46.891C638.545 47.8998 637.894 49.2189 637.089 50.8482C636.286 52.4508 635.401 54.2619 634.436 56.2812C633.472 58.274 632.502 60.3599 631.526 62.5388C630.552 64.6912 629.659 66.8224 628.848 68.9324C628.037 71.0424 627.369 73.0018 626.846 74.8105C627.862 73.6232 628.953 72.3073 630.12 70.8629C631.316 69.3936 632.523 67.9386 633.744 66.4978C634.992 65.0322 636.205 63.6978 637.382 62.4946C638.586 61.2933 639.693 60.3392 640.704 59.6326C641.714 58.9259 642.578 58.5969 643.296 58.6456C644.626 58.7357 645.665 59.1803 646.413 59.9793C647.189 60.7536 647.517 62.032 647.396 63.8145C647.34 64.6393 647.113 65.6262 646.714 66.7752C646.318 67.8976 645.85 69.0821 645.311 70.3285C644.801 71.5501 644.346 72.7354 643.948 73.8845C643.549 75.0335 643.32 76.047 643.26 76.925C643.228 77.4039 643.438 77.6586 643.89 77.6893C645.194 77.7776 646.53 77.5875 647.898 77.1189C649.293 76.6521 650.63 76.0478 651.91 75.3059C653.218 74.5393 654.405 73.7778 655.472 73.0215C656.568 72.2404 657.453 71.5922 658.13 71.0767C658.611 70.6817 659.042 70.4303 659.424 70.3225C659.807 70.1881 660.158 70.1317 660.478 70.1533C661.568 70.2272 662.077 70.8096 662.003 71.9004C661.989 72.1133 661.931 72.3766 661.829 72.6905C661.73 72.9777 661.452 73.3331 660.995 73.7565C660.539 74.18 659.857 74.7753 658.95 75.5424C658.043 76.3095 656.985 77.1198 655.778 77.9735C654.598 78.829 653.313 79.6374 651.926 80.3986C650.566 81.1351 649.176 81.7225 647.757 82.1609C646.337 82.5993 644.976 82.7743 643.672 82.686C641.703 82.5526 640.225 81.8911 639.236 80.7016C638.246 79.5386 637.815 78.0127 637.942 76.1237C638.031 74.82 638.408 73.2018 639.073 71.269C639.741 69.3096 640.477 67.3148 641.283 65.2847C640.29 66.1262 639.246 67.1379 638.15 68.3199C637.057 69.4752 635.944 70.7095 634.813 72.0227C633.683 73.3093 632.568 74.5835 631.467 75.8453C630.394 77.0822 629.368 78.2155 628.39 79.245C627.413 80.248 626.53 81.0435 625.742 81.6315C624.954 82.2196 624.294 82.4956 623.762 82.4596ZM680.936 85.2508C679.899 85.1805 679.159 84.8498 678.718 84.2586C678.276 83.694 678.109 82.6003 678.219 80.9773C678.313 79.5938 678.661 77.8133 679.262 75.6357C679.864 73.458 680.531 71.1111 681.263 68.5948C678.086 71.6938 674.538 73.5649 670.619 74.2081C669.739 75.7522 668.736 77.1542 667.608 78.4142C666.48 79.6742 665.277 80.6751 663.997 81.417C662.745 82.134 661.468 82.4484 660.164 82.36C658.541 82.2501 657.181 81.6233 656.082 80.4798C655.01 79.3381 654.549 77.6631 654.699 75.4548C654.799 73.9649 655.111 72.7164 655.634 71.7094C656.158 70.6759 656.731 69.9128 657.353 69.4204C656.942 68.3769 656.781 67.2034 656.869 65.8997C656.988 64.1437 657.573 62.6197 658.622 61.3277C659.672 60.0357 661.008 59.0571 662.63 58.3919C664.279 57.7285 666.034 57.4599 667.897 57.5861C668.934 57.6564 669.901 57.9891 670.796 58.5843C671.719 59.1547 672.438 59.9919 672.951 61.0958C673.493 62.1748 673.709 63.5125 673.601 65.1089C673.511 66.4392 673.212 67.889 672.705 69.4583C674.67 68.4688 676.636 67.0652 678.603 65.2473C680.597 63.4313 682.408 61.3623 684.035 59.0403C684.536 58.3526 685.199 58.0367 686.024 58.0926C686.716 58.1394 687.247 58.3892 687.617 58.842C688.015 59.2699 688.192 59.8164 688.147 60.4816C688.138 60.6146 688.029 61.0482 687.819 61.7823C687.608 62.5165 687.33 63.4732 686.983 64.6524C686.637 65.805 686.257 67.0756 685.842 68.464C685.454 69.8543 685.064 71.2712 684.672 72.7147C684.281 74.1581 683.921 75.5236 683.593 76.8111C684.369 75.6075 685.205 74.3277 686.098 72.9716C687.02 71.5908 687.967 70.2384 688.939 68.9144C689.912 67.5638 690.864 66.3453 691.793 65.2589C692.721 64.1726 693.568 63.3211 694.331 62.7047C695.096 62.0616 695.732 61.7572 696.237 61.7914C697.248 61.8599 698.08 62.2103 698.732 62.8425C699.384 63.4747 699.689 64.0967 699.648 64.7087C699.606 65.3206 699.476 66.2606 699.256 67.5286C699.037 68.7967 698.766 70.2217 698.445 71.8036C698.153 73.3607 697.846 74.9302 697.525 76.5122C697.204 78.0941 696.933 79.5324 696.711 80.827C696.492 82.0951 696.361 83.0484 696.317 83.6869C696.281 84.219 695.994 84.7074 695.456 85.1521C694.918 85.5967 694.33 85.7974 693.692 85.7542C693.638 85.7506 693.545 85.7443 693.412 85.7352C693.091 85.7402 692.802 85.6672 692.545 85.5161C692.286 85.3917 692.087 84.9773 691.948 84.2729C691.835 83.5703 691.834 82.3943 691.946 80.7447C692.022 79.6273 692.158 78.407 692.355 77.084C692.551 75.7609 692.774 74.4396 693.024 73.1201C693.302 71.7759 693.587 70.5256 693.88 69.3694C693.11 70.4666 692.25 71.718 691.3 73.1236C690.378 74.5044 689.413 75.9225 688.406 77.3777C687.4 78.8063 686.415 80.1294 685.451 81.347C684.514 82.5398 683.648 83.4967 682.851 84.2178C682.08 84.9407 681.442 85.285 680.936 85.2508ZM666.834 70.9047C667.25 69.8905 667.602 68.8319 667.891 67.7289C668.181 66.5993 668.363 65.489 668.437 64.3982C668.468 63.9459 668.405 63.5006 668.247 63.0623C668.09 62.624 667.785 62.3895 667.333 62.3589C666.428 62.2976 665.524 62.4234 664.621 62.7364C663.744 63.0512 663.003 63.5356 662.398 64.1895C661.792 64.8434 661.457 65.6492 661.392 66.607C661.334 67.4584 661.565 68.1957 662.084 68.8188C662.63 69.4438 663.318 69.9315 664.15 70.2818C665.008 70.634 665.863 70.8389 666.714 70.8966C666.741 70.8984 666.781 70.9011 666.834 70.9047ZM664.96 74.3058C664.03 74.2161 663.134 74.0351 662.27 73.7627C661.408 73.4638 660.633 73.0772 659.943 72.6028C659.835 73.0231 659.727 73.4301 659.62 73.8237C659.515 74.1908 659.451 74.5473 659.427 74.8932C659.388 75.4785 659.445 76.0169 659.599 76.5084C659.781 76.9751 660.191 77.2301 660.83 77.2734C661.495 77.3185 662.18 77.0709 662.885 76.5306C663.616 75.9921 664.308 75.2505 664.96 74.3058ZM707.555 87.0543C706.411 86.9768 705.611 86.7622 705.153 86.4105C704.723 86.0605 704.528 85.5796 704.57 84.9677C704.606 84.4356 704.822 83.9959 705.22 83.6487C705.62 83.2748 706.472 82.9316 707.776 82.619C709.296 82.2677 710.741 81.8444 712.111 81.3492C713.51 80.8292 714.659 80.2389 715.559 79.5782C716.486 78.9194 716.976 78.1908 717.03 77.3927C717.066 76.8606 716.906 76.4622 716.55 76.1975C716.22 75.9346 715.816 75.7869 715.337 75.7545C714.938 75.7274 714.348 75.7543 713.567 75.835C712.815 75.891 711.981 75.9814 711.063 76.1064C710.148 76.2047 709.26 76.2916 708.4 76.3669C707.568 76.4175 706.859 76.4229 706.274 76.3833C704.89 76.2895 703.887 75.9142 703.263 75.2572C702.641 74.5736 702.364 73.7396 702.43 72.7551C702.466 72.223 702.795 71.5103 703.417 70.617C704.039 69.7236 704.853 68.7498 705.86 67.6954C706.867 66.6411 707.98 65.5939 709.2 64.554C710.42 63.5141 711.647 62.5682 712.88 61.7163C714.142 60.8396 715.325 60.158 716.427 59.6713C717.531 59.1581 718.455 58.9267 719.2 58.9772C720.051 59.0349 720.712 59.3469 721.181 59.9133C721.677 60.4815 721.895 61.2178 721.833 62.1224C721.804 62.5481 721.733 63.011 721.619 63.5111C721.507 63.9846 721.277 64.4101 720.931 64.7875C720.587 65.1384 720.076 65.3711 719.4 65.4857C718.724 65.6002 717.822 65.5123 716.692 65.222C715.742 65.8258 714.748 66.4935 713.71 67.225C712.7 67.9316 711.74 68.6818 710.831 69.4755C709.924 70.2426 709.164 71.0063 708.551 71.7666C709.557 71.5141 710.692 71.337 711.955 71.2355C713.22 71.1074 714.491 71.0866 715.768 71.1731C717.311 71.2777 718.542 71.6417 719.462 72.2653C720.411 72.8642 721.08 73.6312 721.471 74.5664C721.889 75.5035 722.061 76.5174 721.987 77.6082C721.904 78.8321 721.422 80.0289 720.541 81.1987C719.66 82.3685 718.52 83.4138 717.121 84.3347C715.722 85.2556 714.191 85.967 712.526 86.469C710.862 86.971 709.205 87.1661 707.555 87.0543ZM163.877 104.543C162.281 104.435 161.198 104.041 160.629 103.361C160.086 102.709 159.851 101.838 159.924 100.747C160.238 96.1178 161.43 91.3475 163.5 86.4362C165.599 81.5001 168.403 76.5984 171.913 71.7313C172.505 70.8893 172.979 70.4003 173.336 70.2641C173.692 70.1279 174.084 70.0742 174.509 70.103C175.121 70.1445 175.639 70.3934 176.062 70.8497C176.512 71.3079 176.714 71.8828 176.667 72.5746C176.653 72.7874 176.387 73.3574 175.87 74.2846C175.353 75.2117 174.671 76.395 173.825 77.8345C173.006 79.2757 172.106 80.912 171.127 82.7433C170.15 84.548 169.178 86.4601 168.213 88.4794C167.274 90.5006 166.441 92.5423 165.713 94.6045C166.695 93.5217 167.799 92.4205 169.024 91.3007C170.277 90.1562 171.564 89.1208 172.883 88.1945C174.203 87.2416 175.47 86.4988 176.682 85.9662C177.896 85.407 178.968 85.1589 179.9 85.222C180.778 85.2815 181.575 85.5493 182.291 86.0255C183.034 86.5034 183.614 87.2109 184.031 88.148C184.449 89.085 184.609 90.2719 184.512 91.7086C184.405 93.2783 183.844 94.8573 182.828 96.4456C181.838 98.0357 180.444 99.4781 178.646 100.773C176.874 102.069 174.734 103.074 172.227 103.786C169.747 104.5 166.963 104.752 163.877 104.543ZM165.861 100.107C167.921 100.086 169.8 99.7725 171.498 99.1659C173.223 98.5612 174.72 97.7672 175.989 96.7841C177.258 95.801 178.252 94.7457 178.97 93.6183C179.69 92.4644 180.085 91.3552 180.158 90.291C180.174 90.0516 180.115 89.9273 179.982 89.9183C179.424 89.8805 178.701 90.0855 177.816 90.5333C176.932 90.9545 175.957 91.5432 174.89 92.2995C173.823 93.0558 172.737 93.891 171.633 94.8051C170.529 95.7192 169.478 96.6369 168.48 97.5582C167.482 98.4796 166.609 99.3292 165.861 100.107ZM200.043 107.555C199.431 107.513 198.889 107.223 198.418 106.683C197.972 106.172 197.787 105.344 197.865 104.2C197.922 103.348 198.069 102.169 198.305 100.661C198.569 99.1291 198.996 97.1668 199.586 94.7746C198.525 96.6271 197.438 98.2641 196.326 99.6855C195.214 101.107 194.137 102.21 193.095 102.995C192.082 103.755 191.136 104.105 190.258 104.045C188.848 103.95 187.759 103.448 186.992 102.541C186.227 101.607 185.925 99.943 186.087 97.5485C186.165 96.4044 186.345 95.1203 186.629 93.6963C186.939 92.274 187.303 90.8553 187.719 89.4402C188.136 88.0251 188.542 86.7697 188.937 85.6739C189.36 84.5533 189.724 83.7226 190.028 83.1819C190.273 82.7175 190.564 82.363 190.901 82.1186C191.265 81.876 191.713 81.7727 192.245 81.8087C193.097 81.8664 193.73 82.1899 194.144 82.7793C194.559 83.3687 194.746 83.956 194.706 84.5413C194.676 84.9936 194.525 85.6383 194.255 86.4752C194.011 87.314 193.707 88.2423 193.344 89.26C193.008 90.2796 192.656 91.3249 192.29 92.3959C191.923 93.4669 191.601 94.4741 191.323 95.4175C191.072 96.3627 190.924 97.1679 190.879 97.833C190.823 98.6578 191.115 99.0918 191.753 99.1351C192.126 99.1603 192.629 98.8336 193.263 98.1549C193.923 97.478 194.627 96.5635 195.373 95.4113C196.148 94.2343 196.93 92.9509 197.719 91.561C198.536 90.1464 199.288 88.7139 199.974 87.2637C200.689 85.7886 201.303 84.4269 201.815 83.1787C202.135 82.3986 202.532 81.8642 203.006 81.5756C203.48 81.2869 204.009 81.1625 204.595 81.2021C205.499 81.2634 206.174 81.563 206.619 82.101C207.09 82.6407 207.294 83.3762 207.231 84.3074C207.202 84.7331 207.087 85.4469 206.885 86.449C206.684 87.451 206.431 88.6232 206.126 89.9657C205.848 91.3099 205.524 92.7313 205.155 94.2298C204.787 95.7283 204.42 97.2002 204.054 98.6455C203.716 100.093 203.385 101.42 203.063 102.628C202.742 103.809 202.478 104.753 202.27 105.46C201.931 106.507 201.569 107.124 201.182 107.311C200.795 107.499 200.415 107.58 200.043 107.555ZM239.439 88.2135C239.417 88.5328 239.292 88.8049 239.063 89.03C238.834 89.255 238.555 89.4232 238.227 89.5346C237.762 89.6902 236.961 89.8765 235.824 90.0934C234.686 90.3104 233.307 90.551 231.685 90.8154C230.09 91.0815 228.375 91.3528 226.539 91.6293C224.704 91.8792 222.871 92.1158 221.038 92.3391C220.173 94.8464 219.29 97.4326 218.387 100.098C217.487 102.736 216.589 105.335 215.694 107.893C215.365 108.807 214.998 109.49 214.593 109.944C214.186 110.424 213.531 110.633 212.626 110.572C211.642 110.506 210.998 110.141 210.696 109.479C210.418 108.846 210.435 108.005 210.746 106.957C211.635 104.104 212.456 101.446 213.211 98.9852C213.992 96.5257 214.621 94.5371 215.098 93.0192C213.484 93.1771 212.073 93.2953 210.865 93.3738C209.658 93.4257 208.803 93.4212 208.3 93.3604C207.745 93.2693 207.294 93.0116 206.949 92.5873C206.603 92.163 206.464 91.6591 206.53 91.0755C206.619 90.547 206.89 90.1109 207.34 89.7673C207.793 89.3971 208.315 89.1919 208.906 89.1517C209.736 89.1278 210.808 89.0801 212.123 89.0088C213.437 88.9375 214.886 88.8486 216.471 88.7421C216.908 87.4087 217.402 86.0389 217.952 84.6329C218.503 83.2002 219.063 81.8349 219.633 80.5371C220.23 79.2145 220.789 78.063 221.31 77.0826C221.831 76.1022 222.293 75.3985 222.696 74.9714C223.012 74.6454 223.389 74.4037 223.827 74.2463C224.292 74.0907 224.738 74.0273 225.163 74.0561C225.722 74.094 226.161 74.3242 226.48 74.7467C226.798 75.1692 226.94 75.6465 226.904 76.1787C226.889 76.3915 226.861 76.6167 226.818 76.8544C226.777 77.0654 226.709 77.2747 226.615 77.4821C226.019 78.7782 225.365 80.3508 224.652 82.2002C223.965 84.0513 223.239 86.0869 222.474 88.3069C224.489 88.1495 226.464 87.9893 228.4 87.8264C230.364 87.6387 232.139 87.4651 233.727 87.3054C235.343 87.1208 236.638 86.9546 237.61 86.8067C238.155 86.6565 238.604 86.727 238.959 87.0183C239.315 87.283 239.475 87.6814 239.439 88.2135ZM256.567 88.1713C255.29 88.0847 254.395 87.8904 253.88 87.5883C253.366 87.2862 253.069 86.9453 252.988 86.5656C252.906 86.1859 252.875 85.863 252.893 85.597C252.895 85.5704 252.896 85.5571 252.896 85.5571C252.935 84.9718 253.239 84.4311 253.807 83.935C254.377 83.4123 255.148 83.077 256.121 82.9291C256.93 82.8235 257.885 82.7279 258.986 82.6421C260.117 82.5316 261.298 82.4513 262.531 82.4012C263.792 82.3263 264.998 82.2877 266.147 82.2854C267.296 82.2831 268.31 82.3116 269.188 82.3711C270.359 82.4504 271.252 82.6847 271.867 83.0738C272.484 83.4363 272.897 83.8386 273.108 84.2805C273.345 84.7242 273.454 85.0924 273.434 85.385C273.416 85.6511 273.332 85.9126 273.18 86.1697C273.029 86.4267 272.679 86.6703 272.129 86.9003C271.605 87.1321 270.777 87.3298 269.643 87.4936C268.509 87.6573 266.951 87.7789 264.968 87.8584C264.78 87.8724 264.578 87.8855 264.364 87.8976C264.1 89.0291 263.781 90.3839 263.407 91.9622C263.034 93.514 262.63 95.1437 262.193 96.8514C261.785 98.5344 261.382 100.151 260.983 101.701C260.612 103.226 260.283 104.527 259.997 105.603C261.095 105.57 262.058 105.556 262.886 105.558C263.741 105.563 264.315 105.575 264.608 105.595C265.539 105.658 266.164 105.901 266.483 106.323C266.804 106.719 266.943 107.223 266.902 107.835C266.885 108.074 266.434 108.418 265.549 108.866C264.663 109.314 263.442 109.779 261.886 110.261C260.357 110.746 258.605 111.148 256.632 111.469C255.336 111.675 254.056 111.816 252.795 111.891C251.534 111.965 250.624 111.984 250.065 111.946C248.974 111.872 248.283 111.625 247.991 111.204C247.725 110.785 247.613 110.27 247.654 109.658C247.69 109.126 247.887 108.591 248.244 108.054C248.628 107.519 249.134 107.152 249.762 106.954C250.417 106.758 251.137 106.58 251.923 106.419C252.709 106.258 253.52 106.126 254.355 106.023C254.456 105.334 254.624 104.424 254.861 103.291C255.098 102.157 255.356 100.919 255.634 99.5743C255.941 98.2052 256.248 96.8228 256.557 95.4271C256.893 94.0067 257.211 92.6784 257.508 91.4423C257.834 90.1815 258.109 89.0909 258.331 88.1705C257.554 88.198 256.966 88.1983 256.567 88.1713ZM275.352 95.1771C274.846 95.1428 274.47 94.9837 274.222 94.6996C273.974 94.4155 273.872 93.9409 273.917 93.2757C273.944 92.8767 274.092 92.4724 274.36 92.0629C274.655 91.6552 274.982 91.1696 275.341 90.6059C275.7 90.0422 276.027 89.3561 276.322 88.5475C276.644 87.7408 276.844 86.7654 276.921 85.6213C276.947 85.2488 276.945 84.8746 276.917 84.4985C276.918 84.0976 276.93 83.7242 276.953 83.3783C277.141 80.6113 278.112 79.2873 279.868 79.4063C280.666 79.4604 281.299 79.7839 281.767 80.3769C282.235 80.9698 282.412 82.1044 282.298 83.7806C282.172 85.643 281.833 87.2905 281.282 88.7232C280.73 90.1558 280.088 91.3551 279.354 92.3211C278.62 93.287 277.89 94.0126 277.162 94.4979C276.434 94.9831 275.831 95.2095 275.352 95.1771ZM314.468 112.581C314.211 114.007 313.311 114.668 311.768 114.563C310.97 114.509 310.348 114.226 309.901 113.715C309.481 113.205 309.302 112.498 309.363 111.594C309.468 110.051 309.646 108.406 309.898 106.659C310.179 104.887 310.487 103.104 310.822 101.309C311.184 99.5158 311.527 97.8018 311.852 96.1666C310.8 97.4852 309.693 98.8402 308.53 100.231C307.366 101.623 306.206 102.974 305.048 104.285C303.89 105.597 302.781 106.778 301.72 107.828C300.689 108.854 299.751 109.673 298.908 110.284C298.067 110.868 297.38 111.143 296.848 111.107C295.571 111.02 294.498 110.48 293.63 109.485C292.764 108.464 292.38 107.222 292.479 105.759C292.513 105.254 292.613 104.579 292.777 103.735C292.943 102.864 293.139 101.942 293.365 100.968C293.591 99.9944 293.788 99.0722 293.953 98.2014C294.119 97.3306 294.219 96.6425 294.254 96.137C294.254 96.137 294.255 96.1104 294.259 96.0572C294.295 95.9259 294.273 95.8576 294.193 95.8522C294.086 95.845 293.769 96.1844 293.242 96.8703C292.716 97.5296 292.069 98.3945 291.302 99.4651C290.535 100.536 289.724 101.657 288.869 102.828C288.041 104.002 287.259 105.098 286.521 106.117C285.811 107.138 285.223 107.927 284.757 108.483C284.111 109.348 283.527 109.883 283.005 110.089C282.483 110.294 281.89 110.374 281.225 110.329C280.293 110.266 279.582 109.91 279.092 109.262C278.63 108.589 278.437 107.681 278.515 106.537C278.547 106.058 278.677 105.318 278.906 104.318C279.16 103.32 279.462 102.218 279.811 101.012C280.162 99.7794 280.51 98.5869 280.855 97.4343C281.229 96.2568 281.55 95.2629 281.819 94.4526C282.132 93.378 282.516 92.6422 282.971 92.2454C283.454 91.8237 284.041 91.6364 284.733 91.6832C286.356 91.7932 287.113 92.6463 287.005 94.2427C286.985 94.5353 286.86 95.0079 286.628 95.6604C286.397 96.313 286.119 97.0692 285.793 97.9292C285.468 98.7891 285.127 99.6748 284.771 100.586C284.417 101.471 284.12 102.306 283.88 103.092C284.594 102.017 285.367 100.867 286.198 99.6405C287.03 98.4139 287.873 97.2148 288.727 96.0432C289.608 94.8734 290.469 93.8092 291.309 92.8504C292.176 91.8935 293.015 91.1485 293.826 90.6154C294.639 90.0558 295.391 89.7994 296.083 89.8463C296.775 89.8931 297.436 90.1918 298.067 90.7424C298.7 91.2664 299.203 91.9286 299.576 92.729C299.978 93.5046 300.15 94.3181 300.092 95.1695C300.038 95.9676 299.867 96.9182 299.578 98.0212C299.29 99.1243 298.971 100.279 298.622 101.485C298.273 102.69 298.006 103.875 297.82 105.038C298.793 104.089 299.829 103.01 300.926 101.801C302.025 100.566 303.154 99.2925 304.312 97.9811C305.47 96.6697 306.599 95.3964 307.698 94.1613C308.824 92.9279 309.862 91.8088 310.812 90.8041C311.789 89.8011 312.644 89.0171 313.377 88.4521C314.112 87.8604 314.666 87.5772 315.038 87.6024C316.129 87.6763 316.961 88.0267 317.533 88.6535C318.133 89.2555 318.386 90.2615 318.291 91.6716C318.231 92.5496 318.087 93.6891 317.858 95.0902C317.656 96.4931 317.393 98.0121 317.069 99.6472C316.772 101.258 316.448 102.893 316.095 104.553C315.77 106.188 315.467 107.704 315.185 109.102C314.903 110.499 314.664 111.659 314.468 112.581ZM343.02 117.482C341.876 117.405 341.075 117.19 340.618 116.838C340.188 116.489 339.993 116.008 340.034 115.396C340.07 114.864 340.287 114.424 340.685 114.077C341.085 113.703 341.936 113.36 343.24 113.047C344.761 112.696 346.206 112.272 347.576 111.777C348.975 111.257 350.124 110.667 351.024 110.006C351.95 109.347 352.441 108.619 352.495 107.821C352.531 107.289 352.371 106.89 352.015 106.625C351.685 106.363 351.281 106.215 350.802 106.182C350.403 106.155 349.813 106.182 349.032 106.263C348.28 106.319 347.445 106.409 346.528 106.534C345.613 106.633 344.725 106.72 343.865 106.795C343.033 106.845 342.324 106.851 341.739 106.811C340.355 106.718 339.351 106.342 338.728 105.685C338.106 105.002 337.828 104.168 337.895 103.183C337.931 102.651 338.26 101.938 338.882 101.045C339.504 100.152 340.318 99.1778 341.325 98.1234C342.332 97.0691 343.445 96.0219 344.665 94.982C345.885 93.9421 347.111 92.9962 348.345 92.1443C349.607 91.2676 350.789 90.5859 351.891 90.0993C352.995 89.5861 353.92 89.3547 354.665 89.4052C355.516 89.4629 356.177 89.7749 356.646 90.3413C357.142 90.9094 357.359 91.6458 357.298 92.5504C357.269 92.9761 357.198 93.439 357.084 93.9391C356.972 94.4126 356.742 94.8381 356.396 95.2155C356.051 95.5664 355.541 95.7991 354.865 95.9136C354.189 96.0282 353.286 95.9403 352.157 95.65C351.207 96.2538 350.213 96.9215 349.175 97.653C348.165 98.3596 347.205 99.1098 346.296 99.9035C345.389 100.671 344.629 101.434 344.016 102.195C345.022 101.942 346.156 101.765 347.42 101.663C348.684 101.535 349.955 101.515 351.232 101.601C352.776 101.706 354.007 102.07 354.927 102.693C355.875 103.292 356.545 104.059 356.936 104.994C357.354 105.931 357.526 106.945 357.452 108.036C357.369 109.26 356.887 110.457 356.006 111.627C355.125 112.796 353.985 113.842 352.586 114.763C351.187 115.684 349.655 116.395 347.991 116.897C346.327 117.399 344.67 117.594 343.02 117.482ZM388.574 98.3177C388.552 98.637 388.427 98.9092 388.198 99.1342C387.968 99.3592 387.69 99.5274 387.361 99.6388C386.897 99.7944 386.095 99.9807 384.958 100.198C383.821 100.415 382.442 100.655 380.82 100.92C379.225 101.186 377.509 101.457 375.673 101.734C373.839 101.983 372.005 102.22 370.173 102.443C369.308 104.951 368.424 107.537 367.522 110.202C366.622 112.84 365.724 115.439 364.829 117.998C364.5 118.911 364.133 119.594 363.728 120.048C363.321 120.528 362.665 120.738 361.761 120.676C360.776 120.61 360.133 120.245 359.83 119.583C359.553 118.95 359.569 118.109 359.881 117.061C360.769 114.208 361.591 111.551 362.345 109.089C363.127 106.63 363.756 104.641 364.233 103.123C362.619 103.281 361.207 103.399 359.999 103.478C358.793 103.53 357.938 103.525 357.434 103.465C356.879 103.374 356.429 103.116 356.084 102.692C355.738 102.267 355.599 101.763 355.665 101.18C355.754 100.651 356.024 100.215 356.475 99.8715C356.928 99.5013 357.45 99.2961 358.04 99.2559C358.87 99.232 359.943 99.1844 361.257 99.1131C362.572 99.0417 364.021 98.9528 365.605 98.8464C366.043 97.5129 366.537 96.1431 367.086 94.7371C367.638 93.3044 368.198 91.9392 368.767 90.6413C369.365 89.3187 369.924 88.1672 370.445 87.1868C370.965 86.2064 371.427 85.5027 371.83 85.0757C372.146 84.7496 372.524 84.5079 372.962 84.3505C373.427 84.1949 373.872 84.1315 374.298 84.1604C374.857 84.1982 375.295 84.4284 375.614 84.8509C375.933 85.2734 376.074 85.7508 376.038 86.2829C376.024 86.4957 375.995 86.721 375.953 86.9586C375.912 87.1697 375.844 87.3789 375.75 87.5863C375.154 88.8824 374.5 90.4551 373.786 92.3044C373.1 94.1556 372.374 96.1911 371.608 98.4112C373.624 98.2537 375.599 98.0935 377.534 97.9306C379.498 97.743 381.274 97.5693 382.862 97.4096C384.478 97.2251 385.772 97.0588 386.744 96.9109C387.289 96.7607 387.739 96.8312 388.093 97.1225C388.45 97.3872 388.61 97.7856 388.574 98.3177ZM380.435 117.572C379.69 117.521 379.042 117.223 378.491 116.678C377.966 116.135 377.743 115.291 377.82 114.147C377.862 113.535 378 112.676 378.235 111.569C378.497 110.464 378.819 109.27 379.2 107.986C379.583 106.676 379.991 105.38 380.425 104.1C380.886 102.822 381.324 101.689 381.738 100.701C382.154 99.6869 382.512 98.9361 382.813 98.4486C383.2 97.8601 383.545 97.5093 383.846 97.3961C384.176 97.2581 384.488 97.199 384.78 97.2188C385.313 97.2549 385.794 97.4479 386.225 97.7978C386.682 98.1495 386.874 98.8708 386.8 99.9616C386.771 100.387 386.644 101.074 386.42 102.021C386.197 102.941 385.923 104.018 385.599 105.253C385.275 106.487 384.922 107.759 384.539 109.07C384.183 110.382 383.831 111.628 383.484 112.807C383.165 113.961 382.899 114.932 382.685 115.719C382.507 116.376 382.194 116.849 381.747 117.139C381.324 117.458 380.887 117.602 380.435 117.572ZM386.684 93.3787C385.806 93.3193 385.012 93.0115 384.301 92.4555C383.592 91.873 383.275 91.0362 383.349 89.9454C383.41 89.0408 383.686 88.3245 384.176 87.7964C384.666 87.2683 385.225 86.9053 385.853 86.7073C386.51 86.4845 387.078 86.3893 387.557 86.4218C388.036 86.4542 388.56 86.5967 389.131 86.8492C389.704 87.0751 390.185 87.4685 390.575 88.0295C390.993 88.5656 391.169 89.3126 391.105 90.2704C391.061 90.909 390.796 91.479 390.307 91.9804C389.821 92.4553 389.235 92.8165 388.55 93.0641C387.892 93.3135 387.27 93.4184 386.684 93.3787ZM397.148 121.109C394.753 120.947 392.914 120.088 391.63 118.531C390.374 116.949 389.838 114.788 390.024 112.047C390.125 110.557 390.443 108.828 390.977 106.86C391.513 104.865 392.176 102.771 392.966 100.58C393.784 98.3634 394.641 96.1763 395.535 94.0185C396.457 91.8625 397.354 89.8653 398.227 88.0267C399.1 86.1882 399.859 84.6493 400.504 83.4101C401.049 82.4581 401.761 82.0119 402.639 82.0714C403.198 82.1092 403.639 82.3128 403.961 82.6821C404.31 83.0532 404.458 83.6246 404.406 84.3961C404.381 84.7686 404.14 85.5675 403.683 86.7927C403.225 88.0179 402.629 89.5277 401.892 91.322C401.184 93.0916 400.413 95.0038 399.579 97.0588C398.772 99.1156 397.99 101.187 397.234 103.274C396.504 105.363 395.889 107.34 395.389 109.203C394.89 111.04 394.596 112.611 394.508 113.915C394.472 114.447 394.59 114.882 394.861 115.221C395.158 115.562 395.56 115.75 396.065 115.784C397.156 115.858 398.287 115.734 399.458 115.413C400.656 115.093 401.834 114.665 402.993 114.129C404.179 113.594 405.3 113.015 406.358 112.392C407.416 111.769 408.365 111.178 409.204 110.62C410.072 110.038 410.772 109.577 411.303 109.239C412.002 108.779 412.471 108.557 412.711 108.573C413.615 108.634 414.038 109.104 413.979 109.982C413.964 110.195 413.668 110.616 413.091 111.245C412.599 111.799 411.91 112.501 411.024 113.35C410.138 114.198 409.115 115.091 407.956 116.028C406.825 116.941 405.618 117.794 404.335 118.59C403.078 119.386 401.832 120.024 400.597 120.501C399.362 120.979 398.212 121.182 397.148 121.109ZM416.588 122.427C414.193 122.264 412.354 121.405 411.069 119.848C409.813 118.266 409.278 116.105 409.464 113.364C409.565 111.874 409.882 110.145 410.417 108.177C410.953 106.182 411.616 104.089 412.406 101.897C413.224 99.6805 414.081 97.4934 414.975 95.3356C415.896 93.1796 416.793 91.1823 417.666 89.3438C418.539 87.5053 419.298 85.9664 419.944 84.7272C420.489 83.7752 421.201 83.329 422.079 83.3885C422.638 83.4263 423.078 83.6299 423.401 83.9992C423.75 84.3703 423.898 84.9417 423.846 85.7132C423.821 86.0857 423.58 86.8846 423.122 88.1098C422.665 89.335 422.068 90.8448 421.332 92.6391C420.624 94.4087 419.853 96.3209 419.019 98.3759C418.211 100.433 417.43 102.505 416.673 104.592C415.944 106.68 415.329 108.657 414.828 110.52C414.33 112.358 414.036 113.928 413.948 115.232C413.912 115.764 414.029 116.199 414.3 116.538C414.598 116.879 415 117.067 415.505 117.101C416.596 117.175 417.727 117.051 418.898 116.73C420.096 116.41 421.274 115.982 422.433 115.446C423.618 114.911 424.74 114.332 425.798 113.709C426.856 113.086 427.805 112.495 428.644 111.938C429.512 111.355 430.212 110.894 430.742 110.556C431.442 110.096 431.911 109.874 432.151 109.89C433.055 109.951 433.478 110.421 433.418 111.299C433.404 111.512 433.108 111.933 432.531 112.562C432.039 113.116 431.35 113.818 430.464 114.667C429.578 115.516 428.555 116.408 427.396 117.346C426.265 118.258 425.058 119.112 423.774 119.907C422.518 120.703 421.272 121.341 420.037 121.818C418.802 122.296 417.652 122.499 416.588 122.427ZM449.636 123.904C448.04 123.796 446.957 123.402 446.388 122.722C445.844 122.07 445.61 121.199 445.683 120.108C445.997 115.479 447.189 110.708 449.259 105.797C451.357 100.861 454.162 95.9593 457.672 91.0921C458.264 90.2502 458.738 89.7611 459.095 89.6249C459.451 89.4887 459.843 89.435 460.268 89.4639C460.88 89.5053 461.398 89.7542 461.821 90.2106C462.271 90.6687 462.473 91.2436 462.426 91.9354C462.412 92.1482 462.146 92.7182 461.629 93.6454C461.112 94.5725 460.43 95.7558 459.584 97.1953C458.765 98.6365 457.865 100.273 456.886 102.104C455.908 103.909 454.937 105.821 453.972 107.84C453.033 109.861 452.2 111.903 451.472 113.965C452.454 112.883 453.558 111.781 454.783 110.662C456.036 109.517 457.323 108.482 458.642 107.555C459.962 106.602 461.229 105.86 462.441 105.327C463.655 104.768 464.727 104.52 465.659 104.583C466.537 104.642 467.334 104.91 468.05 105.386C468.792 105.864 469.373 106.572 469.79 107.509C470.208 108.446 470.368 109.633 470.271 111.069C470.164 112.639 469.603 114.218 468.587 115.806C467.597 117.396 466.203 118.839 464.405 120.134C462.633 121.43 460.493 122.434 457.986 123.147C455.506 123.861 452.722 124.113 449.636 123.904ZM451.62 119.468C453.68 119.447 455.559 119.133 457.257 118.527C458.982 117.922 460.479 117.128 461.748 116.145C463.017 115.162 464.011 114.107 464.729 112.979C465.449 111.825 465.844 110.716 465.917 109.652C465.933 109.412 465.874 109.288 465.741 109.279C465.183 109.241 464.46 109.446 463.575 109.894C462.691 110.315 461.716 110.904 460.649 111.66C459.582 112.417 458.496 113.252 457.392 114.166C456.288 115.08 455.236 115.998 454.239 116.919C453.241 117.84 452.368 118.69 451.62 119.468ZM471.783 125.926C471.118 125.881 470.562 125.602 470.115 125.091C469.695 124.581 469.516 123.874 469.577 122.97C469.604 122.571 469.702 121.922 469.87 121.025C470.066 120.103 470.297 119.049 470.565 117.865C470.859 116.682 471.143 115.445 471.418 114.154C471.719 112.865 471.976 111.639 472.188 110.478C472.427 109.318 472.601 108.327 472.71 107.506C472.832 106.499 473.146 105.798 473.654 105.405C474.164 104.985 474.751 104.798 475.416 104.843C475.948 104.879 476.418 105.045 476.826 105.339C477.262 105.61 477.506 106.147 477.558 106.953C477.639 107.733 477.577 108.852 477.371 110.308C478.686 108.259 479.999 106.436 481.31 104.841C482.647 103.248 484.014 102.004 485.411 101.11C487.733 99.5836 489.785 98.8807 491.568 99.0015C492.579 99.0699 493.229 99.3412 493.517 99.8151C493.806 100.289 493.934 100.765 493.902 101.244C493.88 101.564 493.78 101.851 493.603 102.106C493.452 102.363 493.14 102.623 492.668 102.885C492.196 103.147 491.478 103.486 490.514 103.901C489.221 104.455 487.927 105.21 486.632 106.164C485.365 107.121 484.078 108.37 482.77 109.912C481.463 111.454 480.117 113.367 478.733 115.652C477.349 117.937 475.894 120.671 474.369 123.856C474.068 124.744 473.681 125.319 473.209 125.581C472.764 125.845 472.288 125.96 471.783 125.926ZM494.207 127.004C492.318 126.876 490.846 126.108 489.792 124.7C488.74 123.266 488.291 121.418 488.444 119.156C488.493 118.438 488.635 117.713 488.872 116.98C489.135 116.25 489.435 115.575 489.771 114.956C489.628 114.706 489.515 114.391 489.434 114.012C489.381 113.607 489.373 113.139 489.409 112.607C489.526 110.877 489.939 109.315 490.649 107.92C491.36 106.498 492.27 105.29 493.38 104.296C494.49 103.302 495.689 102.555 496.98 102.054C498.27 101.554 499.553 101.347 500.83 101.433C503.012 101.581 504.745 102.433 506.029 103.99C507.34 105.549 507.891 107.872 507.682 110.958C507.578 112.501 507.232 114.055 506.645 115.619C506.058 117.183 505.302 118.668 504.378 120.076C503.483 121.458 502.464 122.686 501.322 123.757C500.207 124.831 499.029 125.66 497.786 126.244C496.571 126.83 495.377 127.083 494.207 127.004ZM494.482 113.472C494.595 113.773 494.638 114.124 494.611 114.523C494.584 114.922 494.477 115.329 494.288 115.744C494.1 116.158 493.901 116.72 493.693 117.427C493.486 118.108 493.339 119.1 493.251 120.404C493.227 120.75 493.247 121.045 493.311 121.29C493.403 121.51 493.622 121.632 493.968 121.655C494.872 121.717 495.743 121.482 496.581 120.951C497.446 120.421 498.23 119.699 498.933 118.785C499.663 117.872 500.294 116.845 500.826 115.705C501.386 114.541 501.827 113.354 502.149 112.147C502.5 110.914 502.711 109.766 502.783 108.702C502.83 108.01 502.73 107.522 502.482 107.238C502.234 106.954 501.777 106.789 501.112 106.744C500.207 106.683 499.256 106.913 498.259 107.433C497.29 107.929 496.453 108.647 495.747 109.588C495.044 110.503 494.651 111.572 494.568 112.796C494.552 113.035 494.523 113.26 494.482 113.472ZM530.721 131.081C528.912 130.959 527.262 130.46 525.771 129.583C524.278 128.734 522.935 127.654 521.741 126.344C520.549 125.007 519.496 123.572 518.585 122.04C517.701 120.484 516.962 118.964 516.368 117.48C515.949 118.922 515.572 120.152 515.236 121.172C514.926 122.193 514.668 123.045 514.461 123.726C514.292 124.249 514.111 124.758 513.917 125.252C513.749 125.749 513.509 126.147 513.194 126.446C512.88 126.746 512.457 126.877 511.925 126.841C510.781 126.764 510.075 126.328 509.808 125.535C509.543 124.715 509.452 123.694 509.535 122.47C509.609 121.379 509.879 119.954 510.346 118.195C510.839 116.437 511.466 114.475 512.228 112.308C512.989 110.142 513.849 107.915 514.805 105.627C515.791 103.315 516.824 101.073 517.907 98.9017C518.992 96.7033 520.062 94.7177 521.117 92.945C521.778 91.8673 522.345 91.1974 522.817 90.9353C523.291 90.6467 523.834 90.5231 524.446 90.5646C525.058 90.6061 525.512 90.7972 525.81 91.1381C526.108 91.479 526.238 91.9155 526.202 92.4477C526.179 92.7935 526.076 93.134 525.893 93.4691C525.71 93.8041 525.508 94.2181 525.287 94.711C524.583 96.0264 523.838 97.5662 523.05 99.3303C522.264 101.068 521.5 102.874 520.758 104.748C520.019 106.595 519.351 108.354 518.757 110.025C520.113 109.341 521.614 108.695 523.259 108.084C524.905 107.448 526.56 106.892 528.223 106.416C529.914 105.916 531.489 105.542 532.949 105.293C534.41 105.045 535.632 104.954 536.616 105.02C537.388 105.073 537.958 105.338 538.326 105.818C538.695 106.297 538.861 106.803 538.825 107.335C538.798 107.734 538.651 108.125 538.385 108.508C538.118 108.891 537.589 109.202 536.798 109.443C534.186 110.121 531.587 110.814 528.999 111.52C526.439 112.229 523.588 113.078 520.448 114.068C521.002 115.362 521.659 116.703 522.42 118.091C523.183 119.452 524.018 120.738 524.925 121.949C525.834 123.133 526.783 124.119 527.772 124.908C528.762 125.67 529.763 126.085 530.774 126.154C532.264 126.255 533.721 126.059 535.144 125.568C536.569 125.05 537.896 124.405 539.124 123.632C540.354 122.834 541.436 122.052 542.37 121.287C543.33 120.523 544.079 119.932 544.615 119.514C544.927 119.241 545.221 119.047 545.496 118.932C545.798 118.819 546.162 118.777 546.587 118.806C547.093 118.84 547.468 119.026 547.712 119.363C547.985 119.676 548.092 120.071 548.033 120.548C547.976 120.998 547.719 121.435 547.262 121.859C546.891 122.208 546.305 122.769 545.505 123.544C544.732 124.293 543.794 125.125 542.689 126.039C541.613 126.928 540.42 127.783 539.108 128.603C537.825 129.398 536.472 130.028 535.051 130.493C533.628 130.984 532.184 131.181 530.721 131.081ZM547.597 130.661C545.947 130.549 544.656 129.887 543.722 128.675C542.79 127.436 542.412 125.526 542.587 122.945C542.698 121.295 542.996 119.658 543.481 118.034C543.993 116.385 544.646 114.839 545.439 113.396C546.26 111.928 547.176 110.64 548.186 109.533C549.223 108.427 550.336 107.58 551.526 106.993C552.716 106.378 553.924 106.113 555.148 106.196C557.223 106.336 558.808 107.005 559.903 108.202C560.998 109.399 561.487 110.862 561.37 112.591C561.279 113.921 560.825 115.107 560.006 116.147C559.216 117.162 558.166 118.054 556.858 118.82C555.55 119.587 554.101 120.264 552.511 120.851C550.921 121.438 549.296 121.956 547.635 122.405C547.437 123.354 547.313 124.201 547.262 124.946C547.232 125.398 547.469 125.641 547.974 125.675C549.172 125.757 550.461 125.657 551.844 125.376C553.254 125.071 554.685 124.66 556.137 124.144C557.59 123.601 558.991 123.041 560.34 122.464C561.69 121.86 562.919 121.289 564.024 120.749C565.158 120.184 566.084 119.739 566.801 119.414C567.546 119.063 568.025 118.895 568.238 118.91C568.824 118.949 569.237 119.151 569.48 119.515C569.723 119.879 569.831 120.26 569.803 120.66C569.791 120.846 569.404 121.234 568.642 121.824C567.907 122.415 566.898 123.109 565.615 123.904C564.36 124.674 562.942 125.473 561.363 126.302C559.812 127.105 558.197 127.865 556.518 128.58C554.867 129.27 553.268 129.803 551.719 130.179C550.194 130.583 548.82 130.744 547.597 130.661ZM548.554 118.899C549.688 118.334 550.811 117.742 551.922 117.123C553.061 116.478 554.02 115.741 554.798 114.912C555.577 114.056 556.008 113.029 556.089 111.832C556.112 111.486 556.034 111.254 555.855 111.135C555.678 110.989 555.417 110.905 555.071 110.881C554.14 110.818 553.26 111.173 552.433 111.945C551.632 112.72 550.895 113.739 550.221 115.003C549.576 116.242 549.02 117.541 548.554 118.899Z" fill="#028C32"/>
</svg>
