<svg width="250" height="86" viewBox="0 0 250 86" fill="none" xmlns="http://www.w3.org/2000/svg">
<path d="M5.8212 45.4237C5.31171 45.4744 4.83573 45.3771 4.39326 45.1317C3.95237 44.9022 3.59034 44.5764 3.30716 44.1544C3.02239 43.7165 2.85387 43.2348 2.80159 42.7094C2.70337 41.7222 2.82246 40.7376 3.15886 39.7555C3.51119 38.7718 4.0036 37.8223 4.6361 36.9072C5.26859 35.9921 5.9719 35.1423 6.74603 34.3578C7.53449 33.5558 8.32529 32.858 9.11843 32.2646C9.92749 31.6695 10.668 31.1939 11.34 30.8376C12.028 30.4797 12.571 30.281 12.969 30.2414C13.4307 30.1954 13.8152 30.2617 14.1224 30.4401C14.4439 30.6011 14.6252 30.8885 14.6664 31.3025C14.6791 31.4299 14.6576 31.5365 14.6018 31.6225C14.8135 31.6496 14.9926 31.7524 15.139 31.9308C15.2853 32.1092 15.3775 32.3894 15.4156 32.7715C15.4314 32.9308 15.4328 33.3487 15.4197 34.0253C15.4067 34.7019 15.3999 35.5226 15.3994 36.4874C15.4149 37.4506 15.4741 38.4497 15.5771 39.4845C15.5929 39.6438 15.631 39.7847 15.6915 39.9073C15.7503 40.014 15.8594 40.0594 16.0186 40.0436C16.6554 39.9802 17.2876 39.7887 17.915 39.469C18.5568 39.1318 19.1691 38.7412 19.752 38.2973C20.3493 37.8359 20.8836 37.3888 21.3551 36.956C21.8409 36.5057 22.2462 36.1357 22.5712 35.8461C22.9104 35.539 23.1358 35.3799 23.2472 35.3688C23.7886 35.315 24.0862 35.5587 24.14 36.1C24.1543 36.2433 24.0092 36.5633 23.7049 37.0598C23.4149 37.5389 23.0047 38.1023 22.4742 38.75C21.9422 39.3818 21.3385 40.0207 20.6631 40.6667C20.0021 41.2953 19.2997 41.8315 18.556 42.2753C17.8282 42.7175 17.1061 42.9743 16.3897 43.0456C15.514 43.1327 14.8247 42.9923 14.3218 42.6243C13.8348 42.2547 13.4609 41.7291 13.2001 41.0476C12.9537 40.3485 12.7782 39.554 12.6735 38.664C11.9772 39.9071 11.2364 41.0259 10.451 42.0206C9.67994 42.9977 8.89865 43.791 8.1071 44.4003C7.31555 45.0097 6.55358 45.3508 5.8212 45.4237ZM13.0849 32.6176C11.599 33.5211 10.2835 34.5203 9.13828 35.6151C7.99147 36.6939 7.10415 37.7952 6.47633 38.9189C5.86443 40.041 5.6068 41.0876 5.70344 42.0588C5.73037 42.3295 5.87121 42.4522 6.12595 42.4268C6.42846 42.3967 6.80906 42.182 7.26777 41.7826C7.7424 41.3816 8.24575 40.8652 8.7778 40.2335C9.30828 39.5858 9.83241 38.8744 10.3502 38.0993C10.8664 37.3083 11.3413 36.5053 11.7747 35.6904C12.2081 34.8755 12.5413 34.1027 12.774 33.372C12.8602 33.1062 12.9638 32.8547 13.0849 32.6176ZM30.2792 29.1701C30.9473 26.9973 31.5056 24.771 31.9541 22.4914C32.0371 22.033 32.1862 21.6724 32.4012 21.4099C32.6322 21.1457 32.9706 20.9914 33.4164 20.9471C33.7826 20.9106 34.0723 20.9943 34.2855 21.1982C34.4972 21.3862 34.6212 21.6633 34.6577 22.0295C34.6878 22.332 34.6143 22.886 34.4372 23.6915C34.2585 24.481 34.0446 25.4831 33.7957 26.6978C33.5467 27.9124 33.316 29.3101 33.1035 30.8909C32.8909 32.4717 32.7492 34.1982 32.6782 36.0705C32.6073 37.9427 32.6763 39.9296 32.8855 42.0312C32.9425 42.6044 32.8778 43.0852 32.6913 43.4736C32.5224 43.8763 32.1752 44.1038 31.6498 44.156C31.0766 44.2131 30.6349 44.056 30.3246 43.6849C30.0303 43.3122 29.8522 42.8154 29.7904 42.1945C29.6684 40.9686 29.6068 39.9456 29.6057 39.1257C29.6188 38.2883 29.6438 37.5703 29.6807 36.9717C29.0337 38.3867 28.3206 39.6234 27.5416 40.6817C26.7769 41.7226 26.0219 42.5373 25.2765 43.126C24.5327 43.7307 23.8742 44.0615 23.301 44.1185C22.3617 44.212 21.5713 44.0253 20.9299 43.5585C20.2886 43.0918 19.9148 42.325 19.8087 41.2583C19.7263 40.4303 19.8405 39.5588 20.1514 38.6435C20.4608 37.7123 20.899 36.7843 21.4663 35.8596C22.0335 34.9349 22.6699 34.0596 23.3756 33.2336C24.0957 32.3902 24.8252 31.6423 25.5642 30.9899C26.3017 30.3216 26.9961 29.7862 27.6474 29.3837C28.2988 28.9813 28.8394 28.7586 29.2693 28.7159C29.7469 28.6683 30.0835 28.8198 30.2792 29.1701ZM29.8582 30.5144C29.769 30.5876 29.6719 30.6616 29.5668 30.7363C29.476 30.7936 29.386 30.8588 29.2968 30.932C28.7298 31.3743 28.131 31.9002 27.5002 32.5097C26.8679 33.1032 26.2498 33.7596 25.6461 34.4789C25.0408 35.1823 24.4943 35.912 24.0068 36.668C23.5336 37.4065 23.1639 38.1347 22.8976 38.8526C22.6458 39.553 22.5507 40.2136 22.6125 40.8346C22.6236 40.946 22.6793 41.0209 22.7796 41.0591C22.8798 41.0974 22.9698 41.1125 23.0494 41.1046C23.6066 41.0492 24.1791 40.743 24.7669 40.186C25.3705 39.6275 25.9631 38.8772 26.5447 37.935C27.1406 36.9752 27.7135 35.865 28.2634 34.6044C28.8292 33.3422 29.3608 31.9788 29.8582 30.5144ZM45.6906 27.6366C46.3587 25.4638 46.917 23.2375 47.3655 20.9579C47.4485 20.4994 47.5976 20.1389 47.8126 19.8763C48.0436 19.6122 48.382 19.4579 48.8278 19.4135C49.194 19.3771 49.4837 19.4608 49.6969 19.6647C49.9086 19.8527 50.0326 20.1298 50.0691 20.496C50.0992 20.7985 50.0257 21.3525 49.8485 22.158C49.6699 22.9475 49.456 23.9496 49.2071 25.1642C48.9581 26.3789 48.7274 27.7766 48.5149 29.3574C48.3023 30.9382 48.1606 32.6647 48.0896 34.537C48.0187 36.4092 48.0877 38.3961 48.2969 40.4977C48.3539 41.0709 48.2892 41.5517 48.1027 41.94C47.9338 42.3427 47.5866 42.5702 47.0612 42.6225C46.488 42.6796 46.0463 42.5225 45.736 42.1514C45.4417 41.7787 45.2636 41.2819 45.2018 40.661C45.0798 39.435 45.0182 38.4121 45.017 37.5922C45.0302 36.7548 45.0552 36.0368 45.0921 35.4382C44.4451 36.8532 43.732 38.0899 42.953 39.1482C42.1883 40.1891 41.4332 41.0038 40.6879 41.5925C39.9441 42.1971 39.2856 42.528 38.7124 42.585C37.7731 42.6785 36.9827 42.4918 36.3413 42.025C35.7 41.5582 35.3262 40.7915 35.2201 39.7247C35.1377 38.8968 35.2519 38.0252 35.5628 37.11C35.8722 36.1788 36.3104 35.2508 36.8777 34.3261C37.4449 33.4014 38.0813 32.5261 38.787 31.7001C39.507 30.8567 40.2366 30.1088 40.9756 29.4564C41.7131 28.7881 42.4075 28.2527 43.0588 27.8502C43.7102 27.4478 44.2508 27.2251 44.6806 27.1824C45.1583 27.1348 45.4949 27.2862 45.6906 27.6366ZM45.2696 28.9809C45.1804 29.0541 45.0833 29.128 44.9782 29.2028C44.8874 29.2601 44.7974 29.3253 44.7082 29.3985C44.1412 29.8408 43.5424 30.3667 42.9116 30.9762C42.2793 31.5697 41.6612 32.2261 41.0575 32.9454C40.4522 33.6488 39.9057 34.3785 39.4182 35.1345C38.945 35.873 38.5753 36.6012 38.309 37.3191C38.0571 38.0194 37.9621 38.6801 38.0239 39.301C38.035 39.4125 38.0907 39.4873 38.1909 39.5256C38.2912 39.5639 38.3812 39.579 38.4608 39.5711C39.018 39.5157 39.5905 39.2095 40.1783 38.6525C40.7819 38.094 41.3745 37.3436 41.9561 36.4014C42.552 35.4417 43.1249 34.3315 43.6748 33.0709C44.2406 31.8087 44.7722 30.4453 45.2696 28.9809ZM67.0095 39.2387C66.0223 39.3369 65.1922 39.0738 64.5191 38.4494C63.8444 37.8091 63.4302 36.7167 63.2765 35.1723C63.1783 34.1852 63.1915 33.187 63.3162 32.1777C63.4552 31.1509 63.6873 30.1711 64.0125 29.2383C64.3521 28.288 64.7657 27.4349 65.2532 26.6789C65.7567 25.9213 66.3309 25.3094 66.9759 24.8433C67.6193 24.3612 68.3073 24.0837 69.0396 24.0108C70.2815 23.8873 71.286 24.125 72.0531 24.724C72.8201 25.3229 73.2552 26.1399 73.3581 27.1748C73.4374 27.9708 73.2865 28.7174 72.9057 29.4146C72.5392 30.0942 72.0071 30.726 71.3095 31.3099C70.6119 31.8939 69.822 32.4388 68.9397 32.9446C68.0575 33.4505 67.1474 33.9189 66.2095 34.3499C66.1869 34.931 66.1978 35.4444 66.2421 35.8902C66.2691 36.1609 66.4338 36.2812 66.7363 36.2511C67.4528 36.1798 68.2059 35.9923 68.9957 35.6886C69.7999 35.3674 70.6056 34.9817 71.413 34.5315C72.2188 34.0654 72.992 33.5946 73.7325 33.1189C74.4715 32.6273 75.1412 32.1668 75.7416 31.7372C76.3564 31.2901 76.8596 30.9345 77.2514 30.6705C77.6575 30.3889 77.9243 30.2417 78.0516 30.2291C78.4019 30.1942 78.6669 30.2723 78.8467 30.4635C79.0266 30.6546 79.1283 30.8696 79.1521 31.1084C79.1632 31.2199 78.9728 31.488 78.581 31.9129C78.205 32.3362 77.677 32.847 76.9969 33.4453C76.3311 34.0261 75.5722 34.6402 74.7202 35.2878C73.8824 35.9178 73.0025 36.528 72.0804 37.1182C71.1727 37.6909 70.2793 38.1656 69.4003 38.5425C68.5388 38.9338 67.7418 39.1658 67.0095 39.2387ZM66.404 32.184C67.0187 31.7369 67.6239 31.2747 68.2196 30.7974C68.8296 30.3025 69.3234 29.771 69.701 29.2029C70.077 28.6188 70.2294 27.9685 70.1581 27.252C70.1375 27.045 70.0683 26.9153 69.9505 26.8627C69.8311 26.7941 69.6679 26.7702 69.461 26.7908C68.9037 26.8462 68.4188 27.1437 68.0062 27.6832C67.6095 28.2211 67.2748 28.8976 67.0022 29.7126C66.7439 30.5101 66.5445 31.3339 66.404 32.184ZM98.1651 34.7638C98.1551 35.633 97.6884 36.1136 96.765 36.2055C96.2873 36.253 95.891 36.1478 95.5759 35.8897C95.2767 35.63 95.1002 35.2295 95.0463 34.6882C94.9544 33.7648 94.896 32.7737 94.871 31.715C94.8604 30.6387 94.8649 29.5529 94.8846 28.4576C94.9201 27.3607 94.9525 26.3123 94.9816 25.3125C94.4908 26.1975 93.9706 27.1095 93.4209 28.0485C92.8712 28.9876 92.3191 29.9027 91.7646 30.794C91.2101 31.6853 90.6716 32.4946 90.149 33.2219C89.6408 33.9317 89.1677 34.5094 88.7297 34.955C88.2901 35.3846 87.911 35.6153 87.5926 35.647C86.8284 35.723 86.1399 35.5101 85.5272 35.0083C84.9129 34.4906 84.5622 33.7939 84.4751 32.9182C84.445 32.6157 84.4364 32.2066 84.4494 31.6908C84.4608 31.159 84.485 30.5938 84.5219 29.9952C84.5588 29.3966 84.583 28.8315 84.5944 28.2997C84.6058 27.768 84.5964 27.3509 84.5663 27.0484C84.5663 27.0484 84.5647 27.0324 84.5616 27.0006C84.5696 26.9194 84.5497 26.8812 84.5019 26.8859C84.4382 26.8923 84.2845 27.1246 84.0407 27.583C83.7953 28.0255 83.4989 28.6017 83.1515 29.3116C82.8041 30.0215 82.4359 30.7656 82.0471 31.5439C81.6742 32.3206 81.3204 33.0472 80.9857 33.7237C80.667 34.3986 80.3976 34.9238 80.1778 35.2995C79.8813 35.8756 79.589 36.2504 79.3008 36.4238C79.0125 36.5972 78.6694 36.7037 78.2713 36.7433C77.7141 36.7988 77.258 36.6592 76.9032 36.3247C76.5627 35.9727 76.3583 35.4544 76.2902 34.7698C76.2617 34.4832 76.2651 34.0326 76.3004 33.4181C76.3517 32.802 76.4205 32.1199 76.5068 31.3716C76.5915 30.6075 76.6787 29.8672 76.7682 29.1508C76.872 28.4169 76.9631 27.7969 77.0413 27.2906C77.1197 26.6236 77.2735 26.1501 77.5029 25.87C77.7467 25.5724 78.0755 25.403 78.4895 25.3618C79.4607 25.2651 79.9938 25.6945 80.0889 26.6497C80.1063 26.8249 80.0791 27.117 80.0072 27.5261C79.9354 27.9353 79.846 28.4104 79.7391 28.9517C79.6321 29.4929 79.5188 30.0509 79.3991 30.6256C79.2779 31.1843 79.1853 31.7081 79.1213 32.1968C79.4369 31.4901 79.7796 30.7324 80.1493 29.9238C80.5191 29.1153 80.8984 28.3218 81.2872 27.5435C81.692 26.7636 82.0951 26.0481 82.4967 25.3972C82.9141 24.7446 83.3363 24.2203 83.7631 23.824C84.1884 23.4119 84.608 23.1852 85.022 23.1441C85.4359 23.1029 85.857 23.2137 86.2851 23.4766C86.7117 23.7236 87.0753 24.0653 87.376 24.5016C87.691 24.9205 87.8738 25.3847 87.9245 25.8942C87.9721 26.3718 87.9654 26.9513 87.9046 27.6327C87.8438 28.3141 87.7702 29.0289 87.6838 29.7771C87.5975 30.5253 87.5573 31.2529 87.5634 31.9597C88.0445 31.3009 88.5495 30.5592 89.0785 29.7348C89.6059 28.8944 90.1468 28.0286 90.7013 27.1373C91.2558 26.2461 91.7967 25.3802 92.3241 24.5399C92.8674 23.698 93.37 22.9324 93.8321 22.2433C94.31 21.5526 94.7378 21.0035 95.1153 20.5961C95.4912 20.1728 95.7906 19.9501 96.0135 19.9279C96.6663 19.863 97.1932 19.9874 97.5943 20.3012C98.0097 20.5976 98.2593 21.1676 98.3433 22.0115C98.3956 22.5369 98.4239 23.2254 98.4283 24.0772C98.4485 24.9274 98.4441 25.8524 98.415 26.8522C98.4001 27.8345 98.371 28.8342 98.3275 29.8516C98.2984 30.8514 98.2701 31.7787 98.2426 32.6336C98.2151 33.4886 98.1893 34.1986 98.1651 34.7638ZM105.704 35.3643C104.573 35.4767 103.626 35.169 102.862 34.4411C102.097 33.6972 101.647 32.6486 101.512 31.2953C101.47 30.8654 101.482 30.422 101.549 29.9651C101.632 29.5067 101.742 29.0777 101.879 28.6781C101.769 28.5443 101.671 28.3692 101.586 28.1526C101.514 27.9185 101.462 27.6423 101.431 27.3239C101.328 26.289 101.417 25.3234 101.697 24.4272C101.976 23.5151 102.395 22.7098 102.952 22.0111C103.51 21.3125 104.145 20.7508 104.859 20.3261C105.572 19.9013 106.311 19.6509 107.075 19.5749C108.381 19.445 109.491 19.7767 110.406 20.57C111.337 21.3617 111.894 22.681 112.078 24.5278C112.17 25.4513 112.12 26.4049 111.929 27.3887C111.737 28.3725 111.438 29.3268 111.032 30.2516C110.64 31.1589 110.159 31.9865 109.591 32.7345C109.038 33.4809 108.423 34.0888 107.746 34.5581C107.085 35.0258 106.404 35.2946 105.704 35.3643ZM104.519 27.3302C104.616 27.4974 104.676 27.7004 104.7 27.9392C104.723 28.178 104.7 28.4296 104.63 28.6938C104.56 28.9581 104.498 29.3099 104.446 29.7493C104.391 30.1727 104.403 30.7745 104.481 31.5547C104.501 31.7616 104.543 31.9344 104.605 32.0729C104.681 32.194 104.823 32.2442 105.03 32.2236C105.571 32.1697 106.063 31.9439 106.506 31.5461C106.964 31.1467 107.356 30.6414 107.681 30.0302C108.022 29.4175 108.293 28.7473 108.494 28.0199C108.71 27.2749 108.853 26.5291 108.923 25.7824C109.008 25.0183 109.018 24.3178 108.955 23.6809C108.914 23.267 108.806 22.9883 108.631 22.8449C108.456 22.7016 108.169 22.6497 107.771 22.6893C107.23 22.7432 106.69 22.9737 106.152 23.3811C105.628 23.7708 105.204 24.2793 104.88 24.9064C104.555 25.5176 104.429 26.1894 104.502 26.9218C104.516 27.0651 104.522 27.2012 104.519 27.3302ZM112.402 40.3415C111.51 40.4302 110.759 40.3121 110.148 39.987C109.522 39.6794 109.174 39.1674 109.102 38.4509C109.056 37.9892 109.252 37.5356 109.69 37.09C110.113 36.646 110.717 36.1759 111.504 35.6795C112.292 35.1991 113.211 34.6575 114.26 34.0546C114.428 33.1536 114.577 31.9891 114.709 30.561C114.854 29.1155 114.989 27.3174 115.112 25.1665C115.169 24.1158 115.24 23.2967 115.326 22.7093C115.412 22.1219 115.515 21.6937 115.633 21.4247C115.75 21.1557 115.879 20.9902 116.017 20.9281C116.17 20.8486 116.334 20.8001 116.509 20.7827C116.684 20.7653 116.941 20.8362 117.278 20.9956C117.614 21.1391 117.925 21.3573 118.212 21.6504C118.496 21.9276 118.659 22.2731 118.701 22.6871C118.723 22.91 118.715 23.2403 118.679 23.6781C118.642 24.1159 118.553 24.5991 118.413 25.1276C118.272 25.6561 118.058 26.1678 117.77 26.6628C117.546 28.9361 117.318 30.8481 117.086 32.3986C118.418 31.5587 119.685 30.6447 120.889 29.6566C122.092 28.6526 123.064 27.5108 123.805 26.2311C123.916 26.0592 124.024 25.9279 124.127 25.8372C124.231 25.7465 124.378 25.6917 124.569 25.6727C124.84 25.6457 125.048 25.7215 125.195 25.8999C125.341 26.0782 125.429 26.3187 125.459 26.6212C125.526 27.2899 125.314 27.9863 124.823 28.7105C124.348 29.433 123.675 30.1754 122.802 30.9375C121.927 31.6838 120.94 32.4252 119.839 33.1618C118.756 33.9127 117.64 34.6509 116.49 35.3763C116.185 36.6769 115.834 37.6685 115.436 38.3513C115.055 39.0485 114.613 39.5346 114.109 39.8098C113.608 40.1009 113.039 40.2782 112.402 40.3415ZM116.692 18.7386C116.262 18.7814 115.883 18.6904 115.555 18.4658C115.226 18.2252 115.032 17.8104 114.973 17.2213C114.93 16.7914 115.002 16.3823 115.189 15.9939C115.389 15.5881 115.662 15.2554 116.006 14.9961C116.35 14.7368 116.721 14.5873 117.119 14.5477C117.724 14.4875 118.235 14.6135 118.652 14.9258C119.085 15.2364 119.328 15.6624 119.382 16.2037C119.431 16.6973 119.313 17.1271 119.028 17.4931C118.741 17.8433 118.359 18.0421 117.881 18.0896C117.865 18.0912 117.85 18.0928 117.834 18.0944C117.818 18.0959 117.802 18.0975 117.786 18.0991C117.553 18.3474 117.353 18.512 117.184 18.5931C117.031 18.6727 116.867 18.7212 116.692 18.7386ZM139.827 20.2713C140.328 21.1058 140.834 21.9881 141.345 22.9181C141.855 23.8481 142.292 24.7614 142.654 25.6579C143.031 26.5369 143.256 27.3426 143.329 28.075C143.414 28.9347 143.263 29.6733 142.874 30.2909C142.5 30.8909 141.986 31.3842 141.333 31.7707C140.682 32.1732 139.98 32.4762 139.229 32.6796C138.477 32.883 137.775 33.0172 137.122 33.0821C136.645 33.1297 136.236 33.0658 135.897 32.8905C135.576 32.7295 135.393 32.4261 135.348 31.9803C135.31 31.5982 135.419 31.3141 135.674 31.128C135.927 30.9259 136.257 30.7724 136.665 30.6675C136.979 30.5881 137.354 30.4864 137.792 30.3624C138.246 30.2369 138.688 30.0723 139.118 29.8687C139.548 29.6652 139.894 29.4297 140.157 29.1624C140.434 28.8775 140.554 28.544 140.516 28.1619C140.433 27.334 140.166 26.5084 139.714 25.6851C139.261 24.8459 138.782 23.9931 138.278 23.1267C137.607 24.3029 136.808 25.4839 135.881 26.6695C134.968 27.8376 133.99 28.9158 132.947 29.9039C131.918 30.8746 130.88 31.6693 129.832 32.2881C128.801 32.9212 127.84 33.2822 126.949 33.3709C125.675 33.4976 124.582 33.1803 123.67 32.4188C122.774 31.6558 122.239 30.3906 122.063 28.6234C121.961 27.6044 121.98 26.5815 122.119 25.5547C122.257 24.512 122.459 23.5592 122.727 22.6964C123.011 21.8321 123.319 21.1341 123.652 20.6025C123.985 20.071 124.303 19.7901 124.606 19.76C124.924 19.7283 125.212 19.7961 125.47 19.9634C125.744 20.1291 125.904 20.4428 125.949 20.9046C125.968 21.0956 125.925 21.4618 125.818 22.003C125.727 22.5427 125.613 23.181 125.478 23.9181C125.358 24.6536 125.257 25.4193 125.176 26.2153C125.11 27.0097 125.11 27.7412 125.177 28.4099C125.245 29.0946 125.409 29.6168 125.67 29.9768C125.947 30.3351 126.324 30.4905 126.802 30.443C127.439 30.3796 128.144 30.1165 128.918 29.6536C129.692 29.1907 130.478 28.598 131.274 27.8756C132.086 27.1516 132.86 26.3592 133.594 25.4982C134.344 24.6357 135.005 23.758 135.575 22.8651C136.161 21.9707 136.609 21.1382 136.918 20.3678C136.788 20.0271 136.673 19.6847 136.575 19.3408C136.492 18.9953 136.433 18.6394 136.396 18.2732C136.309 17.3976 136.405 16.6645 136.684 16.0739C136.961 15.4675 137.49 15.1255 138.27 15.0478C138.971 14.9781 139.519 15.1567 139.915 15.5836C140.311 16.0104 140.547 16.598 140.621 17.3463C140.662 17.7603 140.603 18.2164 140.444 18.7146C140.299 19.1953 140.093 19.7143 139.827 20.2713ZM125.24 17.4057C124.619 17.4674 124.125 17.3558 123.759 17.0706C123.409 16.7839 123.207 16.3698 123.153 15.8285C123.093 15.2235 123.26 14.7165 123.653 14.3075C124.045 13.8826 124.519 13.6425 125.077 13.587C125.698 13.5252 126.208 13.6433 126.607 13.9412C127.007 14.2391 127.237 14.6985 127.299 15.3195C127.326 15.5901 127.251 15.887 127.074 16.2101C126.912 16.5157 126.673 16.7807 126.357 17.005C126.042 17.2293 125.669 17.3629 125.24 17.4057ZM170.503 15.9648C170.522 16.1558 170.475 16.3293 170.362 16.4853C170.249 16.6413 170.101 16.7685 169.918 16.8672C169.658 17.0055 169.203 17.1956 168.551 17.4372C167.9 17.6789 167.108 17.9587 166.175 18.2767C165.258 18.5931 164.269 18.9245 163.211 19.2711C162.15 19.6017 161.089 19.9244 160.027 20.2391C159.765 21.8087 159.5 23.4269 159.232 25.0937C158.962 26.7445 158.689 28.3715 158.415 29.9745C158.311 30.5476 158.162 30.9885 157.968 31.2973C157.775 31.622 157.408 31.8113 156.866 31.8651C156.277 31.9238 155.86 31.7723 155.615 31.4108C155.388 31.0636 155.314 30.5645 155.394 29.9133C155.635 28.1367 155.857 26.4827 156.058 24.9512C156.275 23.4182 156.449 22.1788 156.58 21.2332C155.641 21.4875 154.818 21.698 154.111 21.8649C153.402 22.0158 152.896 22.0983 152.592 22.1125C152.254 22.1139 151.962 22.0063 151.715 21.7897C151.469 21.573 151.336 21.2888 151.317 20.9369C151.317 20.6153 151.434 20.3304 151.666 20.0821C151.897 19.818 152.185 19.6446 152.531 19.562C153.02 19.4651 153.649 19.3301 154.42 19.1569C155.191 18.9838 156.039 18.7868 156.966 18.5659C157.092 17.7333 157.248 16.8737 157.433 15.987C157.617 15.0844 157.812 14.2208 158.019 13.3962C158.241 12.5541 158.457 11.8171 158.668 11.1852C158.878 10.5532 159.081 10.0908 159.277 9.79798C159.432 9.57358 159.631 9.39298 159.875 9.25618C160.134 9.1178 160.391 9.03593 160.646 9.01058C160.98 8.97731 161.263 9.06979 161.494 9.28802C161.724 9.50624 161.856 9.77457 161.887 10.093C161.9 10.2204 161.905 10.3565 161.904 10.5014C161.901 10.6303 161.881 10.7609 161.846 10.893C161.623 11.7192 161.392 12.7149 161.155 13.8801C160.933 15.0438 160.706 16.3206 160.475 17.7103C161.651 17.4164 162.804 17.1248 163.933 16.8356C165.076 16.5289 166.11 16.2492 167.033 15.9965C167.971 15.7263 168.72 15.499 169.281 15.3146C169.588 15.1715 169.861 15.1684 170.1 15.3054C170.337 15.4266 170.471 15.6463 170.503 15.9648ZM170.96 28.871C169.829 28.9834 168.882 28.6757 168.118 27.9478C167.353 27.2039 166.903 26.1553 166.768 24.802C166.725 24.3721 166.738 23.9287 166.805 23.4718C166.888 23.0134 166.998 22.5844 167.135 22.1848C167.025 22.051 166.927 21.8759 166.841 21.6593C166.77 21.4252 166.718 21.149 166.687 20.8306C166.584 19.7957 166.672 18.8301 166.953 17.9339C167.232 17.0218 167.65 16.2164 168.208 15.5178C168.766 14.8192 169.401 14.2575 170.115 13.8327C170.828 13.408 171.567 13.1576 172.331 13.0816C173.637 12.9517 174.747 13.2834 175.662 14.0767C176.593 14.8684 177.15 16.1877 177.334 18.0345C177.426 18.958 177.376 19.9116 177.185 20.8954C176.993 21.8792 176.694 22.8335 176.288 23.7583C175.896 24.6656 175.415 25.4932 174.846 26.2412C174.294 26.9876 173.679 27.5955 173.002 28.0648C172.341 28.5325 171.66 28.8013 170.96 28.871ZM169.774 20.8368C169.871 21.0041 169.932 21.2071 169.956 21.4459C169.979 21.6847 169.956 21.9363 169.886 22.2005C169.816 22.4647 169.754 22.8166 169.702 23.2559C169.647 23.6794 169.659 24.2812 169.736 25.0614C169.757 25.2683 169.798 25.4411 169.86 25.5796C169.937 25.7007 170.078 25.7509 170.285 25.7303C170.827 25.6764 171.319 25.4506 171.762 25.0528C172.22 24.6534 172.612 24.1481 172.937 23.5369C173.278 22.9242 173.549 22.254 173.75 21.5266C173.966 20.7816 174.108 20.0358 174.179 19.2891C174.264 18.525 174.274 17.8245 174.211 17.1876C174.17 16.7737 174.062 16.495 173.886 16.3516C173.711 16.2083 173.425 16.1564 173.027 16.196C172.486 16.2499 171.946 16.4804 171.407 16.8877C170.883 17.2775 170.46 17.786 170.136 18.4131C169.811 19.0243 169.685 19.6961 169.758 20.4285C169.772 20.5718 169.778 20.7079 169.774 20.8368ZM194.88 32.3274C193.988 32.4162 193.171 32.4412 192.427 32.4027C191.686 32.38 190.953 32.2921 190.231 32.1389C189.508 31.9857 188.722 31.7664 187.874 31.481C187.524 31.3551 187.228 31.2156 186.988 31.0627C186.748 30.9097 186.61 30.6581 186.575 30.3078C186.525 29.7983 186.645 29.3924 186.936 29.0901C187.214 28.8052 187.623 28.6359 188.164 28.582C188.451 28.5535 188.827 28.6126 189.291 28.7593C189.758 28.9219 190.29 29.1021 190.889 29.2998C191.505 29.5118 192.18 29.6777 192.916 29.7975C193.653 29.9332 194.435 29.9598 195.263 29.8774C196.107 29.7935 196.86 29.3648 197.523 28.5914C198.186 27.818 198.677 26.7722 198.996 25.4541C199.332 24.1504 199.415 22.6388 199.244 20.9193C199.204 20.5212 199.154 20.0922 199.092 19.632C199.028 19.156 198.962 18.656 198.894 18.1322C198.429 19.2719 197.908 20.3447 197.333 21.3506C196.758 22.3565 196.141 23.1896 195.484 23.85C194.84 24.4929 194.16 24.85 193.444 24.9213C192.568 25.0084 191.911 24.8648 191.471 24.4904C191.046 24.0986 190.788 23.4409 190.696 22.5175C190.619 21.7374 190.59 20.88 190.609 19.9455C190.643 18.9935 190.716 18.0295 190.828 17.0536C190.94 16.0777 191.088 15.1465 191.273 14.2598C191.473 13.3556 191.7 12.5692 191.955 11.9007C192.148 11.4152 192.491 11.1479 192.985 11.0988C193.303 11.0671 193.637 11.1867 193.985 11.4575C194.35 11.7267 194.557 12.1161 194.608 12.6256C194.636 12.9121 194.606 13.3332 194.517 13.8888C194.427 14.4444 194.313 15.0748 194.174 15.78C194.05 16.4677 193.921 17.196 193.789 17.9649C193.654 18.7179 193.551 19.4598 193.479 20.1905C193.406 20.9053 193.398 21.5493 193.455 22.1224C193.461 22.1861 193.512 22.2132 193.607 22.2037C193.798 22.1847 194.037 22.0001 194.324 21.65C194.625 21.2824 194.949 20.8161 195.294 20.2511C195.654 19.6686 196.01 19.0383 196.36 18.3602C196.725 17.6647 197.075 16.9787 197.41 16.3022C197.744 15.6257 198.045 15.009 198.311 14.4519C198.238 14.2019 198.184 13.9822 198.149 13.7927C198.128 13.5857 198.111 13.4106 198.097 13.2673C198.032 12.6145 198.089 12.0621 198.269 11.61C198.465 11.1564 198.906 10.8955 199.59 10.8274C200.036 10.783 200.395 10.9161 200.667 11.2267C200.938 11.5214 201.102 11.9633 201.161 12.5524C201.186 12.8071 201.176 13.1056 201.129 13.4479C201.081 13.7742 200.973 14.2995 200.804 15.0239L200.993 14.2574C201.279 15.676 201.525 16.9379 201.731 18.0429C201.954 19.1463 202.12 20.2472 202.229 21.3458C202.435 23.4156 202.263 25.2416 201.713 26.8238C201.18 28.4204 200.326 29.6952 199.151 30.6483C197.991 31.5998 196.568 32.1595 194.88 32.3274ZM209.264 25.0594C208.134 25.1719 207.187 24.8642 206.423 24.1363C205.658 23.3924 205.207 22.3438 205.073 20.9905C205.03 20.5606 205.042 20.1172 205.109 19.6603C205.192 19.2019 205.302 18.7729 205.439 18.3733C205.33 18.2395 205.232 18.0644 205.146 17.8478C205.074 17.6137 205.023 17.3375 204.991 17.019C204.888 15.9842 204.977 15.0186 205.258 14.1224C205.537 13.2103 205.955 12.4049 206.513 11.7063C207.07 11.0077 207.706 10.446 208.419 10.0212C209.133 9.5965 209.871 9.34612 210.636 9.27007C211.941 9.14016 213.051 9.47185 213.967 10.2651C214.897 11.0569 215.455 12.3762 215.639 14.223C215.731 15.1465 215.681 16.1001 215.489 17.0839C215.298 18.0677 214.999 19.022 214.592 19.9468C214.2 20.8541 213.72 21.6817 213.151 22.4297C212.598 23.1761 211.983 23.7839 211.307 24.2533C210.646 24.721 209.965 24.9897 209.264 25.0594ZM208.079 17.0253C208.176 17.1925 208.236 17.3956 208.26 17.6344C208.284 17.8732 208.261 18.1247 208.191 18.389C208.12 18.6532 208.059 19.0051 208.006 19.4444C207.952 19.8679 207.963 20.4697 208.041 21.2498C208.062 21.4568 208.103 21.6296 208.165 21.7681C208.241 21.8892 208.383 21.9394 208.59 21.9188C209.131 21.8649 209.623 21.6391 210.066 21.2413C210.525 20.8419 210.917 20.3366 211.242 19.7254C211.583 19.1126 211.854 18.4425 212.055 17.7151C212.27 16.9701 212.413 16.2243 212.483 15.4776C212.568 14.7135 212.579 14.013 212.515 13.3761C212.474 12.9622 212.366 12.6835 212.191 12.5401C212.016 12.3968 211.729 12.3449 211.331 12.3845C210.79 12.4383 210.25 12.6689 209.712 13.0762C209.188 13.466 208.764 13.9745 208.441 14.6016C208.116 15.2128 207.99 15.8846 208.062 16.617C208.077 16.7603 208.082 16.8964 208.079 17.0253ZM227.456 23.5387C227.09 23.5752 226.74 23.4572 226.407 23.1848C226.092 22.9267 225.901 22.4554 225.833 21.7707C225.782 21.2613 225.751 20.5488 225.741 19.6334C225.744 18.7004 225.801 17.4968 225.912 16.0227C225.469 17.2244 224.989 18.3012 224.473 19.253C223.956 20.2048 223.429 20.9648 222.891 21.5329C222.367 22.0835 221.842 22.3849 221.316 22.4372C220.473 22.5212 219.779 22.333 219.234 21.8726C218.688 21.3963 218.344 20.4417 218.202 19.0088C218.134 18.3241 218.112 17.5464 218.138 16.6756C218.18 15.8031 218.254 14.9275 218.359 14.0488C218.465 13.17 218.58 12.3868 218.704 11.6991C218.843 10.9939 218.976 10.4662 219.102 10.116C219.2 9.8167 219.337 9.57796 219.513 9.39974C219.704 9.21993 219.959 9.11418 220.277 9.08249C220.786 9.0318 221.193 9.16016 221.497 9.46757C221.801 9.77499 221.97 10.1038 222.005 10.4541C222.032 10.7248 222.007 11.1212 221.931 11.6433C221.87 12.1639 221.783 12.7434 221.67 13.3817C221.572 14.0185 221.468 14.672 221.358 15.3422C221.248 16.0124 221.158 16.6404 221.087 17.2263C221.033 17.8105 221.026 18.3017 221.065 18.6997C221.114 19.1933 221.33 19.421 221.712 19.383C221.935 19.3608 222.2 19.1174 222.508 18.6527C222.831 18.1863 223.156 17.5752 223.483 16.8191C223.824 16.0455 224.159 15.2083 224.487 14.3073C224.83 13.3889 225.132 12.4664 225.393 11.54C225.669 10.596 225.897 9.72924 226.075 8.93966C226.187 8.44618 226.369 8.09044 226.62 7.87245C226.872 7.65446 227.173 7.52804 227.523 7.49319C228.065 7.43932 228.494 7.54939 228.81 7.82337C229.143 8.09578 229.337 8.51061 229.392 9.06785C229.418 9.3226 229.421 9.75643 229.401 10.3694C229.382 10.9823 229.349 11.7011 229.302 12.5258C229.272 13.3488 229.222 14.2221 229.153 15.1454C229.084 16.0688 229.014 16.9762 228.941 17.8677C228.885 18.7577 228.822 19.576 228.752 20.3226C228.68 21.0533 228.617 21.6384 228.564 22.0778C228.469 22.7305 228.316 23.1316 228.105 23.2811C227.895 23.4307 227.679 23.5165 227.456 23.5387ZM233.634 22.8998C233.236 22.9394 232.879 22.8302 232.564 22.5721C232.265 22.3125 232.089 21.912 232.035 21.3707C232.011 21.1318 232.004 20.7386 232.014 20.1909C232.038 19.6258 232.07 18.9794 232.11 18.2519C232.166 17.5227 232.211 16.7625 232.245 15.9713C232.295 15.1785 232.325 14.4278 232.335 13.7194C232.361 13.0093 232.365 12.4059 232.348 11.9092C232.319 11.301 232.436 10.8553 232.697 10.572C232.956 10.2729 233.285 10.1035 233.683 10.0639C234.002 10.0322 234.296 10.0833 234.567 10.2171C234.852 10.3335 235.05 10.6273 235.161 11.0986C235.287 11.5524 235.361 12.2203 235.385 13.1024C235.958 11.7589 236.554 10.5501 237.17 9.47572C237.803 8.3998 238.488 7.52768 239.225 6.85938C240.447 5.72484 241.591 5.1045 242.658 4.99835C243.263 4.93815 243.674 5.03387 243.892 5.28552C244.11 5.53718 244.234 5.8063 244.262 6.09288C244.281 6.28394 244.251 6.46383 244.171 6.63254C244.107 6.79968 243.949 6.98428 243.696 7.18635C243.442 7.38842 243.051 7.66047 242.523 8.0025C241.812 8.45907 241.122 9.03427 240.451 9.72807C239.797 10.4203 239.159 11.2877 238.54 12.3302C237.92 13.3727 237.314 14.6388 236.723 16.1287C236.131 17.6186 235.543 19.3815 234.958 21.4175C234.868 21.9731 234.697 22.3519 234.444 22.5539C234.207 22.7544 233.937 22.8697 233.634 22.8998ZM26.5674 76.8359C25.8828 76.904 25.3877 76.8568 25.0821 76.6942C24.7924 76.5301 24.6294 76.265 24.5929 75.8988C24.5613 75.5803 24.6458 75.2986 24.8465 75.0535C25.0456 74.7925 25.5154 74.5046 26.2559 74.1897C27.1206 73.8303 27.9335 73.4359 28.6947 73.0064C29.4703 72.5594 30.0914 72.0956 30.5581 71.6151C31.0407 71.1329 31.2583 70.653 31.2108 70.1754C31.1791 69.8569 31.0446 69.6372 30.8075 69.5161C30.5863 69.3934 30.3323 69.3463 30.0458 69.3748C29.8069 69.3986 29.4606 69.4732 29.0068 69.5988C28.5674 69.7068 28.0825 69.8435 27.5523 70.0088C27.0205 70.1582 26.5038 70.298 26.0022 70.4283C25.515 70.5411 25.0962 70.615 24.746 70.6498C23.9181 70.7322 23.2869 70.6101 22.8524 70.2835C22.4163 69.941 22.169 69.4752 22.1104 68.8861C22.0787 68.5677 22.2023 68.1132 22.4812 67.5227C22.7601 66.9322 23.1449 66.2749 23.6356 65.5507C24.1263 64.8266 24.6807 64.0961 25.2988 63.3593C25.9169 62.6224 26.5485 61.9405 27.1936 61.3136C27.853 60.6691 28.4845 60.148 29.0881 59.7503C29.6901 59.3367 30.214 59.1077 30.6598 59.0633C31.1693 59.0126 31.5911 59.1314 31.9253 59.4198C32.2754 59.7065 32.4774 60.1205 32.5313 60.6619C32.5566 60.9166 32.5604 61.1976 32.5428 61.5049C32.5235 61.7962 32.4303 62.0708 32.263 62.3286C32.0941 62.5705 31.8154 62.7591 31.4269 62.8942C31.0383 63.0293 30.4954 63.0673 29.7981 63.008C29.2964 63.4599 28.7748 63.954 28.2332 64.4903C27.706 65.009 27.213 65.5485 26.7542 66.1087C26.2938 66.6529 25.9202 67.1805 25.6334 67.6914C26.2035 67.4417 26.8571 67.2239 27.5943 67.038C28.33 66.8362 29.0799 66.6973 29.8441 66.6212C30.7676 66.5293 31.5325 66.6221 32.1389 66.8994C32.7597 67.1592 33.2324 67.5463 33.5569 68.0607C33.8973 68.5735 34.1 69.1563 34.165 69.8091C34.2379 70.5414 34.0719 71.2976 33.6672 72.0775C33.2624 72.8574 32.6921 73.5895 31.9562 74.2737C31.2204 74.9579 30.385 75.5315 29.4503 75.9943C28.5155 76.4571 27.5546 76.7376 26.5674 76.8359ZM45.3831 74.8189C45.0169 74.8553 44.6675 74.7374 44.3349 74.4649C44.0198 74.2069 43.8281 73.7355 43.76 73.0509C43.7093 72.5414 43.6786 71.829 43.6679 70.9135C43.6716 69.9806 43.7287 68.777 43.8393 67.3028C43.3961 68.5046 42.9163 69.5814 42.4 70.5332C41.8838 71.485 41.3564 72.245 40.818 72.8131C40.294 73.3637 39.7692 73.6651 39.2438 73.7174C38.4 73.8013 37.7059 73.6131 37.1617 73.1528C36.6158 72.6765 36.2716 71.7219 36.129 70.2889C36.0609 69.6043 36.0398 68.8266 36.0657 67.9557C36.1075 67.0833 36.1812 66.2077 36.2867 65.329C36.3922 64.4502 36.5072 63.667 36.6317 62.9792C36.7706 62.274 36.903 61.7463 37.0289 61.3961C37.1278 61.0969 37.2648 60.8581 37.44 60.6799C37.6312 60.5001 37.886 60.3944 38.2044 60.3627C38.7139 60.312 39.1206 60.4403 39.4245 60.7477C39.7284 61.0552 39.8978 61.384 39.9327 61.7343C39.9596 62.0049 39.9347 62.4013 39.8581 62.9235C39.7973 63.4441 39.7103 64.0235 39.5969 64.6619C39.4995 65.2987 39.3957 65.9522 39.2855 66.6224C39.1753 67.2926 39.0851 67.9206 39.0147 68.5064C38.9603 69.0907 38.9529 69.5819 38.9925 69.9799C39.0416 70.4735 39.2572 70.7012 39.6394 70.6632C39.8623 70.641 40.1274 70.3976 40.4349 69.9328C40.7584 69.4665 41.0834 68.8553 41.4102 68.0993C41.7513 67.3257 42.086 66.4884 42.4144 65.5875C42.7572 64.669 43.0593 63.7466 43.3209 62.8201C43.5967 61.8762 43.824 61.0094 44.0027 60.2198C44.1144 59.7263 44.2961 59.3706 44.5477 59.1526C44.7994 58.9346 45.1004 58.8082 45.4506 58.7734C45.9919 58.7195 46.421 58.8296 46.7376 59.1035C47.0702 59.376 47.2643 59.7908 47.3197 60.348C47.3451 60.6028 47.348 61.0366 47.3286 61.6495C47.3092 62.2625 47.2762 62.9813 47.2297 63.8059C47.199 64.629 47.1492 65.5022 47.0803 66.4256C47.0114 67.349 46.9409 68.2564 46.8688 69.1479C46.8127 70.0378 46.7494 70.8561 46.679 71.6028C46.607 72.3335 46.5446 72.9185 46.4918 73.3579C46.396 74.0106 46.243 74.4118 46.0327 74.5613C45.8225 74.7109 45.606 74.7967 45.3831 74.8189ZM53.0848 73.7149C52.1295 73.8099 51.4497 73.6846 51.0455 73.3389C50.6588 73.0076 50.433 72.5156 50.368 71.8628C50.0924 69.0925 50.3223 66.1512 51.0577 63.0391C51.8075 59.9095 52.9785 56.7299 54.5705 53.5004C54.8367 52.9433 55.0685 52.6067 55.2659 52.4906C55.4634 52.3745 55.6895 52.3037 55.9443 52.2784C56.3105 52.242 56.6416 52.3376 56.9376 52.5655C57.2495 52.7917 57.4261 53.1118 57.4673 53.5257C57.4799 53.6531 57.3795 54.0168 57.1658 54.6169C56.9522 55.217 56.6668 55.9851 56.3098 56.921C55.9686 57.8554 55.5995 58.9131 55.2025 60.0943C54.8039 61.2594 54.4196 62.4875 54.0497 63.7785C53.6956 65.0679 53.406 66.3589 53.1809 67.6516C53.6541 66.9131 54.1974 66.1515 54.8107 65.367C55.4383 64.5649 56.0962 63.8241 56.7843 63.1446C57.4708 62.4492 58.1462 61.8836 58.8103 61.4477C59.4728 60.9959 60.0827 60.7422 60.6399 60.6868C61.1653 60.6345 61.6636 60.7135 62.1347 60.9239C62.6218 61.1327 63.0356 61.4935 63.376 62.0063C63.7165 62.5191 63.9295 63.2054 64.015 64.0652C64.1085 65.0045 63.9337 65.9947 63.4906 67.0357C63.0634 68.0751 62.3823 69.0674 61.4473 70.0127C60.5282 70.9563 59.3624 71.7637 57.9499 72.4349C56.5534 73.1044 54.9317 73.5311 53.0848 73.7149ZM53.8169 70.8925C55.0334 70.675 56.1138 70.3022 57.0581 69.7741C58.0184 69.2444 58.8251 68.6255 59.4781 67.9173C60.1312 67.2092 60.614 66.4858 60.9264 65.7473C61.2372 64.9928 61.3609 64.2971 61.2976 63.6603C61.2833 63.517 61.2364 63.4493 61.1568 63.4572C60.8224 63.4905 60.4156 63.6837 59.9362 64.0369C59.4552 64.3742 58.9368 64.8197 58.3809 65.3735C57.825 65.9273 57.2659 66.5296 56.7035 67.1804C56.1412 67.8313 55.6108 68.479 55.1121 69.1236C54.6135 69.7681 54.1818 70.3578 53.8169 70.8925ZM63.2897 78.3914C62.3981 78.4801 61.6467 78.3619 61.0355 78.0369C60.41 77.7293 60.0615 77.2173 59.9903 76.5008C59.9443 76.0391 60.1404 75.5855 60.5784 75.1399C61.0005 74.6959 61.6049 74.2258 62.3916 73.7294C63.1799 73.249 64.0988 72.7074 65.1483 72.1045C65.3159 71.2035 65.4653 70.0389 65.5966 68.6109C65.7422 67.1654 65.8768 65.3672 66.0004 63.2164C66.0567 62.1657 66.1279 61.3466 66.2142 60.7592C66.3004 60.1718 66.4025 59.7435 66.5205 59.4745C66.6384 59.2055 66.7667 59.04 66.9052 58.978C67.0581 58.8985 67.2221 58.85 67.3972 58.8326C67.5723 58.8152 67.8286 58.8861 68.1661 59.0455C68.5019 59.1889 68.8131 59.4072 69.0995 59.7003C69.3843 59.9774 69.5474 60.323 69.5885 60.737C69.6107 60.9599 69.6034 61.2902 69.5666 61.728C69.5297 62.1658 69.4411 62.649 69.3008 63.1774C69.1604 63.7059 68.946 64.2177 68.6576 64.7127C68.4336 66.986 68.2058 68.898 67.9742 70.4485C69.3056 69.6086 70.5733 68.6946 71.7774 67.7065C72.9799 66.7025 73.9516 65.5606 74.6925 64.281C74.8041 64.1091 74.9116 63.9778 75.0151 63.8871C75.1187 63.7964 75.2659 63.7416 75.457 63.7226C75.7277 63.6956 75.9362 63.7713 76.0826 63.9497C76.229 64.1281 76.3172 64.3686 76.3473 64.6711C76.4138 65.3398 76.2018 66.0362 75.711 66.7603C75.2363 67.4829 74.5625 68.2253 73.6896 68.9874C72.8152 69.7337 71.8278 70.4751 70.7273 71.2117C69.6443 71.9626 68.5279 72.7008 67.3781 73.4262C67.0734 74.7267 66.7219 75.7184 66.3235 76.4012C65.9427 77.0984 65.5006 77.5845 64.9974 77.8597C64.4958 78.1508 63.9265 78.328 63.2897 78.3914ZM67.5797 56.7885C67.1498 56.8312 66.771 56.7403 66.4431 56.5157C66.1137 56.2751 65.9196 55.8603 65.861 55.2712C65.8182 54.8413 65.8901 54.4322 66.0766 54.0438C66.2774 53.6379 66.5498 53.3053 66.8938 53.046C67.2378 52.7867 67.6088 52.6372 68.0068 52.5976C68.6119 52.5374 69.1228 52.6634 69.5398 52.9756C69.9727 53.2863 70.2161 53.7123 70.2699 54.2536C70.319 54.7472 70.201 55.177 69.9159 55.543C69.6291 55.8931 69.2469 56.092 68.7693 56.1395C68.7534 56.1411 68.7374 56.1427 68.7215 56.1442C68.7056 56.1458 68.6897 56.1474 68.6738 56.149C68.4412 56.3972 68.2405 56.5619 68.0717 56.643C67.9188 56.7226 67.7548 56.771 67.5797 56.7885ZM77.3973 71.368C76.4102 71.4662 75.5801 71.2031 74.9069 70.5787C74.2322 69.9384 73.818 68.846 73.6643 67.3016C73.5661 66.3145 73.5793 65.3163 73.704 64.307C73.843 63.2802 74.0752 62.3004 74.4004 61.3676C74.74 60.4173 75.1535 59.5642 75.6411 58.8082C76.1445 58.0506 76.7188 57.4387 77.3638 56.9726C78.0072 56.4905 78.6951 56.213 79.4275 56.1402C80.6694 56.0166 81.6738 56.2543 82.4409 56.8533C83.208 57.4523 83.643 58.2692 83.746 59.3041C83.8252 60.1002 83.6744 60.8468 83.2935 61.5439C82.927 62.2235 82.395 62.8553 81.6974 63.4393C80.9998 64.0232 80.2098 64.5681 79.3276 65.0739C78.4453 65.5798 77.5352 66.0482 76.5973 66.4792C76.5747 67.0603 76.5856 67.5737 76.63 68.0195C76.6569 68.2902 76.8216 68.4105 77.1242 68.3804C77.8406 68.3091 78.5937 68.1216 79.3836 67.8179C80.1877 67.4967 80.9935 67.111 81.8009 66.6608C82.6067 66.1948 83.3799 65.7239 84.1204 65.2482C84.8594 64.7567 85.529 64.2961 86.1295 63.8665C86.7442 63.4194 87.2475 63.0639 87.6393 62.7998C88.0454 62.5182 88.3121 62.3711 88.4395 62.3584C88.7898 62.3235 89.0548 62.4017 89.2346 62.5928C89.4144 62.7839 89.5162 62.9989 89.54 63.2377C89.551 63.3492 89.3607 63.6173 88.9688 64.0422C88.5929 64.4655 88.0649 64.9763 87.3848 65.5746C86.719 66.1554 85.9601 66.7696 85.108 67.4171C84.2703 68.0472 83.3904 68.6573 82.4683 69.2475C81.5605 69.8202 80.6671 70.295 79.7881 70.6719C78.9266 71.0631 78.1297 71.2951 77.3973 71.368ZM76.7918 64.3133C77.4066 63.8662 78.0118 63.404 78.6074 62.9267C79.2174 62.4319 79.7112 61.9004 80.0888 61.3322C80.4648 60.7481 80.6172 60.0978 80.5459 59.3813C80.5253 59.1744 80.4561 59.0446 80.3383 58.992C80.219 58.9235 80.0558 58.8995 79.8488 58.9201C79.2916 58.9755 78.8066 59.273 78.394 59.8125C77.9973 60.3505 77.6627 61.0269 77.39 61.8419C77.1317 62.6394 76.9323 63.4632 76.7918 64.3133ZM91.4158 69.8284C90.5242 69.9171 89.7314 69.787 89.0375 69.438C88.3451 69.1049 87.7921 68.6373 87.3784 68.0353C86.9632 67.4174 86.7215 66.7661 86.6534 66.0815C86.5393 64.9352 86.6091 63.859 86.8628 62.8529C87.1148 61.8309 87.4878 60.8934 87.9818 60.0403C88.4741 59.1713 89.0238 58.393 89.6307 57.7056C90.2535 57.0165 90.8628 56.4333 91.4584 55.956C92.0684 55.4612 92.6179 55.0849 93.1068 54.8272C93.5941 54.5536 93.9571 54.405 94.196 54.3812C94.6258 54.3384 94.9378 54.4038 95.132 54.5775C95.3405 54.7336 95.4653 55.0186 95.5065 55.4326C95.5303 55.6714 95.3836 55.9754 95.0666 56.3446C94.7656 56.7122 94.3578 57.1387 93.8433 57.624C93.3448 58.1078 92.8199 58.6504 92.2688 59.2519C91.7176 59.8535 91.1967 60.5163 90.706 61.2405C90.2312 61.963 89.8583 62.7398 89.5872 63.5707C89.3321 64.4 89.2512 65.2844 89.3447 66.2237C89.3796 66.574 89.4702 66.8383 89.6166 67.0167C89.7789 67.1935 90.0192 67.2661 90.3377 67.2344C91.2452 67.1441 92.2006 66.8882 93.2038 66.4668C94.2213 66.0279 95.223 65.5102 96.2087 64.9136C97.2088 64.2996 98.1437 63.676 99.0133 63.0428C99.8988 62.408 100.654 61.8424 101.28 61.3459C101.532 61.128 101.748 60.9537 101.928 60.8233C102.108 60.6928 102.238 60.6236 102.317 60.6157C102.795 60.5682 103.058 60.7912 103.107 61.2847C103.133 61.5395 102.976 61.9008 102.636 62.3687C102.246 62.9703 101.698 63.6037 100.992 64.2688C100.303 64.9324 99.5231 65.5808 98.6535 66.214C97.7998 66.8456 96.9168 67.4239 96.0043 67.9488C95.1077 68.4722 94.2581 68.9024 93.4555 69.2395C92.653 69.5766 91.9731 69.7729 91.4158 69.8284ZM116.843 54.4672C116.862 54.6582 116.815 54.8317 116.702 54.9877C116.589 55.1437 116.441 55.271 116.258 55.3696C115.998 55.508 115.543 55.698 114.891 55.9397C114.24 56.1813 113.448 56.4612 112.515 56.7791C111.598 57.0955 110.61 57.4269 109.551 57.7735C108.49 58.1041 107.429 58.4268 106.367 58.7415C106.105 60.3111 105.84 61.9293 105.572 63.5961C105.302 65.2469 105.03 66.8739 104.755 68.4769C104.651 69.05 104.502 69.491 104.308 69.7997C104.115 70.1244 103.748 70.3137 103.207 70.3676C102.617 70.4262 102.2 70.2747 101.955 69.9132C101.728 69.566 101.654 69.0669 101.734 68.4158C101.975 66.6391 102.197 64.9851 102.398 63.4536C102.615 61.9206 102.789 60.6813 102.92 59.7356C101.981 59.9899 101.158 60.2005 100.451 60.3673C99.7422 60.5182 99.2359 60.6007 98.9318 60.6149C98.5943 60.6163 98.3022 60.5087 98.0556 60.2921C97.8089 60.0754 97.6761 59.7912 97.6572 59.4393C97.6573 59.1177 97.7737 58.8328 98.0063 58.5846C98.2372 58.3204 98.5255 58.147 98.871 58.0644C99.3598 57.9675 99.9895 57.8325 100.76 57.6593C101.531 57.4862 102.379 57.2892 103.306 57.0683C103.432 56.2357 103.588 55.3761 103.773 54.4894C103.957 53.5868 104.152 52.7232 104.359 51.8986C104.581 51.0565 104.797 50.3195 105.008 49.6876C105.218 49.0556 105.421 48.5932 105.617 48.3004C105.772 48.076 105.971 47.8954 106.215 47.7586C106.474 47.6202 106.731 47.5383 106.986 47.513C107.32 47.4797 107.603 47.5722 107.834 47.7904C108.065 48.0087 108.196 48.277 108.227 48.5954C108.24 48.7228 108.246 48.8589 108.244 49.0038C108.241 49.1327 108.221 49.2633 108.186 49.3954C107.963 50.2216 107.733 51.2173 107.495 52.3826C107.273 53.5463 107.046 54.823 106.815 56.2127C107.991 55.9188 109.144 55.6272 110.273 55.338C111.416 55.0313 112.45 54.7516 113.373 54.4989C114.311 54.2287 115.06 54.0014 115.621 53.817C115.928 53.6739 116.201 53.6708 116.44 53.8079C116.677 53.929 116.811 54.1487 116.843 54.4672ZM125.303 73.5231C124.858 73.5675 124.491 73.4431 124.205 73.15C123.936 72.8713 123.77 72.4135 123.707 71.7766C123.619 70.901 123.595 69.8502 123.634 68.6243C123.673 67.3985 123.76 66.0954 123.896 64.7152C124.032 63.3349 124.195 61.9762 124.383 60.6389C124.616 59.1043 124.855 57.7058 125.099 56.4434C125.359 55.1794 125.644 54.1622 125.953 53.3918C126.277 52.6039 126.638 52.1902 127.036 52.1506C127.402 52.1141 127.734 52.2178 128.031 52.4615C128.343 52.6877 128.525 53.0556 128.575 53.5651C128.612 53.9313 128.568 54.4662 128.445 55.1698C128.321 55.8575 128.165 56.7171 127.979 57.7487C128.431 56.8032 128.901 55.8721 129.389 54.9553C129.892 54.037 130.412 53.1974 130.947 52.4367C131.482 51.6759 132.016 51.0601 132.548 50.5891C133.08 50.1181 133.601 49.8572 134.11 49.8065C134.715 49.7463 135.266 49.8684 135.763 50.1727C136.275 50.4755 136.697 50.9159 137.028 51.494C137.359 52.072 137.562 52.7432 137.638 53.5074C137.779 54.9244 137.661 56.327 137.285 57.7151C136.907 59.0872 136.316 60.3439 135.514 61.485C134.726 62.6245 133.767 63.5642 132.634 64.3039C131.501 65.0277 130.241 65.4586 128.856 65.5964C128.458 65.636 128.088 65.6326 127.745 65.5863C127.421 65.5543 127.118 65.504 126.838 65.4354C126.748 66.4734 126.669 67.5345 126.6 68.6186C126.549 69.7171 126.495 70.8721 126.438 72.0837C126.334 72.9783 125.956 73.4582 125.303 73.5231ZM134.629 52.6009C134.279 52.6357 133.857 52.9189 133.363 53.4504C132.886 53.9803 132.375 54.6662 131.832 55.5082C131.287 56.3342 130.741 57.2326 130.194 58.2035C129.662 59.1569 129.152 60.092 128.665 61.0088C128.193 61.924 127.79 62.7198 127.455 63.3963C128.653 63.1485 129.688 62.7239 130.56 62.1226C131.431 61.5053 132.156 60.79 132.735 59.9767C133.313 59.1635 133.76 58.3231 134.075 57.4556C134.405 56.5705 134.626 55.7205 134.738 54.9054C134.85 54.0903 134.877 53.3883 134.818 52.7992C134.804 52.6559 134.741 52.5898 134.629 52.6009ZM145.219 65.0053C143.786 65.1478 142.612 64.8225 141.697 64.0292C140.796 63.2184 140.265 61.9931 140.101 60.3531C140.013 59.4616 140.028 58.4068 140.148 57.189C140.267 55.9552 140.45 54.6506 140.699 53.2751C140.963 51.8822 141.252 50.5028 141.566 49.137C141.896 47.7696 142.228 46.4985 142.561 45.3237C142.895 44.1489 143.19 43.1628 143.449 42.3653C143.677 41.7477 144.053 41.4128 144.579 41.3605C144.913 41.3272 145.194 41.4038 145.422 41.5901C145.665 41.7749 145.81 42.0982 145.856 42.5599C145.878 42.7828 145.815 43.2795 145.666 44.05C145.518 44.8205 145.315 45.7732 145.058 46.9082C144.816 48.0258 144.55 49.234 144.261 50.533C143.989 51.8304 143.732 53.1341 143.493 54.4443C143.269 55.7529 143.102 56.9834 142.992 58.136C142.88 59.2727 142.863 60.2311 142.94 61.0113C142.972 61.3297 143.085 61.5757 143.279 61.7493C143.489 61.9214 143.746 61.9924 144.048 61.9623C144.701 61.8973 145.358 61.7114 146.019 61.4044C146.695 61.0959 147.35 60.7253 147.982 60.2925C148.63 59.8582 149.236 59.404 149.8 58.9298C150.364 58.4557 150.866 58.0117 151.308 57.598C151.763 57.1668 152.131 56.8247 152.411 56.5717C152.779 56.2296 153.035 56.0514 153.178 56.0371C153.72 55.9832 154.016 56.219 154.069 56.7444C154.081 56.8718 153.948 57.1503 153.669 57.5801C153.434 57.9573 153.096 58.4411 152.656 59.0315C152.217 59.622 151.7 60.2522 151.108 60.9221C150.53 61.5746 149.9 62.2 149.22 62.7982C148.556 63.3949 147.882 63.8961 147.199 64.3017C146.516 64.7074 145.856 64.9419 145.219 65.0053ZM154.257 64.1301C153.573 64.1982 153.077 64.151 152.772 63.9884C152.482 63.8243 152.319 63.5591 152.283 63.193C152.251 62.8745 152.335 62.5928 152.536 62.3477C152.735 62.0867 153.205 61.7988 153.946 61.4839C154.81 61.1245 155.623 60.7301 156.384 60.3006C157.16 59.8536 157.781 59.3898 158.248 58.9093C158.73 58.4271 158.948 57.9472 158.9 57.4696C158.869 57.1511 158.734 56.9314 158.497 56.8102C158.276 56.6876 158.022 56.6405 157.735 56.669C157.497 56.6927 157.15 56.7674 156.697 56.893C156.257 57.001 155.772 57.1377 155.242 57.303C154.71 57.4524 154.193 57.5922 153.692 57.7225C153.205 57.8353 152.786 57.9092 152.436 57.944C151.608 58.0264 150.977 57.9043 150.542 57.5777C150.106 57.2352 149.859 56.7694 149.8 56.1803C149.768 55.8619 149.892 55.4074 150.171 54.8169C150.45 54.2264 150.835 53.569 151.325 52.8449C151.816 52.1207 152.37 51.3903 152.989 50.6534C153.607 49.9166 154.238 49.2347 154.883 48.6078C155.543 47.9633 156.174 47.4422 156.778 47.0445C157.38 46.6309 157.904 46.4019 158.349 46.3575C158.859 46.3068 159.281 46.4256 159.615 46.714C159.965 47.0007 160.167 47.4147 160.221 47.9561C160.246 48.2108 160.25 48.4918 160.232 48.7991C160.213 49.0904 160.12 49.365 159.953 49.6228C159.784 49.8647 159.505 50.0532 159.117 50.1884C158.728 50.3235 158.185 50.3615 157.488 50.3022C156.986 50.7541 156.464 51.2482 155.923 51.7844C155.396 52.3032 154.903 52.8427 154.444 53.4028C153.984 53.9471 153.61 54.4747 153.323 54.9856C153.893 54.7359 154.547 54.5181 155.284 54.3322C156.02 54.1304 156.77 53.9915 157.534 53.9154C158.457 53.8235 159.222 53.9162 159.829 54.1936C160.449 54.4534 160.922 54.8405 161.247 55.3549C161.587 55.8677 161.79 56.4505 161.855 57.1032C161.928 57.8356 161.762 58.5918 161.357 59.3717C160.952 60.1516 160.382 60.8837 159.646 61.5679C158.91 62.2521 158.075 62.8256 157.14 63.2885C156.205 63.7513 155.244 64.0318 154.257 64.1301ZM172.818 62.7414L196.7 60.365L194.324 36.4829L170.442 38.8593L172.818 62.7414ZM205.787 59.4608L229.669 57.0844L227.292 33.2024L203.41 35.5788L205.787 59.4608Z" fill="#F2C41C"/>
</svg>
