<svg width="347" height="184" viewBox="0 0 347 184" fill="none" xmlns="http://www.w3.org/2000/svg">
<path d="M42.0248 174.087C40.3694 174.582 38.4414 174.725 36.2408 174.515C34.0832 174.226 31.8432 173.326 29.5209 171.817C27.1985 170.307 24.9534 167.939 22.7854 164.714C20.6174 161.488 18.7167 157.147 17.0835 151.69C15.8723 147.643 15.1639 143.379 14.9583 138.898C14.7957 134.337 15.3196 129.838 16.5301 125.4C17.7405 120.963 19.7722 116.814 22.6251 112.954C25.5394 109.076 29.4371 105.805 34.3184 103.141C36.3175 102.008 38.6324 100.814 41.263 99.5594C43.9366 98.2248 46.6591 96.9423 49.4307 95.7119C52.1839 94.4202 54.8114 93.2663 57.3131 92.2503C59.8762 91.216 62.0467 90.4327 63.8248 89.9005C66.7678 89.0196 69.0943 88.7575 70.8044 89.1142C72.5145 89.4708 73.7707 90.0968 74.5732 90.9924C75.3573 91.8265 75.8687 92.6422 76.1072 93.4392C76.4009 94.4202 76.3879 95.493 76.0684 96.6575C75.8102 97.8037 74.4701 98.9062 72.048 99.9652C71.5146 100.192 70.3955 100.694 68.6909 101.471C66.9679 102.187 64.9045 103.105 62.5008 104.226C60.1584 105.328 57.6719 106.506 55.0413 107.761C52.4536 108.936 49.9365 110.124 47.4898 111.324C45.0861 112.444 43.0104 113.433 41.2628 114.29C37.4364 116.237 34.5232 118.445 32.5232 120.914C30.5049 123.322 29.1302 125.871 28.399 128.562C27.7291 131.234 27.4638 133.919 27.6031 136.616C29.8904 135.33 32.2697 134.017 34.741 132.676C37.2123 131.335 39.5486 130.102 41.75 128.975C44.0128 127.83 45.9658 126.878 47.6092 126.119C49.2525 125.36 50.3807 124.889 50.9939 124.705C53.385 123.989 54.9177 123.865 55.5917 124.331C56.327 124.779 56.8873 125.647 57.2727 126.934C57.6214 128.099 56.9828 129.76 55.357 131.917C53.7128 134.012 50.8515 136.505 46.7732 139.396C42.6948 142.287 37.1512 145.416 30.1424 148.783C30.1607 148.844 30.1699 148.875 30.1699 148.875C30.4143 150.138 30.7444 151.576 31.1603 153.188C31.5577 154.739 31.9858 156.281 32.4446 157.814C32.9034 159.347 33.3716 160.576 33.8491 161.502C34.3267 162.428 34.8107 162.818 35.3012 162.671C36.6501 162.267 38.4376 161.432 40.6636 160.164C42.8896 158.897 45.2016 157.47 47.5994 155.884C49.9973 154.298 52.2204 152.797 54.2688 151.382C56.2988 149.906 57.7707 148.798 58.6846 148.056C60.0338 146.985 61.3832 145.913 62.7325 144.841C64.1431 143.75 65.3082 143.068 66.2279 142.792C67.1476 142.517 68.0548 142.646 68.9494 143.18C69.8257 143.653 70.3523 144.631 70.5291 146.115C70.6513 146.746 70.3103 147.95 69.5062 149.728C68.745 151.425 67.579 153.444 66.0082 155.785C64.4803 158.046 62.5448 160.396 60.2016 162.834C57.9013 165.193 55.221 167.398 52.1608 169.449C49.1436 171.421 45.7649 172.967 42.0248 174.087ZM129.992 121.503C126.436 122.567 122.812 123.184 119.122 123.353C115.493 123.504 111.974 123.355 108.566 122.905C108.869 128.827 109.512 135.215 110.494 142.069C110.8 143.982 110.936 145.778 110.905 147.458C110.855 149.076 110.446 150.501 109.679 151.733C108.912 152.964 107.517 153.883 105.493 154.489C103.593 155.057 102.116 154.698 101.062 153.41C100.009 152.122 99.1606 150.405 98.5183 148.259C98.3165 147.585 98.0387 145.764 97.685 142.797C97.3314 139.829 96.926 136.243 96.4689 132.038C95.9935 127.771 95.512 123.372 95.0245 118.842C91.7582 117.08 89.8132 115.157 89.1892 113.073C88.8772 112.03 88.8902 110.957 89.228 109.854C89.6089 108.671 90.7496 107.796 92.6503 107.227C92.8956 107.153 93.2603 107.144 93.7445 107.2C93.33 103.583 92.9336 100.361 92.5553 97.5349C92.22 94.629 91.8995 92.5538 91.5938 91.3092C91.0191 88.9426 90.8731 87.1158 91.1559 85.8286C91.4203 84.4802 91.9574 83.4844 92.7669 82.8412C93.6195 82.1184 94.5362 81.6102 95.5173 81.3166C96.8048 80.9312 97.8684 80.9135 98.708 81.2634C99.5476 81.6134 100.252 82.7387 100.821 84.6394C101.371 86.4788 101.845 88.174 102.243 89.7252C103.706 83.6757 105.75 79.1224 108.375 76.0651C110.983 72.9466 114.218 70.8092 118.08 69.6531C121.882 68.5153 125.505 68.5666 128.949 69.8071C132.393 71.0476 135.469 73.4004 138.176 76.8656C140.927 80.2512 143.118 84.6724 144.752 90.1292C147.247 98.4677 147.179 105.269 144.546 110.533C141.955 115.717 137.104 119.374 129.992 121.503ZM108.445 111.117C111.081 111.664 113.824 112.012 116.674 112.161C119.506 112.249 122.271 111.889 124.969 111.082C129.322 109.779 132.171 107.69 133.515 104.816C134.921 101.923 134.844 97.8713 133.284 92.6598C130.513 83.4016 126.337 79.6075 120.758 81.2774C117.202 82.3418 114.334 85.3713 112.155 90.366C110.037 95.3422 108.8 102.259 108.445 111.117ZM178.897 133.119C177.303 133.597 175.909 133.179 174.714 131.866C173.52 130.554 172.335 127.935 171.161 124.011C169.509 118.493 168.103 112.568 166.942 106.234C165.825 99.8217 164.775 92.8542 163.793 85.332C163.128 79.3179 164.299 74.1908 167.306 69.9507C170.373 65.6923 174.955 61.5819 181.051 57.6196C184.853 55.1454 188.836 52.7174 193 50.3354C197.164 47.9535 201.116 45.8687 204.857 44.0811C208.64 42.2138 211.819 40.8948 214.395 40.124C216.357 39.5368 217.981 39.3846 219.268 39.6674C220.555 39.9502 221.551 40.4872 222.256 41.2784C223.003 41.99 223.487 42.7136 223.707 43.4494C224.056 44.6143 224.092 45.7392 223.815 46.8241C223.539 47.9089 222.554 48.9719 220.862 50.0129C220.138 50.4967 218.58 51.4306 216.189 52.8145C213.84 54.1187 210.946 55.7199 207.505 57.618C204.127 59.4978 200.551 61.5031 196.78 63.634C192.99 65.7036 189.333 67.7671 185.806 69.8245C182.397 72.0476 180.041 74.2223 178.74 76.3486C177.482 78.3953 177.018 80.9727 177.347 84.0808C177.408 84.7307 177.542 85.6257 177.75 86.7661C180.025 85.2166 182.53 83.7654 185.265 82.4123C188 81.0593 190.557 79.8932 192.936 78.9139C195.315 77.9346 197.087 77.2706 198.252 76.9219C199.478 76.5549 200.83 76.3841 202.307 76.4095C203.828 76.3553 205.198 76.58 206.417 77.0834C207.68 77.5072 208.485 78.3015 208.834 79.4665C209.164 80.5701 209.038 81.7102 208.455 82.8868C207.853 84.0021 206.354 85.3529 203.956 86.939C203.459 87.2881 202.276 87.9096 200.405 88.8034C198.596 89.6788 196.447 90.7564 193.958 92.036C191.511 93.2359 189.021 94.5155 186.489 95.8748C184.017 97.2157 181.862 98.4955 180.022 99.7143C180.584 103.154 181.176 106.584 181.799 110.005C182.422 113.426 182.978 116.399 183.467 118.925C183.938 121.39 184.203 122.947 184.264 123.597C184.575 125.975 184.219 128.02 183.194 129.729C182.169 131.439 180.737 132.569 178.897 133.119ZM262.821 112.41C260.552 113.089 258.027 113.243 255.244 112.874C252.479 112.566 249.863 111.411 247.393 109.411C244.986 107.393 243.158 104.299 241.91 100.13C240.589 95.7156 239.589 91.0377 238.912 86.0964C238.278 81.0754 237.885 76.0822 237.735 71.1168C237.628 66.0716 237.696 61.2749 237.937 56.7265C238.241 52.1598 238.651 48.0621 239.168 44.4334C239.747 40.7864 240.414 37.8811 241.169 35.7177C241.967 33.4746 242.765 32.2337 243.562 31.9952C245.218 31.4997 246.873 31.6724 248.527 32.5132C250.243 33.3358 251.477 35.0039 252.23 37.5177C252.413 38.1309 252.495 39.7431 252.475 42.3545C252.498 44.8863 252.48 48.0647 252.423 51.8899C252.427 55.6967 252.399 59.8467 252.341 64.34C252.326 68.7537 252.391 73.2103 252.535 77.7099C252.741 82.1911 253.026 86.3812 253.392 90.2802C253.818 94.1608 254.426 97.4193 255.215 100.056C255.435 100.792 255.975 101.031 256.833 100.774C258.059 100.407 259.776 99.5591 261.984 98.2302C264.253 96.883 266.691 95.3184 269.297 93.5362C271.946 91.6743 274.482 89.8798 276.905 88.1526C279.327 86.4255 281.397 84.9709 283.114 83.7889C284.832 82.6069 285.813 81.9792 286.058 81.9058C287.591 81.447 288.946 81.5091 290.122 82.0922C291.299 82.6754 292.126 83.764 292.603 85.3581C292.933 86.4617 292.583 87.9695 291.552 89.8814C290.502 91.7321 288.981 93.7908 286.987 96.0577C284.975 98.2632 282.62 100.438 279.921 102.582C277.302 104.769 274.518 106.738 271.568 108.489C268.618 110.24 265.703 111.547 262.821 112.41ZM314.892 68.7661C314.034 69.023 313.167 68.9151 312.29 68.4426C311.457 67.8903 310.756 66.6639 310.187 64.7632C309.783 63.4143 309.395 61.2256 309.023 58.1971C308.651 55.1686 308.335 51.6559 308.074 47.6589C307.856 43.5822 307.714 39.3156 307.65 34.859C307.567 30.3411 307.603 25.8876 307.759 21.4985C307.897 17.0482 308.185 12.9872 308.622 9.31553C308.82 7.51953 309.504 6.01197 310.676 4.79282C311.89 3.49401 313.356 2.58769 315.073 2.07385C316.851 1.54167 318.386 1.98401 319.679 3.40088C320.971 4.81775 321.911 6.50719 322.498 8.46919C322.719 9.20494 322.764 10.6946 322.633 12.9381C322.565 15.1633 322.379 17.8911 322.076 21.1214C321.774 24.3518 321.422 27.8641 321.022 31.6584C320.664 35.373 320.293 39.1581 319.911 43.0137C319.571 46.7896 319.278 50.3847 319.031 53.799C318.783 57.2133 318.64 60.1955 318.602 62.7456C318.607 64.5478 318.281 65.9147 317.625 66.846C317.029 67.759 316.119 68.399 314.892 68.7661ZM317.79 95.8568C317.054 96.077 316.141 96.15 315.05 96.0757C313.959 96.0015 312.834 95.3693 311.676 94.1794C310.598 93.0324 309.609 90.9567 308.71 87.9524C308.013 85.6225 308.216 83.6242 309.321 81.9575C310.425 80.2909 312.204 79.0905 314.656 78.3564C316.741 77.7325 318.51 77.8378 319.962 78.6724C321.475 79.4887 322.553 80.9698 323.196 83.1157C323.783 85.0777 323.815 86.972 323.293 88.7984C322.832 90.6065 322.056 92.1416 320.964 93.4037C319.952 94.7087 318.894 95.5264 317.79 95.8568Z" fill="#D84242"/>
</svg>
