<svg width="369" height="309" viewBox="0 0 369 309" fill="none" xmlns="http://www.w3.org/2000/svg">
<path d="M261.914 165.985C260.778 166.515 259.306 166.963 258.675 166.963C256.824 166.963 248.368 169.245 242.984 171.16C235.328 173.932 230.911 175.684 213.537 182.857C194.607 190.682 179.631 196.632 166.591 201.604C158.261 204.742 156.873 205.149 155.191 204.986C153.466 204.782 153.171 204.864 152.54 205.842C151.615 207.228 151.867 209.673 153.382 214.074C154.896 218.476 163.015 234.736 169.662 246.84C172.69 252.342 179.547 265.179 184.89 275.368C190.316 285.679 196.122 296.193 198.057 299.087L201.464 304.262L200.454 304.914C199.865 305.281 199.192 306.015 198.94 306.585C198.519 307.441 198.603 307.726 199.277 308.419C200.118 309.194 200.16 309.194 203.862 308.419C208.531 307.482 219.889 304.14 227.798 301.369C246.98 294.726 276.259 283.07 293.674 275.164C297.502 273.412 302.677 271.089 305.201 270.029L309.786 268.073L310.838 268.847C312.31 269.988 314.75 269.907 315.928 268.684C318.452 266.076 317.19 261.593 308.818 243.58C306.757 239.219 302.635 230.131 299.648 223.407C296.619 216.682 293.127 209.061 291.908 206.494C287.28 196.998 277.521 180.575 271.127 171.568C269.654 169.49 268.434 167.574 268.434 167.37C268.434 167.126 267.972 166.474 267.383 165.944C266.121 164.681 264.69 164.681 261.914 165.985ZM262.293 176.662C257.665 181.96 250.219 193.901 244.54 205.271C240.881 212.485 240.292 215.093 241.89 216.642C243.068 217.783 245.34 217.783 246.728 216.56C248.537 215.052 251.439 209.795 259.39 193.942C263.555 185.628 267.046 178.822 267.172 178.781C267.298 178.781 268.014 179.963 268.813 181.349L270.201 183.957L268.56 186.076C264.186 191.7 257.497 204.008 257.497 206.535C257.497 208.654 258.675 209.917 260.652 209.917C263.05 209.917 264.817 207.676 269.528 198.588C271.758 194.309 273.651 190.722 273.735 190.641C273.777 190.559 275.039 192.801 276.469 195.613L279.119 200.707L277.731 201.848C274.324 204.619 268.014 213.707 268.014 215.867C268.014 216.642 267.887 216.601 266.247 215.419C264.859 214.482 264.143 214.237 263.176 214.4C259.222 215.012 256.698 215.786 249.883 218.394C245.718 219.943 242.227 221.165 242.143 221.084C242.058 221.002 240.838 217.701 239.492 213.707C237.305 207.268 237.095 206.494 237.768 206.29C238.146 206.168 238.945 205.475 239.534 204.742C241.343 202.419 252.491 184.079 253.122 182.368C253.837 180.412 253.879 178.537 253.248 178.129C252.575 177.722 253.332 177.355 257.707 175.929C259.811 175.236 262.04 174.339 262.755 173.891C264.943 172.505 264.732 173.85 262.293 176.662ZM249.673 180.086C245.592 184.242 238.861 193.371 236.506 197.895L235.117 200.503L233.897 199.158C232.762 197.976 232.467 197.895 230.869 198.058C229.901 198.139 226.199 199.484 222.666 200.992C219.09 202.459 216.103 203.6 215.977 203.519C215.893 203.397 217.576 200.992 219.805 198.18C221.993 195.368 224.432 191.863 225.232 190.355L226.62 187.666L230.196 186.239C235.917 183.916 250.514 178.374 250.977 178.374C251.187 178.374 250.598 179.148 249.673 180.086ZM212.906 195.98C206.596 202.867 204.787 206.046 206.133 208.043C206.344 208.369 206.26 209.265 205.923 210.162C205.04 212.648 206.386 218.231 209.919 226.83C210.424 228.012 210.761 229.072 210.719 229.112C210.635 229.194 207.437 230.783 203.567 232.658L196.584 236.122L198.814 231.802C203.778 222.306 204.745 215.664 200.791 218.15C199.066 219.25 194.775 223.529 192.756 226.219C190.19 229.601 185.016 237.752 182.366 242.52L180.178 246.555L178.243 243.376L176.35 240.197L177.402 239.423C178.874 238.282 181.23 234.94 189.643 221.98C199.15 207.35 200.454 205.231 202.389 200.666L204.03 196.917L210.256 194.39C213.663 193.004 216.524 191.863 216.608 191.823C216.65 191.823 215.01 193.697 212.906 195.98ZM194.439 202.622C189.307 207.88 177.612 223.814 174.205 230.213C173.405 231.761 172.606 232.984 172.438 232.984C172.27 232.984 171.555 231.884 170.839 230.579C169.788 228.542 169.704 228.094 170.208 227.686C170.545 227.441 172.27 224.996 174.079 222.266C175.845 219.535 178.916 215.052 180.809 212.322C182.744 209.591 184.679 206.535 185.142 205.557C185.941 203.845 186.194 203.641 189.054 202.582C190.695 201.97 193.135 201.074 194.397 200.544C195.659 200.055 196.879 199.607 197.089 199.607C197.299 199.566 196.079 200.951 194.439 202.622ZM232.004 215.134C235.496 225.567 237.052 228.501 239.661 229.561C240.965 230.09 241.343 230.05 243.615 229.316C247.275 228.134 254.047 225.159 257.918 223.04L261.241 221.247L261.956 223.122C263.891 228.216 265.237 231.313 266.163 232.943C266.71 233.962 267.046 234.899 266.878 235.062C266.667 235.225 264.27 236.326 261.493 237.467C253.332 240.849 248.579 243.254 246.686 245.047C245.003 246.555 244.877 246.881 244.877 248.796C244.877 251.16 246.139 254.787 249.462 261.797C250.64 264.324 251.608 266.565 251.608 266.769C251.608 266.973 250.051 267.625 248.158 268.236C246.223 268.807 242.984 270.111 240.923 271.13C238.861 272.148 237.137 272.882 237.095 272.841C236.926 272.556 231.331 259.311 229.775 255.439C228.05 251.119 227.251 250.141 225.652 250.101C225.148 250.101 222.792 251.038 220.394 252.138C217.071 253.728 215.052 254.38 211.644 254.991C209.204 255.399 206.849 255.888 206.386 256.01C205.629 256.214 205.166 255.48 202.474 250.264C200.791 246.963 199.571 244.11 199.739 243.947C199.95 243.784 203.315 241.991 207.269 239.953C212.023 237.508 214.925 236.244 215.809 236.244C218.459 236.244 220.478 234.614 220.478 232.454C220.478 231.924 218.796 226.952 216.692 221.41C214.631 215.867 212.906 211.262 212.906 211.181C212.906 211.099 214.673 210.488 216.818 209.795C218.922 209.102 222.413 207.88 224.475 207.105C226.578 206.331 228.387 205.72 228.555 205.679C228.723 205.679 230.28 209.958 232.004 215.134ZM283.831 211.221L285.387 215.012L282.779 217.783C281.307 219.291 278.783 222.51 277.142 224.915C275.459 227.319 273.987 229.275 273.819 229.316C273.609 229.316 273.482 228.949 273.482 228.542C273.482 227.523 271.463 222.021 270.706 220.962C269.949 219.943 269.949 219.535 270.706 219.535C271.926 219.535 273.609 217.62 277.31 211.914C281.769 205.108 281.349 205.149 283.831 211.221ZM173.363 208.369C173.363 208.491 172.48 209.632 171.428 210.895C170.377 212.118 168.568 214.604 167.348 216.356L165.202 219.535L164.067 217.661C162.384 214.808 160.996 211.833 161.248 211.547C161.543 211.303 171.933 208.246 172.859 208.165C173.111 208.165 173.363 208.246 173.363 208.369ZM289.089 224.344L290.814 228.909L289.594 230.253C287.617 232.454 283.873 237.752 280.423 243.376C278.614 246.27 275.586 250.875 273.693 253.565C268.855 260.371 267.13 263.183 263.092 270.763C260.736 275.205 259.6 277.813 259.6 278.75V280.136L251.566 283.356C247.106 285.108 243.32 286.616 243.152 286.697C242.984 286.779 243.489 285.597 244.288 284.048C249.126 274.96 243.236 275.572 236.716 284.823C235.79 286.127 234.949 287.839 234.823 288.654C234.571 290.121 234.444 290.202 229.943 292.158C227.419 293.218 225.19 294.115 224.979 294.115C224.811 294.115 225.148 293.34 225.737 292.362C227.924 288.939 231.752 281.073 232.047 279.443L232.341 277.732L233.266 278.547C234.907 279.973 235.496 279.892 241.554 277.569C244.835 276.305 250.009 274.675 253.164 273.901C259.474 272.352 260.105 272.108 261.031 270.803C261.746 269.785 261.914 267.339 261.325 266.443C261.031 266.035 261.325 265.342 262.335 264.201C264.017 262.123 269.57 253.239 272.347 248.063C274.282 244.517 274.408 244.028 274.197 242.072C274.071 240.89 274.155 239.912 274.324 239.912C274.997 239.912 276.09 237.426 275.838 236.448C275.67 235.755 275.922 235.185 276.764 234.329C277.899 233.228 283.62 224.263 285.682 220.391C286.775 218.231 286.649 218.109 289.089 224.344ZM294.011 236.856L294.936 239.097L293.296 240.564C291.066 242.52 287.701 247.329 280.76 258.659C273.735 270.07 272.557 272.271 272.725 273.575C272.851 274.512 272.515 274.757 269.528 276.02C267.677 276.754 266.163 277.365 266.079 277.283C266.036 277.243 267.172 275.286 268.603 272.923C270.075 270.559 273.651 264.609 276.637 259.678C279.582 254.746 282.569 249.978 283.242 249.082C286.144 245.21 289.678 239.912 290.982 237.345C291.781 235.837 292.581 234.614 292.791 234.614C292.959 234.614 293.548 235.633 294.011 236.856ZM266.752 243.947C266.752 244.151 266.457 244.517 266.079 244.843C265.069 245.658 259.053 254.502 257.876 256.906C257.329 258.088 256.698 259.026 256.529 259.066C256.151 259.066 252.028 251.038 252.028 250.304C252.028 250.019 253.585 249.122 255.52 248.307C257.413 247.452 260.568 246.066 262.545 245.21C266.499 243.498 266.752 243.417 266.752 243.947ZM298.26 246.963C299.059 248.796 300.952 252.79 302.466 255.806C303.981 258.822 305.285 261.43 305.369 261.552C305.411 261.675 303.686 262.367 301.541 263.06C299.353 263.794 294.011 265.832 289.636 267.665C285.261 269.459 281.265 271.13 280.76 271.293C280.087 271.578 280.592 270.64 282.737 267.502C285.64 263.305 287.617 259.922 293.296 249.408C295.02 246.188 296.493 243.58 296.619 243.58C296.745 243.58 297.46 245.088 298.26 246.963ZM194.271 246.188C194.313 246.229 194.902 247.778 195.617 249.612C196.753 252.587 196.837 252.953 196.164 252.953C194.691 252.953 192.672 254.624 190.569 257.599C189.349 259.27 188.255 260.574 188.129 260.493C188.003 260.411 187.035 258.781 185.983 256.866L184.09 253.402L185.815 251.975C186.783 251.201 188.297 249.449 189.181 248.104C190.821 245.658 190.821 245.658 192.504 245.903C193.429 246.025 194.229 246.147 194.271 246.188ZM199.192 258.944C200.328 261.878 201.843 263.998 203.189 264.405C203.567 264.527 203.357 265.016 202.432 265.954C201.716 266.687 200.118 269.051 198.898 271.13C197.72 273.208 196.584 274.96 196.416 274.96C196.122 274.96 192.251 268.032 191.957 267.013C191.915 266.769 192.798 265.016 193.976 263.142C195.154 261.267 196.416 258.822 196.837 257.762C197.215 256.662 197.636 255.806 197.762 255.806C197.888 255.806 198.519 257.232 199.192 258.944ZM224.643 262.693C225.4 264.935 226.956 268.644 228.092 270.926C229.228 273.208 230.154 275.123 230.154 275.164C230.154 275.205 229.607 275.368 228.976 275.49C228.303 275.612 227.125 276.387 226.325 277.161C224.475 279.036 218.165 290.365 216.65 294.604C216.019 296.397 215.346 298.027 215.136 298.19C214.967 298.353 213.958 298.801 212.906 299.209C211.854 299.576 210.803 299.983 210.55 300.065C210.34 300.187 209.583 299.168 208.91 297.783L207.69 295.337L208.868 293.422C211.308 289.306 217.113 277.406 218.627 273.534C220.31 269.133 220.941 265.179 220.058 264.161C219.258 263.223 218.122 263.427 216.692 264.65C215.346 265.872 207.101 279.769 204.829 284.578C204.072 286.249 203.315 287.594 203.189 287.594C203.063 287.594 202.221 286.249 201.296 284.578C199.781 281.726 199.697 281.522 200.37 280.788C200.749 280.381 202.263 277.691 203.736 274.797C206.091 270.111 206.386 269.214 206.47 266.85C206.512 264.283 206.554 264.201 207.942 263.509C208.699 263.142 211.223 262.449 213.495 262.001C215.767 261.512 218.796 260.574 220.226 259.922C221.656 259.27 222.876 258.7 223.002 258.7C223.128 258.659 223.844 260.493 224.643 262.693Z" fill="#D84242"/>
<path d="M294.641 253.119C291.907 254.953 286.102 262.248 286.102 263.878C286.102 265.223 286.438 265.712 287.7 266.364C289.383 267.22 290.939 266.242 293.337 262.818C297.123 257.398 299.1 252.182 297.46 251.856C297.123 251.774 295.861 252.345 294.641 253.119Z" fill="#D84242"/>
<path d="M57.0248 188.087C55.3694 188.582 53.4414 188.725 51.2408 188.515C49.0832 188.226 46.8432 187.326 44.5209 185.817C42.1985 184.307 39.9534 181.939 37.7854 178.714C35.6174 175.488 33.7167 171.147 32.0835 165.69C30.8723 161.643 30.1639 157.379 29.9583 152.898C29.7957 148.337 30.3196 143.838 31.5301 139.4C32.7405 134.963 34.7722 130.814 37.6251 126.954C40.5394 123.076 44.4371 119.805 49.3184 117.141C51.3175 116.008 53.6324 114.814 56.263 113.559C58.9366 112.225 61.6591 110.942 64.4307 109.712C67.1839 108.42 69.8114 107.266 72.3131 106.25C74.8762 105.216 77.0467 104.433 78.8248 103.9C81.7678 103.02 84.0943 102.758 85.8044 103.114C87.5145 103.471 88.7707 104.097 89.5732 104.992C90.3573 105.827 90.8687 106.642 91.1072 107.439C91.4009 108.42 91.3879 109.493 91.0684 110.658C90.8102 111.804 89.4701 112.906 87.048 113.965C86.5146 114.192 85.3955 114.694 83.6909 115.471C81.9679 116.187 79.9045 117.105 77.5008 118.226C75.1584 119.328 72.6719 120.506 70.0413 121.761C67.4536 122.936 64.9365 124.124 62.4898 125.324C60.0861 126.444 58.0104 127.433 56.2628 128.29C52.4364 130.237 49.5232 132.445 47.5232 134.914C45.5049 137.322 44.1302 139.871 43.399 142.562C42.7291 145.234 42.4638 147.919 42.6031 150.616C44.8904 149.33 47.2697 148.017 49.741 146.676C52.2123 145.335 54.5486 144.102 56.75 142.975C59.0128 141.83 60.9658 140.878 62.6092 140.119C64.2525 139.36 65.3807 138.889 65.9939 138.705C68.385 137.989 69.9177 137.865 70.5917 138.331C71.327 138.779 71.8873 139.647 72.2727 140.934C72.6214 142.099 71.9828 143.76 70.357 145.917C68.7128 148.012 65.8515 150.505 61.7732 153.396C57.6948 156.287 52.1512 159.416 45.1424 162.783C45.1607 162.844 45.1699 162.875 45.1699 162.875C45.4143 164.138 45.7444 165.576 46.1603 167.188C46.5577 168.739 46.9858 170.281 47.4446 171.814C47.9034 173.347 48.3716 174.576 48.8491 175.502C49.3267 176.428 49.8107 176.818 50.3012 176.671C51.6501 176.267 53.4376 175.432 55.6636 174.164C57.8896 172.897 60.2016 171.47 62.5994 169.884C64.9973 168.298 67.2204 166.797 69.2688 165.382C71.2988 163.906 72.7707 162.798 73.6846 162.056C75.0338 160.985 76.3832 159.913 77.7325 158.841C79.1431 157.75 80.3082 157.068 81.2279 156.792C82.1476 156.517 83.0548 156.646 83.9494 157.18C84.8257 157.653 85.3523 158.631 85.5291 160.115C85.6513 160.746 85.3103 161.95 84.5062 163.728C83.745 165.425 82.579 167.444 81.0082 169.785C79.4803 172.046 77.5448 174.396 75.2016 176.834C72.9013 179.193 70.221 181.398 67.1608 183.449C64.1436 185.421 60.7649 186.967 57.0248 188.087ZM144.992 135.503C141.436 136.567 137.812 137.184 134.122 137.353C130.493 137.504 126.974 137.355 123.566 136.905C123.869 142.827 124.512 149.215 125.494 156.069C125.8 157.982 125.936 159.778 125.905 161.458C125.855 163.076 125.446 164.501 124.679 165.733C123.912 166.964 122.517 167.883 120.493 168.489C118.593 169.057 117.116 168.698 116.062 167.41C115.009 166.122 114.161 164.405 113.518 162.259C113.316 161.585 113.039 159.764 112.685 156.797C112.331 153.829 111.926 150.243 111.469 146.038C110.993 141.771 110.512 137.372 110.024 132.842C106.758 131.08 104.813 129.157 104.189 127.073C103.877 126.03 103.89 124.957 104.228 123.854C104.609 122.671 105.75 121.796 107.65 121.227C107.896 121.153 108.26 121.144 108.745 121.2C108.33 117.583 107.934 114.361 107.555 111.535C107.22 108.629 106.899 106.554 106.594 105.309C106.019 102.943 105.873 101.116 106.156 99.8286C106.42 98.4802 106.957 97.4844 107.767 96.8412C108.619 96.1184 109.536 95.6102 110.517 95.3166C111.805 94.9312 112.868 94.9135 113.708 95.2634C114.548 95.6134 115.252 96.7387 115.821 98.6394C116.371 100.479 116.845 102.174 117.243 103.725C118.706 97.6757 120.75 93.1224 123.375 90.0651C125.983 86.9466 129.218 84.8092 133.08 83.6531C136.882 82.5153 140.505 82.5666 143.949 83.8071C147.393 85.0476 150.469 87.4004 153.176 90.8656C155.927 94.2512 158.118 98.6724 159.752 104.129C162.247 112.468 162.179 119.269 159.546 124.533C156.955 129.717 152.104 133.374 144.992 135.503ZM123.445 125.117C126.081 125.664 128.824 126.012 131.674 126.161C134.506 126.249 137.271 125.889 139.969 125.082C144.322 123.779 147.171 121.69 148.515 118.816C149.921 115.923 149.844 111.871 148.284 106.66C145.513 97.4016 141.337 93.6075 135.758 95.2774C132.202 96.3418 129.334 99.3713 127.155 104.366C125.037 109.342 123.8 116.259 123.445 125.117ZM193.897 147.119C192.303 147.597 190.909 147.179 189.714 145.866C188.52 144.554 187.335 141.935 186.161 138.011C184.509 132.493 183.103 126.568 181.942 120.234C180.825 113.822 179.775 106.854 178.793 99.332C178.128 93.3179 179.299 88.1908 182.306 83.9507C185.373 79.6923 189.955 75.5819 196.051 71.6196C199.853 69.1454 203.836 66.7174 208 64.3354C212.164 61.9535 216.116 59.8687 219.857 58.0811C223.64 56.2138 226.819 54.8948 229.395 54.124C231.357 53.5368 232.981 53.3846 234.268 53.6674C235.555 53.9502 236.551 54.4872 237.256 55.2784C238.003 55.99 238.487 56.7136 238.707 57.4494C239.056 58.6143 239.092 59.7392 238.815 60.8241C238.539 61.9089 237.554 62.9719 235.862 64.0129C235.138 64.4967 233.58 65.4306 231.189 66.8145C228.84 68.1187 225.946 69.7199 222.505 71.618C219.127 73.4978 215.551 75.5031 211.78 77.634C207.99 79.7036 204.333 81.7671 200.806 83.8245C197.397 86.0476 195.041 88.2223 193.74 90.3486C192.482 92.3953 192.018 94.9727 192.347 98.0808C192.408 98.7307 192.542 99.6257 192.75 100.766C195.025 99.2166 197.53 97.7654 200.265 96.4123C203 95.0593 205.557 93.8932 207.936 92.9139C210.315 91.9346 212.087 91.2706 213.252 90.9219C214.478 90.5549 215.83 90.3841 217.307 90.4095C218.828 90.3553 220.198 90.58 221.417 91.0834C222.68 91.5072 223.485 92.3015 223.834 93.4665C224.164 94.5701 224.038 95.7102 223.455 96.8868C222.853 98.0021 221.354 99.3529 218.956 100.939C218.459 101.288 217.276 101.91 215.405 102.803C213.596 103.679 211.447 104.756 208.958 106.036C206.511 107.236 204.021 108.516 201.489 109.875C199.017 111.216 196.862 112.496 195.022 113.714C195.584 117.154 196.176 120.584 196.799 124.005C197.422 127.426 197.978 130.399 198.467 132.925C198.938 135.39 199.203 136.947 199.264 137.597C199.575 139.975 199.219 142.02 198.194 143.729C197.169 145.439 195.737 146.569 193.897 147.119ZM277.821 126.41C275.552 127.089 273.027 127.243 270.244 126.874C267.479 126.566 264.863 125.411 262.393 123.411C259.986 121.393 258.158 118.299 256.91 114.13C255.589 109.716 254.589 105.038 253.912 100.096C253.278 95.0754 252.885 90.0822 252.735 85.1168C252.628 80.0716 252.696 75.2749 252.937 70.7265C253.241 66.1598 253.651 62.0621 254.168 58.4334C254.747 54.7864 255.414 51.8811 256.169 49.7177C256.967 47.4746 257.765 46.2337 258.562 45.9952C260.218 45.4997 261.873 45.6724 263.527 46.5132C265.243 47.3358 266.477 49.0039 267.23 51.5177C267.413 52.1309 267.495 53.7431 267.475 56.3545C267.498 58.8863 267.48 62.0647 267.423 65.8899C267.427 69.6967 267.399 73.8467 267.341 78.34C267.326 82.7537 267.391 87.2103 267.535 91.7099C267.741 96.1911 268.026 100.381 268.392 104.28C268.818 108.161 269.426 111.419 270.215 114.056C270.435 114.792 270.975 115.031 271.833 114.774C273.059 114.407 274.776 113.559 276.984 112.23C279.253 110.883 281.691 109.318 284.297 107.536C286.946 105.674 289.482 103.88 291.905 102.153C294.327 100.425 296.397 98.9709 298.114 97.7889C299.832 96.6069 300.813 95.9792 301.058 95.9058C302.591 95.447 303.946 95.5091 305.122 96.0922C306.299 96.6754 307.126 97.764 307.603 99.3581C307.933 100.462 307.583 101.97 306.552 103.881C305.502 105.732 303.981 107.791 301.987 110.058C299.975 112.263 297.62 114.438 294.921 116.582C292.302 118.769 289.518 120.738 286.568 122.489C283.618 124.24 280.703 125.547 277.821 126.41ZM329.892 82.7661C329.034 83.023 328.167 82.9151 327.29 82.4426C326.457 81.8903 325.756 80.6639 325.187 78.7632C324.783 77.4143 324.395 75.2256 324.023 72.1971C323.651 69.1686 323.335 65.6559 323.074 61.6589C322.856 57.5822 322.714 53.3156 322.65 48.859C322.567 44.3411 322.603 39.8876 322.759 35.4985C322.897 31.0482 323.185 26.9872 323.622 23.3155C323.82 21.5195 324.504 20.012 325.676 18.7928C326.89 17.494 328.356 16.5877 330.073 16.0739C331.851 15.5417 333.386 15.984 334.679 17.4009C335.971 18.8178 336.911 20.5072 337.498 22.4692C337.719 23.2049 337.764 24.6946 337.633 26.9381C337.565 29.1633 337.379 31.8911 337.076 35.1214C336.774 38.3518 336.422 41.8641 336.022 45.6584C335.664 49.373 335.293 53.1581 334.911 57.0137C334.571 60.7896 334.278 64.3847 334.031 67.799C333.783 71.2133 333.64 74.1955 333.602 76.7456C333.607 78.5478 333.281 79.9147 332.625 80.846C332.029 81.759 331.119 82.399 329.892 82.7661ZM332.79 109.857C332.054 110.077 331.141 110.15 330.05 110.076C328.959 110.001 327.834 109.369 326.676 108.179C325.598 107.032 324.609 104.957 323.71 101.952C323.013 99.6225 323.216 97.6242 324.321 95.9575C325.425 94.2909 327.204 93.0905 329.656 92.3564C331.741 91.7325 333.51 91.8378 334.962 92.6724C336.475 93.4887 337.553 94.9698 338.196 97.1157C338.783 99.0777 338.815 100.972 338.293 102.798C337.832 104.606 337.056 106.142 335.964 107.404C334.952 108.709 333.894 109.526 332.79 109.857Z" fill="#D84242"/>
</svg>
