<svg width="535" height="223" viewBox="0 0 535 223" fill="none" xmlns="http://www.w3.org/2000/svg">
<path d="M499.996 147.955C499.834 146.713 499.851 145.174 500.041 144.572C500.6 142.808 500.977 134.058 500.776 128.346C500.445 120.211 500.107 115.471 498.513 96.7423C496.767 76.3334 495.615 60.2601 494.811 46.3269C494.334 37.439 494.364 35.9926 495.028 34.4376C495.742 32.8548 495.754 32.5495 495.012 31.6527C493.97 30.3521 491.563 29.8547 486.909 29.9699C482.256 30.0851 464.303 32.9171 450.758 35.6002C444.598 36.8271 430.29 39.4893 418.964 41.5073C407.496 43.5685 395.72 45.9293 392.377 46.9007L386.414 48.5869L386.098 47.4276C385.926 46.7554 385.429 45.8923 384.962 45.4795C384.273 44.8201 383.975 44.8142 383.112 45.2467C382.12 45.8151 382.107 45.8552 381.728 49.6182C381.212 54.3527 380.969 66.1897 381.224 74.5658C381.767 94.8587 384.042 126.29 386.322 145.279C386.838 149.458 387.49 155.092 387.739 157.818L388.22 162.78L387.164 163.549C385.632 164.608 384.973 166.959 385.783 168.451C387.508 171.644 392.163 171.794 411.862 169.251C416.642 168.602 426.55 167.415 433.863 166.597C441.188 165.739 449.507 164.711 452.323 164.323C462.772 162.777 481.376 158.43 491.893 155.053C494.318 154.277 496.513 153.692 496.707 153.753C496.94 153.827 497.701 153.583 498.384 153.181C499.97 152.36 500.401 150.996 499.996 147.955ZM489.702 145.093C486.048 139.083 476.912 128.38 467.786 119.534C462.014 113.867 459.705 112.519 457.746 113.575C456.303 114.354 455.617 116.519 456.363 118.212C457.255 120.391 461.391 124.746 474.105 137.11C480.774 143.59 486.208 148.973 486.209 149.106C486.171 149.226 484.828 149.551 483.266 149.895L480.361 150.431L478.835 148.227C474.794 142.359 465.08 132.267 462.671 131.505C460.65 130.865 459.09 131.607 458.494 133.492C457.77 135.778 459.373 138.138 466.616 145.373C470.022 148.791 472.87 151.678 472.922 151.783C472.987 151.847 470.469 152.374 467.357 152.889L461.7 153.878L461.031 152.21C459.418 148.125 452.658 139.366 450.599 138.714C449.861 138.48 449.938 138.372 451.56 137.165C452.872 136.124 453.321 135.516 453.458 134.545C454.069 130.59 454.092 127.95 453.663 120.666C453.443 116.228 453.332 112.531 453.435 112.475C453.538 112.419 457.053 112.253 461.267 112.175C468.066 112.033 468.868 112.066 468.859 112.769C468.861 113.167 469.28 114.138 469.802 114.921C471.471 117.347 485.59 133.51 487.031 134.628C488.68 135.901 490.455 136.507 491.034 136.028C491.625 135.509 491.746 136.342 491.786 140.943C491.811 143.158 491.993 145.554 492.205 146.371C492.865 148.875 491.647 148.268 489.702 145.093ZM490.248 132.029C487.517 126.884 480.845 117.712 477.244 114.1L475.176 111.99L476.826 111.232C478.296 110.506 478.463 110.25 478.79 108.677C479.004 107.73 478.839 103.795 478.468 99.971C478.149 96.1193 477.962 92.9274 478.078 92.8317C478.22 92.7884 480.005 95.1183 482.013 98.0927C484.033 101.027 486.638 104.411 487.834 105.628L489.98 107.763L490.26 111.603C490.748 117.758 491.626 133.347 491.486 133.789C491.423 133.989 490.862 133.194 490.248 132.029ZM486.193 92.1798C481.531 84.0852 479.047 81.4012 476.737 82.0817C476.363 82.1839 475.533 81.833 474.78 81.2416C472.677 79.649 466.947 79.2471 457.683 80.0203C456.404 80.1448 455.292 80.1458 455.266 80.0934C455.214 79.9886 454.663 76.4609 454.044 72.2054L452.849 64.5024L456.295 67.9319C463.849 75.5305 469.89 78.458 468.714 73.9377C468.185 71.9613 465.401 66.579 463.446 63.8421C460.996 60.3747 454.787 52.9816 451.041 49.0158L447.855 45.7125L451.47 44.8272L455.072 43.982L455.492 45.2183C456.136 46.9664 458.611 50.221 468.427 62.1537C479.505 75.6335 481.132 77.5164 484.899 80.739L487.979 83.4347L488.508 90.1329C488.801 93.7996 489.025 96.8712 489.039 96.9637C489.026 97.0038 487.734 94.8739 486.193 92.1798ZM485.434 72.5687C481.971 66.0891 470.31 50.1302 465.238 44.9504C464.003 43.721 463.079 42.59 463.13 42.4296C463.18 42.2691 464.445 41.9195 465.904 41.6313C468.164 41.2438 468.617 41.2989 468.853 41.9032C468.985 42.2978 470.796 44.6802 472.853 47.2289C474.923 49.7374 478.269 54.0182 480.301 56.6471C482.32 59.3161 484.65 62.0835 485.443 62.8199C486.834 64.0985 486.952 64.4007 487.098 67.4476C487.186 69.1962 487.304 71.7929 487.428 73.156C487.514 74.5067 487.573 75.8051 487.509 76.0056C487.485 76.2184 486.532 74.6371 485.434 72.5687ZM462.167 104.606C451.167 104.785 447.9 105.383 446.103 107.55C445.204 108.633 445.128 109.007 445.142 111.394C445.164 115.24 445.956 122.594 446.808 126.924L447.515 130.633L445.512 130.749C440.071 131.056 436.712 131.405 434.878 131.795C433.742 132.009 432.747 132.047 432.642 131.837C432.55 131.587 432.225 128.969 431.975 125.978C431.214 117.177 430.356 111.919 429.218 109.573C428.288 107.514 428.016 107.295 426.189 106.717C423.936 106.003 420.097 106.112 412.411 107.164C409.647 107.524 407.218 107.77 407.024 107.709C406.829 107.647 406.678 105.967 406.666 103.977C406.706 101.96 406.441 98.4787 406.092 96.206C405.742 93.9333 405.564 92.0676 405.615 92.0398C405.938 91.9655 420.254 90.6295 424.415 90.3142C429.054 89.9739 430.228 89.5071 430.749 87.9954C430.901 87.5142 430.719 84.9854 430.393 82.3673C429.881 78.7193 429.869 76.5974 430.315 73.1644C430.663 70.7154 430.908 68.3219 430.931 67.8438C430.965 67.0604 431.804 66.8407 437.59 65.8486C441.245 65.2408 444.333 64.9388 444.437 65.1484C444.529 65.3982 445.223 69.1478 445.972 73.5327C446.868 78.8026 447.197 81.9512 446.93 82.7934C446.13 85.32 447.075 87.737 449.134 88.389C449.639 88.5489 454.887 88.4455 460.806 88.1132C466.712 87.8211 471.623 87.5668 471.701 87.5914C471.779 87.616 471.828 89.4849 471.841 91.7394C471.867 93.9537 471.978 97.6515 472.094 99.8503C472.198 102.089 472.234 103.998 472.223 104.171C472.172 104.331 467.622 104.524 462.167 104.606ZM450.254 155.196L446.171 155.535L444.316 152.212C443.323 150.354 441.015 146.976 439.218 144.686C437.434 142.356 436.013 140.362 436.025 140.189C436.089 139.988 436.477 139.979 436.865 140.102C437.836 140.409 443.691 140.145 444.93 139.743C446.13 139.329 446.518 139.452 446.29 140.173C445.921 141.337 447.24 143.519 451.562 148.77C456.704 155.076 456.792 154.662 450.254 155.196ZM486.317 50.7418C486.201 50.7049 485.38 49.5183 484.493 48.1343C483.644 46.7626 481.82 44.2878 480.518 42.5958L478.135 39.591L480.265 39.074C483.493 38.3309 486.748 37.9054 486.944 38.2322C487.088 38.5867 486.866 49.4151 486.664 50.322C486.588 50.5627 486.434 50.7787 486.317 50.7418ZM436.156 156.248L431.284 156.514L430.37 154.945C428.869 152.396 424.948 147.228 420.627 142.241C418.415 139.644 414.939 135.366 412.946 132.749C407.918 126.083 405.757 123.59 399.75 117.452C396.226 113.865 394.082 111.995 393.188 111.712L391.867 111.294L391.223 102.662C390.898 97.8821 390.604 93.8175 390.577 93.6325C390.55 93.4475 391.524 94.2854 392.759 95.5149C399.963 102.87 401.158 97.0709 394.307 88.0623C393.343 86.7864 391.965 85.4676 391.226 85.1013C389.903 84.4178 389.864 84.2729 389.358 79.3912C389.109 76.6651 388.927 74.269 388.991 74.0684C389.042 73.908 389.678 74.4626 390.433 75.3193C393.036 78.438 399.38 84.4617 400.845 85.2345L402.388 86.0318L401.331 86.6681C399.476 87.8017 399.376 88.3877 399.762 94.864C399.976 98.3735 399.969 103.798 399.755 107.04C399.326 113.523 399.369 114.198 400.333 115.474C401.088 116.464 403.369 117.362 404.401 117.071C404.879 116.914 405.45 117.404 406.234 118.71C407.707 120.942 414.501 128.918 418.597 133.127C421.393 136.042 421.822 136.31 423.75 136.7C424.915 136.936 425.822 137.311 425.771 137.472C425.568 138.114 427.608 139.907 428.617 139.961C429.328 140.01 429.796 140.423 430.358 141.483C431.064 142.898 437.884 151.059 440.953 154.192C442.682 155.887 442.837 155.804 436.156 156.248ZM422.743 157.163L420.326 157.369L419.423 155.362C418.231 152.646 414.662 147.986 405.956 137.949C397.198 127.807 395.455 126.02 394.161 125.787C393.229 125.624 393.098 125.23 392.795 122.001C392.654 120.015 392.529 118.387 392.632 118.331C392.683 118.303 394.205 119.977 396.027 122.054C397.836 124.171 402.429 129.376 406.229 133.712C410.041 138.007 413.686 142.294 414.337 143.206C417.152 147.142 421.137 152.11 423.191 154.128C424.387 155.345 425.311 156.476 425.248 156.677C425.197 156.837 424.048 157.091 422.743 157.163ZM424.21 129.035C424.016 128.974 423.755 128.582 423.559 128.123C423.086 126.914 416.471 118.51 414.534 116.661C413.573 115.783 412.869 114.899 412.881 114.726C412.996 114.365 421.894 112.858 422.593 113.08C422.865 113.166 423.25 114.92 423.443 117.011C423.688 119.074 424.056 122.5 424.276 124.643C424.714 128.93 424.715 129.195 424.21 129.035ZM411.825 158.163C409.835 158.372 405.456 158.971 402.124 159.504C398.792 160.038 395.911 160.494 395.769 160.537C395.64 160.54 395.5 158.687 395.487 156.432C395.448 154.126 395.118 148.417 394.69 143.693C394.301 138.981 393.915 134.666 393.912 134.136C393.843 133.408 394.584 134.172 396.928 137.165C400.054 141.199 402.682 144.105 410.992 152.693C413.541 155.309 415.583 157.5 415.545 157.62C415.507 157.741 413.853 157.967 411.825 158.163ZM443.951 59.2583C443.9 59.2861 442.245 59.3801 440.281 59.5083C437.102 59.6932 436.727 59.6627 436.93 59.021C437.375 57.6173 436.391 55.1879 434.19 52.2847C432.965 50.6173 432.052 49.181 432.168 49.0853C432.283 48.9895 434.13 48.5592 436.273 48.1347L440.147 47.3756L440.986 49.4505C441.432 50.6066 442.646 52.5793 443.661 53.8275C445.497 56.1296 445.497 56.1296 444.756 57.66C444.361 58.5054 444.003 59.2305 443.951 59.2583ZM430.305 60.1002C427.164 60.2974 424.687 61.1015 423.892 62.2618C423.661 62.5859 423.258 62.2377 422.644 61.0725C422.161 60.1693 420.39 57.9318 418.776 56.1414C417.15 54.3911 415.823 52.7794 415.873 52.6189C415.962 52.3382 423.735 50.7398 424.796 50.7666C425.041 50.8003 426.446 52.1714 427.877 53.8602C429.309 55.549 431.259 57.4902 432.142 58.2111C433.077 58.9042 433.766 59.5636 433.728 59.6839C433.69 59.8042 432.14 59.9752 430.305 60.1002ZM419.048 83.2318C416.683 83.2772 412.677 83.6416 410.159 84.0356C407.64 84.4295 405.535 84.7337 405.496 84.7214C405.457 84.7091 405.467 84.1385 405.54 83.5C405.627 82.8215 405.244 81.4648 404.747 80.4691C403.519 78.1386 394.622 68.7032 391.039 65.9801C389.52 64.8373 388.169 63.7035 388.077 63.4538C387.972 63.2442 387.85 62.1464 387.778 61.0207C387.746 59.9074 387.675 58.7818 387.674 58.5166C387.621 58.2791 388.82 57.8648 390.345 57.6413L393.044 57.2164L394.515 58.9175C397.702 62.486 407.295 71.6124 410.529 74.2248C414.217 77.1575 417.795 78.9523 419.033 78.4176C420.168 77.9385 420.317 76.7942 419.583 75.0616C418.824 73.4092 408.064 61.354 404.165 57.7368C402.8 56.5105 401.747 55.3827 401.785 55.2624C401.823 55.1421 403.359 54.7459 405.231 54.368C408.408 53.7853 408.628 53.7666 409.124 54.6297C409.398 55.1137 411.505 57.3693 413.819 59.6464C417.576 63.3069 418.342 63.8582 420.57 64.6519C423.005 65.467 423.07 65.5317 423.312 67.0643C423.433 67.8969 423.332 70.5123 423.073 72.8132C422.854 75.1265 422.833 78.297 423.023 79.8573C423.213 81.4177 423.389 82.753 423.351 82.8733C423.352 83.0059 421.387 83.1341 419.048 83.2318Z" fill="#D84242"/>
<path d="M407.047 152.852C406.124 149.692 400.921 141.956 399.367 141.464C398.085 141.058 397.517 141.231 396.515 142.237C395.191 143.583 395.654 145.362 398.194 148.681C402.218 153.927 406.595 157.386 407.401 155.921C407.58 155.624 407.417 154.249 407.047 152.852Z" fill="#D84242"/>
<path d="M42.3962 188.299C40.6837 188.529 38.7571 188.369 36.6163 187.818C34.5304 187.195 32.4584 185.957 30.4004 184.103C28.3424 182.249 26.4946 179.56 24.8572 176.035C23.2197 172.51 22.0206 167.925 21.2598 162.28C20.6957 158.094 20.6621 153.772 21.1591 149.314C21.711 144.783 22.9313 140.421 24.8201 136.228C26.7089 132.034 29.3637 128.253 32.7847 124.886C36.269 121.511 40.6299 118.889 45.8673 117.02C48.0189 116.214 50.4918 115.396 53.2862 114.567C56.1354 113.667 59.0249 112.825 61.9547 112.043C64.8759 111.197 67.6514 110.468 70.2811 109.855C72.9743 109.234 75.2405 108.8 77.0799 108.552C80.1244 108.141 82.4633 108.246 84.0966 108.865C85.73 109.485 86.8731 110.299 87.5258 111.309C88.17 112.256 88.5476 113.141 88.6587 113.966C88.7955 114.981 88.6151 116.038 88.1176 117.138C87.6836 118.23 86.1876 119.11 83.6299 119.777C83.0676 119.918 81.8839 120.239 80.0787 120.74C78.265 121.179 76.0835 121.763 73.5343 122.494C71.0485 123.217 68.4084 123.992 65.6141 124.821C62.8746 125.578 60.2028 126.357 57.5987 127.16C55.0495 127.891 52.8449 128.544 50.9848 129.117C46.9013 130.443 43.6789 132.168 41.3178 134.295C38.9481 136.358 37.1919 138.661 36.0494 141.204C34.9703 143.739 34.2888 146.35 34.005 149.036C36.4652 148.123 39.0204 147.197 41.6708 146.259C44.3213 145.32 46.8217 144.467 49.172 143.698C51.5858 142.921 53.6636 142.285 55.4054 141.792C57.1471 141.299 58.3351 141.01 58.9694 140.925C61.443 140.591 62.9763 140.707 63.5692 141.273C64.2255 141.831 64.6434 142.775 64.8229 144.107C64.9853 145.312 64.0951 146.853 62.1523 148.729C60.201 150.542 56.9854 152.558 52.5055 154.776C48.0256 156.994 42.0613 159.219 34.6125 161.45C34.6211 161.513 34.6253 161.545 34.6253 161.545C34.6694 162.83 34.7709 164.302 34.9297 165.96C35.08 167.554 35.262 169.144 35.4757 170.729C35.6894 172.315 35.9597 173.603 36.2868 174.592C36.6138 175.581 37.0311 176.041 37.5385 175.973C38.9339 175.785 40.8299 175.239 43.2266 174.335C45.6233 173.43 48.1298 172.382 50.746 171.19C53.3622 169.998 55.7924 168.863 58.0366 167.786C60.2723 166.645 61.8993 165.78 62.9178 165.191C64.418 164.343 65.9181 163.495 67.4183 162.647C68.9819 161.79 70.2394 161.298 71.1908 161.17C72.1422 161.041 73.0181 161.311 73.8183 161.978C74.6101 162.582 74.9774 163.63 74.9203 165.123C74.9423 165.766 74.4174 166.902 73.3454 168.532C72.3284 170.09 70.8613 171.902 68.9441 173.968C67.0818 175.963 64.803 177.981 62.1076 180.024C59.4671 181.994 56.4753 183.753 53.1322 185.302C49.8439 186.778 46.2652 187.777 42.3962 188.299ZM137.498 150.102C133.819 150.598 130.144 150.642 126.472 150.232C122.864 149.814 119.412 149.117 116.116 148.141C115.49 154.037 115.127 160.447 115.027 167.37C115.03 169.307 114.884 171.103 114.59 172.757C114.288 174.348 113.662 175.691 112.712 176.788C111.762 177.885 110.24 178.574 108.147 178.856C106.181 179.121 104.778 178.535 103.939 177.099C103.099 175.662 102.53 173.833 102.231 171.614C102.137 170.916 102.147 169.074 102.261 166.088C102.375 163.102 102.535 159.496 102.741 155.271C102.938 150.982 103.149 146.562 103.375 142.011C100.424 139.761 98.8037 137.558 98.513 135.402C98.3677 134.323 98.5481 133.266 99.0541 132.229C99.615 131.12 100.879 130.433 102.845 130.168C103.099 130.134 103.46 130.182 103.93 130.313C104.085 126.675 104.197 123.431 104.265 120.581C104.388 117.658 104.395 115.558 104.288 114.281C104.09 111.854 104.231 110.027 104.712 108.799C105.183 107.509 105.869 106.609 106.769 106.1C107.724 105.52 108.709 105.161 109.724 105.024C111.056 104.845 112.109 104.993 112.884 105.47C113.659 105.947 114.179 107.168 114.443 109.135C114.7 111.037 114.903 112.786 115.054 114.38C117.443 108.633 120.174 104.455 123.245 101.846C126.307 99.1728 129.836 97.567 133.832 97.0285C137.765 96.4986 141.335 97.1152 144.543 98.8785C147.752 100.642 150.422 103.446 152.555 107.292C154.742 111.066 156.217 115.775 156.977 121.42C158.14 130.046 157.01 136.753 153.586 141.541C150.218 146.257 144.855 149.111 137.498 150.102ZM117.838 136.478C120.356 137.43 123.011 138.203 125.803 138.795C128.586 139.324 131.374 139.401 134.164 139.024C138.668 138.418 141.808 136.8 143.584 134.171C145.425 131.533 145.982 127.519 145.255 122.128C143.964 112.55 140.433 108.151 134.661 108.928C130.982 109.424 127.677 111.969 124.744 116.561C121.874 121.146 119.572 127.785 117.838 136.478ZM183.988 169.216C182.339 169.439 181.027 168.808 180.052 167.325C179.077 165.842 178.317 163.071 177.769 159.012C177 153.303 176.537 147.231 176.38 140.794C176.278 134.285 176.329 127.239 176.534 119.656C176.817 113.612 178.775 108.731 182.407 105.012C186.102 101.285 191.27 97.9413 197.91 94.9799C202.052 93.1301 206.365 91.3541 210.85 89.6519C215.335 87.9496 219.564 86.5078 223.538 85.3265C227.567 84.0732 230.913 83.267 233.577 82.908C235.607 82.6345 237.235 82.7379 238.462 83.2183C239.689 83.6987 240.589 84.3847 241.161 85.2763C241.788 86.0958 242.153 86.8862 242.256 87.6473C242.418 88.8524 242.278 89.9691 241.835 90.9975C241.393 92.0258 240.254 92.9219 238.42 93.6857C237.63 94.0506 235.945 94.7296 233.367 95.7229C230.843 96.6442 227.734 97.7736 224.04 99.111C220.409 100.44 216.564 101.862 212.506 103.378C208.44 104.83 204.504 106.297 200.7 107.778C196.985 109.441 194.319 111.221 192.702 113.118C191.139 114.943 190.278 117.416 190.117 120.538C190.076 121.189 190.069 122.094 190.096 123.253C192.585 122.078 195.286 121.036 198.199 120.127C201.112 119.217 203.819 118.465 206.322 117.869C208.825 117.274 210.679 116.895 211.884 116.732C213.153 116.561 214.515 116.604 215.97 116.86C217.48 117.044 218.798 117.48 219.924 118.167C221.105 118.783 221.776 119.694 221.939 120.899C222.093 122.04 221.79 123.147 221.03 124.218C220.262 125.226 218.569 126.325 215.953 127.518C215.408 127.785 214.142 128.214 212.155 128.804C210.232 129.386 207.94 130.115 205.281 130.99C202.677 131.793 200.018 132.668 197.305 133.615C194.654 134.553 192.325 135.481 190.317 136.397C190.335 139.882 190.384 143.362 190.465 146.839C190.546 150.315 190.631 153.339 190.719 155.91C190.799 158.418 190.818 159.998 190.777 160.649C190.712 163.047 190.041 165.01 188.761 166.539C187.482 168.067 185.891 168.96 183.988 169.216ZM270.117 161.871C267.77 162.187 265.251 161.946 262.56 161.146C259.878 160.41 257.473 158.861 255.347 156.5C253.284 154.13 251.962 150.789 251.38 146.476C250.765 141.909 250.509 137.132 250.612 132.146C250.769 127.088 251.162 122.094 251.79 117.166C252.472 112.167 253.288 107.439 254.237 102.984C255.25 98.5212 256.296 94.5379 257.373 91.0345C258.515 87.5227 259.627 84.7573 260.711 82.7384C261.85 80.6476 262.832 79.5466 263.656 79.4354C265.369 79.2047 266.977 79.6338 268.48 80.7228C270.046 81.8033 271.004 83.6438 271.355 86.2442C271.44 86.8785 271.269 88.4838 270.841 91.06C270.469 93.5642 269.955 96.7009 269.3 100.47C268.709 104.231 268.034 108.326 267.275 112.755C266.571 117.112 265.938 121.524 265.378 125.991C264.881 130.449 264.508 134.632 264.26 138.54C264.075 142.44 264.167 145.753 264.534 148.481C264.637 149.242 265.132 149.563 266.02 149.443C267.288 149.272 269.117 148.703 271.505 147.735C273.957 146.759 276.609 145.594 279.462 144.241C282.369 142.816 285.154 141.44 287.817 140.112C290.48 138.785 292.751 137.671 294.632 136.772C296.513 135.873 297.58 135.406 297.834 135.372C299.419 135.158 300.748 135.431 301.819 136.191C302.89 136.951 303.536 138.155 303.759 139.804C303.913 140.946 303.331 142.38 302.014 144.108C300.688 145.772 298.864 147.568 296.54 149.495C294.208 151.359 291.542 153.139 288.542 154.835C285.614 156.586 282.556 158.096 279.369 159.365C276.182 160.634 273.098 161.469 270.117 161.871ZM328.367 126.898C327.479 127.018 326.639 126.776 325.847 126.172C325.11 125.496 324.609 124.175 324.344 122.209C324.156 120.814 324.115 118.591 324.221 115.542C324.326 112.492 324.563 108.973 324.929 104.985C325.35 100.924 325.877 96.6877 326.51 92.2757C327.134 87.8003 327.865 83.4072 328.705 79.0964C329.536 74.7222 330.455 70.756 331.461 67.1978C331.936 65.4547 332.848 64.0725 334.195 63.0514C335.598 61.9583 337.187 61.292 338.963 61.0527C340.803 60.8048 342.25 61.4816 343.305 63.083C344.361 64.6843 345.025 66.4999 345.299 68.5295C345.401 69.2906 345.213 70.769 344.734 72.9647C344.318 75.1518 343.709 77.8171 342.905 80.9605C342.102 84.104 341.206 87.5183 340.217 91.2033C339.284 94.8164 338.327 98.4972 337.346 102.246C336.421 105.922 335.57 109.427 334.792 112.761C334.014 116.095 333.407 119.018 332.971 121.531C332.694 123.312 332.159 124.611 331.365 125.428C330.635 126.237 329.635 126.727 328.367 126.898ZM326.997 154.109C326.236 154.211 325.322 154.141 324.256 153.897C323.19 153.653 322.178 152.853 321.22 151.497C320.334 150.195 319.682 147.991 319.263 144.883C318.938 142.473 319.452 140.531 320.803 139.057C322.154 137.583 324.098 136.676 326.635 136.334C328.792 136.043 330.522 136.423 331.826 137.475C333.194 138.517 334.027 140.149 334.326 142.369C334.6 144.398 334.336 146.274 333.535 147.997C332.797 149.711 331.79 151.106 330.515 152.182C329.311 153.312 328.138 153.955 326.997 154.109Z" fill="#D84242"/>
</svg>
