<svg width="611" height="339" viewBox="0 0 611 339" fill="none" xmlns="http://www.w3.org/2000/svg">
<path d="M52.7705 194.298C51.5704 194.641 50.6012 194.568 49.863 194.08C49.1335 193.622 48.501 192.455 47.9655 190.578C47.509 188.978 47.178 186.826 46.9726 184.123C46.7671 181.419 46.5661 178.498 46.3696 175.36C44.0424 180.15 40.797 183.705 36.6335 186.024C36.2678 188.125 35.7043 190.116 34.9432 191.997C34.182 193.878 33.2297 195.497 32.0863 196.855C30.9649 198.173 29.6502 199.047 28.1424 199.477C26.2653 200.013 24.4742 199.858 22.769 199.014C21.0947 198.16 19.8932 196.456 19.1646 193.902C18.673 192.179 18.5176 190.643 18.6983 189.293C18.8703 187.913 19.207 186.819 19.7085 186.01C18.821 184.999 18.1622 183.739 17.732 182.232C17.1526 180.201 17.193 178.242 17.8531 176.357C18.5132 174.472 19.6237 172.824 21.1847 171.413C22.7765 169.994 24.6494 168.977 26.8035 168.363C28.0036 168.021 29.23 168.004 30.4826 168.312C31.7572 168.58 32.9085 169.234 33.9367 170.271C34.9868 171.27 35.7752 172.692 36.3019 174.538C36.7408 176.077 36.9929 177.835 37.058 179.813C38.8741 177.897 40.5234 175.513 42.0059 172.661C43.5191 169.801 44.7226 166.729 45.6162 163.445C45.9023 162.465 46.5223 161.839 47.4763 161.567C48.2764 161.339 48.9774 161.405 49.5795 161.766C50.2035 162.087 50.6252 162.632 50.8447 163.401C50.8886 163.555 50.9411 164.089 51.0023 165.004C51.0635 165.918 51.1377 167.111 51.225 168.584C51.3035 170.026 51.3908 171.615 51.4868 173.351C51.6135 175.078 51.7491 176.837 51.8934 178.626C52.0377 180.415 52.1865 182.103 52.3397 183.69C52.7272 182.015 53.1499 180.231 53.6078 178.336C54.0877 176.403 54.6072 174.491 55.1662 172.601C55.7164 170.68 56.2951 168.918 56.9024 167.314C57.5096 165.71 58.1189 164.404 58.7303 163.398C59.3329 162.361 59.9266 161.759 60.5112 161.592C61.6806 161.259 62.7619 161.316 63.7551 161.765C64.7483 162.214 65.3458 162.792 65.5477 163.5C65.7496 164.207 65.9844 165.322 66.2519 166.843C66.5194 168.364 66.7934 170.083 67.0739 171.999C67.3764 173.876 67.668 175.773 67.9485 177.689C68.229 179.606 68.5074 181.34 68.7837 182.892C69.0512 184.413 69.2903 185.543 69.501 186.281C69.6766 186.897 69.551 187.565 69.1244 188.285C68.6977 189.006 68.1151 189.472 67.3766 189.682C67.315 189.7 67.2073 189.731 67.0535 189.775C66.693 189.911 66.3369 189.946 65.9853 189.88C65.6425 189.844 65.2492 189.457 64.8056 188.719C64.3927 187.971 63.9141 186.644 63.3699 184.736C63.0012 183.443 62.6589 182.01 62.3431 180.437C62.0272 178.863 61.7422 177.28 61.4879 175.689C61.2556 174.058 61.0694 172.531 60.9293 171.107C60.5067 172.658 60.0445 174.42 59.5426 176.394C59.0627 178.328 58.5498 180.321 58.0039 182.373C57.4492 184.395 56.8748 186.289 56.2807 188.056C55.7086 189.783 55.119 191.216 54.5119 192.354C53.9357 193.484 53.3552 194.132 52.7705 194.298ZM31.0169 183.833C31.0746 182.518 31.0421 181.18 30.9196 179.817C30.7883 178.424 30.5427 177.096 30.1828 175.835C30.0336 175.311 29.781 174.834 29.4251 174.403C29.0693 173.973 28.6298 173.832 28.1067 173.981C27.0604 174.279 26.091 174.789 25.1984 175.509C24.3366 176.221 23.6967 177.069 23.2787 178.054C22.8607 179.038 22.8097 180.084 23.1258 181.192C23.4067 182.177 23.9668 182.915 24.8062 183.408C25.6763 183.892 26.652 184.163 27.7332 184.22C28.8453 184.269 29.8937 184.153 30.8784 183.872C30.9092 183.863 30.9553 183.85 31.0169 183.833ZM30.2831 188.434C29.1973 188.711 28.1116 188.871 27.0258 188.914C25.9314 188.927 24.8985 188.806 23.9271 188.55C23.9753 189.069 24.019 189.572 24.0584 190.06C24.089 190.518 24.1613 190.946 24.2754 191.346C24.4686 192.023 24.7518 192.608 25.1253 193.1C25.5207 193.553 26.0877 193.674 26.8262 193.464C27.5955 193.244 28.2682 192.686 28.8444 191.79C29.4514 190.885 29.931 189.766 30.2831 188.434ZM89.038 183.902C86.2684 184.692 83.8422 184.47 81.7592 183.234C79.6982 181.958 78.2156 179.735 77.3115 176.566C76.8199 174.843 76.4757 172.761 76.2789 170.322C76.0733 167.851 75.9711 165.218 75.9722 162.423C75.9953 159.588 76.0734 156.77 76.2064 153.97C76.3702 151.161 76.5713 148.542 76.8096 146.111C77.048 143.681 77.2796 141.635 77.5044 139.973C77.7335 138.676 78.3558 137.883 79.3713 137.594C80.0175 137.409 80.5977 137.46 81.1119 137.746C81.6568 138.023 82.0566 138.608 82.3111 139.5C82.434 139.931 82.4864 140.931 82.4681 142.5C82.4499 144.07 82.3898 146.017 82.2877 148.342C82.2077 150.628 82.1144 153.1 82.0078 155.759C81.932 158.41 81.8913 161.067 81.8859 163.731C81.9111 166.385 82.02 168.867 82.2125 171.175C82.3962 173.452 82.7031 175.344 83.1332 176.852C83.3088 177.467 83.6185 177.911 84.0623 178.184C84.537 178.448 85.0666 178.496 85.6513 178.33C86.9129 177.97 88.1395 177.37 89.3311 176.531C90.5534 175.683 91.7098 174.721 92.8003 173.645C93.9216 172.56 94.9528 171.45 95.8939 170.316C96.8351 169.183 97.6662 168.13 98.3875 167.159C99.1308 166.149 99.7333 165.344 100.195 164.747C100.798 163.943 101.237 163.501 101.514 163.422C102.561 163.124 103.228 163.482 103.518 164.498C103.588 164.744 103.426 165.339 103.03 166.284C102.7 167.11 102.207 168.183 101.551 169.501C100.896 170.82 100.104 172.243 99.176 173.773C98.2699 175.262 97.254 176.717 96.1281 178.136C95.033 179.547 93.8853 180.773 92.6849 181.814C91.4845 182.855 90.2688 183.551 89.038 183.902ZM105.98 177.322C105.119 177.568 104.266 177.495 103.422 177.104C102.609 176.703 102.014 175.841 101.636 174.518C101.435 173.811 101.242 172.784 101.057 171.439C100.904 170.085 100.782 168.606 100.69 167.002C100.59 165.366 100.524 163.738 100.494 162.116C100.495 160.485 100.529 159.028 100.595 157.744C100.653 156.43 100.752 155.437 100.893 154.764C101.091 153.943 101.337 153.406 101.632 153.156C101.949 152.866 102.276 152.673 102.615 152.576C103.23 152.401 103.852 152.423 104.481 152.643C105.14 152.854 105.649 153.591 106.009 154.852C106.15 155.345 106.286 156.171 106.417 157.331C106.54 158.461 106.669 159.789 106.804 161.314C106.94 162.839 107.058 164.42 107.159 166.055C107.29 167.681 107.399 169.231 107.486 170.703C107.596 172.136 107.69 173.341 107.768 174.316C107.834 175.13 107.673 175.791 107.286 176.301C106.939 176.832 106.503 177.173 105.98 177.322ZM103.204 147.467C102.188 147.756 101.166 147.732 100.138 147.393C99.1005 147.023 98.4019 146.207 98.042 144.946C97.7435 143.9 97.7637 142.979 98.1025 142.183C98.4412 141.388 98.925 140.751 99.5538 140.272C100.205 139.753 100.807 139.415 101.361 139.257C101.915 139.099 102.565 139.047 103.312 139.1C104.051 139.122 104.754 139.371 105.422 139.846C106.112 140.281 106.615 141.053 106.931 142.16C107.142 142.899 107.073 143.651 106.726 144.415C106.369 145.149 105.855 145.795 105.182 146.353C104.54 146.902 103.881 147.273 103.204 147.467ZM121.17 172.24C120.432 172.451 119.623 172.415 118.744 172.134C117.887 171.813 117.092 171.241 116.358 170.419C115.615 169.565 115.047 168.447 114.651 167.062C114.125 165.215 113.809 163.176 113.705 160.943C113.631 158.701 113.665 156.429 113.806 154.125C113.948 151.822 114.109 149.646 114.29 147.598C114.374 146.609 114.618 145.891 115.023 145.443C115.419 144.964 116.017 144.61 116.817 144.382C118.632 143.864 119.799 144.513 120.317 146.328C120.405 146.636 120.438 147.275 120.415 148.247C120.384 149.188 120.318 150.354 120.216 151.748C120.145 153.132 120.074 154.633 120.003 156.251C119.954 157.829 119.945 159.429 119.975 161.051C120.027 162.633 120.134 164.117 120.296 165.502C120.697 164.223 121.099 162.66 121.504 160.814C121.932 158.929 122.383 156.953 122.859 154.887C123.365 152.813 123.906 150.861 124.483 149.033C125.051 147.174 125.686 145.612 126.39 144.346C127.094 143.08 127.892 142.32 128.785 142.066C129.554 141.846 130.321 141.794 131.086 141.908C131.872 141.984 132.646 142.362 133.406 143.043C134.157 143.694 134.887 144.734 135.594 146.163C136.332 147.583 137.052 149.524 137.754 151.986C138.105 153.217 138.555 154.386 139.104 155.494C139.675 156.562 140.347 157.402 141.121 158.013C141.885 158.594 142.775 158.739 143.791 158.45C145.545 157.949 147.022 157.178 148.222 156.137C149.423 155.096 150.423 153.995 151.224 152.835C152.024 151.675 152.686 150.671 153.21 149.823C153.518 149.269 153.79 148.825 154.028 148.491C154.296 148.149 154.538 147.947 154.753 147.885C155.399 147.701 155.909 147.738 156.283 147.998C156.687 148.248 156.973 148.666 157.139 149.251C157.227 149.559 157.128 150.202 156.842 151.183C156.556 152.163 156.089 153.327 155.443 154.676C154.818 155.986 154.046 157.304 153.127 158.632C152.208 159.959 151.148 161.143 149.947 162.184C148.747 163.225 147.424 163.952 145.977 164.365C143.546 165.058 141.408 165.202 139.562 164.797C137.738 164.353 136.147 163.209 134.79 161.367C133.424 159.494 132.227 156.757 131.2 153.157C131.173 153.064 131.13 152.911 131.068 152.695C130.796 151.741 130.539 150.899 130.298 150.17C130.087 149.431 129.87 148.844 129.646 148.409C129.395 149.512 129.089 150.831 128.728 152.364C128.397 153.89 128.032 155.525 127.631 157.269C127.222 158.984 126.777 160.691 126.297 162.392C125.809 164.062 125.285 165.609 124.726 167.033C124.198 168.448 123.635 169.624 123.037 170.56C122.439 171.496 121.816 172.056 121.17 172.24ZM161.962 162.301C160.054 162.845 158.327 162.622 156.78 161.633C155.224 160.612 154.021 158.609 153.169 155.625C152.625 153.717 152.296 151.747 152.183 149.717C152.091 147.646 152.2 145.635 152.508 143.684C152.839 141.693 153.349 139.867 154.04 138.205C154.762 136.535 155.674 135.127 156.778 133.98C157.873 132.803 159.128 132.012 160.544 131.608C162.944 130.923 165.005 131.034 166.728 131.94C168.451 132.847 169.597 134.3 170.168 136.3C170.607 137.839 170.575 139.362 170.074 140.869C169.594 142.337 168.772 143.77 167.606 145.167C166.441 146.564 165.08 147.917 163.523 149.227C161.967 150.536 160.342 151.781 158.649 152.963C158.811 154.115 159.015 155.121 159.261 155.983C159.41 156.506 159.777 156.684 160.362 156.518C161.747 156.123 163.162 155.486 164.609 154.607C166.077 153.689 167.526 152.644 168.955 151.471C170.375 150.267 171.73 149.065 173.018 147.866C174.298 146.636 175.452 145.491 176.481 144.432C177.532 143.334 178.396 142.455 179.073 141.796C179.772 141.097 180.245 140.713 180.491 140.643C181.168 140.449 181.718 140.509 182.14 140.821C182.561 141.133 182.838 141.52 182.97 141.982C183.031 142.197 182.752 142.793 182.132 143.768C181.542 144.735 180.685 145.928 179.559 147.348C178.455 148.727 177.18 150.206 175.733 151.783C174.308 153.321 172.793 154.835 171.188 156.324C169.605 157.774 168.016 159.026 166.42 160.08C164.863 161.157 163.377 161.897 161.962 162.301ZM158.262 148.631C159.313 147.533 160.34 146.408 161.342 145.257C162.367 144.066 163.15 142.844 163.691 141.592C164.224 140.308 164.292 138.974 163.897 137.59C163.783 137.19 163.601 136.959 163.35 136.897C163.091 136.805 162.761 136.816 162.361 136.93C161.284 137.237 160.436 137.995 159.815 139.203C159.226 140.403 158.808 141.853 158.561 143.554C158.336 145.216 158.236 146.908 158.262 148.631ZM205.683 150.028C204.698 150.309 203.727 150.286 202.769 149.961C201.819 149.666 200.991 149.153 200.284 148.423C199.568 147.663 199.065 146.775 198.775 145.759C198.231 143.851 198.115 141.871 198.428 139.818C198.772 137.757 199.403 135.713 200.323 133.687C201.242 131.661 202.324 129.739 203.569 127.92C204.836 126.061 206.144 124.406 207.494 122.956C208.875 121.498 210.163 120.298 211.359 119.358C212.586 118.409 213.584 117.825 214.353 117.605C215.246 117.351 216.026 117.345 216.694 117.587C217.384 117.789 217.843 118.29 218.071 119.09C218.142 119.337 218.137 119.554 218.058 119.743C218.484 119.721 218.873 119.86 219.225 120.159C219.576 120.458 219.857 120.977 220.068 121.715C220.156 122.023 220.307 122.845 220.522 124.181C220.737 125.518 221.015 127.135 221.357 129.034C221.73 130.925 222.202 132.87 222.772 134.87C222.86 135.178 222.985 135.442 223.148 135.662C223.302 135.851 223.532 135.901 223.84 135.813C225.071 135.462 226.247 134.861 227.368 134.008C228.512 133.116 229.578 132.13 230.567 131.049C231.579 129.929 232.471 128.859 233.246 127.839C234.042 126.78 234.708 125.908 235.244 125.223C235.803 124.498 236.19 124.104 236.405 124.043C237.452 123.744 238.124 124.118 238.422 125.165C238.501 125.442 238.33 126.123 237.907 127.208C237.507 128.254 236.9 129.509 236.086 130.972C235.263 132.405 234.302 133.877 233.203 135.389C232.125 136.861 230.934 138.166 229.628 139.304C228.353 140.433 227.023 141.195 225.638 141.59C223.945 142.073 222.539 142.041 221.418 141.496C220.328 140.942 219.406 140.04 218.65 138.791C217.917 137.503 217.289 136.002 216.766 134.287C215.838 136.982 214.777 139.447 213.585 141.684C212.415 143.881 211.159 145.72 209.818 147.201C208.477 148.682 207.099 149.624 205.683 150.028ZM215.426 122.241C212.823 124.548 210.589 126.982 208.724 129.544C206.851 132.075 205.496 134.558 204.66 136.992C203.854 139.418 203.719 141.57 204.255 143.447C204.404 143.97 204.725 144.162 205.217 144.021C205.802 143.854 206.475 143.296 207.236 142.347C208.027 141.389 208.834 140.194 209.657 138.761C210.471 137.298 211.249 135.712 211.993 134.002C212.728 132.262 213.377 130.513 213.94 128.755C214.503 126.997 214.884 125.357 215.083 123.836C215.158 123.283 215.272 122.751 215.426 122.241ZM241.875 140.352C240.552 140.73 239.56 140.813 238.901 140.601C238.273 140.381 237.857 139.918 237.656 139.21C237.48 138.594 237.546 138.01 237.854 137.456C238.153 136.872 238.975 136.138 240.321 135.255C241.895 134.24 243.355 133.175 244.7 132.059C246.068 130.903 247.125 129.77 247.873 128.658C248.651 127.538 248.909 126.516 248.646 125.593C248.47 124.977 248.127 124.592 247.617 124.438C247.138 124.275 246.622 124.273 246.068 124.431C245.606 124.563 244.951 124.833 244.103 125.241C243.276 125.61 242.371 126.051 241.386 126.565C240.392 127.048 239.425 127.507 238.484 127.942C237.565 128.337 236.768 128.632 236.091 128.825C234.49 129.281 233.205 129.265 232.234 128.777C231.254 128.258 230.601 127.429 230.276 126.29C230.101 125.675 230.182 124.737 230.521 123.475C230.86 122.214 231.384 120.783 232.092 119.184C232.801 117.584 233.632 115.949 234.587 114.279C235.541 112.609 236.542 111.043 237.589 109.579C238.657 108.077 239.715 106.826 240.761 105.829C241.799 104.801 242.749 104.164 243.611 103.918C244.595 103.637 245.468 103.721 246.228 104.17C247.019 104.61 247.564 105.353 247.862 106.399C248.003 106.891 248.11 107.443 248.185 108.054C248.25 108.634 248.164 109.208 247.927 109.775C247.68 110.311 247.199 110.781 246.482 111.185C245.766 111.589 244.711 111.857 243.317 111.988C242.49 113.056 241.639 114.214 240.764 115.462C239.911 116.67 239.132 117.907 238.429 119.173C237.716 120.408 237.168 121.579 236.785 122.687C237.819 121.993 239.028 121.331 240.413 120.703C241.789 120.045 243.215 119.505 244.692 119.083C246.477 118.574 248.016 118.485 249.308 118.815C250.622 119.105 251.69 119.699 252.511 120.596C253.364 121.485 253.97 122.56 254.33 123.821C254.734 125.237 254.676 126.784 254.156 128.463C253.637 130.142 252.775 131.785 251.57 133.394C250.365 135.002 248.925 136.428 247.249 137.671C245.574 138.914 243.783 139.808 241.875 140.352ZM287.574 125.169C286.774 125.397 286.079 125.179 285.491 124.516C284.902 123.852 284.327 122.535 283.765 120.565C282.975 117.796 282.31 114.824 281.771 111.65C281.253 108.437 280.773 104.947 280.331 101.18C280.038 98.1686 280.656 95.6129 282.187 93.5124C283.748 91.4032 286.065 89.3778 289.139 87.4363C291.056 86.2239 293.063 85.0357 295.16 83.8717C297.257 82.7078 299.246 81.691 301.128 80.8215C303.032 79.9124 304.63 79.2735 305.922 78.9048C306.907 78.6239 307.72 78.5583 308.362 78.708C309.003 78.8577 309.498 79.1326 309.845 79.5327C310.214 79.8933 310.451 80.2583 310.557 80.6275C310.723 81.2122 310.734 81.7748 310.589 82.3154C310.444 82.856 309.944 83.3811 309.092 83.8906C308.727 84.1278 307.942 84.5846 306.737 85.2611C305.554 85.8979 304.097 86.6797 302.365 87.6065C300.663 88.5245 298.863 89.5039 296.964 90.5449C295.056 91.5551 293.213 92.5631 291.437 93.569C289.718 94.6584 288.527 95.7304 287.862 96.785C287.22 97.8001 286.971 99.0857 287.116 100.642C287.142 100.967 287.203 101.415 287.3 101.987C288.447 101.227 289.709 100.518 291.085 99.8588C292.461 99.2001 293.747 98.6336 294.943 98.1593C296.139 97.6851 297.029 97.3646 297.614 97.1978C298.229 97.0222 298.906 96.9456 299.645 96.9679C300.405 96.9506 301.088 97.0718 301.695 97.3313C302.323 97.5514 302.721 97.9537 302.888 98.5384C303.046 99.0923 302.975 99.6615 302.676 100.246C302.368 100.8 301.61 101.465 300.401 102.243C300.15 102.414 299.554 102.717 298.613 103.152C297.703 103.578 296.622 104.103 295.369 104.726C294.138 105.311 292.885 105.934 291.61 106.597C290.366 107.252 289.28 107.878 288.352 108.475C288.611 110.198 288.885 111.917 289.174 113.631C289.464 115.346 289.722 116.836 289.95 118.102C290.17 119.337 290.292 120.118 290.319 120.443C290.459 121.634 290.267 122.654 289.744 123.502C289.22 124.35 288.497 124.906 287.574 125.169ZM314.954 118.856C313.97 119.137 312.998 119.114 312.04 118.789C311.091 118.494 310.262 117.981 309.555 117.251C308.839 116.491 308.336 115.602 308.046 114.587C307.502 112.679 307.386 110.699 307.699 108.646C308.043 106.585 308.675 104.541 309.594 102.515C310.514 100.489 311.596 98.5667 312.84 96.7474C314.107 94.8886 315.415 93.2343 316.765 91.7843C318.146 90.3255 319.435 89.1261 320.631 88.1859C321.857 87.237 322.855 86.6528 323.625 86.4333C324.517 86.1787 325.297 86.1725 325.965 86.4145C326.655 86.617 327.114 87.1183 327.343 87.9183C327.413 88.1645 327.408 88.3821 327.329 88.5711C327.756 88.5493 328.144 88.6879 328.496 88.9869C328.848 89.286 329.129 89.8047 329.339 90.5433C329.427 90.851 329.578 91.673 329.793 93.0094C330.008 94.3457 330.287 95.9634 330.629 97.8624C331.001 99.7526 331.473 101.698 332.044 103.698C332.132 104.006 332.257 104.27 332.419 104.489C332.573 104.678 332.804 104.729 333.112 104.641C334.342 104.29 335.518 103.688 336.64 102.836C337.783 101.944 338.849 100.958 339.839 99.8771C340.85 98.7567 341.743 97.6867 342.517 96.6673C343.313 95.6083 343.979 94.736 344.516 94.0505C345.074 93.3255 345.461 92.9322 345.677 92.8708C346.723 92.5723 347.395 92.9462 347.694 93.9925C347.773 94.2694 347.601 94.9507 347.179 96.0362C346.778 97.0822 346.171 98.3369 345.357 99.8002C344.535 101.233 343.574 102.705 342.474 104.217C341.397 105.689 340.205 106.994 338.899 108.132C337.624 109.261 336.294 110.023 334.909 110.418C333.217 110.901 331.81 110.869 330.689 110.324C329.6 109.769 328.677 108.868 327.921 107.619C327.188 106.331 326.56 104.83 326.038 103.115C325.109 105.809 324.049 108.275 322.857 110.512C321.686 112.709 320.431 114.548 319.089 116.029C317.748 117.51 316.37 118.452 314.954 118.856ZM324.697 91.0689C322.094 93.3754 319.86 95.8097 317.996 98.3715C316.122 100.903 314.767 103.385 313.931 105.82C313.126 108.246 312.991 110.398 313.526 112.275C313.676 112.798 313.996 112.989 314.489 112.849C315.073 112.682 315.746 112.124 316.507 111.175C317.298 110.217 318.106 109.022 318.928 107.589C319.742 106.126 320.521 104.539 321.264 102.83C321.999 101.09 322.648 99.3404 323.211 97.5824C323.775 95.8244 324.155 94.1851 324.354 92.6643C324.429 92.1105 324.543 91.5787 324.697 91.0689ZM356.153 107.702C353.384 108.492 350.958 108.269 348.875 107.033C346.814 105.757 345.331 103.535 344.427 100.365C343.935 98.6419 343.591 96.5604 343.394 94.1208C343.189 91.6505 343.087 89.0175 343.088 86.2219C343.111 83.3868 343.189 80.5693 343.322 77.7694C343.486 74.9607 343.687 72.3411 343.925 69.9104C344.163 67.4798 344.395 65.4338 344.62 63.7724C344.849 62.4758 345.471 61.6826 346.487 61.3929C347.133 61.2086 347.713 61.2594 348.227 61.5453C348.772 61.8224 349.172 62.4072 349.427 63.2996C349.549 63.7304 349.602 64.7304 349.584 66.2996C349.565 67.8688 349.505 69.816 349.403 72.1412C349.323 74.4269 349.23 76.8993 349.123 79.5586C349.047 82.209 349.007 84.8661 349.001 87.5298C349.027 90.1847 349.135 92.6661 349.328 94.9738C349.512 97.2508 349.819 99.1432 350.249 100.651C350.424 101.266 350.734 101.711 351.178 101.983C351.652 102.247 352.182 102.296 352.767 102.129C354.028 101.769 355.255 101.17 356.447 100.33C357.669 99.4826 358.825 98.5205 359.916 97.444C361.037 96.3588 362.068 95.2493 363.009 94.1157C363.951 92.982 364.782 91.9296 365.503 90.9585C366.246 89.9478 366.849 89.1437 367.311 88.5461C367.913 87.7419 368.353 87.3004 368.63 87.2214C369.676 86.9229 370.344 87.2814 370.634 88.2969C370.704 88.5431 370.541 89.1386 370.145 90.0835C369.815 90.9097 369.322 91.982 368.667 93.3004C368.011 94.6188 367.22 96.0426 366.291 97.5719C365.385 99.0616 364.369 100.516 363.244 101.935C362.149 103.346 361.001 104.572 359.8 105.613C358.6 106.654 357.384 107.351 356.153 107.702ZM372.588 102.414C371.603 102.695 370.631 102.673 369.673 102.347C368.724 102.052 367.896 101.54 367.188 100.81C366.472 100.049 365.969 99.1613 365.68 98.1458C365.135 96.2379 365.02 94.2577 365.333 92.2051C365.676 90.1437 366.308 88.1 367.227 86.0741C368.147 84.0481 369.229 82.1255 370.474 80.3063C371.74 78.4475 373.049 76.7931 374.399 75.3431C375.779 73.8843 377.068 72.6849 378.264 71.7447C379.491 70.7958 380.489 70.2116 381.258 69.9921C382.15 69.7376 382.93 69.7313 383.598 69.9733C384.288 70.1758 384.748 70.6771 384.976 71.4771C385.046 71.7233 385.042 71.9409 384.962 72.1299C385.389 72.1081 385.778 72.2467 386.129 72.5457C386.481 72.8448 386.762 73.3636 386.973 74.1021C387.06 74.4098 387.212 75.2318 387.426 76.5682C387.641 77.9045 387.92 79.5222 388.262 81.4212C388.635 83.3114 389.106 85.2566 389.677 87.2568C389.765 87.5646 389.89 87.8284 390.053 88.0482C390.206 88.2373 390.437 88.2879 390.745 88.2001C391.976 87.849 393.152 87.2473 394.273 86.395C395.416 85.5032 396.482 84.5168 397.472 83.4359C398.483 82.3155 399.376 81.2455 400.15 80.2261C400.946 79.1671 401.612 78.2948 402.149 77.6093C402.707 76.8843 403.094 76.4911 403.31 76.4296C404.356 76.1311 405.028 76.505 405.327 77.5513C405.406 77.8282 405.234 78.5095 404.812 79.595C404.411 80.641 403.804 81.8957 402.991 83.359C402.168 84.7917 401.207 86.2638 400.107 87.7754C399.03 89.2475 397.838 90.5524 396.532 91.6904C395.257 92.8195 393.927 93.5816 392.542 93.9766C390.85 94.4594 389.443 94.4281 388.323 93.8826C387.233 93.3283 386.31 92.4268 385.555 91.1782C384.821 89.89 384.193 88.3887 383.671 86.6742C382.742 89.3683 381.682 91.8337 380.49 94.0706C379.32 96.2679 378.064 98.1069 376.723 99.5876C375.381 101.068 374.003 102.011 372.588 102.414ZM382.331 74.6277C379.728 76.9343 377.494 79.3685 375.629 81.9303C373.755 84.4614 372.4 86.9443 371.564 89.3791C370.759 91.8051 370.624 93.9567 371.16 95.8338C371.309 96.3569 371.63 96.5482 372.122 96.4078C372.707 96.241 373.379 95.683 374.14 94.7339C374.932 93.776 375.739 92.5807 376.561 91.1481C377.375 89.6848 378.154 88.0983 378.897 86.3887C379.632 84.6484 380.281 82.8992 380.844 81.1412C381.408 79.3833 381.789 77.7439 381.987 76.2231C382.062 75.6693 382.177 75.1375 382.331 74.6277ZM432.021 61.0016C433.303 62.4658 434.613 64.0224 435.948 65.6712C437.284 67.3201 438.468 68.9623 439.5 70.5979C440.554 72.1939 441.283 73.6997 441.687 75.1152C442.161 76.7769 442.125 78.2845 441.58 79.6382C441.056 80.9522 440.221 82.1057 439.073 83.0986C437.934 84.1223 436.661 84.9679 435.254 85.6355C433.848 86.303 432.513 86.8168 431.252 87.1767C430.328 87.44 429.502 87.4595 428.773 87.235C428.083 87.0325 427.615 86.5005 427.369 85.6389C427.158 84.9003 427.27 84.3026 427.706 83.8456C428.132 83.3579 428.728 82.9383 429.493 82.587C430.082 82.3191 430.786 81.9854 431.603 81.5857C432.452 81.1773 433.263 80.6963 434.037 80.1428C434.811 79.5892 435.409 79.0027 435.831 78.3831C436.275 77.7239 436.392 77.0251 436.181 76.2865C435.725 74.6864 434.906 73.1564 433.724 71.6966C432.533 70.206 431.288 68.6978 429.987 67.1721C429.085 69.7255 427.932 72.3338 426.529 74.9969C425.148 77.6205 423.606 80.0901 421.904 82.4059C420.224 84.6821 418.463 86.6154 416.621 88.2059C414.818 89.8183 413.055 90.8703 411.332 91.3619C408.87 92.0642 406.606 91.8281 404.541 90.6536C402.506 89.4704 401.002 87.1709 400.027 83.7552C399.465 81.7858 399.139 79.7659 399.047 77.6955C398.947 75.5944 399.007 73.6472 399.228 71.8539C399.479 70.0519 399.838 68.5685 400.304 67.4039C400.771 66.2393 401.296 65.5736 401.881 65.4068C402.496 65.2312 403.087 65.2622 403.654 65.4998C404.252 65.7286 404.678 66.2892 404.933 67.1816C405.038 67.5509 405.082 68.2872 405.064 69.3904C405.076 70.4849 405.08 71.7816 405.075 73.2805C405.101 74.7706 405.175 76.3134 405.298 77.9091C405.451 79.4959 405.712 80.9356 406.08 82.228C406.458 83.5512 406.967 84.5206 407.609 85.1363C408.281 85.7431 409.079 85.9149 410.002 85.6515C411.233 85.3004 412.528 84.5317 413.886 83.3455C415.245 82.1592 416.58 80.7136 417.89 79.0087C419.232 77.295 420.472 75.4604 421.611 73.5048C422.781 71.5405 423.769 69.5783 424.574 67.6182C425.41 65.6493 425.995 63.8518 426.33 62.2256C425.952 61.6013 425.605 60.9682 425.289 60.3263C425.004 59.6756 424.76 58.9964 424.558 58.2887C424.075 56.5962 424.003 55.1193 424.342 53.8579C424.672 52.5657 425.591 51.7046 427.099 51.2744C428.453 50.8882 429.596 51.0447 430.528 51.7439C431.459 52.4432 432.131 53.516 432.544 54.9623C432.772 55.7624 432.818 56.6811 432.681 57.7184C432.567 58.7161 432.346 59.8105 432.021 61.0016ZM402.292 60.5477C401.091 60.89 400.08 60.8457 399.259 60.4146C398.468 59.9747 397.923 59.2316 397.624 58.1854C397.291 57.016 397.439 55.9589 398.067 55.0142C398.688 54.0386 399.536 53.3972 400.613 53.09C401.813 52.7476 402.86 52.7986 403.752 53.2429C404.644 53.6872 405.261 54.5094 405.603 55.7095C405.753 56.2327 405.711 56.8436 405.477 57.5424C405.266 58.2017 404.89 58.8081 404.349 59.3617C403.808 59.9153 403.122 60.3106 402.292 60.5477ZM471.89 72.3892C469.951 72.9423 468.369 72.7614 467.143 71.8466C465.939 70.8923 465.073 69.492 464.547 67.6457C464.046 65.8916 463.948 64.0894 464.252 62.239C464.547 60.3578 465.126 58.479 465.988 56.6024C466.851 54.7259 467.898 52.9132 469.129 51.1643C470.352 49.3846 471.629 47.739 472.962 46.2274C474.316 44.6764 475.642 43.3165 476.939 42.1478C478.228 40.9483 479.369 39.9906 480.362 39.2745C481.356 38.5584 482.099 38.1302 482.591 37.9897C483.114 37.8405 483.585 37.8561 484.002 38.0365C484.442 38.1773 484.767 38.617 484.978 39.3555C485.197 40.1248 485.087 40.905 484.647 41.696C484.207 42.487 483.602 43.2252 482.833 43.9106C481.747 44.886 480.531 46.0481 479.185 47.397C477.862 48.7063 476.558 50.1431 475.274 51.7074C473.99 53.2717 472.851 54.8778 471.856 56.5257C470.893 58.1649 470.194 59.7953 469.758 61.4171C469.313 63.0081 469.293 64.5114 469.697 65.9269C469.784 66.2346 469.916 66.4632 470.092 66.6128C470.268 66.7623 470.556 66.78 470.956 66.6659C471.479 66.5166 472.101 66.0729 472.822 65.3348C473.534 64.5659 474.28 63.6211 475.058 62.5006C475.828 61.3493 476.576 60.121 477.302 58.8158C478.019 57.4799 478.659 56.1659 479.222 54.8738C479.807 53.5422 480.26 52.3314 480.582 51.2415C480.81 50.4108 481.151 49.6813 481.604 49.0529C482.088 48.4157 482.653 48.005 483.299 47.8206C483.823 47.6714 484.297 47.7024 484.724 47.9135C485.172 48.0851 485.501 48.5402 485.712 49.2787C485.782 49.5249 485.934 50.114 486.166 51.0459C486.39 51.9471 486.655 53.0527 486.963 54.3627C487.292 55.6331 487.654 56.9607 488.049 58.3455C488.391 59.5456 488.797 60.5612 489.267 61.3921C489.759 62.1835 490.39 62.4695 491.159 62.25C492.082 61.9867 492.944 61.3914 493.745 60.4643C494.536 59.5064 495.249 58.388 495.882 57.1092C496.538 55.7908 497.099 54.4328 497.565 53.0352C498.032 51.6376 498.393 50.3367 498.648 49.1324C498.926 47.8886 499.095 46.9084 499.157 46.192C498.785 43.3699 498.702 41.0974 498.909 39.3744C499.108 37.6207 499.499 36.3109 500.084 35.4453C500.7 34.5708 501.377 34.0282 502.116 33.8175C502.947 33.5805 503.696 33.583 504.364 33.8251C505.063 34.0583 505.623 34.9135 506.044 36.3905C506.264 37.1598 506.27 38.406 506.063 40.1289C505.855 41.8519 505.477 43.7902 504.926 45.9438C505.075 47.3988 505.329 48.8736 505.689 50.3682C506.049 51.8628 506.536 53.2213 507.151 54.4435C507.815 53.6218 508.416 52.5187 508.953 51.1344C509.481 49.7192 509.974 48.181 510.431 46.5196C510.88 44.8275 511.329 43.1355 511.779 41.4434C512.219 39.7205 512.679 38.1251 513.158 36.6572C513.669 35.1805 514.219 33.9587 514.808 32.992C515.42 31.9856 516.125 31.3684 516.925 31.1401C517.756 30.9031 518.554 30.8419 519.319 30.9565C520.106 31.0315 520.848 31.4186 521.547 32.1178C522.268 32.7774 522.966 33.8261 523.642 35.2637C524.341 36.6617 525.032 38.5609 525.717 40.9611C526.077 42.2228 526.551 43.4186 527.14 44.5485C527.719 45.6476 528.411 46.4984 529.215 47.1009C530.011 47.6727 530.932 47.8093 531.978 47.5109C533.67 47.028 535.099 46.3209 536.264 45.3896C537.421 44.4274 538.382 43.4212 539.147 42.371C539.912 41.3208 540.539 40.4265 541.027 39.6883C541.537 38.9105 541.977 38.4689 542.346 38.3636C542.962 38.188 543.476 38.241 543.889 38.5224C544.324 38.7644 544.616 39.1469 544.766 39.67C544.853 39.9778 544.745 40.5909 544.442 41.5094C544.16 42.3884 543.705 43.4168 543.076 44.5945C542.469 45.7327 541.703 46.8994 540.78 48.0947C539.878 49.2503 538.86 50.2894 537.726 51.212C536.591 52.1346 535.363 52.7847 534.039 53.1622C531.639 53.8469 529.531 53.9823 527.716 53.5684C525.923 53.1149 524.348 51.967 522.99 50.1247C521.655 48.2429 520.482 45.5326 519.473 41.9937C519.411 41.7783 519.354 41.5783 519.301 41.3937C519.249 41.209 519.196 41.0244 519.143 40.8398C518.924 40.0705 518.72 39.4132 518.531 38.8681C518.373 38.3142 518.173 37.9054 517.932 37.6415C517.676 38.6128 517.375 39.8303 517.027 41.2938C516.71 42.7486 516.342 44.3177 515.924 46.001C515.506 47.6843 515.021 49.3698 514.471 51.0575C513.952 52.7364 513.382 54.2966 512.762 55.738C512.141 57.1795 511.455 58.3902 510.703 59.3701C509.982 60.3412 509.206 60.9453 508.375 61.1823C507.759 61.3579 506.995 61.2433 506.081 60.8385C505.197 60.425 504.36 59.7653 503.569 58.8595C502.77 57.9229 502.177 56.7777 501.791 55.4237C500.941 57.4629 500.007 59.3767 498.986 61.1653C497.957 62.9231 496.864 64.3996 495.707 65.5947C494.59 66.8118 493.416 67.5959 492.186 67.947C491.17 68.2367 490.102 68.2253 488.981 67.9128C487.891 67.5914 486.793 66.7734 485.686 65.4587C484.578 64.144 483.538 62.1282 482.563 59.4114C481.634 61.6395 480.583 63.6698 479.409 65.5023C478.265 67.326 477.049 68.8376 475.761 70.037C474.503 71.2277 473.213 72.0118 471.89 72.3892ZM554.969 21.7849C555.511 17.2709 555.818 12.6909 555.891 8.04483C555.891 7.11298 556.056 6.35042 556.386 5.75716C556.747 5.15512 557.358 4.7312 558.22 4.4854C558.927 4.28349 559.527 4.34527 560.019 4.67075C560.503 4.96544 560.845 5.46668 561.047 6.17444C561.214 6.75911 561.266 7.8756 561.204 9.5239C561.133 11.1414 561.069 13.1897 561.011 15.6688C560.952 18.1478 560.995 20.9808 561.139 24.1676C561.283 27.3544 561.618 30.8029 562.143 34.5129C562.669 38.223 563.512 42.109 564.671 46.1709C564.987 47.2787 565.03 48.248 564.801 49.0786C564.612 49.9313 564.009 50.5025 562.994 50.7921C561.886 51.1082 560.961 50.9562 560.218 50.3361C559.507 49.7072 558.979 48.7927 558.637 47.5926C557.961 45.2231 557.476 43.2318 557.182 41.6185C556.911 39.9657 556.705 38.5436 556.564 37.3524C555.794 40.3674 554.83 43.0549 553.673 45.4148C552.538 47.7352 551.342 49.6072 550.084 51.0308C548.835 52.4852 547.657 53.3705 546.549 53.6865C544.734 54.2044 543.112 54.118 541.683 53.4274C540.255 52.7367 539.247 51.3605 538.659 49.2987C538.202 47.6986 538.117 45.9425 538.404 44.0306C538.681 42.0878 539.214 40.1057 540.002 38.0841C540.789 36.0624 541.731 34.1134 542.826 32.2369C543.943 30.3209 545.113 28.5896 546.336 27.0428C547.55 25.4653 548.726 24.1647 549.865 23.141C551.004 22.1174 551.989 21.487 552.819 21.25C553.743 20.9866 554.459 21.1649 554.969 21.7849ZM554.618 24.5803C554.468 24.7561 554.304 24.9362 554.123 25.1208C553.965 25.2658 553.811 25.4261 553.662 25.6019C552.703 26.674 551.711 27.9219 550.686 29.3457C549.653 30.7386 548.67 32.2503 547.737 33.8807C546.796 35.4803 545.98 37.1107 545.289 38.7719C544.62 40.3936 544.152 41.9582 543.883 43.4658C543.636 44.9338 543.684 46.2678 544.026 47.468C544.088 47.6834 544.224 47.8109 544.435 47.8505C544.646 47.8902 544.828 47.8881 544.982 47.8442C546.059 47.5369 547.077 46.7308 548.036 45.4257C549.025 44.1118 549.925 42.4243 550.735 40.3631C551.566 38.2624 552.299 35.8737 552.933 33.1971C553.598 30.5117 554.16 27.6394 554.618 24.5803ZM62.5532 260.141C61.3531 260.483 60.3839 260.41 59.6457 259.922C58.9162 259.465 58.2837 258.297 57.7482 256.42C57.2918 254.82 56.9608 252.668 56.7553 249.965C56.5498 247.262 56.3488 244.341 56.1523 241.202C53.8251 245.992 50.5797 249.547 46.4162 251.866C46.0505 253.967 45.4871 255.958 44.7259 257.839C43.9647 259.72 43.0124 261.339 41.869 262.697C40.7476 264.015 39.433 264.889 37.9251 265.32C36.048 265.855 34.2569 265.701 32.5518 264.856C30.8774 264.002 29.6759 262.299 28.9473 259.745C28.4557 258.021 28.3003 256.485 28.4811 255.136C28.6531 253.756 28.9898 252.661 29.4912 251.853C28.6037 250.841 27.9449 249.582 27.5147 248.074C26.9354 246.043 26.9757 244.085 27.6358 242.199C28.2959 240.314 29.4065 238.666 30.9675 237.256C32.5592 235.837 34.4321 234.82 36.5862 234.205C37.7863 233.863 39.0127 233.846 40.2653 234.154C41.5399 234.423 42.6912 235.076 43.7194 236.114C44.7695 237.112 45.5579 238.534 46.0846 240.38C46.5236 241.919 46.7756 243.677 46.8407 245.655C48.6568 243.74 50.3061 241.356 51.7886 238.504C53.3018 235.643 54.5053 232.571 55.3989 229.288C55.685 228.308 56.305 227.682 57.259 227.409C58.0591 227.181 58.7601 227.247 59.3622 227.608C59.9862 227.929 60.408 228.474 60.6274 229.244C60.6713 229.398 60.7238 229.932 60.785 230.846C60.8462 231.76 60.9204 232.954 61.0077 234.426C61.0862 235.868 61.1735 237.457 61.2695 239.193C61.3963 240.921 61.5318 242.679 61.6761 244.468C61.8205 246.257 61.9692 247.945 62.1224 249.532C62.5099 247.857 62.9326 246.073 63.3905 244.179C63.8704 242.245 64.3899 240.333 64.9489 238.443C65.4991 236.523 66.0778 234.76 66.6851 233.156C67.2923 231.552 67.9016 230.247 68.513 229.24C69.1156 228.203 69.7093 227.601 70.294 227.434C71.4633 227.101 72.5446 227.158 73.5378 227.607C74.531 228.056 75.1286 228.634 75.3305 229.342C75.5324 230.05 75.7671 231.164 76.0346 232.685C76.3021 234.206 76.5761 235.925 76.8566 237.841C77.1592 239.718 77.4507 241.615 77.7312 243.532C78.0118 245.448 78.2902 247.183 78.5664 248.734C78.834 250.255 79.0731 251.385 79.2837 252.124C79.4593 252.739 79.3338 253.407 78.9071 254.128C78.4804 254.848 77.8978 255.314 77.1593 255.525C77.0978 255.542 76.9901 255.573 76.8362 255.617C76.4757 255.753 76.1196 255.788 75.768 255.722C75.4252 255.687 75.032 255.3 74.5883 254.561C74.1754 253.814 73.6969 252.486 73.1526 250.578C72.7839 249.286 72.4416 247.853 72.1258 246.279C71.81 244.705 71.5249 243.123 71.2706 241.531C71.0383 239.901 70.8521 238.373 70.712 236.949C70.2894 238.5 69.8272 240.263 69.3253 242.236C68.8454 244.17 68.3325 246.163 67.7866 248.216C67.2319 250.237 66.6575 252.132 66.0634 253.898C65.4913 255.626 64.9017 257.058 64.2947 258.196C63.7184 259.326 63.1379 259.974 62.5532 260.141ZM40.7996 249.675C40.8573 248.361 40.8249 247.022 40.7023 245.659C40.571 244.266 40.3254 242.939 39.9655 241.677C39.8163 241.154 39.5637 240.677 39.2079 240.246C38.852 239.815 38.4125 239.674 37.8894 239.823C36.8431 240.122 35.8737 240.631 34.9811 241.352C34.1193 242.063 33.4794 242.912 33.0614 243.896C32.6434 244.88 32.5925 245.927 32.9085 247.034C33.1894 248.019 33.7495 248.758 34.5889 249.25C35.459 249.734 36.4347 250.005 37.516 250.063C38.628 250.111 39.6764 249.995 40.6611 249.714C40.6919 249.706 40.7381 249.692 40.7996 249.675ZM40.0659 254.277C38.98 254.553 37.8943 254.713 36.8086 254.757C35.7141 254.769 34.6812 254.648 33.7099 254.393C33.758 254.911 33.8018 255.415 33.8411 255.903C33.8717 256.36 33.944 256.788 34.0582 257.188C34.2513 257.865 34.5346 258.45 34.908 258.943C35.3034 259.396 35.8704 259.517 36.6089 259.306C37.3782 259.087 38.051 258.529 38.6271 257.632C39.2341 256.727 39.7137 255.608 40.0659 254.277ZM115.057 245.163C113.734 245.54 112.743 245.623 112.083 245.412C111.455 245.192 111.04 244.728 110.838 244.02C110.662 243.405 110.728 242.82 111.036 242.267C111.336 241.682 112.158 240.948 113.503 240.066C115.077 239.051 116.537 237.985 117.882 236.87C119.25 235.714 120.308 234.58 121.055 233.469C121.834 232.348 122.091 231.326 121.828 230.403C121.652 229.788 121.31 229.403 120.8 229.249C120.321 229.086 119.804 229.084 119.25 229.242C118.789 229.373 118.134 229.643 117.285 230.052C116.459 230.421 115.553 230.862 114.568 231.376C113.575 231.859 112.607 232.318 111.667 232.753C110.748 233.148 109.95 233.442 109.273 233.635C107.673 234.092 106.387 234.076 105.416 233.588C104.436 233.069 103.783 232.24 103.459 231.101C103.283 230.486 103.365 229.547 103.704 228.286C104.043 227.025 104.566 225.594 105.275 223.994C105.983 222.395 106.814 220.76 107.769 219.09C108.723 217.42 109.724 215.853 110.771 214.39C111.84 212.887 112.897 211.637 113.944 210.64C114.982 209.612 115.931 208.975 116.793 208.729C117.778 208.448 118.65 208.532 119.41 208.981C120.201 209.42 120.746 210.163 121.045 211.21C121.185 211.702 121.292 212.254 121.367 212.865C121.433 213.445 121.347 214.019 121.109 214.586C120.863 215.122 120.381 215.592 119.665 215.996C118.948 216.4 117.893 216.668 116.499 216.799C115.673 217.867 114.822 219.025 113.946 220.273C113.093 221.481 112.315 222.718 111.611 223.984C110.898 225.219 110.351 226.39 109.968 227.497C111.001 226.803 112.21 226.142 113.595 225.514C114.971 224.855 116.397 224.315 117.875 223.894C119.659 223.385 121.198 223.295 122.49 223.626C123.804 223.916 124.872 224.51 125.694 225.407C126.546 226.295 127.152 227.37 127.512 228.632C127.916 230.047 127.858 231.595 127.339 233.273C126.819 234.952 125.957 236.596 124.752 238.204C123.547 239.813 122.107 241.238 120.432 242.482C118.757 243.725 116.965 244.619 115.057 245.163ZM159.624 204.746C159.729 205.116 159.698 205.474 159.531 205.821C159.364 206.168 159.118 206.471 158.792 206.731C158.331 207.095 157.502 207.631 156.306 208.338C155.11 209.045 153.651 209.878 151.927 210.835C150.234 211.784 148.408 212.788 146.447 213.846C144.477 214.874 142.503 215.886 140.525 216.883C140.567 220.066 140.621 223.345 140.686 226.721C140.741 230.066 140.784 233.365 140.813 236.617C140.813 237.782 140.676 238.703 140.404 239.38C140.14 240.087 139.484 240.59 138.438 240.889C137.3 241.214 136.425 241.064 135.814 240.439C135.243 239.837 134.92 238.881 134.846 237.571C134.689 233.988 134.537 230.654 134.389 227.569C134.271 224.474 134.173 221.973 134.095 220.065C132.336 220.9 130.791 221.607 129.459 222.186C128.118 222.735 127.151 223.078 126.558 223.214C125.894 223.337 125.281 223.229 124.718 222.89C124.156 222.551 123.793 222.039 123.631 221.353C123.517 220.72 123.645 220.118 124.014 219.547C124.375 218.945 124.88 218.501 125.531 218.216C126.459 217.851 127.65 217.362 129.105 216.747C130.56 216.132 132.161 215.443 133.906 214.679C133.858 212.995 133.859 211.248 133.908 209.437C133.948 207.595 134.026 205.826 134.141 204.129C134.278 202.393 134.441 200.866 134.631 199.547C134.82 198.229 135.056 197.246 135.338 196.6C135.562 196.104 135.89 195.677 136.32 195.322C136.782 194.957 137.259 194.704 137.752 194.564C138.398 194.38 138.987 194.461 139.518 194.809C140.05 195.156 140.404 195.637 140.579 196.253C140.65 196.499 140.709 196.765 140.757 197.051C140.797 197.306 140.805 197.569 140.783 197.842C140.637 199.547 140.538 201.589 140.484 203.967C140.461 206.336 140.469 208.93 140.507 211.747C142.718 210.75 144.884 209.767 147.003 208.796C149.144 207.786 151.078 206.868 152.806 206.042C154.556 205.177 155.949 204.463 156.987 203.901C157.541 203.51 158.077 203.407 158.596 203.592C159.106 203.746 159.448 204.131 159.624 204.746ZM160.357 231.591C159.372 231.872 158.401 231.85 157.443 231.524C156.493 231.229 155.665 230.717 154.958 229.987C154.241 229.226 153.738 228.338 153.449 227.322C152.904 225.415 152.789 223.434 153.102 221.382C153.445 219.32 154.077 217.277 154.997 215.251C155.916 213.225 156.998 211.302 158.243 209.483C159.509 207.624 160.818 205.97 162.168 204.52C163.549 203.061 164.837 201.862 166.033 200.921C167.26 199.972 168.258 199.388 169.027 199.169C169.919 198.914 170.7 198.908 171.368 199.15C172.058 199.352 172.517 199.854 172.745 200.654C172.815 200.9 172.811 201.118 172.732 201.307C173.158 201.285 173.547 201.423 173.898 201.722C174.25 202.021 174.531 202.54 174.742 203.279C174.83 203.586 174.981 204.409 175.196 205.745C175.411 207.081 175.689 208.699 176.031 210.598C176.404 212.488 176.876 214.433 177.446 216.434C177.534 216.741 177.659 217.005 177.822 217.225C177.976 217.414 178.206 217.465 178.514 217.377C179.745 217.026 180.921 216.424 182.042 215.572C183.185 214.68 184.252 213.693 185.241 212.613C186.253 211.492 187.145 210.422 187.919 209.403C188.715 208.344 189.382 207.471 189.918 206.786C190.477 206.061 190.864 205.668 191.079 205.606C192.125 205.308 192.798 205.682 193.096 206.728C193.175 207.005 193.003 207.686 192.581 208.772C192.181 209.818 191.573 211.072 190.76 212.536C189.937 213.968 188.976 215.44 187.877 216.952C186.799 218.424 185.607 219.729 184.301 220.867C183.026 221.996 181.696 222.758 180.312 223.153C178.619 223.636 177.213 223.605 176.092 223.059C175.002 222.505 174.079 221.604 173.324 220.355C172.59 219.067 171.962 217.565 171.44 215.851C170.511 218.545 169.451 221.01 168.259 223.247C167.089 225.445 165.833 227.284 164.492 228.764C163.151 230.245 161.772 231.187 160.357 231.591ZM170.1 203.804C167.497 206.111 165.263 208.545 163.398 211.107C161.525 213.638 160.17 216.121 159.334 218.556C158.528 220.982 158.393 223.133 158.929 225.01C159.078 225.534 159.399 225.725 159.891 225.584C160.476 225.418 161.149 224.86 161.909 223.911C162.701 222.953 163.508 221.757 164.331 220.325C165.144 218.861 165.923 217.275 166.667 215.565C167.401 213.825 168.05 212.076 168.614 210.318C169.177 208.56 169.558 206.921 169.756 205.4C169.831 204.846 169.946 204.314 170.1 203.804ZM198.562 233.171C196.254 233.83 194.451 234.161 193.155 234.165C191.889 234.16 190.961 233.942 190.372 233.511C189.792 233.11 189.423 232.633 189.265 232.079C189.046 231.31 189.112 230.609 189.464 229.976C189.847 229.335 190.454 228.895 191.284 228.658C191.838 228.5 192.66 228.349 193.75 228.204C194.841 228.06 195.909 227.838 196.955 227.54C200.032 226.662 202.36 225.199 203.939 223.151C205.527 221.135 206.469 218.487 206.764 215.208C207.051 211.898 206.765 207.92 205.905 203.273C204.774 207.356 203.215 210.813 201.227 213.643C199.269 216.464 196.906 218.27 194.137 219.06C190.875 219.99 188.787 218.855 187.874 215.655C187.435 214.116 187.39 212.382 187.738 210.453C188.086 208.523 188.715 206.53 189.626 204.473C190.537 202.417 191.612 200.413 192.853 198.462C194.084 196.48 195.369 194.682 196.705 193.07C198.073 191.448 199.388 190.108 200.65 189.05C201.903 187.96 202.976 187.288 203.868 187.033C204.576 186.831 205.227 186.779 205.82 186.876C206.444 186.964 207.015 187.334 207.534 187.984C208.043 188.604 208.496 189.607 208.891 190.991C209.988 194.838 210.912 198.601 211.662 202.28C212.403 205.929 212.808 209.39 212.877 212.665C212.946 215.94 212.536 218.935 211.647 221.651C210.789 224.359 209.309 226.694 207.207 228.658C205.105 230.622 202.223 232.126 198.562 233.171ZM193.519 213.046C193.581 213.262 193.704 213.343 193.888 213.29C194.504 213.115 195.243 212.555 196.104 211.61C196.958 210.635 197.826 209.422 198.71 207.972C199.616 206.482 200.457 204.878 201.231 203.159C201.996 201.41 202.61 199.655 203.073 197.892C203.566 196.121 203.81 194.471 203.806 192.941C202.47 194.321 201.115 195.872 199.743 197.594C198.393 199.277 197.161 201.026 196.049 202.841C194.967 204.647 194.164 206.44 193.64 208.22C193.138 209.96 193.098 211.569 193.519 213.046ZM228.566 211.933C226.659 212.477 224.931 212.255 223.384 211.265C221.829 210.245 220.625 208.242 219.774 205.257C219.229 203.349 218.901 201.38 218.787 199.349C218.696 197.279 218.804 195.268 219.113 193.316C219.443 191.325 219.954 189.499 220.645 187.838C221.366 186.168 222.279 184.76 223.382 183.613C224.477 182.435 225.733 181.645 227.148 181.241C229.548 180.556 231.61 180.667 233.333 181.573C235.055 182.479 236.202 183.932 236.773 185.932C237.211 187.471 237.18 188.994 236.678 190.502C236.199 191.97 235.376 193.402 234.211 194.799C233.045 196.197 231.684 197.55 230.128 198.859C228.571 200.168 226.947 201.414 225.254 202.596C225.416 203.747 225.62 204.754 225.866 205.616C226.015 206.139 226.382 206.317 226.967 206.15C228.351 205.755 229.767 205.118 231.214 204.24C232.682 203.322 234.131 202.276 235.56 201.103C236.98 199.899 238.334 198.698 239.623 197.498C240.902 196.268 242.057 195.124 243.086 194.065C244.137 192.966 245.001 192.087 245.678 191.428C246.377 190.73 246.85 190.345 247.096 190.275C247.773 190.082 248.322 190.142 248.744 190.454C249.166 190.766 249.443 191.153 249.574 191.615C249.636 191.83 249.357 192.425 248.736 193.401C248.147 194.368 247.289 195.561 246.164 196.98C245.06 198.36 243.784 199.838 242.338 201.416C240.913 202.954 239.398 204.467 237.793 205.957C236.21 207.407 234.62 208.659 233.024 209.713C231.468 210.789 229.982 211.529 228.566 211.933ZM224.867 198.264C225.918 197.165 226.944 196.04 227.947 194.889C228.972 193.698 229.755 192.477 230.296 191.224C230.828 189.941 230.897 188.607 230.502 187.222C230.388 186.822 230.205 186.591 229.955 186.53C229.696 186.437 229.366 186.448 228.966 186.562C227.889 186.87 227.04 187.627 226.42 188.836C225.83 190.036 225.412 191.486 225.165 193.187C224.941 194.848 224.841 196.541 224.867 198.264ZM272.288 199.66C271.303 199.941 270.331 199.919 269.373 199.593C268.424 199.298 267.596 198.786 266.888 198.056C266.172 197.295 265.669 196.407 265.38 195.392C264.835 193.484 264.72 191.504 265.033 189.451C265.376 187.39 266.008 185.346 266.927 183.32C267.847 181.294 268.929 179.371 270.174 177.552C271.44 175.693 272.749 174.039 274.099 172.589C275.479 171.13 276.768 169.931 277.964 168.991C279.191 168.042 280.189 167.457 280.958 167.238C281.85 166.983 282.63 166.977 283.298 167.219C283.989 167.422 284.448 167.923 284.676 168.723C284.746 168.969 284.742 169.187 284.662 169.376C285.089 169.354 285.478 169.493 285.829 169.792C286.181 170.091 286.462 170.609 286.673 171.348C286.76 171.656 286.912 172.478 287.127 173.814C287.341 175.15 287.62 176.768 287.962 178.667C288.335 180.557 288.806 182.503 289.377 184.503C289.465 184.81 289.59 185.074 289.753 185.294C289.906 185.483 290.137 185.534 290.445 185.446C291.676 185.095 292.852 184.493 293.973 183.641C295.116 182.749 296.182 181.763 297.172 180.682C298.183 179.561 299.076 178.491 299.85 177.472C300.646 176.413 301.312 175.541 301.849 174.855C302.407 174.13 302.794 173.737 303.01 173.675C304.056 173.377 304.728 173.751 305.027 174.797C305.106 175.074 304.934 175.755 304.512 176.841C304.111 177.887 303.504 179.142 302.691 180.605C301.868 182.038 300.907 183.51 299.807 185.021C298.73 186.493 297.538 187.798 296.232 188.936C294.957 190.065 293.627 190.827 292.242 191.222C290.55 191.705 289.143 191.674 288.023 191.128C286.933 190.574 286.01 189.673 285.255 188.424C284.521 187.136 283.893 185.635 283.371 183.92C282.442 186.614 281.382 189.08 280.19 191.316C279.02 193.514 277.764 195.353 276.423 196.834C275.082 198.314 273.703 199.257 272.288 199.66ZM282.031 171.874C279.428 174.18 277.194 176.614 275.329 179.176C273.455 181.707 272.101 184.19 271.264 186.625C270.459 189.051 270.324 191.203 270.86 193.08C271.009 193.603 271.33 193.794 271.822 193.654C272.407 193.487 273.079 192.929 273.84 191.98C274.632 191.022 275.439 189.827 276.261 188.394C277.075 186.931 277.854 185.344 278.597 183.635C279.332 181.894 279.981 180.145 280.545 178.387C281.108 176.629 281.489 174.99 281.687 173.469C281.762 172.915 281.877 172.383 282.031 171.874ZM329.954 156.156C330.06 156.525 330.029 156.883 329.862 157.23C329.694 157.578 329.448 157.881 329.123 158.14C328.661 158.505 327.832 159.041 326.636 159.748C325.441 160.455 323.981 161.287 322.258 162.245C320.565 163.194 318.738 164.197 316.777 165.256C314.808 166.283 312.834 167.296 310.855 168.293C310.898 171.475 310.951 174.754 311.016 178.13C311.072 181.475 311.114 184.774 311.144 188.027C311.143 189.191 311.007 190.112 310.734 190.789C310.47 191.497 309.815 192 308.769 192.298C307.63 192.623 306.755 192.473 306.145 191.849C305.573 191.246 305.251 190.29 305.177 188.98C305.02 185.398 304.867 182.064 304.719 178.978C304.602 175.884 304.504 173.382 304.425 171.475C302.667 172.309 301.122 173.016 299.789 173.596C298.449 174.145 297.481 174.487 296.888 174.623C296.224 174.746 295.611 174.638 295.049 174.299C294.486 173.961 294.124 173.449 293.961 172.763C293.847 172.13 293.975 171.528 294.344 170.956C294.705 170.354 295.211 169.911 295.861 169.625C296.789 169.261 297.98 168.771 299.436 168.156C300.891 167.541 302.491 166.852 304.236 166.088C304.189 164.404 304.189 162.657 304.239 160.846C304.279 159.005 304.357 157.235 304.472 155.539C304.608 153.803 304.772 152.275 304.961 150.957C305.151 149.638 305.386 148.656 305.668 148.01C305.892 147.513 306.22 147.087 306.651 146.731C307.113 146.366 307.59 146.114 308.082 145.973C308.728 145.789 309.317 145.871 309.849 146.218C310.381 146.565 310.734 147.047 310.91 147.662C310.98 147.909 311.039 148.174 311.087 148.46C311.127 148.715 311.136 148.979 311.114 149.251C310.968 150.957 310.868 152.999 310.814 155.376C310.791 157.746 310.799 160.339 310.838 163.157C313.049 162.16 315.214 161.176 317.333 160.205C319.474 159.195 321.409 158.277 323.136 157.452C324.886 156.587 326.28 155.873 327.317 155.311C327.871 154.92 328.408 154.817 328.926 155.001C329.436 155.156 329.779 155.54 329.954 156.156ZM383.403 166.764C382.51 167.019 381.754 166.935 381.135 166.513C380.546 166.082 380.115 165.389 379.843 164.435C379.624 163.666 379.466 162.996 379.369 162.424C379.273 161.853 379.229 161.233 379.238 160.565C379.238 159.866 379.245 159.015 379.259 158.013C379.295 156.972 379.332 155.646 379.373 154.038C379.404 153.097 379.422 151.877 379.427 150.378C379.454 148.84 379.446 147.178 379.403 145.394C379.351 143.578 379.222 141.785 379.016 140.013C378.832 138.202 378.534 136.574 378.121 135.127C377.84 134.143 377.366 133.296 376.698 132.588C374.644 136.236 372.989 140.701 371.734 145.984C370.51 151.258 369.774 157.192 369.525 163.785C369.37 165.46 368.983 166.668 368.363 167.411C367.734 168.123 367.066 168.58 366.358 168.782C366.143 168.843 365.784 168.812 365.283 168.689C364.774 168.535 364.233 168.156 363.662 167.554C363.091 166.952 362.621 166.004 362.252 164.712C362.164 164.404 362.132 163.997 362.154 163.492C362.167 162.956 362.249 162.367 362.398 161.725C362.219 160.046 361.932 158.281 361.537 156.43C361.164 154.54 360.734 152.683 360.247 150.858C359.782 148.995 359.321 147.262 358.864 145.662C358.513 144.431 358.114 143.381 357.666 142.51C356.702 144.848 355.93 147.564 355.348 150.659C354.767 153.753 354.356 156.981 354.118 160.344C353.91 163.697 353.869 166.937 353.995 170.062C354.012 170.823 353.986 171.546 353.915 172.231C353.836 172.886 353.603 173.469 353.216 173.978C352.85 174.448 352.222 174.811 351.329 175.065C350.345 175.346 349.492 175.157 348.771 174.497C348.051 173.838 347.502 172.846 347.124 171.523C346.835 170.508 346.677 169.138 346.651 167.415C346.617 165.661 346.697 163.725 346.891 161.607C347.076 159.457 347.361 157.246 347.744 154.974C348.15 152.662 348.623 150.414 349.165 148.23C349.706 146.045 350.32 144.057 351.007 142.264C351.715 140.431 352.454 138.939 353.224 137.788C354.015 136.597 354.842 135.878 355.704 135.633C355.734 135.624 355.781 135.611 355.842 135.593C356.519 135.4 357.152 135.286 357.741 135.251C358.352 135.177 358.952 135.355 359.541 135.786C360.152 136.177 360.802 136.94 361.492 138.074C362.181 139.209 362.97 140.864 363.857 143.04C364.076 143.577 364.311 144.225 364.561 144.986C364.803 145.715 365.038 146.48 365.266 147.28C365.632 144.713 366.129 142.259 366.759 139.916C367.419 137.565 368.176 135.435 369.03 133.528C369.914 131.612 370.879 130.039 371.926 128.809C372.973 127.578 374.05 126.805 375.158 126.489C376.45 126.12 377.742 126.101 379.035 126.431C380.318 126.731 381.509 127.522 382.607 128.806C383.706 130.09 384.619 132.009 385.348 134.563C386.12 137.271 386.624 139.973 386.861 142.667C387.088 145.331 387.153 147.891 387.055 150.348C386.958 152.806 386.807 155.078 386.604 157.166C386.392 159.223 386.233 160.999 386.127 162.493C385.999 163.561 385.762 164.477 385.414 165.242C385.058 165.976 384.387 166.483 383.403 166.764ZM403.92 133.558C402.443 133.979 401.353 134.124 400.65 133.992C399.946 133.86 399.472 133.596 399.226 133.2C398.98 132.804 398.813 132.453 398.725 132.145C398.716 132.114 398.712 132.099 398.712 132.099C398.519 131.422 398.642 130.688 399.082 129.897C399.513 129.075 400.247 128.383 401.285 127.821C402.156 127.373 403.195 126.876 404.404 126.332C405.635 125.748 406.937 125.177 408.308 124.619C409.702 124.022 411.047 123.488 412.344 123.019C413.641 122.549 414.797 122.169 415.813 121.879C417.167 121.493 418.27 121.395 419.122 121.584C419.966 121.743 420.597 122.029 421.014 122.442C421.463 122.847 421.735 123.218 421.832 123.557C421.919 123.864 421.93 124.194 421.864 124.546C421.798 124.897 421.501 125.315 420.973 125.798C420.477 126.272 419.621 126.833 418.408 127.478C417.195 128.124 415.484 128.895 413.277 129.79C413.071 129.883 412.849 129.979 412.611 130.08C412.773 131.465 412.964 133.124 413.183 135.058C413.393 136.962 413.599 138.966 413.8 141.072C414.024 143.138 414.225 145.127 414.404 147.039C414.606 148.911 414.763 150.514 414.877 151.846C416.104 151.363 417.185 150.954 418.122 150.621C419.089 150.278 419.742 150.059 420.08 149.962C421.157 149.655 421.962 149.675 422.493 150.022C423.016 150.339 423.379 150.851 423.581 151.559C423.66 151.836 423.29 152.407 422.472 153.273C421.654 154.138 420.465 155.16 418.904 156.337C417.374 157.506 415.56 158.672 413.463 159.836C412.082 160.596 410.695 161.275 409.302 161.872C407.908 162.469 406.888 162.86 406.242 163.044C404.98 163.404 404.099 163.406 403.598 163.05C403.128 162.685 402.792 162.148 402.59 161.44C402.414 160.825 402.419 160.141 402.604 159.39C402.82 158.63 403.242 158.01 403.871 157.531C404.53 157.043 405.271 156.549 406.093 156.049C406.915 155.548 407.777 155.069 408.678 154.612C408.512 153.795 408.332 152.698 408.139 151.322C407.946 149.946 407.734 148.443 407.501 146.812C407.291 145.142 407.076 143.456 406.857 141.755C406.66 140.014 406.478 138.385 406.312 136.869C406.168 135.313 406.034 133.97 405.911 132.84C405.045 133.187 404.382 133.426 403.92 133.558ZM457.182 146.366C456.443 146.577 455.736 146.546 455.059 146.273C454.382 146 453.842 145.156 453.438 143.74C453.254 143.094 453.19 141.997 453.248 140.45C453.306 138.903 453.447 137.066 453.672 134.938C453.919 132.771 454.228 130.471 454.598 128.036C454.968 125.601 455.389 123.168 455.86 120.737C456.332 118.307 456.816 116.039 457.314 113.934C457.811 111.828 458.311 110.022 458.813 108.514C459.336 106.967 459.814 105.9 460.245 105.311C460.878 104.498 461.595 103.977 462.395 103.749C462.826 103.626 463.254 103.554 463.681 103.532C464.138 103.501 464.535 103.554 464.874 103.691C465.634 103.906 466.423 104.513 467.24 105.511C468.079 106.47 468.923 107.677 469.771 109.132C470.649 110.579 471.486 112.17 472.281 113.907C473.097 115.604 473.864 117.299 474.58 118.991C475.705 118.504 476.483 118.198 476.914 118.076C477.837 117.812 478.692 117.718 479.479 117.793C480.257 117.837 480.775 118.255 481.034 119.046C481.315 119.798 481.254 120.515 480.849 121.196C480.475 121.868 479.908 122.446 479.147 122.929C478.813 123.158 477.978 123.612 476.641 124.293C477.181 125.836 477.605 127.146 477.912 128.223C478.693 130.962 479.145 133.129 479.268 134.725C479.421 136.312 479.359 137.494 479.082 138.272C478.835 139.041 478.483 139.557 478.026 139.821C477.608 140.106 477.215 140.302 476.846 140.407C476.815 140.416 476.784 140.425 476.753 140.433C475.861 140.688 475.133 140.646 474.571 140.307C474.039 139.96 473.62 139.248 473.312 138.171L472.378 134.893C472.088 133.878 471.748 132.744 471.357 131.491C470.966 130.238 470.523 128.917 470.027 127.528C468.299 128.353 466.571 129.179 464.843 130.005C463.138 130.791 461.669 131.476 460.438 132.06C460.249 133.611 460.096 135.003 459.982 136.233C459.858 137.433 459.807 138.363 459.829 139.022C459.797 140.662 459.704 141.969 459.55 142.945C459.387 143.89 459.169 144.584 458.897 145.028C458.664 145.494 458.402 145.802 458.112 145.951C457.83 146.131 457.52 146.269 457.182 146.366ZM461.357 125.658C462.562 124.982 463.729 124.349 464.859 123.761C465.98 123.141 467.049 122.57 468.064 122.048C467.366 120.184 466.65 118.375 465.917 116.621C465.184 114.866 464.477 113.321 463.796 111.985C463.435 113.751 463.023 115.866 462.56 118.327C462.12 120.749 461.719 123.192 461.357 125.658ZM529.862 124.983C528.97 125.238 528.214 125.154 527.594 124.732C527.005 124.301 526.575 123.608 526.303 122.655C526.083 121.885 525.925 121.215 525.829 120.643C525.732 120.072 525.689 119.452 525.698 118.784C525.698 118.085 525.705 117.235 525.719 116.232C525.754 115.191 525.792 113.865 525.832 112.257C525.863 111.316 525.882 110.096 525.887 108.597C525.914 107.059 525.905 105.397 525.862 103.613C525.81 101.797 525.681 100.004 525.475 98.2326C525.291 96.4215 524.993 94.7929 524.581 93.3466C524.3 92.3618 523.825 91.5155 523.158 90.8076C521.103 94.455 519.449 98.9202 518.194 104.203C516.97 109.477 516.233 115.411 515.984 122.004C515.83 123.679 515.443 124.887 514.823 125.63C514.194 126.342 513.525 126.799 512.818 127.001C512.602 127.062 512.244 127.031 511.743 126.908C511.233 126.754 510.693 126.376 510.121 125.773C509.55 125.171 509.08 124.223 508.712 122.931C508.624 122.623 508.591 122.217 508.613 121.711C508.627 121.175 508.708 120.586 508.858 119.944C508.678 118.265 508.391 116.5 507.996 114.649C507.624 112.759 507.194 110.902 506.706 109.077C506.241 107.214 505.78 105.482 505.324 103.881C504.973 102.651 504.573 101.6 504.125 100.729C503.162 103.067 502.389 105.783 501.808 108.878C501.226 111.972 500.816 115.2 500.577 118.563C500.369 121.916 500.328 125.156 500.455 128.281C500.472 129.042 500.445 129.765 500.375 130.45C500.295 131.105 500.062 131.688 499.675 132.197C499.31 132.668 498.681 133.03 497.789 133.284C496.804 133.565 495.952 133.376 495.231 132.716C494.51 132.057 493.961 131.065 493.584 129.742C493.294 128.727 493.136 127.357 493.111 125.634C493.076 123.88 493.156 121.944 493.351 119.826C493.536 117.676 493.82 115.466 494.204 113.193C494.609 110.881 495.083 108.633 495.624 106.449C496.166 104.264 496.78 102.276 497.466 100.483C498.175 98.65 498.914 97.158 499.683 96.0067C500.475 94.8158 501.302 94.0975 502.163 93.8517C502.194 93.8429 502.24 93.8297 502.302 93.8122C502.979 93.6191 503.612 93.505 504.201 93.4701C504.812 93.3956 505.412 93.5739 506 94.0049C506.611 94.3964 507.262 95.1592 507.951 96.2936C508.641 97.4279 509.429 99.0831 510.316 101.259C510.536 101.796 510.771 102.444 511.021 103.205C511.262 103.934 511.497 104.699 511.725 105.499C512.091 102.933 512.589 100.478 513.218 98.1353C513.879 95.7839 514.636 93.6546 515.489 91.7473C516.373 89.8312 517.339 88.258 518.386 87.0276C519.432 85.7973 520.509 85.0241 521.617 84.7081C522.91 84.3394 524.202 84.3202 525.494 84.6504C526.777 84.9498 527.968 85.7415 529.067 87.0254C530.165 88.3094 531.079 90.2284 531.807 92.7825C532.58 95.4905 533.084 98.1917 533.32 100.886C533.548 103.55 533.613 106.111 533.515 108.568C533.417 111.025 533.267 113.297 533.064 115.385C532.852 117.442 532.693 119.218 532.587 120.712C532.459 121.78 532.221 122.696 531.874 123.461C531.517 124.195 530.847 124.703 529.862 124.983ZM550.38 91.777C548.903 92.1983 547.812 92.3429 547.109 92.2108C546.406 92.0786 545.931 91.8147 545.685 91.419C545.439 91.0233 545.272 90.6716 545.185 90.3639C545.176 90.3331 545.171 90.3177 545.171 90.3177C544.978 89.6407 545.102 88.9067 545.542 88.1157C545.973 87.2939 546.707 86.6019 547.745 86.0397C548.615 85.5917 549.655 85.0955 550.864 84.5509C552.095 83.9668 553.396 83.3959 554.768 82.8382C556.161 82.241 557.507 81.7075 558.804 81.2377C560.1 80.7679 561.257 80.3882 562.272 80.0985C563.626 79.7122 564.729 79.6138 565.582 79.8031C566.426 79.9617 567.057 80.2477 567.474 80.661C567.922 81.0656 568.195 81.4371 568.291 81.7756C568.379 82.0834 568.39 82.413 568.324 82.7646C568.258 83.1163 567.961 83.5337 567.433 84.017C566.936 84.4915 566.081 85.0516 564.868 85.6973C563.654 86.3429 561.944 87.1136 559.737 88.0094C559.53 88.1016 559.308 88.1982 559.071 88.2992C559.233 89.6839 559.424 91.3433 559.643 93.2774C559.853 95.1808 560.059 97.1852 560.26 99.2908C560.483 101.357 560.685 103.346 560.864 105.258C561.065 107.131 561.223 108.733 561.337 110.065C562.563 109.582 563.645 109.173 564.581 108.84C565.548 108.497 566.201 108.278 566.54 108.181C567.617 107.874 568.421 107.894 568.953 108.241C569.476 108.558 569.838 109.07 570.04 109.778C570.119 110.055 569.75 110.626 568.932 111.492C568.114 112.358 566.924 113.379 565.363 114.556C563.833 115.725 562.02 116.891 559.923 118.055C558.542 118.815 557.155 119.494 555.761 120.091C554.368 120.688 553.348 121.079 552.702 121.263C551.44 121.623 550.559 121.625 550.058 121.269C549.588 120.904 549.251 120.367 549.05 119.66C548.874 119.044 548.879 118.361 549.064 117.609C549.279 116.849 549.702 116.229 550.33 115.75C550.99 115.263 551.731 114.768 552.553 114.268C553.375 113.767 554.237 113.288 555.138 112.831C554.971 112.014 554.792 110.917 554.599 109.541C554.406 108.165 554.193 106.662 553.961 105.031C553.751 103.361 553.536 101.675 553.317 99.9736C553.12 98.2329 552.938 96.6043 552.772 95.0878C552.627 93.5317 552.494 92.1888 552.371 91.0591C551.505 91.406 550.841 91.6453 550.38 91.777ZM85.2852 319.943C83.3465 320.496 81.7642 320.315 80.5382 319.4C79.3342 318.446 78.4689 317.046 77.9421 315.199C77.4418 313.445 77.3436 311.643 77.6477 309.793C77.9429 307.912 78.5217 306.033 79.384 304.156C80.2463 302.28 81.2932 300.467 82.5246 298.718C83.7473 296.938 85.0249 295.293 86.3574 293.781C87.7118 292.23 89.0376 290.87 90.3348 289.702C91.6232 288.502 92.7642 287.544 93.7579 286.828C94.7516 286.112 95.4946 285.684 95.9869 285.543C96.5101 285.394 96.9804 285.41 97.3979 285.59C97.8374 285.731 98.1625 286.171 98.3732 286.909C98.5926 287.679 98.4824 288.459 98.0425 289.25C97.6027 290.041 96.998 290.779 96.2285 291.464C95.1424 292.44 93.9265 293.602 92.581 294.951C91.2574 296.26 89.9535 297.697 88.6694 299.261C87.3852 300.825 86.2461 302.432 85.2521 304.079C84.2888 305.719 83.5892 307.349 83.1534 308.971C82.7088 310.562 82.6884 312.065 83.0922 313.481C83.18 313.788 83.3118 314.017 83.4875 314.166C83.6633 314.316 83.9512 314.334 84.3512 314.22C84.8744 314.07 85.4965 313.627 86.2177 312.889C86.9301 312.12 87.6755 311.175 88.454 310.054C89.2237 308.903 89.9714 307.675 90.6972 306.37C91.4142 305.034 92.0543 303.72 92.6175 302.428C93.2026 301.096 93.6559 299.885 93.9772 298.795C94.2061 297.965 94.547 297.235 95 296.607C95.4838 295.969 96.0488 295.559 96.695 295.374C97.2181 295.225 97.6928 295.256 98.1191 295.467C98.5674 295.639 98.8969 296.094 99.1076 296.832C99.1778 297.079 99.3292 297.668 99.5618 298.6C99.7856 299.501 100.051 300.606 100.358 301.916C100.687 303.187 101.049 304.514 101.444 305.899C101.787 307.099 102.193 308.115 102.663 308.946C103.155 309.737 103.786 310.023 104.555 309.804C105.478 309.54 106.34 308.945 107.14 308.018C107.932 307.06 108.644 305.942 109.278 304.663C109.933 303.344 110.494 301.986 110.961 300.589C111.427 299.191 111.788 297.89 112.044 296.686C112.321 295.442 112.491 294.462 112.553 293.746C112.18 290.924 112.098 288.651 112.305 286.928C112.503 285.174 112.895 283.865 113.48 282.999C114.096 282.125 114.773 281.582 115.511 281.371C116.342 281.134 117.092 281.137 117.76 281.379C118.459 281.612 119.019 282.467 119.44 283.944C119.659 284.714 119.666 285.96 119.458 287.683C119.251 289.406 118.872 291.344 118.322 293.498C118.471 294.952 118.725 296.427 119.085 297.922C119.445 299.417 119.932 300.775 120.547 301.997C121.211 301.176 121.811 300.072 122.348 298.688C122.876 297.273 123.369 295.735 123.827 294.073C124.276 292.381 124.725 290.689 125.174 288.997C125.614 287.274 126.074 285.679 126.554 284.211C127.065 282.734 127.614 281.512 128.204 280.546C128.815 279.539 129.521 278.922 130.321 278.694C131.152 278.457 131.95 278.396 132.715 278.51C133.501 278.585 134.244 278.972 134.943 279.672C135.663 280.331 136.362 281.38 137.038 282.817C137.736 284.215 138.428 286.115 139.113 288.515C139.472 289.777 139.947 290.972 140.535 292.102C141.115 293.201 141.807 294.052 142.611 294.655C143.406 295.226 144.327 295.363 145.374 295.065C147.066 294.582 148.495 293.875 149.66 292.943C150.816 291.981 151.777 290.975 152.543 289.925C153.308 288.875 153.935 287.98 154.423 287.242C154.933 286.464 155.373 286.023 155.742 285.917C156.357 285.742 156.872 285.795 157.285 286.076C157.72 286.318 158.012 286.701 158.161 287.224C158.249 287.531 158.141 288.145 157.837 289.063C157.556 289.942 157.1 290.971 156.471 292.148C155.864 293.286 155.099 294.453 154.175 295.648C153.274 296.804 152.256 297.843 151.121 298.766C149.987 299.688 148.758 300.338 147.435 300.716C145.035 301.401 142.927 301.536 141.112 301.122C139.319 300.669 137.743 299.521 136.386 297.678C135.05 295.797 133.878 293.086 132.868 289.547C132.807 289.332 132.75 289.132 132.697 288.947C132.644 288.763 132.592 288.578 132.539 288.394C132.32 287.624 132.115 286.967 131.927 286.422C131.769 285.868 131.569 285.459 131.327 285.195C131.072 286.167 130.77 287.384 130.422 288.848C130.105 290.302 129.738 291.871 129.319 293.555C128.901 295.238 128.417 296.924 127.867 298.611C127.347 300.29 126.778 301.85 126.157 303.292C125.537 304.733 124.851 305.944 124.099 306.924C123.377 307.895 122.601 308.499 121.771 308.736C121.155 308.912 120.39 308.797 119.476 308.392C118.593 307.979 117.756 307.319 116.965 306.413C116.165 305.477 115.572 304.331 115.186 302.977C114.337 305.017 113.402 306.93 112.382 308.719C111.352 310.477 110.259 311.953 109.103 313.148C107.986 314.366 106.812 315.15 105.581 315.501C104.566 315.79 103.498 315.779 102.377 315.466C101.287 315.145 100.188 314.327 99.0812 313.012C97.974 311.698 96.9331 309.682 95.9584 306.965C95.0301 309.193 93.9787 311.224 92.8043 313.056C91.6607 314.88 90.4448 316.391 89.1564 317.591C87.8988 318.781 86.6084 319.565 85.2852 319.943ZM168.364 269.339C168.907 264.825 169.214 260.245 169.286 255.599C169.287 254.667 169.452 253.904 169.782 253.311C170.142 252.709 170.754 252.285 171.615 252.039C172.323 251.837 172.923 251.899 173.415 252.224C173.898 252.519 174.241 253.02 174.443 253.728C174.61 254.313 174.662 255.429 174.6 257.078C174.529 258.695 174.464 260.743 174.406 263.223C174.348 265.702 174.391 268.535 174.535 271.721C174.678 274.908 175.013 278.357 175.539 282.067C176.065 285.777 176.907 289.663 178.066 293.725C178.382 294.832 178.426 295.802 178.197 296.632C178.007 297.485 177.405 298.056 176.39 298.346C175.282 298.662 174.357 298.51 173.614 297.89C172.902 297.261 172.375 296.346 172.033 295.146C171.357 292.777 170.872 290.785 170.578 289.172C170.306 287.519 170.1 286.097 169.96 284.906C169.19 287.921 168.226 290.609 167.069 292.969C165.934 295.289 164.737 297.161 163.48 298.585C162.231 300.039 161.052 300.924 159.945 301.24C158.129 301.758 156.507 301.672 155.079 300.981C153.651 300.29 152.642 298.914 152.054 296.852C151.598 295.252 151.513 293.496 151.799 291.584C152.077 289.642 152.61 287.659 153.397 285.638C154.185 283.616 155.126 281.667 156.222 279.791C157.339 277.875 158.509 276.143 159.731 274.597C160.945 273.019 162.122 271.718 163.26 270.695C164.399 269.671 165.384 269.041 166.215 268.804C167.138 268.54 167.855 268.719 168.364 269.339ZM168.014 272.134C167.864 272.31 167.699 272.49 167.519 272.675C167.361 272.819 167.207 272.98 167.057 273.156C166.098 274.228 165.107 275.476 164.082 276.899C163.049 278.292 162.065 279.804 161.133 281.434C160.192 283.034 159.376 284.664 158.685 286.326C158.016 287.947 157.547 289.512 157.279 291.02C157.032 292.488 157.08 293.822 157.422 295.022C157.483 295.237 157.62 295.365 157.831 295.404C158.042 295.444 158.224 295.442 158.378 295.398C159.455 295.091 160.473 294.284 161.432 292.979C162.421 291.666 163.321 289.978 164.13 287.917C164.962 285.816 165.695 283.427 166.329 280.751C166.994 278.065 167.555 275.193 168.014 272.134ZM241.787 275.796C240.895 276.051 240.139 275.967 239.519 275.545C238.93 275.114 238.5 274.421 238.228 273.467C238.008 272.698 237.85 272.028 237.754 271.456C237.657 270.885 237.614 270.265 237.623 269.597C237.623 268.898 237.63 268.048 237.644 267.045C237.679 266.004 237.717 264.678 237.757 263.07C237.788 262.129 237.806 260.909 237.811 259.41C237.838 257.872 237.83 256.21 237.787 254.426C237.735 252.61 237.606 250.817 237.4 249.046C237.216 247.234 236.918 245.606 236.506 244.16C236.225 243.175 235.75 242.328 235.083 241.621C233.028 245.268 231.374 249.733 230.119 255.016C228.895 260.29 228.158 266.224 227.909 272.817C227.755 274.492 227.368 275.7 226.748 276.443C226.119 277.155 225.45 277.612 224.743 277.814C224.527 277.875 224.169 277.844 223.668 277.721C223.158 277.567 222.618 277.189 222.046 276.586C221.475 275.984 221.005 275.036 220.637 273.744C220.549 273.436 220.516 273.029 220.538 272.524C220.552 271.988 220.633 271.399 220.783 270.757C220.603 269.078 220.316 267.313 219.921 265.462C219.549 263.572 219.119 261.715 218.631 259.89C218.166 258.027 217.705 256.295 217.249 254.694C216.898 253.463 216.498 252.413 216.05 251.542C215.087 253.88 214.314 256.596 213.733 259.691C213.151 262.785 212.741 266.013 212.502 269.376C212.294 272.729 212.253 275.969 212.38 279.094C212.397 279.855 212.37 280.578 212.3 281.263C212.22 281.918 211.987 282.501 211.6 283.01C211.235 283.48 210.606 283.843 209.714 284.097C208.729 284.378 207.877 284.189 207.156 283.529C206.435 282.87 205.886 281.878 205.509 280.555C205.219 279.54 205.061 278.17 205.036 276.447C205.001 274.693 205.081 272.757 205.276 270.639C205.461 268.489 205.745 266.279 206.129 264.006C206.534 261.694 207.008 259.446 207.549 257.262C208.091 255.077 208.705 253.089 209.391 251.296C210.099 249.463 210.839 247.971 211.608 246.82C212.4 245.629 213.227 244.91 214.088 244.665C214.119 244.656 214.165 244.643 214.227 244.625C214.904 244.432 215.537 244.318 216.126 244.283C216.737 244.209 217.337 244.387 217.925 244.818C218.536 245.209 219.186 245.972 219.876 247.107C220.566 248.241 221.354 249.896 222.241 252.072C222.461 252.609 222.696 253.257 222.946 254.018C223.187 254.747 223.422 255.512 223.65 256.312C224.016 253.745 224.514 251.291 225.143 248.948C225.804 246.597 226.561 244.468 227.414 242.56C228.298 240.644 229.264 239.071 230.311 237.841C231.357 236.61 232.434 235.837 233.542 235.521C234.835 235.152 236.127 235.133 237.419 235.463C238.702 235.763 239.893 236.554 240.992 237.838C242.09 239.122 243.004 241.041 243.732 243.595C244.505 246.303 245.009 249.005 245.245 251.699C245.473 254.363 245.538 256.923 245.44 259.381C245.342 261.838 245.192 264.11 244.989 266.198C244.777 268.255 244.618 270.031 244.512 271.525C244.384 272.593 244.146 273.509 243.799 274.274C243.442 275.008 242.772 275.515 241.787 275.796ZM289.726 263.967C288.526 264.31 287.557 264.237 286.819 263.749C286.089 263.291 285.457 262.124 284.921 260.247C284.465 258.647 284.134 256.495 283.928 253.792C283.723 251.088 283.522 248.167 283.325 245.029C280.998 249.819 277.753 253.374 273.589 255.693C273.224 257.794 272.66 259.785 271.899 261.666C271.138 263.547 270.186 265.166 269.042 266.524C267.921 267.842 266.606 268.716 265.098 269.146C263.221 269.682 261.43 269.527 259.725 268.683C258.051 267.829 256.849 266.125 256.12 263.571C255.629 261.848 255.473 260.312 255.654 258.962C255.826 257.582 256.163 256.488 256.664 255.679C255.777 254.668 255.118 253.408 254.688 251.901C254.109 249.87 254.149 247.911 254.809 246.026C255.469 244.141 256.58 242.493 258.141 241.082C259.732 239.663 261.605 238.646 263.759 238.032C264.959 237.69 266.186 237.673 267.438 237.981C268.713 238.249 269.864 238.903 270.893 239.94C271.943 240.939 272.731 242.361 273.258 244.207C273.697 245.746 273.949 247.504 274.014 249.482C275.83 247.566 277.479 245.183 278.962 242.33C280.475 239.47 281.678 236.398 282.572 233.114C282.858 232.134 283.478 231.508 284.432 231.236C285.232 231.008 285.933 231.074 286.535 231.435C287.159 231.756 287.581 232.301 287.801 233.07C287.844 233.224 287.897 233.758 287.958 234.673C288.019 235.587 288.094 236.78 288.181 238.253C288.259 239.695 288.347 241.284 288.443 243.02C288.569 244.748 288.705 246.506 288.849 248.295C288.994 250.084 289.142 251.772 289.296 253.359C289.683 251.684 290.106 249.9 290.564 248.005C291.044 246.072 291.563 244.16 292.122 242.27C292.672 240.349 293.251 238.587 293.858 236.983C294.465 235.379 295.075 234.073 295.686 233.067C296.289 232.03 296.882 231.428 297.467 231.261C298.636 230.928 299.718 230.985 300.711 231.434C301.704 231.883 302.302 232.461 302.504 233.169C302.706 233.877 302.94 234.991 303.208 236.512C303.475 238.033 303.749 239.752 304.03 241.668C304.332 243.545 304.624 245.442 304.904 247.359C305.185 249.275 305.463 251.009 305.74 252.561C306.007 254.082 306.246 255.212 306.457 255.95C306.632 256.566 306.507 257.234 306.08 257.954C305.654 258.675 305.071 259.141 304.332 259.352C304.271 259.369 304.163 259.4 304.009 259.444C303.649 259.58 303.293 259.615 302.941 259.549C302.598 259.513 302.205 259.126 301.761 258.388C301.349 257.64 300.87 256.313 300.326 254.405C299.957 253.112 299.615 251.679 299.299 250.106C298.983 248.532 298.698 246.949 298.444 245.358C298.211 243.727 298.025 242.2 297.885 240.776C297.463 242.327 297 244.089 296.498 246.063C296.019 247.997 295.506 249.99 294.96 252.042C294.405 254.064 293.831 255.958 293.237 257.725C292.664 259.452 292.075 260.885 291.468 262.023C290.892 263.153 290.311 263.801 289.726 263.967ZM267.973 253.502C268.03 252.187 267.998 250.849 267.876 249.486C267.744 248.093 267.499 246.765 267.139 245.504C266.989 244.98 266.737 244.503 266.381 244.073C266.025 243.642 265.586 243.501 265.063 243.65C264.016 243.948 263.047 244.458 262.154 245.178C261.292 245.89 260.653 246.738 260.235 247.723C259.817 248.707 259.766 249.753 260.082 250.861C260.363 251.846 260.923 252.584 261.762 253.077C262.632 253.561 263.608 253.832 264.689 253.889C265.801 253.938 266.85 253.822 267.834 253.541C267.865 253.532 267.911 253.519 267.973 253.502ZM267.239 258.103C266.153 258.38 265.067 258.54 263.982 258.583C262.887 258.596 261.854 258.475 260.883 258.22C260.931 258.738 260.975 259.242 261.014 259.729C261.045 260.187 261.117 260.615 261.231 261.015C261.424 261.692 261.708 262.277 262.081 262.769C262.477 263.222 263.044 263.343 263.782 263.133C264.551 262.913 265.224 262.355 265.8 261.459C266.407 260.554 266.887 259.435 267.239 258.103ZM340.163 221.877C340.268 222.246 340.237 222.604 340.07 222.951C339.903 223.298 339.656 223.602 339.331 223.861C338.869 224.225 338.041 224.761 336.845 225.469C335.649 226.176 334.189 227.008 332.466 227.966C330.773 228.914 328.946 229.918 326.985 230.977C325.016 232.004 323.042 233.017 321.063 234.014C321.106 237.196 321.16 240.475 321.224 243.851C321.28 247.196 321.323 250.495 321.352 253.748C321.352 254.912 321.215 255.833 320.942 256.51C320.678 257.218 320.023 257.721 318.977 258.019C317.838 258.344 316.964 258.194 316.353 257.57C315.782 256.967 315.459 256.011 315.385 254.701C315.228 251.119 315.076 247.785 314.927 244.699C314.81 241.604 314.712 239.103 314.634 237.196C312.875 238.03 311.33 238.737 309.998 239.317C308.657 239.866 307.69 240.208 307.096 240.344C306.432 240.467 305.819 240.359 305.257 240.02C304.694 239.682 304.332 239.169 304.17 238.484C304.056 237.851 304.183 237.248 304.553 236.677C304.913 236.075 305.419 235.631 306.07 235.346C306.997 234.982 308.189 234.492 309.644 233.877C311.099 233.262 312.699 232.573 314.445 231.809C314.397 230.125 314.398 228.378 314.447 226.567C314.487 224.725 314.565 222.956 314.68 221.26C314.817 219.523 314.98 217.996 315.17 216.677C315.359 215.359 315.595 214.377 315.876 213.731C316.101 213.234 316.428 212.808 316.859 212.452C317.321 212.087 317.798 211.835 318.29 211.694C318.936 211.51 319.525 211.591 320.057 211.939C320.589 212.286 320.942 212.768 321.118 213.383C321.188 213.629 321.247 213.895 321.296 214.181C321.335 214.436 321.344 214.7 321.322 214.972C321.176 216.678 321.076 218.719 321.023 221.097C321 223.467 321.007 226.06 321.046 228.877C323.257 227.881 325.422 226.897 327.541 225.926C329.682 224.916 331.617 223.998 333.345 223.173C335.094 222.307 336.488 221.594 337.526 221.032C338.08 220.641 338.616 220.538 339.135 220.722C339.644 220.876 339.987 221.261 340.163 221.877ZM341.043 247.939C340.274 248.158 339.533 248.07 338.821 247.674C338.14 247.27 337.65 246.544 337.352 245.498C337.22 245.036 337.067 244.265 336.891 243.183C336.738 242.063 336.571 240.779 336.392 239.333C336.243 237.878 336.061 236.366 335.846 234.796C335.662 233.218 335.454 231.73 335.222 230.332C335.02 228.926 334.814 227.737 334.603 226.765C334.331 225.578 334.402 224.66 334.816 224.009C335.22 223.328 335.807 222.878 336.576 222.658C337.192 222.483 337.79 222.479 338.37 222.646C338.972 222.774 339.466 223.282 339.853 224.17C340.261 225.018 340.645 226.306 341.005 228.034C341.657 225.186 342.398 222.595 343.23 220.261C344.093 217.919 345.131 215.959 346.345 214.381C348.346 211.714 350.377 210.086 352.439 209.498C353.608 209.164 354.452 209.207 354.971 209.624C355.489 210.042 355.827 210.528 355.985 211.082C356.091 211.451 356.095 211.816 355.998 212.176C355.932 212.528 355.686 212.948 355.259 213.435C354.833 213.923 354.16 214.598 353.241 215.459C352.005 216.61 350.851 217.987 349.778 219.591C348.735 221.186 347.789 223.12 346.94 225.392C346.091 227.664 345.349 230.372 344.715 233.514C344.081 236.657 343.549 240.336 343.121 244.551C343.143 245.676 342.94 246.483 342.514 246.97C342.118 247.449 341.628 247.772 341.043 247.939ZM366.901 241.103C364.993 241.647 363.265 241.425 361.719 240.435C360.163 239.415 358.959 237.412 358.108 234.427C357.564 232.519 357.235 230.55 357.121 228.519C357.03 226.449 357.138 224.438 357.447 222.486C357.777 220.495 358.288 218.669 358.979 217.008C359.7 215.338 360.613 213.93 361.717 212.783C362.812 211.605 364.067 210.815 365.482 210.411C367.883 209.726 369.944 209.837 371.667 210.743C373.39 211.649 374.536 213.102 375.107 215.103C375.546 216.641 375.514 218.164 375.013 219.672C374.533 221.14 373.71 222.572 372.545 223.97C371.38 225.367 370.019 226.72 368.462 228.029C366.905 229.339 365.281 230.584 363.588 231.766C363.75 232.917 363.954 233.924 364.2 234.786C364.349 235.309 364.716 235.487 365.301 235.32C366.686 234.925 368.101 234.288 369.548 233.41C371.016 232.492 372.465 231.446 373.894 230.273C375.314 229.069 376.669 227.868 377.957 226.668C379.237 225.438 380.391 224.294 381.42 223.235C382.471 222.136 383.335 221.257 384.012 220.598C384.711 219.9 385.184 219.515 385.43 219.445C386.107 219.252 386.657 219.312 387.078 219.624C387.5 219.936 387.777 220.323 387.909 220.785C387.97 221 387.691 221.596 387.071 222.571C386.481 223.538 385.624 224.731 384.498 226.15C383.394 227.53 382.119 229.009 380.672 230.586C379.247 232.124 377.732 233.637 376.127 235.127C374.544 236.577 372.955 237.829 371.359 238.883C369.802 239.959 368.316 240.699 366.901 241.103ZM363.201 227.434C364.252 226.335 365.279 225.21 366.281 224.059C367.306 222.868 368.089 221.647 368.63 220.394C369.162 219.111 369.231 217.777 368.836 216.392C368.722 215.992 368.54 215.761 368.289 215.7C368.03 215.607 367.7 215.618 367.3 215.732C366.223 216.04 365.374 216.797 364.754 218.006C364.165 219.206 363.746 220.656 363.5 222.357C363.275 224.018 363.175 225.711 363.201 227.434ZM404.138 231.03C403.43 231.231 402.7 231.123 401.949 230.706C401.237 230.31 400.692 229.45 400.315 228.127C400.034 227.142 399.72 225.751 399.374 223.953C399.049 222.115 398.734 219.726 398.427 216.786C397.982 219.308 397.421 221.598 396.743 223.655C396.065 225.712 395.298 227.395 394.44 228.705C393.604 229.975 392.679 230.755 391.663 231.044C390.032 231.509 388.6 231.386 387.365 230.673C386.121 229.93 385.104 228.173 384.314 225.404C383.937 224.081 383.619 222.558 383.36 220.834C383.132 219.102 382.966 217.353 382.861 215.586C382.756 213.819 382.704 212.236 382.705 210.839C382.727 209.401 382.8 208.316 382.924 207.582C383.012 206.958 383.197 206.439 383.478 206.026C383.79 205.604 384.254 205.305 384.87 205.13C385.854 204.849 386.7 204.957 387.408 205.454C388.115 205.951 388.566 206.538 388.759 207.215C388.908 207.738 389 208.527 389.035 209.582C389.1 210.628 389.135 211.8 389.139 213.096C389.173 214.384 389.202 215.707 389.223 217.065C389.244 218.424 389.29 219.692 389.36 220.87C389.46 222.039 389.62 223.008 389.84 223.778C390.112 224.732 390.617 225.103 391.356 224.893C391.787 224.77 392.222 224.196 392.662 223.172C393.133 222.139 393.555 220.821 393.93 219.217C394.326 217.573 394.687 215.806 395.013 213.916C395.361 211.987 395.628 210.064 395.813 208.147C396.021 206.191 396.16 204.405 396.231 202.787C396.275 201.776 396.506 201.011 396.924 200.493C397.342 199.974 397.889 199.619 398.566 199.426C399.613 199.127 400.496 199.191 401.217 199.618C401.968 200.036 402.498 200.783 402.805 201.86C402.945 202.353 403.105 203.205 403.285 204.419C403.465 205.632 403.655 207.058 403.857 208.698C404.089 210.329 404.302 212.065 404.494 213.907C404.687 215.749 404.871 217.56 405.046 219.34C405.252 221.111 405.418 222.744 405.545 224.239C405.663 225.703 405.748 226.876 405.801 227.76C405.844 229.079 405.686 229.922 405.325 230.292C404.964 230.661 404.569 230.907 404.138 231.03ZM414.386 224.861C413.648 225.072 413.039 224.98 412.56 224.584C412.072 224.157 411.75 223.55 411.592 222.764C411.5 222.324 411.662 221.612 412.08 220.628C412.49 219.612 413.059 218.402 413.79 216.995C414.511 215.558 415.318 214.014 416.211 212.361C417.126 210.669 418.068 208.953 419.035 207.213C416.632 205.203 414.784 203.567 413.492 202.305C412.231 201.035 411.447 199.977 411.14 199.133C410.806 198.197 410.74 197.383 410.943 196.693C411.176 195.995 411.724 195.522 412.585 195.277C413.078 195.136 413.651 195.222 414.306 195.534C414.992 195.838 415.925 196.487 417.107 197.481C418.32 198.466 419.955 199.879 422.011 201.722C423.529 198.993 424.776 196.774 425.752 195.064C426.751 193.315 427.56 191.953 428.18 190.977C428.831 189.993 429.348 189.297 429.73 188.888C430.144 188.471 430.52 188.214 430.858 188.117C431.597 187.906 432.195 188.019 432.651 188.454C433.13 188.85 433.453 189.457 433.62 190.274C433.743 190.938 433.582 191.832 433.138 192.957C432.715 194.043 432.119 195.278 431.349 196.662C430.571 198.016 429.713 199.442 428.776 200.94C427.861 202.399 426.973 203.834 426.111 205.245C428.791 207.408 431.252 209.269 433.493 210.825C435.756 212.343 437.599 213.614 439.023 214.639C440.438 215.633 441.249 216.433 441.455 217.04C441.701 217.668 441.677 218.224 441.382 218.708C441.118 219.182 440.632 219.521 439.924 219.722C439.524 219.837 438.992 219.839 438.329 219.728C437.665 219.618 436.718 219.273 435.487 218.692C434.288 218.103 432.688 217.161 430.689 215.868C428.711 214.536 426.193 212.708 423.135 210.386C422.242 212.038 421.349 213.691 420.456 215.343C419.594 216.987 418.767 218.52 417.975 219.944C417.205 221.329 416.502 222.478 415.864 223.392C415.248 224.266 414.756 224.756 414.386 224.861ZM466.914 179.429C465.344 179.876 464.197 180.054 463.472 179.961C462.738 179.838 462.248 179.578 462.002 179.183C461.756 178.787 461.567 178.358 461.435 177.897L461.422 177.851C461.273 177.328 461.383 176.664 461.753 175.86C462.153 175.047 462.907 174.366 464.015 173.817C465.562 172.943 467.284 172.152 469.178 171.445C471.064 170.707 472.926 170.06 474.764 169.502C476.623 168.905 478.261 168.405 479.676 168.001C481.101 167.628 482.244 167.552 483.105 167.772C483.958 167.961 484.582 168.282 484.977 168.735C485.394 169.149 485.656 169.54 485.761 169.909C485.902 170.401 485.871 170.993 485.668 171.683C485.457 172.342 484.72 172.851 483.459 173.211C482.997 173.343 482.36 173.558 481.546 173.857C480.733 174.155 479.836 174.511 478.856 174.924C479.194 176.458 479.534 178.408 479.876 180.772C480.217 183.137 480.458 185.731 480.598 188.553C480.759 191.335 480.745 194.201 480.555 197.151C480.386 200.06 479.943 202.882 479.226 205.616C478.53 208.31 477.496 210.751 476.124 212.94C474.782 215.119 472.999 216.859 470.775 218.159C470.317 218.423 469.913 218.638 469.561 218.805C469.249 218.994 468.847 219.159 468.354 219.299C467.462 219.554 466.671 219.58 465.981 219.377C465.291 219.175 464.764 218.726 464.399 218.032C463.991 217.183 463.857 216.306 463.998 215.401C464.117 214.535 464.614 213.827 465.489 213.278C467.525 211.899 469.16 210.284 470.396 208.434C471.654 206.545 472.545 204.244 473.069 201.532C473.616 198.781 473.801 195.466 473.627 191.59C473.475 187.673 472.976 183.007 472.13 177.591C471.11 177.982 470.147 178.34 469.241 178.665C468.336 178.99 467.56 179.244 466.914 179.429ZM495.945 204.49C494.96 204.771 493.989 204.749 493.031 204.423C492.081 204.128 491.253 203.616 490.546 202.886C489.829 202.125 489.326 201.237 489.037 200.221C488.492 198.314 488.377 196.333 488.69 194.281C489.033 192.219 489.665 190.176 490.585 188.15C491.504 186.124 492.586 184.201 493.831 182.382C495.097 180.523 496.406 178.869 497.756 177.419C499.137 175.96 500.425 174.761 501.621 173.82C502.848 172.871 503.846 172.287 504.615 172.068C505.507 171.813 506.288 171.807 506.956 172.049C507.646 172.251 508.105 172.753 508.333 173.553C508.403 173.799 508.399 174.017 508.32 174.206C508.746 174.184 509.135 174.322 509.486 174.621C509.838 174.92 510.119 175.439 510.33 176.178C510.418 176.485 510.569 177.307 510.784 178.644C510.999 179.98 511.277 181.598 511.619 183.497C511.992 185.387 512.464 187.332 513.034 189.332C513.122 189.64 513.247 189.904 513.41 190.124C513.564 190.313 513.794 190.364 514.102 190.276C515.333 189.925 516.509 189.323 517.63 188.471C518.773 187.579 519.84 186.592 520.829 185.512C521.841 184.391 522.733 183.321 523.507 182.302C524.303 181.243 524.97 180.37 525.506 179.685C526.065 178.96 526.452 178.567 526.667 178.505C527.713 178.207 528.386 178.581 528.684 179.627C528.763 179.904 528.591 180.585 528.169 181.671C527.769 182.717 527.162 183.971 526.348 185.435C525.525 186.867 524.564 188.339 523.465 189.851C522.387 191.323 521.195 192.628 519.889 193.766C518.614 194.895 517.284 195.657 515.9 196.052C514.207 196.535 512.801 196.504 511.68 195.958C510.59 195.404 509.667 194.502 508.912 193.254C508.178 191.966 507.55 190.464 507.028 188.75C506.099 191.444 505.039 193.909 503.847 196.146C502.677 198.343 501.421 200.183 500.08 201.663C498.739 203.144 497.36 204.086 495.945 204.49ZM505.688 176.703C503.085 179.01 500.851 181.444 498.986 184.006C497.113 186.537 495.758 189.02 494.922 191.455C494.116 193.881 493.981 196.032 494.517 197.909C494.666 198.433 494.987 198.624 495.479 198.483C496.064 198.317 496.737 197.759 497.497 196.81C498.289 195.852 499.096 194.656 499.919 193.224C500.732 191.76 501.511 190.174 502.255 188.464C502.989 186.724 503.638 184.975 504.202 183.217C504.765 181.459 505.146 179.82 505.344 178.299C505.419 177.745 505.534 177.213 505.688 176.703ZM548.02 188.985C547.713 189.073 547.124 189.225 546.253 189.44C545.383 189.655 544.339 189.903 543.121 190.183C541.903 190.464 540.64 190.758 539.33 191.065C538.05 191.364 536.837 191.66 535.69 191.954C534.542 192.248 533.615 192.496 532.907 192.698C531.799 193.014 530.779 192.939 529.848 192.473C528.938 191.967 528.303 191.083 527.943 189.821C527.733 189.083 527.856 187.999 528.314 186.571C528.794 185.103 529.484 183.442 530.386 181.587C531.279 179.702 532.276 177.77 533.375 175.793C534.506 173.807 535.647 171.917 536.8 170.124C537.974 168.292 539.021 166.712 539.94 165.385C537.988 166.241 536.126 167.122 534.354 168.026C532.583 168.931 531.044 169.719 529.738 170.391C528.463 171.055 527.58 171.457 527.087 171.597C526.195 171.852 525.417 171.807 524.753 171.464C524.081 171.09 523.622 170.472 523.376 169.611C523.271 169.242 523.546 168.747 524.201 168.128C524.847 167.477 525.779 166.779 526.997 166.032C528.215 165.285 529.611 164.521 531.185 163.739C532.789 162.949 534.478 162.218 536.249 161.546C538.043 160.835 539.832 160.224 541.617 159.715C542.479 159.469 543.263 159.478 543.971 159.742C544.7 159.967 545.311 160.358 545.803 160.917C546.317 161.436 546.667 162.018 546.851 162.665C546.921 162.911 546.728 163.515 546.27 164.477C545.812 165.44 545.192 166.648 544.409 168.103C543.617 169.527 542.733 171.093 541.757 172.803C540.771 174.482 539.795 176.191 538.827 177.931C537.882 179.632 537.011 181.245 536.214 182.77C535.418 184.295 534.793 185.604 534.34 186.699C535.532 186.325 536.872 185.893 538.363 185.401C539.853 184.91 541.297 184.431 542.695 183.966C544.093 183.5 545.311 183.103 546.348 182.774C547.386 182.445 548.043 182.241 548.32 182.162C549.305 181.881 550.078 181.909 550.641 182.248C551.203 182.587 551.572 183.064 551.748 183.679C552.011 184.603 551.82 185.622 551.173 186.738C550.548 187.815 549.497 188.564 548.02 188.985ZM576.026 180.996C575.718 181.084 575.129 181.236 574.258 181.451C573.388 181.666 572.344 181.914 571.126 182.194C569.909 182.475 568.645 182.769 567.335 183.076C566.056 183.375 564.842 183.671 563.695 183.965C562.548 184.259 561.62 184.507 560.912 184.709C559.804 185.025 558.785 184.95 557.853 184.483C556.943 183.978 556.309 183.094 555.949 181.832C555.738 181.094 555.862 180.01 556.319 178.582C556.799 177.114 557.49 175.453 558.392 173.598C559.285 171.713 560.281 169.781 561.381 167.804C562.511 165.817 563.653 163.928 564.805 162.135C565.979 160.302 567.026 158.723 567.945 157.396C565.993 158.252 564.131 159.132 562.36 160.037C560.588 160.942 559.049 161.73 557.743 162.402C556.468 163.066 555.585 163.467 555.092 163.608C554.2 163.862 553.422 163.818 552.758 163.475C552.086 163.101 551.627 162.483 551.381 161.622C551.276 161.252 551.551 160.758 552.206 160.139C552.852 159.488 553.784 158.79 555.002 158.043C556.22 157.296 557.616 156.532 559.19 155.75C560.795 154.96 562.483 154.229 564.255 153.557C566.048 152.845 567.838 152.235 569.622 151.726C570.484 151.48 571.269 151.489 571.976 151.753C572.706 151.978 573.316 152.369 573.809 152.928C574.323 153.447 574.672 154.029 574.856 154.675C574.926 154.922 574.733 155.526 574.275 156.488C573.818 157.451 573.197 158.659 572.414 160.114C571.623 161.538 570.739 163.104 569.762 164.814C568.777 166.493 567.8 168.202 566.832 169.942C565.887 171.643 565.016 173.256 564.22 174.781C563.423 176.306 562.799 177.615 562.345 178.709C563.537 178.336 564.878 177.904 566.368 177.412C567.858 176.921 569.302 176.442 570.7 175.977C572.098 175.511 573.316 175.114 574.353 174.785C575.391 174.456 576.048 174.251 576.325 174.172C577.31 173.891 578.083 173.92 578.646 174.259C579.208 174.598 579.577 175.075 579.753 175.69C580.016 176.613 579.825 177.633 579.178 178.749C578.554 179.826 577.503 180.575 576.026 180.996Z" fill="#7758CA"/>
</svg>
