<svg width="874" height="174" viewBox="0 0 874 174" fill="none" xmlns="http://www.w3.org/2000/svg">
<path d="M63.6873 51.6895C62.4417 51.6124 61.5522 51.2207 61.0188 50.5144C60.4834 49.8401 60.276 48.5288 60.3965 46.5805C60.4993 44.9197 60.9042 42.7806 61.6112 40.1632C62.3181 37.5459 63.1019 34.7249 63.9623 31.7003C60.172 35.4414 55.9277 37.7116 51.2294 38.5109C50.1846 40.37 48.99 42.0594 47.6455 43.5793C46.3011 45.0992 44.8637 46.3087 43.3332 47.2079C41.8367 48.0771 40.3059 48.4633 38.7409 48.3665C36.7926 48.246 35.1554 47.5034 33.8291 46.1389C32.5348 44.7764 31.9696 42.7697 32.1336 40.1187C32.2443 38.3301 32.6097 36.8298 33.2297 35.6178C33.8517 34.3739 34.5338 33.4542 35.276 32.8589C34.7762 31.6097 34.5747 30.2026 34.6715 28.6375C34.8019 26.5296 35.4925 24.6967 36.743 23.139C37.9936 21.5812 39.5898 20.3976 41.5315 19.5879C43.5051 18.7803 45.6098 18.4456 47.8455 18.5839C49.0912 18.661 50.2531 19.0535 51.3315 19.7615C52.4437 20.4394 53.3117 21.439 53.9353 22.76C54.5928 24.0511 54.8623 25.6548 54.7437 27.5711C54.6449 29.168 54.2967 30.9099 53.699 32.7966C56.0497 31.5954 58.399 29.8973 60.7471 27.7021C63.1271 25.5089 65.2853 23.0134 67.2218 20.2157C67.8181 19.3869 68.6113 19.0032 69.6014 19.0644C70.4318 19.1158 71.0707 19.4118 71.5182 19.9525C71.9996 20.4632 72.2156 21.1178 72.1662 21.9163C72.1563 22.0759 72.0279 22.597 71.7809 23.4794C71.5339 24.3619 71.2063 25.5118 70.798 26.9293C70.3916 28.3149 69.9445 29.8422 69.4564 31.5112C69.0004 33.1822 68.5423 34.8852 68.0823 36.6201C67.6223 38.355 67.2001 39.9961 66.8159 41.5433C67.7392 40.0936 68.7323 38.5519 69.7952 36.9185C70.892 35.255 72.0188 33.6255 73.1755 32.0299C74.3342 30.4023 75.4671 28.9335 76.5741 27.6234C77.6812 26.3132 78.6905 25.2856 79.6023 24.5405C80.516 23.7634 81.2763 23.3937 81.8832 23.4312C83.0968 23.5063 84.0971 23.9209 84.8841 24.6749C85.671 25.429 86.0418 26.1733 85.9963 26.9079C85.9509 27.6425 85.8009 28.7714 85.5463 30.2946C85.2917 31.8177 84.9774 33.5296 84.6033 35.4301C84.2632 37.3007 83.9061 39.1862 83.532 41.0868C83.1579 42.9873 82.8426 44.7151 82.586 46.2702C82.3315 47.7934 82.1805 48.9383 82.1331 49.7048C82.0936 50.3436 81.7526 50.9317 81.1102 51.469C80.4678 52.0064 79.7633 52.2513 78.9968 52.2039C78.9329 52.1999 78.8211 52.193 78.6614 52.1831C78.2762 52.1914 77.9288 52.1058 77.6193 51.9263C77.3078 51.7788 77.0659 51.2829 76.8938 50.4387C76.7535 49.5964 76.7446 48.1851 76.8672 46.2049C76.9502 44.8635 77.1049 43.3983 77.3315 41.8092C77.5581 40.2202 77.8166 38.6331 78.107 37.048C78.4314 35.433 78.7648 33.9307 79.1073 32.5412C78.1919 33.8632 77.1688 35.3709 76.0381 37.0643C74.9413 38.7277 73.7936 40.4361 72.595 42.1894C71.3984 43.9108 70.2257 45.5054 69.0768 46.9733C67.9619 48.4112 66.9287 49.5656 65.9771 50.4365C65.0574 51.3093 64.2941 51.727 63.6873 51.6895ZM46.6638 34.5735C47.1561 33.3535 47.5715 32.0808 47.91 30.7551C48.2505 29.3976 48.4613 28.0641 48.5423 26.7546C48.5759 26.2116 48.4967 25.6777 48.3047 25.1528C48.1128 24.628 47.7453 24.3488 47.2024 24.3152C46.1165 24.248 45.0327 24.4053 43.951 24.7873C42.9013 25.1712 42.0154 25.7576 41.2933 26.5465C40.5712 27.3354 40.1746 28.3048 40.1034 29.4546C40.0402 30.4766 40.3222 31.3597 40.9494 32.1039C41.6086 32.85 42.4384 33.4303 43.4387 33.8449C44.4709 34.2615 45.4981 34.5013 46.5201 34.5646C46.552 34.5666 46.6 34.5695 46.6638 34.5735ZM44.4387 38.6679C43.3228 38.5668 42.2458 38.3559 41.2076 38.0351C40.1714 37.6825 39.238 37.2239 38.4072 36.6596C38.2798 37.1647 38.1534 37.6538 38.0279 38.1269C37.9044 38.5682 37.8298 38.9964 37.8041 39.4116C37.7607 40.1142 37.8329 40.7599 38.0209 41.3487C38.2428 41.9074 38.7371 42.2105 39.5036 42.258C40.3021 42.3074 41.1223 42.0054 41.9642 41.3522C42.8381 40.7009 43.6629 39.8061 44.4387 38.6679ZM101.346 53.9715C98.4717 53.7936 96.2584 52.775 94.7063 50.9156C93.1881 49.0262 92.5307 46.4367 92.7343 43.147C92.845 41.3584 93.2139 39.2812 93.8412 36.9155C94.4705 34.5177 95.2514 32.0012 96.184 29.3657C97.1504 26.7003 98.1628 24.0698 99.2211 21.4742C100.311 18.8806 101.374 16.4776 102.408 14.2653C103.443 12.053 104.343 10.201 105.109 8.70945C105.757 7.56329 106.608 7.02281 107.662 7.08802C108.332 7.12952 108.862 7.37072 109.252 7.81162C109.673 8.25449 109.856 8.93904 109.798 9.86527C109.771 10.3124 109.487 11.2727 108.947 12.7462C108.407 14.2196 107.701 16.0355 106.83 18.1939C105.993 20.3222 105.081 22.6223 104.095 25.0941C103.14 27.5679 102.217 30.0596 101.324 32.5693C100.463 35.0809 99.7391 37.4567 99.1516 39.6967C98.5661 41.9048 98.225 43.7913 98.1282 45.3563C98.0886 45.9951 98.2327 46.517 98.5603 46.922C98.9198 47.329 99.403 47.5512 100.01 47.5888C101.319 47.6698 102.676 47.5133 104.079 47.1192C105.514 46.727 106.925 46.2052 108.311 45.5536C109.73 44.904 111.072 44.2015 112.337 43.4462C113.602 42.6909 114.737 41.9755 115.74 41.3002C116.778 40.595 117.614 40.0375 118.248 39.6279C119.084 39.0705 119.646 38.8007 119.934 38.8185C121.019 38.8857 121.53 39.4462 121.465 40.5002C121.449 40.7557 121.097 41.263 120.409 42.0219C119.822 42.691 119 43.5378 117.943 44.5625C116.886 45.5872 115.665 46.6658 114.28 47.7985C112.929 48.9012 111.487 49.934 109.953 50.8971C108.45 51.8622 106.959 52.6356 105.481 53.2174C104.002 53.7992 102.624 54.0505 101.346 53.9715ZM119.513 53.4123C118.619 53.357 117.839 53.0042 117.174 52.3539C116.541 51.7055 116.267 50.6947 116.352 49.3213C116.397 48.5867 116.557 47.5546 116.832 46.225C117.138 44.8974 117.516 43.462 117.964 41.9187C118.414 40.3435 118.895 38.7863 119.407 37.2469C119.951 35.7096 120.468 34.3469 120.958 33.159C121.451 31.939 121.875 31.0355 122.232 30.4484C122.693 29.7395 123.104 29.3161 123.465 29.1782C123.86 29.0102 124.233 28.9371 124.585 28.9589C125.224 28.9984 125.803 29.2266 126.322 29.6435C126.873 30.0623 127.108 30.9265 127.027 32.236C126.995 32.747 126.848 33.5715 126.585 34.7094C126.325 35.8154 126.004 37.1101 125.624 38.5934C125.243 40.0768 124.828 41.6061 124.378 43.1813C123.96 44.7585 123.547 46.2558 123.138 47.6733C122.764 49.0608 122.451 50.2277 122.2 51.174C121.991 51.9626 121.619 52.5327 121.085 52.8844C120.58 53.27 120.056 53.4459 119.513 53.4123ZM126.843 24.3375C125.789 24.2723 124.833 23.9086 123.976 23.2464C123.122 22.5523 122.735 21.5505 122.816 20.241C122.883 19.1551 123.209 18.2936 123.793 17.6564C124.378 17.0193 125.046 16.5797 125.799 16.3377C126.585 16.0658 127.265 15.9476 127.84 15.9832C128.415 16.0187 129.046 16.186 129.733 16.485C130.422 16.7521 131.002 17.2208 131.473 17.8912C131.979 18.5316 132.196 19.4267 132.125 20.5765C132.077 21.3431 131.762 22.0289 131.18 22.6341C130.599 23.2074 129.899 23.6449 129.079 23.9469C128.291 24.2508 127.545 24.381 126.843 24.3375ZM135.528 53.6819C134.762 53.6345 134.011 53.3315 133.276 52.7731C132.575 52.1847 132.016 51.3806 131.598 50.3608C131.182 49.3091 131.018 48.0647 131.107 46.6274C131.226 44.7111 131.608 42.6828 132.253 40.5426C132.931 38.4043 133.72 36.273 134.621 34.1486C135.522 32.0242 136.399 30.0265 137.252 28.1556C137.66 27.2511 138.13 26.655 138.661 26.3672C139.194 26.0475 139.875 25.9134 140.706 25.9647C142.59 26.0813 143.474 27.0818 143.357 28.9662C143.338 29.2856 143.155 29.8995 142.811 30.808C142.468 31.6845 142.016 32.7627 141.456 34.0425C140.928 35.3243 140.361 36.716 139.755 38.2174C139.183 39.6889 138.641 41.1943 138.129 42.7336C137.651 44.243 137.258 45.6774 136.949 47.037C137.753 45.9646 138.653 44.6256 139.65 43.0201C140.681 41.3847 141.765 39.6723 142.902 37.8831C144.07 36.0959 145.231 34.4364 146.384 32.9047C147.539 31.341 148.659 30.0797 149.744 29.1209C150.829 28.1621 151.835 27.7114 152.761 27.7687C153.56 27.8181 154.3 28.0242 154.983 28.3871C155.7 28.72 156.303 29.3344 156.793 30.2304C157.285 31.0944 157.626 32.3178 157.816 33.9006C158.039 35.4853 158.071 37.5553 157.913 40.1104C157.834 41.388 157.869 42.6405 158.017 43.868C158.2 45.0656 158.553 46.0814 159.079 46.9154C159.606 47.7175 160.397 48.1512 161.451 48.2164C163.272 48.329 164.921 48.0945 166.4 47.5127C167.879 46.9309 169.189 46.2264 170.33 45.3993C171.471 44.5722 172.43 43.8461 173.206 43.2208C173.681 42.8013 174.086 42.4737 174.421 42.2379C174.788 42.0042 175.084 41.8942 175.307 41.908C175.978 41.9495 176.446 42.1548 176.712 42.524C177.009 42.895 177.14 43.384 177.102 43.9909C177.082 44.3102 176.774 44.8843 176.178 45.7131C175.582 46.5418 174.754 47.4845 173.694 48.5411C172.669 49.5677 171.502 50.5535 170.193 51.4985C168.884 52.4435 167.49 53.2069 166.012 53.7887C164.533 54.3704 163.043 54.6149 161.542 54.522C159.019 54.3659 156.954 53.7893 155.349 52.7923C153.777 51.7652 152.659 50.1571 151.992 47.9678C151.328 45.7465 151.112 42.7675 151.343 39.0306C151.349 38.9348 151.359 38.7751 151.373 38.5515C151.434 37.5614 151.472 36.6821 151.488 35.9136C151.535 35.1471 151.526 34.5213 151.46 34.0363C150.856 34.9928 150.128 36.134 149.276 37.46C148.457 38.7879 147.567 40.2077 146.608 41.7193C145.651 43.199 144.663 44.6608 143.644 46.1046C142.626 47.5165 141.617 48.8006 140.616 49.957C139.646 51.1153 138.724 52.0361 137.848 52.7193C136.972 53.4025 136.199 53.7234 135.528 53.6819ZM177.301 57.9017C175.321 57.7792 173.766 56.9937 172.637 55.5452C171.511 54.0648 171.043 51.7755 171.235 48.6775C171.357 46.6973 171.703 44.7309 172.273 42.7783C172.877 40.7958 173.649 38.936 174.59 37.1988C175.565 35.4316 176.655 33.88 177.86 32.5438C179.097 31.2096 180.426 30.1858 181.849 29.4723C183.274 28.7269 184.721 28.3996 186.19 28.4905C188.681 28.6447 190.588 29.4359 191.91 30.8643C193.233 32.2927 193.83 34.0449 193.701 36.1209C193.602 37.7179 193.065 39.1434 192.09 40.3976C191.149 41.6218 189.896 42.6985 188.331 43.6276C186.767 44.5568 185.033 45.3793 183.129 46.0951C181.225 46.8109 179.278 47.4439 177.289 47.994C177.058 49.1339 176.915 50.151 176.859 51.0453C176.826 51.5883 177.112 51.8786 177.719 51.9161C179.156 52.005 180.703 51.8763 182.36 51.53C184.05 51.1536 185.765 50.6505 187.503 50.0207C189.243 49.3589 190.92 48.6772 192.535 47.9755C194.151 47.242 195.621 46.5474 196.944 45.8919C198.301 45.2063 199.408 44.6657 200.266 44.2699C201.158 43.8442 201.732 43.6393 201.988 43.6551C202.69 43.6985 203.189 43.9378 203.482 44.3727C203.776 44.8077 203.908 45.2647 203.878 45.7438C203.865 45.9674 203.403 46.4358 202.493 47.1489C201.615 47.8641 200.409 48.7032 198.875 49.6663C197.374 50.5994 195.679 51.5686 193.789 52.5738C191.934 53.549 190.001 54.4714 187.991 55.341C186.016 56.1806 184.1 56.8315 182.244 57.2938C180.418 57.79 178.77 57.9926 177.301 57.9017ZM178.367 43.7806C179.724 43.0951 181.067 42.3766 182.396 41.6253C183.759 40.8439 184.904 39.953 185.831 38.9523C186.761 37.9198 187.27 36.6849 187.359 35.2476C187.385 34.8324 187.29 34.554 187.074 34.4124C186.86 34.2389 186.546 34.1393 186.131 34.1136C185.013 34.0444 183.96 34.4762 182.973 35.409C182.017 36.3438 181.14 37.5719 180.34 39.0935C179.575 40.585 178.917 42.1474 178.367 43.7806ZM222.613 60.8977C221.591 60.8345 220.682 60.4897 219.888 59.8634C219.091 59.2691 218.48 58.51 218.057 57.586C217.635 56.6302 217.457 55.6252 217.522 54.5712C217.644 52.591 218.195 50.6854 219.174 48.8544C220.185 47.0253 221.461 45.3088 223.003 43.705C224.545 42.1012 226.206 40.649 227.986 39.3484C229.8 38.0179 231.584 36.8939 233.34 35.9766C235.128 35.0613 236.743 34.3597 238.184 33.8717C239.656 33.3858 240.792 33.1675 241.591 33.2169C242.517 33.2742 243.255 33.5282 243.804 33.979C244.387 34.3998 244.653 35.0254 244.601 35.8558C244.586 36.1114 244.509 36.315 244.371 36.4668C244.78 36.5883 245.101 36.8486 245.333 37.2477C245.565 37.6468 245.657 38.2296 245.609 38.9961C245.59 39.3155 245.458 40.141 245.216 41.4725C244.973 42.8041 244.696 44.4221 244.386 46.3266C244.108 48.233 243.905 50.2243 243.776 52.3003C243.756 52.6197 243.787 52.9101 243.867 53.1715C243.949 53.401 244.149 53.5257 244.469 53.5454C245.746 53.6245 247.056 53.449 248.397 53.019C249.772 52.559 251.106 51.9843 252.399 51.2949C253.726 50.5754 254.924 49.8641 255.993 49.1608C257.097 48.4275 258.016 47.8271 258.75 47.3596C259.518 46.8621 260.014 46.6202 260.238 46.6341C261.323 46.7013 261.833 47.2778 261.766 48.3637C261.748 48.6512 261.359 49.2363 260.599 50.119C259.873 50.9718 258.883 51.9525 257.628 53.0612C256.375 54.1378 254.978 55.2056 253.438 56.2645C251.931 57.2934 250.373 58.1268 248.763 58.7646C247.184 59.4043 245.676 59.6797 244.239 59.5908C242.482 59.4821 241.166 58.9839 240.292 58.0961C239.449 57.2104 238.879 56.053 238.583 54.624C238.32 53.165 238.229 51.5402 238.307 49.7497C236.534 51.9804 234.713 53.9517 232.844 55.6635C231.008 57.3454 229.212 58.661 227.454 59.6102C225.696 60.5595 224.082 60.9886 222.613 60.8977ZM241.058 37.945C237.835 39.2524 234.917 40.8032 232.306 42.5974C229.696 44.3596 227.591 46.2492 225.991 48.2663C224.424 50.2853 223.58 52.2689 223.459 54.2172C223.425 54.7602 223.664 55.0475 224.175 55.0791C224.782 55.1166 225.602 54.8147 226.636 54.1733C227.701 53.5339 228.861 52.6759 230.113 51.5992C231.368 50.4906 232.631 49.2542 233.902 47.89C235.174 46.494 236.369 45.061 237.486 43.5912C238.603 42.1214 239.508 40.7026 240.202 39.3348C240.457 38.8376 240.742 38.3743 241.058 37.945ZM259.96 63.8338C258.587 63.7488 257.625 63.4969 257.074 63.0781C256.554 62.6612 256.317 62.0855 256.363 61.3509C256.402 60.7121 256.66 60.183 257.134 59.7635C257.611 59.3121 258.631 58.8942 260.194 58.51C262.016 58.0777 263.747 57.5597 265.388 56.9558C267.062 56.322 268.437 55.6055 269.512 54.8064C270.62 54.0093 271.203 53.1316 271.262 52.1735C271.302 51.5347 271.107 51.0577 270.677 50.7426C270.28 50.4295 269.794 50.2551 269.219 50.2196C268.74 50.1899 268.032 50.2263 267.096 50.3287C266.194 50.4011 265.193 50.5155 264.093 50.6719C262.995 50.7963 261.931 50.9068 260.899 51.0032C259.901 51.0697 259.05 51.0812 258.348 51.0377C256.687 50.935 255.48 50.4916 254.727 49.7076C253.976 48.8917 253.637 47.8928 253.71 46.7111C253.749 46.0723 254.139 45.2147 254.879 44.1384C255.619 43.062 256.589 41.8877 257.79 40.6154C258.991 39.3432 260.32 38.0788 261.776 36.8223C263.232 35.5659 264.698 34.4222 266.172 33.3913C267.681 32.3304 269.094 31.5041 270.414 30.9125C271.735 30.2889 272.842 30.0047 273.736 30.0601C274.759 30.1233 275.553 30.4931 276.121 31.1694C276.72 31.8477 276.986 32.7298 276.919 33.8158C276.887 34.3268 276.805 34.8827 276.671 35.4837C276.54 36.0526 276.268 36.5648 275.855 37.0202C275.444 37.4436 274.833 37.7264 274.023 37.8687C273.212 38.0109 272.129 37.9118 270.771 37.5713C269.636 38.3025 268.447 39.1107 267.206 39.9958C265.999 40.8508 264.853 41.7578 263.768 42.7166C262.685 43.6435 261.778 44.5652 261.048 45.4819C262.253 45.1718 263.614 44.9513 265.129 44.8206C266.645 44.658 268.17 44.6241 269.704 44.719C271.556 44.8336 273.036 45.2618 274.145 46.0037C275.287 46.7156 276.096 47.6313 276.572 48.7508C277.079 49.8723 277.293 51.0878 277.212 52.3973C277.121 53.8665 276.551 55.3061 275.502 56.716C274.453 58.1259 273.092 59.3883 271.42 60.5031C269.748 61.618 267.915 62.4824 265.921 63.0965C263.928 63.7105 261.941 63.9563 259.96 63.8338ZM308.107 64.7449C307.277 64.6935 306.695 64.2567 306.361 63.4345C306.027 62.6123 305.923 61.1792 306.05 59.1351C306.227 56.2606 306.591 53.2373 307.14 50.0651C307.723 46.863 308.433 43.4123 309.271 39.713C309.998 36.7763 311.433 34.5727 313.576 33.1022C315.751 31.6337 318.61 30.4961 322.155 29.6895C324.366 29.1851 326.654 28.7336 329.02 28.3349C331.385 27.9362 333.599 27.6404 335.663 27.4474C337.761 27.2246 339.48 27.1546 340.822 27.2376C341.844 27.3009 342.632 27.51 343.188 27.8649C343.743 28.2199 344.117 28.6438 344.311 29.1368C344.539 29.5997 344.641 30.0228 344.617 30.4061C344.58 31.0129 344.403 31.547 344.085 32.0083C343.768 32.4696 343.123 32.7984 342.149 32.9946C341.726 33.0966 340.834 33.2659 339.472 33.5023C338.145 33.7087 336.51 33.9602 334.568 34.2568C332.658 34.5555 330.635 34.8791 328.497 35.2277C326.361 35.5445 324.289 35.8811 322.279 36.2377C320.295 36.692 318.814 37.3057 317.836 38.0788C316.893 38.822 316.23 39.9512 315.847 41.4665C315.764 41.7819 315.672 42.2251 315.573 42.796C316.908 42.4619 318.334 42.2135 319.851 42.0508C321.368 41.8882 322.769 41.7825 324.055 41.7338C325.34 41.6851 326.286 41.6795 326.893 41.7171C327.532 41.7566 328.196 41.9099 328.884 42.1769C329.607 42.414 330.211 42.756 330.697 43.2028C331.216 43.6197 331.457 44.1315 331.419 44.7384C331.384 45.3133 331.127 45.8264 330.651 46.2778C330.176 46.6973 329.239 47.0722 327.84 47.4024C327.546 47.4804 326.884 47.5677 325.852 47.6641C324.852 47.7626 323.657 47.897 322.268 48.0676C320.913 48.2082 319.524 48.3787 318.101 48.5792C316.709 48.7817 315.477 49.01 314.403 49.2642C314.073 50.975 313.759 52.6869 313.46 54.3997C313.162 56.1126 312.909 57.6038 312.702 58.8735C312.498 60.1112 312.353 60.8878 312.27 61.2032C312.005 62.3731 311.485 63.2707 310.708 63.8959C309.932 64.5212 309.065 64.8042 308.107 64.7449ZM336.027 67.9151C335.005 67.8519 334.096 67.5071 333.301 66.8809C332.504 66.2865 331.894 65.5274 331.47 64.6035C331.049 63.6476 330.87 62.6427 330.936 61.5887C331.058 59.6085 331.609 57.7028 332.588 55.8718C333.599 54.0427 334.875 52.3263 336.417 50.7224C337.959 49.1186 339.62 47.6664 341.4 46.3658C343.213 45.0353 344.998 43.9114 346.754 42.9941C348.542 42.0787 350.156 41.3771 351.597 40.8892C353.07 40.4032 354.206 40.1849 355.004 40.2343C355.931 40.2916 356.668 40.5457 357.217 40.9964C357.801 41.4173 358.066 42.0429 358.015 42.8733C357.999 43.1288 357.923 43.3324 357.785 43.4842C358.194 43.6057 358.515 43.866 358.747 44.2651C358.978 44.6642 359.07 45.247 359.023 46.0135C359.003 46.3329 358.872 47.1584 358.629 48.4899C358.387 49.8215 358.11 51.4395 357.8 53.344C357.522 55.2504 357.318 57.2417 357.19 59.3177C357.17 59.6371 357.2 59.9275 357.28 60.189C357.362 60.4185 357.563 60.5431 357.882 60.5628C359.16 60.6419 360.469 60.4664 361.81 60.0364C363.185 59.5765 364.519 59.0018 365.812 58.3123C367.139 57.5929 368.338 56.8815 369.407 56.1782C370.511 55.4449 371.429 54.8445 372.164 54.377C372.932 53.8795 373.428 53.6377 373.651 53.6515C374.737 53.7187 375.247 54.2952 375.179 55.3812C375.162 55.6686 374.773 56.2537 374.013 57.1365C373.287 57.9893 372.296 58.97 371.041 60.0786C369.789 61.1553 368.392 62.223 366.852 63.2819C365.345 64.3109 363.787 65.1442 362.176 65.782C360.598 66.4217 359.09 66.6971 357.653 66.6082C355.896 66.4995 354.58 66.0013 353.705 65.1136C352.862 64.2278 352.293 63.0704 351.997 61.6414C351.734 60.1824 351.642 58.5577 351.721 56.7671C349.948 58.9979 348.127 60.9691 346.257 62.681C344.422 64.3628 342.625 65.6784 340.867 66.6276C339.109 67.5769 337.496 68.0061 336.027 67.9151ZM354.471 44.9624C351.248 46.2699 348.331 47.8207 345.719 49.6148C343.109 51.377 341.005 53.2666 339.405 55.2837C337.837 57.3027 336.993 59.2864 336.873 61.2347C336.839 61.7776 337.078 62.0649 337.589 62.0965C338.196 62.1341 339.016 61.8321 340.05 61.1908C341.115 60.5513 342.274 59.6933 343.527 58.6166C344.782 57.508 346.045 56.2716 347.315 54.9075C348.588 53.5114 349.783 52.0785 350.9 50.6086C352.017 49.1388 352.922 47.72 353.616 46.3522C353.871 45.855 354.156 45.3918 354.471 44.9624ZM378.588 71.1257C375.713 70.9479 373.5 69.9292 371.948 68.0698C370.43 66.1805 369.772 63.5909 369.976 60.3012C370.087 58.5126 370.456 56.4354 371.083 54.0697C371.712 51.672 372.493 49.1554 373.426 46.5199C374.392 43.8545 375.404 41.224 376.463 38.6284C377.553 36.0348 378.615 33.6318 379.65 31.4195C380.685 29.2072 381.585 27.3552 382.35 25.8637C382.998 24.7175 383.849 24.177 384.903 24.2422C385.574 24.2837 386.104 24.5249 386.494 24.9658C386.915 25.4087 387.097 26.0933 387.04 27.0195C387.012 27.4666 386.728 28.4269 386.188 29.9004C385.648 31.3739 384.943 33.1898 384.072 35.3481C383.235 37.4765 382.323 39.7765 381.337 42.2483C380.382 44.7221 379.458 47.2138 378.566 49.7235C377.705 52.2351 376.981 54.6109 376.393 56.8509C375.808 59.059 375.467 60.9455 375.37 62.5105C375.33 63.1493 375.474 63.6712 375.802 64.0762C376.162 64.4832 376.645 64.7055 377.252 64.743C378.561 64.824 379.917 64.6675 381.32 64.2734C382.755 63.8812 384.166 63.3594 385.553 62.7078C386.972 62.0582 388.314 61.3557 389.579 60.6004C390.844 59.8451 391.978 59.1298 392.982 58.4544C394.019 57.7492 394.856 57.1917 395.49 56.7821C396.326 56.2247 396.888 55.9549 397.175 55.9727C398.261 56.0399 398.771 56.6005 398.706 57.6544C398.69 57.9099 398.338 58.4172 397.65 59.1761C397.064 59.8452 396.242 60.692 395.185 61.7167C394.127 62.7414 392.906 63.82 391.522 64.9527C390.171 66.0554 388.729 67.0883 387.194 68.0513C385.692 69.0164 384.201 69.7898 382.722 70.3716C381.244 70.9534 379.865 71.2048 378.588 71.1257ZM395.845 71.6164C394.823 71.5531 393.914 71.2084 393.119 70.5821C392.323 69.9877 391.712 69.2286 391.289 68.3047C390.867 67.3488 390.688 66.3439 390.754 65.2899C390.876 63.3097 391.427 61.404 392.406 59.573C393.417 57.7439 394.693 56.0275 396.235 54.4237C397.777 52.8198 399.438 51.3676 401.218 50.0671C403.031 48.7365 404.816 47.6126 406.572 46.6953C408.36 45.78 409.975 45.0783 411.415 44.5904C412.888 44.1044 414.024 43.8861 414.822 43.9355C415.749 43.9928 416.486 44.2469 417.036 44.6977C417.619 45.1185 417.885 45.7441 417.833 46.5745C417.817 46.83 417.741 47.0337 417.603 47.1854C418.012 47.307 418.333 47.5672 418.565 47.9663C418.796 48.3654 418.889 48.9482 418.841 49.7147C418.821 50.0341 418.69 50.8596 418.447 52.1912C418.205 53.5227 417.928 55.1407 417.618 57.0452C417.34 58.9517 417.137 60.9429 417.008 63.0189C416.988 63.3383 417.018 63.6287 417.098 63.8902C417.18 64.1197 417.381 64.2443 417.7 64.2641C418.978 64.3431 420.287 64.1676 421.628 63.7376C423.004 63.2777 424.338 62.703 425.631 62.0135C426.958 61.2941 428.156 60.5827 429.225 59.8794C430.329 59.1462 431.247 58.5458 431.982 58.0782C432.75 57.5807 433.246 57.3389 433.469 57.3527C434.555 57.4199 435.065 57.9965 434.997 59.0824C434.98 59.3698 434.591 59.9549 433.831 60.8377C433.105 61.6905 432.114 62.6712 430.86 63.7798C429.607 64.8565 428.21 65.9243 426.67 66.9832C425.163 68.0121 423.605 68.8454 421.994 69.4832C420.416 70.1229 418.908 70.3983 417.471 70.3094C415.714 70.2007 414.398 69.7025 413.523 68.8148C412.681 67.9291 412.111 66.7717 411.815 65.3426C411.552 63.8836 411.46 62.2589 411.539 60.4683C409.766 62.6991 407.945 64.6704 406.075 66.3822C404.24 68.0641 402.443 69.3796 400.685 70.3289C398.927 71.2781 397.314 71.7073 395.845 71.6164ZM414.289 48.6636C411.066 49.9711 408.149 51.5219 405.537 53.316C402.928 55.0782 400.823 56.9678 399.223 58.9849C397.656 61.0039 396.811 62.9876 396.691 64.9359C396.657 65.4788 396.896 65.7661 397.407 65.7977C398.014 65.8353 398.834 65.5334 399.868 64.892C400.933 64.2526 402.092 63.3945 403.345 62.3178C404.6 61.2092 405.863 59.9728 407.134 58.6087C408.406 57.2126 409.601 55.7797 410.718 54.3098C411.835 52.84 412.74 51.4212 413.434 50.0535C413.689 49.5563 413.974 49.093 414.289 48.6636ZM465.68 52.3724C466.402 54.1804 467.118 56.0843 467.827 58.0839C468.537 60.0836 469.106 62.0264 469.535 63.9125C469.997 65.7686 470.183 67.4312 470.092 68.9004C469.985 70.6251 469.449 72.0347 468.484 73.1292C467.552 74.1937 466.38 75.0028 464.967 75.5566C463.552 76.1424 462.07 76.5156 460.521 76.6762C458.972 76.8369 457.543 76.8767 456.234 76.7957C455.276 76.7364 454.49 76.4794 453.877 76.0246C453.294 75.6038 453.03 74.9463 453.085 74.052C453.133 73.2855 453.438 72.7593 454 72.4735C454.565 72.1558 455.267 71.9587 456.105 71.8823C456.75 71.826 457.524 71.7457 458.428 71.6414C459.364 71.539 460.289 71.3557 461.203 71.0917C462.118 70.8276 462.877 70.4739 463.481 70.0303C464.12 69.5569 464.463 68.9369 464.51 68.1703C464.613 66.5095 464.35 64.794 463.723 63.0239C463.097 61.2218 462.425 59.3848 461.707 57.5129C460.006 59.6198 458.05 61.695 455.839 63.7384C453.663 65.7518 451.386 67.5667 449.01 69.183C446.668 70.7694 444.363 72.0054 442.096 72.8911C439.859 73.8107 437.846 74.2152 436.057 74.1045C433.502 73.9464 431.447 72.9696 429.891 71.1741C428.366 69.3805 427.714 66.7111 427.933 63.1659C428.06 61.1218 428.425 59.1085 429.029 57.126C429.634 55.1116 430.34 53.2957 431.145 51.6783C431.982 50.063 432.815 48.7839 433.643 47.8413C434.471 46.8986 435.188 46.446 435.795 46.4836C436.433 46.5231 436.981 46.7493 437.436 47.1622C437.923 47.5771 438.138 48.2477 438.081 49.1739C438.057 49.5572 437.853 50.2659 437.468 51.3001C437.116 52.3363 436.687 53.5602 436.183 54.9718C435.711 56.3853 435.267 57.8647 434.851 59.4099C434.466 60.9572 434.233 62.4015 434.15 63.7429C434.065 65.1163 434.222 66.2001 434.622 66.9943C435.053 67.7905 435.748 68.2182 436.707 68.2775C437.984 68.3565 439.461 68.0632 441.137 67.3974C442.814 66.7317 444.554 65.8134 446.357 64.6425C448.193 63.4737 449.974 62.1571 451.7 60.6929C453.457 59.2307 455.042 57.7096 456.454 56.1298C457.899 54.552 459.049 53.0522 459.907 51.6305C459.759 50.916 459.642 50.2034 459.558 49.4929C459.506 48.7843 459.502 48.0627 459.548 47.3281C459.657 45.5714 460.081 44.1549 460.821 43.0786C461.563 41.9703 462.716 41.4646 464.281 41.5614C465.686 41.6483 466.712 42.1767 467.357 43.1464C468.002 44.1161 468.279 45.3515 468.186 46.8526C468.134 47.683 467.871 48.5645 467.397 49.497C466.956 50.3995 466.384 51.358 465.68 52.3724ZM437.801 42.039C436.555 41.9619 435.617 41.5832 434.986 40.903C434.387 40.2247 434.121 39.3425 434.188 38.2566C434.263 37.0429 434.754 36.0955 435.662 35.4142C436.572 34.7011 437.586 34.3791 438.704 34.4482C439.949 34.5253 440.918 34.9219 441.612 35.6381C442.305 36.3543 442.613 37.3352 442.536 38.5808C442.502 39.1237 442.259 39.6858 441.806 40.2669C441.387 40.8181 440.831 41.2646 440.136 41.6064C439.442 41.9481 438.663 42.0923 437.801 42.039ZM499.477 76.3934C497.464 76.2689 496.033 75.5712 495.182 74.3002C494.364 72.9992 494.015 71.3906 494.134 69.4743C494.246 67.6537 494.754 65.9218 495.658 64.2784C496.563 62.6031 497.734 61.0245 499.173 59.5425C500.611 58.0605 502.202 56.7001 503.946 55.4615C505.692 54.1909 507.445 53.065 509.204 52.0838C510.998 51.0726 512.701 50.2322 514.314 49.5625C515.928 48.8609 517.323 48.338 518.499 47.994C519.674 47.6499 520.518 47.4937 521.029 47.5253C521.572 47.5589 522.01 47.7303 522.343 48.0395C522.711 48.3187 522.871 48.8416 522.823 49.6081C522.774 50.4066 522.41 51.1054 521.732 51.7047C521.053 52.304 520.237 52.7985 519.283 53.1883C517.934 53.7461 516.401 54.4367 514.683 55.2602C512.999 56.0537 511.29 56.9739 509.558 58.021C507.827 59.068 506.217 60.2028 504.731 61.4253C503.277 62.6499 502.074 63.9541 501.123 65.338C500.173 66.6899 499.653 68.1005 499.562 69.5697C499.542 69.8891 499.59 70.1485 499.706 70.3481C499.822 70.5476 500.088 70.6602 500.503 70.6859C501.046 70.7195 501.78 70.5085 502.706 70.0528C503.634 69.5652 504.652 68.9228 505.759 68.1256C506.869 67.2966 507.983 66.3876 509.102 65.3989C510.223 64.3782 511.264 63.3525 512.226 62.3219C513.221 61.2614 514.052 60.2708 514.718 59.3502C515.211 58.6432 515.775 58.069 516.412 57.6275C517.08 57.1879 517.75 56.9889 518.421 57.0304C518.964 57.064 519.401 57.2513 519.732 57.5925C520.098 57.9036 520.257 58.4425 520.209 59.209C520.194 59.4645 520.14 60.0704 520.049 61.0266C519.96 61.9508 519.842 63.0817 519.695 64.4192C519.582 65.7267 519.481 67.0991 519.392 68.5363C519.315 69.7819 519.359 70.8748 519.526 71.8148C519.726 72.7249 520.225 73.2047 521.024 73.2541C521.982 73.3134 522.993 73.0393 524.056 72.4318C525.122 71.7924 526.166 70.9753 527.19 69.9806C528.247 68.956 529.228 67.8625 530.134 66.7002C531.039 65.5379 531.813 64.4316 532.455 63.3812C533.131 62.3009 533.618 61.4333 533.915 60.7784C534.504 57.9935 535.183 55.8233 535.953 54.2678C536.724 52.6804 537.53 51.5761 538.37 50.9548C539.242 50.3354 540.061 50.0495 540.828 50.0969C541.69 50.1503 542.396 50.4023 542.945 50.8531C543.526 51.3059 543.769 52.2988 543.674 53.8319C543.625 54.6303 543.215 55.8073 542.446 57.3627C541.676 58.9182 540.673 60.6195 539.437 62.4667C539.093 63.8881 538.841 65.3634 538.682 66.8925C538.523 68.4216 538.53 69.8648 538.703 71.222C539.603 70.6685 540.536 69.8286 541.504 68.7022C542.473 67.5439 543.451 66.2578 544.436 64.8439C545.423 63.3981 546.41 61.9523 547.397 60.5065C548.386 59.0288 549.352 57.6778 550.293 56.4536C551.266 55.2314 552.192 54.2627 553.07 53.5475C553.982 52.8024 554.853 52.4556 555.683 52.5069C556.545 52.5603 557.318 52.7684 558.001 53.1313C558.718 53.4642 559.289 54.0766 559.715 54.9686C560.174 55.8307 560.484 57.0521 560.642 58.6329C560.835 60.1837 560.854 62.2048 560.7 64.696C560.619 66.0055 560.668 67.291 560.846 68.5524C561.026 69.7819 561.395 70.8147 561.953 71.6507C562.512 72.4548 563.335 72.8904 564.421 72.9576C566.177 73.0663 567.76 72.8757 569.169 72.3857C570.58 71.8639 571.821 71.2353 572.893 70.5001C573.964 69.7649 574.853 69.1305 575.559 68.5971C576.3 68.0338 576.861 67.764 577.245 67.7877C577.883 67.8272 578.351 68.0485 578.646 68.4515C578.976 68.8246 579.124 69.2826 579.09 69.8255C579.07 70.1449 578.764 70.6871 578.172 71.4519C577.614 72.1869 576.842 73.0047 575.856 73.9056C574.904 74.7765 573.794 75.6215 572.525 76.4407C571.29 77.23 569.984 77.8705 568.607 78.3624C567.23 78.8543 565.855 79.0578 564.481 78.9728C561.99 78.8187 559.958 78.2441 558.384 77.249C556.845 76.2239 555.742 74.6168 555.076 72.4275C554.444 70.2082 554.241 67.2621 554.468 63.5891C554.482 63.3655 554.495 63.1579 554.507 62.9663C554.519 62.7746 554.531 62.583 554.542 62.3914C554.592 61.5929 554.618 60.9052 554.622 60.3283C554.658 59.7534 554.605 59.3014 554.465 58.9721C553.901 59.8028 553.211 60.8502 552.395 62.1143C551.612 63.3803 550.742 64.7372 549.787 66.1849C548.832 67.6327 547.814 69.0606 546.733 70.4685C545.684 71.8784 544.627 73.1596 543.561 74.312C542.496 75.4644 541.446 76.3773 540.41 77.0506C539.407 77.7259 538.474 78.0369 537.611 77.9835C536.972 77.944 536.29 77.5811 535.563 76.8949C534.867 76.2107 534.298 75.3098 533.854 74.1923C533.412 73.0428 533.235 71.7654 533.322 70.3601C531.842 71.9998 530.323 73.4928 528.765 74.8392C527.208 76.1536 525.686 77.1815 524.197 77.923C522.739 78.6984 521.371 79.0466 520.093 78.9675C519.039 78.9023 518.036 78.5357 517.083 77.8676C516.163 77.2014 515.399 76.0641 514.794 74.4556C514.188 72.8472 513.878 70.5997 513.864 67.7134C512.246 69.5049 510.579 71.0689 508.861 72.4053C507.175 73.7438 505.525 74.7638 503.91 75.4655C502.328 76.1691 500.85 76.4784 499.477 76.3934ZM594.669 56.362C596.685 52.2867 598.501 48.0707 600.117 43.7142C600.428 42.8358 600.837 42.1718 601.346 41.7224C601.887 41.2749 602.604 41.0788 603.499 41.1342C604.233 41.1796 604.778 41.4378 605.134 41.9086C605.492 42.3475 605.648 42.9343 605.602 43.6689C605.565 44.2757 605.242 45.3459 604.634 46.8792C604.028 48.3807 603.285 50.2904 602.404 52.6085C601.523 54.9265 600.62 57.6118 599.693 60.6644C598.767 63.7171 597.934 67.08 597.193 70.7533C596.453 74.4266 595.953 78.3712 595.692 82.5872C595.621 83.737 595.339 84.6653 594.846 85.3723C594.384 86.1131 593.625 86.4509 592.571 86.3857C591.421 86.3146 590.6 85.8629 590.106 85.0309C589.645 84.2008 589.452 83.1629 589.529 81.9173C589.682 79.458 589.888 77.4189 590.148 75.7999C590.443 74.1509 590.722 72.7415 590.987 71.5716C589.256 74.1576 587.452 76.3704 585.575 78.21C583.731 80.0196 581.98 81.3861 580.32 82.3093C578.657 83.2645 577.251 83.7065 576.102 83.6353C574.217 83.5187 572.717 82.8969 571.6 81.7698C570.484 80.6427 569.992 79.0092 570.124 76.8693C570.227 75.2084 570.732 73.5244 571.639 71.8172C572.548 70.078 573.711 68.3866 575.127 66.7429C576.543 65.0992 578.08 63.5752 579.738 62.1709C581.43 60.7367 583.11 59.4941 584.778 58.4431C586.448 57.3601 587.991 56.5258 589.405 55.9401C590.82 55.3543 591.959 55.0881 592.821 55.1415C593.779 55.2008 594.395 55.6076 594.669 56.362ZM593.407 58.8808C593.208 58.9967 592.992 59.1116 592.761 59.2256C592.563 59.3095 592.365 59.4095 592.165 59.5254C590.904 60.2168 589.553 61.063 588.113 62.0639C586.674 63.0329 585.244 64.1307 583.821 65.3572C582.401 66.5517 581.088 67.8171 579.883 69.1532C578.712 70.4594 577.749 71.7784 576.993 73.1103C576.272 74.4122 575.872 75.686 575.795 76.9316C575.781 77.1552 575.867 77.3208 576.053 77.4285C576.239 77.5362 576.411 77.5949 576.571 77.6048C577.689 77.674 578.917 77.253 580.256 76.342C581.627 75.4329 583.037 74.1415 584.487 72.4679C585.971 70.7643 587.458 68.7563 588.948 66.4439C590.469 64.1334 591.956 61.6124 593.407 58.8808ZM658.474 88.4916C657.228 88.4145 656.338 88.0229 655.805 87.3166C655.27 86.6422 655.062 85.3309 655.183 83.3826C655.286 81.7218 655.69 79.5827 656.397 76.9654C657.104 74.3481 657.888 71.5271 658.749 68.5024C654.958 72.2435 650.714 74.5137 646.016 75.3131C644.971 77.1721 643.776 78.8616 642.432 80.3814C641.087 81.9013 639.65 83.1109 638.119 84.0101C636.623 84.8793 635.092 85.2655 633.527 85.1687C631.579 85.0481 629.942 84.3056 628.615 82.9411C627.321 81.5785 626.756 79.5718 626.92 76.9209C627.031 75.1323 627.396 73.632 628.016 72.42C628.638 71.176 629.32 70.2564 630.062 69.6611C629.562 68.4118 629.361 67.0047 629.458 65.4397C629.588 63.3317 630.279 61.4989 631.529 59.9411C632.78 58.3834 634.376 57.1997 636.318 56.3901C638.291 55.5824 640.396 55.2478 642.632 55.3861C643.877 55.4632 645.039 55.8557 646.118 56.5636C647.23 57.2416 648.098 58.2411 648.722 59.5621C649.379 60.8532 649.649 62.4569 649.53 64.3733C649.431 65.9702 649.083 67.712 648.485 69.5987C650.836 68.3976 653.185 66.6994 655.533 64.5042C657.913 62.311 660.072 59.8156 662.008 57.0178C662.604 56.1891 663.398 55.8053 664.388 55.8666C665.218 55.918 665.857 56.214 666.304 56.7546C666.786 57.2653 667.002 57.9199 666.952 58.7184C666.943 58.8781 666.814 59.3992 666.567 60.2816C666.32 61.164 665.993 62.314 665.584 63.7315C665.178 65.117 664.731 66.6443 664.243 68.3134C663.787 69.9844 663.329 71.6874 662.869 73.4223C662.409 75.1572 661.986 76.7982 661.602 78.3455C662.525 76.8957 663.519 75.3541 664.581 73.7206C665.678 72.0572 666.805 70.4277 667.962 68.832C669.121 67.2045 670.253 65.7357 671.36 64.4255C672.467 63.1154 673.477 62.0878 674.389 61.3426C675.302 60.5656 676.063 60.1958 676.669 60.2334C677.883 60.3085 678.883 60.723 679.67 61.4771C680.457 62.2311 680.828 62.9754 680.783 63.71C680.737 64.4446 680.587 65.5735 680.333 67.0967C680.078 68.6199 679.764 70.3318 679.39 72.2323C679.049 74.1028 678.692 75.9884 678.318 77.8889C677.944 79.7894 677.629 81.5173 677.372 83.0724C677.118 84.5956 676.967 85.7404 676.919 86.507C676.88 87.1457 676.539 87.7338 675.896 88.2712C675.254 88.8085 674.55 89.0535 673.783 89.0061C673.719 89.0021 673.607 88.9952 673.448 88.9853C673.062 88.9935 672.715 88.9079 672.406 88.7285C672.094 88.5809 671.852 88.0851 671.68 87.2408C671.54 86.3985 671.531 84.9873 671.653 83.0071C671.736 81.6657 671.891 80.2004 672.118 78.6114C672.344 77.0223 672.603 75.4353 672.893 73.8502C673.218 72.2351 673.551 70.7328 673.894 69.3433C672.978 70.6653 671.955 72.173 670.824 73.8664C669.728 75.5299 668.58 77.2383 667.381 78.9916C666.185 80.713 665.012 82.3076 663.863 83.7755C662.748 85.2133 661.715 86.3677 660.763 87.2386C659.844 88.1115 659.08 88.5292 658.474 88.4916ZM641.45 71.3756C641.942 70.1557 642.358 68.8829 642.696 67.5573C643.037 66.1997 643.248 64.8662 643.329 63.5567C643.362 63.0138 643.283 62.4798 643.091 61.955C642.899 61.4301 642.532 61.1509 641.989 61.1173C640.903 61.0501 639.819 61.2075 638.737 61.5894C637.688 61.9733 636.802 62.5597 636.08 63.3486C635.357 64.1376 634.961 65.1069 634.89 66.2567C634.826 67.2788 635.108 68.1619 635.736 68.906C636.395 69.6522 637.225 70.2325 638.225 70.6471C639.257 71.0636 640.284 71.3035 641.306 71.3667C641.338 71.3687 641.386 71.3717 641.45 71.3756ZM639.225 75.47C638.109 75.3689 637.032 75.158 635.994 74.8373C634.958 74.4846 634.024 74.0261 633.194 73.4617C633.066 73.9668 632.94 74.4559 632.814 74.9291C632.691 75.3703 632.616 75.7985 632.59 76.2137C632.547 76.9164 632.619 77.5621 632.807 78.1508C633.029 78.7096 633.523 79.0127 634.29 79.0601C635.088 79.1095 635.909 78.8076 636.751 78.1543C637.624 77.5031 638.449 76.6083 639.225 75.47ZM712.968 91.8634C711.594 91.7784 710.632 91.5265 710.081 91.1077C709.562 90.6908 709.325 90.1151 709.37 89.3805C709.41 88.7417 709.667 88.2126 710.142 87.7931C710.619 87.3417 711.638 86.9239 713.201 86.5397C715.023 86.1074 716.755 85.5893 718.395 84.9855C720.069 84.3516 721.444 83.6352 722.52 82.8361C723.627 82.0389 724.21 81.1613 724.27 80.2031C724.309 79.5643 724.114 79.0874 723.685 78.7723C723.287 78.4591 722.801 78.2848 722.226 78.2492C721.747 78.2196 721.04 78.2559 720.104 78.3583C719.201 78.4307 718.2 78.5451 717.101 78.7015C716.003 78.826 714.938 78.9364 713.906 79.0329C712.908 79.0994 712.058 79.1109 711.355 79.0674C709.694 78.9646 708.487 78.5213 707.734 77.7373C706.983 76.9213 706.644 75.9225 706.717 74.7407C706.757 74.102 707.147 73.2444 707.886 72.168C708.626 71.0917 709.597 69.9173 710.798 68.6451C711.998 67.3728 713.327 66.1084 714.783 64.852C716.24 63.5955 717.705 62.4518 719.18 61.4209C720.688 60.3601 722.102 59.5338 723.421 58.9421C724.742 58.3185 725.85 58.0344 726.744 58.0897C727.766 58.153 728.561 58.5227 729.128 59.1991C729.727 59.8774 729.993 60.7595 729.926 61.8454C729.894 62.3564 729.812 62.9124 729.679 63.5133C729.547 64.0823 729.275 64.5944 728.862 65.0498C728.451 65.4732 727.841 65.7561 727.03 65.8983C726.22 66.0405 725.136 65.9414 723.778 65.6009C722.643 66.3322 721.455 67.1404 720.214 68.0254C719.007 68.8805 717.861 69.7874 716.775 70.7462C715.692 71.6731 714.785 72.5949 714.055 73.5115C715.261 73.2014 716.621 72.981 718.136 72.8503C719.653 72.6877 721.178 72.6538 722.711 72.7486C724.563 72.8633 726.044 73.2915 727.152 74.0334C728.294 74.7453 729.103 75.661 729.579 76.7805C730.087 77.902 730.3 79.1175 730.219 80.427C730.128 81.8962 729.558 83.3357 728.509 84.7456C727.46 86.1555 726.099 87.4179 724.427 88.5328C722.755 89.6476 720.923 90.5121 718.929 91.1261C716.935 91.7402 714.948 91.9859 712.968 91.8634ZM768.455 68.6057C768.431 68.989 768.282 69.3164 768.009 69.5881C767.736 69.8597 767.403 70.0635 767.009 70.1995C766.453 70.3895 765.493 70.6186 764.13 70.8869C762.766 71.1553 761.113 71.4537 759.169 71.7823C757.257 72.1128 755.2 72.4505 752.998 72.7952C750.799 73.1079 748.6 73.4047 746.403 73.6856C745.383 76.7003 744.341 79.8099 743.277 83.0143C742.215 86.1868 741.156 89.3113 740.1 92.388C739.711 93.4861 739.276 94.3088 738.793 94.856C738.308 95.4352 737.523 95.6912 736.437 95.624C735.255 95.5509 734.48 95.1182 734.113 94.326C733.775 93.5676 733.789 92.5586 734.156 91.2988C735.202 87.8689 736.169 84.6745 737.057 81.7157C737.977 78.7589 738.719 76.3681 739.28 74.5433C737.344 74.7441 735.652 74.8959 734.202 74.9986C732.755 75.0694 731.729 75.07 731.124 75.0005C730.458 74.8951 729.916 74.5891 729.498 74.0823C729.081 73.5756 728.91 72.9719 728.985 72.2712C729.088 71.6364 729.409 71.1112 729.948 70.6957C730.489 70.2482 731.113 69.9983 731.822 69.9459C732.818 69.9114 734.104 69.8467 735.681 69.7519C737.258 69.6571 738.997 69.5403 740.897 69.4013C741.413 67.7982 741.996 66.151 742.645 64.4599C743.297 62.7369 743.96 61.0946 744.633 59.5333C745.341 57.9419 746.004 56.5562 746.622 55.3761C747.24 54.1961 747.789 53.3484 748.27 52.8331C748.647 52.4396 749.098 52.1469 749.623 51.9549C750.18 51.765 750.714 51.6858 751.225 51.7174C751.895 51.7589 752.424 52.032 752.809 52.5368C753.195 53.0416 753.368 53.6134 753.328 54.2521C753.312 54.5077 753.28 54.7781 753.23 55.0636C753.182 55.3172 753.102 55.5687 752.991 55.8183C752.285 57.3777 751.511 59.2695 750.668 61.4937C749.857 63.7198 749 66.1676 748.098 68.837C750.515 68.6338 752.884 68.4278 755.205 68.2187C757.561 67.9797 759.69 67.7588 761.594 67.556C763.532 67.3233 765.084 67.1147 766.25 66.9303C766.903 66.7463 767.443 66.8278 767.87 67.1749C768.299 67.49 768.494 67.9669 768.455 68.6057ZM760.201 94.1608C759.179 94.0975 758.271 93.7528 757.476 93.1265C756.679 92.5321 756.069 91.773 755.645 90.8491C755.223 89.8932 755.045 88.8883 755.11 87.8343C755.233 85.8541 755.783 83.9484 756.762 82.1174C757.773 80.2883 759.05 78.5719 760.592 76.9681C762.134 75.3642 763.794 73.912 765.574 72.6114C767.388 71.2809 769.173 70.157 770.929 69.2397C772.716 68.3244 774.331 67.6227 775.772 67.1348C777.245 66.6488 778.38 66.4305 779.179 66.4799C780.105 66.5372 780.843 66.7913 781.392 67.2421C781.975 67.6629 782.241 68.2885 782.189 69.1189C782.174 69.3744 782.097 69.5781 781.959 69.7298C782.369 69.8514 782.689 70.1116 782.921 70.5107C783.153 70.9098 783.245 71.4926 783.197 72.2591C783.178 72.5785 783.046 73.404 782.804 74.7356C782.561 76.0671 782.285 77.6851 781.974 79.5896C781.696 81.4961 781.493 83.4873 781.364 85.5633C781.345 85.8827 781.375 86.1731 781.455 86.4346C781.537 86.6641 781.737 86.7887 782.057 86.8085C783.334 86.8875 784.644 86.712 785.985 86.282C787.36 85.8221 788.694 85.2474 789.987 84.5579C791.314 83.8385 792.512 83.1271 793.582 82.4238C794.685 81.6906 795.604 81.0902 796.338 80.6226C797.106 80.1251 797.602 79.8833 797.826 79.8971C798.912 79.9643 799.421 80.5409 799.354 81.6268C799.336 81.9142 798.947 82.4993 798.187 83.3821C797.461 84.2349 796.471 85.2156 795.216 86.3242C793.963 87.4009 792.566 88.4687 791.026 89.5276C789.52 90.5565 787.961 91.3898 786.351 92.0276C784.772 92.6673 783.264 92.9427 781.827 92.8538C780.07 92.7451 778.755 92.2469 777.88 91.3592C777.037 90.4734 776.467 89.3161 776.171 87.887C775.909 86.428 775.817 84.8033 775.895 83.0127C774.122 85.2435 772.301 87.2148 770.432 88.9266C768.596 90.6085 766.8 91.924 765.042 92.8733C763.284 93.8225 761.67 94.2517 760.201 94.1608ZM778.646 71.208C775.423 72.5155 772.505 74.0663 769.894 75.8604C767.284 77.6226 765.179 79.5122 763.58 81.5293C762.012 83.5483 761.168 85.532 761.047 87.4803C761.014 88.0232 761.252 88.3105 761.763 88.3421C762.37 88.3797 763.19 88.0778 764.224 87.4364C765.289 86.797 766.449 85.9389 767.702 84.8622C768.956 83.7536 770.219 82.5172 771.49 81.1531C772.763 79.757 773.957 78.3241 775.074 76.8542C776.191 75.3844 777.096 73.9656 777.79 72.5979C778.045 72.1007 778.331 71.6374 778.646 71.208ZM795.696 108.38C793.301 108.232 791.491 107.943 790.267 107.515C789.075 107.089 788.274 106.574 787.862 105.972C787.449 105.401 787.26 104.828 787.295 104.253C787.345 103.455 787.641 102.816 788.183 102.336C788.758 101.859 789.476 101.647 790.339 101.7C790.914 101.736 791.739 101.867 792.815 102.094C793.891 102.321 794.972 102.468 796.058 102.535C799.252 102.733 801.934 102.129 804.105 100.725C806.274 99.352 808.044 97.1691 809.416 94.1761C810.789 91.1512 811.845 87.305 812.582 82.6377C810.155 86.1104 807.533 88.8497 804.716 90.8555C801.93 92.8634 799.101 93.7783 796.226 93.6005C792.841 93.391 791.251 91.6254 791.456 88.3038C791.555 86.7068 792.09 85.0567 793.061 83.3534C794.032 81.6502 795.289 79.9806 796.833 78.3449C798.377 76.7091 800.059 75.178 801.879 73.7517C803.7 72.2934 805.51 71.0267 807.308 69.9517C809.137 68.8786 810.824 68.0532 812.366 67.4754C813.911 66.8656 815.146 66.5894 816.073 66.6467C816.807 66.6921 817.438 66.8594 817.965 67.1485C818.524 67.4396 818.94 67.9783 819.212 68.7646C819.486 69.5189 819.578 70.6147 819.489 72.052C819.242 76.0444 818.859 79.9001 818.341 83.6191C817.824 87.3063 817.053 90.7051 816.027 93.8157C815.001 96.9263 813.616 99.6139 811.873 101.879C810.161 104.145 807.988 105.854 805.352 107.006C802.715 108.157 799.497 108.615 795.696 108.38ZM797.648 87.725C797.634 87.9486 797.723 88.0663 797.914 88.0782C798.553 88.1177 799.436 87.8357 800.564 87.2322C801.693 86.5967 802.916 85.7426 804.233 84.6699C805.584 83.5672 806.91 82.3348 808.213 80.9726C809.517 79.5785 810.681 78.1276 811.704 76.6199C812.759 75.1142 813.54 73.6396 814.046 72.1961C812.326 73.0515 810.532 74.0627 808.664 75.2296C806.831 76.3665 805.087 77.6051 803.433 78.9456C801.811 80.288 800.456 81.711 799.369 83.2148C798.316 84.6886 797.742 86.192 797.648 87.725ZM831.063 98.353C829.083 98.2304 827.528 97.4449 826.4 95.9965C825.273 94.5161 824.805 92.2268 824.997 89.1287C825.12 87.1485 825.466 85.1821 826.035 83.2296C826.639 81.2471 827.411 79.3872 828.352 77.65C829.327 75.8829 830.417 74.3312 831.622 72.9951C832.859 71.6609 834.189 70.6371 835.611 69.9236C837.036 69.1781 838.483 68.8509 839.952 68.9418C842.444 69.0959 844.35 69.8872 845.673 71.3156C846.995 72.744 847.592 74.4962 847.463 76.5722C847.365 78.1692 846.828 79.5947 845.852 80.8489C844.911 82.0731 843.658 83.1498 842.094 84.0789C840.529 85.0081 838.795 85.8306 836.891 86.5463C834.987 87.2621 833.041 87.8951 831.051 88.4453C830.82 89.5852 830.677 90.6023 830.622 91.4966C830.588 92.0396 830.875 92.3298 831.481 92.3674C832.919 92.4563 834.466 92.3276 836.122 91.9812C837.813 91.6049 839.527 91.1018 841.265 90.472C843.005 89.8102 844.683 89.1284 846.297 88.4268C847.913 87.6932 849.383 86.9987 850.706 86.3431C852.063 85.6576 853.171 85.117 854.029 84.7212C854.921 84.2955 855.494 84.0905 855.75 84.1063C856.453 84.1498 856.951 84.389 857.244 84.824C857.538 85.259 857.67 85.716 857.641 86.1951C857.627 86.4187 857.165 86.887 856.255 87.6002C855.377 88.3154 854.171 89.1545 852.637 90.1176C851.136 91.0507 849.441 92.0198 847.552 93.0251C845.696 94.0003 843.763 94.9227 841.754 95.7923C839.778 96.6319 837.862 97.2828 836.006 97.7451C834.18 98.2412 832.532 98.4439 831.063 98.353ZM832.129 84.2318C833.486 83.5463 834.829 82.8279 836.158 82.0765C837.521 81.2952 838.666 80.4042 839.594 79.4036C840.523 78.371 841.032 77.1361 841.121 75.6989C841.147 75.2837 841.052 75.0053 840.836 74.8637C840.623 74.6901 840.308 74.5905 839.893 74.5648C838.775 74.4957 837.722 74.9275 836.735 75.8603C835.779 76.7951 834.902 78.0232 834.102 79.5447C833.337 81.0363 832.679 82.5987 832.129 84.2318ZM6.1456 113.63C5.12356 113.567 4.21511 113.222 3.42027 112.596C2.62346 112.001 2.01317 111.242 1.58942 110.318C1.16765 109.363 0.989371 108.358 1.05459 107.304C1.17711 105.323 1.72785 103.418 2.70679 101.587C3.71768 99.7577 4.99412 98.0412 6.53611 96.4374C8.0781 94.8336 9.73895 93.3814 11.5187 92.0808C13.3323 90.7503 15.1171 89.6263 16.8731 88.709C18.6611 87.7937 20.2755 87.0921 21.7164 86.6041C23.1892 86.1182 24.3248 85.8999 25.1233 85.9493C26.0495 86.0066 26.7872 86.2606 27.3365 86.7114C27.9196 87.1322 28.1855 87.7578 28.1341 88.5882C28.1183 88.8438 28.0415 89.0474 27.9039 89.1992C28.3132 89.3207 28.6337 89.581 28.8655 89.9801C29.0973 90.3792 29.1895 90.962 29.1421 91.7285C29.1223 92.0479 28.9911 92.8734 28.7484 94.2049C28.5057 95.5365 28.2292 97.1545 27.919 99.059C27.6408 100.965 27.4374 102.957 27.3089 105.033C27.2892 105.352 27.3193 105.642 27.3993 105.904C27.4813 106.133 27.682 106.258 28.0014 106.278C29.2789 106.357 30.5883 106.181 31.9294 105.751C33.3044 105.291 34.6385 104.717 35.9315 104.027C37.2585 103.308 38.4567 102.596 39.5262 101.893C40.6295 101.16 41.5484 100.56 42.2827 100.092C43.0508 99.5945 43.5467 99.3526 43.7703 99.3665C44.8562 99.4337 45.3656 100.01 45.2984 101.096C45.2806 101.384 44.8917 101.969 44.1318 102.851C43.4057 103.704 42.4153 104.685 41.1604 105.794C39.9075 106.87 38.5109 107.938 36.9706 108.997C35.4642 110.026 33.9057 110.859 32.2953 111.497C30.7167 112.137 29.2088 112.412 27.7716 112.323C26.015 112.214 24.6992 111.716 23.8244 110.829C22.9815 109.943 22.4118 108.785 22.1155 107.356C21.8531 105.897 21.7613 104.273 21.84 102.482C20.0669 104.713 18.2457 106.684 16.3764 108.396C14.541 110.078 12.7443 111.393 10.9864 112.343C9.22838 113.292 7.61479 113.721 6.1456 113.63ZM24.5903 90.6774C21.3674 91.9848 18.4501 93.5356 15.8383 95.3298C13.2285 97.092 11.1237 98.9816 9.52413 100.999C7.95645 103.018 7.11233 105.001 6.99178 106.95C6.95819 107.493 7.1969 107.78 7.70792 107.811C8.31476 107.849 9.13497 107.547 10.1686 106.906C11.2341 106.266 12.3933 105.408 13.6462 104.332C14.901 103.223 16.1638 101.987 17.4345 100.622C18.7071 99.2264 19.9019 97.7934 21.0188 96.3236C22.1357 94.8538 23.041 93.435 23.7348 92.0672C23.99 91.57 24.2752 91.1067 24.5903 90.6774ZM75.0126 91.8255C74.9889 92.2087 74.8404 92.5362 74.5671 92.8078C74.2938 93.0795 73.9606 93.2833 73.5674 93.4193C73.0107 93.6093 72.0507 93.8384 70.6875 94.1067C69.3243 94.3751 67.6707 94.6735 65.7267 95.0021C63.8147 95.3326 61.7579 95.6703 59.5564 96.015C57.3569 96.3277 55.1584 96.6245 52.9608 96.9053C51.9407 99.9201 50.8987 103.03 49.8348 106.234C48.7728 109.407 47.7138 112.531 46.6578 115.608C46.2692 116.706 45.8336 117.529 45.3509 118.076C44.8662 118.655 44.0809 118.911 42.995 118.844C41.8132 118.771 41.0385 118.338 40.6707 117.546C40.3329 116.787 40.3472 115.778 40.7137 114.519C41.7595 111.089 42.7267 107.894 43.6151 104.936C44.5354 101.979 45.2765 99.5879 45.8383 97.7631C43.9022 97.9639 42.2096 98.1157 40.7605 98.2184C39.3133 98.2892 38.2873 98.2898 37.6825 98.2203C37.0157 98.1149 36.4736 97.8089 36.0561 97.3021C35.6386 96.7954 35.4675 96.1916 35.5429 95.491C35.6463 94.8561 35.9674 94.331 36.5061 93.9154C37.0467 93.468 37.6714 93.2181 38.3799 93.1657C39.376 93.1312 40.6624 93.0665 42.2393 92.9717C43.8162 92.8769 45.5547 92.76 47.4549 92.6211C47.9709 91.0179 48.5537 89.3708 49.2034 87.6797C49.8551 85.9566 50.5177 84.3144 51.1914 82.753C51.8991 81.1617 52.5619 79.776 53.18 78.5959C53.798 77.4158 54.3474 76.5681 54.8282 76.0529C55.2052 75.6594 55.6561 75.3667 56.181 75.1747C56.7378 74.9847 57.2717 74.9056 57.7827 74.9372C58.4534 74.9787 58.9816 75.2518 59.3671 75.7566C59.7527 76.2614 59.9257 76.8331 59.8862 77.4719C59.8704 77.7274 59.8376 77.9979 59.7879 78.2834C59.7401 78.5369 59.6604 78.7885 59.5488 79.0381C58.8432 80.5975 58.0689 82.4893 57.2259 84.7135C56.4149 86.9396 55.5581 89.3874 54.6555 92.0567C57.0727 91.8536 59.4419 91.6475 61.7632 91.4385C64.1185 91.1995 66.2482 90.9786 68.1524 90.7758C70.0904 90.5431 71.6423 90.3345 72.8079 90.1501C73.4605 89.9661 74.0005 90.0476 74.4279 90.3946C74.8572 90.7098 75.0522 91.1867 75.0126 91.8255ZM121.872 119.636C120.946 119.579 120.261 119.248 119.817 118.644C119.406 118.041 119.231 117.245 119.292 116.255C119.341 115.456 119.416 114.771 119.515 114.201C119.615 113.63 119.78 113.031 120.011 112.404C120.244 111.745 120.534 110.945 120.881 110.005C121.262 109.035 121.739 107.798 122.313 106.294C122.656 105.418 123.079 104.274 123.583 102.862C124.121 101.421 124.667 99.8513 125.221 98.1543C125.777 96.4253 126.253 94.6914 126.649 92.9525C127.079 91.1837 127.341 89.5487 127.434 88.0476C127.497 87.0256 127.331 86.0695 126.938 85.1795C123.786 87.9341 120.738 91.5929 117.794 96.1558C114.883 100.721 112.211 106.07 109.78 112.203C109.076 113.731 108.308 114.741 107.476 115.235C106.646 115.697 105.864 115.905 105.129 115.859C104.906 115.845 104.578 115.697 104.147 115.414C103.718 115.099 103.334 114.562 102.996 113.804C102.658 113.045 102.531 111.995 102.614 110.654C102.634 110.335 102.738 109.94 102.928 109.471C103.119 108.97 103.392 108.442 103.747 107.887C104.137 106.244 104.455 104.484 104.699 102.607C104.977 100.701 105.191 98.8065 105.339 96.9241C105.522 95.0117 105.664 93.2251 105.767 91.5643C105.846 90.2867 105.819 89.1629 105.687 88.1929C103.999 90.0763 102.366 92.3798 100.787 95.1035C99.2077 97.8271 97.7453 100.734 96.3999 103.825C95.0864 106.918 93.9685 109.959 93.0461 112.947C92.809 113.67 92.543 114.343 92.248 114.966C91.9549 115.557 91.541 116.028 91.0063 116.38C90.5054 116.702 89.7919 116.834 88.8657 116.777C87.8436 116.713 87.1028 116.251 86.6432 115.389C86.1835 114.527 85.9962 113.409 86.0812 112.036C86.1464 110.982 86.4539 109.638 87.0038 108.005C87.5557 106.34 88.2762 104.541 89.1653 102.608C90.0563 100.643 91.0611 98.6536 92.1796 96.6388C93.3321 94.5941 94.5276 92.6322 95.766 90.7531C97.0044 88.874 98.2459 87.2035 99.4906 85.7415C100.769 84.2497 101.963 83.0892 103.072 82.2601C104.216 81.4011 105.234 80.9992 106.129 81.0545C106.161 81.0565 106.209 81.0595 106.272 81.0634C106.975 81.1069 107.61 81.2103 108.177 81.3736C108.778 81.507 109.284 81.875 109.696 82.4775C110.141 83.0501 110.5 83.9861 110.772 85.2854C111.045 86.5847 111.236 88.408 111.348 90.7554C111.376 91.3342 111.381 92.0239 111.364 92.8243C111.348 93.5928 111.315 94.3923 111.264 95.2227C112.464 92.9244 113.751 90.7758 115.125 88.7769C116.531 86.7799 117.954 85.0244 119.394 83.5105C120.867 81.9985 122.301 80.8369 123.698 80.0256C125.095 79.2143 126.368 78.8442 127.518 78.9154C128.859 78.9984 130.084 79.4108 131.192 80.1527C132.303 80.8626 133.162 82.0058 133.769 83.5824C134.377 85.1589 134.599 87.2726 134.435 89.9236C134.261 92.7342 133.837 95.4492 133.162 98.0685C132.489 100.656 131.697 103.092 130.786 105.376C129.875 107.66 128.976 109.752 128.089 111.653C127.204 113.522 126.462 115.143 125.864 116.517C125.388 117.481 124.858 118.266 124.276 118.871C123.695 119.445 122.894 119.7 121.872 119.636ZM152.281 95.1637C150.748 95.0688 149.672 94.8419 149.053 94.483C148.434 94.1241 148.075 93.7171 147.974 93.2621C147.874 92.807 147.834 92.4198 147.854 92.1004C147.856 92.0685 147.857 92.0525 147.857 92.0525C147.9 91.3499 148.261 90.6989 148.94 90.0997C149.62 89.4685 150.543 89.0607 151.708 88.8763C152.678 88.744 153.824 88.6225 155.145 88.5119C156.501 88.3713 157.918 88.2666 159.397 88.1978C160.91 88.0991 162.356 88.0443 163.735 88.0334C165.115 88.0226 166.331 88.0498 167.385 88.115C168.791 88.202 169.864 88.4768 170.605 88.9394C171.347 89.3701 171.847 89.8498 172.103 90.3787C172.39 90.9094 172.523 91.3505 172.502 91.7018C172.482 92.0212 172.382 92.3357 172.203 92.6452C172.023 92.9547 171.604 93.2494 170.946 93.5292C170.319 93.8111 169.326 94.0542 167.967 94.2587C166.608 94.4631 164.739 94.62 162.359 94.7292C162.134 94.7474 161.892 94.7645 161.635 94.7806C161.326 96.1401 160.953 97.7682 160.515 99.6648C160.079 101.529 159.605 103.488 159.093 105.54C158.616 107.563 158.143 109.505 157.675 111.368C157.241 113.2 156.856 114.764 156.519 116.057C157.836 116.011 158.992 115.986 159.986 115.983C161.012 115.983 161.701 115.993 162.052 116.015C163.17 116.084 163.922 116.371 164.307 116.876C164.695 117.349 164.866 117.952 164.82 118.687C164.803 118.974 164.264 119.39 163.204 119.934C162.145 120.477 160.683 121.044 158.819 121.634C156.987 122.226 154.888 122.721 152.523 123.12C150.968 123.376 149.434 123.554 147.922 123.653C146.409 123.752 145.317 123.78 144.646 123.739C143.336 123.658 142.505 123.366 142.151 122.863C141.83 122.362 141.691 121.744 141.737 121.01C141.776 120.371 142.009 119.728 142.433 119.081C142.89 118.436 143.495 117.993 144.247 117.751C145.031 117.511 145.894 117.292 146.837 117.093C147.779 116.895 148.751 116.731 149.753 116.6C149.868 115.774 150.064 114.68 150.34 113.318C150.617 111.957 150.917 110.469 151.242 108.854C151.6 107.209 151.959 105.548 152.32 103.871C152.714 102.164 153.085 100.568 153.433 99.0823C153.816 97.567 154.137 96.2564 154.398 95.1504C153.466 95.1889 152.76 95.1933 152.281 95.1637ZM198.232 124.986C197.466 124.939 196.809 124.674 196.261 124.191C195.714 123.708 195.486 122.732 195.577 121.263C195.618 120.593 195.924 119.537 196.494 118.098C197.064 116.658 197.81 114.973 198.731 113.042C199.686 111.082 200.743 109.015 201.904 106.842C203.064 104.67 204.271 102.516 205.525 100.382C206.78 98.2472 207.992 96.2703 209.163 94.4511C210.333 92.6319 211.406 91.0953 212.382 89.8411C213.391 88.557 214.197 87.7091 214.799 87.2976C215.667 86.7421 216.516 86.4901 217.347 86.5414C217.794 86.5691 218.222 86.6437 218.631 86.7652C219.073 86.8887 219.43 87.0711 219.704 87.3125C220.349 87.7692 220.89 88.6042 221.328 89.8176C221.8 91.001 222.193 92.42 222.507 94.0745C222.854 95.7311 223.112 97.5105 223.283 99.4126C223.488 101.285 223.646 103.138 223.757 104.972C224.98 104.888 225.816 104.859 226.263 104.887C227.221 104.946 228.058 105.142 228.775 105.475C229.494 105.776 229.844 106.343 229.824 107.175C229.839 107.978 229.542 108.633 228.933 109.14C228.357 109.649 227.629 110.005 226.751 110.207C226.36 110.311 225.421 110.462 223.934 110.658C223.929 112.293 223.892 113.669 223.823 114.787C223.647 117.63 223.351 119.824 222.935 121.369C222.55 122.916 222.098 124.01 221.577 124.651C221.089 125.295 220.585 125.664 220.066 125.76C219.577 125.89 219.141 125.943 218.758 125.92C218.726 125.918 218.694 125.916 218.662 125.914C217.736 125.857 217.064 125.574 216.646 125.068C216.261 124.563 216.102 123.752 216.172 122.634L216.382 119.232C216.447 118.178 216.504 116.996 216.554 115.684C216.603 114.373 216.625 112.979 216.62 111.504C214.716 111.707 212.811 111.91 210.907 112.113C209.037 112.285 207.424 112.442 206.069 112.583C205.373 113.982 204.766 115.243 204.248 116.365C203.732 117.456 203.374 118.315 203.175 118.944C202.599 120.479 202.075 121.681 201.605 122.55C201.136 123.387 200.7 123.969 200.295 124.296C199.92 124.658 199.57 124.861 199.247 124.905C198.922 124.981 198.583 125.008 198.232 124.986ZM209.069 106.853C210.43 106.617 211.741 106.409 213.003 106.231C214.266 106.02 215.463 105.838 216.595 105.684C216.558 103.693 216.486 101.749 216.379 99.8511C216.272 97.9529 216.12 96.2603 215.924 94.7733C214.994 96.3188 213.902 98.1749 212.646 100.341C211.423 102.478 210.231 104.649 209.069 106.853ZM273.884 129.042C272.958 128.985 272.273 128.654 271.829 128.049C271.418 127.447 271.243 126.65 271.304 125.66C271.353 124.862 271.428 124.177 271.527 123.606C271.627 123.035 271.792 122.436 272.023 121.809C272.256 121.151 272.546 120.351 272.893 119.411C273.273 118.44 273.751 117.203 274.325 115.7C274.667 114.823 275.091 113.679 275.595 112.268C276.133 110.826 276.679 109.257 277.233 107.56C277.789 105.831 278.265 104.097 278.661 102.358C279.091 100.589 279.352 98.9544 279.445 97.4533C279.509 96.4312 279.343 95.4752 278.949 94.5852C275.797 97.3398 272.75 100.999 269.806 105.561C266.895 110.126 264.223 115.476 261.792 121.609C261.088 123.137 260.32 124.147 259.488 124.641C258.658 125.102 257.876 125.31 257.141 125.265C256.918 125.251 256.59 125.103 256.159 124.819C255.729 124.504 255.346 123.968 255.008 123.209C254.67 122.451 254.543 121.401 254.626 120.06C254.646 119.74 254.75 119.346 254.939 118.877C255.131 118.376 255.404 117.847 255.759 117.292C256.149 115.649 256.466 113.89 256.711 112.013C256.989 110.107 257.202 108.212 257.351 106.33C257.533 104.417 257.676 102.631 257.779 100.97C257.858 99.6924 257.831 98.5686 257.699 97.5986C256.011 99.4819 254.378 101.785 252.799 104.509C251.219 107.233 249.757 110.14 248.412 113.231C247.098 116.324 245.98 119.364 245.058 122.353C244.821 123.076 244.555 123.749 244.26 124.372C243.967 124.963 243.553 125.434 243.018 125.786C242.517 126.107 241.804 126.24 240.877 126.182C239.855 126.119 239.115 125.656 238.655 124.794C238.195 123.932 238.008 122.815 238.093 121.441C238.158 120.387 238.466 119.044 239.016 117.411C239.568 115.745 240.288 113.947 241.177 112.014C242.068 110.049 243.073 108.059 244.191 106.045C245.344 104 246.539 102.038 247.778 100.159C249.016 98.2796 250.258 96.6091 251.502 95.1472C252.781 93.6553 253.975 92.4948 255.084 91.6658C256.227 90.8067 257.246 90.4049 258.14 90.4602C258.172 90.4622 258.22 90.4651 258.284 90.4691C258.987 90.5126 259.622 90.616 260.189 90.7793C260.79 90.9127 261.296 91.2806 261.707 91.8832C262.153 92.4558 262.512 93.3918 262.784 94.6911C263.056 95.9903 263.248 97.8137 263.359 100.161C263.388 100.74 263.393 101.43 263.376 102.23C263.36 102.998 263.327 103.798 263.275 104.628C264.476 102.33 265.763 100.181 267.137 98.1825C268.543 96.1855 269.966 94.4301 271.406 92.9161C272.878 91.4042 274.313 90.2425 275.71 89.4312C277.106 88.62 278.38 88.2499 279.529 88.321C280.871 88.404 282.096 88.8165 283.204 89.5583C284.314 90.2682 285.173 91.4115 285.781 92.988C286.389 94.5646 286.611 96.6783 286.447 99.3292C286.273 102.14 285.848 104.855 285.173 107.474C284.5 110.062 283.708 112.497 282.798 114.781C281.887 117.065 280.988 119.158 280.101 121.059C279.216 122.928 278.474 124.549 277.876 125.923C277.4 126.887 276.87 127.672 276.288 128.277C275.707 128.85 274.906 129.105 273.884 129.042ZM304.293 104.569C302.76 104.474 301.684 104.248 301.065 103.889C300.446 103.53 300.086 103.123 299.986 102.668C299.886 102.213 299.846 101.825 299.866 101.506C299.868 101.474 299.869 101.458 299.869 101.458C299.912 100.756 300.273 100.105 300.951 99.5053C301.632 98.8741 302.555 98.4663 303.72 98.282C304.69 98.1496 305.836 98.0282 307.157 97.9175C308.513 97.777 309.93 97.6723 311.409 97.6035C312.922 97.5048 314.368 97.45 315.747 97.4391C317.127 97.4283 318.343 97.4555 319.397 97.5207C320.802 97.6076 321.876 97.8824 322.616 98.3451C323.359 98.7758 323.859 99.2555 324.114 99.7843C324.402 100.315 324.535 100.756 324.513 101.107C324.494 101.427 324.394 101.741 324.215 102.051C324.035 102.36 323.616 102.655 322.958 102.935C322.331 103.217 321.338 103.46 319.979 103.664C318.62 103.869 316.75 104.026 314.371 104.135C314.146 104.153 313.904 104.17 313.647 104.186C313.338 105.546 312.965 107.174 312.527 109.07C312.091 110.935 311.617 112.894 311.105 114.946C310.627 116.968 310.155 118.911 309.687 120.773C309.253 122.606 308.867 124.169 308.531 125.463C309.848 125.416 311.004 125.392 311.998 125.389C313.024 125.388 313.713 125.399 314.064 125.421C315.182 125.49 315.934 125.777 316.319 126.281C316.707 126.754 316.878 127.358 316.832 128.093C316.814 128.38 316.276 128.796 315.216 129.339C314.157 129.883 312.695 130.45 310.831 131.04C308.999 131.632 306.9 132.127 304.535 132.526C302.98 132.782 301.446 132.96 299.933 133.058C298.42 133.157 297.328 133.186 296.658 133.144C295.348 133.063 294.517 132.771 294.163 132.269C293.841 131.768 293.703 131.15 293.749 130.416C293.788 129.777 294.02 129.134 294.445 128.487C294.902 127.842 295.506 127.398 296.259 127.156C297.043 126.916 297.906 126.697 298.848 126.499C299.79 126.301 300.762 126.136 301.764 126.006C301.88 125.18 302.076 124.086 302.352 122.724C302.629 121.363 302.929 119.874 303.254 118.259C303.612 116.614 303.971 114.953 304.331 113.276C304.726 111.569 305.097 109.973 305.445 108.488C305.828 106.973 306.149 105.662 306.41 104.556C305.478 104.595 304.772 104.599 304.293 104.569ZM351.797 133.382C349.785 133.258 348.353 132.56 347.502 131.289C346.685 129.988 346.336 128.379 346.454 126.463C346.567 124.642 347.075 122.91 347.978 121.267C348.883 119.592 350.055 118.013 351.493 116.531C352.932 115.049 354.523 113.689 356.266 112.45C358.012 111.179 359.765 110.054 361.525 109.072C363.319 108.061 365.022 107.221 366.635 106.551C368.249 105.849 369.644 105.327 370.819 104.983C371.995 104.639 372.838 104.482 373.349 104.514C373.892 104.548 374.33 104.719 374.664 105.028C375.031 105.307 375.191 105.83 375.144 106.597C375.095 107.395 374.731 108.094 374.052 108.693C373.374 109.293 372.558 109.787 371.604 110.177C370.255 110.735 368.721 111.425 367.003 112.249C365.319 113.042 363.611 113.963 361.879 115.01C360.147 116.057 358.538 117.191 357.052 118.414C355.597 119.638 354.394 120.943 353.443 122.327C352.494 123.679 351.974 125.089 351.883 126.558C351.863 126.878 351.911 127.137 352.027 127.337C352.143 127.536 352.408 127.649 352.824 127.675C353.367 127.708 354.101 127.497 355.027 127.041C355.955 126.554 356.972 125.911 358.08 125.114C359.189 124.285 360.303 123.376 361.423 122.387C362.544 121.367 363.585 120.341 364.547 119.311C365.542 118.25 366.373 117.259 367.039 116.339C367.531 115.632 368.096 115.058 368.732 114.616C369.401 114.177 370.07 113.977 370.741 114.019C371.284 114.053 371.721 114.24 372.053 114.581C372.418 114.892 372.577 115.431 372.53 116.198C372.514 116.453 372.461 117.059 372.369 118.015C372.28 118.939 372.162 120.07 372.015 121.408C371.902 122.715 371.801 124.088 371.712 125.525C371.635 126.771 371.68 127.863 371.846 128.803C372.046 129.714 372.546 130.193 373.344 130.243C374.302 130.302 375.313 130.028 376.377 129.42C377.442 128.781 378.487 127.964 379.51 126.969C380.567 125.945 381.549 124.851 382.454 123.689C383.36 122.527 384.134 121.42 384.776 120.37C385.452 119.29 385.938 118.422 386.235 117.767C386.824 114.982 387.504 112.812 388.273 111.256C389.045 109.669 389.85 108.565 390.69 107.943C391.562 107.324 392.382 107.038 393.148 107.086C394.01 107.139 394.716 107.391 395.265 107.842C395.847 108.294 396.09 109.287 395.995 110.82C395.945 111.619 395.536 112.796 394.766 114.351C393.997 115.907 392.994 117.608 391.758 119.455C391.413 120.877 391.162 122.352 391.003 123.881C390.844 125.41 390.851 126.853 391.023 128.211C391.923 127.657 392.857 126.817 393.824 125.691C394.794 124.532 395.771 123.246 396.756 121.833C397.743 120.387 398.731 118.941 399.718 117.495C400.707 116.017 401.672 114.666 402.614 113.442C403.587 112.22 404.513 111.251 405.39 110.536C406.302 109.791 407.173 109.444 408.004 109.496C408.866 109.549 409.639 109.757 410.321 110.12C411.038 110.453 411.61 111.065 412.035 111.957C412.495 112.819 412.804 114.041 412.963 115.622C413.155 117.172 413.175 119.193 413.02 121.685C412.939 122.994 412.988 124.28 413.167 125.541C413.347 126.771 413.716 127.803 414.273 128.639C414.833 129.443 415.655 129.879 416.741 129.946C418.498 130.055 420.081 129.864 421.49 129.374C422.901 128.852 424.142 128.224 425.213 127.489C426.285 126.753 427.174 126.119 427.88 125.586C428.62 125.022 429.182 124.753 429.565 124.776C430.204 124.816 430.671 125.037 430.967 125.44C431.296 125.813 431.444 126.271 431.411 126.814C431.391 127.134 431.085 127.676 430.493 128.441C429.934 129.175 429.162 129.993 428.177 130.894C427.225 131.765 426.115 132.61 424.846 133.429C423.611 134.219 422.305 134.859 420.928 135.351C419.551 135.843 418.175 136.046 416.802 135.961C414.311 135.807 412.278 135.233 410.705 134.238C409.165 133.213 408.062 131.605 407.396 129.416C406.764 127.197 406.562 124.251 406.789 120.578C406.803 120.354 406.816 120.147 406.827 119.955C406.839 119.763 406.851 119.572 406.863 119.38C406.912 118.582 406.939 117.894 406.943 117.317C406.978 116.742 406.926 116.29 406.786 115.961C406.222 116.791 405.532 117.839 404.716 119.103C403.932 120.369 403.063 121.726 402.108 123.174C401.152 124.621 400.134 126.049 399.053 127.457C398.004 128.867 396.947 130.148 395.882 131.301C394.817 132.453 393.766 133.366 392.731 134.039C391.727 134.715 390.794 135.025 389.932 134.972C389.293 134.933 388.61 134.57 387.883 133.884C387.188 133.199 386.619 132.298 386.175 131.181C385.733 130.031 385.555 128.754 385.642 127.349C384.162 128.988 382.643 130.481 381.085 131.828C379.529 133.142 378.007 134.17 376.518 134.912C375.059 135.687 373.691 136.035 372.414 135.956C371.36 135.891 370.356 135.524 369.404 134.856C368.483 134.19 367.72 133.053 367.114 131.444C366.508 129.836 366.198 127.588 366.185 124.702C364.567 126.494 362.899 128.058 361.181 129.394C359.496 130.732 357.845 131.752 356.231 132.454C354.648 133.158 353.171 133.467 351.797 133.382ZM446.99 113.351C449.005 109.275 450.821 105.059 452.437 100.703C452.748 99.8244 453.158 99.1604 453.667 98.711C454.207 98.2635 454.925 98.0674 455.819 98.1228C456.554 98.1682 457.099 98.4264 457.455 98.8972C457.812 99.3362 457.968 99.9229 457.923 100.658C457.885 101.264 457.562 102.334 456.955 103.868C456.349 105.369 455.605 107.279 454.725 109.597C453.844 111.915 452.94 114.6 452.014 117.653C451.088 120.706 450.254 124.069 449.514 127.742C448.774 131.415 448.273 135.36 448.012 139.576C447.941 140.726 447.659 141.654 447.167 142.361C446.704 143.102 445.946 143.44 444.892 143.374C443.742 143.303 442.92 142.852 442.427 142.019C441.965 141.189 441.773 140.152 441.85 138.906C442.002 136.447 442.208 134.407 442.469 132.788C442.763 131.14 443.043 129.73 443.308 128.56C441.577 131.146 439.773 133.359 437.895 135.199C436.052 137.008 434.3 138.375 432.64 139.298C430.978 140.253 429.572 140.695 428.422 140.624C426.538 140.507 425.037 139.886 423.921 138.758C422.804 137.631 422.312 135.998 422.445 133.858C422.547 132.197 423.052 130.513 423.96 128.806C424.869 127.067 426.031 125.375 427.448 123.732C428.864 122.088 430.401 120.564 432.059 119.16C433.751 117.725 435.43 116.483 437.099 115.432C438.769 114.349 440.311 113.514 441.726 112.929C443.141 112.343 444.279 112.077 445.142 112.13C446.1 112.189 446.716 112.596 446.99 113.351ZM445.728 115.869C445.528 115.985 445.313 116.1 445.081 116.214C444.884 116.298 444.685 116.398 444.486 116.514C443.225 117.205 441.874 118.052 440.433 119.053C438.995 120.022 437.564 121.119 436.142 122.346C434.721 123.54 433.409 124.806 432.204 126.142C431.033 127.448 430.07 128.767 429.314 130.099C428.592 131.401 428.193 132.675 428.116 133.92C428.102 134.144 428.188 134.309 428.373 134.417C428.559 134.525 428.732 134.584 428.892 134.593C430.009 134.663 431.238 134.242 432.577 133.331C433.947 132.422 435.358 131.13 436.808 129.457C438.292 127.753 439.779 125.745 441.268 123.432C442.79 121.122 444.277 118.601 445.728 115.869ZM514.066 143.903C513.14 143.846 512.455 143.515 512.011 142.91C511.6 142.308 511.424 141.512 511.486 140.521C511.535 139.723 511.61 139.038 511.709 138.467C511.808 137.896 511.974 137.297 512.205 136.671C512.438 136.012 512.728 135.212 513.075 134.272C513.455 133.301 513.933 132.064 514.507 130.561C514.849 129.685 515.273 128.54 515.777 127.129C516.315 125.687 516.861 124.118 517.415 122.421C517.971 120.692 518.447 118.958 518.843 117.219C519.273 115.451 519.534 113.816 519.627 112.314C519.69 111.292 519.525 110.336 519.131 109.446C515.979 112.201 512.932 115.86 509.988 120.423C507.077 124.988 504.405 130.337 501.974 136.47C501.27 137.998 500.502 139.008 499.67 139.502C498.84 139.963 498.058 140.172 497.323 140.126C497.1 140.112 496.772 139.964 496.341 139.681C495.911 139.365 495.528 138.829 495.19 138.07C494.852 137.312 494.725 136.262 494.808 134.921C494.828 134.601 494.932 134.207 495.121 133.738C495.313 133.237 495.586 132.709 495.941 132.154C496.331 130.51 496.648 128.751 496.893 126.874C497.171 124.968 497.384 123.073 497.533 121.191C497.715 119.279 497.858 117.492 497.961 115.831C498.04 114.554 498.013 113.43 497.881 112.46C496.193 114.343 494.56 116.647 492.981 119.37C491.401 122.094 489.939 125.001 488.594 128.092C487.28 131.185 486.162 134.226 485.24 137.214C485.003 137.937 484.737 138.61 484.442 139.233C484.149 139.824 483.735 140.295 483.2 140.647C482.699 140.969 481.986 141.101 481.059 141.043C480.037 140.98 479.297 140.518 478.837 139.656C478.377 138.794 478.19 137.676 478.275 136.302C478.34 135.248 478.648 133.905 479.198 132.272C479.749 130.607 480.47 128.808 481.359 126.875C482.25 124.91 483.255 122.92 484.373 120.906C485.526 118.861 486.721 116.899 487.96 115.02C489.198 113.141 490.44 111.47 491.684 110.008C492.963 108.516 494.157 107.356 495.266 106.527C496.409 105.668 497.428 105.266 498.322 105.321C498.354 105.323 498.402 105.326 498.466 105.33C499.169 105.374 499.804 105.477 500.371 105.64C500.972 105.774 501.478 106.142 501.889 106.744C502.335 107.317 502.694 108.253 502.966 109.552C503.238 110.852 503.43 112.675 503.541 115.022C503.57 115.601 503.575 116.291 503.558 117.091C503.542 117.86 503.509 118.659 503.457 119.49C504.657 117.191 505.945 115.043 507.319 113.044C508.725 111.047 510.148 109.291 511.588 107.777C513.06 106.265 514.495 105.104 515.892 104.292C517.288 103.481 518.562 103.111 519.711 103.182C521.053 103.265 522.278 103.678 523.386 104.419C524.496 105.129 525.355 106.273 525.963 107.849C526.571 109.426 526.793 111.539 526.629 114.19C526.455 117.001 526.03 119.716 525.355 122.335C524.682 124.923 523.89 127.358 522.98 129.643C522.069 131.927 521.17 134.019 520.283 135.92C519.398 137.789 518.656 139.41 518.058 140.784C517.582 141.748 517.052 142.533 516.47 143.138C515.889 143.712 515.088 143.967 514.066 143.903ZM563.207 148.723C561.961 148.646 561.072 148.255 560.539 147.548C560.003 146.874 559.796 145.563 559.916 143.614C560.019 141.953 560.424 139.814 561.131 137.197C561.838 134.58 562.622 131.759 563.482 128.734C559.692 132.475 555.447 134.745 550.749 135.545C549.704 137.404 548.51 139.093 547.165 140.613C545.821 142.133 544.383 143.343 542.853 144.242C541.356 145.111 539.826 145.497 538.261 145.4C536.312 145.28 534.675 144.537 533.349 143.173C532.055 141.81 531.489 139.803 531.653 137.153C531.764 135.364 532.129 133.864 532.749 132.652C533.371 131.408 534.054 130.488 534.796 129.893C534.296 128.643 534.094 127.236 534.191 125.671C534.322 123.563 535.012 121.731 536.263 120.173C537.513 118.615 539.11 117.431 541.051 116.622C543.025 115.814 545.13 115.479 547.365 115.618C548.611 115.695 549.773 116.087 550.851 116.795C551.963 117.473 552.831 118.473 553.455 119.794C554.113 121.085 554.382 122.689 554.263 124.605C554.165 126.202 553.816 127.944 553.219 129.83C555.569 128.629 557.919 126.931 560.267 124.736C562.647 122.543 564.805 120.047 566.742 117.249C567.338 116.421 568.131 116.037 569.121 116.098C569.952 116.15 570.591 116.446 571.038 116.986C571.519 117.497 571.735 118.152 571.686 118.95C571.676 119.11 571.548 119.631 571.301 120.513C571.054 121.396 570.726 122.546 570.318 123.963C569.911 125.349 569.464 126.876 568.976 128.545C568.52 130.216 568.062 131.919 567.602 133.654C567.142 135.389 566.72 137.03 566.336 138.577C567.259 137.127 568.252 135.586 569.315 133.952C570.412 132.289 571.539 130.659 572.695 129.064C573.854 127.436 574.987 125.967 576.094 124.657C577.201 123.347 578.21 122.319 579.122 121.574C580.036 120.797 580.796 120.427 581.403 120.465C582.617 120.54 583.617 120.955 584.404 121.709C585.191 122.463 585.562 123.207 585.516 123.942C585.471 124.676 585.321 125.805 585.066 127.328C584.812 128.852 584.497 130.563 584.123 132.464C583.783 134.334 583.426 136.22 583.052 138.121C582.678 140.021 582.362 141.749 582.106 143.304C581.851 144.827 581.7 145.972 581.653 146.739C581.613 147.377 581.272 147.965 580.63 148.503C579.988 149.04 579.283 149.285 578.517 149.238C578.453 149.234 578.341 149.227 578.181 149.217C577.796 149.225 577.449 149.14 577.139 148.96C576.828 148.813 576.586 148.317 576.414 147.472C576.273 146.63 576.264 145.219 576.387 143.239C576.47 141.897 576.625 140.432 576.851 138.843C577.078 137.254 577.336 135.667 577.627 134.082C577.951 132.467 578.285 130.964 578.627 129.575C577.712 130.897 576.689 132.405 575.558 134.098C574.461 135.762 573.313 137.47 572.115 139.223C570.918 140.945 569.745 142.539 568.597 144.007C567.482 145.445 566.448 146.599 565.497 147.47C564.577 148.343 563.814 148.761 563.207 148.723ZM546.184 131.607C546.676 130.387 547.091 129.115 547.43 127.789C547.77 126.431 547.981 125.098 548.062 123.788C548.096 123.245 548.016 122.711 547.825 122.187C547.633 121.662 547.265 121.383 546.722 121.349C545.636 121.282 544.552 121.439 543.471 121.821C542.421 122.205 541.535 122.791 540.813 123.58C540.091 124.369 539.694 125.339 539.623 126.488C539.56 127.51 539.842 128.394 540.469 129.138C541.128 129.884 541.958 130.464 542.958 130.879C543.991 131.295 545.018 131.535 546.04 131.598C546.072 131.6 546.12 131.603 546.184 131.607ZM543.958 135.702C542.843 135.601 541.766 135.39 540.727 135.069C539.691 134.716 538.758 134.258 537.927 133.693C537.8 134.198 537.673 134.688 537.548 135.161C537.424 135.602 537.35 136.03 537.324 136.445C537.28 137.148 537.353 137.794 537.541 138.382C537.763 138.941 538.257 139.244 539.023 139.292C539.822 139.341 540.642 139.039 541.484 138.386C542.358 137.735 543.183 136.84 543.958 135.702ZM624.786 125.842C624.762 126.226 624.613 126.553 624.34 126.825C624.067 127.096 623.734 127.3 623.341 127.436C622.784 127.626 621.824 127.855 620.461 128.124C619.097 128.392 617.444 128.69 615.5 129.019C613.588 129.35 611.531 129.687 609.329 130.032C607.13 130.345 604.931 130.641 602.734 130.922C601.714 133.937 600.672 137.047 599.608 140.251C598.546 143.424 597.487 146.548 596.431 149.625C596.042 150.723 595.607 151.546 595.124 152.093C594.639 152.672 593.854 152.928 592.768 152.861C591.586 152.788 590.812 152.355 590.444 151.563C590.106 150.804 590.12 149.795 590.487 148.536C591.533 145.106 592.5 141.911 593.388 138.952C594.308 135.996 595.05 133.605 595.611 131.78C593.675 131.981 591.983 132.133 590.534 132.235C589.086 132.306 588.06 132.307 587.456 132.237C586.789 132.132 586.247 131.826 585.829 131.319C585.412 130.812 585.241 130.209 585.316 129.508C585.419 128.873 585.74 128.348 586.279 127.932C586.82 127.485 587.444 127.235 588.153 127.183C589.149 127.148 590.435 127.083 592.012 126.989C593.589 126.894 595.328 126.777 597.228 126.638C597.744 125.035 598.327 123.388 598.976 121.697C599.628 119.974 600.291 118.331 600.965 116.77C601.672 115.179 602.335 113.793 602.953 112.613C603.571 111.433 604.12 110.585 604.601 110.07C604.978 109.676 605.429 109.384 605.954 109.192C606.511 109.002 607.045 108.923 607.556 108.954C608.226 108.996 608.755 109.269 609.14 109.774C609.526 110.278 609.699 110.85 609.659 111.489C609.643 111.744 609.611 112.015 609.561 112.3C609.513 112.554 609.434 112.805 609.322 113.055C608.616 114.614 607.842 116.506 606.999 118.73C606.188 120.957 605.331 123.404 604.429 126.074C606.846 125.871 609.215 125.665 611.536 125.455C613.892 125.216 616.021 124.996 617.925 124.793C619.863 124.56 621.415 124.351 622.581 124.167C623.234 123.983 623.774 124.065 624.201 124.412C624.63 124.727 624.825 125.204 624.786 125.842ZM616.932 150.709C616.134 150.66 615.465 150.33 614.925 149.719C614.418 149.111 614.198 148.263 614.265 147.177C614.295 146.698 614.407 145.92 614.602 144.842C614.831 143.734 615.101 142.468 615.414 141.045C615.758 139.623 616.091 138.137 616.411 136.586C616.764 135.037 617.063 133.564 617.31 132.169C617.588 130.775 617.79 129.586 617.915 128.599C618.054 127.39 618.427 126.547 619.033 126.072C619.642 125.564 620.345 125.335 621.144 125.385C621.783 125.424 622.348 125.619 622.839 125.97C623.364 126.292 623.661 126.935 623.729 127.901C623.832 128.837 623.765 130.18 623.528 131.928C625.092 129.46 626.654 127.265 628.216 125.341C629.81 123.42 631.442 121.918 633.112 120.835C635.887 118.987 638.345 118.129 640.485 118.262C641.698 118.337 642.48 118.657 642.83 119.224C643.179 119.791 643.337 120.362 643.301 120.937C643.277 121.32 643.16 121.665 642.948 121.973C642.769 122.282 642.397 122.596 641.832 122.914C641.267 123.231 640.408 123.643 639.255 124.149C637.706 124.822 636.159 125.737 634.613 126.891C633.098 128.048 631.562 129.556 630.004 131.415C628.447 133.275 626.845 135.58 625.2 138.332C623.555 141.084 621.828 144.375 620.02 148.207C619.666 149.275 619.206 149.968 618.641 150.286C618.109 150.605 617.539 150.746 616.932 150.709ZM643.59 152.879C641.61 152.757 640.055 151.971 638.926 150.523C637.8 149.042 637.332 146.753 637.524 143.655C637.646 141.675 637.992 139.709 638.562 137.756C639.166 135.773 639.938 133.914 640.879 132.176C641.854 130.409 642.944 128.858 644.149 127.521C645.386 126.187 646.715 125.163 648.138 124.45C649.563 123.705 651.01 123.377 652.479 123.468C654.97 123.622 656.877 124.414 658.199 125.842C659.522 127.27 660.119 129.023 659.99 131.099C659.891 132.696 659.354 134.121 658.379 135.375C657.438 136.599 656.185 137.676 654.62 138.605C653.056 139.534 651.322 140.357 649.418 141.073C647.514 141.789 645.567 142.422 643.578 142.972C643.347 144.112 643.204 145.129 643.148 146.023C643.115 146.566 643.401 146.856 644.008 146.894C645.445 146.983 646.992 146.854 648.649 146.508C650.339 146.131 652.054 145.628 653.792 144.998C655.532 144.337 657.209 143.655 658.824 142.953C660.44 142.22 661.91 141.525 663.233 140.87C664.59 140.184 665.697 139.643 666.555 139.248C667.447 138.822 668.021 138.617 668.277 138.633C668.979 138.676 669.478 138.915 669.771 139.35C670.065 139.785 670.197 140.242 670.167 140.721C670.153 140.945 669.692 141.413 668.782 142.127C667.904 142.842 666.698 143.681 665.164 144.644C663.663 145.577 661.968 146.546 660.078 147.551C658.222 148.527 656.29 149.449 654.28 150.319C652.305 151.158 650.389 151.809 648.533 152.271C646.707 152.768 645.059 152.97 643.59 152.879ZM644.656 138.758C646.013 138.073 647.356 137.354 648.685 136.603C650.048 135.822 651.193 134.931 652.12 133.93C653.05 132.897 653.559 131.663 653.648 130.225C653.674 129.81 653.579 129.532 653.363 129.39C653.149 129.217 652.835 129.117 652.42 129.091C651.302 129.022 650.249 129.454 649.262 130.387C648.306 131.321 647.429 132.55 646.629 134.071C645.864 135.563 645.206 137.125 644.656 138.758ZM682.056 155.788C681.321 155.743 680.669 155.398 680.1 154.754C679.56 154.143 679.333 153.151 679.418 151.778C679.481 150.756 679.649 149.339 679.922 147.529C680.228 145.688 680.726 143.331 681.417 140.456C680.157 142.686 678.865 144.658 677.541 146.372C676.216 148.085 674.932 149.416 673.687 150.365C672.475 151.284 671.343 151.711 670.289 151.646C668.596 151.541 667.286 150.947 666.36 149.864C665.435 148.749 665.061 146.754 665.239 143.879C665.324 142.506 665.532 140.964 665.862 139.253C666.224 137.544 666.65 135.839 667.14 134.138C667.63 132.437 668.108 130.928 668.575 129.61C669.075 128.262 669.505 127.263 669.866 126.612C670.157 126.053 670.504 125.625 670.907 125.33C671.342 125.036 671.879 124.909 672.518 124.949C673.54 125.012 674.302 125.396 674.803 126.1C675.305 126.804 675.534 127.508 675.49 128.21C675.457 128.753 675.28 129.528 674.962 130.534C674.675 131.542 674.317 132.658 673.889 133.882C673.492 135.108 673.078 136.365 672.646 137.653C672.213 138.94 671.834 140.151 671.507 141.285C671.212 142.421 671.04 143.388 670.991 144.187C670.93 145.177 671.282 145.696 672.049 145.743C672.496 145.771 673.098 145.375 673.854 144.556C674.642 143.74 675.479 142.637 676.367 141.249C677.288 139.832 678.217 138.286 679.154 136.613C680.125 134.909 681.018 133.185 681.831 131.44C682.678 129.665 683.405 128.027 684.011 126.525C684.389 125.587 684.862 124.943 685.429 124.593C685.995 124.243 686.63 124.09 687.333 124.134C688.418 124.201 689.23 124.556 689.767 125.198C690.337 125.843 690.587 126.724 690.518 127.842C690.486 128.353 690.353 129.21 690.118 130.414C689.883 131.618 689.588 133.026 689.231 134.639C688.907 136.254 688.529 137.962 688.097 139.763C687.665 141.564 687.235 143.332 686.807 145.069C686.41 146.808 686.023 148.403 685.645 149.855C685.268 151.274 684.958 152.409 684.713 153.26C684.314 154.517 683.884 155.26 683.421 155.488C682.958 155.716 682.503 155.816 682.056 155.788ZM693.774 153.387C693.007 153.34 692.464 153.05 692.144 152.517C691.827 151.953 691.724 151.273 691.838 150.478C691.897 150.033 692.288 149.416 693.01 148.627C693.734 147.806 694.675 146.855 695.832 145.772C696.991 144.658 698.267 143.47 699.659 142.21C701.086 140.919 702.545 139.615 704.037 138.297C702.441 135.601 701.244 133.443 700.446 131.822C699.681 130.204 699.294 128.946 699.285 128.047C699.282 127.053 699.492 126.265 699.912 125.682C700.365 125.101 701.039 124.838 701.933 124.893C702.444 124.925 702.956 125.197 703.469 125.709C704.015 126.224 704.679 127.147 705.462 128.478C706.278 129.811 707.348 131.688 708.673 134.111C711.013 132.043 712.928 130.366 714.418 129.08C715.942 127.764 717.159 126.749 718.069 126.036C719.011 125.324 719.73 124.84 720.227 124.582C720.756 124.326 721.196 124.209 721.547 124.231C722.314 124.278 722.84 124.584 723.126 125.146C723.445 125.679 723.548 126.359 723.432 127.185C723.327 127.852 722.877 128.642 722.084 129.554C721.324 130.437 720.35 131.403 719.163 132.451C717.978 133.468 716.694 134.527 715.312 135.628C713.963 136.698 712.647 137.755 711.364 138.798C713.171 141.731 714.871 144.305 716.465 146.52C718.093 148.704 719.408 150.517 720.409 151.958C721.412 153.366 721.909 154.391 721.902 155.032C721.924 155.706 721.716 156.223 721.277 156.58C720.87 156.94 720.299 157.097 719.565 157.051C719.149 157.026 718.647 156.85 718.058 156.525C717.469 156.2 716.691 155.559 715.725 154.601C714.79 153.646 713.595 152.225 712.141 150.34C710.72 148.425 708.955 145.863 706.845 142.654C705.453 143.915 704.06 145.175 702.668 146.436C701.307 147.698 700.017 148.868 698.796 149.947C697.609 150.996 696.562 151.845 695.656 152.494C694.785 153.113 694.157 153.411 693.774 153.387ZM758.437 128.053C756.808 127.952 755.668 127.737 755.015 127.408C754.364 127.047 753.988 126.639 753.888 126.184C753.788 125.729 753.753 125.262 753.782 124.783L753.785 124.735C753.819 124.192 754.144 123.603 754.76 122.968C755.409 122.335 756.347 121.944 757.574 121.795C759.324 121.487 761.211 121.315 763.233 121.28C765.257 121.213 767.228 121.222 769.146 121.309C771.098 121.366 772.809 121.439 774.278 121.53C775.746 121.653 776.849 121.962 777.587 122.456C778.328 122.919 778.81 123.43 779.032 123.989C779.287 124.517 779.403 124.973 779.38 125.357C779.348 125.868 779.122 126.415 778.701 126.998C778.282 127.549 777.418 127.784 776.109 127.703C775.63 127.674 774.957 127.664 774.091 127.674C773.224 127.685 772.26 127.722 771.198 127.784C771.006 129.343 770.676 131.295 770.211 133.638C769.745 135.982 769.108 138.507 768.299 141.215C767.524 143.892 766.556 146.589 765.394 149.307C764.266 151.994 762.908 154.507 761.321 156.846C759.767 159.154 757.979 161.111 755.956 162.717C753.965 164.326 751.704 165.372 749.173 165.857C748.654 165.953 748.201 166.021 747.814 166.061C747.457 166.135 747.022 166.156 746.511 166.125C745.585 166.067 744.83 165.828 744.247 165.408C743.664 164.987 743.316 164.388 743.204 163.612C743.102 162.676 743.268 161.804 743.703 160.997C744.103 160.221 744.808 159.719 745.816 159.493C748.195 158.871 750.275 157.893 752.057 156.561C753.872 155.198 755.479 153.326 756.877 150.944C758.308 148.532 759.588 145.469 760.715 141.755C761.877 138.012 762.961 133.446 763.968 128.058C762.876 128.087 761.849 128.103 760.887 128.108C759.924 128.112 759.108 128.094 758.437 128.053ZM777.459 161.355C776.437 161.292 775.529 160.947 774.734 160.321C773.937 159.726 773.327 158.967 772.903 158.043C772.481 157.087 772.303 156.082 772.368 155.028C772.491 153.048 773.042 151.143 774.02 149.311C775.031 147.482 776.308 145.766 777.85 144.162C779.392 142.558 781.053 141.106 782.832 139.806C784.646 138.475 786.431 137.351 788.187 136.434C789.975 135.518 791.589 134.817 793.03 134.329C794.503 133.843 795.639 133.625 796.437 133.674C797.363 133.731 798.101 133.985 798.65 134.436C799.233 134.857 799.499 135.483 799.448 136.313C799.432 136.568 799.355 136.772 799.218 136.924C799.627 137.045 799.947 137.306 800.179 137.705C800.411 138.104 800.503 138.687 800.456 139.453C800.436 139.773 800.305 140.598 800.062 141.93C799.819 143.261 799.543 144.879 799.233 146.784C798.954 148.69 798.751 150.681 798.623 152.757C798.603 153.077 798.633 153.367 798.713 153.629C798.795 153.858 798.996 153.983 799.315 154.003C800.593 154.082 801.902 153.906 803.243 153.476C804.618 153.016 805.952 152.441 807.245 151.752C808.572 151.033 809.77 150.321 810.84 149.618C811.943 148.885 812.862 148.284 813.596 147.817C814.365 147.319 814.86 147.077 815.084 147.091C816.17 147.158 816.679 147.735 816.612 148.821C816.594 149.108 816.205 149.693 815.445 150.576C814.719 151.429 813.729 152.41 812.474 153.518C811.221 154.595 809.825 155.663 808.284 156.722C806.778 157.751 805.219 158.584 803.609 159.222C802.03 159.861 800.523 160.137 799.085 160.048C797.329 159.939 796.013 159.441 795.138 158.553C794.295 157.668 793.726 156.51 793.429 155.081C793.167 153.622 793.075 151.997 793.154 150.207C791.381 152.438 789.559 154.409 787.69 156.121C785.855 157.803 784.058 159.118 782.3 160.067C780.542 161.017 778.928 161.446 777.459 161.355ZM795.904 138.402C792.681 139.71 789.764 141.26 787.152 143.054C784.542 144.817 782.437 146.706 780.838 148.723C779.27 150.742 778.426 152.726 778.305 154.674C778.272 155.217 778.511 155.505 779.022 155.536C779.628 155.574 780.449 155.272 781.482 154.63C782.548 153.991 783.707 153.133 784.96 152.056C786.215 150.948 787.477 149.711 788.748 148.347C790.021 146.951 791.216 145.518 792.332 144.048C793.449 142.578 794.355 141.16 795.049 139.792C795.304 139.295 795.589 138.831 795.904 138.402ZM831.725 164.087C831.406 164.068 830.8 164.014 829.908 163.927C829.015 163.84 827.948 163.725 826.707 163.584C825.465 163.443 824.176 163.3 822.838 163.153C821.533 163.008 820.29 162.883 819.11 162.778C817.93 162.673 816.973 162.597 816.239 162.552C815.089 162.481 814.152 162.07 813.429 161.32C812.74 160.54 812.436 159.495 812.517 158.186C812.565 157.419 813.042 156.439 813.949 155.245C814.891 154.02 816.096 152.684 817.564 151.236C819.034 149.756 820.617 148.267 822.313 146.769C824.041 145.273 825.746 143.871 827.43 142.565C829.148 141.229 830.661 140.088 831.97 139.143C829.845 139.3 827.796 139.51 825.824 139.772C823.852 140.035 822.138 140.266 820.683 140.464C819.26 140.665 818.293 140.749 817.782 140.718C816.856 140.66 816.137 140.359 815.626 139.815C815.116 139.238 814.889 138.503 814.945 137.608C814.968 137.225 815.392 136.851 816.216 136.485C817.042 136.087 818.154 135.739 819.551 135.441C820.948 135.143 822.519 134.887 824.264 134.674C826.04 134.464 827.875 134.337 829.77 134.294C831.698 134.221 833.588 134.241 835.441 134.356C836.335 134.411 837.072 134.681 837.651 135.166C838.264 135.621 838.709 136.193 838.987 136.884C839.299 137.544 839.434 138.21 839.393 138.881C839.377 139.136 838.993 139.641 838.241 140.396C837.489 141.151 836.501 142.084 835.278 143.195C834.057 144.274 832.702 145.456 831.211 146.742C829.723 147.997 828.233 149.283 826.741 150.602C825.282 151.89 823.924 153.121 822.665 154.293C821.406 155.466 820.381 156.492 819.589 157.373C820.836 157.418 822.245 157.457 823.814 157.49C825.383 157.523 826.904 157.553 828.377 157.58C829.85 157.607 831.13 157.638 832.218 157.674C833.306 157.709 833.994 157.735 834.281 157.753C835.303 157.816 836.023 158.101 836.441 158.608C836.858 159.115 837.047 159.688 837.008 160.326C836.948 161.285 836.428 162.182 835.446 163.019C834.499 163.826 833.258 164.182 831.725 164.087ZM860.792 165.886C860.473 165.866 859.867 165.813 858.975 165.725C858.082 165.638 857.015 165.524 855.774 165.383C854.532 165.242 853.242 165.098 851.905 164.951C850.599 164.806 849.357 164.681 848.177 164.576C846.997 164.471 846.04 164.396 845.305 164.35C844.156 164.279 843.219 163.869 842.496 163.119C841.807 162.339 841.503 161.294 841.584 159.984C841.631 159.218 842.109 158.237 843.016 157.043C843.958 155.819 845.163 154.483 846.631 153.035C848.101 151.555 849.684 150.066 851.38 148.567C853.107 147.071 854.813 145.67 856.497 144.363C858.215 143.027 859.728 141.886 861.037 140.941C858.911 141.098 856.862 141.308 854.89 141.571C852.919 141.834 851.205 142.064 849.75 142.263C848.327 142.463 847.36 142.548 846.849 142.516C845.923 142.459 845.204 142.158 844.692 141.613C844.183 141.037 843.956 140.301 844.011 139.407C844.035 139.024 844.459 138.649 845.283 138.283C846.109 137.886 847.221 137.538 848.618 137.239C850.015 136.941 851.586 136.686 853.33 136.473C855.107 136.262 856.942 136.135 858.836 136.092C860.765 136.019 862.655 136.04 864.507 136.155C865.402 136.21 866.138 136.48 866.718 136.965C867.331 137.419 867.776 137.992 868.054 138.682C868.366 139.343 868.501 140.008 868.459 140.679C868.444 140.935 868.06 141.44 867.308 142.195C866.556 142.95 865.568 143.883 864.345 144.993C863.124 146.072 861.769 147.255 860.278 148.541C858.79 149.795 857.3 151.082 855.807 152.4C854.349 153.689 852.991 154.919 851.732 156.092C850.473 157.264 849.448 158.291 848.656 159.172C849.903 159.217 851.312 159.256 852.88 159.289C854.449 159.322 855.97 159.352 857.444 159.379C858.917 159.406 860.197 159.437 861.285 159.472C862.373 159.507 863.061 159.534 863.348 159.552C864.37 159.615 865.09 159.9 865.508 160.407C865.925 160.913 866.114 161.486 866.075 162.125C866.015 163.083 865.495 163.981 864.513 164.818C863.566 165.625 862.325 165.981 860.792 165.886Z" fill="#7758CA"/>
</svg>
