<svg width="603" height="270" viewBox="0 0 603 270" fill="none" xmlns="http://www.w3.org/2000/svg">
<path d="M61.5592 53.0731C60.325 52.8877 59.4731 52.42 59.0033 51.6699C58.5287 50.9514 58.4364 49.627 58.7264 47.6967C58.9736 46.0511 59.5634 43.9555 60.4959 41.4098C61.4284 38.8641 62.4551 36.1221 63.576 33.1841C59.474 36.5804 55.0479 38.4719 50.2977 38.8586C49.0948 40.6195 47.7575 42.1983 46.2856 43.5952C44.8138 44.992 43.2764 46.0716 41.6734 46.834C40.1067 47.5694 38.5481 47.8207 36.9975 47.5878C35.0672 47.2978 33.5009 46.4154 32.2986 44.9404C31.128 43.4702 30.74 41.4219 31.1345 38.7953C31.4007 37.0232 31.8955 35.5605 32.6188 34.4071C33.3469 33.2221 34.1066 32.3655 34.8979 31.8371C34.5089 30.5491 34.4309 29.1297 34.6638 27.5791C34.9775 25.4906 35.8252 23.7249 37.2068 22.2821C38.5885 20.8394 40.2818 19.7993 42.2867 19.1621C44.3232 18.5296 46.4491 18.3797 48.6642 18.7124C49.8984 18.8978 51.0217 19.3902 52.0342 20.1894C53.0831 20.9618 53.8606 22.0332 54.3666 23.4036C54.9091 24.747 55.0377 26.3681 54.7525 28.2668C54.5148 29.8491 54.0161 31.5539 53.2562 33.3813C55.7026 32.3897 58.1911 30.9029 60.7216 28.9208C63.2837 26.9434 65.6513 24.6456 67.8244 22.0274C68.4907 21.2537 69.3143 20.9406 70.2953 21.088C71.1181 21.2116 71.7288 21.5622 72.1274 22.1398C72.5624 22.6905 72.7205 23.3614 72.6017 24.1526C72.5779 24.3108 72.4045 24.8187 72.0816 25.6762C71.7586 26.5338 71.332 27.6508 70.8016 29.0273C70.276 30.3721 69.6974 31.8546 69.0657 33.4747C68.4657 35.0996 67.8609 36.7562 67.2514 38.4444C66.6418 40.1326 66.0782 41.7306 65.5605 43.2384C66.6067 41.8747 67.7304 40.4255 68.9317 38.8909C70.1693 37.3295 71.4339 35.8044 72.7254 34.3157C74.0216 32.7954 75.2782 31.4309 76.4953 30.2223C77.7123 29.0137 78.8074 28.0779 79.7807 27.4152C80.7587 26.7207 81.5483 26.4187 82.1496 26.509C83.3521 26.6896 84.3124 27.1898 85.0306 28.0096C85.7488 28.8294 86.0533 29.6032 85.9439 30.331C85.8346 31.0589 85.5867 32.1704 85.2004 33.6656C84.814 35.1608 84.3516 36.8387 83.8132 38.6994C83.3113 40.5331 82.7911 42.3804 82.2527 44.241C81.7144 46.1017 81.2496 47.7955 80.8585 49.3223C80.4721 50.8175 80.2218 51.9448 80.1078 52.7043C80.0127 53.3372 79.6217 53.8933 78.9349 54.3726C78.2481 54.8519 77.525 55.0345 76.7655 54.9204C76.7022 54.9109 76.5914 54.8943 76.4332 54.8705C76.0487 54.8451 75.7101 54.7295 75.4174 54.5238C75.12 54.3497 74.9223 53.8346 74.8244 52.9785C74.7581 52.1273 74.8723 50.7206 75.1671 48.7586C75.3667 47.4295 75.6486 45.9834 76.0129 44.4201C76.3771 42.8569 76.773 41.2984 77.2006 39.7447C77.6645 38.1641 78.1276 36.6966 78.59 35.3422C77.5628 36.5794 76.4122 37.9921 75.1381 39.5805C73.9004 41.142 72.6081 42.7438 71.2613 44.3859C69.9191 45.9964 68.6119 47.4827 67.3394 48.8448C66.1034 50.18 64.9734 51.2399 63.9495 52.0246C62.9572 52.8139 62.1604 53.1634 61.5592 53.0731ZM46.0929 34.5381C46.6896 33.3657 47.2144 32.134 47.6672 30.8429C48.1248 29.5202 48.451 28.2101 48.6459 26.9127C48.7267 26.3747 48.6944 25.836 48.5489 25.2964C48.4035 24.7568 48.0618 24.4466 47.5238 24.3658C46.4479 24.2041 45.3545 24.2664 44.2436 24.5526C43.1645 24.8435 42.2308 25.3504 41.4427 26.0734C40.6545 26.7963 40.1749 27.7274 40.0038 28.8666C39.8517 29.8793 40.0556 30.7836 40.6156 31.5796C41.2072 32.3804 41.9832 33.0309 42.9435 33.5311C43.9355 34.036 44.9378 34.3646 45.9505 34.5167C45.9821 34.5214 46.0296 34.5286 46.0929 34.5381ZM43.5193 38.4229C42.4164 38.2249 41.3619 37.9208 40.3556 37.5108C39.3541 37.0691 38.4642 36.531 37.6858 35.8963C37.5149 36.3884 37.3462 36.8646 37.18 37.325C37.0185 37.7538 36.9069 38.1739 36.8451 38.5853C36.7405 39.2815 36.7562 39.931 36.8922 40.5339C37.0645 41.1099 37.5304 41.4549 38.2899 41.569C39.081 41.6878 39.9244 41.4586 40.8201 40.8812C41.7475 40.3086 42.6472 39.4892 43.5193 38.4229ZM98.8758 58.6299C96.0277 58.2021 93.9116 56.9944 92.5275 55.0067C91.1798 52.9922 90.7508 50.3552 91.2404 47.0958C91.5066 45.3237 92.0553 43.2866 92.8864 40.9845C93.7224 38.6508 94.7197 36.2119 95.8785 33.6678C97.0736 31.0968 98.3115 28.5646 99.5921 26.0711C100.904 23.5824 102.172 21.2813 103.396 19.1676C104.619 17.0539 105.677 15.2874 106.57 13.8683C107.316 12.783 108.211 12.3188 109.255 12.4756C109.919 12.5755 110.426 12.862 110.776 13.3351C111.157 13.8131 111.279 14.5109 111.141 15.4286C111.075 15.8716 110.708 16.8035 110.042 18.2243C109.375 19.6451 108.514 21.3925 107.458 23.4667C106.439 25.514 105.33 27.7258 104.132 30.1022C102.965 32.4833 101.828 34.885 100.72 37.3073C99.6431 39.7343 98.7146 42.0379 97.9341 44.2182C97.1583 46.3668 96.654 48.2164 96.4211 49.767C96.326 50.3999 96.424 50.9323 96.715 51.3644C97.0377 51.8011 97.4997 52.0647 98.101 52.155C99.3984 52.3499 100.763 52.3122 102.195 52.0419C103.659 51.7764 105.11 51.3795 106.548 50.8514C108.018 50.3279 109.416 49.7451 110.743 49.103C112.069 48.4608 113.261 47.8472 114.32 47.2619C115.415 46.6498 116.296 46.1674 116.964 45.8147C117.846 45.3322 118.429 45.1124 118.713 45.1552C119.789 45.3168 120.249 45.9198 120.092 46.9641C120.054 47.2172 119.659 47.6918 118.907 48.3879C118.265 49.0033 117.372 49.7752 116.23 50.7038C115.087 51.6324 113.777 52.6005 112.299 53.6081C110.857 54.5888 109.33 55.492 107.717 56.3176C106.136 57.148 104.584 57.7885 103.06 58.2392C101.536 58.6898 100.142 58.8201 98.8758 58.6299ZM117.022 59.6568C116.136 59.5238 115.39 59.1043 114.784 58.3985C114.21 57.6974 114.025 56.6665 114.229 55.3057C114.339 54.5779 114.588 53.5637 114.978 52.2631C115.399 50.9673 115.9 49.5703 116.481 48.0719C117.067 46.542 117.682 45.0326 118.326 43.5438C119.002 42.0597 119.636 40.7473 120.228 39.6066C120.825 38.4343 121.326 37.5712 121.733 37.0175C122.254 36.3515 122.7 35.9655 123.072 35.8595C123.48 35.7267 123.859 35.6864 124.207 35.7387C124.84 35.8338 125.396 36.1116 125.877 36.5721C126.39 37.0375 126.549 37.9188 126.354 39.2163C126.278 39.7226 126.059 40.5311 125.698 41.6418C125.342 42.7208 124.91 43.9826 124.402 45.4272C123.893 46.8717 123.346 48.359 122.761 49.8889C122.207 51.4236 121.664 52.8792 121.134 54.2557C120.64 55.6053 120.227 56.7405 119.894 57.6614C119.617 58.4287 119.197 58.9642 118.634 59.2679C118.097 59.608 117.56 59.7377 117.022 59.6568ZM126.859 31.3318C125.814 31.1749 124.894 30.7293 124.099 29.995C123.308 29.229 123.01 28.1972 123.204 26.8998C123.366 25.8239 123.766 24.994 124.404 24.4103C125.041 23.8266 125.746 23.447 126.516 23.2715C127.323 23.0691 128.012 23.0107 128.581 23.0963C129.151 23.1818 129.765 23.4035 130.423 23.7612C131.086 24.0873 131.623 24.6048 132.034 25.3138C132.482 25.9958 132.62 26.9065 132.449 28.0457C132.335 28.8052 131.961 29.461 131.328 30.0131C130.7 30.5335 129.964 30.9084 129.121 31.1376C128.309 31.3716 127.555 31.4364 126.859 31.3318ZM132.953 61.3217C132.193 61.2076 131.472 60.8404 130.788 60.22C130.141 59.5727 129.654 58.7229 129.327 57.6706C129.004 56.5867 128.95 55.3327 129.164 53.9087C129.449 52.01 130.006 50.0227 130.836 47.9469C131.697 45.8759 132.669 43.8215 133.752 41.7837C134.835 39.7459 135.882 37.8323 136.895 36.0429C137.381 35.1775 137.901 34.6246 138.455 34.3842C139.014 34.1122 139.704 34.038 140.527 34.1616C142.394 34.442 143.188 35.5158 142.907 37.3828C142.86 37.6993 142.625 38.295 142.202 39.1699C141.784 40.0132 141.24 41.0479 140.571 42.274C139.933 43.5049 139.247 44.8418 138.512 46.2847C137.814 47.7007 137.143 49.1531 136.498 50.6419C135.891 52.1039 135.374 53.4986 134.948 54.826C135.842 53.8278 136.856 52.5724 137.989 51.06C139.159 49.5206 140.388 47.9093 141.676 46.226C142.996 44.5475 144.297 42.9955 145.579 41.5701C146.865 40.1131 148.091 38.9543 149.256 38.0938C150.421 37.2333 151.462 36.8719 152.38 37.0098C153.171 37.1286 153.891 37.3985 154.539 37.8196C155.224 38.2137 155.772 38.8784 156.181 39.8136C156.596 40.7172 156.829 41.9656 156.881 43.559C156.964 45.1572 156.816 47.222 156.436 49.7536C156.245 51.0194 156.171 52.2702 156.212 53.506C156.289 54.7149 156.553 55.7577 157.004 56.6344C157.459 57.4794 158.209 57.9804 159.254 58.1372C161.057 58.4082 162.721 58.3183 164.245 57.8677C165.769 57.417 167.135 56.8295 168.344 56.1051C169.553 55.3806 170.572 54.7408 171.399 54.1856C171.909 53.8091 172.341 53.518 172.695 53.3124C173.081 53.1115 173.385 53.0277 173.607 53.061C174.271 53.1608 174.72 53.4062 174.952 53.7971C175.217 54.1927 175.303 54.6911 175.213 55.2924C175.166 55.6088 174.809 56.1539 174.142 56.9275C173.476 57.7011 172.569 58.568 171.422 59.5282C170.311 60.4615 169.062 61.3418 167.676 62.1691C166.29 62.9963 164.835 63.6353 163.311 64.0859C161.787 64.5366 160.281 64.6502 158.794 64.4268C156.294 64.0513 154.288 63.2969 152.776 62.1636C151.3 61.0035 150.325 59.3039 149.853 57.0649C149.385 54.7942 149.429 51.8076 149.985 48.1051C149.999 48.0102 150.023 47.852 150.056 47.6305C150.204 46.6495 150.318 45.7769 150.401 45.0126C150.515 44.2531 150.56 43.6289 150.537 43.14C149.851 44.0402 149.027 45.1136 148.063 46.3603C147.131 47.6117 146.121 48.9485 145.033 50.3708C143.951 51.7614 142.839 53.1314 141.698 54.4809C140.562 55.7987 139.444 56.9899 138.346 58.0546C137.279 59.124 136.28 59.9608 135.348 60.5651C134.416 61.1693 133.617 61.4215 132.953 61.3217ZM174.198 69.1676C172.236 68.8729 170.756 67.9548 169.758 66.4135C168.765 64.8404 168.499 62.5192 168.96 59.4496C169.254 57.4876 169.771 55.5589 170.508 53.6635C171.283 51.7411 172.214 49.9557 173.303 48.3072C174.428 46.6317 175.65 45.181 176.966 43.955C178.315 42.7337 179.729 41.8298 181.208 41.243C182.692 40.6247 184.162 40.4248 185.618 40.6435C188.086 41.0142 189.917 41.9687 191.11 43.507C192.302 45.0452 192.744 46.8428 192.435 48.8997C192.198 50.482 191.538 51.8553 190.457 53.0196C189.413 54.1571 188.071 55.1204 186.431 55.9096C184.792 56.6989 182.993 57.367 181.034 57.9141C179.075 58.4612 177.08 58.922 175.05 59.2966C174.721 60.412 174.49 61.4128 174.356 62.2988C174.276 62.8368 174.536 63.1509 175.137 63.2413C176.561 63.4552 178.113 63.4618 179.794 63.2612C181.511 63.0337 183.262 62.682 185.049 62.2061C186.84 61.6986 188.57 61.1657 190.24 60.6075C191.914 60.0176 193.439 59.4538 194.814 58.9161C196.225 58.3516 197.376 57.9095 198.265 57.5901C199.191 57.2438 199.78 57.0896 200.033 57.1276C200.73 57.2322 201.205 57.514 201.46 57.9729C201.714 58.4318 201.806 58.8986 201.735 59.3733C201.701 59.5948 201.201 60.0211 200.232 60.6523C199.295 61.2881 198.021 62.0189 196.408 62.8445C194.832 63.6433 193.059 64.461 191.089 65.2976C189.155 66.1073 187.149 66.8577 185.071 67.5487C183.03 68.2129 181.065 68.6943 179.176 68.993C177.313 69.328 175.654 69.3862 174.198 69.1676ZM176.492 55.1932C177.903 54.6286 179.304 54.03 180.693 53.3973C182.119 52.7378 183.337 51.9501 184.349 51.0341C185.365 50.0866 185.98 48.9008 186.193 47.4767C186.255 47.0653 186.185 46.7797 185.982 46.6199C185.785 46.4284 185.48 46.3017 185.069 46.2399C183.961 46.0736 182.875 46.412 181.81 47.2551C180.776 48.103 179.795 49.25 178.866 50.696C177.973 52.1151 177.182 53.6142 176.492 55.1932ZM219.077 76.1029C218.064 75.9508 217.189 75.5282 216.452 74.835C215.71 74.1734 215.168 73.3639 214.827 72.4066C214.49 71.4176 214.4 70.4009 214.557 69.3567C214.851 67.3947 215.566 65.5443 216.701 63.8056C217.868 62.0716 219.289 60.473 220.965 59.0097C222.641 57.5465 224.422 56.2446 226.308 55.1041C228.231 53.9368 230.107 52.9728 231.936 52.2121C233.797 51.4561 235.467 50.8979 236.944 50.5375C238.454 50.1817 239.604 50.0633 240.396 50.1821C241.313 50.32 242.026 50.6374 242.534 51.1343C243.078 51.6044 243.288 52.2508 243.165 53.0736C243.127 53.3267 243.033 53.5229 242.882 53.6621C243.279 53.8189 243.576 54.1061 243.772 54.5239C243.968 54.9416 244.009 55.5303 243.895 56.2897C243.848 56.6062 243.645 57.4171 243.287 58.7224C242.929 60.0277 242.513 61.6155 242.038 63.4857C241.594 65.3606 241.218 67.3265 240.909 69.3834C240.861 69.6999 240.866 69.9918 240.923 70.2592C240.985 70.495 241.174 70.6367 241.49 70.6842C242.756 70.8743 244.076 70.8137 245.449 70.5023C246.859 70.1639 248.238 69.7077 249.586 69.1336C250.971 68.5327 252.227 67.9285 253.353 67.3211C254.517 66.6868 255.484 66.1688 256.256 65.7671C257.065 65.3385 257.58 65.1408 257.802 65.1741C258.878 65.3357 259.335 65.9544 259.173 67.0304C259.13 67.3152 258.692 67.8641 257.858 68.6773C257.06 69.4635 255.988 70.3541 254.641 71.3491C253.299 72.3125 251.815 73.2544 250.188 74.175C248.598 75.0686 246.973 75.7629 245.313 76.2579C243.684 76.7575 242.158 76.9004 240.734 76.6865C238.994 76.4251 237.726 75.814 236.932 74.8534C236.17 73.8976 235.703 72.6949 235.533 71.2455C235.399 69.7692 235.449 68.1426 235.683 66.3657C233.722 68.4334 231.736 70.2384 229.725 71.7807C227.75 73.2961 225.845 74.45 224.011 75.2424C222.177 76.0347 220.532 76.3216 219.077 76.1029ZM239.452 54.8458C236.128 55.8673 233.086 57.1578 230.328 58.7174C227.574 60.2453 225.313 61.9442 223.544 63.8141C221.806 65.6888 220.792 67.5913 220.502 69.5216C220.421 70.0596 220.634 70.3666 221.14 70.4427C221.742 70.533 222.585 70.3037 223.671 69.7549C224.788 69.2108 226.017 68.4571 227.359 67.4938C228.706 66.4988 230.072 65.3772 231.457 64.1291C232.846 62.8493 234.161 61.5259 235.402 60.1591C236.643 58.7922 237.669 57.4578 238.479 56.1557C238.777 55.6827 239.101 55.246 239.452 54.8458ZM256.026 82.2841C254.665 82.0797 253.729 81.7449 253.216 81.2796C252.735 80.819 252.549 80.2248 252.659 79.497C252.754 78.8641 253.056 78.3594 253.566 77.9829C254.08 77.5748 255.132 77.2475 256.723 77.001C258.575 76.7292 260.345 76.364 262.032 75.9055C263.755 75.4201 265.187 74.8262 266.328 74.1239C267.501 73.4264 268.159 72.6029 268.301 71.6536C268.396 71.0207 268.244 70.5286 267.844 70.1772C267.475 69.8306 267.006 69.6145 266.436 69.529C265.962 69.4577 265.253 69.4322 264.312 69.4526C263.407 69.4461 262.4 69.4728 261.291 69.5327C260.186 69.5609 259.116 69.5781 258.079 69.5842C257.079 69.5634 256.231 69.5008 255.535 69.3962C253.889 69.149 252.726 68.6021 252.044 67.7554C251.367 66.8771 251.116 65.8525 251.292 64.6816C251.387 64.0487 251.85 63.2284 252.681 62.2207C253.512 61.2129 254.581 60.1277 255.888 58.965C257.196 57.8022 258.629 56.6585 260.19 55.5338C261.75 54.4091 263.31 53.3976 264.869 52.4992C266.464 51.5738 267.944 50.874 269.31 50.3996C270.68 49.8935 271.808 49.707 272.694 49.8401C273.707 49.9922 274.466 50.4299 274.973 51.1531C275.51 51.8811 275.698 52.783 275.537 53.859C275.461 54.3653 275.33 54.9119 275.145 55.4989C274.964 56.0543 274.649 56.5408 274.198 56.9584C273.751 57.3444 273.118 57.5729 272.299 57.644C271.479 57.715 270.408 57.5217 269.085 57.0642C267.89 57.6937 266.636 58.3952 265.323 59.1686C264.046 59.9152 262.825 60.7188 261.66 61.5793C260.5 62.4082 259.517 63.2474 258.709 64.0969C259.937 63.8931 261.312 63.7921 262.832 63.794C264.357 63.7642 265.88 63.8634 267.399 64.0916C269.234 64.3673 270.671 64.923 271.711 65.7586C272.787 66.5674 273.513 67.5502 273.889 68.7069C274.297 69.8684 274.404 71.0979 274.209 72.3953C273.99 73.851 273.297 75.2354 272.129 76.5484C270.961 77.8615 269.495 79.0004 267.732 79.9653C265.969 80.9301 264.068 81.6315 262.029 82.0694C259.989 82.5072 257.988 82.5788 256.026 82.2841ZM303.91 87.3896C303.087 87.266 302.545 86.7801 302.284 85.932C302.023 85.0838 302.045 83.6471 302.349 81.6218C302.777 78.7738 303.403 75.7936 304.226 72.6814C305.086 69.5423 306.095 66.1667 307.252 62.5545C308.232 59.6924 309.854 57.6223 312.117 56.3442C314.411 55.071 317.359 54.1871 320.961 53.6925C323.207 53.3829 325.526 53.1326 327.917 52.9416C330.308 52.7506 332.54 52.649 334.613 52.6368C336.722 52.5977 338.441 52.6779 339.77 52.8776C340.783 53.0297 341.55 53.3068 342.072 53.7088C342.594 54.1108 342.931 54.5658 343.081 55.0737C343.267 55.5548 343.332 55.9852 343.275 56.3649C343.185 56.9662 342.962 57.4827 342.606 57.9146C342.249 58.3465 341.578 58.6177 340.59 58.7283C340.16 58.7931 339.256 58.8839 337.88 59.0007C336.54 59.0906 334.889 59.1986 332.929 59.3248C331 59.4558 328.955 59.6017 326.796 59.7627C324.64 59.892 322.546 60.0466 320.513 60.2266C318.497 60.5062 316.968 60.9885 315.927 61.6734C314.922 62.3314 314.163 63.3985 313.65 64.8747C313.54 65.1817 313.41 65.6152 313.261 66.1753C314.62 65.9588 316.062 65.8357 317.588 65.8059C319.113 65.7762 320.518 65.7931 321.803 65.8566C323.088 65.9202 324.031 65.9971 324.632 66.0874C325.265 66.1825 325.913 66.3931 326.576 66.7192C327.275 67.0184 327.847 67.4117 328.292 67.8991C328.772 68.3597 328.968 68.8906 328.877 69.4918C328.792 70.0615 328.492 70.5503 327.978 70.9584C327.468 71.3349 326.502 71.6267 325.079 71.8337C324.78 71.8858 324.113 71.9149 323.076 71.9211C322.072 71.9319 320.87 71.9617 319.471 72.0105C318.109 72.0324 316.71 72.0811 315.275 72.1568C313.871 72.2372 312.624 72.3572 311.532 72.5168C311.054 74.1923 310.591 75.8703 310.145 77.5506C309.698 79.2309 309.316 80.6944 309 81.9412C308.688 83.1564 308.476 83.9174 308.365 84.2244C308 85.3667 307.403 86.2155 306.575 86.7707C305.748 87.3259 304.859 87.5322 303.91 87.3896ZM331.447 92.9821C330.434 92.83 329.559 92.4073 328.822 91.7141C328.08 91.0526 327.538 90.2431 327.197 89.2858C326.86 88.2967 326.77 87.2801 326.927 86.2358C327.221 84.2738 327.936 82.4235 329.071 80.6848C330.237 78.9508 331.659 77.3522 333.335 75.8889C335.011 74.4256 336.792 73.1238 338.678 71.9833C340.601 70.816 342.477 69.8519 344.306 69.0912C346.167 68.3353 347.837 67.7771 349.314 67.4166C350.824 67.0609 351.974 66.9425 352.766 67.0613C353.683 67.1992 354.396 67.5166 354.904 68.0135C355.448 68.4836 355.658 69.13 355.535 69.9527C355.497 70.2059 355.403 70.4021 355.252 70.5413C355.649 70.698 355.946 70.9853 356.142 71.403C356.338 71.8208 356.379 72.4094 356.265 73.1689C356.218 73.4854 356.015 74.2962 355.657 75.6016C355.299 76.9069 354.883 78.4946 354.408 80.3648C353.964 82.2398 353.588 84.2057 353.279 86.2626C353.231 86.5791 353.236 86.871 353.293 87.1384C353.355 87.3742 353.544 87.5158 353.86 87.5634C355.126 87.7535 356.446 87.6929 357.819 87.3814C359.229 87.0431 360.608 86.5869 361.956 86.0128C363.341 85.4118 364.597 84.8076 365.723 84.2003C366.887 83.566 367.854 83.048 368.626 82.6463C369.435 82.2176 369.95 82.0199 370.172 82.0532C371.248 82.2148 371.705 82.8336 371.543 83.9095C371.5 84.1943 371.062 84.7433 370.228 85.5564C369.43 86.3427 368.358 87.2333 367.011 88.2283C365.669 89.1916 364.185 90.1336 362.558 91.0541C360.968 91.9478 359.343 92.6421 357.683 93.137C356.054 93.6367 354.528 93.7796 353.104 93.5657C351.364 93.3042 350.096 92.6932 349.302 91.7326C348.54 90.7767 348.073 89.5741 347.903 88.1247C347.769 86.6483 347.819 85.0217 348.053 83.2449C346.092 85.3125 344.106 87.1175 342.095 88.6599C340.12 90.1753 338.215 91.3292 336.381 92.1215C334.547 92.9139 332.902 93.2007 331.447 92.9821ZM351.822 71.7249C348.498 72.7464 345.456 74.0369 342.698 75.5965C339.944 77.1245 337.683 78.8234 335.914 80.6933C334.176 82.568 333.162 84.4705 332.872 86.4008C332.791 86.9388 333.004 87.2458 333.51 87.3218C334.112 87.4122 334.955 87.1829 336.041 86.6341C337.158 86.09 338.387 85.3363 339.729 84.3729C341.076 83.3779 342.442 82.2564 343.827 81.0082C345.216 79.7284 346.531 78.4051 347.772 77.0383C349.013 75.6714 350.039 74.3369 350.849 73.0349C351.147 72.5618 351.471 72.1252 351.822 71.7249ZM373.566 99.8913C370.718 99.4635 368.602 98.2558 367.218 96.2681C365.87 94.2536 365.441 91.6166 365.931 88.3572C366.197 86.585 366.745 84.5479 367.577 82.2459C368.413 79.9122 369.41 77.4732 370.569 74.9292C371.764 72.3582 373.002 69.8259 374.282 67.3325C375.595 64.8438 376.862 62.5426 378.086 60.4289C379.31 58.3152 380.368 56.5488 381.26 55.1297C382.006 54.0444 382.901 53.5802 383.945 53.737C384.61 53.8368 385.117 54.1233 385.466 54.5965C385.848 55.0745 385.969 55.7723 385.831 56.69C385.765 57.133 385.398 58.0649 384.732 59.4857C384.065 60.9064 383.204 62.6539 382.148 64.7281C381.129 66.7754 380.02 68.9872 378.822 71.3636C377.655 73.7447 376.518 76.1464 375.41 78.5686C374.333 80.9957 373.405 83.2993 372.624 85.4795C371.849 87.6281 371.344 89.4778 371.111 91.0284C371.016 91.6613 371.114 92.1937 371.405 92.6257C371.728 93.0625 372.19 93.3261 372.791 93.4164C374.089 93.6113 375.453 93.5736 376.885 93.3033C378.349 93.0378 379.8 92.6409 381.239 92.1127C382.709 91.5893 384.107 91.0065 385.433 90.3644C386.759 89.7222 387.951 89.1085 389.01 88.5233C390.105 87.9112 390.986 87.4288 391.654 87.0761C392.536 86.5936 393.119 86.3738 393.404 86.4166C394.48 86.5782 394.939 87.1812 394.782 88.2254C394.744 88.4786 394.349 88.9532 393.598 89.6493C392.955 90.2647 392.062 91.0366 390.92 91.9652C389.777 92.8938 388.467 93.8619 386.989 94.8695C385.547 95.8502 384.02 96.7534 382.408 97.579C380.827 98.4094 379.274 99.0499 377.75 99.5006C376.227 99.9512 374.832 100.081 373.566 99.8913ZM390.714 101.885C389.702 101.733 388.827 101.31 388.089 100.617C387.348 99.9552 386.806 99.1457 386.464 98.1884C386.127 97.1994 386.037 96.1827 386.194 95.1384C386.489 93.1764 387.204 91.3261 388.339 89.5874C389.505 87.8534 390.926 86.2548 392.602 84.7915C394.278 83.3282 396.059 82.0264 397.946 80.8859C399.868 79.7186 401.744 78.7546 403.574 77.9939C405.435 77.2379 407.104 76.6797 408.582 76.3192C410.092 75.9635 411.242 75.8451 412.033 75.9639C412.951 76.1018 413.664 76.4192 414.171 76.9161C414.716 77.3862 414.926 78.0326 414.802 78.8554C414.764 79.1085 414.67 79.3047 414.52 79.4439C414.917 79.6006 415.214 79.8879 415.41 80.3057C415.606 80.7234 415.647 81.312 415.533 82.0715C415.485 82.388 415.282 83.1989 414.925 84.5042C414.567 85.8095 414.15 87.3973 413.675 89.2674C413.232 91.1424 412.856 93.1083 412.547 95.1652C412.499 95.4817 412.504 95.7736 412.561 96.041C412.622 96.2768 412.811 96.4185 413.128 96.466C414.394 96.6561 415.713 96.5955 417.087 96.2841C418.497 95.9457 419.876 95.4895 421.224 94.9154C422.609 94.3144 423.864 93.7103 424.991 93.1029C426.154 92.4686 427.122 91.9506 427.894 91.5489C428.703 91.1202 429.218 90.9226 429.439 90.9558C430.515 91.1175 430.972 91.7362 430.811 92.8122C430.768 93.097 430.33 93.6459 429.496 94.4591C428.698 95.2453 427.626 96.1359 426.279 97.1309C424.937 98.0942 423.453 99.0362 421.826 99.9568C420.235 100.85 418.61 101.545 416.95 102.04C415.322 102.539 413.796 102.682 412.372 102.468C410.631 102.207 409.364 101.596 408.57 100.635C407.807 99.6793 407.341 98.4767 407.17 97.0273C407.036 95.551 407.086 93.9244 407.321 92.1475C405.36 94.2152 403.374 96.0201 401.362 97.5625C399.387 99.0779 397.483 100.232 395.649 101.024C393.815 101.817 392.17 102.103 390.714 101.885ZM411.09 80.6276C407.765 81.649 404.724 82.9396 401.966 84.4991C399.212 86.0271 396.951 87.726 395.181 89.5959C393.443 91.4706 392.43 93.3731 392.14 95.3034C392.059 95.8414 392.272 96.1484 392.778 96.2245C393.379 96.3148 394.223 96.0855 395.308 95.5367C396.425 94.9926 397.655 94.2389 398.997 93.2755C400.344 92.2806 401.709 91.159 403.094 89.9108C404.484 88.631 405.799 87.3077 407.04 85.9409C408.281 84.574 409.306 83.2396 410.117 81.9375C410.414 81.4645 410.739 81.0278 411.09 80.6276ZM461.962 88.8029C462.523 90.667 463.07 92.626 463.603 94.6799C464.136 96.7339 464.533 98.7189 464.795 100.635C465.094 102.524 465.134 104.197 464.915 105.653C464.659 107.361 464.002 108.719 462.945 109.725C461.924 110.704 460.685 111.408 459.23 111.837C457.769 112.297 456.26 112.539 454.703 112.564C453.146 112.589 451.719 112.504 450.422 112.31C449.472 112.167 448.712 111.842 448.141 111.336C447.597 110.866 447.391 110.188 447.524 109.302C447.638 108.542 447.988 108.045 448.574 107.809C449.164 107.542 449.88 107.407 450.722 107.404C451.369 107.404 452.147 107.391 453.057 107.366C453.999 107.346 454.936 107.244 455.87 107.061C456.803 106.877 457.591 106.591 458.232 106.202C458.909 105.786 459.305 105.198 459.419 104.439C459.666 102.793 459.554 101.061 459.083 99.2431C458.616 97.3933 458.107 95.5048 457.555 93.5774C455.677 95.528 453.547 97.4247 451.167 99.2676C448.824 101.084 446.398 102.693 443.889 104.096C441.417 105.472 439.014 106.503 436.678 107.187C434.369 107.908 432.329 108.136 430.557 107.869C428.025 107.489 426.063 106.337 424.669 104.413C423.307 102.493 422.89 99.7768 423.418 96.2642C423.722 94.239 424.261 92.2652 425.035 90.3428C425.814 88.3888 426.675 86.6414 427.618 85.1004C428.594 83.5642 429.534 82.3626 430.441 81.4957C431.348 80.6288 432.102 80.2405 432.703 80.3308C433.336 80.4259 433.862 80.6989 434.279 81.15C434.728 81.6058 434.884 82.2925 434.746 83.2102C434.689 83.59 434.424 84.2782 433.951 85.275C433.509 86.2765 432.976 87.4583 432.35 88.8206C431.757 90.1876 431.185 91.6226 430.636 93.1257C430.118 94.6335 429.759 96.0519 429.56 97.381C429.355 98.7418 429.418 99.8351 429.747 100.661C430.107 101.492 430.762 101.979 431.712 102.121C432.977 102.311 434.474 102.148 436.202 101.631C437.93 101.114 439.744 100.351 441.643 99.3416C443.573 98.3372 445.462 97.181 447.309 95.8728C449.187 94.5694 450.899 93.1923 452.443 91.7417C454.02 90.2958 455.297 88.902 456.275 87.5605C456.19 86.8357 456.136 86.1158 456.114 85.4006C456.124 84.6901 456.183 83.971 456.292 83.2432C456.554 81.5027 457.1 80.1286 457.931 79.1208C458.767 78.0814 459.96 77.6782 461.51 77.9111C462.903 78.1202 463.878 78.736 464.437 79.7582C464.995 80.7805 465.162 82.0353 464.939 83.5226C464.815 84.3454 464.477 85.2006 463.923 86.0881C463.405 86.9488 462.751 87.8537 461.962 88.8029ZM435.09 76.0781C433.855 75.8927 432.954 75.4337 432.384 74.7009C431.846 73.973 431.658 73.071 431.82 71.9951C432 70.7926 432.573 69.8916 433.536 69.2921C434.505 68.661 435.543 68.4286 436.65 68.5949C437.885 68.7803 438.816 69.2599 439.444 70.0338C440.072 70.8077 440.293 71.8117 440.108 73.0459C440.027 73.5838 439.736 74.1225 439.234 74.662C438.769 75.1746 438.175 75.5708 437.454 75.8507C436.732 76.1307 435.944 76.2064 435.09 76.0781ZM493.535 115.679C491.541 115.38 490.176 114.56 489.439 113.219C488.738 111.852 488.531 110.219 488.816 108.321C489.087 106.517 489.744 104.836 490.787 103.277C491.835 101.687 493.139 100.217 494.701 98.8659C496.263 97.5149 497.967 96.2985 499.812 95.2166C501.662 94.103 503.507 93.1343 505.345 92.3103C507.221 91.4594 508.99 90.7706 510.655 90.2441C512.325 89.6859 513.76 89.2866 514.961 89.0464C516.162 88.8061 517.016 88.724 517.522 88.8001C518.06 88.8809 518.481 89.0898 518.787 89.4269C519.128 89.7371 519.242 90.272 519.128 91.0314C519.009 91.8226 518.586 92.487 517.858 93.0249C517.13 93.5627 516.274 93.9842 515.29 94.2894C513.897 94.7274 512.309 95.2817 510.526 95.9522C508.779 96.5958 506.997 97.3637 505.18 98.2557C503.364 99.1478 501.662 100.138 500.074 101.226C498.519 102.319 497.207 103.514 496.139 104.809C495.075 106.073 494.434 107.433 494.215 108.889C494.168 109.205 494.193 109.468 494.291 109.677C494.389 109.886 494.644 110.021 495.055 110.083C495.593 110.164 496.343 110.017 497.305 109.644C498.272 109.239 499.342 108.688 500.515 107.991C501.692 107.261 502.881 106.453 504.082 105.566C505.288 104.647 506.415 103.716 507.463 102.773C508.547 101.803 509.461 100.889 510.205 100.03C510.757 99.3684 511.369 98.8456 512.042 98.4612C512.746 98.0816 513.431 97.9417 514.095 98.0416C514.633 98.1224 515.052 98.3471 515.353 98.7159C515.69 99.0577 515.801 99.6084 515.687 100.368C515.649 100.621 515.543 101.22 515.369 102.165C515.199 103.077 514.983 104.194 514.72 105.513C514.494 106.806 514.273 108.164 514.059 109.588C513.874 110.823 513.823 111.915 513.907 112.866C514.027 113.79 514.483 114.312 515.274 114.43C516.223 114.573 517.254 114.388 518.366 113.876C519.484 113.332 520.595 112.609 521.702 111.707C522.844 110.778 523.917 109.775 524.921 108.696C525.924 107.617 526.791 106.582 527.522 105.592C528.29 104.575 528.85 103.753 529.203 103.126C530.033 100.403 530.899 98.3006 531.801 96.8181C532.708 95.3041 533.607 94.2742 534.498 93.7285C535.421 93.1875 536.262 92.9741 537.021 93.0882C537.876 93.2165 538.557 93.5291 539.065 94.0261C539.604 94.5278 539.76 95.5381 539.531 97.0571C539.413 97.8482 538.902 98.985 538 100.467C537.098 101.95 535.95 103.557 534.557 105.29C534.09 106.676 533.711 108.123 533.42 109.633C533.128 111.142 533.009 112.58 533.063 113.948C534.007 113.475 535.011 112.719 536.073 111.682C537.139 110.612 538.225 109.416 539.33 108.094C540.439 106.739 541.549 105.385 542.658 104.031C543.772 102.645 544.852 101.383 545.896 100.246C546.973 99.1132 547.979 98.2289 548.916 97.593C549.889 96.9302 550.787 96.6607 551.61 96.7842C552.464 96.9126 553.216 97.1873 553.865 97.6083C554.55 98.0024 555.065 98.6623 555.412 99.5881C555.794 100.487 555.996 101.731 556.016 103.319C556.073 104.881 555.916 106.896 555.545 109.364C555.35 110.662 555.287 111.947 555.354 113.219C555.427 114.459 555.704 115.52 556.187 116.402C556.674 117.252 557.455 117.757 558.531 117.919C560.272 118.18 561.865 118.128 563.312 117.763C564.763 117.366 566.054 116.848 567.185 116.209C568.317 115.57 569.258 115.016 570.008 114.546C570.794 114.049 571.377 113.83 571.757 113.887C572.39 113.982 572.836 114.243 573.096 114.67C573.391 115.071 573.499 115.54 573.418 116.078C573.37 116.394 573.018 116.908 572.362 117.618C571.741 118.301 570.901 119.049 569.84 119.86C568.817 120.645 567.637 121.39 566.301 122.095C565.002 122.774 563.645 123.298 562.23 123.668C560.816 124.038 559.428 124.121 558.067 123.916C555.599 123.546 553.624 122.796 552.144 121.668C550.699 120.512 549.741 118.815 549.268 116.576C548.832 114.31 548.887 111.357 549.434 107.718C549.467 107.497 549.498 107.291 549.526 107.101C549.555 106.911 549.583 106.721 549.612 106.532C549.731 105.74 549.817 105.058 549.871 104.483C549.957 103.914 549.944 103.459 549.833 103.119C549.199 103.897 548.42 104.88 547.497 106.068C546.606 107.261 545.622 108.537 544.544 109.896C543.466 111.255 542.327 112.589 541.128 113.897C539.96 115.21 538.795 116.394 537.633 117.449C536.472 118.504 535.346 119.322 534.255 119.903C533.197 120.488 532.24 120.716 531.386 120.588C530.753 120.493 530.104 120.072 529.44 119.325C528.807 118.583 528.318 117.636 527.974 116.484C527.634 115.3 527.568 114.012 527.777 112.62C526.16 114.124 524.516 115.479 522.847 116.684C521.182 117.858 519.576 118.749 518.028 119.358C516.507 120.004 515.114 120.231 513.848 120.041C512.804 119.884 511.837 119.431 510.946 118.683C510.087 117.939 509.426 116.739 508.963 115.084C508.499 113.429 508.387 111.163 508.625 108.287C506.857 109.93 505.059 111.343 503.231 112.524C501.435 113.711 499.702 114.583 498.033 115.141C496.395 115.704 494.896 115.884 493.535 115.679ZM590.112 104.024C592.475 100.14 594.651 96.0982 596.641 91.8992C597.028 91.0511 597.494 90.4254 598.04 90.0221C598.617 89.6234 599.349 89.4907 600.235 89.6238C600.963 89.7331 601.483 90.0378 601.797 90.5379C602.115 91.0063 602.219 91.6044 602.11 92.3323C602.019 92.9335 601.604 93.9714 600.865 95.446C600.131 96.8889 599.224 98.7265 598.144 100.959C597.065 103.191 595.93 105.788 594.741 108.748C593.552 111.708 592.429 114.986 591.371 118.58C590.314 122.175 589.471 126.061 588.844 130.238C588.673 131.377 588.311 132.278 587.758 132.939C587.233 133.637 586.448 133.907 585.404 133.75C584.265 133.579 583.485 133.058 583.066 132.186C582.679 131.318 582.578 130.268 582.763 129.034C583.129 126.597 583.513 124.584 583.913 122.993C584.35 121.376 584.752 119.997 585.117 118.854C583.167 121.28 581.177 123.327 579.147 124.996C577.153 126.638 575.289 127.846 573.554 128.621C571.815 129.428 570.376 129.745 569.237 129.574C567.37 129.294 565.929 128.544 564.915 127.323C563.901 126.103 563.553 124.433 563.872 122.313C564.119 120.667 564.769 119.034 565.822 117.412C566.879 115.759 568.185 114.175 569.739 112.661C571.293 111.147 572.957 109.763 574.731 108.509C576.541 107.227 578.323 106.136 580.077 105.235C581.835 104.301 583.444 103.605 584.905 103.145C586.365 102.684 587.523 102.518 588.377 102.647C589.326 102.789 589.905 103.248 590.112 104.024ZM588.635 106.423C588.426 106.521 588.201 106.617 587.961 106.71C587.757 106.776 587.55 106.859 587.341 106.957C586.025 107.536 584.605 108.261 583.083 109.132C581.565 109.972 580.045 110.941 578.521 112.039C577.001 113.105 575.583 114.251 574.267 115.477C572.986 116.676 571.912 117.906 571.043 119.167C570.21 120.401 569.701 121.635 569.516 122.869C569.483 123.091 569.554 123.263 569.729 123.387C569.905 123.51 570.072 123.584 570.23 123.608C571.338 123.774 572.598 123.462 574.011 122.671C575.456 121.885 576.974 120.721 578.564 119.181C580.191 117.613 581.847 115.742 583.533 113.568C585.25 111.399 586.951 109.018 588.635 106.423ZM43.1963 117.055C41.9621 116.87 41.1102 116.402 40.6404 115.652C40.1658 114.934 40.0736 113.609 40.3635 111.679C40.6107 110.033 41.2005 107.938 42.133 105.392C43.0655 102.846 44.0922 100.104 45.2131 97.1662C41.1111 100.563 36.685 102.454 31.9348 102.841C30.7319 104.602 29.3946 106.18 27.9227 107.577C26.4509 108.974 24.9135 110.054 23.3105 110.816C21.7438 111.552 20.1852 111.803 18.6346 111.57C16.7043 111.28 15.138 110.397 13.9357 108.923C12.7651 107.452 12.3771 105.404 12.7716 102.777C13.0378 101.005 13.5326 99.5426 14.256 98.3893C14.9841 97.2043 15.7437 96.3476 16.535 95.8193C16.146 94.5312 16.068 93.1119 16.3009 91.5613C16.6146 89.4727 17.4623 87.707 18.8439 86.2643C20.2256 84.8215 21.9189 83.7815 23.9238 83.1442C25.9603 82.5117 28.0862 82.3618 30.3013 82.6946C31.5355 82.88 32.6588 83.3723 33.6713 84.1716C34.7202 84.9439 35.4977 86.0153 36.0037 87.3857C36.5462 88.7292 36.6748 90.3503 36.3896 92.249C36.1519 93.8312 35.6532 95.536 34.8933 97.3634C37.3397 96.3718 39.8282 94.885 42.3587 92.9029C44.9208 90.9255 47.2884 88.6277 49.4615 86.0095C50.1278 85.2359 50.9514 84.9228 51.9324 85.0701C52.7552 85.1937 53.3659 85.5443 53.7645 86.1219C54.1995 86.6727 54.3576 87.3436 54.2388 88.1347C54.215 88.2929 54.0417 88.8008 53.7187 89.6584C53.3957 90.5159 52.9691 91.6329 52.4387 93.0094C51.9131 94.3542 51.3345 95.8367 50.7028 97.4569C50.1028 99.0818 49.498 100.738 48.8885 102.427C48.2789 104.115 47.7153 105.713 47.1976 107.221C48.2438 105.857 49.3675 104.408 50.5688 102.873C51.8065 101.312 53.071 99.7865 54.3625 98.2978C55.6587 96.7775 56.9153 95.413 58.1324 94.2044C59.3494 92.9958 60.4445 92.0601 61.4178 91.3973C62.3958 90.7029 63.1854 90.4008 63.7867 90.4911C64.9892 90.6718 65.9495 91.172 66.6677 91.9917C67.3859 92.8115 67.6904 93.5853 67.581 94.3132C67.4717 95.041 67.2238 96.1525 66.8375 97.6477C66.4511 99.1429 65.9887 100.821 65.4503 102.681C64.9484 104.515 64.4282 106.363 63.8898 108.223C63.3515 110.084 62.8867 111.778 62.4956 113.304C62.1092 114.8 61.8589 115.927 61.7449 116.686C61.6498 117.319 61.2589 117.875 60.572 118.355C59.8852 118.834 59.1621 119.017 58.4026 118.903C58.3393 118.893 58.2285 118.876 58.0703 118.853C57.6858 118.827 57.3472 118.712 57.0546 118.506C56.7571 118.332 56.5594 117.817 56.4615 116.961C56.3952 116.109 56.5094 114.703 56.8042 112.741C57.0038 111.412 57.2858 109.966 57.65 108.402C58.0143 106.839 58.4101 105.281 58.8377 103.727C59.3016 102.146 59.7648 100.679 60.2271 99.3244C59.1999 100.562 58.0493 101.974 56.7752 103.563C55.5375 105.124 54.2452 106.726 52.8984 108.368C51.5562 109.979 50.249 111.465 48.9765 112.827C47.7405 114.162 46.6105 115.222 45.5866 116.007C44.5943 116.796 43.7976 117.146 43.1963 117.055ZM27.73 98.5202C28.3268 97.3478 28.8515 96.1161 29.3043 94.8251C29.7619 93.5024 30.0881 92.1923 30.283 90.8948C30.3638 90.3569 30.3315 89.8181 30.186 89.2785C30.0406 88.7389 29.6989 88.4287 29.1609 88.3479C28.085 88.1863 26.9916 88.2486 25.8808 88.5347C24.8016 88.8256 23.8679 89.3326 23.0798 90.0555C22.2916 90.7785 21.812 91.7096 21.6409 92.8488C21.4888 93.8614 21.6927 94.7657 22.2527 95.5618C22.8443 96.3625 23.6203 97.013 24.5806 97.5132C25.5726 98.0182 26.5749 98.3467 27.5876 98.4988C27.6192 98.5036 27.6667 98.5107 27.73 98.5202ZM25.1564 102.405C24.0535 102.207 22.999 101.903 21.9928 101.493C20.9912 101.051 20.1013 100.513 19.323 99.8785C19.152 100.371 18.9834 100.847 18.8171 101.307C18.6556 101.736 18.544 102.156 18.4822 102.567C18.3776 103.264 18.3933 103.913 18.5293 104.516C18.7016 105.092 19.1675 105.437 19.927 105.551C20.7181 105.67 21.5616 105.441 22.4573 104.863C23.3846 104.291 24.2843 103.471 25.1564 102.405ZM97.1891 125.166C95.8283 124.961 94.8917 124.626 94.3791 124.161C93.8982 123.7 93.7124 123.106 93.8217 122.378C93.9168 121.746 94.2191 121.241 94.7287 120.864C95.243 120.456 96.2953 120.129 97.8856 119.882C99.7385 119.611 101.508 119.245 103.195 118.787C104.918 118.302 106.351 117.708 107.492 117.005C108.664 116.308 109.322 115.484 109.464 114.535C109.559 113.902 109.407 113.41 109.007 113.059C108.638 112.712 108.169 112.496 107.599 112.41C107.125 112.339 106.417 112.314 105.475 112.334C104.57 112.328 103.563 112.354 102.454 112.414C101.349 112.442 100.279 112.46 99.2423 112.466C98.2423 112.445 97.3942 112.382 96.698 112.278C95.0525 112.03 93.8888 111.484 93.207 110.637C92.53 109.759 92.2794 108.734 92.4553 107.563C92.5504 106.93 93.0134 106.11 93.8443 105.102C94.6752 104.094 95.7442 103.009 97.0515 101.846C98.3587 100.684 99.7925 99.54 101.353 98.4153C102.913 97.2906 104.473 96.279 106.032 95.3806C107.627 94.4553 109.107 93.7554 110.473 93.281C111.843 92.775 112.971 92.5885 113.857 92.7216C114.87 92.8737 115.629 93.3114 116.136 94.0346C116.673 94.7625 116.862 95.6645 116.7 96.7404C116.624 97.2467 116.493 97.7934 116.308 98.3804C116.127 98.9357 115.812 99.4222 115.361 99.8399C114.914 100.226 114.281 100.454 113.462 100.525C112.642 100.596 111.571 100.403 110.248 99.9456C109.053 100.575 107.799 101.277 106.486 102.05C105.209 102.797 103.988 103.6 102.823 104.461C101.663 105.29 100.68 106.129 99.8724 106.978C101.1 106.775 102.475 106.674 103.995 106.675C105.521 106.646 107.043 106.745 108.562 106.973C110.397 107.249 111.834 107.804 112.874 108.64C113.95 109.449 114.676 110.432 115.052 111.588C115.46 112.75 115.567 113.979 115.372 115.277C115.153 116.732 114.46 118.117 113.292 119.43C112.124 120.743 110.658 121.882 108.895 122.847C107.133 123.812 105.231 124.513 103.192 124.951C101.152 125.389 99.1511 125.46 97.1891 125.166ZM154.492 106.834C154.435 107.214 154.259 107.527 153.963 107.774C153.667 108.021 153.317 108.195 152.914 108.296C152.342 108.437 151.366 108.581 149.985 108.73C148.603 108.878 146.93 109.031 144.965 109.189C143.031 109.352 140.953 109.509 138.73 109.66C136.511 109.78 134.295 109.884 132.082 109.972C130.802 112.886 129.493 115.893 128.154 118.993C126.82 122.061 125.492 125.081 124.172 128.054C123.689 129.114 123.183 129.895 122.655 130.398C122.121 130.933 121.317 131.12 120.241 130.958C119.07 130.782 118.336 130.284 118.039 129.462C117.768 128.677 117.87 127.673 118.345 126.45C119.686 123.125 120.928 120.027 122.071 117.157C123.246 114.291 124.193 111.974 124.911 110.206C122.965 110.237 121.266 110.24 119.813 110.216C118.365 110.161 117.343 110.072 116.747 109.95C116.092 109.787 115.578 109.435 115.207 108.893C114.835 108.352 114.717 107.736 114.853 107.044C115.012 106.421 115.377 105.926 115.95 105.559C116.528 105.16 117.172 104.966 117.882 104.975C118.878 105.028 120.165 105.076 121.744 105.119C123.323 105.162 125.065 105.197 126.97 105.224C127.624 103.672 128.348 102.082 129.143 100.454C129.942 98.7943 130.746 97.2161 131.553 95.7194C132.397 94.1958 133.178 92.8732 133.896 91.7515C134.615 90.6298 135.236 89.8332 135.76 89.3618C136.17 89.0027 136.645 88.7504 137.184 88.605C137.755 88.4643 138.294 88.4319 138.8 88.508C139.465 88.6078 139.967 88.926 140.307 89.4624C140.648 89.9989 140.77 90.5836 140.675 91.2165C140.637 91.4696 140.581 91.7362 140.506 92.0163C140.437 92.2647 140.335 92.5084 140.202 92.7473C139.363 94.2392 138.427 96.0563 137.393 98.1985C136.391 100.345 135.324 102.709 134.193 105.29C136.618 105.298 138.996 105.299 141.327 105.294C143.694 105.261 145.835 105.226 147.75 105.19C149.701 105.128 151.265 105.055 152.442 104.973C153.108 104.847 153.639 104.975 154.035 105.358C154.435 105.709 154.587 106.201 154.492 106.834ZM144.042 131.572C143.029 131.42 142.154 130.998 141.417 130.304C140.675 129.643 140.134 128.833 139.792 127.876C139.455 126.887 139.365 125.87 139.522 124.826C139.817 122.864 140.532 121.014 141.666 119.275C142.833 117.541 144.254 115.942 145.93 114.479C147.606 113.016 149.387 111.714 151.274 110.574C153.196 109.406 155.072 108.442 156.902 107.682C158.763 106.926 160.432 106.367 161.91 106.007C163.419 105.651 164.57 105.533 165.361 105.652C166.279 105.789 166.991 106.107 167.499 106.604C168.043 107.074 168.254 107.72 168.13 108.543C168.092 108.796 167.998 108.992 167.848 109.132C168.245 109.288 168.541 109.576 168.737 109.993C168.934 110.411 168.975 111 168.861 111.759C168.813 112.076 168.61 112.887 168.252 114.192C167.895 115.497 167.478 117.085 167.003 118.955C166.56 120.83 166.183 122.796 165.874 124.853C165.827 125.169 165.832 125.461 165.888 125.729C165.95 125.964 166.139 126.106 166.456 126.154C167.721 126.344 169.041 126.283 170.415 125.972C171.824 125.633 173.204 125.177 174.552 124.603C175.936 124.002 177.192 123.398 178.319 122.791C179.482 122.156 180.45 121.638 181.222 121.237C182.031 120.808 182.546 120.61 182.767 120.643C183.843 120.805 184.3 121.424 184.139 122.5C184.096 122.785 183.657 123.334 182.823 124.147C182.026 124.933 180.954 125.824 179.607 126.819C178.265 127.782 176.78 128.724 175.154 129.644C173.563 130.538 171.938 131.232 170.278 131.727C168.65 132.227 167.124 132.37 165.7 132.156C163.959 131.895 162.692 131.283 161.898 130.323C161.135 129.367 160.669 128.164 160.498 126.715C160.364 125.239 160.414 123.612 160.649 121.835C158.688 123.903 156.702 125.708 154.69 127.25C152.715 128.766 150.811 129.919 148.977 130.712C147.143 131.504 145.498 131.791 144.042 131.572ZM164.418 110.315C161.093 111.337 158.052 112.627 155.293 114.187C152.54 115.715 150.278 117.414 148.509 119.284C146.771 121.158 145.757 123.061 145.467 124.991C145.387 125.529 145.599 125.836 146.106 125.912C146.707 126.002 147.55 125.773 148.636 125.224C149.753 124.68 150.983 123.927 152.325 122.963C153.672 121.968 155.037 120.847 156.422 119.598C157.812 118.319 159.127 116.995 160.368 115.629C161.608 114.262 162.634 112.927 163.444 111.625C163.742 111.152 164.066 110.715 164.418 110.315ZM178.162 148.832C175.789 148.476 174.011 148.031 172.83 147.497C171.679 146.969 170.925 146.386 170.568 145.75C170.206 145.145 170.067 144.558 170.153 143.989C170.272 143.198 170.622 142.587 171.205 142.157C171.819 141.731 172.553 141.583 173.407 141.711C173.977 141.796 174.788 141.999 175.84 142.319C176.892 142.639 177.956 142.88 179.032 143.041C182.197 143.517 184.922 143.149 187.207 141.939C189.487 140.761 191.441 138.741 193.068 135.879C194.7 132.985 196.087 129.245 197.228 124.66C194.508 127.908 191.657 130.408 188.675 132.161C185.726 133.918 182.827 134.583 179.979 134.155C176.624 133.651 175.194 131.754 175.689 128.463C175.926 126.881 176.603 125.283 177.719 123.671C178.835 122.059 180.233 120.506 181.914 119.011C183.595 117.516 185.403 116.137 187.34 114.875C189.282 113.581 191.195 112.477 193.08 111.563C194.996 110.653 196.748 109.978 198.335 109.537C199.927 109.064 201.182 108.897 202.1 109.034C202.827 109.144 203.441 109.365 203.941 109.699C204.473 110.038 204.84 110.611 205.042 111.418C205.249 112.193 205.246 113.293 205.032 114.717C204.438 118.673 203.72 122.48 202.879 126.14C202.043 129.768 200.978 133.087 199.685 136.096C198.392 139.105 196.778 141.662 194.844 143.766C192.942 145.875 190.627 147.388 187.901 148.305C185.174 149.222 181.928 149.398 178.162 148.832ZM181.907 128.426C181.874 128.648 181.952 128.773 182.142 128.801C182.775 128.896 183.679 128.692 184.855 128.189C186.035 127.655 187.328 126.911 188.734 125.957C190.175 124.976 191.604 123.864 193.021 122.621C194.442 121.346 195.728 120.002 196.878 118.589C198.061 117.181 198.967 115.78 199.597 114.386C197.809 115.088 195.934 115.939 193.971 116.939C192.045 117.911 190.2 118.993 188.436 120.184C186.703 121.38 185.23 122.68 184.016 124.083C182.838 125.459 182.135 126.907 181.907 128.426ZM214.269 141.927C212.307 141.632 210.827 140.714 209.829 139.173C208.835 137.6 208.569 135.279 209.03 132.209C209.325 130.247 209.841 128.318 210.579 126.423C211.353 124.501 212.284 122.715 213.373 121.067C214.499 119.391 215.72 117.94 217.037 116.714C218.385 115.493 219.799 114.589 221.278 114.002C222.763 113.384 224.233 113.184 225.688 113.403C228.157 113.774 229.987 114.728 231.18 116.266C232.373 117.805 232.815 119.602 232.506 121.659C232.268 123.241 231.609 124.615 230.528 125.779C229.483 126.916 228.141 127.88 226.502 128.669C224.862 129.458 223.063 130.126 221.104 130.674C219.145 131.221 217.151 131.681 215.12 132.056C214.791 133.171 214.56 134.172 214.427 135.058C214.346 135.596 214.606 135.91 215.207 136.001C216.631 136.215 218.184 136.221 219.864 136.021C221.581 135.793 223.333 135.441 225.119 134.966C226.91 134.458 228.641 133.925 230.31 133.367C231.984 132.777 233.509 132.213 234.884 131.676C236.296 131.111 237.446 130.669 238.335 130.35C239.261 130.003 239.851 129.849 240.104 129.887C240.8 129.992 241.275 130.273 241.53 130.732C241.785 131.191 241.876 131.658 241.805 132.133C241.772 132.354 241.271 132.781 240.302 133.412C239.366 134.048 238.091 134.778 236.478 135.604C234.902 136.403 233.129 137.22 231.159 138.057C229.225 138.867 227.219 139.617 225.142 140.308C223.1 140.972 221.135 141.454 219.246 141.752C217.383 142.087 215.724 142.146 214.269 141.927ZM216.562 127.953C217.973 127.388 219.374 126.789 220.763 126.157C222.189 125.497 223.408 124.71 224.419 123.794C225.435 122.846 226.05 121.66 226.264 120.236C226.326 119.825 226.255 119.539 226.053 119.379C225.855 119.188 225.55 119.061 225.139 118.999C224.031 118.833 222.945 119.171 221.88 120.015C220.847 120.862 219.865 122.009 218.936 123.455C218.044 124.875 217.252 126.374 216.562 127.953ZM259.147 148.862C258.134 148.71 257.259 148.288 256.522 147.594C255.78 146.933 255.238 146.123 254.897 145.166C254.56 144.177 254.47 143.16 254.627 142.116C254.922 140.154 255.636 138.304 256.771 136.565C257.938 134.831 259.359 133.232 261.035 131.769C262.711 130.306 264.492 129.004 266.378 127.864C268.301 126.696 270.177 125.732 272.006 124.971C273.867 124.216 275.537 123.657 277.015 123.297C278.524 122.941 279.675 122.823 280.466 122.942C281.384 123.079 282.096 123.397 282.604 123.894C283.148 124.364 283.359 125.01 283.235 125.833C283.197 126.086 283.103 126.282 282.953 126.422C283.35 126.578 283.646 126.866 283.842 127.283C284.039 127.701 284.08 128.29 283.965 129.049C283.918 129.366 283.715 130.177 283.357 131.482C282.999 132.787 282.583 134.375 282.108 136.245C281.664 138.12 281.288 140.086 280.979 142.143C280.932 142.459 280.936 142.751 280.993 143.019C281.055 143.254 281.244 143.396 281.561 143.444C282.826 143.634 284.146 143.573 285.519 143.262C286.929 142.923 288.308 142.467 289.657 141.893C291.041 141.292 292.297 140.688 293.424 140.081C294.587 139.446 295.555 138.928 296.327 138.527C297.135 138.098 297.65 137.9 297.872 137.933C298.948 138.095 299.405 138.714 299.243 139.79C299.201 140.075 298.762 140.624 297.928 141.437C297.131 142.223 296.058 143.114 294.712 144.109C293.37 145.072 291.885 146.014 290.259 146.934C288.668 147.828 287.043 148.522 285.383 149.017C283.755 149.517 282.229 149.66 280.805 149.446C279.064 149.184 277.797 148.573 277.003 147.613C276.24 146.657 275.774 145.454 275.603 144.005C275.469 142.529 275.519 140.902 275.754 139.125C273.793 141.193 271.807 142.998 269.795 144.54C267.82 146.056 265.916 147.209 264.082 148.002C262.247 148.794 260.603 149.081 259.147 148.862ZM279.523 127.605C276.198 128.627 273.157 129.917 270.398 131.477C267.645 133.005 265.383 134.704 263.614 136.574C261.876 138.448 260.862 140.351 260.572 142.281C260.492 142.819 260.704 143.126 261.211 143.202C261.812 143.292 262.655 143.063 263.741 142.514C264.858 141.97 266.088 141.217 267.43 140.253C268.776 139.258 270.142 138.137 271.527 136.888C272.916 135.609 274.232 134.285 275.472 132.919C276.713 131.552 277.739 130.217 278.549 128.915C278.847 128.442 279.171 128.005 279.523 127.605ZM329.653 133.145C329.596 133.525 329.419 133.838 329.123 134.085C328.827 134.332 328.478 134.506 328.074 134.607C327.503 134.748 326.527 134.892 325.145 135.041C323.764 135.189 322.091 135.342 320.125 135.5C318.192 135.663 316.113 135.82 313.89 135.971C311.672 136.091 309.456 136.195 307.242 136.283C305.963 139.197 304.654 142.204 303.315 145.304C301.98 148.372 300.653 151.392 299.332 154.365C298.85 155.425 298.344 156.206 297.815 156.709C297.282 157.244 296.477 157.431 295.401 157.269C294.231 157.093 293.496 156.595 293.199 155.773C292.929 154.988 293.031 153.984 293.506 152.761C294.847 149.436 296.089 146.338 297.232 143.468C298.406 140.602 299.353 138.285 300.072 136.517C298.126 136.548 296.426 136.551 294.974 136.527C293.526 136.472 292.504 136.383 291.907 136.261C291.252 136.098 290.739 135.746 290.367 135.204C289.995 134.663 289.878 134.047 290.014 133.355C290.172 132.732 290.538 132.237 291.111 131.87C291.688 131.471 292.332 131.277 293.043 131.286C294.038 131.339 295.325 131.387 296.904 131.43C298.484 131.473 300.226 131.508 302.131 131.535C302.785 129.983 303.509 128.393 304.303 126.765C305.103 125.105 305.906 123.527 306.713 122.03C307.557 120.507 308.338 119.184 309.057 118.062C309.775 116.941 310.397 116.144 310.92 115.673C311.33 115.314 311.805 115.061 312.345 114.916C312.916 114.775 313.455 114.743 313.961 114.819C314.626 114.919 315.128 115.237 315.468 115.773C315.808 116.31 315.931 116.895 315.836 117.527C315.797 117.781 315.741 118.047 315.667 118.327C315.597 118.576 315.496 118.819 315.363 119.058C314.524 120.55 313.588 122.367 312.554 124.509C311.552 126.656 310.485 129.02 309.353 131.601C311.779 131.609 314.157 131.61 316.488 131.605C318.855 131.572 320.996 131.537 322.91 131.501C324.861 131.439 326.425 131.366 327.603 131.284C328.269 131.158 328.8 131.286 329.195 131.669C329.595 132.02 329.748 132.512 329.653 133.145ZM373.909 164.936C372.991 164.798 372.338 164.409 371.949 163.768C371.591 163.132 371.486 162.323 371.634 161.342C371.752 160.551 371.886 159.875 372.035 159.315C372.184 158.755 372.401 158.173 372.686 157.568C372.976 156.932 373.334 156.161 373.762 155.255C374.225 154.321 374.809 153.131 375.511 151.683C375.929 150.84 376.451 149.737 377.076 148.375C377.738 146.986 378.419 145.47 379.118 143.828C379.823 142.154 380.448 140.468 380.994 138.77C381.577 137.046 381.98 135.44 382.204 133.952C382.356 132.94 382.274 131.973 381.96 131.052C378.579 133.521 375.224 136.9 371.894 141.189C368.596 145.483 365.468 150.579 362.511 156.477C361.677 157.937 360.824 158.877 359.952 159.296C359.085 159.684 358.287 159.823 357.559 159.713C357.338 159.68 357.025 159.504 356.62 159.184C356.219 158.832 355.884 158.264 355.614 157.48C355.343 156.695 355.308 155.638 355.508 154.309C355.555 153.992 355.694 153.608 355.923 153.158C356.157 152.675 356.476 152.173 356.878 151.651C357.41 150.048 357.879 148.322 358.286 146.474C358.729 144.599 359.107 142.731 359.419 140.869C359.768 138.979 360.066 137.212 360.313 135.566C360.503 134.301 360.574 133.179 360.527 132.201C358.682 133.93 356.854 136.082 355.043 138.658C353.232 141.234 351.522 144.002 349.912 146.964C348.334 149.93 346.955 152.862 345.776 155.759C345.477 156.458 345.153 157.106 344.805 157.7C344.461 158.264 344.008 158.697 343.445 159.001C342.918 159.278 342.195 159.347 341.278 159.209C340.265 159.057 339.567 158.532 339.185 157.633C338.802 156.734 338.713 155.604 338.917 154.243C339.074 153.199 339.498 151.888 340.188 150.309C340.883 148.698 341.757 146.969 342.811 145.121C343.87 143.241 345.045 141.347 346.335 139.437C347.661 137.501 349.023 135.65 350.421 133.886C351.818 132.122 353.201 130.566 354.568 129.219C355.972 127.844 357.262 126.792 358.44 126.063C359.654 125.307 360.703 124.995 361.59 125.128C361.621 125.133 361.669 125.14 361.732 125.15C362.428 125.254 363.052 125.413 363.602 125.625C364.189 125.81 364.661 126.221 365.019 126.857C365.413 127.466 365.689 128.43 365.847 129.748C366.005 131.066 366.037 132.899 365.943 135.247C365.92 135.826 365.866 136.514 365.779 137.31C365.696 138.074 365.593 138.867 365.47 139.69C366.866 137.505 368.335 135.477 369.878 133.606C371.453 131.739 373.024 130.114 374.591 128.731C376.189 127.354 377.719 126.321 379.181 125.635C380.644 124.949 381.944 124.691 383.084 124.862C384.413 125.062 385.597 125.579 386.636 126.415C387.68 127.219 388.437 128.433 388.905 130.056C389.373 131.68 389.409 133.805 389.015 136.432C388.596 139.216 387.937 141.884 387.036 144.434C386.14 146.953 385.139 149.311 384.032 151.507C382.926 153.703 381.848 155.709 380.798 157.525C379.754 159.31 378.874 160.86 378.158 162.176C377.599 163.096 377.003 163.831 376.37 164.383C375.742 164.904 374.922 165.088 373.909 164.936ZM406.336 143.208C404.817 142.98 403.765 142.66 403.18 142.248C402.594 141.837 402.272 141.4 402.212 140.938C402.152 140.476 402.145 140.087 402.193 139.77C402.198 139.738 402.2 139.723 402.2 139.723C402.305 139.026 402.721 138.409 403.449 137.872C404.181 137.302 405.136 136.976 406.314 136.894C407.292 136.847 408.443 136.826 409.769 136.831C411.132 136.809 412.553 136.828 414.032 136.889C415.548 136.922 416.993 136.994 418.368 137.103C419.743 137.213 420.953 137.346 421.997 137.503C423.39 137.712 424.435 138.079 425.132 138.605C425.835 139.099 426.29 139.62 426.499 140.169C426.74 140.723 426.834 141.174 426.781 141.522C426.734 141.838 426.607 142.143 426.401 142.436C426.196 142.728 425.753 142.985 425.072 143.207C424.423 143.433 423.413 143.589 422.041 143.674C420.669 143.759 418.793 143.752 416.414 143.654C416.187 143.652 415.945 143.648 415.687 143.642C415.262 144.969 414.748 146.558 414.146 148.41C413.549 150.229 412.906 152.139 412.218 154.139C411.565 156.112 410.925 158.005 410.296 159.82C409.704 161.608 409.184 163.132 408.736 164.391C410.053 164.46 411.206 164.536 412.197 164.62C413.219 164.709 413.904 164.779 414.252 164.831C415.359 164.998 416.083 165.349 416.423 165.886C416.768 166.391 416.886 167.007 416.777 167.735C416.734 168.019 416.161 168.386 415.058 168.836C413.955 169.285 412.449 169.722 410.541 170.147C408.664 170.577 406.531 170.888 404.14 171.079C402.568 171.199 401.025 171.242 399.509 171.208C397.993 171.175 396.903 171.108 396.239 171.008C394.941 170.813 394.138 170.45 393.83 169.918C393.553 169.391 393.469 168.764 393.578 168.036C393.674 167.403 393.961 166.783 394.44 166.175C394.952 165.573 395.593 165.184 396.363 165.008C397.165 164.837 398.044 164.694 399 164.579C399.956 164.464 400.939 164.385 401.948 164.342C402.135 163.529 402.425 162.456 402.82 161.124C403.214 159.792 403.643 158.335 404.107 156.755C404.607 155.147 405.11 153.524 405.615 151.885C406.157 150.219 406.666 148.661 407.142 147.212C407.655 145.736 408.09 144.458 408.446 143.379C407.514 143.336 406.811 143.279 406.336 143.208ZM449.512 176.923C448.752 176.809 448.121 176.488 447.618 175.959C447.115 175.431 446.973 174.438 447.191 172.983C447.291 172.318 447.688 171.294 448.381 169.909C449.074 168.525 449.964 166.911 451.05 165.068C452.172 163.198 453.406 161.232 454.751 159.169C456.097 157.106 457.487 155.065 458.923 153.048C460.358 151.031 461.738 149.167 463.063 147.457C464.388 145.747 465.591 144.31 466.672 143.145C467.789 141.954 468.666 141.18 469.302 140.822C470.215 140.345 471.083 140.168 471.906 140.291C472.349 140.358 472.769 140.469 473.166 140.626C473.595 140.788 473.935 141.001 474.186 141.265C474.789 141.776 475.256 142.655 475.586 143.902C475.953 145.122 476.221 146.57 476.39 148.246C476.59 149.926 476.693 151.721 476.697 153.631C476.738 155.514 476.734 157.374 476.684 159.211C477.911 159.233 478.745 159.278 479.188 159.344C480.138 159.487 480.955 159.755 481.64 160.15C482.33 160.512 482.629 161.107 482.537 161.935C482.481 162.735 482.128 163.362 481.478 163.814C480.859 164.271 480.103 164.562 479.211 164.687C478.812 164.757 477.864 164.824 476.365 164.891C476.218 166.519 476.061 167.887 475.894 168.994C475.471 171.811 474.985 173.97 474.436 175.473C473.918 176.981 473.372 178.032 472.797 178.625C472.254 179.223 471.72 179.547 471.195 179.598C470.697 179.685 470.257 179.7 469.878 179.643C469.846 179.638 469.814 179.633 469.783 179.628C468.865 179.491 468.22 179.151 467.849 178.61C467.509 178.073 467.422 177.251 467.588 176.144L468.094 172.774C468.251 171.729 468.411 170.556 468.575 169.254C468.738 167.952 468.881 166.566 469.005 165.096C467.09 165.132 465.176 165.168 463.261 165.204C461.383 165.213 459.763 165.228 458.4 165.25C457.585 166.584 456.871 167.787 456.256 168.86C455.647 169.901 455.216 170.726 454.962 171.335C454.255 172.814 453.629 173.966 453.084 174.79C452.545 175.583 452.059 176.125 451.627 176.416C451.221 176.743 450.856 176.915 450.53 176.931C450.199 176.978 449.86 176.976 449.512 176.923ZM461.888 159.804C463.265 159.687 464.589 159.595 465.861 159.527C467.138 159.427 468.347 159.35 469.488 159.295C469.624 157.309 469.722 155.366 469.781 153.466C469.84 151.566 469.836 149.866 469.77 148.368C468.71 149.826 467.459 151.58 466.019 153.629C464.615 155.651 463.238 157.709 461.888 159.804ZM524.522 187.56C523.604 187.422 522.951 187.032 522.562 186.391C522.204 185.755 522.099 184.947 522.246 183.966C522.365 183.175 522.499 182.499 522.648 181.939C522.797 181.379 523.014 180.796 523.299 180.192C523.588 179.556 523.947 178.785 524.374 177.878C524.838 176.945 525.421 175.754 526.124 174.307C526.542 173.463 527.064 172.361 527.689 170.998C528.351 169.609 529.031 168.093 529.731 166.451C530.436 164.777 531.061 163.091 531.607 161.394C532.19 159.669 532.593 158.063 532.816 156.576C532.968 155.563 532.887 154.596 532.572 153.675C529.192 156.145 525.837 159.524 522.507 163.813C519.209 168.106 516.081 173.202 513.124 179.101C512.29 180.561 511.437 181.501 510.565 181.92C509.698 182.307 508.9 182.446 508.172 182.337C507.951 182.304 507.637 182.127 507.232 181.807C506.832 181.456 506.497 180.888 506.226 180.103C505.956 179.318 505.921 178.261 506.12 176.932C506.168 176.616 506.306 176.232 506.536 175.781C506.77 175.299 507.088 174.796 507.49 174.274C508.022 172.671 508.492 170.946 508.899 169.098C509.342 167.223 509.72 165.354 510.032 163.492C510.381 161.603 510.678 159.836 510.926 158.19C511.116 156.924 511.187 155.802 511.14 154.825C509.295 156.554 507.467 158.706 505.656 161.282C503.845 163.857 502.135 166.626 500.525 169.588C498.947 172.554 497.568 175.486 496.389 178.383C496.09 179.082 495.766 179.729 495.418 180.324C495.074 180.887 494.621 181.321 494.058 181.624C493.531 181.901 492.808 181.971 491.891 181.833C490.878 181.681 490.18 181.155 489.797 180.256C489.415 179.358 489.326 178.228 489.53 176.867C489.687 175.823 490.11 174.511 490.801 172.932C491.496 171.322 492.37 169.592 493.424 167.744C494.483 165.865 495.658 163.97 496.948 162.061C498.274 160.124 499.636 158.274 501.033 156.51C502.431 154.746 503.813 153.19 505.181 151.842C506.585 150.468 507.875 149.416 509.053 148.686C510.266 147.93 511.316 147.619 512.202 147.752C512.234 147.757 512.281 147.764 512.345 147.773C513.041 147.878 513.664 148.036 514.215 148.248C514.802 148.434 515.274 148.844 515.632 149.48C516.026 150.09 516.301 151.053 516.459 152.372C516.617 153.69 516.649 155.523 516.556 157.871C516.533 158.45 516.479 159.137 516.391 159.933C516.309 160.698 516.206 161.491 516.082 162.314C517.478 160.129 518.948 158.101 520.491 156.229C522.066 154.362 523.637 152.738 525.203 151.355C526.802 149.977 528.332 148.945 529.794 148.259C531.256 147.572 532.557 147.315 533.696 147.486C535.025 147.685 536.21 148.203 537.249 149.039C538.293 149.843 539.049 151.057 539.517 152.68C539.985 154.304 540.022 156.429 539.628 159.055C539.209 161.84 538.55 164.508 537.649 167.058C536.753 169.577 535.751 171.934 534.645 174.13C533.539 176.326 532.461 178.332 531.411 180.149C530.366 181.933 529.486 183.484 528.771 184.8C528.212 185.719 527.616 186.455 526.983 187.007C526.355 187.527 525.534 187.712 524.522 187.56ZM556.949 165.831C555.43 165.603 554.378 165.283 553.792 164.872C553.207 164.46 552.884 164.024 552.824 163.561C552.764 163.099 552.758 162.71 552.806 162.394C552.81 162.362 552.813 162.346 552.813 162.346C552.917 161.65 553.334 161.033 554.062 160.495C554.794 159.926 555.749 159.6 556.927 159.518C557.904 159.471 559.056 159.45 560.382 159.455C561.745 159.433 563.166 159.452 564.645 159.512C566.161 159.546 567.606 159.617 568.981 159.727C570.356 159.836 571.566 159.97 572.61 160.126C574.003 160.336 575.048 160.703 575.745 161.228C576.448 161.722 576.903 162.244 577.112 162.793C577.352 163.347 577.446 163.798 577.394 164.146C577.347 164.462 577.22 164.767 577.014 165.059C576.809 165.352 576.365 165.609 575.685 165.83C575.036 166.057 574.026 166.212 572.654 166.297C571.282 166.383 569.406 166.376 567.027 166.277C566.8 166.276 566.558 166.272 566.3 166.265C565.874 167.593 565.361 169.182 564.759 171.033C564.162 172.853 563.519 174.762 562.831 176.762C562.178 178.735 561.538 180.629 560.909 182.444C560.317 184.232 559.797 185.755 559.349 187.015C560.665 187.083 561.819 187.159 562.809 187.243C563.832 187.332 564.517 187.403 564.865 187.455C565.972 187.621 566.696 187.973 567.036 188.509C567.381 189.014 567.499 189.63 567.389 190.358C567.347 190.643 566.774 191.01 565.671 191.459C564.568 191.908 563.062 192.346 561.154 192.771C559.277 193.201 557.143 193.511 554.753 193.702C553.181 193.822 551.638 193.865 550.122 193.832C548.606 193.798 547.516 193.732 546.851 193.632C545.554 193.437 544.751 193.074 544.443 192.542C544.166 192.015 544.082 191.388 544.191 190.66C544.286 190.027 544.574 189.407 545.053 188.799C545.564 188.196 546.205 187.807 546.976 187.632C547.778 187.461 548.657 187.318 549.613 187.203C550.569 187.087 551.551 187.008 552.561 186.966C552.748 186.153 553.038 185.08 553.433 183.748C553.827 182.416 554.256 180.959 554.72 179.379C555.22 177.771 555.723 176.148 556.228 174.509C556.77 172.842 557.279 171.285 557.755 169.836C558.268 168.359 558.703 167.082 559.059 166.003C558.127 165.96 557.424 165.903 556.949 165.831ZM39.1214 180.902C37.1277 180.603 35.7624 179.783 35.0253 178.443C34.3246 177.075 34.1169 175.442 34.4021 173.544C34.673 171.74 35.33 170.059 36.3731 168.5C37.4209 166.91 38.7258 165.44 40.2878 164.089C41.8498 162.738 43.5534 161.522 45.3986 160.44C47.2485 159.326 49.0929 158.357 50.9317 157.533C52.8069 156.682 54.5768 155.994 56.2415 155.467C57.911 154.909 59.3462 154.51 60.5472 154.269C61.7482 154.029 62.6019 153.947 63.1082 154.023C63.6462 154.104 64.0678 154.313 64.3731 154.65C64.7148 154.96 64.8287 155.495 64.7146 156.255C64.5957 157.046 64.1723 157.71 63.4444 158.248C62.7164 158.786 61.8603 159.207 60.876 159.513C59.4835 159.951 57.8956 160.505 56.1122 161.175C54.3652 161.819 52.5834 162.587 50.7667 163.479C48.95 164.371 47.2481 165.361 45.6608 166.449C44.1052 167.542 42.7932 168.737 41.7249 170.032C40.6613 171.296 40.0202 172.656 39.8016 174.112C39.754 174.428 39.7793 174.691 39.8774 174.9C39.9754 175.109 40.2301 175.244 40.6415 175.306C41.1795 175.387 41.9295 175.241 42.8916 174.867C43.8585 174.463 44.9283 173.911 46.1009 173.214C47.2783 172.485 48.4675 171.676 49.6687 170.789C50.8746 169.87 52.0014 168.939 53.049 167.996C54.1331 167.026 55.0471 166.112 55.7909 165.253C56.3433 164.592 56.9557 164.069 57.6283 163.684C58.3325 163.305 59.0169 163.165 59.6814 163.265C60.2194 163.345 60.6386 163.57 60.9392 163.939C61.2762 164.281 61.3876 164.832 61.2735 165.591C61.2355 165.844 61.1294 166.443 60.9551 167.388C60.7856 168.301 60.5694 169.417 60.3065 170.736C60.0799 172.029 59.8597 173.387 59.6458 174.811C59.4604 176.046 59.4096 177.138 59.4932 178.089C59.6133 179.013 60.0689 179.535 60.86 179.654C61.8094 179.796 62.8403 179.611 63.9527 179.099C65.07 178.555 66.1817 177.832 67.2879 176.93C68.4305 176.002 69.5035 174.998 70.5069 173.919C71.5103 172.84 72.3776 171.805 73.1088 170.815C73.8765 169.798 74.4368 168.976 74.7897 168.349C75.6194 165.626 76.4854 163.524 77.3876 162.041C78.2946 160.527 79.1935 159.497 80.0845 158.952C81.0071 158.411 81.8481 158.197 82.6076 158.311C83.462 158.44 84.1431 158.752 84.6509 159.249C85.1904 159.751 85.346 160.761 85.1179 162.28C84.999 163.071 84.4885 164.208 83.5863 165.691C82.6841 167.173 81.5366 168.78 80.1438 170.513C79.6767 171.899 79.2975 173.346 79.006 174.856C78.7146 176.365 78.5956 177.804 78.6491 179.171C79.5938 178.698 80.5972 177.942 81.6591 176.905C82.7258 175.835 83.8115 174.639 84.9162 173.317C86.0257 171.962 87.1352 170.608 88.2446 169.254C89.3588 167.868 90.4382 166.607 91.4828 165.469C92.559 164.336 93.5655 163.452 94.5024 162.816C95.4756 162.153 96.3736 161.884 97.1964 162.007C98.0508 162.136 98.8023 162.41 99.451 162.831C100.136 163.226 100.652 163.885 100.998 164.811C101.381 165.71 101.582 166.954 101.603 168.542C101.659 170.104 101.502 172.119 101.131 174.587C100.936 175.885 100.873 177.17 100.941 178.442C101.013 179.682 101.291 180.743 101.773 181.625C102.26 182.475 103.042 182.98 104.118 183.142C105.858 183.403 107.452 183.352 108.898 182.986C110.349 182.589 111.64 182.072 112.772 181.432C113.903 180.793 114.844 180.239 115.594 179.769C116.381 179.273 116.964 179.053 117.343 179.11C117.976 179.205 118.422 179.466 118.682 179.893C118.978 180.294 119.085 180.763 119.004 181.301C118.957 181.617 118.605 182.131 117.948 182.841C117.327 183.524 116.487 184.272 115.427 185.083C114.403 185.868 113.223 186.613 111.888 187.318C110.588 187.997 109.231 188.521 107.817 188.891C106.402 189.261 105.014 189.344 103.654 189.14C101.185 188.769 99.2108 188.019 97.73 186.891C96.2856 185.735 95.3271 184.038 94.8545 181.799C94.4182 179.533 94.4734 176.581 95.0201 172.941C95.0533 172.72 95.0842 172.514 95.1128 172.324C95.1413 172.134 95.1698 171.945 95.1983 171.755C95.3171 170.964 95.4035 170.281 95.4574 169.706C95.543 169.137 95.5304 168.682 95.4197 168.342C94.7851 169.12 94.0064 170.103 93.0837 171.291C92.1926 172.484 91.2081 173.76 90.1303 175.119C89.0525 176.478 87.9137 177.812 86.7141 179.12C85.5461 180.433 84.3813 181.617 83.2196 182.672C82.058 183.728 80.932 184.545 79.8417 185.126C78.783 185.711 77.8265 185.94 76.9721 185.811C76.3392 185.716 75.6905 185.295 75.0261 184.548C74.3934 183.806 73.9046 182.859 73.5599 181.707C73.22 180.523 73.1546 179.235 73.3637 177.843C71.7463 179.347 70.1028 180.702 68.4332 181.908C66.7684 183.081 65.1622 183.973 63.6146 184.581C62.0939 185.227 60.7006 185.454 59.4348 185.264C58.3905 185.107 57.423 184.655 56.5323 183.906C55.6733 183.162 55.0122 181.963 54.5489 180.307C54.0856 178.652 53.9729 176.386 54.2109 173.51C52.4431 175.153 50.6453 176.566 48.8175 177.748C47.0214 178.934 45.2886 179.806 43.6192 180.364C41.9814 180.927 40.4821 181.107 39.1214 180.902ZM135.698 169.247C138.061 165.363 140.238 161.321 142.228 157.122C142.614 156.274 143.08 155.649 143.626 155.245C144.204 154.847 144.935 154.714 145.821 154.847C146.549 154.956 147.07 155.261 147.383 155.761C147.701 156.229 147.805 156.828 147.696 157.555C147.606 158.157 147.191 159.195 146.452 160.669C145.717 162.112 144.81 163.95 143.731 166.182C142.651 168.414 141.517 171.011 140.328 173.971C139.139 176.931 138.016 180.209 136.958 183.804C135.9 187.398 135.058 191.284 134.43 195.461C134.259 196.601 133.897 197.501 133.345 198.162C132.819 198.86 132.035 199.13 130.99 198.973C129.851 198.802 129.072 198.281 128.653 197.409C128.265 196.542 128.164 195.491 128.35 194.257C128.716 191.82 129.099 189.807 129.5 188.217C129.937 186.6 130.338 185.22 130.704 184.078C128.754 186.503 126.764 188.55 124.733 190.219C122.739 191.861 120.875 193.069 119.141 193.844C117.402 194.651 115.962 194.969 114.823 194.797C112.956 194.517 111.516 193.767 110.502 192.547C109.488 191.326 109.14 189.656 109.458 187.536C109.705 185.89 110.355 184.257 111.408 182.635C112.465 180.982 113.771 179.398 115.325 177.884C116.879 176.37 118.543 174.986 120.317 173.732C122.128 172.451 123.91 171.359 125.663 170.458C127.421 169.524 129.03 168.828 130.491 168.368C131.952 167.907 133.109 167.742 133.963 167.87C134.913 168.013 135.491 168.472 135.698 169.247ZM134.221 171.646C134.012 171.744 133.788 171.84 133.547 171.933C133.343 172 133.137 172.082 132.928 172.18C131.611 172.759 130.192 173.484 128.669 174.355C127.152 175.195 125.631 176.164 124.107 177.262C122.588 178.328 121.17 179.474 119.853 180.7C118.573 181.899 117.498 183.129 116.629 184.39C115.797 185.624 115.288 186.858 115.102 188.093C115.069 188.314 115.14 188.487 115.316 188.61C115.491 188.733 115.658 188.807 115.816 188.831C116.924 188.997 118.184 188.685 119.598 187.894C121.042 187.108 122.56 185.945 124.151 184.404C125.777 182.836 127.434 180.965 129.119 178.792C130.837 176.623 132.537 174.241 134.221 171.646ZM199.855 205.532C198.937 205.394 198.284 205.004 197.894 204.363C197.537 203.727 197.432 202.919 197.579 201.938C197.698 201.147 197.832 200.471 197.981 199.911C198.13 199.351 198.347 198.768 198.631 198.164C198.921 197.528 199.28 196.757 199.707 195.85C200.171 194.917 200.754 193.726 201.457 192.279C201.875 191.435 202.397 190.332 203.022 188.97C203.684 187.581 204.364 186.065 205.064 184.423C205.768 182.749 206.394 181.063 206.94 179.366C207.523 177.641 207.926 176.035 208.149 174.548C208.301 173.535 208.22 172.568 207.905 171.647C204.525 174.117 201.17 177.496 197.84 181.785C194.541 186.078 191.414 191.174 188.457 197.073C187.623 198.533 186.77 199.473 185.898 199.892C185.03 200.279 184.233 200.418 183.505 200.309C183.284 200.276 182.97 200.099 182.565 199.779C182.165 199.428 181.83 198.86 181.559 198.075C181.289 197.29 181.253 196.233 181.453 194.904C181.501 194.588 181.639 194.204 181.869 193.753C182.103 193.271 182.421 192.768 182.823 192.246C183.355 190.643 183.825 188.918 184.232 187.07C184.675 185.195 185.053 183.326 185.365 181.464C185.713 179.575 186.011 177.808 186.258 176.162C186.449 174.896 186.52 173.774 186.473 172.797C184.627 174.526 182.799 176.678 180.989 179.254C179.178 181.829 177.468 184.598 175.858 187.56C174.28 190.526 172.901 193.458 171.722 196.355C171.423 197.054 171.099 197.701 170.751 198.296C170.407 198.859 169.954 199.293 169.39 199.596C168.863 199.873 168.141 199.943 167.223 199.805C166.211 199.653 165.513 199.127 165.13 198.228C164.748 197.33 164.658 196.2 164.863 194.839C165.02 193.795 165.443 192.483 166.133 190.904C166.828 189.293 167.703 187.564 168.757 185.716C169.816 183.837 170.99 181.942 172.28 180.033C173.607 178.096 174.969 176.246 176.366 174.482C177.764 172.718 179.146 171.162 180.514 169.814C181.917 168.44 183.208 167.388 184.385 166.658C185.599 165.902 186.649 165.591 187.535 165.724C187.567 165.729 187.614 165.736 187.678 165.745C188.374 165.85 188.997 166.008 189.548 166.22C190.135 166.406 190.607 166.816 190.964 167.452C191.358 168.062 191.634 169.025 191.792 170.343C191.95 171.662 191.982 173.495 191.888 175.843C191.866 176.422 191.811 177.109 191.724 177.905C191.642 178.67 191.539 179.463 191.415 180.286C192.811 178.101 194.281 176.073 195.824 174.201C197.399 172.334 198.969 170.71 200.536 169.327C202.135 167.949 203.665 166.917 205.127 166.231C206.589 165.544 207.89 165.287 209.029 165.458C210.358 165.657 211.543 166.175 212.582 167.011C213.626 167.815 214.382 169.029 214.85 170.652C215.318 172.276 215.355 174.401 214.96 177.027C214.542 179.812 213.883 182.48 212.982 185.03C212.086 187.549 211.084 189.906 209.978 192.102C208.871 194.298 207.793 196.304 206.744 198.121C205.699 199.905 204.819 201.456 204.104 202.772C203.545 203.691 202.949 204.427 202.316 204.979C201.688 205.499 200.867 205.684 199.855 205.532ZM248.389 214.618C247.154 214.432 246.302 213.965 245.833 213.215C245.358 212.496 245.266 211.172 245.556 209.241C245.803 207.596 246.393 205.5 247.325 202.954C248.258 200.409 249.284 197.667 250.405 194.729C246.303 198.125 241.877 200.017 237.127 200.403C235.924 202.164 234.587 203.743 233.115 205.14C231.643 206.537 230.106 207.616 228.503 208.379C226.936 209.114 225.377 209.365 223.827 209.132C221.897 208.842 220.33 207.96 219.128 206.485C217.957 205.015 217.569 202.966 217.964 200.34C218.23 198.568 218.725 197.105 219.448 195.952C220.176 194.767 220.936 193.91 221.727 193.382C221.338 192.094 221.26 190.674 221.493 189.124C221.807 187.035 222.655 185.27 224.036 183.827C225.418 182.384 227.111 181.344 229.116 180.707C231.153 180.074 233.278 179.924 235.494 180.257C236.728 180.442 237.851 180.935 238.864 181.734C239.912 182.506 240.69 183.578 241.196 184.948C241.738 186.292 241.867 187.913 241.582 189.811C241.344 191.394 240.845 193.099 240.086 194.926C242.532 193.934 245.02 192.447 247.551 190.465C250.113 188.488 252.481 186.19 254.654 183.572C255.32 182.798 256.144 182.485 257.125 182.633C257.947 182.756 258.558 183.107 258.957 183.684C259.392 184.235 259.55 184.906 259.431 185.697C259.407 185.855 259.234 186.363 258.911 187.221C258.588 188.078 258.161 189.195 257.631 190.572C257.105 191.917 256.527 193.399 255.895 195.019C255.295 196.644 254.69 198.301 254.081 199.989C253.471 201.677 252.908 203.275 252.39 204.783C253.436 203.419 254.56 201.97 255.761 200.436C256.999 198.874 258.263 197.349 259.555 195.86C260.851 194.34 262.108 192.976 263.325 191.767C264.542 190.558 265.637 189.623 266.61 188.96C267.588 188.265 268.378 187.963 268.979 188.054C270.181 188.234 271.142 188.734 271.86 189.554C272.578 190.374 272.883 191.148 272.773 191.876C272.664 192.603 272.416 193.715 272.03 195.21C271.643 196.705 271.181 198.383 270.643 200.244C270.141 202.078 269.62 203.925 269.082 205.786C268.544 207.646 268.079 209.34 267.688 210.867C267.301 212.362 267.051 213.489 266.937 214.249C266.842 214.882 266.451 215.438 265.764 215.917C265.077 216.397 264.354 216.579 263.595 216.465C263.532 216.456 263.421 216.439 263.263 216.415C262.878 216.39 262.539 216.274 262.247 216.068C261.949 215.894 261.752 215.379 261.654 214.523C261.587 213.672 261.702 212.265 261.996 210.303C262.196 208.974 262.478 207.528 262.842 205.965C263.206 204.402 263.602 202.843 264.03 201.289C264.494 199.709 264.957 198.241 265.419 196.887C264.392 198.124 263.242 199.537 261.967 201.125C260.73 202.687 259.437 204.288 258.091 205.931C256.748 207.541 255.441 209.027 254.169 210.389C252.933 211.725 251.803 212.785 250.779 213.569C249.787 214.359 248.99 214.708 248.389 214.618ZM232.922 196.083C233.519 194.91 234.044 193.679 234.497 192.388C234.954 191.065 235.28 189.755 235.475 188.457C235.556 187.919 235.524 187.381 235.378 186.841C235.233 186.301 234.891 185.991 234.353 185.91C233.277 185.749 232.184 185.811 231.073 186.097C229.994 186.388 229.06 186.895 228.272 187.618C227.484 188.341 227.004 189.272 226.833 190.411C226.681 191.424 226.885 192.328 227.445 193.124C228.037 193.925 228.813 194.575 229.773 195.076C230.765 195.581 231.767 195.909 232.78 196.061C232.811 196.066 232.859 196.073 232.922 196.083ZM230.349 199.967C229.246 199.769 228.191 199.465 227.185 199.055C226.183 198.614 225.294 198.076 224.515 197.441C224.344 197.933 224.176 198.409 224.009 198.87C223.848 199.298 223.736 199.718 223.674 200.13C223.57 200.826 223.586 201.476 223.722 202.078C223.894 202.654 224.36 203 225.119 203.114C225.91 203.232 226.754 203.003 227.649 202.426C228.577 201.853 229.477 201.034 230.349 199.967ZM311.728 197.193C311.671 197.573 311.494 197.886 311.198 198.133C310.902 198.38 310.552 198.554 310.149 198.655C309.578 198.795 308.601 198.94 307.22 199.089C305.839 199.237 304.165 199.39 302.2 199.548C300.266 199.711 298.188 199.868 295.965 200.019C293.747 200.139 291.53 200.243 289.317 200.331C288.038 203.245 286.729 206.252 285.389 209.352C284.055 212.419 282.727 215.44 281.407 218.413C280.924 219.473 280.419 220.254 279.89 220.757C279.357 221.292 278.552 221.478 277.476 221.317C276.305 221.141 275.571 220.642 275.274 219.821C275.003 219.036 275.106 218.032 275.581 216.809C276.922 213.484 278.164 210.386 279.307 207.516C280.481 204.65 281.428 202.333 282.147 200.564C280.2 200.596 278.501 200.599 277.048 200.575C275.601 200.52 274.579 200.431 273.982 200.309C273.327 200.146 272.814 199.793 272.442 199.252C272.07 198.711 271.952 198.095 272.089 197.403C272.247 196.78 272.613 196.285 273.185 195.918C273.763 195.519 274.407 195.325 275.118 195.334C276.113 195.387 277.4 195.434 278.979 195.477C280.558 195.52 282.3 195.556 284.205 195.583C284.859 194.031 285.583 192.441 286.378 190.813C287.178 189.153 287.981 187.575 288.788 186.078C289.632 184.555 290.413 183.232 291.132 182.11C291.85 180.989 292.471 180.192 292.995 179.721C293.405 179.362 293.88 179.109 294.419 178.964C294.991 178.823 295.529 178.791 296.036 178.867C296.7 178.967 297.203 179.285 297.543 179.821C297.883 180.358 298.005 180.942 297.91 181.575C297.872 181.828 297.816 182.095 297.742 182.375C297.672 182.624 297.571 182.867 297.438 183.106C296.599 184.598 295.662 186.415 294.629 188.557C293.627 190.704 292.56 193.068 291.428 195.649C293.853 195.657 296.232 195.658 298.562 195.652C300.93 195.62 303.07 195.585 304.985 195.549C306.936 195.486 308.5 195.414 309.677 195.332C310.343 195.205 310.874 195.334 311.27 195.717C311.67 196.068 311.823 196.56 311.728 197.193ZM301.736 221.28C300.945 221.161 300.307 220.774 299.823 220.119C299.371 219.469 299.225 218.605 299.387 217.53C299.458 217.055 299.638 216.289 299.926 215.232C300.251 214.148 300.631 212.911 301.066 211.52C301.533 210.134 301.994 208.683 302.448 207.165C302.934 205.653 303.361 204.212 303.728 202.844C304.127 201.48 304.432 200.312 304.643 199.341C304.887 198.148 305.332 197.341 305.977 196.92C306.628 196.467 307.349 196.301 308.14 196.42C308.773 196.515 309.318 196.758 309.777 197.151C310.272 197.516 310.512 198.183 310.496 199.152C310.516 200.093 310.332 201.425 309.944 203.146C311.717 200.824 313.465 198.773 315.189 196.993C316.944 195.218 318.7 193.864 320.459 192.931C323.385 191.332 325.908 190.691 328.028 191.01C329.23 191.19 329.981 191.578 330.28 192.173C330.579 192.768 330.686 193.351 330.6 193.92C330.543 194.3 330.396 194.634 330.158 194.922C329.953 195.214 329.555 195.494 328.964 195.762C328.374 196.029 327.482 196.364 326.289 196.767C324.688 197.303 323.067 198.079 321.426 199.095C319.816 200.115 318.155 201.483 316.441 203.2C314.727 204.916 312.93 207.073 311.052 209.671C309.173 212.269 307.166 215.397 305.031 219.057C304.584 220.09 304.066 220.74 303.476 221.007C302.917 221.28 302.337 221.37 301.736 221.28ZM328.103 225.767C326.141 225.472 324.661 224.554 323.663 223.012C322.669 221.439 322.403 219.118 322.864 216.049C323.159 214.087 323.675 212.158 324.413 210.262C325.187 208.34 326.119 206.555 327.207 204.906C328.333 203.231 329.554 201.78 330.871 200.554C332.219 199.333 333.633 198.429 335.113 197.842C336.597 197.224 338.067 197.024 339.522 197.242C341.991 197.613 343.821 198.568 345.014 200.106C346.207 201.644 346.649 203.442 346.34 205.499C346.102 207.081 345.443 208.454 344.362 209.619C343.317 210.756 341.975 211.719 340.336 212.509C338.696 213.298 336.897 213.966 334.938 214.513C332.979 215.06 330.985 215.521 328.954 215.896C328.625 217.011 328.394 218.012 328.261 218.898C328.18 219.436 328.44 219.75 329.041 219.84C330.465 220.054 332.018 220.061 333.698 219.86C335.415 219.633 337.167 219.281 338.953 218.805C340.744 218.297 342.475 217.765 344.144 217.206C345.818 216.617 347.343 216.053 348.718 215.515C350.13 214.95 351.28 214.508 352.169 214.189C353.095 213.843 353.685 213.689 353.938 213.727C354.634 213.831 355.109 214.113 355.364 214.572C355.619 215.031 355.71 215.498 355.639 215.972C355.606 216.194 355.105 216.62 354.136 217.251C353.2 217.887 351.925 218.618 350.312 219.443C348.736 220.242 346.963 221.06 344.993 221.897C343.059 222.706 341.054 223.457 338.976 224.148C336.935 224.812 334.969 225.293 333.08 225.592C331.217 225.927 329.558 225.985 328.103 225.767ZM330.396 211.792C331.807 211.228 333.208 210.629 334.597 209.996C336.023 209.337 337.242 208.549 338.253 207.633C339.269 206.685 339.884 205.5 340.098 204.076C340.16 203.664 340.089 203.379 339.887 203.219C339.689 203.027 339.384 202.901 338.973 202.839C337.865 202.672 336.779 203.011 335.714 203.854C334.681 204.702 333.699 205.849 332.77 207.295C331.878 208.714 331.086 210.213 330.396 211.792ZM366.168 232.018C365.441 231.909 364.821 231.509 364.31 230.817C363.826 230.162 363.686 229.154 363.891 227.793C364.043 226.78 364.334 225.384 364.763 223.604C365.228 221.797 365.931 219.492 366.869 216.688C365.42 218.8 363.96 220.652 362.492 222.244C361.023 223.835 359.627 225.049 358.304 225.886C357.018 226.696 355.852 227.022 354.808 226.866C353.131 226.614 351.878 225.908 351.049 224.748C350.225 223.556 350.026 221.536 350.454 218.688C350.659 217.327 351 215.809 351.478 214.134C351.988 212.463 352.561 210.802 353.198 209.15C353.834 207.498 354.442 206.036 355.021 204.764C355.637 203.465 356.153 202.507 356.569 201.89C356.908 201.359 357.291 200.963 357.718 200.704C358.177 200.449 358.723 200.369 359.356 200.464C360.369 200.616 361.094 201.065 361.532 201.81C361.97 202.556 362.137 203.277 362.033 203.973C361.952 204.511 361.709 205.267 361.303 206.242C360.93 207.221 360.476 208.302 359.943 209.484C359.441 210.67 358.919 211.886 358.376 213.131C357.833 214.376 357.349 215.55 356.925 216.651C356.532 217.757 356.276 218.705 356.157 219.496C356.01 220.477 356.316 221.025 357.076 221.139C357.519 221.205 358.152 220.864 358.977 220.114C359.833 219.369 360.764 218.344 361.769 217.039C362.81 215.706 363.871 214.248 364.95 212.663C366.066 211.05 367.105 209.411 368.067 207.743C369.066 206.049 369.933 204.48 370.667 203.037C371.126 202.135 371.653 201.535 372.248 201.236C372.843 200.937 373.489 200.84 374.185 200.944C375.261 201.106 376.039 201.53 376.518 202.217C377.029 202.909 377.201 203.808 377.035 204.916C376.959 205.422 376.751 206.265 376.413 207.443C376.074 208.622 375.657 209.999 375.161 211.575C374.697 213.156 374.171 214.824 373.584 216.581C372.997 218.337 372.414 220.061 371.836 221.754C371.29 223.452 370.765 225.007 370.261 226.42C369.763 227.801 369.354 228.905 369.036 229.731C368.529 230.949 368.036 231.652 367.555 231.838C367.074 232.025 366.611 232.085 366.168 232.018ZM378.051 230.648C377.292 230.534 376.776 230.198 376.504 229.639C376.237 229.049 376.194 228.363 376.376 227.581C376.474 227.143 376.918 226.562 377.706 225.84C378.499 225.085 379.519 224.219 380.766 223.241C382.017 222.232 383.392 221.16 384.889 220.026C386.422 218.865 387.99 217.693 389.591 216.51C388.236 213.685 387.232 211.431 386.579 209.747C385.957 208.068 385.681 206.781 385.751 205.885C385.835 204.895 386.112 204.127 386.582 203.583C387.084 203.044 387.778 202.841 388.664 202.974C389.17 203.05 389.657 203.365 390.123 203.921C390.622 204.481 391.203 205.458 391.867 206.853C392.563 208.251 393.465 210.215 394.574 212.744C397.086 210.888 399.14 209.385 400.736 208.233C402.37 207.055 403.67 206.15 404.639 205.519C405.639 204.892 406.398 204.473 406.915 204.259C407.464 204.05 407.913 203.972 408.261 204.024C409.021 204.138 409.518 204.488 409.754 205.074C410.026 205.632 410.068 206.318 409.882 207.132C409.718 207.787 409.202 208.534 408.331 209.374C407.497 210.187 406.443 211.064 405.169 212.006C403.9 212.915 402.529 213.858 401.056 214.834C399.619 215.783 398.216 216.721 396.847 217.648C398.391 220.727 399.86 223.44 401.255 225.785C402.687 228.103 403.838 230.024 404.71 231.546C405.586 233.037 405.992 234.101 405.929 234.739C405.892 235.413 405.64 235.909 405.171 236.227C404.735 236.549 404.152 236.656 403.425 236.547C403.013 236.485 402.528 236.266 401.97 235.891C401.411 235.516 400.692 234.81 399.813 233.771C398.965 232.738 397.899 231.219 396.614 229.214C395.366 227.182 393.831 224.476 392.009 221.096C390.512 222.23 389.015 223.364 387.518 224.498C386.052 225.637 384.664 226.691 383.354 227.659C382.08 228.6 380.964 229.354 380.005 229.922C379.082 230.463 378.431 230.705 378.051 230.648ZM444.678 211.048C443.064 210.805 441.946 210.492 441.324 210.107C440.707 209.691 440.368 209.252 440.308 208.79C440.248 208.328 440.254 207.859 440.325 207.385L440.333 207.337C440.413 206.799 440.788 206.241 441.458 205.662C442.159 205.087 443.127 204.78 444.363 204.739C446.134 204.584 448.028 204.578 450.045 204.719C452.067 204.828 454.03 205.01 455.934 205.264C457.873 205.49 459.571 205.713 461.027 205.932C462.478 206.182 463.55 206.586 464.243 207.143C464.94 207.668 465.375 208.219 465.548 208.795C465.756 209.344 465.832 209.808 465.775 210.188C465.699 210.694 465.426 211.22 464.956 211.764C464.491 212.276 463.609 212.435 462.312 212.24C461.837 212.169 461.168 212.101 460.304 212.036C459.44 211.971 458.477 211.923 457.413 211.893C457.085 213.429 456.587 215.345 455.919 217.639C455.251 219.933 454.396 222.393 453.354 225.02C452.349 227.619 451.149 230.222 449.755 232.828C448.396 235.406 446.825 237.791 445.039 239.982C443.291 242.147 441.338 243.941 439.183 245.364C437.059 246.793 434.716 247.638 432.152 247.9C431.627 247.951 431.17 247.979 430.78 247.985C430.418 248.028 429.984 248.011 429.477 247.935C428.56 247.797 427.829 247.493 427.285 247.023C426.74 246.553 426.446 245.927 426.402 245.143C426.382 244.202 426.623 243.348 427.127 242.582C427.593 241.844 428.339 241.405 429.363 241.268C431.787 240.856 433.944 240.063 435.835 238.891C437.763 237.692 439.527 235.967 441.127 233.716C442.763 231.438 444.305 228.498 445.752 224.897C447.236 221.269 448.714 216.815 450.186 211.535C449.096 211.469 448.071 211.396 447.113 211.316C446.154 211.237 445.342 211.148 444.678 211.048ZM460.724 245.882C459.711 245.73 458.836 245.307 458.099 244.614C457.357 243.952 456.815 243.143 456.473 242.185C456.137 241.196 456.047 240.18 456.203 239.135C456.498 237.173 457.213 235.323 458.348 233.584C459.514 231.85 460.936 230.252 462.612 228.789C464.288 227.325 466.069 226.023 467.955 224.883C469.878 223.716 471.754 222.752 473.583 221.991C475.444 221.235 477.113 220.677 478.591 220.316C480.101 219.961 481.251 219.842 482.042 219.961C482.96 220.099 483.673 220.416 484.181 220.913C484.725 221.383 484.935 222.03 484.812 222.852C484.774 223.106 484.679 223.302 484.529 223.441C484.926 223.598 485.223 223.885 485.419 224.303C485.615 224.72 485.656 225.309 485.542 226.069C485.494 226.385 485.292 227.196 484.934 228.501C484.576 229.807 484.16 231.394 483.684 233.264C483.241 235.139 482.865 237.105 482.556 239.162C482.508 239.479 482.513 239.771 482.57 240.038C482.632 240.274 482.821 240.415 483.137 240.463C484.403 240.653 485.723 240.592 487.096 240.281C488.506 239.943 489.885 239.487 491.233 238.912C492.618 238.311 493.874 237.707 495 237.1C496.163 236.466 497.131 235.948 497.903 235.546C498.712 235.117 499.227 234.92 499.449 234.953C500.524 235.114 500.982 235.733 500.82 236.809C500.777 237.094 500.339 237.643 499.505 238.456C498.707 239.242 497.635 240.133 496.288 241.128C494.946 242.091 493.462 243.033 491.835 243.954C490.245 244.847 488.62 245.542 486.96 246.037C485.331 246.536 483.805 246.679 482.381 246.465C480.641 246.204 479.373 245.593 478.579 244.632C477.817 243.676 477.35 242.474 477.18 241.024C477.045 239.548 477.096 237.921 477.33 236.145C475.369 238.212 473.383 240.017 471.372 241.559C469.397 243.075 467.492 244.229 465.658 245.021C463.824 245.814 462.179 246.1 460.724 245.882ZM481.099 224.625C477.775 225.646 474.733 226.937 471.975 228.496C469.221 230.024 466.96 231.723 465.191 233.593C463.453 235.468 462.439 237.37 462.149 239.3C462.068 239.838 462.281 240.145 462.787 240.221C463.388 240.312 464.232 240.083 465.317 239.534C466.435 238.99 467.664 238.236 469.006 237.273C470.353 236.278 471.719 235.156 473.104 233.908C474.493 232.628 475.808 231.305 477.049 229.938C478.29 228.571 479.315 227.237 480.126 225.935C480.423 225.461 480.748 225.025 481.099 224.625ZM514.545 253.335C514.228 253.288 513.629 253.182 512.748 253.017C511.867 252.852 510.814 252.645 509.589 252.397C508.364 252.148 507.092 251.892 505.773 251.629C504.485 251.371 503.258 251.138 502.092 250.931C500.925 250.723 499.979 250.565 499.251 250.455C498.111 250.284 497.214 249.794 496.559 248.983C495.941 248.146 495.729 247.079 495.924 245.781C496.038 245.022 496.599 244.087 497.607 242.976C498.652 241.839 499.969 240.613 501.558 239.298C503.151 237.952 504.858 236.607 506.678 235.262C508.53 233.922 510.351 232.675 512.142 231.52C513.97 230.339 515.577 229.334 516.963 228.507C514.832 228.478 512.773 228.509 510.785 228.598C508.798 228.688 507.071 228.768 505.604 228.839C504.169 228.915 503.198 228.915 502.692 228.839C501.774 228.701 501.084 228.338 500.622 227.751C500.165 227.133 500.003 226.38 500.136 225.494C500.193 225.114 500.648 224.778 501.501 224.486C502.359 224.161 503.497 223.912 504.914 223.736C506.332 223.561 507.919 223.443 509.676 223.384C511.464 223.329 513.303 223.362 515.194 223.484C517.121 223.58 519.002 223.765 520.838 224.041C521.724 224.174 522.434 224.507 522.969 225.041C523.54 225.547 523.934 226.156 524.151 226.868C524.404 227.554 524.48 228.229 524.38 228.893C524.342 229.146 523.916 229.616 523.101 230.303C522.286 230.989 521.221 231.832 519.906 232.832C518.595 233.8 517.142 234.86 515.545 236.012C513.953 237.132 512.356 238.283 510.755 239.466C509.19 240.623 507.729 241.73 506.373 242.788C505.016 243.847 503.905 244.78 503.04 245.588C504.279 245.742 505.678 245.904 507.238 246.073C508.798 246.243 510.311 246.405 511.776 246.561C513.241 246.716 514.514 246.859 515.595 246.989C516.676 247.119 517.358 247.205 517.643 247.248C518.656 247.4 519.348 247.747 519.72 248.288C520.091 248.829 520.23 249.416 520.135 250.049C519.992 250.998 519.395 251.847 518.345 252.595C517.33 253.317 516.064 253.563 514.545 253.335ZM543.344 257.661C543.028 257.614 542.429 257.508 541.547 257.343C540.666 257.178 539.613 256.971 538.388 256.723C537.164 256.474 535.892 256.218 534.572 255.955C533.284 255.697 532.057 255.464 530.891 255.257C529.725 255.049 528.778 254.891 528.05 254.781C526.911 254.61 526.014 254.12 525.359 253.309C524.74 252.472 524.529 251.405 524.723 250.107C524.838 249.348 525.399 248.413 526.407 247.302C527.451 246.165 528.768 244.939 530.357 243.624C531.951 242.278 533.657 240.933 535.477 239.588C537.329 238.248 539.15 237.001 540.942 235.846C542.77 234.665 544.377 233.66 545.763 232.833C543.632 232.804 541.572 232.835 539.585 232.924C537.597 233.014 535.87 233.094 534.404 233.165C532.968 233.241 531.998 233.241 531.491 233.165C530.574 233.027 529.884 232.664 529.422 232.077C528.965 231.459 528.803 230.706 528.936 229.82C528.993 229.44 529.448 229.104 530.301 228.812C531.158 228.487 532.296 228.238 533.714 228.062C535.132 227.887 536.719 227.769 538.475 227.71C540.263 227.655 542.103 227.688 543.993 227.81C545.921 227.906 547.802 228.091 549.637 228.367C550.523 228.5 551.234 228.833 551.768 229.367C552.34 229.873 552.733 230.482 552.95 231.194C553.203 231.88 553.28 232.555 553.18 233.219C553.142 233.472 552.715 233.942 551.9 234.629C551.085 235.315 550.02 236.158 548.705 237.158C547.395 238.126 545.941 239.186 544.344 240.338C542.752 241.458 541.156 242.609 539.554 243.792C537.989 244.949 536.528 246.056 535.172 247.114C533.816 248.173 532.705 249.106 531.839 249.914C533.078 250.068 534.478 250.23 536.038 250.399C537.598 250.569 539.11 250.731 540.576 250.887C542.041 251.042 543.314 251.185 544.394 251.315C545.475 251.445 546.158 251.531 546.443 251.574C547.455 251.726 548.147 252.073 548.519 252.614C548.891 253.155 549.029 253.742 548.934 254.375C548.792 255.324 548.195 256.173 547.144 256.921C546.13 257.643 544.863 257.889 543.344 257.661Z" fill="#7758CA"/>
</svg>
