<svg width="185" height="84" viewBox="0 0 185 84" fill="none" xmlns="http://www.w3.org/2000/svg">
<path d="M8.90238 30.1738C7.70982 30.0403 6.81327 29.8514 6.21272 29.6071C5.62806 29.3646 5.24045 29.0877 5.04987 28.7766C4.85752 28.4814 4.77735 28.1907 4.80939 27.9044C4.85388 27.5069 5.01756 27.1952 5.30045 26.9693C5.59923 26.7451 5.96329 26.657 6.39261 26.7051C6.67882 26.7371 7.08779 26.8231 7.61952 26.9632C8.15124 27.1032 8.68742 27.2034 9.22804 27.2639C10.8181 27.4419 12.1726 27.2071 13.2916 26.5595C14.4088 25.9279 15.347 24.8817 16.1061 23.4211C16.8671 21.9446 17.4897 20.0501 17.9739 17.7376C16.6756 19.4116 15.2982 20.7144 13.8415 21.6462C12.4007 22.5797 10.9648 22.9664 9.53374 22.8063C7.84827 22.6176 7.09807 21.6965 7.28315 20.0428C7.37213 19.2478 7.68021 18.437 8.20741 17.6105C8.73461 16.784 9.40402 15.9815 10.2157 15.2029C11.0273 14.4244 11.9051 13.7015 12.8492 13.0344C13.795 12.3514 14.7302 11.7637 15.6547 11.2715C16.5951 10.7811 17.4576 10.4107 18.2423 10.1604C19.0288 9.89424 19.6526 9.78696 20.1137 9.83857C20.4794 9.8795 20.7903 9.97869 21.0464 10.1362C21.3184 10.2954 21.5125 10.5747 21.6288 10.9741C21.7469 11.3576 21.7659 11.9072 21.6858 12.6227C21.4634 14.6103 21.1765 16.5263 20.8252 18.3706C20.4756 20.1991 20.006 21.8773 19.4164 23.4052C18.8268 24.9331 18.0687 26.2409 17.142 27.3286C16.2311 28.418 15.1032 29.2175 13.7582 29.7271C12.4132 30.2366 10.7946 30.3855 8.90238 30.1738ZM10.3895 19.9075C10.377 20.0188 10.4185 20.0798 10.5139 20.0904C10.8319 20.126 11.2799 20.0071 11.8579 19.7337C12.4377 19.4444 13.0697 19.0482 13.7539 18.5452C14.4557 18.0281 15.1488 17.4455 15.8331 16.7976C16.5192 16.1338 17.1364 15.4382 17.6848 14.7106C18.249 13.9849 18.6754 13.2679 18.9639 12.5596C18.0837 12.9441 17.1628 13.4045 16.2012 13.9408C15.2572 14.4631 14.3556 15.0384 13.4964 15.6667C12.6531 16.2968 11.9414 16.9739 11.3613 17.6978C10.7988 18.4077 10.4749 19.1442 10.3895 19.9075ZM56.9405 17.0997C56.9156 17.3223 56.5859 17.5349 55.9514 17.7376C55.3169 17.9403 54.4739 18.1358 53.4225 18.324C52.3887 18.4981 51.2357 18.6588 49.9634 18.8062C48.6929 18.9377 47.4091 19.0436 46.1122 19.1239C45.5014 20.5528 44.8969 21.9985 44.2985 23.461C43.7019 24.9077 43.1716 26.2651 42.7077 27.5334C42.589 27.8743 42.3768 28.1162 42.071 28.2591C41.7811 28.4037 41.4772 28.4582 41.1592 28.4227C40.7616 28.3782 40.4481 28.2304 40.2186 27.9793C39.9874 27.7441 39.8904 27.4596 39.9278 27.1256C39.9918 26.5532 40.2532 25.6567 40.7118 24.4362C41.1704 23.2156 41.7113 21.8352 42.3345 20.2949C41.4856 21.2625 40.6385 22.1418 39.7933 22.9327C38.9481 23.7236 38.1604 24.3599 37.4303 24.8417C36.2848 25.5829 35.119 26.1447 33.9332 26.5272C32.7614 26.9273 31.619 27.0651 30.5059 26.9406C28.725 26.7412 27.4789 26.151 26.7677 25.1698C26.0564 24.1886 25.7986 22.8234 25.9944 21.0744C26.1065 20.0726 26.329 19.0913 26.662 18.1303C27.0126 17.1553 27.4356 16.2527 27.931 15.4227C28.4282 14.5767 28.9694 13.8404 29.5548 13.2136C30.1401 12.5868 30.7324 12.1138 31.3317 11.7944C31.9327 11.4592 32.5114 11.3227 33.068 11.385C34.4354 11.538 35.3883 12.015 35.9266 12.8158C36.4825 13.6025 36.7018 14.5206 36.5843 15.5701C36.5042 16.2856 36.221 16.9462 35.7346 17.5519C35.2641 18.1593 34.6638 18.7039 33.9337 19.1857C33.2054 19.6516 32.4064 20.0291 31.5369 20.3181C30.6832 20.609 29.8332 20.7956 28.9868 20.878C28.9743 20.9893 28.961 21.1085 28.9468 21.2357C28.8329 22.2534 28.9454 22.9744 29.2843 23.3987C29.6391 23.8248 30.2538 24.0868 31.1283 24.1847C32.5753 24.3466 34.0677 24.0307 35.6055 23.2368C37.161 22.4288 38.7576 21.1102 40.3952 19.281C39.7379 19.2557 39.1708 19.2164 38.6938 19.163C38.01 19.0865 37.5764 18.9333 37.3928 18.7034C37.2269 18.4595 37.1662 18.1387 37.2107 17.7412C37.2249 17.614 37.2975 17.4692 37.4284 17.3067C37.5769 17.1302 37.7467 16.9801 37.9376 16.8566C38.1462 16.7189 38.3539 16.6617 38.5606 16.6848C39.2514 16.6977 39.9184 16.708 40.5616 16.7156C41.2206 16.7249 41.8488 16.7228 42.446 16.7091C43.7531 14.9556 45.0614 12.9044 46.3708 10.5555C46.9566 9.34913 47.5298 8.39899 48.0905 7.70505C48.6688 6.99698 49.2204 6.67231 49.7451 6.73103C50.0154 6.76129 50.2494 6.90018 50.4471 7.1477C50.6625 7.38111 50.7444 7.72837 50.6927 8.18949C50.6696 8.3962 50.4925 8.89962 50.1615 9.69977C49.8481 10.4858 49.4312 11.4776 48.9108 12.6751C48.3904 13.8727 47.8257 15.178 47.2167 16.591C49.823 16.4641 51.8445 16.312 53.2811 16.1347C54.7195 15.9415 55.6216 15.8653 55.9873 15.9063C56.3212 15.9436 56.5711 16.0843 56.737 16.3283C56.9029 16.5722 56.9707 16.8294 56.9405 17.0997ZM29.585 18.5541C30.2425 18.2896 30.8815 17.9747 31.5019 17.6094C32.1242 17.2283 32.6431 16.8356 33.0586 16.4313C33.476 16.0111 33.7078 15.5943 33.754 15.1809C33.795 14.8151 33.7528 14.5448 33.6275 14.3697C33.5181 14.1965 33.2646 14.0876 32.8671 14.0431C32.5173 14.004 32.1416 14.1954 31.7402 14.6174C31.3388 15.0393 30.9452 15.6071 30.5594 16.3206C30.1914 17.02 29.8665 17.7645 29.585 18.5541ZM65.5139 15.2498C65.5085 15.4424 65.4341 15.6031 65.2909 15.732C65.1495 15.8449 64.9842 15.9552 64.795 16.0629C64.5564 16.1811 64.1455 16.3283 63.5623 16.5045C62.9808 16.6648 62.3013 16.8383 61.5237 17.025C60.7479 17.1958 59.9421 17.3471 59.1062 17.4789C58.2704 17.6108 57.4876 17.7003 56.7578 17.7474C56.1753 19.2117 55.5804 20.7148 54.9732 22.2569C54.3818 23.8007 53.7851 25.3197 53.1832 26.814C52.9619 27.3528 52.7239 27.7528 52.4693 28.0141C52.2129 28.2913 51.8143 28.3996 51.2737 28.3391C50.6854 28.2733 50.3092 28.038 50.1452 27.6332C49.9953 27.2462 50.0275 26.7426 50.2418 26.1226C50.6863 24.8844 51.1078 23.7079 51.5062 22.5933C51.9064 21.4628 52.2686 20.4569 52.5926 19.5754C52.9185 18.6781 53.185 17.9513 53.3921 17.3948C53.6011 16.8225 53.7286 16.4746 53.7746 16.3509C54.058 15.5454 54.397 14.6737 54.7918 13.7358C55.1866 12.7979 55.5937 11.8936 56.0131 11.0228C56.4503 10.138 56.859 9.36261 57.2394 8.69679C57.6375 8.01685 57.9727 7.53917 58.2451 7.26375C58.4272 7.07484 58.6517 6.93896 58.9186 6.85613C59.2014 6.77508 59.4779 6.74968 59.7482 6.77994C60.0821 6.81731 60.3391 6.96682 60.5191 7.22846C60.6991 7.49011 60.7713 7.77994 60.7357 8.09795C60.7215 8.22516 60.6984 8.35942 60.6665 8.50075C60.6364 8.62618 60.5903 8.74982 60.5284 8.87169C60.1373 9.63291 59.7028 10.5664 59.2248 11.6721C58.7646 12.7637 58.268 13.9639 57.7351 15.2727C58.5285 15.2327 59.3652 15.1654 60.2452 15.0707C61.1252 14.9759 61.9415 14.8741 62.6943 14.7652C63.4471 14.6562 64.0312 14.5445 64.4465 14.43L64.3723 14.4458C64.7081 14.3224 64.9872 14.3456 65.2097 14.5154C65.434 14.6693 65.5354 14.9141 65.5139 15.2498ZM61.2033 29.4343C60.7581 29.3845 60.3775 29.189 60.0615 28.8477C59.7614 28.5082 59.6496 27.9966 59.7261 27.3129C59.767 26.9472 59.8726 26.4357 60.0427 25.7786C60.2288 25.1232 60.4529 24.4157 60.715 23.6562C60.9789 22.8807 61.2578 22.115 61.5517 21.359C61.8615 20.6048 62.1535 19.9371 62.4279 19.356C62.704 18.759 62.9385 18.3184 63.1313 18.034C63.3789 17.6915 63.5946 17.4902 63.7784 17.4303C63.9799 17.3562 64.1681 17.329 64.343 17.3486C64.6611 17.3842 64.9445 17.5125 65.1935 17.7336C65.4584 17.9564 65.5543 18.3938 65.4813 19.0457C65.4529 19.3001 65.3589 19.7082 65.1994 20.2699C65.0417 20.8158 64.8495 21.4544 64.6228 22.1857C64.396 22.917 64.1507 23.6704 63.8868 24.4459C63.6388 25.2231 63.3953 25.9606 63.1562 26.6583C62.9348 27.3419 62.7497 27.9169 62.6009 28.3833C62.4769 28.7719 62.277 29.0474 62.0013 29.2097C61.7396 29.3897 61.4736 29.4646 61.2033 29.4343ZM65.5852 15.0968C65.0605 15.038 64.5924 14.8327 64.181 14.4808C63.7714 14.1129 63.603 13.603 63.676 12.9511C63.7365 12.4105 63.9206 11.9883 64.2283 11.6847C64.536 11.381 64.8807 11.1781 65.2624 11.0759C65.6618 10.9596 66.0046 10.9175 66.2909 10.9495C66.5771 10.9815 66.888 11.0807 67.2235 11.2471C67.5609 11.3976 67.839 11.646 68.0578 11.9925C68.2943 12.3249 68.3805 12.7773 68.3165 13.3497C68.2738 13.7313 68.0995 14.066 67.7935 14.3538C67.4894 14.6256 67.1288 14.8268 66.7117 14.9572C66.3105 15.0894 65.935 15.1359 65.5852 15.0968ZM68.7173 29.9131C68.3357 29.8703 67.9683 29.7004 67.6152 29.4033C67.2797 29.0921 67.0203 28.6766 66.837 28.157C66.6554 27.6215 66.6047 26.996 66.6847 26.2804C66.7915 25.3264 67.0326 24.323 67.408 23.2702C67.7994 22.2192 68.2463 21.1745 68.749 20.1359C69.2516 19.0974 69.7392 18.1216 70.2117 17.2084C70.4382 16.7669 70.6875 16.4809 70.9597 16.3503C71.2337 16.2039 71.5774 16.1538 71.9909 16.2001C72.929 16.3051 73.3456 16.8266 73.2406 17.7648C73.2228 17.9238 73.1165 18.2258 72.9218 18.671C72.7289 19.1002 72.4767 19.6274 72.1652 20.2526C71.8696 20.8796 71.5519 21.5605 71.2121 22.2953C70.8899 23.0159 70.5819 23.7542 70.288 24.5102C70.0118 25.2521 69.7797 25.9587 69.5919 26.63C70.0199 26.1144 70.5028 25.4681 71.0406 24.6911C71.596 23.8999 72.1797 23.0717 72.7918 22.2064C73.4197 21.3429 74.0405 20.543 74.6542 19.8067C75.2697 19.0545 75.8603 18.4524 76.4261 18.0006C76.9919 17.5487 77.5053 17.3485 77.9665 17.4002C78.364 17.4446 78.7287 17.566 79.0608 17.7641C79.4105 17.9482 79.6964 18.27 79.9187 18.7295C80.1428 19.1732 80.2827 19.7926 80.3386 20.5878C80.4104 21.3847 80.3752 22.4192 80.2328 23.6913C80.1616 24.3273 80.1479 24.9536 80.1915 25.5703C80.2529 26.1729 80.4044 26.689 80.6462 27.1185C80.8897 27.5322 81.2738 27.7683 81.7985 27.8271C82.7048 27.9285 83.5345 27.8523 84.2874 27.5985C85.0403 27.3446 85.712 27.0254 86.3024 26.6407C86.8929 26.2559 87.3896 25.9171 87.7927 25.6241C88.0402 25.4264 88.2506 25.2729 88.4239 25.1635C88.613 25.0558 88.7632 25.0082 88.8745 25.0207C89.2085 25.0581 89.4372 25.1722 89.5607 25.3631C89.7001 25.5558 89.753 25.8032 89.7191 26.1054C89.7013 26.2644 89.5333 26.5434 89.2149 26.9425C88.8965 27.3415 88.4598 27.7917 87.9046 28.2931C87.367 28.7803 86.7597 29.2437 86.0826 29.6831C85.4056 30.1225 84.6906 30.4691 83.9377 30.723C83.1848 30.9768 82.4347 31.0619 81.6873 30.9783C80.4312 30.8377 79.4146 30.4985 78.6376 29.9607C77.8782 29.4089 77.3594 28.578 77.0812 27.4682C76.8046 26.3424 76.7705 24.8494 76.9787 22.989C76.9841 22.9413 76.9929 22.8618 77.0054 22.7505C77.0606 22.2575 77.1016 21.8194 77.1284 21.436C77.1711 21.0544 77.1819 20.7416 77.1609 20.4978C76.8354 20.9604 76.4436 21.5123 75.9855 22.1533C75.5433 22.7961 75.0639 23.4831 74.5474 24.2141C74.0326 24.9293 73.5029 25.6348 72.9581 26.3305C72.4151 27.0103 71.8793 27.6266 71.3505 28.1792C70.8377 28.7336 70.3541 29.1705 69.8997 29.4899C69.4454 29.8094 69.0512 29.9504 68.7173 29.9131ZM86.8842 38.9014C85.6917 38.768 84.7951 38.5791 84.1946 38.3348C83.6099 38.0922 83.2223 37.8154 83.0317 37.5043C82.8394 37.2091 82.7592 36.9183 82.7913 36.6321C82.8357 36.2346 82.9994 35.9229 83.2823 35.6969C83.5811 35.4728 83.9452 35.3847 84.3745 35.4328C84.6607 35.4648 85.0697 35.5508 85.6014 35.6908C86.1331 35.8308 86.6693 35.9311 87.2099 35.9916C88.8 36.1696 90.1545 35.9348 91.2735 35.2872C92.3907 34.6556 93.3288 33.6094 94.088 32.1488C94.849 30.6723 95.4715 28.7778 95.9557 26.4653C94.6575 28.1392 93.28 29.4421 91.8234 30.3739C90.3826 31.3074 88.9467 31.6941 87.5156 31.534C85.8301 31.3453 85.0799 30.4242 85.265 28.7705C85.354 27.9755 85.6621 27.1647 86.1893 26.3382C86.7165 25.5117 87.3859 24.7092 88.1975 23.9306C89.0092 23.1521 89.887 22.4292 90.8311 21.7621C91.7769 21.079 92.7121 20.4914 93.6365 19.9992C94.5769 19.5087 95.4395 19.1384 96.2242 18.8881C97.0107 18.6219 97.6345 18.5146 98.0956 18.5663C98.4613 18.6072 98.7722 18.7064 99.0283 18.8638C99.3003 19.0231 99.4944 19.3024 99.6107 19.7018C99.7288 20.0853 99.7478 20.6349 99.6677 21.3504C99.4452 23.338 99.1583 25.254 98.807 27.0983C98.4575 28.9268 97.9879 30.605 97.3983 32.1329C96.8087 33.6608 96.0506 34.9686 95.1238 36.0562C94.213 37.1457 93.0851 37.9452 91.7401 38.4548C90.395 38.9643 88.7764 39.1132 86.8842 38.9014ZM88.3713 28.6351C88.3589 28.7465 88.4004 28.8074 88.4958 28.8181C88.8138 28.8537 89.2618 28.7348 89.8398 28.4614C90.4196 28.1721 91.0515 27.7759 91.7357 27.2729C92.4376 26.7558 93.1307 26.1732 93.815 25.5253C94.5011 24.8615 95.1183 24.1658 95.6666 23.4383C96.2308 22.7126 96.6572 21.9956 96.9458 21.2873C96.0656 21.6717 95.1447 22.1322 94.183 22.6685C93.2391 23.1908 92.3375 23.7661 91.4783 24.3944C90.635 25.0245 89.9233 25.7016 89.3431 26.4255C88.7807 27.1354 88.4568 27.8719 88.3713 28.6351ZM113.296 35.9649C112.898 35.9204 112.572 35.739 112.318 35.4208C112.08 35.1043 111.991 34.6757 112.052 34.1351C112.078 33.8966 112.154 33.5106 112.278 32.9771C112.42 32.4295 112.586 31.8041 112.778 31.101C112.985 30.3997 113.188 29.6658 113.386 28.8991C113.601 28.1342 113.787 27.4064 113.945 26.7156C114.118 26.0267 114.249 25.4375 114.336 24.9482C114.435 24.3475 114.642 23.936 114.957 23.7136C115.273 23.4753 115.63 23.3784 116.028 23.4229C116.346 23.4585 116.623 23.57 116.86 23.7575C117.114 23.9309 117.246 24.2596 117.257 24.7438C117.284 25.2138 117.218 25.8825 117.056 26.7499C117.898 25.5562 118.733 24.4985 119.561 23.5768C120.404 22.6569 121.256 21.9473 122.117 21.4479C123.549 20.5939 124.798 20.2265 125.863 20.3457C126.467 20.4134 126.85 20.593 127.01 20.8847C127.171 21.1763 127.235 21.4653 127.203 21.7515C127.182 21.9423 127.114 22.1119 127.001 22.2602C126.904 22.4103 126.71 22.5577 126.42 22.7023C126.131 22.847 125.691 23.0313 125.103 23.2552C124.313 23.5532 123.517 23.9713 122.716 24.5096C121.931 25.0496 121.127 25.7646 120.303 26.6544C119.479 27.5443 118.622 28.6559 117.732 29.9892C116.842 31.3225 115.898 32.9234 114.9 34.792C114.697 35.3166 114.45 35.6513 114.16 35.7959C113.886 35.9424 113.598 35.9987 113.296 35.9649ZM126.133 37.1601C125.147 37.0498 124.39 36.6189 123.863 35.8675C123.337 35.1003 123.16 33.9455 123.333 32.4031C123.443 31.4173 123.665 30.4439 123.998 29.4829C124.348 28.5079 124.78 27.5983 125.293 26.7541C125.824 25.8958 126.407 25.148 127.042 24.5107C127.692 23.8751 128.382 23.3968 129.11 23.0758C129.84 22.7389 130.571 22.6114 131.302 22.6933C132.542 22.8321 133.475 23.2745 134.1 24.0207C134.725 24.7668 134.979 25.6566 134.864 26.6902C134.775 27.4852 134.471 28.1838 133.953 28.7859C133.452 29.3739 132.8 29.8805 131.996 30.3056C131.191 30.7308 130.305 31.0985 129.337 31.4087C128.368 31.7189 127.38 31.9867 126.373 32.2121C126.229 32.7756 126.133 33.28 126.083 33.7252C126.053 33.9955 126.188 34.1476 126.491 34.1814C127.206 34.2615 127.982 34.2356 128.818 34.1037C129.671 33.9577 130.54 33.7491 131.423 33.4777C132.309 33.1904 133.163 32.8916 133.987 32.5812C134.812 32.255 135.564 31.9446 136.241 31.6501C136.935 31.3415 137.502 31.099 137.94 30.9226C138.396 30.7322 138.688 30.644 138.815 30.6583C139.165 30.6974 139.408 30.8293 139.543 31.0538C139.679 31.2783 139.734 31.5098 139.707 31.7483C139.695 31.8596 139.452 32.082 138.98 32.4156C138.524 32.7509 137.901 33.1401 137.111 33.5829C136.339 34.0117 135.468 34.4536 134.499 34.9087C133.548 35.3496 132.56 35.7623 131.535 36.1467C130.528 36.5169 129.555 36.7944 128.617 36.9792C127.692 37.1816 126.864 37.2419 126.133 37.1601ZM127.016 30.1347C127.711 29.826 128.399 29.5006 129.081 29.1584C129.781 28.802 130.375 28.3855 130.863 27.9088C131.353 27.4162 131.638 26.8122 131.718 26.0967C131.741 25.8899 131.701 25.7486 131.597 25.6725C131.494 25.5805 131.34 25.523 131.133 25.4999C130.576 25.4376 130.04 25.6271 129.524 26.0684C129.023 26.5115 128.555 27.103 128.118 27.843C127.698 28.5689 127.331 29.3328 127.016 30.1347ZM137.466 38.525C136.957 38.4681 136.512 38.2734 136.13 37.9409C135.747 37.6243 135.461 37.23 135.272 36.7581C135.086 36.2703 135.021 35.764 135.08 35.2393C135.191 34.2535 135.513 33.3155 136.047 32.4254C136.597 31.5371 137.277 30.7116 138.087 29.949C138.897 29.1863 139.763 28.5023 140.684 27.897C141.622 27.2776 142.542 26.7606 143.441 26.3461C144.357 25.9334 145.18 25.6231 145.912 25.4151C146.66 25.209 147.232 25.1282 147.63 25.1727C148.091 25.2243 148.453 25.3695 148.716 25.6082C148.997 25.8328 149.114 26.1518 149.068 26.5653C149.054 26.6925 149.01 26.7923 148.938 26.8647C149.139 26.9355 149.293 27.0734 149.399 27.2785C149.504 27.4835 149.536 27.7769 149.493 28.1585C149.475 28.3175 149.389 28.7264 149.235 29.3854C149.081 30.0443 148.903 30.8455 148.701 31.7888C148.514 32.734 148.363 33.7233 148.248 34.7569C148.23 34.9159 148.238 35.0616 148.271 35.1942C148.306 35.3108 148.403 35.3781 148.562 35.3959C149.198 35.467 149.857 35.4119 150.537 35.2305C151.235 35.0349 151.916 34.781 152.578 34.4688C153.259 34.1424 153.875 33.8169 154.427 33.4923C154.996 33.1535 155.47 32.8765 155.848 32.6612C156.244 32.4318 156.497 32.3234 156.609 32.3358C157.149 32.3963 157.389 32.6969 157.329 33.2375C157.313 33.3806 157.104 33.6632 156.703 34.0851C156.319 34.493 155.8 34.9581 155.146 35.4806C154.493 35.9872 153.77 36.4858 152.974 36.9763C152.196 37.4528 151.397 37.8303 150.577 38.1088C149.773 38.3891 149.013 38.4892 148.298 38.4091C147.423 38.3112 146.778 38.0298 146.364 37.5647C145.965 37.1015 145.709 36.5094 145.596 35.7884C145.502 35.0533 145.496 34.2396 145.58 33.3474C144.639 34.4174 143.681 35.3566 142.705 36.1651C141.746 36.9594 140.816 37.5718 139.915 38.0022C139.013 38.4326 138.197 38.6069 137.466 38.525ZM147.246 27.5206C145.604 28.0935 144.109 28.7956 142.76 29.6267C141.413 30.4419 140.315 31.3333 139.466 32.3009C138.633 33.2703 138.163 34.2399 138.054 35.2099C138.024 35.4802 138.136 35.6296 138.39 35.6581C138.692 35.6919 139.109 35.5615 139.641 35.2668C140.189 34.9739 140.79 34.5742 141.442 34.0676C142.096 33.5452 142.757 32.9591 143.426 32.3094C144.096 31.6438 144.728 30.9579 145.323 30.2516C145.917 29.5453 146.404 28.8592 146.785 28.1934C146.924 27.9515 147.078 27.7272 147.246 27.5206ZM164.781 27.7443C165.889 25.7592 166.9 23.6989 167.816 21.5635C167.993 21.1325 168.214 20.8111 168.479 20.5993C168.76 20.3892 169.123 20.3091 169.568 20.3589C169.934 20.3999 170.2 20.5423 170.366 20.7863C170.534 21.0144 170.597 21.3112 170.556 21.677C170.522 21.9791 170.334 22.5055 169.993 23.2561C169.653 23.9909 169.234 24.9261 168.737 26.0619C168.24 27.1976 167.722 28.5162 167.183 30.0176C166.645 31.519 166.145 33.1778 165.685 34.9938C165.224 36.8098 164.876 38.7672 164.641 40.8661C164.577 41.4386 164.413 41.8952 164.15 42.236C163.9 42.5945 163.513 42.7443 162.988 42.6856C162.416 42.6215 162.017 42.3756 161.791 41.9479C161.581 41.5219 161.511 40.9988 161.58 40.3787C161.717 39.1543 161.871 38.1411 162.041 37.3391C162.229 36.5229 162.404 35.826 162.565 35.2484C161.636 36.4968 160.68 37.5571 159.697 38.4292C158.732 39.2871 157.823 39.926 156.971 40.3458C156.118 40.7816 155.404 40.9674 154.832 40.9034C153.894 40.7984 153.16 40.4506 152.63 39.86C152.101 39.2694 151.896 38.4415 152.015 37.3761C152.107 36.5493 152.401 35.7208 152.897 34.8908C153.394 34.0448 154.017 33.229 154.765 32.4434C155.513 31.6577 156.318 30.9348 157.181 30.2746C158.061 29.6004 158.931 29.0215 159.79 28.5381C160.651 28.0387 161.442 27.6604 162.163 27.403C162.884 27.1456 163.459 27.0409 163.889 27.089C164.366 27.1424 164.663 27.3608 164.781 27.7443ZM164.089 28.9709C163.986 29.0238 163.876 29.0758 163.757 29.127C163.656 29.164 163.555 29.209 163.452 29.2619C162.805 29.5759 162.11 29.965 161.366 30.4291C160.623 30.8773 159.881 31.39 159.141 31.9671C158.402 32.5284 157.715 33.1277 157.08 33.7651C156.463 34.3883 155.949 35.0231 155.539 35.6695C155.146 36.3017 154.915 36.9279 154.845 37.548C154.833 37.6593 154.872 37.7442 154.962 37.8025C155.052 37.8609 155.137 37.8946 155.216 37.9035C155.773 37.9657 156.396 37.786 157.088 37.3643C157.795 36.9443 158.531 36.3344 159.297 35.5346C160.08 34.7207 160.873 33.7549 161.674 32.6371C162.491 31.521 163.296 30.299 164.089 28.9709ZM171.571 48.0656C170.68 47.9659 169.876 47.8195 169.157 47.6263C168.436 47.4491 167.738 47.21 167.063 46.9091C166.389 46.6081 165.666 46.2294 164.896 45.773C164.58 45.5766 164.321 45.3785 164.118 45.1787C163.915 44.9788 163.833 44.704 163.872 44.3542C163.929 43.8454 164.131 43.4736 164.48 43.2389C164.81 43.0183 165.246 42.9383 165.786 42.9988C166.073 43.0308 166.428 43.1671 166.852 43.4078C167.274 43.6643 167.757 43.9518 168.301 44.2703C168.859 44.6064 169.485 44.91 170.179 45.1809C170.871 45.4677 171.631 45.6573 172.458 45.7499C173.301 45.8442 174.127 45.5824 174.937 44.9647C175.746 44.3469 176.445 43.4269 177.032 42.2047C177.634 41.0001 178.031 39.5392 178.223 37.8219C178.268 37.4244 178.308 36.9942 178.344 36.5313C178.381 36.0525 178.421 35.5499 178.464 35.0234C177.771 36.0405 177.038 36.9808 176.265 37.8442C175.492 38.7076 174.715 39.3934 173.933 39.9017C173.17 40.3958 172.43 40.6028 171.715 40.5228C170.84 40.4249 170.227 40.147 169.876 39.6891C169.542 39.217 169.427 38.5199 169.53 37.5977C169.618 36.8185 169.768 35.9741 169.983 35.0643C170.215 34.1404 170.488 33.213 170.801 32.2821C171.115 31.3512 171.455 30.4715 171.821 29.6431C172.205 28.8006 172.592 28.0791 172.981 27.4787C173.271 27.0443 173.663 26.8547 174.156 26.9098C174.474 26.9454 174.775 27.1321 175.059 27.4698C175.359 27.8093 175.481 28.2334 175.424 28.7422C175.392 29.0284 175.274 29.4339 175.07 29.9585C174.867 30.4831 174.623 31.0757 174.34 31.7363C174.075 32.3827 173.797 33.0681 173.506 33.7923C173.218 34.5006 172.962 35.2045 172.739 35.904C172.517 36.5876 172.374 37.2156 172.31 37.7881C172.303 37.8517 172.347 37.8888 172.443 37.8995C172.634 37.9208 172.906 37.7903 173.259 37.5079C173.631 37.2113 174.045 36.823 174.501 36.3427C174.975 35.8484 175.454 35.3063 175.939 34.7165C176.441 34.1127 176.926 33.515 177.395 32.9234C177.864 32.3319 178.286 31.7915 178.663 31.3024C178.644 31.0427 178.637 30.8165 178.643 30.6239C178.666 30.4172 178.685 30.2423 178.701 30.0992C178.774 29.4472 178.946 28.9191 179.217 28.5147C179.503 28.112 179.988 27.949 180.672 28.0255C181.117 28.0754 181.441 28.2806 181.642 28.6412C181.845 28.9859 181.913 29.4524 181.847 30.0407C181.819 30.2951 181.746 30.5849 181.629 30.9099C181.514 31.219 181.298 31.71 180.981 32.383L181.327 31.6729C181.309 33.12 181.286 34.4054 181.257 35.5292C181.244 36.6547 181.176 37.766 181.053 38.8631C180.822 40.9302 180.272 42.6799 179.403 44.1122C178.548 45.5621 177.447 46.6302 176.098 47.3165C174.765 48.0045 173.256 48.2542 171.571 48.0656ZM11.0234 59.3668C10.6259 59.3223 10.2974 59.1648 10.0379 58.8943C9.77659 58.6396 9.70099 58.1643 9.8111 57.4682C9.9301 56.6926 10.0765 55.8879 10.2503 55.0541C10.4242 54.2202 10.5997 53.4429 10.777 52.7222C11.1634 51.1393 11.3499 49.9044 11.3365 49.0174C11.3408 48.1163 11.1655 47.4527 10.8107 47.0266C10.4718 46.6023 9.98346 46.29 9.34577 46.0898C9.03487 45.9906 8.79381 45.8429 8.62257 45.6466C8.45312 45.4345 8.3853 45.1773 8.41911 44.8752C8.4636 44.4777 8.65197 44.2331 8.98422 44.1415C9.30057 44.0481 9.69726 44.0281 10.1743 44.0815C10.54 44.1225 11.0064 44.1988 11.5735 44.3106C12.1583 44.4082 12.7837 44.5024 13.4497 44.593C14.2109 42.8267 15.008 41.3864 15.8411 40.2722C16.6742 39.1579 17.5425 38.3052 18.4458 37.714C19.351 37.1069 20.2798 36.7198 21.2323 36.5527C22.1866 36.3697 23.1566 36.3334 24.1425 36.4437C25.3668 36.5808 25.9301 37.0866 25.8322 37.9611C25.7841 38.3904 25.5409 38.6932 25.1026 38.8696C24.6643 39.0459 24.0157 39.1585 23.157 39.2073C22.1357 39.2701 21.2167 39.4973 20.4001 39.8889C19.5993 40.2823 18.8638 40.8842 18.1935 41.6947C17.5391 42.5069 16.9198 43.5807 16.3357 44.916C18.5512 45.1157 20.3773 45.1993 21.8138 45.1669C23.2503 45.1344 24.36 45.0735 25.1428 44.984C25.9433 44.8804 26.4946 44.8455 26.7967 44.8793C27.226 44.9273 27.4768 45.0601 27.5491 45.2775C27.6372 45.4966 27.668 45.7255 27.6413 45.964C27.611 46.2343 27.3255 46.4841 26.7846 46.7133C26.4294 46.8668 25.8727 47.0218 25.1145 47.1785C24.3582 47.3192 23.4746 47.4457 22.4639 47.558C21.4549 47.6544 20.3938 47.7127 19.2806 47.733C18.1852 47.7392 17.1206 47.6845 16.0871 47.5688C15.8327 47.5403 15.6021 47.5145 15.3954 47.4914C15.1173 48.3941 14.8329 49.3524 14.5424 50.3664C14.2695 51.3662 14.0151 52.344 13.7794 53.2997C13.5436 54.2554 13.3335 55.1254 13.1491 55.9098C12.9807 56.6959 12.8618 57.3266 12.7925 57.8019C12.7107 58.3884 12.5107 58.8088 12.1925 59.063C11.8742 59.3171 11.4846 59.4184 11.0234 59.3668ZM23.4301 58.8475C22.3011 58.7212 21.4393 58.2222 20.8445 57.3506C20.2515 56.4632 20.0307 55.3437 20.1819 53.9921C20.23 53.5628 20.3346 53.1318 20.4957 52.699C20.6728 52.268 20.8701 51.8715 21.0877 51.5095C21.0083 51.3557 20.9493 51.1639 20.9106 50.9342C20.8896 50.6903 20.8969 50.4094 20.9325 50.0914C21.0481 49.0578 21.3369 48.1322 21.7987 47.3145C22.2623 46.4809 22.8397 45.7808 23.5311 45.2142C24.2224 44.6475 24.9613 44.2311 25.7478 43.965C26.5342 43.6988 27.3091 43.6084 28.0723 43.6938C29.3762 43.8398 30.3926 44.3963 31.1216 45.3633C31.8664 46.3322 32.1356 47.7389 31.9292 49.5834C31.826 50.5056 31.5779 51.4277 31.1849 52.3497C30.7919 53.2717 30.3 54.1424 29.7092 54.9618C29.1361 55.7671 28.4933 56.476 27.7807 57.0885C27.084 57.7028 26.3557 58.1687 25.5957 58.4861C24.8516 58.8054 24.1297 58.9258 23.4301 58.8475ZM23.9507 50.7431C24.0106 50.9269 24.0272 51.1381 24.0005 51.3766C23.9739 51.6151 23.8986 51.8562 23.7747 52.1C23.6508 52.3437 23.5171 52.6749 23.3737 53.0935C23.232 53.4963 23.1176 54.0872 23.0304 54.8664C23.0072 55.0731 23.0115 55.2506 23.0432 55.3991C23.0926 55.5334 23.2206 55.6121 23.4273 55.6353C23.9679 55.6958 24.4963 55.5778 25.0125 55.2814C25.5446 54.9867 26.0335 54.5746 26.4792 54.0449C26.9407 53.5169 27.3458 52.9183 27.6945 52.2489C28.0607 51.5654 28.3564 50.8659 28.5813 50.1505C28.824 49.421 28.9809 48.7382 29.0521 48.1022C29.0984 47.6887 29.0509 47.3936 28.9097 47.2168C28.7685 47.04 28.4991 46.9294 28.1016 46.8849C27.561 46.8244 26.9849 46.937 26.3733 47.2227C25.7794 47.4944 25.2587 47.903 24.8112 48.4486C24.3656 48.9783 24.1018 49.6089 24.0199 50.3403C24.0039 50.4834 23.9808 50.6177 23.9507 50.7431ZM33.2763 60.2152C32.8788 60.1707 32.553 59.9893 32.2988 59.6711C32.0605 59.3546 31.9716 58.926 32.0321 58.3854C32.0588 58.1469 32.1342 57.7609 32.2583 57.2274C32.4001 56.6798 32.5667 56.0544 32.7581 55.3513C32.9654 54.65 33.1683 53.9161 33.3668 53.1494C33.5812 52.3845 33.7673 51.6567 33.9251 50.9659C34.0988 50.277 34.2292 49.6878 34.3161 49.1984C34.4156 48.5978 34.6226 48.1863 34.9373 47.9639C35.2538 47.7256 35.6108 47.6287 36.0083 47.6732C36.3263 47.7088 36.6036 47.8203 36.8402 48.0078C37.0945 48.1812 37.2268 48.5099 37.237 48.9941C37.2649 49.4641 37.1981 50.1328 37.0366 51.0002C37.8786 49.8065 38.7134 48.7487 39.5411 47.8271C40.3846 46.9072 41.2368 46.1976 42.0977 45.6982C43.5296 44.8442 44.7782 44.4768 45.8436 44.596C46.4478 44.6637 46.8302 44.8433 46.9907 45.135C47.1513 45.4266 47.2156 45.7156 47.1835 46.0018C47.1622 46.1926 47.0949 46.3622 46.9817 46.5105C46.8844 46.6606 46.6908 46.808 46.4009 46.9526C46.111 47.0973 45.6718 47.2816 45.0832 47.5055C44.2932 47.8035 43.4978 48.2216 42.6969 48.7599C41.912 49.2999 41.1075 50.0149 40.2834 50.9047C39.4593 51.7946 38.6023 52.9062 37.7125 54.2395C36.8227 55.5728 35.8788 57.1737 34.8808 59.0423C34.6771 59.5669 34.4304 59.9016 34.1405 60.0462C33.8665 60.1927 33.5785 60.249 33.2763 60.2152ZM75.2568 63.2955C75.0653 64.1435 74.5085 64.5159 73.5862 64.4127C73.1092 64.3593 72.7436 64.1735 72.4894 63.8552C72.2511 63.5387 72.1623 63.1102 72.2228 62.5696C72.326 61.6473 72.4761 60.6659 72.673 59.6254C72.8877 58.5707 73.1191 57.5099 73.3673 56.4429C73.6314 55.3776 73.8823 54.3592 74.1198 53.3876C73.4548 54.1504 72.7554 54.9334 72.0215 55.7368C71.2876 56.5401 70.5563 57.3197 69.8278 58.0753C69.0992 58.831 68.4034 59.5098 67.7403 60.1118C67.0949 60.6996 66.5115 61.1656 65.99 61.5098C65.4702 61.838 65.0514 61.9843 64.7333 61.9487C63.9701 61.8633 63.3414 61.5112 62.8471 60.8924C62.3547 60.2577 62.1574 59.503 62.2553 58.6285C62.2891 58.3264 62.3663 57.9245 62.4868 57.4228C62.6091 56.9052 62.7509 56.3575 62.9122 55.7799C63.0734 55.2022 63.2152 54.6546 63.3375 54.137C63.4599 53.6194 63.5379 53.2095 63.5718 52.9074C63.5718 52.9074 63.5735 52.8915 63.5771 52.8597C63.6019 52.782 63.5904 52.7405 63.5427 52.7351C63.4791 52.728 63.2802 52.9231 62.9459 53.3204C62.6135 53.7018 62.2031 54.2032 61.715 54.8248C61.2268 55.4464 60.7112 56.097 60.1683 56.7769C59.6412 57.4585 59.1433 58.095 58.6746 58.6866C58.2218 59.2799 57.8486 59.7372 57.555 60.0586C57.1447 60.5601 56.7805 60.8654 56.4624 60.9747C56.1442 61.084 55.7864 61.1164 55.3889 61.0719C54.8324 61.0097 54.4156 60.7779 54.1385 60.3765C53.8791 59.9611 53.7876 59.4115 53.8641 58.7278C53.8962 58.4416 53.9937 58.0017 54.1567 57.4082C54.3357 56.8164 54.5456 56.1637 54.7864 55.45C55.0291 54.7205 55.2691 54.0148 55.5064 53.333C55.7614 52.637 55.98 52.0497 56.1624 51.571C56.3785 50.9351 56.628 50.5042 56.9109 50.2782C57.2114 50.0382 57.5684 49.9413 57.9818 49.9876C58.9518 50.0961 59.3834 50.6274 59.2766 51.5815C59.257 51.7564 59.1693 52.0364 59.0135 52.4214C58.8577 52.8065 58.671 53.2525 58.4532 53.7594C58.2355 54.2663 58.008 54.7883 57.7708 55.3252C57.5354 55.8463 57.3354 56.3391 57.1707 56.8036C57.627 56.1785 58.1205 55.5093 58.6512 54.7958C59.1818 54.0824 59.7186 53.3858 60.2616 52.706C60.8205 52.028 61.3643 51.4126 61.8931 50.86C62.4377 50.3092 62.9602 49.8846 63.4604 49.5864C63.9625 49.2723 64.4202 49.1384 64.8336 49.1847C65.2471 49.2309 65.6356 49.4274 65.9993 49.774C66.3648 50.1047 66.649 50.5148 66.8518 51.0044C67.0722 51.4799 67.154 51.9721 67.0971 52.4809C67.0437 52.9579 66.916 53.5232 66.7141 54.1768C66.5121 54.8304 66.2907 55.514 66.0498 56.2276C65.809 56.9413 65.6176 57.6444 65.4757 58.3369C66.0839 57.7931 66.7329 57.1735 67.4225 56.4779C68.1139 55.7664 68.8239 55.0328 69.5525 54.2771C70.2811 53.5215 70.9911 52.7879 71.6825 52.0764C72.3898 51.3666 73.0415 50.7231 73.6374 50.1458C74.2492 49.5703 74.7823 49.1228 75.2366 48.8034C75.6927 48.468 76.0321 48.3128 76.2547 48.3377C76.9066 48.4107 77.3959 48.6425 77.7225 49.0333C78.0667 49.4099 78.1917 50.0196 78.0973 50.8623C78.0386 51.3871 77.9223 52.0663 77.7485 52.9002C77.5906 53.7358 77.3929 54.6394 77.1553 55.611C76.9355 56.5685 76.6979 57.5401 76.4427 58.5258C76.2052 59.4975 75.9836 60.3984 75.778 61.2287C75.5723 62.059 75.3986 62.7479 75.2568 63.2955ZM81.6334 71.2059C80.743 71.1062 79.9383 70.9598 79.2193 70.7666C78.4986 70.5894 77.8008 70.3503 77.1261 70.0494C76.4514 69.7484 75.729 69.3698 74.959 68.9133C74.6429 68.7169 74.3833 68.5188 74.1803 68.319C73.9773 68.1192 73.8953 67.8443 73.9345 67.4945C73.9914 66.9857 74.194 66.6139 74.5423 66.3792C74.8729 66.1586 75.3085 66.0786 75.8491 66.1391C76.1353 66.1711 76.4904 66.3074 76.9142 66.5481C77.3363 66.8046 77.8193 67.0921 78.3633 67.4106C78.9214 67.7468 79.5475 68.0503 80.2417 68.3212C80.9341 68.608 81.6937 68.7976 82.5205 68.8902C83.3633 68.9845 84.1895 68.7228 84.9992 68.105C85.809 67.4872 86.5076 66.5672 87.0952 65.345C87.6969 64.1404 88.0939 62.6795 88.2861 60.9622C88.3306 60.5647 88.3707 60.1345 88.4064 59.6716C88.4439 59.1928 88.484 58.6902 88.5268 58.1637C87.8334 59.1808 87.1003 60.1211 86.3274 60.9845C85.5546 61.8479 84.7775 62.5338 83.9961 63.042C83.2324 63.5361 82.4928 63.7431 81.7773 63.6631C80.9027 63.5652 80.2899 63.2873 79.9386 62.8294C79.605 62.3574 79.4899 61.6602 79.5931 60.738C79.6803 59.9588 79.8311 59.1144 80.0457 58.2046C80.2779 57.2807 80.5507 56.3533 80.8642 55.4224C81.1777 54.4915 81.5176 53.6118 81.884 52.7834C82.2681 51.9409 82.6548 51.2195 83.044 50.619C83.3341 50.1846 83.7256 49.995 84.2185 50.0501C84.5366 50.0857 84.8377 50.2724 85.1219 50.6101C85.422 50.9496 85.5435 51.3737 85.4866 51.8825C85.4546 52.1687 85.3367 52.5742 85.1331 53.0988C84.9295 53.6234 84.6861 54.216 84.4029 54.8766C84.1373 55.523 83.8594 56.2084 83.569 56.9326C83.2804 57.6409 83.0246 58.3448 82.8014 59.0443C82.58 59.7279 82.4372 60.3559 82.3732 60.9284C82.366 60.992 82.4102 61.0291 82.5056 61.0398C82.6964 61.0611 82.9686 60.9306 83.3222 60.6482C83.6935 60.3516 84.1073 59.9633 84.5635 59.483C85.0374 58.9887 85.5167 58.4466 86.0013 57.8569C86.5036 57.253 86.9891 56.6553 87.4578 56.0637C87.9265 55.4722 88.3492 54.9318 88.7259 54.4427C88.7067 54.183 88.6998 53.9568 88.7053 53.7642C88.7284 53.5575 88.748 53.3826 88.764 53.2395C88.837 52.5876 89.0088 52.0594 89.2794 51.655C89.566 51.2524 90.0511 51.0893 90.7349 51.1658C91.1801 51.2157 91.5033 51.4209 91.7044 51.7815C91.9073 52.1262 91.9759 52.5927 91.91 53.181C91.8815 53.4354 91.8089 53.7252 91.692 54.0502C91.5769 54.3593 91.361 54.8503 91.0441 55.5233L91.3893 54.8132C91.3722 56.2603 91.3491 57.5457 91.3199 58.6695C91.3066 59.795 91.2386 60.9063 91.1158 62.0034C90.8845 64.0705 90.3345 65.8202 89.4658 67.2525C88.6112 68.7024 87.5096 69.7705 86.1609 70.4568C84.8281 71.1448 83.3189 71.3945 81.6334 71.2059ZM107.558 68.2147C106.604 68.108 105.965 67.8433 105.642 67.4208C105.333 67.0159 105.215 66.4875 105.288 65.8356C105.598 63.0688 106.438 60.2407 107.808 57.3511C109.195 54.4474 111.005 51.583 113.237 48.7577C113.614 48.2686 113.911 47.9879 114.128 47.9156C114.346 47.8433 114.582 47.8214 114.836 47.8499C115.202 47.8908 115.506 48.0536 115.747 48.3383C116.005 48.6247 116.111 48.9747 116.065 49.3881C116.05 49.5153 115.876 49.85 115.542 50.3922C115.207 50.9343 114.768 51.6257 114.223 52.4663C113.694 53.3087 113.112 54.2659 112.477 55.3379C111.843 56.394 111.211 57.5146 110.579 58.6997C109.963 59.8866 109.41 61.0885 108.92 62.3055C109.537 61.6823 110.227 61.0512 110.991 60.4122C111.772 59.759 112.571 59.1722 113.386 58.6516C114.202 58.1151 114.981 57.7032 115.722 57.4158C116.464 57.1124 117.113 56.9919 117.67 57.0542C118.195 57.1129 118.665 57.2944 119.082 57.5987C119.515 57.9047 119.844 58.344 120.07 58.9167C120.295 59.4893 120.36 60.205 120.264 61.0636C120.159 62.0018 119.781 62.9335 119.13 63.8588C118.495 64.786 117.622 65.6139 116.51 66.3428C115.413 67.0734 114.105 67.6192 112.583 67.9802C111.077 68.343 109.402 68.4212 107.558 68.2147ZM108.864 65.6078C110.099 65.6495 111.233 65.5108 112.267 65.1918C113.317 64.8746 114.235 64.438 115.022 63.8821C115.809 63.3261 116.432 62.7197 116.892 62.0628C117.354 61.3899 117.62 60.7355 117.691 60.0995C117.707 59.9564 117.676 59.8804 117.596 59.8715C117.262 59.8341 116.824 59.938 116.281 60.1832C115.74 60.4124 115.14 60.7397 114.481 61.165C113.821 61.5903 113.149 62.0624 112.463 62.5813C111.777 63.1003 111.123 63.6228 110.5 64.1488C109.878 64.6748 109.332 65.1612 108.864 65.6078ZM121.705 69.4117C121.26 69.3618 120.879 69.1663 120.563 68.825C120.263 68.4856 120.151 67.9739 120.228 67.2902C120.269 66.9245 120.374 66.4131 120.544 65.7559C120.73 65.1005 120.954 64.3931 121.217 63.6335C121.48 62.858 121.759 62.0923 122.053 61.3363C122.363 60.5821 122.655 59.9144 122.929 59.3333C123.206 58.7364 123.44 58.2957 123.633 58.0114C123.88 57.6688 124.096 57.4675 124.28 57.4076C124.482 57.3336 124.67 57.3063 124.845 57.3259C125.163 57.3615 125.446 57.4898 125.695 57.7109C125.96 57.9337 126.056 58.3711 125.983 59.023C125.954 59.2775 125.86 59.6855 125.701 60.2473C125.543 60.7931 125.351 61.4317 125.124 62.163C124.898 62.8943 124.652 63.6477 124.388 64.4232C124.14 65.2004 123.897 65.9379 123.658 66.6357C123.436 67.3193 123.251 67.8943 123.102 68.3606C122.978 68.7492 122.779 69.0247 122.503 69.187C122.241 69.3671 121.975 69.4419 121.705 69.4117ZM126.087 55.0741C125.562 55.0154 125.094 54.81 124.683 54.4581C124.273 54.0902 124.105 53.5804 124.178 52.9284C124.238 52.3878 124.422 51.9657 124.73 51.662C125.038 51.3583 125.382 51.1554 125.764 51.0532C126.163 50.9369 126.506 50.8948 126.792 50.9268C127.079 50.9589 127.39 51.0581 127.725 51.2244C128.062 51.3749 128.341 51.6234 128.559 51.9698C128.796 52.3022 128.882 52.7546 128.818 53.327C128.775 53.7087 128.601 54.0433 128.295 54.3311C127.991 54.603 127.63 54.8041 127.213 54.9345C126.812 55.0667 126.437 55.1132 126.087 55.0741ZM130.699 70.853C129.57 70.7267 128.709 70.2277 128.114 69.3562C127.521 68.4687 127.3 67.3492 127.451 65.9976C127.499 65.5683 127.604 65.1373 127.765 64.7045C127.942 64.2735 128.139 63.877 128.357 63.515C128.278 63.3612 128.219 63.1694 128.18 62.9397C128.159 62.6959 128.166 62.4149 128.202 62.0969C128.317 61.0634 128.606 60.1377 129.068 59.32C129.532 58.4864 130.109 57.7863 130.8 57.2197C131.492 56.6531 132.231 56.2367 133.017 55.9705C133.804 55.7043 134.578 55.6139 135.342 55.6993C136.646 55.8453 137.662 56.4018 138.391 57.3689C139.136 58.3377 139.405 59.7444 139.199 61.5889C139.095 62.5111 138.847 63.4332 138.454 64.3552C138.061 65.2773 137.569 66.1479 136.979 66.9673C136.405 67.7726 135.763 68.4815 135.05 69.094C134.353 69.7083 133.625 70.1742 132.865 70.4917C132.121 70.8109 131.399 70.9313 130.699 70.853ZM131.22 62.7487C131.28 62.9325 131.297 63.1436 131.27 63.3821C131.243 63.6206 131.168 63.8618 131.044 64.1055C130.92 64.3492 130.786 64.6804 130.643 65.0991C130.501 65.5018 130.387 66.0927 130.3 66.8719C130.277 67.0786 130.281 67.2562 130.313 67.4046C130.362 67.5389 130.49 67.6177 130.697 67.6408C131.237 67.7013 131.766 67.5833 132.282 67.2869C132.814 66.9923 133.303 66.5801 133.748 66.0504C134.21 65.5224 134.615 64.9238 134.964 64.2544C135.33 63.5709 135.626 62.8714 135.851 62.156C136.093 61.4265 136.25 60.7437 136.321 60.1077C136.368 59.6943 136.32 59.3991 136.179 59.2223C136.038 59.0455 135.768 58.9349 135.371 58.8904C134.83 58.8299 134.254 58.9425 133.643 59.2283C133.049 59.4999 132.528 59.9085 132.081 60.4541C131.635 60.9838 131.371 61.6144 131.289 62.3459C131.273 62.489 131.25 62.6232 131.22 62.7487ZM139.034 78.741C138.588 78.6911 138.256 78.493 138.038 78.1465C137.833 77.8177 137.766 77.3353 137.837 76.6992C137.935 75.8247 138.131 74.7921 138.426 73.6014C138.72 72.4108 139.078 71.1548 139.499 69.8335C139.921 68.5122 140.364 67.2174 140.828 65.9491C141.377 64.4972 141.902 63.1795 142.405 61.996C142.924 60.8144 143.415 59.8792 143.878 59.1905C144.359 58.4876 144.799 58.1585 145.196 58.203C145.562 58.2439 145.865 58.4146 146.105 58.7152C146.363 59.0016 146.463 59.3993 146.406 59.9081C146.365 60.2738 146.211 60.7879 145.944 61.4502C145.678 62.0967 145.346 62.9048 144.948 63.8745C145.588 63.0446 146.243 62.2323 146.911 61.4378C147.596 60.645 148.279 59.9326 148.962 59.3006C149.644 58.6686 150.295 58.1779 150.913 57.8285C151.532 57.4792 152.096 57.333 152.605 57.3899C153.209 57.4575 153.722 57.6921 154.144 58.0935C154.582 58.4967 154.902 59.0155 155.105 59.65C155.307 60.2845 155.366 60.9834 155.281 61.7466C155.122 63.1618 154.714 64.5087 154.056 65.7874C153.399 67.0502 152.559 68.1556 151.535 69.1036C150.527 70.0534 149.392 70.7717 148.13 71.2583C146.87 71.7291 145.548 71.887 144.165 71.7322C143.768 71.6877 143.406 71.607 143.081 71.4902C142.77 71.391 142.485 71.2785 142.225 71.1529C141.921 72.1492 141.621 73.1702 141.327 74.216C141.047 75.2794 140.753 76.3977 140.445 77.5706C140.156 78.4238 139.686 78.8139 139.034 78.741ZM152.528 60.231C152.178 60.1919 151.706 60.3806 151.112 60.7971C150.534 61.2154 149.892 61.7794 149.184 62.4891C148.479 63.183 147.757 63.9474 147.02 64.7826C146.3 65.6036 145.606 66.4114 144.937 67.206C144.285 68.0024 143.724 68.6963 143.255 69.2879C144.478 69.2959 145.579 69.0971 146.558 68.6915C147.539 68.27 148.397 67.7221 149.133 67.0477C149.869 66.3733 150.481 65.645 150.971 64.8626C151.479 64.0661 151.873 63.2811 152.153 62.5074C152.432 61.7337 152.605 61.0527 152.671 60.4644C152.687 60.3213 152.639 60.2435 152.528 60.231ZM156.582 73.3152C156.137 73.2653 155.757 73.0698 155.441 72.7285C155.141 72.389 155.029 71.8774 155.105 71.1937C155.146 70.828 155.252 70.3165 155.422 69.6594C155.608 69.004 155.832 68.2965 156.094 67.537C156.358 66.7615 156.637 65.9958 156.931 65.2398C157.241 64.4856 157.533 63.8179 157.807 63.2368C158.083 62.6398 158.318 62.1992 158.51 61.9149C158.758 61.5723 158.974 61.371 159.158 61.3111C159.359 61.237 159.547 61.2098 159.722 61.2294C160.04 61.265 160.324 61.3933 160.573 61.6144C160.837 61.8372 160.933 62.2746 160.86 62.9265C160.832 63.1809 160.738 63.589 160.579 64.1508C160.421 64.6966 160.229 65.3352 160.002 66.0665C159.775 66.7978 159.53 67.5512 159.266 68.3267C159.018 69.1039 158.774 69.8414 158.535 70.5391C158.314 71.2228 158.129 71.7977 157.98 72.2641C157.856 72.6527 157.656 72.9282 157.38 73.0905C157.119 73.2705 156.853 73.3454 156.582 73.3152ZM160.964 58.9776C160.44 58.9188 159.972 58.7135 159.56 58.3616C159.151 57.9937 158.982 57.4838 159.055 56.8319C159.116 56.2913 159.3 55.8691 159.607 55.5655C159.915 55.2618 160.26 55.0589 160.642 54.9567C161.041 54.8404 161.384 54.7983 161.67 54.8303C161.956 54.8624 162.267 54.9615 162.603 55.1279C162.94 55.2784 163.218 55.5268 163.437 55.8733C163.673 56.2057 163.76 56.6581 163.696 57.2305C163.653 57.6121 163.479 57.9468 163.173 58.2346C162.869 58.5064 162.508 58.7076 162.091 58.838C161.69 58.9702 161.314 59.0167 160.964 58.9776ZM165.667 74.6458C164.776 74.5461 164.028 74.2531 163.422 73.7667C162.815 73.2962 162.372 72.7234 162.093 72.0482C161.816 71.3571 161.716 70.6697 161.793 69.986C161.921 68.8412 162.214 67.8033 162.673 66.8725C163.133 65.9259 163.693 65.087 164.355 64.356C165.018 63.6092 165.718 62.963 166.455 62.4177C167.209 61.8741 167.926 61.4311 168.609 61.0889C169.309 60.7325 169.925 60.4795 170.457 60.3297C170.99 60.1641 171.376 60.0946 171.615 60.1213C172.044 60.1693 172.336 60.2985 172.489 60.5089C172.66 60.7052 172.723 61.01 172.677 61.4234C172.65 61.662 172.443 61.9286 172.056 62.2234C171.685 62.5199 171.197 62.8517 170.592 63.2187C170.003 63.5875 169.377 64.0084 168.712 64.4814C168.047 64.9544 167.399 65.4937 166.768 66.0993C166.153 66.7066 165.625 67.3882 165.187 68.1441C164.764 68.9017 164.5 69.7496 164.395 70.6878C164.356 71.0376 164.389 71.315 164.495 71.5201C164.617 71.7269 164.837 71.8481 165.155 71.8837C166.061 71.9851 167.049 71.9347 168.118 71.7323C169.205 71.5159 170.292 71.219 171.381 70.8418C172.487 70.4504 173.532 70.036 174.515 69.5986C175.513 69.163 176.371 68.7679 177.087 68.4133C177.378 68.2528 177.626 68.1275 177.829 68.0376C178.032 67.9476 178.174 67.9071 178.253 67.916C178.73 67.9694 178.941 68.2425 178.886 68.7354C178.857 68.9899 178.628 69.3104 178.199 69.697C177.691 70.2037 177.023 70.7085 176.194 71.2114C175.381 71.7161 174.483 72.1871 173.5 72.6245C172.533 73.0637 171.549 73.4446 170.547 73.7671C169.56 74.0914 168.64 74.3345 167.784 74.4964C166.929 74.6583 166.223 74.7081 165.667 74.6458Z" fill="#BF42D8"/>
</svg>
