<svg width="147" height="101" viewBox="0 0 147 101" fill="none" xmlns="http://www.w3.org/2000/svg">
<path d="M3.93102 46.9085C2.58128 46.3212 1.77899 45.5184 1.52413 44.5001C1.26927 43.4818 1.46106 42.2391 2.09949 40.772C2.68685 39.4223 3.70238 37.7703 5.14608 35.8161C6.63189 33.8452 8.38761 31.6952 10.4133 29.366C12.481 27.0203 14.6834 24.6459 17.0204 22.2428C19.3701 19.8103 21.7384 17.4557 24.1251 15.179C26.5245 12.8729 28.7925 10.7888 30.929 8.9266C31.9041 8.12946 32.768 7.66786 33.5209 7.54178C34.2737 7.41571 35.0022 7.5059 35.7064 7.81234C36.3813 8.10602 36.8705 8.54574 37.174 9.13148C37.4902 9.68789 37.476 10.3622 37.1312 11.1544C37.0546 11.3305 36.5262 11.9032 35.546 12.8726C34.5785 13.8126 33.3111 15.041 31.7438 16.5575C30.1892 18.0448 28.4592 19.7348 26.5536 21.6277C24.6608 23.4912 22.7233 25.4574 20.7412 27.5263C18.7718 29.5659 16.9032 31.6144 15.1353 33.6719C13.3675 35.7294 11.823 37.6747 10.5019 39.5078C12.129 38.5756 13.8933 37.5286 15.7948 36.3669C17.7384 35.1885 19.6903 34.0313 21.6505 32.895C23.6527 31.7422 25.5619 30.7234 27.3778 29.8385C29.223 28.9663 30.859 28.3347 32.2856 27.9434C33.7122 27.5522 34.8216 27.5289 35.6139 27.8737C37.081 28.5121 38.0759 29.4336 38.5986 30.6383C39.1635 31.8263 39.0182 33.4033 38.1627 35.3693C37.7668 36.2789 37.112 37.3026 36.198 38.4404C35.2969 39.5489 34.2904 40.6988 33.1787 41.8902C32.1091 43.065 31.1174 44.2213 30.2034 45.3591C29.2895 46.4969 28.6219 47.55 28.2005 48.5183C27.9707 49.0464 28.1051 49.419 28.604 49.6361C30.0417 50.2618 31.6282 50.5857 33.3635 50.608C35.1281 50.643 36.8832 50.4994 38.6287 50.1771C40.4164 49.8383 42.0656 49.4567 43.5765 49.0323C45.1294 48.5913 46.3921 48.216 47.3644 47.9063C48.0675 47.6538 48.6564 47.5437 49.131 47.5757C49.6184 47.5784 50.0382 47.6564 50.3903 47.8096C51.5933 48.3331 51.9331 49.1964 51.4096 50.3994C51.3074 50.6342 51.1357 50.9084 50.8945 51.2222C50.666 51.5067 50.2085 51.7962 49.5219 52.0907C48.8354 52.3852 47.8247 52.783 46.49 53.284C45.1552 53.785 43.6335 54.2745 41.9249 54.7524C40.2456 55.2431 38.4681 55.6387 36.5924 55.9392C34.7588 56.2231 32.9514 56.3265 31.1703 56.2494C29.3891 56.1723 27.7796 55.8209 26.3419 55.1952C24.1706 54.2503 22.7662 52.9063 22.1288 51.1632C21.4786 49.4495 21.6068 47.5509 22.5134 45.4676C23.1391 44.0299 24.2178 42.353 25.7495 40.4371C27.294 38.4918 28.931 36.5344 30.6605 34.5649C29.1994 35.1157 27.6113 35.838 25.8961 36.7318C24.1938 37.5964 22.4384 38.5425 20.6301 39.5703C18.8346 40.5688 17.0601 41.559 15.3066 42.5409C13.5953 43.5062 11.9791 44.3733 10.4579 45.1422C8.94956 45.8818 7.63136 46.4249 6.50333 46.7716C5.3753 47.1183 4.51787 47.1639 3.93102 46.9085ZM44.3334 62.1869C42.5142 61.3953 41.3216 60.126 40.7556 58.3791C40.2025 56.6028 40.5451 54.2916 41.7837 51.4454C42.5754 49.6262 43.5724 47.8963 44.7749 46.2559C46.0194 44.5989 47.3807 43.1148 48.8586 41.8036C50.3787 40.4758 51.9331 39.3899 53.5219 38.5457C55.14 37.7144 56.7396 37.2064 58.3205 37.0219C59.9142 36.8081 61.3859 36.9948 62.7356 37.5822C65.0243 38.5782 66.5461 39.9732 67.3008 41.7674C68.0556 43.5616 68.018 45.4123 67.188 47.3196C66.5496 48.7867 65.5578 49.943 64.2127 50.7885C62.9098 51.6174 61.3644 52.2013 59.5767 52.5401C57.7891 52.8789 55.8783 53.0595 53.8445 53.0818C51.8107 53.1041 49.7647 53.0339 47.7067 52.8712C47.1003 53.8637 46.6184 54.7707 46.2609 55.5923C46.0438 56.0911 46.214 56.4618 46.7715 56.7044C48.0919 57.279 49.5897 57.6865 51.2649 57.9269C52.9822 58.1508 54.7653 58.2636 56.6141 58.2655C58.4757 58.238 60.285 58.1704 62.042 58.0625C63.8117 57.9252 65.4303 57.7746 66.8976 57.6104C68.4071 57.4297 69.6327 57.3 70.5743 57.2212C71.5581 57.1258 72.1674 57.1292 72.4021 57.2313C73.0476 57.5123 73.4341 57.9073 73.5615 58.4164C73.689 58.9255 73.6569 59.4002 73.4654 59.8403C73.376 60.0457 72.782 60.3281 71.6833 60.6876C70.6139 61.0598 69.1937 61.4364 67.4226 61.8173C65.6936 62.1817 63.7694 62.5134 61.65 62.8126C59.5727 63.0952 57.4412 63.3018 55.2555 63.4326C53.1119 63.5467 51.089 63.5039 49.1866 63.3043C47.3009 63.1467 45.6831 62.7743 44.3334 62.1869ZM50.1596 49.2796C51.669 49.099 53.1766 48.8825 54.6823 48.6304C56.2301 48.3617 57.6108 47.9155 58.8244 47.292C60.0507 46.6391 60.9512 45.6525 61.5258 44.3321C61.6918 43.9506 61.6976 43.6565 61.5433 43.4498C61.4018 43.2137 61.1403 43.0127 60.7588 42.8467C59.7318 42.3998 58.595 42.446 57.3482 42.9853C56.1308 43.5374 54.8865 44.3918 53.6153 45.5487C52.3862 46.689 51.2343 47.9326 50.1596 49.2796ZM63.9196 73.0135C62.5699 72.4261 61.7676 71.6233 61.5128 70.6051C61.2579 69.5868 61.4497 68.3441 62.0881 66.877C62.6755 65.5273 63.691 63.8753 65.1347 61.921C66.6205 59.9502 68.3762 57.8002 70.4019 55.471C72.4696 53.1252 74.672 50.7508 77.009 48.3477C79.3587 45.9153 81.727 43.5607 84.1137 41.2839C86.5132 38.9778 88.7812 36.8937 90.9177 35.0316C91.8927 34.2344 92.7567 33.7728 93.5095 33.6467C94.2623 33.5207 94.9909 33.6108 95.6951 33.9173C96.3699 34.211 96.8591 34.6507 97.1626 35.2364C97.4788 35.7928 97.4646 36.4672 97.1198 37.2594C97.0432 37.4355 96.5148 38.0082 95.5346 38.9776C94.5671 39.9176 93.2997 41.1459 91.7324 42.6625C90.1779 44.1497 88.4478 45.8397 86.5423 47.7326C84.6495 49.5961 82.712 51.5623 80.7298 53.6312C78.7604 55.6708 76.8918 57.7193 75.124 59.7768C73.3561 61.8343 71.8117 63.7796 70.4905 65.6127C72.1176 64.6805 73.8819 63.6336 75.7834 62.4718C77.727 61.2935 79.6789 60.1362 81.6391 59C83.6414 57.8472 85.5505 56.8283 87.3664 55.9434C89.2117 55.0713 90.8476 54.4396 92.2742 54.0484C93.7008 53.6571 94.8103 53.6339 95.6025 53.9786C97.0696 54.617 98.0645 55.5386 98.5873 56.7432C99.1521 57.9313 99.0068 59.5083 98.1513 61.4742C97.7555 62.3838 97.1006 63.4075 96.1867 64.5454C95.2855 65.6539 94.2791 66.8038 93.1673 67.9951C92.0977 69.1699 91.106 70.3262 90.1921 71.464C89.2781 72.6019 88.6105 73.6549 88.1891 74.6232C87.9593 75.1514 88.0938 75.524 88.5926 75.7411C90.0303 76.3667 91.6169 76.6907 93.3521 76.7129C95.1167 76.748 96.8718 76.6043 98.6173 76.2821C100.405 75.9433 102.054 75.5617 103.565 75.1373C105.118 74.6963 106.381 74.3209 107.353 74.0112C108.056 73.7588 108.645 73.6486 109.12 73.6807C109.607 73.6834 110.027 73.7613 110.379 73.9146C111.582 74.4381 111.922 75.3014 111.398 76.5044C111.296 76.7391 111.124 77.0134 110.883 77.3272C110.655 77.6117 110.197 77.9011 109.511 78.1957C108.824 78.4902 107.813 78.8879 106.479 79.3889C105.144 79.89 103.622 80.3794 101.913 80.8573C100.234 81.348 98.4567 81.7436 96.581 82.0441C94.7474 82.3281 92.9401 82.4315 91.1589 82.3544C89.3777 82.2772 87.7683 81.9258 86.3305 81.3002C84.1592 80.3553 82.7548 79.0113 82.1174 77.2682C81.4672 75.5544 81.5955 73.6559 82.502 71.5726C83.1277 70.1348 84.2064 68.458 85.7381 66.542C87.2826 64.5967 88.9196 62.6394 90.6491 60.6699C89.188 61.2206 87.5999 61.9429 85.8848 62.8368C84.1824 63.7013 82.4271 64.6475 80.6187 65.6753C78.8232 66.6738 77.0487 67.6639 75.2953 68.6458C73.584 69.6112 71.9677 70.4783 70.4466 71.2472C68.9382 71.9867 67.62 72.5298 66.492 72.8765C65.3639 73.2232 64.5065 73.2689 63.9196 73.0135ZM104.322 88.2919C102.503 87.5002 101.31 86.2309 100.744 84.484C100.191 82.7078 100.534 80.3965 101.772 77.5503C102.564 75.7311 103.561 74.0013 104.763 72.3608C106.008 70.7038 107.369 69.2197 108.847 67.9085C110.367 66.5808 111.922 65.4948 113.511 64.6507C115.129 63.8193 116.728 63.3114 118.309 63.1269C119.903 62.913 121.375 63.0998 122.724 63.6871C125.013 64.6831 126.535 66.0782 127.289 67.8724C128.044 69.6666 128.007 71.5173 127.177 73.4245C126.538 74.8916 125.546 76.0479 124.201 76.8934C122.898 77.7224 121.353 78.3062 119.565 78.6451C117.778 78.9839 115.867 79.1645 113.833 79.1868C111.799 79.2091 109.753 79.1389 107.695 78.9762C107.089 79.9686 106.607 80.8757 106.249 81.6973C106.032 82.1961 106.203 82.5668 106.76 82.8094C108.081 83.384 109.578 83.7915 111.254 84.0319C112.971 84.2557 114.754 84.3686 116.603 84.3705C118.464 84.343 120.274 84.2753 122.031 84.1674C123.8 84.0302 125.419 83.8795 126.886 83.7154C128.396 83.5347 129.621 83.4049 130.563 83.3261C131.547 83.2308 132.156 83.2341 132.391 83.3363C133.036 83.6172 133.423 84.0122 133.55 84.5214C133.678 85.0305 133.646 85.5051 133.454 85.9453C133.365 86.1507 132.771 86.4331 131.672 86.7925C130.603 87.1648 129.182 87.5413 127.411 87.9223C125.682 88.2866 123.758 88.6184 121.639 88.9176C119.561 89.2001 117.43 89.4068 115.244 89.5375C113.101 89.6517 111.078 89.6089 109.175 89.4092C107.289 89.2517 105.672 88.8792 104.322 88.2919ZM110.148 75.3846C111.658 75.2039 113.165 74.9875 114.671 74.7353C116.219 74.4666 117.599 74.0205 118.813 73.3969C120.039 72.7441 120.94 71.7574 121.514 70.437C121.68 70.0556 121.686 69.7615 121.532 69.5547C121.39 69.3186 121.129 69.1176 120.747 68.9516C119.72 68.5047 118.584 68.5509 117.337 69.0902C116.119 69.6423 114.875 70.4968 113.604 71.6536C112.375 72.7939 111.223 74.0376 110.148 75.3846Z" fill="#52874F"/>
</svg>
