<svg width="266" height="108" viewBox="0 0 266 108" fill="none" xmlns="http://www.w3.org/2000/svg">
<path d="M61.603 19.1896C61.5693 19.3786 61.4769 19.5328 61.3256 19.6522C61.1744 19.7715 60.9972 19.8538 60.7942 19.8989C60.5068 19.9615 60.0168 20.0206 59.3244 20.0761C58.632 20.1317 57.7935 20.1856 56.8091 20.2379C55.8405 20.2931 54.7996 20.3435 53.6863 20.3892C52.5759 20.4191 51.4669 20.4411 50.3593 20.4553C49.6806 21.8946 48.9857 23.3798 48.2744 24.9109C47.566 26.4262 46.8617 27.9179 46.1617 29.386C45.9061 29.9093 45.6427 30.2931 45.3717 30.5374C45.0979 30.7974 44.6933 30.8798 44.1577 30.7845C43.5748 30.6808 43.2147 30.4217 43.0772 30.0072C42.9526 29.6112 43.0173 29.1108 43.2712 28.5059C43.9863 26.8618 44.6489 25.3302 45.2589 23.9111C45.8847 22.4949 46.3892 21.3495 46.7723 20.4751C45.7992 20.4645 44.9497 20.4433 44.224 20.4117C43.5012 20.3643 42.9915 20.3061 42.695 20.2371C42.3698 20.1467 42.1179 19.9638 41.9395 19.6882C41.761 19.4127 41.7104 19.1031 41.7879 18.7593C41.8754 18.4499 42.0649 18.2073 42.3561 18.0316C42.6502 17.8402 42.9748 17.7517 43.3297 17.7661C43.8265 17.8057 44.4692 17.847 45.2579 17.8898C46.0466 17.9327 46.9168 17.9738 47.8686 18.0131C48.2164 17.2462 48.5998 16.4612 49.019 15.6583C49.441 14.8395 49.8638 14.0616 50.2875 13.3244C50.7298 12.5743 51.1381 11.9238 51.5124 11.3728C51.8867 10.8219 52.208 10.4321 52.4762 10.2036C52.6859 10.0296 52.9266 9.90995 53.1982 9.84454C53.4856 9.78192 53.7554 9.77304 54.0074 9.81789C54.3382 9.87676 54.585 10.0426 54.7477 10.3153C54.9105 10.588 54.9638 10.8819 54.9077 11.197C54.8853 11.323 54.8536 11.4555 54.8126 11.5944C54.7744 11.7177 54.7205 11.8381 54.6508 11.9557C54.2114 12.6901 53.7188 13.5856 53.1733 14.6424C52.6434 15.7019 52.0782 16.869 51.4776 18.1434C52.6899 18.1804 53.8786 18.2132 55.0436 18.2417C56.2271 18.2573 57.2976 18.2691 58.2551 18.2769C59.2311 18.2719 60.0138 18.2568 60.6033 18.2317C60.938 18.1774 61.2016 18.2487 61.3941 18.4455C61.5894 18.6265 61.659 18.8746 61.603 19.1896ZM58.5342 31.734C57.4158 31.535 56.5879 30.9814 56.0508 30.0732C55.5164 29.1493 55.3683 28.0178 55.6066 26.6789C55.6823 26.2535 55.8145 25.8302 56.0032 25.4087C56.2078 24.9901 56.4303 24.6071 56.6708 24.2599C56.6016 24.1013 56.555 23.9062 56.5313 23.6744C56.5261 23.4297 56.5515 23.1498 56.6075 22.8348C56.7898 21.8109 57.1377 20.9058 57.6514 20.1197C58.1679 19.3178 58.7894 18.6564 59.5158 18.1356C60.2423 17.6149 61.0066 17.2471 61.8086 17.0323C62.6106 16.8175 63.3897 16.7773 64.1458 16.9119C65.4376 17.1418 66.4159 17.7628 67.0808 18.7749C67.7615 19.7899 67.9393 21.211 67.6141 23.0383C67.4515 23.952 67.1444 24.8561 66.6926 25.7508C66.2409 26.6455 65.6938 27.4826 65.0513 28.2621C64.4273 29.0286 63.74 29.6945 62.9894 30.2597C62.2545 30.8278 61.4976 31.2456 60.7186 31.5133C59.9555 31.7838 59.2273 31.8573 58.5342 31.734ZM59.5774 23.6802C59.6253 23.8675 59.6282 24.0793 59.5862 24.3155C59.5441 24.5518 59.4534 24.7876 59.3141 25.0228C59.1747 25.258 59.0199 25.5799 58.8497 25.9884C58.6823 26.3811 58.5299 26.9634 58.3926 27.7353C58.3561 27.9401 58.3489 28.1176 58.371 28.2678C58.4115 28.405 58.5342 28.4918 58.739 28.5283C59.2746 28.6236 59.8095 28.54 60.3438 28.2776C60.8938 28.0179 61.4082 27.6382 61.8872 27.1384C62.3819 26.6413 62.8249 26.0701 63.216 25.4247C63.6257 24.7663 63.9659 24.0874 64.2366 23.388C64.5259 22.6756 64.7266 22.0044 64.8387 21.3743C64.9116 20.9647 64.8833 20.6672 64.7538 20.4816C64.6243 20.2961 64.3627 20.1683 63.9689 20.0982C63.4333 20.0029 62.8511 20.078 62.2223 20.3237C61.6121 20.5564 61.0661 20.9305 60.5844 21.446C60.1054 21.9459 59.8014 22.5581 59.6725 23.2827C59.6473 23.4245 59.6155 23.557 59.5774 23.6802ZM80.5874 36.0972C79.9101 35.9767 79.4464 35.7967 79.1965 35.5572C78.9624 35.3205 78.8775 35.021 78.942 34.6587C78.9981 34.3437 79.156 34.0955 79.4158 33.9142C79.6783 33.7172 80.2087 33.5678 81.0069 33.466C81.9367 33.3552 82.8262 33.1966 83.6755 32.9902C84.5434 32.7709 85.2672 32.4934 85.847 32.1578C86.4425 31.825 86.7823 31.4223 86.8664 30.9497C86.9225 30.6347 86.8528 30.3866 86.6575 30.2056C86.478 30.0274 86.2464 29.9131 85.9629 29.8626C85.7266 29.8205 85.373 29.7983 84.9022 29.7957C84.4499 29.7802 83.9462 29.78 83.3909 29.7949C82.8385 29.7941 82.3033 29.7883 81.7852 29.7773C81.2857 29.7535 80.8626 29.7107 80.5161 29.649C79.6969 29.5032 79.1227 29.2142 78.7933 28.7818C78.4668 28.3336 78.3554 27.8181 78.4591 27.2353C78.5152 26.9202 78.7577 26.5165 79.1866 26.024C79.6155 25.5315 80.1645 25.0036 80.8336 24.4401C81.5027 23.8766 82.2347 23.3243 83.0298 22.7832C83.8249 22.2422 84.6181 21.7576 85.4093 21.3296C86.2191 20.8887 86.9685 20.5589 87.6574 20.3402C88.3492 20.1058 88.9156 20.0278 89.3567 20.1063C89.8608 20.196 90.2344 20.425 90.4777 20.7933C90.7367 21.1644 90.8185 21.6178 90.7232 22.1534C90.6783 22.4054 90.6056 22.6769 90.5051 22.9678C90.4074 23.2429 90.243 23.4818 90.0119 23.6844C89.7837 23.8713 89.4642 23.977 89.0536 24.0014C88.6429 24.0259 88.1102 23.9148 87.4552 23.6682C86.8496 23.9668 86.2133 24.3004 85.5463 24.6693C84.8979 25.0252 84.2768 25.4103 83.6831 25.8247C83.0921 26.2233 82.5891 26.6295 82.1742 27.0432C82.7907 26.9579 83.479 26.926 84.2389 26.9475C85.0017 26.9532 85.7612 27.0233 86.5173 27.1579C87.431 27.3205 88.1419 27.6176 88.6501 28.0494C89.1769 28.4681 89.5265 28.9691 89.699 29.5524C89.8873 30.1384 89.9239 30.7544 89.809 31.4002C89.68 32.1248 89.3148 32.8074 88.7133 33.4479C88.1117 34.0884 87.3639 34.6379 86.4698 35.0964C85.5756 35.5548 84.6158 35.8797 83.5905 36.071C82.5651 36.2623 81.5641 36.271 80.5874 36.0972ZM103.803 27.9426C103.675 28.6672 103.3 29.3563 102.68 30.0097C102.06 30.6632 101.145 31.2398 99.9344 31.7395C98.7399 32.242 97.2058 32.6434 95.3322 32.9438C95.2782 33.7955 95.4709 34.4473 95.9105 34.8994C96.3687 35.3384 97.1649 35.6589 98.2991 35.8607C99.323 36.0429 100.302 36.1115 101.236 36.0665C102.189 36.0086 103.092 35.8685 103.944 35.6464C103.819 35.0715 103.756 34.4671 103.755 33.8332C103.757 33.1834 103.821 32.5042 103.947 31.7953C104.202 30.3618 104.643 29.2053 105.271 28.3257C105.899 27.446 106.601 26.8316 107.379 26.4824C108.159 26.1174 108.911 25.9994 109.636 26.1283C110.297 26.2461 110.881 26.48 111.388 26.8302C111.91 27.1831 112.29 27.649 112.528 28.2277C112.785 28.7934 112.842 29.478 112.699 30.2813C112.472 31.5573 111.865 32.7331 110.877 33.8087C109.905 34.887 108.718 35.8052 107.315 36.5632C107.694 37.0856 108.198 37.4029 108.828 37.515C109.395 37.6159 110.052 37.5784 110.798 37.4024C111.545 37.2265 112.316 36.9574 113.111 36.5952C113.926 36.2201 114.722 35.8092 115.5 35.3627C116.281 34.9004 116.98 34.4477 117.595 34.0046C117.826 33.802 118.034 33.6846 118.218 33.6524C118.421 33.6073 118.601 33.5987 118.759 33.6267C119.027 33.6744 119.232 33.8003 119.374 34.0044C119.52 34.1928 119.565 34.4366 119.512 34.7359C119.487 34.8777 119.417 35.0439 119.302 35.2347C119.186 35.4255 119.005 35.6208 118.759 35.8206C118.064 36.347 117.25 36.901 116.318 37.4827C115.404 38.0514 114.45 38.5723 113.456 39.0454C112.461 39.5185 111.496 39.8749 110.559 40.1145C109.623 40.3542 108.785 40.4081 108.044 40.2764C106.595 40.0185 105.47 39.1683 104.671 37.7259C103.496 38.1181 102.288 38.3745 101.048 38.4951C99.8207 38.6342 98.6399 38.6028 97.5057 38.401C95.5051 38.045 94.1136 37.3261 93.331 36.2442C92.5485 35.1624 92.2973 33.8338 92.5777 32.2586C92.8384 30.7936 93.2671 29.4804 93.8638 28.319C94.4633 27.1418 95.1501 26.1589 95.9242 25.3704C96.7012 24.566 97.4889 23.9749 98.2875 23.597C99.1018 23.2219 99.8477 23.0946 100.525 23.2151C101.864 23.4534 102.796 24.0173 103.32 24.9069C103.844 25.7965 104.005 26.8084 103.803 27.9426ZM95.8819 30.677C96.7553 30.4262 97.582 30.1183 98.3621 29.7533C99.1578 29.3911 99.8132 28.9958 100.328 28.5674C100.859 28.1418 101.164 27.7085 101.242 27.2674C101.315 26.8578 101.284 26.5274 101.15 26.276C101.016 26.0246 100.697 25.8541 100.193 25.7644C99.8782 25.7083 99.518 25.8149 99.1125 26.084C98.7257 26.3402 98.3271 26.708 97.9167 27.1876C97.5221 27.6699 97.1413 28.2115 96.7743 28.8125C96.4231 29.4163 96.1256 30.0378 95.8819 30.677ZM106.644 34.4449C107.595 33.8503 108.372 33.1354 108.976 32.3002C109.598 31.4521 109.998 30.5319 110.174 29.5395C110.194 29.4292 110.14 29.2734 110.014 29.0721C109.905 28.8578 109.71 28.7255 109.426 28.675C109.001 28.5993 108.609 28.7003 108.251 28.9778C107.893 29.2554 107.587 29.6479 107.334 30.1555C107.1 30.6501 106.928 31.2045 106.819 31.8189C106.642 32.8113 106.584 33.6866 106.644 34.4449ZM146.068 45.946C145.823 46.7798 145.243 47.1154 144.329 46.9528C143.857 46.8687 143.504 46.6597 143.271 46.3257C143.053 45.9945 142.992 45.5611 143.088 45.0255C143.25 44.1118 143.463 43.1422 143.727 42.1165C144.009 41.0779 144.309 40.0343 144.626 38.9855C144.958 37.9396 145.274 36.9395 145.574 35.9853C144.861 36.7035 144.112 37.4397 143.328 38.194C142.544 38.9482 141.764 39.6789 140.988 40.3859C140.212 41.0929 139.474 41.7253 138.773 42.2832C138.091 42.8281 137.479 43.2555 136.936 43.5652C136.396 43.8591 135.969 43.9781 135.654 43.922C134.898 43.7875 134.293 43.3955 133.84 42.746C133.389 42.0808 133.241 41.315 133.396 40.4486C133.449 40.1493 133.552 39.7533 133.704 39.2604C133.86 38.7518 134.037 38.2144 134.235 37.6484C134.433 37.0824 134.61 36.5451 134.766 36.0365C134.921 35.5278 135.026 35.1239 135.079 34.8246C135.079 34.8246 135.082 34.8088 135.087 34.7773C135.117 34.7014 135.108 34.6592 135.061 34.6508C134.998 34.6396 134.787 34.8214 134.428 35.1962C134.071 35.5553 133.629 36.0293 133.102 36.618C132.575 37.2067 132.018 37.8227 131.433 38.466C130.863 39.1122 130.325 39.7152 129.819 40.2753C129.328 40.8381 128.926 41.2703 128.613 41.5721C128.171 42.046 127.788 42.3272 127.463 42.4157C127.139 42.5042 126.779 42.5134 126.386 42.4433C125.834 42.3452 125.433 42.087 125.183 41.6686C124.951 41.2373 124.895 40.6829 125.016 40.0056C125.066 39.722 125.192 39.2894 125.393 38.7076C125.61 38.1286 125.861 37.4909 126.148 36.7943C126.437 36.0819 126.722 35.3932 127.003 34.7281C127.302 34.0501 127.558 33.4782 127.771 33.0123C128.028 32.3916 128.305 31.9777 128.602 31.7705C128.917 31.5504 129.28 31.4768 129.689 31.5497C130.65 31.7206 131.047 32.2787 130.878 33.2239C130.848 33.3972 130.742 33.6709 130.562 34.0451C130.381 34.4193 130.166 34.8523 129.916 35.3441C129.666 35.8359 129.405 36.342 129.134 36.8625C128.865 37.3673 128.634 37.8461 128.439 38.2991C128.935 37.7047 129.471 37.0688 130.047 36.3911C130.622 35.7135 131.203 35.053 131.789 34.4097C132.39 33.7692 132.973 33.1903 133.536 32.673C134.115 32.1585 134.664 31.7686 135.182 31.5033C135.704 31.2223 136.169 31.1183 136.579 31.1911C136.988 31.264 137.363 31.4852 137.704 31.8545C138.047 32.2082 138.304 32.6358 138.475 33.1375C138.664 33.6262 138.714 34.1226 138.624 34.6267C138.54 35.0993 138.376 35.6551 138.133 36.2943C137.889 36.9335 137.624 37.6014 137.337 38.298C137.051 38.9946 136.814 39.6838 136.628 40.3657C137.27 39.8624 137.958 39.286 138.691 38.6364C139.427 37.971 140.183 37.2848 140.959 36.5778C141.735 35.8708 142.49 35.1847 143.226 34.5193C143.978 33.8568 144.67 33.2567 145.302 32.7191C145.95 32.1843 146.511 31.7722 146.985 31.4828C147.461 31.1776 147.81 31.0446 148.031 31.0839C148.676 31.1988 149.15 31.4618 149.45 31.8728C149.77 32.2709 149.855 32.8874 149.706 33.7223C149.614 34.2421 149.454 34.9125 149.227 35.7333C149.015 36.557 148.759 37.4459 148.459 38.4002C148.178 39.3415 147.878 40.2957 147.56 41.2629C147.26 42.2171 146.981 43.1018 146.722 43.9171C146.463 44.7324 146.245 45.4087 146.068 45.946ZM151.921 54.2518C151.038 54.0948 150.245 53.8967 149.54 53.6575C148.832 53.434 148.151 53.1503 147.497 52.8065C146.844 52.4626 146.147 52.038 145.408 51.5327C145.105 51.3163 144.859 51.1019 144.67 50.8894C144.48 50.6768 144.416 50.3973 144.477 50.0507C144.567 49.5467 144.793 49.1887 145.156 48.977C145.5 48.7782 145.94 48.7265 146.476 48.8218C146.759 48.8723 147.105 49.0313 147.512 49.2988C147.917 49.5821 148.38 49.9002 148.902 50.2531C149.438 50.6246 150.043 50.968 150.718 51.2832C151.391 51.6141 152.136 51.8524 152.955 51.9982C153.79 52.1468 154.632 51.939 155.48 51.3748C156.328 50.8107 157.084 49.9377 157.75 48.756C158.428 47.5929 158.918 46.1606 159.221 44.4594C159.291 44.0656 159.359 43.6388 159.425 43.1792C159.493 42.7038 159.565 42.2048 159.642 41.6822C158.885 42.6524 158.092 43.5434 157.265 44.3551C156.438 45.1667 155.618 45.8009 154.806 46.2576C154.012 46.7014 153.26 46.8602 152.551 46.734C151.685 46.5798 151.091 46.2629 150.771 45.7833C150.468 45.2907 150.398 44.5876 150.561 43.6739C150.698 42.902 150.903 42.0691 151.176 41.1751C151.468 40.2681 151.8 39.3603 152.173 38.4515C152.546 37.5428 152.942 36.687 153.361 35.884C153.799 35.0681 154.231 34.3731 154.658 33.7991C154.976 33.3843 155.379 33.2203 155.867 33.3072C156.182 33.3633 156.471 33.569 156.732 33.9244C157.01 34.2826 157.104 34.7137 157.014 35.2178C156.964 35.5013 156.82 35.8983 156.583 36.4086C156.346 36.919 156.065 37.4946 155.739 38.1355C155.432 38.7635 155.111 39.4294 154.774 40.1334C154.441 40.8215 154.14 41.5074 153.872 42.1911C153.607 42.859 153.424 43.4764 153.323 44.0435C153.312 44.1065 153.353 44.1465 153.448 44.1633C153.637 44.1969 153.917 44.0842 154.288 43.8253C154.678 43.5533 155.116 43.1925 155.602 42.7427C156.107 42.28 156.62 41.7701 157.142 41.2128C157.682 40.6427 158.205 40.0776 158.711 39.5176C159.217 38.9575 159.674 38.4457 160.081 37.9819C160.079 37.7214 160.087 37.4953 160.105 37.3035C160.141 37.0987 160.172 36.9254 160.197 36.7836C160.312 36.1378 160.518 35.6218 160.814 35.2357C161.126 34.8525 161.62 34.7211 162.298 34.8416C162.739 34.9201 163.048 35.1458 163.226 35.5187C163.406 35.8758 163.444 36.3457 163.34 36.9286C163.295 37.1806 163.204 37.465 163.067 37.7818C162.932 38.0828 162.685 38.5589 162.325 39.21L162.715 38.5237C162.605 39.9667 162.499 41.2479 162.397 42.3674C162.311 43.4897 162.171 44.5943 161.978 45.6812C161.613 47.7291 160.951 49.4395 159.992 50.8127C159.046 52.2044 157.877 53.1991 156.487 53.7968C155.112 54.3972 153.59 54.5489 151.921 54.2518ZM176.037 54.5699C175.643 54.4998 175.325 54.3214 175.084 54.0346C174.839 53.7636 174.795 53.2844 174.95 52.5969C175.118 51.8306 175.317 51.037 175.544 50.2162C175.771 49.3953 175.997 48.631 176.22 47.9232C176.708 46.3686 176.974 45.1483 177.018 44.2623C177.08 43.3634 176.948 42.6898 176.622 42.2417C176.311 41.7963 175.844 41.4532 175.22 41.2122C174.917 41.0932 174.686 40.9302 174.527 40.7232C174.372 40.5006 174.321 40.2396 174.374 39.9403C174.444 39.5465 174.648 39.3146 174.985 39.2446C175.307 39.1719 175.704 39.1776 176.177 39.2617C176.539 39.3261 177 39.4325 177.558 39.5806C178.136 39.7158 178.754 39.8502 179.412 39.9837C180.286 38.2703 181.175 36.8845 182.078 35.8264C182.981 34.7683 183.903 33.9735 184.843 33.4419C185.785 32.8945 186.737 32.5683 187.698 32.4631C188.662 32.3421 189.633 32.3685 190.609 32.5423C191.822 32.7582 192.352 33.2993 192.198 34.1657C192.122 34.591 191.86 34.8775 191.411 35.0251C190.962 35.1728 190.308 35.2432 189.447 35.2364C188.424 35.2331 187.492 35.4004 186.652 35.7384C185.828 36.0793 185.055 36.6324 184.334 37.3979C183.628 38.1662 182.941 39.1977 182.272 40.4925C184.47 40.8349 186.286 41.0363 187.722 41.0968C189.158 41.1572 190.269 41.1681 191.056 41.1294C191.861 41.0777 192.414 41.0785 192.713 41.1317C193.138 41.2074 193.38 41.3561 193.438 41.5777C193.512 41.8021 193.528 42.0324 193.486 42.2687C193.438 42.5365 193.137 42.7673 192.582 42.9612C192.218 43.0913 191.652 43.2101 190.886 43.3174C190.122 43.409 189.232 43.4782 188.216 43.5249C187.203 43.5559 186.14 43.5455 185.028 43.4939C183.935 43.4293 182.876 43.3059 181.852 43.1237C181.6 43.0788 181.372 43.0382 181.167 43.0017C180.831 43.8846 180.485 44.8225 180.13 45.8156C179.793 46.7957 179.476 47.755 179.179 48.6935C178.882 49.632 178.616 50.4866 178.381 51.2574C178.162 52.031 178.003 52.6527 177.903 53.1225C177.784 53.7025 177.557 54.1091 177.223 54.3422C176.889 54.5753 176.494 54.6512 176.037 54.5699ZM186.805 54.6822C186.301 54.5925 185.869 54.3695 185.51 54.013C185.148 53.6724 184.889 53.2605 184.731 52.7774C184.576 52.2785 184.544 51.7691 184.637 51.2493C184.811 50.2726 185.193 49.3575 185.784 48.5037C186.39 47.6528 187.122 46.873 187.98 46.1643C188.837 45.4555 189.745 44.8289 190.703 44.2844C191.68 43.7269 192.631 43.2704 193.555 42.9149C194.495 42.5622 195.337 42.3057 196.081 42.1455C196.84 41.9881 197.417 41.9444 197.811 42.0145C198.268 42.0958 198.619 42.2641 198.867 42.5193C199.132 42.7616 199.229 43.0875 199.156 43.4971C199.133 43.6231 199.084 43.7199 199.007 43.7875C199.203 43.8712 199.347 44.0187 199.44 44.2302C199.532 44.4417 199.545 44.7364 199.477 45.1145C199.449 45.272 199.337 45.6746 199.141 46.3221C198.944 46.9697 198.714 47.7577 198.452 48.686C198.205 49.6172 197.99 50.5947 197.808 51.6186C197.78 51.7761 197.778 51.9221 197.803 52.0565C197.831 52.1752 197.923 52.2486 198.081 52.2766C198.711 52.3887 199.371 52.3762 200.062 52.2391C200.771 52.0891 201.467 51.8797 202.148 51.6109C202.849 51.3293 203.484 51.0442 204.056 50.7559C204.646 50.4546 205.136 50.2087 205.528 50.0184C205.938 49.815 206.198 49.7232 206.308 49.7428C206.844 49.8381 207.064 50.1536 206.969 50.6892C206.943 50.8309 206.717 51.0994 206.289 51.4946C205.88 51.8768 205.332 52.3074 204.645 52.7865C203.961 53.2499 203.207 53.7007 202.381 54.1388C201.574 54.564 200.753 54.8891 199.916 55.114C199.096 55.3418 198.331 55.3926 197.622 55.2664C196.756 55.1123 196.13 54.7897 195.747 54.2989C195.378 53.8108 195.161 53.2034 195.096 52.4767C195.049 51.737 195.096 50.9247 195.237 50.0397C194.229 51.0467 193.212 51.922 192.186 52.6657C191.178 53.3965 190.21 53.9475 189.283 54.3188C188.356 54.69 187.53 54.8112 186.805 54.6822ZM197.276 44.3327C195.601 44.7984 194.063 45.4023 192.663 46.1446C191.267 46.8711 190.113 47.6897 189.204 48.6004C188.31 49.5139 187.777 50.4512 187.606 51.4121C187.559 51.6799 187.661 51.8362 187.913 51.881C188.212 51.9343 188.637 51.8311 189.187 51.5714C189.753 51.3146 190.377 50.9545 191.061 50.4911C191.748 50.012 192.446 49.4698 193.155 48.8647C193.866 48.2438 194.542 47.6001 195.18 46.9337C195.819 46.2673 196.349 45.6142 196.772 44.9743C196.927 44.7419 197.095 44.5281 197.276 44.3327ZM206.657 57.9712C205.775 57.8142 205.047 57.4734 204.474 56.9489C203.898 56.4402 203.493 55.8399 203.259 55.1482C203.027 54.4406 202.972 53.7482 203.092 53.0708C203.294 51.9367 203.654 50.92 204.171 50.0207C204.692 49.1057 205.305 48.3049 206.013 47.6182C206.723 46.9157 207.463 46.3162 208.234 45.8196C209.021 45.3258 209.766 44.9301 210.469 44.6327C211.19 44.3223 211.821 44.1096 212.362 43.9945C212.905 43.8637 213.295 43.8193 213.531 43.8613C213.956 43.937 214.239 44.0848 214.379 44.3047C214.537 44.5116 214.579 44.8198 214.507 45.2294C214.464 45.4657 214.241 45.7184 213.835 45.9875C213.446 46.2594 212.937 46.559 212.31 46.8862C211.699 47.2162 211.046 47.5958 210.352 48.0248C209.659 48.4539 208.977 48.9502 208.308 49.5137C207.655 50.08 207.085 50.7261 206.598 51.452C206.127 52.1808 205.809 53.0099 205.643 53.9393C205.582 54.2858 205.597 54.5648 205.69 54.7763C205.798 54.9906 206.009 55.1257 206.324 55.1818C207.222 55.3416 208.211 55.355 209.291 55.2222C210.39 55.0764 211.494 54.8505 212.605 54.5443C213.734 54.2253 214.804 53.8792 215.813 53.5062C216.837 53.136 217.718 52.7972 218.456 52.4896C218.757 52.3482 219.012 52.2392 219.221 52.1626C219.429 52.0859 219.573 52.0546 219.652 52.0686C220.124 52.1527 220.317 52.439 220.23 52.9273C220.186 53.1793 219.936 53.4844 219.482 53.8424C218.943 54.3152 218.244 54.7758 217.384 55.2241C216.54 55.6752 215.613 56.0872 214.604 56.4602C213.611 56.836 212.604 57.1525 211.583 57.4096C210.578 57.6696 209.644 57.8527 208.78 57.9589C207.916 58.0652 207.208 58.0693 206.657 57.9712ZM219.021 60.3177C218.044 60.1439 217.317 59.665 216.839 58.8811C216.363 58.0815 216.262 56.9177 216.534 55.3897C216.707 54.413 216.992 53.456 217.386 52.5186C217.799 51.5682 218.288 50.6884 218.855 49.8792C219.44 49.057 220.07 48.3484 220.745 47.7534C221.435 47.1612 222.154 46.7284 222.901 46.4552C223.652 46.1661 224.389 46.0861 225.114 46.215C226.342 46.4337 227.245 46.9355 227.82 47.7204C228.395 48.5054 228.592 49.4098 228.41 50.4337C228.269 51.2214 227.921 51.8989 227.365 52.4662C226.828 53.0206 226.144 53.484 225.314 53.8563C224.484 54.2287 223.576 54.5383 222.589 54.7853C221.603 55.0323 220.6 55.2357 219.58 55.3955C219.4 55.9485 219.271 56.4456 219.192 56.8867C219.145 57.1545 219.271 57.315 219.57 57.3683C220.279 57.4944 221.055 57.5187 221.897 57.4411C222.758 57.3506 223.639 57.1985 224.538 56.9847C225.44 56.7553 226.312 56.5123 227.154 56.2558C227.999 55.9836 228.769 55.7224 229.463 55.4722C230.176 55.2091 230.757 55.0037 231.206 54.8561C231.673 54.6955 231.97 54.6264 232.096 54.6488C232.443 54.7105 232.677 54.8577 232.798 55.0905C232.919 55.3234 232.958 55.5579 232.916 55.7942C232.897 55.9045 232.64 56.1108 232.148 56.4132C231.671 56.7183 231.024 57.0664 230.207 57.4573C229.408 57.8352 228.511 58.2199 227.515 58.6115C226.538 58.9901 225.525 59.3381 224.477 59.6554C223.448 59.9598 222.459 60.1738 221.511 60.2976C220.575 60.4399 219.745 60.4466 219.021 60.3177ZM220.356 53.364C221.069 53.1009 221.777 52.8206 222.48 52.5231C223.201 52.2128 223.821 51.8355 224.339 51.3913C224.86 50.9314 225.183 50.3471 225.309 49.6382C225.345 49.4334 225.314 49.2897 225.215 49.2071C225.119 49.1087 224.968 49.0413 224.764 49.0048C224.212 48.9067 223.665 49.0612 223.121 49.4682C222.593 49.8781 222.087 50.4381 221.603 51.1483C221.138 51.8455 220.722 52.5841 220.356 53.364ZM4.36237 54.9054C3.36996 54.7288 2.69861 54.3005 2.34831 53.6206C2.01656 52.9278 1.93479 52.1088 2.10298 51.1636C2.26276 50.2658 2.61385 49.4344 3.15623 48.6696C3.70142 47.889 4.3735 47.1717 5.17246 46.5176C5.97142 45.8634 6.83934 45.2784 7.77621 44.7626C8.71588 44.231 9.65081 43.7717 10.581 43.3847C11.5298 42.9847 12.4237 42.6644 13.2629 42.4237C14.1048 42.1672 14.8276 41.9871 15.4311 41.8832C16.0346 41.7793 16.4624 41.7498 16.7144 41.7947C16.9822 41.8423 17.1902 41.9525 17.3382 42.1251C17.5048 42.2847 17.5545 42.5536 17.4872 42.9317C17.4171 43.3255 17.1965 43.6519 16.8254 43.9109C16.4543 44.1698 16.0207 44.369 15.5246 44.5082C14.8227 44.7083 14.0215 44.9639 13.1211 45.275C12.2392 45.5731 11.3383 45.9328 10.4182 46.3541C9.49819 46.7754 8.63414 47.2473 7.8261 47.7699C7.03381 48.2952 6.36193 48.8744 5.81047 49.5076C5.26181 50.125 4.923 50.796 4.79406 51.5207C4.76602 51.6782 4.7751 51.8098 4.82129 51.9155C4.86748 52.0213 4.99297 52.0923 5.19775 52.1288C5.46555 52.1764 5.8424 52.1135 6.32833 51.9399C6.81705 51.7506 7.35917 51.4896 7.9547 51.1568C8.55302 50.8082 9.15835 50.4203 9.77069 49.9929C10.3858 49.5499 10.9616 49.0998 11.498 48.6427C12.0529 48.1726 12.5221 47.728 12.9055 47.3086C13.1905 46.9856 13.5037 46.7325 13.845 46.5495C14.2021 46.3693 14.5461 46.3086 14.8769 46.3675C15.1447 46.4151 15.3512 46.5331 15.4964 46.7215C15.6602 46.8969 15.7085 47.1736 15.6412 47.5517C15.6188 47.6777 15.5576 47.9756 15.4578 48.4454C15.3607 48.8994 15.2376 49.4544 15.0884 50.1104C14.9577 50.7535 14.8293 51.4294 14.7031 52.1383C14.5938 52.7526 14.5536 53.298 14.5826 53.7745C14.6301 54.238 14.8508 54.5048 15.2446 54.5748C15.7172 54.6589 16.2349 54.5804 16.7979 54.3393C17.3636 54.0825 17.9291 53.7362 18.4941 53.3005C19.0778 52.8518 19.6276 52.3646 20.1437 51.8389C20.6598 51.3132 21.1073 50.8077 21.4861 50.3226C21.8836 49.8245 22.1747 49.4213 22.3596 49.1129C22.8111 47.7631 23.2723 46.7239 23.7432 45.9951C24.217 45.2506 24.6802 44.748 25.1329 44.4873C25.6013 44.2294 26.0246 44.134 26.4027 44.2013C26.828 44.277 27.1642 44.4425 27.4113 44.6977C27.6741 44.9557 27.7383 45.4628 27.6037 46.2189C27.5337 46.6128 27.2631 47.174 26.7922 47.9028C26.3212 48.6316 25.726 49.4195 25.0064 50.2665C24.7543 50.9529 24.5451 51.6714 24.3791 52.4219C24.213 53.1724 24.1341 53.8897 24.1424 54.5737C24.621 54.3501 25.1327 53.9862 25.6775 53.4818C26.2251 52.9617 26.7839 52.3786 27.3539 51.7325C27.9267 51.0706 28.4995 50.4087 29.0724 49.7468C29.648 49.0692 30.2045 48.4532 30.742 47.8988C31.2952 47.3471 31.8102 46.9188 32.287 46.6136C32.7824 46.2955 33.2349 46.1728 33.6445 46.2457C34.0698 46.3214 34.4417 46.4688 34.7602 46.688C35.0973 46.8943 35.3462 47.2311 35.5068 47.6985C35.6859 48.1529 35.7698 48.7772 35.7585 49.5715C35.7657 50.3529 35.66 51.3579 35.4413 52.5866C35.3264 53.2325 35.2773 53.8738 35.294 54.5105C35.3135 55.1316 35.4378 55.6656 35.6671 56.1127C35.8991 56.544 36.2829 56.8073 36.8185 56.9026C37.6848 57.0568 38.482 57.0524 39.2098 56.8894C39.9404 56.7106 40.5928 56.4692 41.1669 56.1651C41.7411 55.861 42.2188 55.5966 42.6001 55.3719C42.9999 55.1343 43.2943 55.0323 43.4833 55.0659C43.7984 55.122 44.0179 55.2586 44.1417 55.4756C44.2842 55.6797 44.3316 55.9157 44.2839 56.1835C44.2559 56.341 44.0729 56.5928 43.7351 56.939C43.4158 57.2722 42.9856 57.6345 42.4447 58.0257C41.9223 58.4041 41.3226 58.7605 40.6455 59.0951C39.987 59.4167 39.3017 59.6604 38.5896 59.8262C37.8776 59.992 37.1829 60.0146 36.5055 59.8941C35.2768 59.6754 34.3 59.2741 33.5751 58.69C32.8688 58.0931 32.4126 57.2318 32.2066 56.1063C32.0192 54.9679 32.0867 53.4929 32.409 51.6813C32.4287 51.5711 32.4469 51.4687 32.4637 51.3742C32.4805 51.2796 32.4973 51.1851 32.5142 51.0906C32.5842 50.6968 32.6366 50.3567 32.6713 50.0704C32.7218 49.7868 32.7217 49.5593 32.6709 49.3877C32.3432 49.7682 31.9407 50.2491 31.4635 50.8305C31.002 51.4147 30.4927 52.0391 29.9356 52.7038C29.3786 53.3685 28.7914 54.0197 28.1741 54.6574C27.5726 55.2979 26.9744 55.874 26.3796 56.3857C25.7847 56.8974 25.2109 57.291 24.6581 57.5664C24.121 57.8446 23.6398 57.9459 23.2145 57.8702C22.8995 57.8141 22.581 57.5949 22.259 57.2126C21.9527 56.8331 21.7212 56.3531 21.5645 55.7726C21.4106 55.1764 21.3953 54.5318 21.5186 53.8387C20.6899 54.5688 19.8501 55.2238 18.9994 55.8037C18.1514 56.3679 17.3366 56.7917 16.5548 57.0751C15.786 57.3771 15.0866 57.472 14.4565 57.3598C13.9366 57.2673 13.4592 57.028 13.0241 56.6418C12.6048 56.2584 12.2906 55.6499 12.0814 54.8164C11.8722 53.9828 11.8464 52.8488 12.0042 51.4142C11.0985 52.2119 10.1808 52.8937 9.2513 53.4596C8.33753 54.0283 7.45966 54.4408 6.61771 54.6973C5.79151 54.9566 5.03973 55.0259 4.36237 54.9054ZM52.318 50.3001C53.5516 48.3907 54.694 46.4 55.7453 44.3282C55.9498 43.9095 56.1912 43.6031 56.4696 43.4088C56.7636 43.2174 57.1312 43.1609 57.5723 43.2394C57.9346 43.3039 58.1906 43.4632 58.3404 43.7174C58.493 43.9558 58.5371 44.2562 58.4726 44.6185C58.4193 44.9178 58.198 45.4309 57.8086 46.158C57.422 46.8692 56.9438 47.7755 56.3741 48.8767C55.8044 49.9779 55.2024 51.2603 54.5681 52.7238C53.9339 54.1873 53.3282 55.8103 52.751 57.5927C52.1738 59.3752 51.7002 61.306 51.3301 63.3854C51.2292 63.9525 51.0362 64.3975 50.7512 64.7206C50.4792 65.0622 50.0832 65.1868 49.5634 65.0943C48.9963 64.9934 48.6139 64.7222 48.4162 64.2807C48.2342 63.842 48.1979 63.3155 48.3072 62.7012C48.5231 61.4882 48.7419 60.4871 48.9636 59.6977C49.2039 58.8954 49.4231 58.2112 49.6214 57.6452C48.614 58.8311 47.5917 59.8274 46.5543 60.6341C45.5355 61.4279 44.5874 62.0067 43.71 62.3706C42.8299 62.7503 42.1063 62.8897 41.5392 62.7888C40.6098 62.6234 39.8999 62.2289 39.4096 61.6054C38.9193 60.9818 38.768 60.1423 38.9558 59.0869C39.1016 58.2678 39.4485 57.46 39.9965 56.6637C40.5473 55.8517 41.2213 55.0778 42.0185 54.3421C42.8157 53.6064 43.6662 52.937 44.5698 52.334C45.492 51.7181 46.3973 51.1966 47.2859 50.7697C48.1772 50.327 48.991 50.0005 49.7272 49.7903C50.4635 49.58 51.0442 49.5127 51.4695 49.5884C51.9421 49.6725 52.2249 49.9097 52.318 50.3001ZM51.5475 51.4793C51.4417 51.5255 51.3281 51.5703 51.2066 51.6137C51.1037 51.6441 50.9994 51.6824 50.8937 51.7286C50.2278 52.0001 49.5085 52.3434 48.7359 52.7585C47.966 53.1578 47.1928 53.6215 46.4162 54.1496C45.6425 54.662 44.9183 55.2157 44.2436 55.8107C43.5875 56.3927 43.0338 56.993 42.5824 57.6115C42.1496 58.217 41.8786 58.8269 41.7693 59.4413C41.7496 59.5516 41.7829 59.6387 41.869 59.7028C41.9551 59.7669 42.0375 59.8059 42.1163 59.82C42.6676 59.9181 43.3018 59.779 44.0188 59.4028C44.7515 59.0294 45.5258 58.4684 46.3416 57.7197C47.1759 56.9581 48.029 56.0455 48.9009 54.9818C49.7885 53.9209 50.6707 52.7534 51.5475 51.4793ZM68.6401 67.4896C67.9628 67.3691 67.4991 67.1891 67.2492 66.9496C67.0151 66.7129 66.9302 66.4134 66.9947 66.0511C67.0508 65.736 67.2087 65.4879 67.4685 65.3066C67.731 65.1095 68.2614 64.9601 69.0596 64.8584C69.9894 64.7476 70.8789 64.589 71.7282 64.3826C72.5961 64.1633 73.3199 63.8858 73.8997 63.5502C74.4952 63.2173 74.835 62.8147 74.9191 62.3421C74.9752 62.027 74.9055 61.779 74.7102 61.598C74.5307 61.4198 74.2991 61.3054 74.0156 61.255C73.7793 61.2129 73.4257 61.1906 72.9549 61.1881C72.5026 61.1726 71.9989 61.1724 71.4437 61.1873C70.8912 61.1865 70.356 61.1807 69.8379 61.1697C69.3384 61.1458 68.9153 61.103 68.5688 61.0414C67.7496 60.8956 67.1754 60.6065 66.846 60.1741C66.5195 59.726 66.4081 59.2105 66.5118 58.6277C66.5679 58.3126 66.8104 57.9088 67.2393 57.4164C67.6682 56.9239 68.2172 56.3959 68.8863 55.8324C69.5554 55.2689 70.2874 54.7167 71.0825 54.1756C71.8776 53.6345 72.6708 53.15 73.462 52.722C74.2718 52.2811 75.0212 51.9512 75.7101 51.7326C76.4019 51.4981 76.9683 51.4202 77.4094 51.4987C77.9135 51.5884 78.2871 51.8174 78.5304 52.1857C78.7894 52.5568 78.8712 53.0102 78.7759 53.5457C78.731 53.7978 78.6583 54.0692 78.5578 54.3601C78.4601 54.6353 78.2957 54.8742 78.0646 55.0768C77.8364 55.2637 77.5169 55.3694 77.1063 55.3938C76.6956 55.4182 76.1629 55.3072 75.5079 55.0606C74.9023 55.3591 74.266 55.6928 73.599 56.0617C72.9506 56.4176 72.3295 56.8027 71.7358 57.2171C71.1448 57.6157 70.6418 58.0219 70.2269 58.4356C70.8434 58.3503 71.5317 58.3184 72.2917 58.3398C73.0544 58.3456 73.8139 58.4157 74.57 58.5503C75.4837 58.7129 76.1946 59.01 76.7028 59.4417C77.2296 59.8605 77.5792 60.3615 77.7517 60.9447C77.94 61.5308 77.9766 62.1467 77.8617 62.7926C77.7327 63.5172 77.3675 64.1998 76.766 64.8403C76.1644 65.4808 75.4166 66.0303 74.5225 66.4887C73.6283 66.9472 72.6685 67.272 71.6432 67.4633C70.6178 67.6547 69.6168 67.6634 68.6401 67.4896ZM81.8316 69.3983C80.7132 69.1993 79.8854 68.6457 79.3482 67.7375C78.8138 66.8136 78.6657 65.6822 78.904 64.3432C78.9797 63.9179 79.1119 63.4945 79.3007 63.073C79.5052 62.6544 79.7277 62.2715 79.9683 61.9242C79.899 61.7656 79.8525 61.5705 79.8287 61.3387C79.8235 61.094 79.8489 60.8142 79.905 60.4991C80.0872 59.4752 80.4351 58.5702 80.9488 57.784C81.4653 56.9821 82.0868 56.3207 82.8133 55.8C83.5397 55.2792 84.304 54.9114 85.106 54.6966C85.9081 54.4818 86.6872 54.4417 87.4433 54.5762C88.735 54.8061 89.7133 55.4271 90.3783 56.4393C91.059 57.4542 91.2367 58.8753 90.9116 60.7026C90.749 61.6163 90.4418 62.5204 89.9901 63.4151C89.5383 64.3098 88.9912 65.1469 88.3487 65.9264C87.7248 66.693 87.0375 67.3588 86.2868 67.9241C85.5519 68.4921 84.795 68.9099 84.0161 69.1776C83.2529 69.4481 82.5247 69.5217 81.8316 69.3983ZM82.8748 61.3445C82.9227 61.5318 82.9257 61.7436 82.8836 61.9799C82.8416 62.2162 82.7509 62.4519 82.6115 62.6871C82.4721 62.9224 82.3173 63.2442 82.1471 63.6527C81.9797 64.0455 81.8274 64.6278 81.69 65.3996C81.6536 65.6044 81.6463 65.7819 81.6684 65.9321C81.709 66.0693 81.8316 66.1562 82.0364 66.1926C82.572 66.2879 83.1069 66.2043 83.6412 65.9419C84.1912 65.6822 84.7057 65.3025 85.1846 64.8027C85.6794 64.3057 86.1223 63.7344 86.5134 63.089C86.9231 62.4306 87.2633 61.7517 87.5341 61.0523C87.8233 60.34 88.024 59.6687 88.1362 59.0386C88.209 58.6291 88.1807 58.3315 88.0513 58.146C87.9218 57.9604 87.6601 57.8326 87.2663 57.7625C86.7307 57.6672 86.1485 57.7424 85.5198 57.988C84.9096 58.2207 84.3636 58.5948 83.8818 59.1104C83.4028 59.6102 83.0989 60.2224 82.9699 60.947C82.9447 61.0888 82.913 61.2213 82.8748 61.3445ZM112.251 73.4464C112.005 74.2802 111.425 74.6158 110.511 74.4532C110.039 74.3691 109.686 74.1601 109.453 73.8261C109.236 73.4949 109.174 73.0615 109.27 72.5259C109.432 71.6123 109.646 70.6426 109.909 69.617C110.192 68.5784 110.491 67.5347 110.808 66.4859C111.14 65.44 111.456 64.4399 111.756 63.4857C111.043 64.2039 110.295 64.9401 109.51 65.6944C108.726 66.4487 107.946 67.1793 107.17 67.8863C106.394 68.5933 105.656 69.2257 104.956 69.7836C104.274 70.3286 103.661 70.7559 103.119 71.0656C102.579 71.3596 102.151 71.4785 101.836 71.4225C101.08 71.2879 100.475 70.8959 100.022 70.2464C99.5717 69.5812 99.4236 68.8154 99.5778 67.9491C99.631 67.6498 99.734 67.2537 99.8867 66.7608C100.042 66.2522 100.219 65.7149 100.417 65.1488C100.616 64.5828 100.792 64.0455 100.948 63.5369C101.104 63.0283 101.208 62.6243 101.261 62.325C101.261 62.325 101.264 62.3092 101.27 62.2777C101.299 62.2018 101.291 62.1596 101.243 62.1512C101.18 62.14 100.969 62.3218 100.61 62.6967C100.254 63.0558 99.8117 63.5297 99.2844 64.1184C98.7571 64.7071 98.2005 65.3231 97.6148 65.9665C97.0447 66.6126 96.5068 67.2157 96.0008 67.7757C95.5106 68.3385 95.1087 68.7708 94.795 69.0725C94.3531 69.5464 93.9699 69.8276 93.6454 69.9161C93.3208 70.0046 92.9617 70.0138 92.5679 69.9438C92.0165 69.8456 91.6156 69.5874 91.365 69.169C91.133 68.7377 91.0772 68.1834 91.1978 67.506C91.2482 67.2225 91.374 66.7898 91.575 66.208C91.7918 65.6291 92.0434 64.9913 92.3299 64.2947C92.6192 63.5824 92.9043 62.8936 93.1851 62.2286C93.4846 61.5505 93.7407 60.9786 93.9536 60.5127C94.2104 59.892 94.4871 59.4781 94.784 59.271C95.0995 59.0508 95.462 58.9772 95.8716 59.0501C96.8325 59.2211 97.2288 59.7791 97.0606 60.7243C97.0298 60.8976 96.9242 61.1713 96.7439 61.5455C96.5635 61.9197 96.3483 62.3527 96.0983 62.8445C95.8482 63.3363 95.5875 63.8424 95.3161 64.3629C95.0476 64.8677 94.8161 65.3465 94.6217 65.7995C95.1175 65.2052 95.6532 64.5692 96.2289 63.8916C96.8045 63.2139 97.3852 62.5535 97.9709 61.9101C98.5725 61.2696 99.1549 60.6907 99.7183 60.1734C100.297 59.6589 100.846 59.269 101.365 59.0038C101.886 58.7227 102.351 58.6187 102.761 58.6916C103.171 58.7644 103.546 58.9856 103.886 59.355C104.229 59.7086 104.487 60.1362 104.657 60.6379C104.847 61.1266 104.896 61.623 104.807 62.1271C104.723 62.5997 104.559 63.1556 104.315 63.7947C104.071 64.4339 103.806 65.1018 103.52 65.7984C103.233 66.495 102.997 67.1842 102.81 67.8661C103.452 67.3628 104.14 66.7864 104.873 66.1368C105.609 65.4714 106.365 64.7853 107.141 64.0783C107.917 63.3713 108.673 62.6851 109.409 62.0197C110.16 61.3572 110.852 60.7571 111.484 60.2195C112.132 59.6847 112.693 59.2726 113.167 58.9832C113.644 58.678 113.992 58.5451 114.213 58.5843C114.859 58.6992 115.332 58.9622 115.633 59.3732C115.952 59.7713 116.037 60.3878 115.889 61.2227C115.796 61.7425 115.636 62.4129 115.409 63.2337C115.197 64.0574 114.941 64.9464 114.642 65.9006C114.36 66.8419 114.061 67.7961 113.742 68.7633C113.442 69.7175 113.163 70.6023 112.904 71.4175C112.645 72.2328 112.428 72.9091 112.251 73.4464ZM119.001 76.0371C118.024 75.8633 117.297 75.3845 116.819 74.6006C116.344 73.801 116.242 72.6371 116.514 71.1092C116.688 70.1325 116.972 69.1755 117.366 68.2381C117.779 67.2877 118.269 66.4079 118.835 65.5986C119.42 64.7764 120.05 64.0678 120.725 63.4728C121.415 62.8806 122.134 62.4479 122.882 62.1746C123.632 61.8856 124.369 61.8055 125.094 61.9345C126.323 62.1532 127.225 62.655 127.8 63.4399C128.375 64.2248 128.572 65.1293 128.39 66.1532C128.25 66.9408 127.902 67.6183 127.345 68.1857C126.808 68.7401 126.124 69.2035 125.294 69.5758C124.464 69.9481 123.556 70.2578 122.569 70.5047C121.583 70.7517 120.58 70.9551 119.56 71.1149C119.38 71.668 119.251 72.1651 119.173 72.6061C119.125 72.8739 119.251 73.0345 119.55 73.0877C120.259 73.2139 121.035 73.2382 121.877 73.1606C122.738 73.0701 123.619 72.9179 124.518 72.7042C125.42 72.4747 126.292 72.2317 127.134 71.9753C127.979 71.7031 128.749 71.4419 129.443 71.1917C130.156 70.9286 130.737 70.7232 131.186 70.5755C131.654 70.4149 131.95 70.3459 132.076 70.3683C132.423 70.4299 132.657 70.5772 132.778 70.81C132.899 71.0428 132.938 71.2774 132.896 71.5137C132.877 71.6239 132.621 71.8302 132.128 72.1326C131.651 72.4378 131.004 72.7858 130.187 73.1767C129.388 73.5546 128.491 73.9394 127.495 74.3309C126.518 74.7096 125.505 75.0575 124.457 75.3748C123.428 75.6792 122.439 75.8933 121.491 76.0171C120.555 76.1594 119.725 76.1661 119.001 76.0371ZM120.336 69.0834C121.049 68.8203 121.757 68.54 122.46 68.2426C123.181 67.9322 123.801 67.5549 124.319 67.1108C124.84 66.6509 125.163 66.0665 125.289 65.3577C125.326 65.1529 125.294 65.0092 125.195 64.9265C125.099 64.8282 124.948 64.7607 124.744 64.7243C124.192 64.6262 123.645 64.7806 123.101 65.1877C122.573 65.5975 122.067 66.1575 121.583 66.8677C121.118 67.565 120.702 68.3036 120.336 69.0834ZM160.025 81.9481C159.779 82.7819 159.199 83.1175 158.286 82.9549C157.813 82.8708 157.46 82.6618 157.227 82.3278C157.01 81.9966 156.949 81.5632 157.044 81.0276C157.207 80.1139 157.42 79.1443 157.684 78.1186C157.966 77.08 158.266 76.0364 158.582 74.9876C158.915 73.9417 159.231 72.9416 159.531 71.9874C158.818 72.7056 158.069 73.4418 157.285 74.1961C156.501 74.9503 155.721 75.681 154.945 76.388C154.169 77.095 153.431 77.7274 152.73 78.2853C152.048 78.8302 151.436 79.2576 150.893 79.5673C150.353 79.8612 149.926 79.9802 149.611 79.9241C148.854 79.7896 148.25 79.3976 147.797 78.7481C147.346 78.0829 147.198 77.3171 147.352 76.4507C147.405 76.1514 147.508 75.7553 147.661 75.2625C147.817 74.7539 147.994 74.2165 148.192 73.6505C148.39 73.0845 148.567 72.5472 148.722 72.0385C148.878 71.5299 148.982 71.126 149.036 70.8267C149.036 70.8267 149.038 70.8109 149.044 70.7794C149.074 70.7035 149.065 70.6613 149.018 70.6529C148.955 70.6416 148.744 70.8235 148.384 71.1983C148.028 71.5574 147.586 72.0314 147.059 72.6201C146.531 73.2088 145.975 73.8248 145.389 74.4681C144.819 75.1143 144.281 75.7173 143.775 76.2774C143.285 76.8402 142.883 77.2724 142.569 77.5741C142.128 78.0481 141.744 78.3293 141.42 78.4178C141.095 78.5063 140.736 78.5155 140.342 78.4454C139.791 78.3473 139.39 78.0891 139.139 77.6707C138.907 77.2394 138.852 76.685 138.972 76.0077C139.023 75.7241 139.148 75.2915 139.349 74.7097C139.566 74.1307 139.818 73.4929 140.104 72.7964C140.394 72.084 140.679 71.3953 140.96 70.7302C141.259 70.0522 141.515 69.4803 141.728 69.0143C141.985 68.3937 142.262 67.9798 142.558 67.7726C142.874 67.5525 143.236 67.4789 143.646 67.5517C144.607 67.7227 145.003 68.2808 144.835 69.226C144.804 69.3992 144.699 69.673 144.518 70.0472C144.338 70.4214 144.123 70.8544 143.873 71.3462C143.623 71.838 143.362 72.3441 143.091 72.8646C142.822 73.3694 142.591 73.8482 142.396 74.3012C142.892 73.7068 143.428 73.0709 144.003 72.3932C144.579 71.7156 145.16 71.0551 145.745 70.4118C146.347 69.7713 146.929 69.1924 147.493 68.6751C148.072 68.1606 148.621 67.7707 149.139 67.5054C149.66 67.2244 150.126 67.1204 150.535 67.1932C150.945 67.2661 151.32 67.4873 151.661 67.8566C152.004 68.2103 152.261 68.6379 152.432 69.1396C152.621 69.6283 152.671 70.1247 152.581 70.6288C152.497 71.1014 152.333 71.6572 152.089 72.2964C151.846 72.9356 151.58 73.6035 151.294 74.3001C151.007 74.9967 150.771 75.6859 150.585 76.3678C151.227 75.8645 151.914 75.2881 152.648 74.6385C153.384 73.9731 154.139 73.2869 154.915 72.5799C155.691 71.8729 156.447 71.1868 157.183 70.5214C157.935 69.8589 158.627 69.2588 159.259 68.7212C159.906 68.1864 160.467 67.7743 160.941 67.4849C161.418 67.1797 161.767 67.0467 161.987 67.086C162.633 67.2009 163.106 67.4639 163.407 67.8749C163.726 68.273 163.812 68.8895 163.663 69.7244C163.57 70.2442 163.411 70.9145 163.183 71.7354C162.972 72.5591 162.716 73.448 162.416 74.4023C162.135 75.3435 161.835 76.2978 161.517 77.265C161.217 78.2192 160.937 79.1039 160.679 79.9192C160.42 80.7345 160.202 81.4107 160.025 81.9481ZM167.117 84.5752C165.998 84.3762 165.17 83.8226 164.633 82.9144C164.099 81.9905 163.951 80.859 164.189 79.5201C164.265 79.0947 164.397 78.6714 164.586 78.2499C164.79 77.8313 165.013 77.4483 165.253 77.1011C165.184 76.9425 165.138 76.7474 165.114 76.5156C165.109 76.2709 165.134 75.991 165.19 75.676C165.372 74.6521 165.72 73.747 166.234 72.9609C166.75 72.159 167.372 71.4976 168.098 70.9768C168.825 70.4561 169.589 70.0883 170.391 69.8735C171.193 69.6587 171.972 69.6185 172.728 69.7531C174.02 69.983 174.998 70.604 175.663 71.6161C176.344 72.6311 176.522 74.0522 176.197 75.8795C176.034 76.7932 175.727 77.6973 175.275 78.592C174.823 79.4867 174.276 80.3238 173.634 81.1033C173.01 81.8698 172.323 82.5357 171.572 83.1009C170.837 83.669 170.08 84.0868 169.301 84.3545C168.538 84.625 167.81 84.6985 167.117 84.5752ZM168.16 76.5214C168.208 76.7087 168.211 76.9205 168.169 77.1567C168.127 77.393 168.036 77.6288 167.897 77.864C167.757 78.0992 167.602 78.4211 167.432 78.8296C167.265 79.2223 167.112 79.8046 166.975 80.5765C166.939 80.7813 166.931 80.9588 166.954 81.109C166.994 81.2462 167.117 81.333 167.322 81.3695C167.857 81.4648 168.392 81.3812 168.926 81.1188C169.476 80.8591 169.991 80.4794 170.47 79.9796C170.964 79.4825 171.407 78.9113 171.799 78.2659C172.208 77.6075 172.548 76.9286 172.819 76.2292C173.108 75.5168 173.309 74.8456 173.421 74.2155C173.494 73.8059 173.466 73.5084 173.336 73.3228C173.207 73.1373 172.945 73.0095 172.551 72.9394C172.016 72.8441 171.434 72.9192 170.805 73.1649C170.195 73.3976 169.649 73.7717 169.167 74.2872C168.688 74.7871 168.384 75.3993 168.255 76.1239C168.23 76.2657 168.198 76.3982 168.16 76.5214ZM176.854 86.5761C176.46 86.5061 176.147 86.304 175.914 85.97C175.696 85.6388 175.635 85.2054 175.731 84.6698C175.773 84.4335 175.873 84.0532 176.031 83.5288C176.208 82.9915 176.415 82.3782 176.651 81.689C176.903 81.0026 177.153 80.2832 177.401 79.531C177.664 78.7815 177.897 78.0672 178.099 77.3881C178.317 76.7119 178.485 76.1323 178.604 75.6496C178.742 75.0566 178.975 74.6594 179.303 74.4578C179.634 74.2404 179.997 74.1668 180.391 74.2369C180.706 74.293 180.975 74.4222 181.199 74.6246C181.442 74.814 181.553 75.1506 181.531 75.6344C181.529 76.1052 181.419 76.7682 181.202 77.6234C182.119 76.4865 183.021 75.485 183.906 74.6187C184.807 73.7553 185.704 73.1022 186.595 72.6595C188.079 71.8998 189.349 71.6138 190.404 71.8016C191.003 71.9081 191.373 72.1121 191.514 72.4135C191.656 72.715 191.701 73.0075 191.651 73.291C191.617 73.48 191.539 73.6449 191.416 73.7856C191.309 73.9291 191.107 74.0637 190.808 74.1893C190.509 74.3149 190.059 74.4705 189.457 74.6559C188.65 74.9022 187.829 75.2681 186.995 75.7535C186.177 76.2417 185.328 76.9031 184.448 77.7379C183.568 78.5727 182.641 79.6266 181.667 80.8996C180.693 82.1726 179.648 83.7092 178.531 85.5094C178.294 86.0198 178.026 86.3378 177.727 86.4634C177.444 86.5918 177.153 86.6294 176.854 86.5761ZM189.587 88.5983C188.611 88.4245 187.883 87.9456 187.405 87.1618C186.93 86.3621 186.828 85.1983 187.1 83.6703C187.274 82.6937 187.558 81.7366 187.952 80.7992C188.365 79.8489 188.855 78.969 189.421 78.1598C190.007 77.3376 190.636 76.629 191.311 76.034C192.002 75.4418 192.721 75.0091 193.468 74.7358C194.218 74.4467 194.956 74.3667 195.68 74.4957C196.909 74.7143 197.811 75.2161 198.386 76.0011C198.962 76.786 199.158 77.6904 198.976 78.7144C198.836 79.502 198.488 80.1795 197.932 80.7468C197.394 81.3012 196.711 81.7646 195.881 82.1369C195.051 82.5093 194.142 82.8189 193.156 83.0659C192.169 83.3129 191.166 83.5163 190.146 83.6761C189.967 84.2292 189.837 84.7262 189.759 85.1673C189.711 85.4351 189.837 85.5956 190.136 85.6489C190.845 85.775 191.621 85.7993 192.464 85.7217C193.325 85.6312 194.205 85.4791 195.104 85.2654C196.007 85.0359 196.879 84.7929 197.721 84.5364C198.565 84.2642 199.335 84.003 200.03 83.7529C200.743 83.4897 201.324 83.2844 201.773 83.1367C202.24 82.9761 202.537 82.907 202.663 82.9294C203.009 82.9911 203.243 83.1384 203.364 83.3712C203.485 83.604 203.525 83.8385 203.483 84.0748C203.463 84.1851 203.207 84.3914 202.714 84.6938C202.237 84.999 201.59 85.347 200.773 85.7379C199.975 86.1158 199.078 86.5006 198.082 86.8921C197.104 87.2707 196.091 87.6187 195.044 87.936C194.014 88.2404 193.026 88.4545 192.077 88.5782C191.142 88.7205 190.312 88.7272 189.587 88.5983ZM190.922 81.6446C191.635 81.3815 192.343 81.1012 193.046 80.8038C193.768 80.4934 194.388 80.1161 194.905 79.672C195.426 79.2121 195.749 78.6277 195.876 77.9188C195.912 77.714 195.881 77.5703 195.782 77.4877C195.685 77.3893 195.535 77.3219 195.33 77.2855C194.779 77.1873 194.231 77.3418 193.687 77.7488C193.159 78.1587 192.654 78.7187 192.17 79.4289C191.704 80.1262 191.288 80.8647 190.922 81.6446ZM211.755 98.418C210.873 98.261 210.079 98.0629 209.374 97.8237C208.666 97.6002 207.986 97.3166 207.332 96.9727C206.678 96.6288 205.982 96.2042 205.243 95.699C204.94 95.4826 204.694 95.2681 204.504 95.0556C204.314 94.8431 204.25 94.5635 204.312 94.217C204.402 93.7129 204.628 93.355 204.99 93.1433C205.335 92.9445 205.774 92.8927 206.31 92.9881C206.594 93.0385 206.939 93.1975 207.347 93.465C207.751 93.7483 208.215 94.0664 208.737 94.4194C209.272 94.7909 209.877 95.1342 210.552 95.4494C211.225 95.7803 211.971 96.0187 212.79 96.1644C213.625 96.313 214.466 96.1052 215.314 95.5411C216.162 94.9769 216.919 94.104 217.584 92.9222C218.262 91.7591 218.753 90.3269 219.056 88.6256C219.126 88.2318 219.193 87.8051 219.259 87.3454C219.327 86.8701 219.4 86.3711 219.477 85.8484C218.719 86.8187 217.927 87.7096 217.1 88.5213C216.273 89.333 215.453 89.9671 214.64 90.4238C213.846 90.8676 213.095 91.0264 212.386 90.9002C211.519 90.7461 210.926 90.4292 210.605 89.9495C210.302 89.4569 210.233 88.7538 210.395 87.8401C210.533 87.0683 210.738 86.2353 211.01 85.3413C211.302 84.4343 211.634 83.5265 212.007 82.6178C212.38 81.7091 212.776 80.8532 213.195 80.0502C213.633 79.2343 214.065 78.5393 214.493 77.9653C214.81 77.5505 215.213 77.3866 215.702 77.4735C216.017 77.5295 216.305 77.7353 216.567 78.0906C216.844 78.4488 216.938 78.8799 216.849 79.384C216.798 79.6675 216.654 80.0645 216.417 80.5748C216.18 81.0852 215.899 81.6608 215.574 82.3018C215.267 82.9297 214.945 83.5957 214.609 84.2996C214.275 84.9878 213.974 85.6737 213.706 86.3573C213.441 87.0252 213.258 87.6427 213.157 88.2098C213.146 88.2728 213.188 88.3127 213.282 88.3295C213.471 88.3632 213.751 88.2505 214.122 87.9915C214.512 87.7196 214.95 87.3587 215.436 86.909C215.941 86.4463 216.454 85.9363 216.976 85.3791C217.516 84.8089 218.039 84.2438 218.545 83.6838C219.051 83.1238 219.508 82.6119 219.916 82.1481C219.913 81.8877 219.921 81.6615 219.939 81.4697C219.975 81.2649 220.006 81.0916 220.031 80.9499C220.146 80.304 220.352 79.788 220.648 79.402C220.96 79.0187 221.455 78.8873 222.132 79.0079C222.573 79.0864 222.882 79.312 223.06 79.6849C223.24 80.042 223.278 80.512 223.175 81.0948C223.13 81.3468 223.039 81.6313 222.901 81.948C222.766 82.2491 222.519 82.7251 222.159 83.3762L222.549 82.6899C222.439 84.1329 222.333 85.4141 222.231 86.5336C222.145 87.6559 222.006 88.7605 221.812 89.8475C221.448 91.8953 220.786 93.6058 219.826 94.9789C218.88 96.3706 217.712 97.3653 216.321 97.963C214.947 98.5635 213.425 98.7151 211.755 98.418ZM225.673 95.1175C225.169 95.0278 224.738 94.8047 224.379 94.4483C224.017 94.1076 223.757 93.6957 223.599 93.2126C223.444 92.7137 223.413 92.2044 223.505 91.6846C223.679 90.7079 224.061 89.7927 224.652 88.939C225.259 88.0881 225.991 87.3083 226.848 86.5995C227.705 85.8908 228.613 85.2642 229.572 84.7196C230.548 84.1621 231.499 83.7056 232.424 83.3501C233.364 82.9974 234.206 82.741 234.949 82.5808C235.709 82.4234 236.285 82.3797 236.679 82.4498C237.136 82.5311 237.488 82.6993 237.735 82.9546C238.001 83.1969 238.097 83.5228 238.024 83.9324C238.002 84.0584 237.952 84.1552 237.875 84.2227C238.071 84.3064 238.216 84.454 238.308 84.6655C238.401 84.8769 238.413 85.1717 238.346 85.5497C238.318 85.7073 238.205 86.1098 238.009 86.7574C237.812 87.405 237.583 88.1929 237.32 89.1213C237.073 90.0524 236.859 91.0299 236.676 92.0539C236.648 92.2114 236.647 92.3574 236.672 92.4918C236.699 92.6105 236.792 92.6838 236.949 92.7119C237.579 92.824 238.24 92.8115 238.931 92.6744C239.64 92.5243 240.335 92.3149 241.017 92.0462C241.717 91.7645 242.353 91.4795 242.924 91.1911C243.514 90.8898 244.005 90.644 244.396 90.4536C244.806 90.2503 245.066 90.1585 245.177 90.1781C245.712 90.2734 245.932 90.5888 245.837 91.1244C245.812 91.2662 245.585 91.5347 245.157 91.9298C244.748 92.312 244.2 92.7427 243.514 93.2218C242.83 93.6852 242.075 94.1359 241.25 94.5741C240.443 94.9993 239.621 95.3243 238.785 95.5493C237.964 95.777 237.199 95.8278 236.49 95.7017C235.624 95.5475 234.999 95.225 234.615 94.7341C234.247 94.2461 234.03 93.6387 233.964 92.9119C233.917 92.1722 233.964 91.3599 234.105 90.475C233.097 91.4819 232.08 92.3573 231.054 93.101C230.046 93.8318 229.079 94.3828 228.152 94.754C227.224 95.1253 226.398 95.2465 225.673 95.1175ZM236.145 84.768C234.469 85.2337 232.932 85.8376 231.532 86.5799C230.135 87.3064 228.982 88.125 228.072 89.0357C227.178 89.9492 226.646 90.8864 226.475 91.8473C226.427 92.1151 226.529 92.2714 226.781 92.3163C227.081 92.3695 227.505 92.2663 228.055 92.0067C228.621 91.7498 229.246 91.3897 229.93 90.9264C230.616 90.4472 231.314 89.9051 232.023 89.3C232.735 88.6791 233.41 88.0354 234.049 87.369C234.687 86.7026 235.218 86.0494 235.641 85.4096C235.796 85.1772 235.964 84.9633 236.145 84.768ZM240.711 104.692C240.27 104.614 239.951 104.394 239.755 104.035C239.572 103.693 239.537 103.208 239.649 102.577C239.803 101.711 240.065 100.693 240.436 99.5241C240.807 98.3549 241.245 97.1247 241.751 95.8334C242.257 94.5421 242.782 93.2786 243.327 92.0429C243.969 90.6295 244.579 89.3485 245.157 88.2001C245.751 87.0544 246.301 86.1529 246.808 85.4955C247.334 84.8253 247.794 84.5252 248.187 84.5952C248.55 84.6597 248.841 84.8497 249.061 85.1651C249.3 85.4676 249.374 85.8709 249.285 86.375C249.22 86.7373 249.033 87.2403 248.724 87.884C248.417 88.512 248.033 89.297 247.573 90.2389C248.266 89.4521 248.971 88.6838 249.69 87.9341C250.424 87.1872 251.152 86.5204 251.874 85.9338C252.596 85.3472 253.277 84.8996 253.917 84.591C254.557 84.2823 255.129 84.1728 255.633 84.2625C256.231 84.3691 256.728 84.6363 257.124 85.0641C257.534 85.4948 257.821 86.0332 257.982 86.6795C258.143 87.3257 258.156 88.0269 258.022 88.783C257.772 90.185 257.278 91.5027 256.538 92.7362C255.802 93.954 254.892 95.0028 253.809 95.8827C252.742 96.7654 251.563 97.4088 250.272 97.8129C248.984 98.2012 247.655 98.2735 246.284 98.0296C245.89 97.9595 245.535 97.8557 245.218 97.718C244.915 97.599 244.637 97.4683 244.386 97.3262C244.018 98.3007 243.653 99.3002 243.292 100.325C242.944 101.368 242.578 102.465 242.194 103.615C241.851 104.448 241.357 104.807 240.711 104.692ZM255.373 87.0928C255.026 87.0311 254.543 87.1889 253.924 87.5662C253.32 87.9463 252.642 88.4676 251.89 89.1301C251.141 89.7769 250.372 90.4932 249.582 91.2789C248.811 92.0518 248.066 92.813 247.347 93.5628C246.645 94.3153 246.04 94.9715 245.534 95.5316C246.754 95.6186 247.865 95.4914 248.869 95.1499C249.875 94.7926 250.767 94.3013 251.544 93.6758C252.322 93.0504 252.981 92.3632 253.52 91.6141C254.078 90.8521 254.522 90.0941 254.851 89.3401C255.18 88.5861 255.397 87.9177 255.501 87.3349C255.526 87.1931 255.483 87.1124 255.373 87.0928Z" fill="#3D88E8"/>
</svg>
