<svg width="836" height="197" viewBox="0 0 836 197" fill="none" xmlns="http://www.w3.org/2000/svg">
<path d="M10.5326 114.673C8.55536 114.837 6.90405 114.283 5.57865 113.012C4.25062 111.709 3.45855 109.511 3.20243 106.418C3.03872 104.441 3.09825 102.445 3.38102 100.431C3.69304 98.382 4.1897 96.4304 4.871 94.5758C5.58155 92.6868 6.43683 90.9944 7.43683 89.4988C8.46872 88.0006 9.63732 86.796 10.9426 85.8852C12.2453 84.9425 13.6301 84.4104 15.0971 84.289C17.5846 84.083 19.5854 84.5917 21.0994 85.8149C22.6135 87.0382 23.4564 88.6862 23.628 90.7591C23.7601 92.3537 23.4337 93.8417 22.649 95.2231C21.8936 96.5701 20.8087 97.8158 19.3943 98.9604C17.9799 100.105 16.3822 101.169 14.6012 102.151C12.8202 103.133 10.9847 104.04 9.09483 104.87C9.03044 106.032 9.0352 107.059 9.10913 107.952C9.15402 108.494 9.47943 108.74 10.0854 108.69C11.5204 108.571 13.0327 108.221 14.6222 107.64C16.2409 107.024 17.865 106.28 19.4945 105.406C21.1214 104.501 22.6831 103.585 24.1797 102.658C25.6737 101.7 27.0282 100.801 28.2431 99.9617C29.4873 99.0881 30.5054 98.3937 31.2976 97.8786C32.1191 97.3289 32.6574 97.0435 32.9125 97.0224C33.6141 96.9643 34.1415 97.1294 34.4947 97.5175C34.848 97.9057 35.0444 98.339 35.084 98.8174C35.1025 99.0406 34.7129 99.5705 33.9152 100.407C33.1494 101.241 32.0766 102.245 30.6967 103.419C29.3461 104.558 27.8082 105.761 26.0828 107.028C24.3867 108.26 22.6069 109.451 20.7434 110.601C18.9091 111.716 17.1069 112.636 15.3366 113.36C13.6009 114.114 11.9996 114.552 10.5326 114.673ZM9.55556 100.546C10.7997 99.672 12.0253 98.7678 13.2323 97.833C14.4685 96.8637 15.4736 95.8172 16.2475 94.6935C17.0188 93.538 17.345 92.2426 17.2262 90.8075C17.1919 90.393 17.0578 90.1311 16.824 90.022C16.5876 89.8811 16.2621 89.8277 15.8475 89.8621C14.7313 89.9545 13.7517 90.5333 12.9087 91.5985C12.0976 92.661 11.406 94.0027 10.8338 95.6234C10.2908 97.2096 9.86473 98.8504 9.55556 100.546ZM30.6163 110.41C29.8509 110.473 29.2717 110.264 28.8786 109.783C28.4829 109.27 28.284 108.612 28.2818 107.809C28.2767 107.36 28.5747 106.693 29.1757 105.809C29.7741 104.892 30.568 103.815 31.5572 102.577C32.5438 101.307 33.6354 99.9487 34.832 98.5011C36.0579 97.0189 37.3144 95.5181 38.6014 93.9987C36.6335 91.5608 35.1384 89.5974 34.1161 88.1087C33.1257 86.6173 32.5616 85.4278 32.4239 84.5402C32.2783 83.5568 32.3717 82.7464 32.7042 82.1087C33.0686 81.4685 33.6973 81.1114 34.5903 81.0375C35.1005 80.9952 35.6465 81.1908 36.2283 81.6243C36.8419 82.0551 37.6321 82.8727 38.5987 84.0771C39.5973 85.2788 40.9264 86.9829 42.5862 89.1895C44.6045 86.8068 46.2584 84.8718 47.5481 83.3843C48.867 81.8623 49.9253 80.6829 50.723 79.8463C51.5526 79.0069 52.1946 78.424 52.6492 78.0973C53.1357 77.7681 53.5544 77.5889 53.9052 77.5599C54.6706 77.4965 55.2351 77.7227 55.5989 78.2384C55.992 78.7196 56.1909 79.3775 56.1958 80.2119C56.1875 80.8869 55.8562 81.7331 55.2019 82.7506C54.5769 83.7335 53.7525 84.8293 52.7287 86.0379C51.7023 87.2146 50.5842 88.447 49.3743 89.7353C48.1938 90.9889 47.0438 92.224 45.9243 93.4406C48.1339 96.0833 50.1869 98.3857 52.0833 100.348C54.0089 102.276 55.5706 103.88 56.7684 105.162C57.9636 106.411 58.6036 107.354 58.6883 107.989C58.8075 108.653 58.6757 109.194 58.2928 109.611C57.9418 110.026 57.3995 110.263 56.666 110.324C56.2514 110.358 55.7293 110.257 55.0996 110.02C54.4699 109.783 53.6079 109.261 52.5134 108.452C51.4509 107.641 50.0643 106.407 48.3538 104.751C46.6726 103.06 44.5571 100.778 42.0075 97.907C40.8109 99.3546 39.6142 100.802 38.4176 102.25C37.2529 103.695 36.144 105.039 35.091 106.282C34.0672 107.491 33.1538 108.482 32.3509 109.254C31.5772 109.993 30.999 110.378 30.6163 110.41ZM67.6213 109.658C65.8354 109.805 64.2544 109.519 62.8782 108.798C61.5047 108.109 60.4143 107.156 59.6071 105.938C58.7972 104.689 58.3355 103.378 58.222 102.007C58.0319 99.7109 58.2071 97.5611 58.7476 95.5577C59.2855 93.5224 60.0625 91.6599 61.0785 89.9703C62.0919 88.2488 63.2169 86.7108 64.4533 85.3561C65.7216 83.9988 66.9593 82.8528 68.1663 81.918C69.4025 80.9487 70.5137 80.2145 71.4999 79.7154C72.4835 79.1845 73.2144 78.8992 73.6928 78.8596C74.5538 78.7883 75.1756 78.9295 75.5581 79.2831C75.9698 79.6022 76.21 80.1764 76.2787 81.0055C76.3183 81.4839 76.015 82.087 75.3688 82.8148C74.7546 83.5399 73.925 84.3792 72.8801 85.3327C71.8671 86.2835 70.7996 87.3513 69.6775 88.5359C68.5554 89.7205 67.4917 91.0287 66.4864 92.4606C65.5131 93.8898 64.7416 95.4307 64.172 97.0833C63.6343 98.7333 63.4434 100.499 63.5991 102.381C63.6572 103.082 63.8297 103.614 64.1165 103.975C64.4352 104.334 64.9134 104.487 65.5513 104.435C67.369 104.284 69.288 103.804 71.3081 102.995C73.3574 102.151 75.3776 101.149 77.3687 99.9883C79.389 98.7936 81.2791 97.5774 83.039 96.34C84.8308 95.0999 86.3607 93.9939 87.6289 93.022C88.1393 92.5944 88.5767 92.2532 88.9409 91.9982C89.3051 91.7433 89.5669 91.6092 89.7264 91.596C90.6831 91.5168 91.2024 91.9715 91.2842 92.9602C91.3265 93.4704 91.0006 94.1877 90.3065 95.1122C89.5059 96.3023 88.3891 97.5507 86.9561 98.8574C85.5549 100.161 83.9744 101.432 82.2145 102.67C80.4865 103.904 78.7014 105.032 76.8592 106.051C75.0489 107.068 73.3358 107.9 71.7197 108.548C70.1036 109.195 68.7375 109.565 67.6213 109.658ZM87.5989 110.412C86.1319 110.533 85.0452 110.206 84.3387 109.429C83.6323 108.653 83.213 107.468 83.081 105.873C82.9595 104.406 83.0722 102.47 83.4189 100.065C83.7949 97.626 84.3239 94.9011 85.0058 91.8906C85.717 88.8455 86.5332 85.7115 87.4544 82.4885C88.3729 79.2336 89.3446 76.0385 90.3694 72.9032C91.3916 69.7361 92.403 66.8267 93.4036 64.1751C93.8852 63.0114 94.4278 62.1959 95.0313 61.7285C95.6347 61.2611 96.3192 60.9957 97.0846 60.9323C97.8181 60.8716 98.4571 61.0274 99.0017 61.3997C99.5436 61.7402 99.8502 62.3409 99.9215 63.202C99.9374 63.3933 99.743 64.1479 99.3383 65.4658C98.931 66.7518 98.396 68.4337 97.7332 70.5115C97.0677 72.5574 96.3437 74.865 95.561 77.4343C94.7757 79.9718 93.9996 82.6208 93.2328 85.3815C92.4633 88.1103 91.7869 90.7993 91.2035 93.4485C90.6201 96.0977 90.1803 98.5423 89.8841 100.782C90.8762 99.1911 91.9348 97.4337 93.06 95.5103C94.2143 93.5524 95.386 91.6091 96.5749 89.6804C97.7931 87.7172 98.9925 85.9161 100.173 84.2771C101.386 82.6354 102.528 81.3046 103.6 80.2848C104.671 79.2649 105.637 78.7193 106.498 78.648C108.093 78.516 109.406 78.8568 110.436 79.6706C111.496 80.4498 112.115 81.9077 112.291 84.0444C112.373 85.033 112.281 86.2448 112.014 87.6796C111.745 89.0826 111.403 90.572 110.988 92.1476C110.601 93.6887 110.275 95.1767 110.009 96.6116C109.742 98.0465 109.652 99.2901 109.74 100.343C109.787 100.917 110.082 101.181 110.624 101.136C112.187 101.007 113.738 100.541 115.277 99.7396C116.848 98.9352 118.326 97.978 119.711 96.8679C121.125 95.7233 122.397 94.6065 123.527 93.5176C124.687 92.3941 125.621 91.4658 126.331 90.7327C126.831 90.1776 127.298 89.8018 127.731 89.6054C128.162 89.3771 128.568 89.2471 128.951 89.2154C130.258 89.1071 130.966 89.7068 131.075 91.0143C131.096 91.2694 131.074 91.5923 131.01 91.9829C130.944 92.3416 130.678 92.8132 130.212 93.3976C129.747 93.982 129.045 94.8107 128.106 95.8838C127.168 96.9569 126.059 98.1084 124.78 99.3381C123.533 100.565 122.154 101.755 120.644 102.907C119.164 104.025 117.62 104.972 116.015 105.747C114.409 106.522 112.825 106.975 111.263 107.104C108.903 107.299 107.029 106.78 105.643 105.546C104.259 104.344 103.473 102.611 103.286 100.347C103.157 98.7844 103.313 96.7967 103.755 94.384C104.195 91.9393 104.711 89.4403 105.302 86.8868C104.276 88.0635 103.219 89.4514 102.131 91.0507C101.041 92.618 99.9421 94.2823 98.8357 96.0436C97.7266 97.773 96.6321 99.4851 95.5523 101.18C94.5017 102.84 93.4884 104.369 92.5124 105.766C91.5337 107.132 90.6296 108.234 89.8 109.074C88.9704 109.913 88.2367 110.359 87.5989 110.412ZM126.81 103.601C124.801 103.767 123.283 103.283 122.258 102.148C121.262 100.978 120.685 99.4363 120.527 97.5228C120.376 95.7051 120.63 93.9181 121.287 92.1618C121.942 90.3737 122.874 88.6429 124.084 86.9693C125.294 85.2958 126.673 83.7206 128.22 82.2439C129.765 80.7353 131.338 79.3689 132.938 78.1447C134.568 76.8859 136.132 75.8091 137.632 74.9144C139.128 73.9877 140.433 73.2696 141.547 72.7599C142.661 72.2503 143.473 71.9744 143.983 71.9321C144.525 71.8872 144.984 71.9938 145.358 72.2518C145.762 72.4752 145.996 72.9696 146.059 73.735C146.125 74.5323 145.865 75.2762 145.28 75.9668C144.695 76.6575 143.959 77.2643 143.071 77.7873C141.816 78.5334 140.398 79.4375 138.816 80.4997C137.264 81.5273 135.706 82.6837 134.143 83.9691C132.579 85.2545 131.15 86.609 129.855 88.0327C128.592 89.4538 127.59 90.9175 126.848 92.4239C126.103 93.8984 125.791 95.3691 125.912 96.8361C125.939 97.155 126.024 97.4049 126.167 97.5856C126.311 97.7664 126.589 97.8397 127.004 97.8053C127.546 97.7604 128.243 97.4459 129.093 96.8617C129.941 96.2457 130.856 95.4635 131.837 94.5153C132.816 93.5353 133.787 92.4754 134.753 91.3359C135.715 90.1645 136.598 88.9997 137.401 87.8414C138.234 86.6487 138.913 85.5489 139.44 84.542C139.826 83.7715 140.302 83.122 140.868 82.5935C141.466 82.0623 142.1 81.769 142.77 81.7136C143.312 81.6687 143.772 81.7912 144.149 82.081C144.556 82.3364 144.79 82.8467 144.854 83.6121C144.875 83.8672 144.909 84.4745 144.956 85.4338C145.001 86.3613 145.047 87.4974 145.094 88.8421C145.171 90.1523 145.268 91.5249 145.387 92.96C145.49 94.2037 145.691 95.2788 145.991 96.1851C146.32 97.057 146.883 97.4599 147.681 97.3939C148.637 97.3146 149.598 96.8979 150.563 96.1437C151.526 95.3576 152.442 94.3988 153.311 93.2672C154.21 92.101 155.024 90.8777 155.753 89.5972C156.482 88.3167 157.088 87.1105 157.572 85.9787C158.086 84.8124 158.443 83.8838 158.642 83.193C158.824 80.3522 159.184 78.1069 159.722 76.4569C160.257 74.775 160.896 73.5662 161.637 72.8305C162.411 72.0921 163.181 71.6913 163.946 71.6279C164.807 71.5566 165.542 71.7045 166.15 72.0715C166.79 72.4359 167.174 73.3835 167.301 74.9143C167.367 75.7116 167.131 76.9352 166.593 78.5852C166.055 80.2352 165.308 82.0631 164.35 84.069C164.214 85.5252 164.177 87.0213 164.24 88.5574C164.303 90.0934 164.517 91.5206 164.883 92.8389C165.694 92.1617 166.497 91.1961 167.293 89.9422C168.085 88.6564 168.867 87.2431 169.639 85.7022C170.408 84.1294 171.176 82.5566 171.945 80.9837C172.712 79.3791 173.472 77.9032 174.228 76.5563C175.015 75.2068 175.792 74.115 176.557 73.2809C177.353 72.4124 178.165 71.9438 178.994 71.8751C179.855 71.8038 180.649 71.8986 181.377 72.1594C182.135 72.3857 182.788 72.9096 183.338 73.731C183.917 74.5179 184.398 75.6821 184.783 77.2237C185.197 78.7307 185.506 80.7279 185.712 83.2154C185.821 84.5229 186.054 85.788 186.412 87.0106C186.767 88.2014 187.281 89.1703 187.953 89.9174C188.622 90.6326 189.499 90.9453 190.583 90.8555C192.337 90.7103 193.876 90.2939 195.2 89.6063C196.521 88.8869 197.659 88.0863 198.614 87.2045C199.568 86.3227 200.356 85.5671 200.979 84.9376C201.63 84.2736 202.147 83.9258 202.53 83.8941C203.168 83.8413 203.662 83.993 204.012 84.3493C204.392 84.671 204.605 85.103 204.649 85.6451C204.676 85.964 204.451 86.5446 203.975 87.3867C203.528 88.1944 202.882 89.1148 202.036 90.1481C201.22 91.1469 200.243 92.1429 199.105 93.1362C197.996 94.0949 196.796 94.9168 195.504 95.6017C194.212 96.2867 192.88 96.6859 191.509 96.7994C189.022 97.0054 186.928 96.7292 185.227 95.9709C183.556 95.1781 182.233 93.7464 181.259 91.6757C180.314 89.5705 179.69 86.6841 179.386 83.0167C179.368 82.7935 179.351 82.5862 179.335 82.3948C179.319 82.2035 179.303 82.0121 179.287 81.8208C179.221 81.0235 179.149 80.3392 179.069 79.7678C179.022 79.1937 178.905 78.7539 178.719 78.4482C178.28 79.3515 177.748 80.4873 177.123 81.8555C176.53 83.2211 175.864 84.689 175.127 86.2592C174.391 87.8293 173.588 89.3888 172.721 90.9377C171.886 92.4839 171.024 93.9038 170.136 95.1975C169.248 96.4912 168.34 97.5457 167.412 98.3611C166.516 99.1738 165.637 99.6158 164.776 99.6871C164.138 99.7399 163.41 99.4791 162.592 98.9046C161.806 98.3275 161.113 97.518 160.513 96.4759C159.91 95.402 159.551 94.1634 159.434 92.7602C158.206 94.5959 156.917 96.292 155.569 97.8485C154.218 99.3732 152.86 100.609 151.493 101.557C150.161 102.535 148.858 103.076 147.582 103.182C146.529 103.269 145.484 103.05 144.445 102.526C143.438 102 142.519 100.984 141.688 99.4794C140.857 97.9748 140.227 95.7954 139.798 92.9411C138.455 94.9467 137.03 96.7344 135.522 98.3042C134.047 99.8713 132.56 101.118 131.064 102.045C129.599 102.969 128.181 103.488 126.81 103.601ZM202.493 111.014C200.102 111.212 198.269 111.187 196.996 110.939C195.756 110.688 194.888 110.295 194.394 109.758C193.903 109.252 193.633 108.713 193.586 108.139C193.52 107.341 193.721 106.667 194.189 106.114C194.689 105.559 195.369 105.246 196.23 105.174C196.804 105.127 197.64 105.138 198.737 105.208C199.835 105.277 200.926 105.267 202.01 105.178C205.199 104.913 207.767 103.93 209.713 102.228C211.662 100.557 213.099 98.1425 214.026 94.9833C214.95 91.7922 215.441 87.8342 215.499 83.1092C213.597 86.8951 211.396 89.9832 208.897 92.3736C206.43 94.7613 203.761 96.074 200.891 96.3117C197.51 96.5915 195.683 95.0732 195.408 91.7565C195.276 90.162 195.568 88.452 196.284 86.6267C197 84.8015 198.004 82.9684 199.296 81.1274C200.589 79.2865 202.033 77.5294 203.628 75.856C205.221 74.1508 206.83 72.6369 208.454 71.3144C210.11 69.9892 211.66 68.9297 213.104 68.1359C214.544 67.3102 215.727 66.859 216.652 66.7825C217.385 66.7217 218.034 66.7965 218.597 67.0067C219.192 67.2143 219.681 67.6876 220.063 68.4266C220.443 69.1337 220.692 70.2048 220.811 71.6399C221.141 75.6262 221.317 79.4969 221.339 83.2519C221.358 86.975 221.084 90.4495 220.516 93.6753C219.948 96.9012 218.965 99.7601 217.566 102.252C216.199 104.741 214.293 106.745 211.85 108.264C209.407 109.783 206.288 110.699 202.493 111.014ZM201.452 90.2928C201.471 90.5161 201.575 90.6197 201.767 90.6039C202.405 90.5511 203.238 90.145 204.267 89.3855C205.293 88.5941 206.38 87.5729 207.529 86.3218C208.707 85.0363 209.843 83.6258 210.936 82.0903C212.026 80.523 212.969 78.9197 213.764 77.2805C214.592 75.6387 215.152 74.0671 215.445 72.5658C213.866 73.6598 212.236 74.9186 210.556 76.3421C208.905 77.731 207.358 79.2077 205.914 80.7722C204.502 82.334 203.366 83.9372 202.507 85.5817C201.677 87.1917 201.325 88.7621 201.452 90.2928ZM233.179 96.2392C231.202 96.4029 229.55 95.8493 228.225 94.5783C226.897 93.2755 226.105 91.0773 225.849 87.9839C225.685 86.0067 225.745 84.011 226.027 81.9968C226.339 79.948 226.836 77.9964 227.517 76.1418C228.228 74.2528 229.083 72.5604 230.083 71.0648C231.115 69.5666 232.284 68.362 233.589 67.4512C234.892 66.5085 236.276 65.9764 237.743 65.855C240.231 65.649 242.232 66.1577 243.746 67.3809C245.26 68.6042 246.103 70.2522 246.274 72.3251C246.406 73.9197 246.08 75.4077 245.295 76.7891C244.54 78.1361 243.455 79.3818 242.041 80.5264C240.626 81.671 239.029 82.7345 237.248 83.7168C235.467 84.6991 233.631 85.6057 231.741 86.4364C231.677 87.5977 231.682 88.6248 231.755 89.5178C231.8 90.0599 232.126 90.3059 232.732 90.2557C234.167 90.1369 235.679 89.7869 237.269 89.2058C238.887 88.5901 240.511 87.8456 242.141 86.9722C243.768 86.0668 245.329 85.1508 246.826 84.2242C248.32 83.2656 249.675 82.3668 250.889 81.5277C252.134 80.6541 253.152 79.9597 253.944 79.4446C254.765 78.8949 255.304 78.6095 255.559 78.5884C256.26 78.5303 256.788 78.6954 257.141 79.0835C257.494 79.4717 257.691 79.905 257.73 80.3834C257.749 80.6066 257.359 81.1365 256.562 81.9732C255.796 82.8072 254.723 83.8112 253.343 84.9851C251.992 86.1244 250.454 87.3274 248.729 88.5941C247.033 89.8262 245.253 91.0171 243.39 92.1668C241.555 93.282 239.753 94.2018 237.983 94.9264C236.247 95.6801 234.646 96.1178 233.179 96.2392ZM232.202 82.1117C233.446 81.238 234.672 80.3338 235.879 79.399C237.115 78.4297 238.12 77.3832 238.894 76.2595C239.665 75.104 239.991 73.8086 239.873 72.3735C239.838 71.959 239.704 71.6971 239.47 71.588C239.234 71.4471 238.908 71.3937 238.494 71.4281C237.378 71.5205 236.398 72.0993 235.555 73.1645C234.744 74.227 234.052 75.5687 233.48 77.1894C232.937 78.7756 232.511 80.4164 232.202 82.1117ZM274.388 93.6461C273.017 93.7596 272.028 93.6488 271.423 93.3137C270.849 92.9759 270.531 92.4402 270.471 91.7067C270.418 91.0689 270.596 90.5083 271.006 90.0248C271.413 89.5095 272.362 88.9493 273.853 88.3442C275.594 87.6542 277.233 86.8924 278.769 86.0588C280.335 85.1906 281.592 84.2838 282.541 83.3382C283.522 82.39 283.973 81.4376 283.894 80.4808C283.841 79.843 283.58 79.3991 283.11 79.149C282.671 78.8963 282.165 78.7938 281.591 78.8413C281.113 78.8809 280.418 79.0187 279.506 79.2547C278.624 79.4562 277.65 79.7135 276.584 80.0265C275.515 80.3076 274.477 80.5701 273.47 80.8141C272.492 81.0235 271.652 81.1573 270.951 81.2153C269.292 81.3526 268.034 81.0876 267.176 80.4201C266.316 79.7207 265.836 78.781 265.739 77.6011C265.686 76.9633 265.948 76.0585 266.525 74.8869C267.103 73.7153 267.894 72.4135 268.899 70.9817C269.905 69.5499 271.037 68.1075 272.298 66.6545C273.558 65.2016 274.844 63.8589 276.155 62.6266C277.495 61.3597 278.775 60.3386 279.995 59.5632C281.212 58.756 282.268 58.3155 283.161 58.2415C284.181 58.157 285.021 58.4086 285.68 58.9963C286.37 59.5813 286.76 60.4159 286.85 61.5002C286.892 62.0105 286.891 62.5725 286.845 63.1864C286.797 63.7683 286.602 64.3143 286.258 64.8244C285.913 65.3025 285.349 65.6703 284.568 65.9276C283.786 66.185 282.699 66.2429 281.307 66.1013C280.289 66.9883 279.229 67.9591 278.128 69.0135C277.057 70.0334 276.053 71.0958 275.117 72.2008C274.178 73.2739 273.414 74.3166 272.823 75.3288C273.972 74.8484 275.286 74.4345 276.766 74.0872C278.244 73.7079 279.748 73.455 281.279 73.3282C283.129 73.1751 284.655 73.3858 285.859 73.9605C287.092 74.5006 288.024 75.2904 288.656 76.3298C289.32 77.3665 289.706 78.5387 289.814 79.8462C289.935 81.3132 289.579 82.8198 288.743 84.366C287.908 85.9122 286.743 87.3572 285.249 88.7011C283.755 90.0449 282.065 91.1642 280.181 92.0587C278.296 92.9533 276.365 93.4824 274.388 93.6461ZM298.978 90.7914C297.001 90.9551 295.35 90.4015 294.024 89.1305C292.696 87.8276 291.904 85.6295 291.648 82.5361C291.484 80.5588 291.544 78.5631 291.827 76.5489C292.139 74.5002 292.635 72.5485 293.317 70.694C294.027 68.8049 294.882 67.1126 295.882 65.617C296.914 64.1187 298.083 62.9142 299.388 62.0034C300.691 61.0607 302.076 60.5286 303.543 60.4071C306.03 60.2012 308.031 60.7098 309.545 61.9331C311.059 63.1563 311.902 64.8044 312.074 66.8773C312.206 68.4718 311.879 69.9598 311.095 71.3413C310.339 72.6882 309.254 73.934 307.84 75.0786C306.425 76.2232 304.828 77.2867 303.047 78.269C301.266 79.2513 299.43 80.1578 297.54 80.9886C297.476 82.1499 297.481 83.177 297.555 84.0699C297.6 84.6121 297.925 84.858 298.531 84.8079C299.966 84.6891 301.478 84.3391 303.068 83.758C304.686 83.1423 306.311 82.3977 307.94 81.5243C309.567 80.619 311.129 79.703 312.625 78.7763C314.119 77.8178 315.474 76.919 316.689 76.0799C317.933 75.2062 318.951 74.5119 319.743 73.9967C320.565 73.4471 321.103 73.1617 321.358 73.1406C322.06 73.0825 322.587 73.2475 322.94 73.6357C323.294 74.0239 323.49 74.4571 323.53 74.9355C323.548 75.1587 323.158 75.6887 322.361 76.5254C321.595 77.3594 320.522 78.3633 319.142 79.5372C317.792 80.6765 316.254 81.8795 314.528 83.1462C312.832 84.3784 311.052 85.5693 309.189 86.719C307.355 87.8341 305.552 88.754 303.782 89.4785C302.046 90.2323 300.445 90.6699 298.978 90.7914ZM298.001 76.6638C299.245 75.7902 300.471 74.886 301.678 73.9512C302.914 72.9819 303.919 71.9354 304.693 70.8117C305.464 69.6561 305.791 68.3608 305.672 66.9257C305.637 66.5111 305.503 66.2493 305.27 66.1402C305.033 65.9992 304.708 65.9459 304.293 65.9802C303.177 66.0726 302.197 66.6514 301.354 67.7166C300.543 68.7792 299.852 70.1208 299.279 71.7416C298.736 73.3278 298.31 74.9685 298.001 76.6638ZM359.516 83.0338C359.467 84.7718 358.518 85.7173 356.668 85.8704C355.711 85.9497 354.922 85.726 354.301 85.1995C353.711 84.6704 353.371 83.8636 353.281 82.7793C353.128 80.9297 353.044 78.9458 353.03 76.8278C353.044 74.6753 353.089 72.5042 353.165 70.3145C353.272 68.1221 353.371 66.0268 353.463 64.0284C352.452 65.7818 351.382 67.5883 350.251 69.4479C349.121 71.3075 347.986 73.1193 346.848 74.8833C345.71 76.6472 344.606 78.2477 343.537 79.6848C342.497 81.0874 341.532 82.227 340.641 83.1034C339.748 83.948 338.982 84.3967 338.344 84.4495C336.814 84.5763 335.444 84.1278 334.235 83.104C333.024 82.0483 332.346 80.6435 332.201 78.8895C332.15 78.2836 332.147 77.4651 332.19 76.434C332.23 75.3711 332.297 74.2417 332.391 73.0459C332.485 71.8501 332.552 70.7207 332.592 69.6577C332.633 68.5948 332.628 67.7603 332.578 67.1544C332.578 67.1544 332.575 67.1225 332.57 67.0587C332.588 66.8966 332.55 66.8195 332.454 66.8275C332.327 66.838 332.011 67.2976 331.509 68.2062C331.003 69.0829 330.392 70.2252 329.673 71.6333C328.955 73.0414 328.194 74.5172 327.391 76.0607C326.619 77.6017 325.888 79.0429 325.196 80.3846C324.536 81.7236 323.98 82.765 323.528 83.5089C322.916 84.6512 322.319 85.391 321.737 85.7282C321.155 86.0654 320.465 86.267 319.668 86.333C318.552 86.4254 317.645 86.1313 316.946 85.4506C316.277 84.7354 315.885 83.6921 315.772 82.3208C315.724 81.7468 315.746 80.8459 315.837 79.6182C315.96 78.3879 316.12 77.026 316.317 75.5326C316.512 74.0074 316.711 72.5299 316.914 71.1003C317.146 69.6362 317.348 68.3992 317.522 67.3895C317.7 66.0582 318.024 65.1163 318.492 64.5638C318.989 63.9768 319.652 63.6489 320.481 63.5803C322.427 63.4192 323.479 64.2954 323.637 66.2089C323.666 66.5597 323.602 67.143 323.445 67.9587C323.288 68.7745 323.093 69.7217 322.861 70.8005C322.63 71.8793 322.384 72.9914 322.126 74.1366C321.865 75.2499 321.663 76.2942 321.519 77.2694C322.173 75.8666 322.883 74.3629 323.65 72.7582C324.416 71.1535 325.201 69.5794 326.004 68.0358C326.839 66.4896 327.669 65.0723 328.494 63.7839C329.35 62.4928 330.212 61.4582 331.078 60.68C331.942 59.87 332.789 59.4306 333.618 59.362C334.447 59.2933 335.286 59.5289 336.133 60.0689C336.978 60.5769 337.694 61.2722 338.281 62.1548C338.897 63.0028 339.247 63.9371 339.331 64.9576C339.411 65.9144 339.378 67.073 339.234 68.4335C339.09 69.7941 338.919 71.221 338.721 72.7144C338.524 74.2078 338.419 75.6614 338.408 77.0751C339.392 75.7735 340.427 74.3071 341.512 72.676C342.594 71.0131 343.705 69.2996 344.843 67.5357C345.981 65.7717 347.092 64.0582 348.174 62.3953C349.288 60.7296 350.319 59.2154 351.266 57.8527C352.245 56.4873 353.118 55.4035 353.886 54.6013C354.652 53.7673 355.258 53.3318 355.705 53.2948C357.012 53.1866 358.062 53.4529 358.854 54.0938C359.674 54.7001 360.155 55.8484 360.295 57.5386C360.382 58.591 360.416 59.9689 360.396 61.6723C360.409 63.3731 360.369 65.2227 360.278 67.221C360.215 69.1848 360.124 71.1832 360.003 73.2161C359.912 75.2145 359.825 77.068 359.741 78.7767C359.658 80.4854 359.583 81.9044 359.516 83.0338ZM371.979 84.7473C370.002 84.911 368.35 84.3573 367.025 83.0864C365.697 81.7835 364.905 79.5854 364.649 76.492C364.485 74.5147 364.545 72.519 364.827 70.5048C365.139 68.4561 365.636 66.5044 366.317 64.6499C367.028 62.7608 367.883 61.0685 368.883 59.5729C369.915 58.0746 371.084 56.8701 372.389 55.9593C373.692 55.0166 375.077 54.4845 376.543 54.363C379.031 54.1571 381.032 54.6657 382.546 55.889C384.06 57.1122 384.903 58.7603 385.074 60.8332C385.206 62.4277 384.88 63.9157 384.095 65.2972C383.34 66.6441 382.255 67.8899 380.841 69.0345C379.426 70.1791 377.829 71.2426 376.048 72.2249C374.267 73.2072 372.431 74.1137 370.541 74.9445C370.477 76.1058 370.482 77.1329 370.556 78.0258C370.6 78.568 370.926 78.8139 371.532 78.7638C372.967 78.645 374.479 78.295 376.069 77.7138C377.687 77.0982 379.311 76.3536 380.941 75.4802C382.568 74.5749 384.13 73.6589 385.626 72.7322C387.12 71.7737 388.475 70.8749 389.69 70.0358C390.934 69.1621 391.952 68.4677 392.744 67.9526C393.565 67.403 394.104 67.1176 394.359 67.0965C395.061 67.0384 395.588 67.2034 395.941 67.5916C396.294 67.9798 396.491 68.413 396.53 68.8914C396.549 69.1146 396.159 69.6446 395.362 70.4813C394.596 71.3153 393.523 72.3192 392.143 73.4931C390.793 74.6324 389.255 75.8354 387.529 77.1021C385.833 78.3343 384.053 79.5252 382.19 80.6749C380.356 81.79 378.553 82.7099 376.783 83.4344C375.047 84.1882 373.446 84.6258 371.979 84.7473ZM371.002 70.6197C372.246 69.7461 373.472 68.8419 374.679 67.9071C375.915 66.9378 376.92 65.8913 377.694 64.7676C378.465 63.612 378.791 62.3167 378.673 60.8816C378.638 60.467 378.504 60.2052 378.27 60.0961C378.034 59.9551 377.708 59.9018 377.294 59.9361C376.178 60.0285 375.198 60.6073 374.355 61.6725C373.544 62.7351 372.852 64.0767 372.28 65.6975C371.737 67.2837 371.311 68.9244 371.002 70.6197ZM394.977 83.662C393.605 83.7755 392.617 83.6647 392.011 83.3295C391.437 82.9917 391.12 82.4561 391.059 81.7226C391.007 81.0848 391.185 80.5241 391.594 80.0407C392.001 79.5254 392.95 78.9652 394.441 78.3601C396.182 77.67 397.821 76.9082 399.358 76.0746C400.923 75.2065 402.181 74.2996 403.13 73.3541C404.111 72.4059 404.562 71.4534 404.483 70.4967C404.43 69.8589 404.169 69.4149 403.698 69.1649C403.26 68.9122 402.754 68.8096 402.18 68.8571C401.701 68.8967 401.006 69.0346 400.095 69.2706C399.212 69.4721 398.238 69.7293 397.172 70.0423C396.104 70.3235 395.066 70.586 394.059 70.8299C393.081 71.0394 392.241 71.1731 391.539 71.2312C389.881 71.3685 388.623 71.1034 387.765 70.4359C386.904 69.7366 386.425 68.7969 386.327 67.6169C386.275 66.9791 386.537 66.0744 387.114 64.9028C387.691 63.7311 388.483 62.4294 389.488 60.9976C390.493 59.5657 391.626 58.1234 392.886 56.6704C394.147 55.2174 395.432 53.8748 396.743 52.6424C398.083 51.3755 399.363 50.3544 400.584 49.5791C401.801 48.7719 402.856 48.3313 403.749 48.2574C404.77 48.1729 405.609 48.4245 406.268 49.0121C406.959 49.5971 407.349 50.4318 407.439 51.5161C407.481 52.0263 407.479 52.5884 407.434 53.2022C407.386 53.7842 407.19 54.3302 406.847 54.8402C406.501 55.3184 405.938 55.6861 405.156 55.9435C404.375 56.2009 403.288 56.2587 401.896 56.1171C400.877 57.0042 399.818 57.9749 398.717 59.0293C397.645 60.0492 396.642 61.1117 395.706 62.2167C394.767 63.2898 394.002 64.3324 393.412 65.3446C394.56 64.8642 395.875 64.4504 397.355 64.103C398.833 63.7238 400.337 63.4708 401.868 63.3441C403.717 63.1909 405.244 63.4017 406.448 63.9763C407.68 64.5165 408.613 65.3062 409.245 66.3456C409.908 67.3824 410.294 68.5545 410.403 69.8621C410.524 71.3291 410.167 72.8356 409.332 74.3818C408.497 75.928 407.332 77.3731 405.838 78.7169C404.344 80.0608 402.654 81.18 400.77 82.0746C398.885 82.9691 396.954 83.4983 394.977 83.662ZM443.669 52.8993C443.701 53.282 443.601 53.6274 443.369 53.9356C443.138 54.2437 442.838 54.4934 442.468 54.6845C441.945 54.9526 441.028 55.3175 439.717 55.7792C438.407 56.2409 436.813 56.7742 434.937 57.3791C433.092 57.9814 431.105 58.6115 428.976 59.2694C426.845 59.8954 424.712 60.5055 422.578 61.0996C422.002 64.2298 421.418 67.4569 420.827 70.7811C420.232 74.0734 419.634 77.3178 419.032 80.5144C418.805 81.657 418.492 82.5338 418.093 83.1448C417.697 83.7877 416.957 84.154 415.873 84.2438C414.693 84.3415 413.864 84.0248 413.386 83.2937C412.942 82.5919 412.811 81.5913 412.993 80.2919C413.534 76.7472 414.031 73.4469 414.485 70.3911C414.97 67.3326 415.359 64.86 415.653 62.9734C413.766 63.4507 412.112 63.8445 410.693 64.1546C409.271 64.4329 408.256 64.5812 407.648 64.5995C406.973 64.5911 406.392 64.3663 405.906 63.9249C405.42 63.4835 405.164 62.9106 405.138 62.2064C405.149 61.5633 405.391 60.9974 405.864 60.5087C406.335 59.9881 406.917 59.6509 407.61 59.4971C408.591 59.3196 409.855 59.0705 411.402 58.7497C412.948 58.429 414.652 58.0632 416.513 57.6523C416.792 55.9915 417.132 54.2777 417.532 52.5107C417.929 50.7118 418.348 48.9913 418.79 47.3492C419.261 45.6726 419.718 44.206 420.16 42.9492C420.602 41.6925 421.023 40.7745 421.425 40.1954C421.741 39.7518 422.145 39.3973 422.637 39.1318C423.161 38.8636 423.678 38.7085 424.188 38.6662C424.858 38.6108 425.42 38.8051 425.874 39.2491C426.328 39.6931 426.582 40.2341 426.634 40.8719C426.656 41.127 426.662 41.3994 426.654 41.6891C426.643 41.9468 426.601 42.2072 426.526 42.4703C426.052 44.115 425.558 46.0985 425.044 48.4209C424.562 50.7406 424.066 53.2861 423.557 56.0576C425.92 55.5088 428.235 54.9639 430.502 54.423C432.798 53.8476 434.874 53.3225 436.729 52.8478C438.613 52.3386 440.119 51.9089 441.246 51.5587C441.865 51.2826 442.412 51.2856 442.884 51.5675C443.355 51.8176 443.616 52.2615 443.669 52.8993ZM455.368 55.3504C455.54 57.4233 454.53 59.5779 452.339 61.8143C450.177 64.0162 446.706 66.1018 441.924 68.0711C441.927 68.103 441.93 68.1508 441.936 68.2146C442.023 69.267 442.22 70.1015 442.528 70.7182C442.834 71.303 443.417 71.5598 444.278 71.4885C445.554 71.3829 446.941 70.8827 448.44 69.9879C449.969 69.0586 451.528 67.9181 453.118 66.5663C454.737 65.18 456.303 63.7338 457.816 62.2278C459.329 60.7219 460.721 59.3062 461.992 57.9808C463.292 56.6209 464.389 55.5186 465.282 54.674C466.205 53.7949 466.825 53.3421 467.144 53.3157C467.814 53.2603 468.393 53.4692 468.882 53.9425C469.403 54.4131 469.705 55.1587 469.79 56.1792C469.837 56.7533 469.862 57.4416 469.864 58.2441C471.067 55.7042 472.528 53.5764 474.249 51.8606C475.966 50.1129 477.686 48.7824 479.409 47.8692C481.161 46.9214 482.674 46.3947 483.95 46.2891C485.385 46.1703 486.381 46.3768 486.939 46.9086C487.494 47.4085 487.797 47.9614 487.847 48.5673C487.876 48.9181 487.826 49.2755 487.695 49.6395C487.594 49.969 487.272 50.3488 486.73 50.779C486.219 51.2066 485.347 51.7283 484.114 52.3442C482.477 53.122 480.928 54.0047 479.469 54.9925C478.041 55.9777 476.752 57.2725 475.6 58.877C474.478 60.447 473.509 62.5179 472.695 65.0899C471.91 67.6274 471.342 70.8532 470.992 74.7675C470.858 75.8702 470.568 76.6328 470.121 77.0551C469.677 77.5092 469.136 77.7627 468.499 77.8156C468.435 77.8208 468.323 77.8301 468.164 77.8433C467.879 77.8989 467.574 77.8921 467.247 77.8229C466.955 77.7828 466.645 77.5355 466.318 77.0809C466.026 76.6556 465.754 75.8914 465.503 74.7884C465.251 73.6855 465.039 72.0975 464.867 70.0246C464.764 68.7809 464.704 67.4694 464.686 66.0901C464.697 64.6764 464.737 63.2121 464.804 61.6974C463.31 63.4266 461.705 65.181 459.99 66.9606C458.275 68.7402 456.485 70.3975 454.622 71.9325C452.787 73.433 450.964 74.6757 449.151 75.6606C447.37 76.6429 445.682 77.2001 444.087 77.3321C441.951 77.509 440.14 76.9686 438.655 75.7108C437.2 74.4185 436.352 72.3213 436.111 69.4193C435.874 66.5491 436.041 63.9183 436.614 61.5269C437.216 59.101 438.069 56.9914 439.172 55.1982C440.276 53.405 441.493 52.0039 442.822 50.9947C444.18 49.9511 445.482 49.3778 446.725 49.2748C449.372 49.0556 451.434 49.5271 452.911 50.6892C454.385 51.8194 455.204 53.3731 455.368 55.3504ZM442.193 63.7621C442.988 63.2789 443.825 62.7279 444.705 62.1092C445.615 61.456 446.459 60.7921 447.238 60.1175C448.014 59.411 448.632 58.7337 449.092 58.0855C449.584 57.4347 449.808 56.8382 449.763 56.2961C449.689 55.4031 449.389 54.8821 448.863 54.733C448.366 54.5494 447.703 54.4919 446.874 54.5606C446.013 54.6318 445.27 55.1589 444.645 56.1419C444.017 57.0929 443.504 58.2593 443.104 59.6409C442.705 61.0226 442.401 62.3963 442.193 63.7621ZM505.107 72.8098C504.214 72.8838 503.392 72.6468 502.64 72.099C501.92 71.5485 501.503 70.5876 501.39 69.2163C501.329 68.4828 501.339 67.4384 501.419 66.0832C501.532 64.7253 501.699 63.2505 501.92 61.6588C502.139 60.0352 502.391 58.4249 502.676 56.8279C502.993 55.2283 503.309 53.8054 503.623 52.5592C503.935 51.2811 504.225 50.3259 504.494 49.6936C504.847 48.9258 505.193 48.4476 505.531 48.2591C505.898 48.0361 506.256 47.9101 506.607 47.881C507.245 47.8282 507.851 47.9707 508.425 48.3085C509.03 48.6437 509.387 49.465 509.496 50.7726C509.538 51.2828 509.511 52.1199 509.415 53.2838C509.316 54.4158 509.185 55.7432 509.022 57.2658C508.859 58.7884 508.668 60.3615 508.449 61.9851C508.262 63.6061 508.069 65.1473 507.869 66.6088C507.698 68.0358 507.556 69.2355 507.444 70.2081C507.351 71.0186 507.065 71.6363 506.586 72.0612C506.142 72.5154 505.649 72.7649 505.107 72.8098ZM508.176 42.9828C507.124 43.07 506.126 42.8475 505.183 42.3156C504.237 41.7517 503.71 40.816 503.602 39.5084C503.512 38.4241 503.711 37.5247 504.197 36.8101C504.684 36.0955 505.282 35.5643 505.992 35.2166C506.731 34.8343 507.388 34.6194 507.962 34.5719C508.536 34.5244 509.184 34.5991 509.907 34.7962C510.627 34.9613 511.268 35.3417 511.831 35.9372C512.424 36.4983 512.767 37.3528 512.863 38.5009C512.926 39.2663 512.713 39.9903 512.224 40.673C511.732 41.3238 511.101 41.8576 510.333 42.2745C509.597 42.6886 508.878 42.9248 508.176 42.9828ZM518.124 71.0096C517.359 71.073 516.572 70.8812 515.765 70.4343C514.986 69.9529 514.317 69.2377 513.757 68.2887C513.194 67.3078 512.853 66.0998 512.734 64.6647C512.576 62.7513 512.662 60.6891 512.993 58.4783C513.355 56.2648 513.829 54.0421 514.415 51.8102C515.001 49.5782 515.582 47.4751 516.157 45.501C516.431 44.5471 516.81 43.8896 517.294 43.5284C517.775 43.1354 518.43 42.9045 519.259 42.8359C521.141 42.6801 522.159 43.543 522.315 45.4245C522.342 45.7434 522.25 46.3772 522.039 47.3258C521.826 48.2425 521.535 49.3744 521.164 50.7216C520.826 52.066 520.465 53.5248 520.082 55.0978C519.728 56.6363 519.408 58.204 519.123 59.801C518.867 61.3634 518.684 62.8396 518.574 64.2293C519.215 63.0524 519.914 61.5979 520.669 59.8656C521.454 58.0988 522.28 56.2483 523.148 54.3142C524.047 52.3774 524.957 50.5681 525.877 48.8864C526.795 47.1729 527.722 45.7636 528.658 44.6586C529.594 43.5536 530.524 42.9628 531.449 42.8862C532.246 42.8202 533.009 42.9176 533.737 43.1784C534.494 43.4047 535.179 43.926 535.793 44.7421C536.404 45.5264 536.917 46.688 537.334 48.2269C537.782 49.7631 538.112 51.8069 538.323 54.3582C538.429 55.6338 538.643 56.8683 538.967 58.0617C539.32 59.2205 539.816 60.1748 540.456 60.9245C541.093 61.6424 541.938 61.9578 542.991 61.8706C544.809 61.7201 546.407 61.2506 547.787 60.4621C549.167 59.6736 550.362 58.7879 551.372 57.8052C552.382 56.8225 553.226 55.9659 553.905 55.2355C554.314 54.752 554.668 54.3696 554.965 54.088C555.295 53.8039 555.572 53.6525 555.795 53.634C556.465 53.5786 556.957 53.7144 557.273 54.0414C557.621 54.3658 557.821 54.831 557.871 55.4369C557.897 55.7558 557.675 56.3682 557.204 57.2742C556.733 58.1801 556.05 59.2321 555.153 60.4301C554.286 61.5936 553.273 62.7371 552.114 63.8606C550.955 64.9841 549.685 65.9401 548.306 66.7286C546.926 67.5172 545.487 67.9735 543.988 68.0976C541.469 68.3062 539.343 68.0326 537.611 67.277C535.908 66.4868 534.569 65.0564 533.595 62.9857C532.618 60.8831 531.975 57.9662 531.666 54.235C531.658 54.1393 531.645 53.9799 531.627 53.7566C531.545 52.768 531.456 51.8924 531.361 51.1296C531.297 50.3642 531.198 49.7463 531.063 49.2759C530.603 50.3094 530.047 51.5435 529.395 52.9782C528.775 54.4102 528.099 55.9432 527.367 57.5771C526.633 59.1792 525.865 60.7679 525.065 62.3434C524.261 63.8869 523.447 65.3029 522.623 66.5913C521.83 67.8771 521.05 68.9211 520.281 69.7232C519.513 70.5254 518.794 70.9542 518.124 71.0096ZM602.491 64.6987C601.566 64.7753 600.841 64.5464 600.315 64.012C599.821 63.4749 599.533 62.712 599.451 61.7234C599.385 60.9262 599.36 60.2379 599.377 59.6585C599.393 59.0792 599.47 58.4627 599.609 57.8091C599.745 57.1235 599.916 56.2905 600.124 55.31C600.361 54.295 600.656 53.0023 601.007 51.4319C601.22 50.5152 601.475 49.3222 601.771 47.8527C602.096 46.3488 602.41 44.7173 602.714 42.9582C603.015 41.1673 603.237 39.3829 603.378 37.6051C603.55 35.7928 603.573 34.1372 603.449 32.6384C603.364 31.6179 603.063 30.6956 602.546 29.8715C599.823 33.051 597.333 37.1103 595.077 42.0493C592.853 46.9856 590.979 52.6636 589.455 59.0832C588.979 60.696 588.364 61.8065 587.612 62.4147C586.857 62.9909 586.113 63.3094 585.379 63.3702C585.156 63.3887 584.81 63.2888 584.343 63.0707C583.873 62.8206 583.416 62.3447 582.972 61.6429C582.529 60.9411 582.252 59.9204 582.141 58.581C582.114 58.2621 582.161 57.8569 582.281 57.3653C582.398 56.8419 582.593 56.2799 582.864 55.6795C583.014 53.9974 583.074 52.2103 583.046 50.3182C583.047 48.3915 582.986 46.4861 582.862 44.6019C582.767 42.6831 582.651 40.8946 582.514 39.2363C582.408 37.9606 582.22 36.8524 581.95 35.9115C580.551 38.0181 579.266 40.5327 578.095 43.4553C576.924 46.3779 575.895 49.4653 575.009 52.7175C574.154 55.9671 573.485 59.1371 573.003 62.2275C572.872 62.9768 572.705 63.681 572.503 64.3399C572.298 64.9669 571.956 65.4929 571.478 65.9179C571.029 66.3083 570.341 66.5418 569.417 66.6183C568.396 66.7028 567.596 66.3516 567.018 65.5647C566.439 64.7778 566.092 63.6987 565.979 62.3274C565.892 61.275 566.003 59.9011 566.312 58.2058C566.618 56.4787 567.073 54.5948 567.674 52.5542C568.273 50.4817 568.981 48.368 569.798 46.2133C570.645 44.024 571.545 41.9105 572.5 39.8727C573.455 37.8349 574.444 36.0032 575.465 34.3773C576.516 32.717 577.53 31.3968 578.509 30.4167C579.516 29.4021 580.467 28.8578 581.36 28.7839C581.391 28.7812 581.439 28.7773 581.503 28.772C582.205 28.7139 582.848 28.7249 583.432 28.8049C584.046 28.8504 584.6 29.1417 585.094 29.6788C585.617 30.1813 586.107 31.0559 586.564 32.3025C587.02 33.5491 587.472 35.3258 587.92 37.6327C588.031 38.2015 588.136 38.8832 588.234 39.6778C588.329 40.4406 588.411 41.2365 588.48 42.0657C589.337 39.6186 590.301 37.3071 591.373 35.1313C592.477 32.9527 593.633 31.0108 594.841 29.3053C596.08 27.5972 597.332 26.2413 598.598 25.2374C599.863 24.2336 601.07 23.6841 602.218 23.5891C603.557 23.4782 604.829 23.7101 606.032 24.2847C607.233 24.8275 608.248 25.8352 609.076 27.3079C609.905 28.7805 610.428 30.8404 610.648 33.4873C610.88 36.2937 610.85 39.0415 610.559 41.7307C610.266 44.388 609.832 46.9123 609.26 49.3037C608.687 51.6951 608.099 53.8952 607.494 55.9039C606.887 57.8807 606.387 59.5919 605.993 61.0373C605.66 62.0603 605.249 62.9131 604.76 63.5958C604.268 64.2466 603.512 64.6143 602.491 64.6987ZM621.511 64.0873C619.534 64.251 617.882 63.6974 616.557 62.4264C615.229 61.1235 614.437 58.9254 614.181 55.832C614.017 53.8547 614.076 51.859 614.359 49.8448C614.671 47.7961 615.168 45.8444 615.849 43.9899C616.56 42.1008 617.415 40.4085 618.415 38.9129C619.447 37.4146 620.616 36.2101 621.921 35.2993C623.223 34.3566 624.608 33.8245 626.075 33.703C628.563 33.4971 630.564 34.0057 632.078 35.229C633.592 36.4522 634.435 38.1003 634.606 40.1732C634.738 41.7677 634.412 43.2557 633.627 44.6372C632.872 45.9841 631.787 47.2299 630.373 48.3745C628.958 49.5191 627.36 50.5826 625.579 51.5649C623.798 52.5472 621.963 53.4537 620.073 54.2845C620.009 55.4458 620.013 56.4729 620.087 57.3658C620.132 57.908 620.458 58.154 621.064 58.1038C622.499 57.985 624.011 57.635 625.6 57.0539C627.219 56.4382 628.843 55.6936 630.473 54.8202C632.1 53.9149 633.661 52.9989 635.158 52.0723C636.652 51.1137 638.006 50.2149 639.221 49.3758C640.465 48.5021 641.484 47.8078 642.276 47.2926C643.097 46.743 643.636 46.4576 643.891 46.4365C644.592 46.3784 645.12 46.5434 645.473 46.9316C645.826 47.3198 646.023 47.7531 646.062 48.2314C646.081 48.4547 645.691 48.9846 644.893 49.8213C644.128 50.6553 643.055 51.6593 641.675 52.8331C640.324 53.9724 638.786 55.1754 637.061 56.4421C635.365 57.6743 633.585 58.8652 631.722 60.0149C629.887 61.13 628.085 62.0499 626.315 62.7744C624.579 63.5282 622.978 63.9658 621.511 64.0873ZM620.534 49.9597C621.778 49.0861 623.003 48.1819 624.21 47.2471C625.447 46.2778 626.452 45.2313 627.226 44.1076C627.997 42.952 628.323 41.6567 628.204 40.2216C628.17 39.807 628.036 39.5452 627.802 39.4361C627.566 39.2951 627.24 39.2418 626.826 39.2761C625.71 39.3685 624.73 39.9473 623.887 41.0125C623.076 42.0751 622.384 43.4167 621.812 45.0375C621.269 46.6237 620.843 48.2644 620.534 49.9597ZM649.474 62.5427C646.604 62.7803 644.267 62.0908 642.463 60.4741C640.689 58.8229 639.666 56.3549 639.394 53.0701C639.246 51.2842 639.312 49.1756 639.593 46.7442C639.87 44.2808 640.281 41.6781 640.825 38.9359C641.397 36.1592 642.021 33.4103 642.695 30.6895C643.4 27.966 644.106 25.4351 644.811 23.0969C645.517 20.7587 646.141 18.7965 646.684 17.2103C647.16 15.9828 647.925 15.3255 648.977 15.2384C649.647 15.1829 650.206 15.3454 650.655 15.7256C651.136 16.1032 651.414 16.7544 651.491 17.6793C651.528 18.1258 651.385 19.1169 651.063 20.6527C650.741 22.1886 650.304 24.0871 649.752 26.3483C649.23 28.575 648.659 30.9823 648.038 33.5704C647.45 36.1557 646.894 38.7544 646.372 41.3664C645.882 43.9758 645.507 46.4311 645.248 48.7323C644.986 51.0016 644.92 52.9176 645.05 54.4803C645.102 55.1181 645.32 55.6138 645.703 55.9675C646.117 56.3185 646.627 56.4689 647.233 56.4187C648.541 56.3105 649.86 55.9604 651.192 55.3685C652.555 54.774 653.877 54.0545 655.155 53.2101C656.466 52.3631 657.693 51.4748 658.836 50.5453C659.979 49.6158 660.999 48.7447 661.895 47.932C662.82 47.0848 663.567 46.4128 664.136 45.9162C664.883 45.2443 665.4 44.8964 665.687 44.8726C666.772 44.7829 667.357 45.2642 667.444 46.3166C667.465 46.5717 667.19 47.1243 666.618 47.9744C666.134 48.7209 665.443 49.6772 664.544 50.8433C663.645 52.0095 662.592 53.2526 661.385 54.5727C660.207 55.8583 658.928 57.088 657.548 58.2619C656.2 59.4331 654.837 60.413 653.457 61.2015C652.077 61.99 650.75 62.4371 649.474 62.5427ZM666.912 60.1838C664.999 60.3422 663.643 60.0691 662.847 59.3645C662.084 58.6891 661.649 57.6976 661.541 56.3901C661.081 50.841 661.639 44.967 663.212 38.768C664.816 32.5345 667.262 26.2151 670.553 19.8097C671.104 18.7045 671.579 18.039 671.977 17.8134C672.376 17.5877 672.83 17.4537 673.341 17.4115C674.074 17.3508 674.733 17.5531 675.318 18.0184C675.934 18.4812 676.276 19.1271 676.345 19.9563C676.366 20.2114 676.153 20.9355 675.706 22.1284C675.259 23.3214 674.663 24.8478 673.918 26.7076C673.205 28.5648 672.431 30.6677 671.598 33.0165C670.763 35.3333 669.954 37.7764 669.171 40.3458C668.42 42.9125 667.798 45.4846 667.305 48.062C668.276 46.6009 669.388 45.0961 670.64 43.5475C671.922 41.9643 673.262 40.5047 674.661 39.1688C676.056 37.8009 677.426 36.6922 678.768 35.8425C680.108 34.961 681.336 34.474 682.452 34.3816C683.504 34.2944 684.498 34.469 685.433 34.9053C686.401 35.339 687.216 36.0743 687.88 37.111C688.544 38.1478 688.947 39.5272 689.089 41.2493C689.245 43.1309 688.863 45.1052 687.942 47.1722C687.053 49.2365 685.659 51.1983 683.758 53.0575C681.888 54.9141 679.53 56.49 676.684 57.7854C673.869 59.078 670.611 59.8775 666.912 60.1838ZM668.47 54.5641C670.909 54.1695 673.082 53.4597 674.988 52.435C676.926 51.4076 678.56 50.1967 679.889 48.8022C681.219 47.4078 682.208 45.9772 682.857 44.5107C683.504 43.0122 683.774 41.6252 683.669 40.3495C683.645 40.0625 683.553 39.9256 683.394 39.9388C682.724 39.9943 681.904 40.3672 680.934 41.0576C679.961 41.7161 678.909 42.5899 677.779 43.6788C676.649 44.7678 675.511 45.9537 674.365 47.2367C673.219 48.5196 672.137 49.7973 671.118 51.0696C670.1 52.342 669.217 53.5068 668.47 54.5641ZM697.192 57.7731C694.928 57.9606 693.044 57.3138 691.54 55.8328C690.034 54.3199 689.169 52.2081 688.945 49.4974C688.874 48.6363 688.913 47.7501 689.062 46.8387C689.243 45.9246 689.477 45.0703 689.765 44.2759C689.55 44.0047 689.36 43.6512 689.195 43.2153C689.06 42.7448 688.966 42.1907 688.913 41.5529C688.742 39.48 688.951 37.5521 689.542 35.7693C690.13 33.9545 690.994 32.3579 692.132 30.9793C693.27 29.6007 694.559 28.4985 696 27.6728C697.441 26.8471 698.927 26.3709 700.457 26.2441C703.072 26.0276 705.282 26.7277 707.085 28.3444C708.921 29.9585 709.992 32.6152 710.298 36.3145C710.451 38.1642 710.32 40.0695 709.904 42.0305C709.489 43.9915 708.859 45.8899 708.016 47.7257C707.202 49.5271 706.213 51.1662 705.051 52.6431C703.921 54.1174 702.671 55.3126 701.302 56.2287C699.965 57.1421 698.595 57.6569 697.192 57.7731ZM695.088 41.6678C695.276 42.0054 695.39 42.4134 695.43 42.8917C695.469 43.3701 695.415 43.8723 695.266 44.3984C695.117 44.9245 694.982 45.626 694.862 46.5029C694.739 47.3479 694.743 48.5518 694.872 50.1144C694.906 50.529 694.983 50.8758 695.103 51.1549C695.251 51.3995 695.533 51.5046 695.947 51.4703C697.032 51.3805 698.023 50.9452 698.922 50.1644C699.852 49.381 700.653 48.3835 701.323 47.1721C702.025 45.958 702.589 44.6269 703.015 43.1788C703.471 41.6962 703.781 40.2095 703.947 38.7188C704.141 37.1935 704.186 35.793 704.08 34.5174C704.012 33.6883 703.805 33.1274 703.459 32.8349C703.114 32.5424 702.543 32.4292 701.746 32.4952C700.661 32.5849 699.574 33.0282 698.484 33.8248C697.423 34.5869 696.559 35.5897 695.892 36.833C695.221 38.0444 694.947 39.3836 695.068 40.8506C695.092 41.1376 695.098 41.41 695.088 41.6678ZM731.707 55.4934C730.973 55.5542 730.278 55.3067 729.622 54.7509C729.001 54.2244 728.633 53.2755 728.519 51.9042C728.435 50.8837 728.397 49.4579 728.406 47.6269C728.444 45.7614 728.598 43.3565 728.868 40.4122C727.942 42.8007 726.947 44.9381 725.883 46.8244C724.819 48.7106 723.74 50.2128 722.644 51.331C721.578 52.4147 720.519 53.0001 719.466 53.0872C717.776 53.2272 716.394 52.8278 715.321 51.8891C714.245 50.9186 713.589 48.9982 713.351 46.1281C713.238 44.7567 713.221 43.2008 713.302 41.4602C713.414 39.717 713.591 37.9685 713.831 36.2147C714.071 34.4609 714.327 32.8984 714.599 31.5273C714.9 30.1217 715.182 29.0708 715.445 28.3747C715.653 27.7796 715.935 27.3067 716.291 26.9561C716.679 26.6028 717.192 26.3998 717.83 26.347C718.851 26.2625 719.66 26.5327 720.257 27.1575C720.855 27.7823 721.183 28.4455 721.241 29.1471C721.286 29.6893 721.223 30.4812 721.052 31.5228C720.914 32.5618 720.72 33.7177 720.472 34.9905C720.257 36.2606 720.027 37.564 719.785 38.9006C719.542 40.2371 719.341 41.49 719.181 42.6592C719.053 43.8258 719.022 44.8077 719.088 45.6049C719.169 46.5936 719.593 47.0562 720.358 46.9928C720.805 46.9558 721.343 46.4778 721.974 45.5587C722.636 44.6369 723.306 43.4254 723.985 41.9243C724.692 40.3887 725.389 38.7255 726.076 36.9347C726.792 35.1095 727.427 33.2748 727.98 31.4308C728.563 29.5523 729.047 27.8266 729.43 26.2536C729.67 25.2704 730.045 24.5651 730.555 24.1375C731.066 23.7099 731.672 23.4671 732.373 23.409C733.458 23.3192 734.312 23.5535 734.936 24.1119C735.592 24.6677 735.966 25.5037 736.059 26.6198C736.101 27.1301 736.093 27.9978 736.034 29.2228C735.974 30.4479 735.885 31.8842 735.764 33.5317C735.676 35.1767 735.547 36.9212 735.379 38.7654C735.21 40.6096 735.039 42.4219 734.866 44.2023C734.724 45.98 734.57 47.6143 734.405 49.105C734.236 50.5639 734.092 51.7318 733.972 52.6087C733.759 53.9107 733.44 54.7078 733.014 54.9999C732.589 55.2919 732.153 55.4565 731.707 55.4934ZM742.169 54.579C741.372 54.645 740.663 54.4148 740.041 53.8883C739.451 53.3591 739.112 52.5524 739.022 51.4681C738.982 50.9897 738.981 50.2031 739.019 49.1083C739.086 47.9789 739.172 46.6874 739.276 45.2338C739.413 43.7776 739.528 42.259 739.622 40.6778C739.747 39.094 739.832 37.594 739.875 36.1776C739.95 34.7585 739.979 33.552 739.961 32.5581C739.924 31.341 740.172 30.4536 740.704 29.8958C741.233 29.3061 741.896 28.9783 742.693 28.9122C743.331 28.8594 743.918 28.9714 744.455 29.248C745.021 29.4902 745.407 30.0843 745.614 31.0305C745.85 31.9421 745.977 33.2802 745.995 35.0448C747.187 32.3773 748.417 29.9796 749.686 27.8517C750.986 25.7211 752.385 23.9998 753.882 22.6878C756.362 20.4595 758.671 19.257 760.808 19.08C762.02 18.9797 762.839 19.1848 763.267 19.6952C763.695 20.2057 763.932 20.7479 763.98 21.322C764.011 21.7047 763.945 22.0634 763.78 22.3981C763.647 22.7302 763.324 23.0941 762.81 23.4898C762.297 23.8855 761.507 24.4166 760.438 25.083C759.002 25.9725 757.603 27.0999 756.239 28.4651C754.906 29.8276 753.603 31.541 752.329 33.6052C751.055 35.6693 749.802 38.1813 748.57 41.141C747.338 44.1008 746.103 47.6066 744.866 51.6586C744.668 52.7666 744.313 53.5185 743.8 53.9142C743.319 54.3072 742.775 54.5288 742.169 54.579ZM764.246 50.632C763.48 50.6953 762.694 50.5036 761.886 50.0567C761.108 49.5753 760.439 48.8601 759.878 47.9111C759.315 46.9302 758.975 45.7222 758.856 44.2871C758.697 42.3736 758.783 40.3115 759.114 38.1006C759.477 35.8872 759.951 33.6645 760.537 31.4325C761.123 29.2006 761.703 27.0975 762.278 25.1233C762.552 24.1694 762.931 23.5119 763.415 23.1508C763.897 22.7577 764.552 22.5269 765.381 22.4582C767.262 22.3024 768.281 23.1653 768.437 25.0469C768.463 25.3658 768.371 25.9996 768.161 26.9482C767.948 27.8649 767.656 28.9968 767.286 30.3439C766.948 31.6884 766.587 33.1472 766.203 34.7202C765.849 36.2586 765.529 37.8264 765.244 39.4234C764.988 40.9858 764.805 42.4619 764.696 43.8517C765.337 42.6748 766.035 41.2202 766.791 39.488C767.576 37.7212 768.402 35.8707 769.269 33.9365C770.168 31.9997 771.078 30.1905 771.999 28.5088C772.916 26.7952 773.843 25.386 774.779 24.2809C775.715 23.1759 776.646 22.5852 777.571 22.5086C778.368 22.4426 779.131 22.54 779.859 22.8008C780.616 23.0271 781.301 23.5483 781.915 24.3645C782.525 25.1488 783.039 26.3103 783.455 27.8492C783.904 29.3855 784.233 31.4292 784.445 33.9805C784.55 35.2562 784.765 36.4907 785.088 37.684C785.441 38.8429 785.938 39.7972 786.578 40.5469C787.215 41.2648 788.06 41.5801 789.112 41.493C790.93 41.3425 792.529 40.873 793.909 40.0844C795.288 39.2959 796.483 38.4103 797.494 37.4276C798.504 36.4449 799.348 35.5883 800.026 34.8578C800.436 34.3744 800.789 33.9919 801.087 33.7104C801.417 33.4262 801.693 33.2749 801.916 33.2564C802.586 33.201 803.079 33.3367 803.395 33.6638C803.743 33.9882 803.942 34.4533 803.992 35.0593C804.019 35.3782 803.796 35.9906 803.326 36.8965C802.855 37.8025 802.171 38.8545 801.275 40.0525C800.408 41.216 799.395 42.3595 798.236 43.483C797.076 44.6065 795.807 45.5625 794.427 46.351C793.048 47.1395 791.608 47.5958 790.11 47.7199C787.59 47.9285 785.464 47.655 783.732 46.8994C782.029 46.1092 780.691 44.6788 779.716 42.6081C778.74 40.5055 778.097 37.5886 777.788 33.8574C777.78 33.7617 777.767 33.6022 777.748 33.379C777.666 32.3904 777.578 31.5147 777.482 30.752C777.419 29.9866 777.32 29.3687 777.185 28.8982C776.724 29.9317 776.168 31.1658 775.516 32.6005C774.896 34.0325 774.221 35.5655 773.489 37.1995C772.755 38.8015 771.987 40.3903 771.186 41.9657C770.383 43.5093 769.569 44.9253 768.744 46.2137C767.952 47.4995 767.171 48.5434 766.403 49.3456C765.634 50.1477 764.915 50.5765 764.246 50.632ZM803.321 49.0343C801.343 49.198 799.692 48.6444 798.367 47.3734C797.039 46.0706 796.247 43.8724 795.99 40.779C795.827 38.8018 795.886 36.8061 796.169 34.7919C796.481 32.7431 796.978 30.7915 797.659 28.937C798.37 27.0479 799.225 25.3556 800.225 23.8599C801.257 22.3617 802.425 21.1572 803.731 20.2463C805.033 19.3036 806.418 18.7716 807.885 18.6501C810.373 18.4442 812.373 18.9528 813.887 20.176C815.402 21.3993 816.244 23.0473 816.416 25.1203C816.548 26.7148 816.222 28.2028 815.437 29.5843C814.682 30.9312 813.597 32.177 812.182 33.3216C810.768 34.4662 809.17 35.5296 807.389 36.5119C805.608 37.4942 803.773 38.4008 801.883 39.2315C801.818 40.3928 801.823 41.4199 801.897 42.3129C801.942 42.855 802.267 43.101 802.873 43.0508C804.308 42.932 805.821 42.582 807.41 42.0009C809.029 41.3853 810.653 40.6407 812.283 39.7673C813.909 38.8619 815.471 37.946 816.968 37.0193C818.462 36.0608 819.816 35.1619 821.031 34.3228C822.275 33.4492 823.293 32.7548 824.086 32.2397C824.907 31.69 825.445 31.4047 825.701 31.3835C826.402 31.3254 826.93 31.4905 827.283 31.8787C827.636 32.2668 827.832 32.7001 827.872 33.1785C827.891 33.4017 827.501 33.9317 826.703 34.7683C825.937 35.6024 824.865 36.6063 823.485 37.7802C822.134 38.9195 820.596 40.1225 818.871 41.3892C817.175 42.6213 815.395 43.8123 813.531 44.9619C811.697 46.0771 809.895 46.9969 808.125 47.7215C806.389 48.4753 804.788 48.9129 803.321 49.0343ZM802.344 34.9068C803.588 34.0331 804.813 33.1289 806.02 32.1942C807.257 31.2248 808.262 30.1783 809.036 29.0547C809.807 27.8991 810.133 26.6037 810.014 25.1687C809.98 24.7541 809.846 24.4922 809.612 24.3832C809.376 24.2422 809.05 24.1889 808.635 24.2232C807.519 24.3156 806.54 24.8944 805.697 25.9596C804.886 27.0221 804.194 28.3638 803.622 29.9845C803.079 31.5707 802.653 33.2115 802.344 34.9068ZM146.722 169.816C145.701 169.9 144.753 169.69 143.876 169.185C143.002 168.711 142.289 168.048 141.737 167.194C141.182 166.309 140.861 165.34 140.774 164.288C140.61 162.311 140.881 160.346 141.586 158.393C142.323 156.437 143.339 154.555 144.634 152.746C145.93 150.937 147.364 149.261 148.938 147.718C150.541 146.14 152.146 144.771 153.752 143.611C155.389 142.447 156.886 141.521 158.242 140.831C159.629 140.138 160.722 139.758 161.519 139.692C162.444 139.616 163.21 139.761 163.819 140.128C164.456 140.461 164.809 141.041 164.878 141.871C164.899 142.126 164.853 142.338 164.738 142.508C165.161 142.57 165.515 142.781 165.802 143.143C166.089 143.504 166.264 144.068 166.327 144.833C166.354 145.152 166.343 145.988 166.294 147.34C166.246 148.693 166.205 150.334 166.172 152.263C166.171 154.19 166.256 156.19 166.428 158.263C166.454 158.581 166.526 158.865 166.643 159.112C166.757 159.327 166.973 159.421 167.292 159.395C168.568 159.289 169.838 158.927 171.104 158.309C172.398 157.656 173.636 156.895 174.816 156.027C176.026 155.124 177.109 154.248 178.066 153.398C179.053 152.513 179.875 151.787 180.535 151.219C181.223 150.616 181.679 150.305 181.903 150.286C182.987 150.197 183.574 150.694 183.664 151.778C183.687 152.065 183.387 152.7 182.762 153.683C182.166 154.632 181.327 155.745 180.245 157.022C179.16 158.268 177.931 159.526 176.559 160.795C175.217 162.03 173.794 163.079 172.292 163.942C170.822 164.802 169.37 165.292 167.935 165.411C166.181 165.556 164.807 165.252 163.814 164.5C162.852 163.744 162.122 162.681 161.623 161.309C161.153 159.903 160.829 158.309 160.649 156.525C159.215 158.988 157.697 161.201 156.093 163.164C154.519 165.092 152.93 166.653 151.327 167.845C149.724 169.038 148.189 169.694 146.722 169.816ZM161.672 144.448C158.671 146.205 156.007 148.16 153.68 150.311C151.351 152.431 149.54 154.603 148.248 156.83C146.987 159.053 146.437 161.138 146.598 163.083C146.643 163.625 146.92 163.875 147.431 163.833C148.037 163.783 148.805 163.366 149.735 162.583C150.698 161.797 151.721 160.781 152.806 159.535C153.889 158.257 154.96 156.852 156.022 155.319C157.08 153.754 158.056 152.165 158.95 150.549C159.844 148.934 160.535 147.4 161.025 145.946C161.206 145.418 161.422 144.918 161.672 144.448ZM181.233 167.585C179.862 167.698 178.873 167.587 178.268 167.252C177.694 166.914 177.377 166.379 177.316 165.645C177.263 165.008 177.441 164.447 177.851 163.963C178.258 163.448 179.207 162.888 180.698 162.283C182.439 161.593 184.078 160.831 185.614 159.997C187.18 159.129 188.437 158.222 189.386 157.277C190.368 156.329 190.818 155.376 190.739 154.419C190.686 153.782 190.425 153.338 189.955 153.088C189.516 152.835 189.01 152.732 188.436 152.78C187.958 152.819 187.263 152.957 186.351 153.193C185.469 153.395 184.495 153.652 183.429 153.965C182.36 154.246 181.323 154.509 180.315 154.753C179.337 154.962 178.497 155.096 177.796 155.154C176.137 155.291 174.879 155.026 174.021 154.359C173.161 153.659 172.681 152.72 172.584 151.54C172.531 150.902 172.793 149.997 173.37 148.825C173.948 147.654 174.739 146.352 175.744 144.92C176.75 143.488 177.882 142.046 179.143 140.593C180.403 139.14 181.689 137.798 183 136.565C184.34 135.298 185.62 134.277 186.84 133.502C188.058 132.695 189.113 132.254 190.006 132.18C191.026 132.096 191.866 132.347 192.525 132.935C193.215 133.52 193.605 134.355 193.695 135.439C193.737 135.949 193.736 136.511 193.69 137.125C193.642 137.707 193.447 138.253 193.103 138.763C192.758 139.241 192.194 139.609 191.413 139.866C190.631 140.124 189.544 140.181 188.152 140.04C187.134 140.927 186.074 141.898 184.973 142.952C183.902 143.972 182.898 145.034 181.962 146.139C181.023 147.213 180.259 148.255 179.668 149.267C180.817 148.787 182.131 148.373 183.611 148.026C185.089 147.647 186.593 147.394 188.124 147.267C189.974 147.114 191.5 147.324 192.704 147.899C193.937 148.439 194.869 149.229 195.501 150.268C196.165 151.305 196.551 152.477 196.659 153.785C196.781 155.252 196.424 156.758 195.588 158.305C194.753 159.851 193.588 161.296 192.094 162.64C190.6 163.984 188.911 165.103 187.026 165.997C185.141 166.892 183.21 167.421 181.233 167.585ZM222.145 163.571C221.124 163.656 220.175 163.445 219.299 162.94C218.425 162.466 217.712 161.803 217.159 160.95C216.604 160.064 216.283 159.096 216.196 158.043C216.032 156.066 216.303 154.101 217.008 152.148C217.746 150.193 218.762 148.31 220.057 146.501C221.352 144.692 222.787 143.016 224.361 141.473C225.964 139.895 227.569 138.526 229.174 137.366C230.812 136.203 232.308 135.276 233.664 134.586C235.052 133.893 236.144 133.514 236.941 133.448C237.866 133.371 238.633 133.516 239.241 133.883C239.879 134.216 240.232 134.797 240.301 135.626C240.322 135.881 240.275 136.094 240.161 136.264C240.583 136.325 240.938 136.536 241.225 136.898C241.512 137.26 241.687 137.823 241.75 138.588C241.776 138.907 241.765 139.743 241.717 141.096C241.668 142.448 241.627 144.089 241.595 146.019C241.594 147.945 241.679 149.945 241.85 152.018C241.877 152.337 241.948 152.62 242.065 152.867C242.179 153.082 242.396 153.177 242.715 153.15C243.99 153.045 245.261 152.683 246.526 152.064C247.821 151.411 249.058 150.651 250.239 149.782C251.448 148.879 252.532 148.003 253.489 147.153C254.475 146.269 255.298 145.542 255.957 144.974C256.646 144.371 257.102 144.06 257.325 144.042C258.409 143.952 258.996 144.449 259.086 145.534C259.11 145.821 258.809 146.456 258.184 147.439C257.589 148.387 256.749 149.5 255.667 150.778C254.582 152.023 253.354 153.281 251.982 154.551C250.639 155.786 249.217 156.835 247.715 157.697C246.245 158.558 244.792 159.047 243.357 159.166C241.603 159.311 240.23 159.007 239.236 158.255C238.275 157.5 237.544 156.436 237.045 155.065C236.576 153.659 236.251 152.064 236.071 150.281C234.638 152.744 233.119 154.956 231.516 156.919C229.941 158.848 228.353 160.408 226.75 161.601C225.147 162.793 223.612 163.45 222.145 163.571ZM237.094 138.203C234.093 139.961 231.429 141.915 229.103 144.067C226.774 146.186 224.963 148.359 223.67 150.585C222.409 152.809 221.86 154.893 222.021 156.839C222.065 157.381 222.343 157.631 222.853 157.588C223.459 157.538 224.227 157.121 225.158 156.338C226.12 155.552 227.144 154.536 228.229 153.29C229.311 152.013 230.383 150.607 231.444 149.075C232.503 147.51 233.479 145.92 234.372 144.305C235.266 142.689 235.958 141.155 236.448 139.702C236.629 139.173 236.844 138.673 237.094 138.203ZM271.668 173.102C270.775 173.175 270.047 172.915 269.484 172.319C268.955 171.753 268.638 170.832 268.533 169.556C268.387 167.802 268.374 165.7 268.492 163.25C268.61 160.8 268.828 158.197 269.146 155.441C269.464 152.686 269.833 149.974 270.255 147.306C270.772 144.245 271.295 141.456 271.826 138.94C272.388 136.421 272.991 134.396 273.635 132.866C274.308 131.301 275.043 130.486 275.84 130.42C276.574 130.359 277.234 130.577 277.821 131.074C278.437 131.537 278.788 132.279 278.872 133.299C278.933 134.033 278.829 135.101 278.56 136.504C278.288 137.875 277.948 139.589 277.54 141.646C278.477 139.77 279.448 137.924 280.453 136.106C281.491 134.287 282.557 132.625 283.653 131.121C284.749 129.618 285.836 128.404 286.916 127.48C287.995 126.556 289.045 126.051 290.065 125.967C291.277 125.866 292.375 126.129 293.358 126.754C294.372 127.376 295.201 128.271 295.844 129.438C296.486 130.605 296.871 131.954 296.997 133.484C297.232 136.323 296.95 139.124 296.152 141.887C295.35 144.618 294.128 147.112 292.484 149.367C290.873 151.62 288.923 153.467 286.634 154.909C284.342 156.318 281.809 157.138 279.035 157.368C278.238 157.434 277.497 157.415 276.815 157.311C276.166 157.236 275.563 157.126 275.005 156.979C274.791 159.052 274.597 161.171 274.424 163.337C274.284 165.532 274.138 167.84 273.985 170.261C273.748 172.046 272.975 172.993 271.668 173.102ZM291.011 131.572C290.31 131.63 289.456 132.182 288.451 133.229C287.478 134.273 286.434 135.627 285.32 137.293C284.203 138.927 283.082 140.705 281.957 142.629C280.861 144.518 279.81 146.371 278.805 148.188C277.831 150.002 276.998 151.58 276.307 152.922C278.709 152.466 280.793 151.651 282.558 150.478C284.321 149.272 285.794 147.866 286.977 146.259C288.161 144.652 289.082 142.986 289.742 141.262C290.432 139.503 290.901 137.81 291.152 136.184C291.403 134.558 291.479 133.155 291.382 131.975C291.358 131.688 291.234 131.553 291.011 131.572ZM320.597 132.735C320.769 134.807 319.759 136.962 317.568 139.199C315.407 141.4 311.935 143.486 307.153 145.455C307.156 145.487 307.16 145.535 307.165 145.599C307.252 146.651 307.45 147.486 307.758 148.102C308.063 148.687 308.646 148.944 309.507 148.873C310.783 148.767 312.17 148.267 313.67 147.372C315.198 146.443 316.757 145.302 318.347 143.95C319.966 142.564 321.532 141.118 323.045 139.612C324.558 138.106 325.95 136.69 327.221 135.365C328.521 134.005 329.618 132.903 330.511 132.058C331.434 131.179 332.055 130.726 332.374 130.7C333.043 130.644 333.623 130.853 334.111 131.327C334.632 131.797 334.935 132.543 335.019 133.563C335.067 134.137 335.091 134.826 335.094 135.628C336.296 133.088 337.758 130.961 339.478 129.245C341.196 127.497 342.916 126.167 344.638 125.253C346.39 124.306 347.904 123.779 349.179 123.673C350.614 123.554 351.611 123.761 352.169 124.293C352.724 124.793 353.026 125.346 353.077 125.951C353.106 126.302 353.055 126.66 352.924 127.024C352.823 127.353 352.502 127.733 351.959 128.163C351.449 128.591 350.577 129.113 349.343 129.728C347.706 130.506 346.158 131.389 344.698 132.377C343.271 133.362 341.981 134.657 340.829 136.261C339.707 137.831 338.739 139.902 337.924 142.474C337.139 145.012 336.571 148.237 336.221 152.152C336.087 153.254 335.797 154.017 335.351 154.439C334.907 154.893 334.366 155.147 333.728 155.2C333.664 155.205 333.552 155.214 333.393 155.227C333.109 155.283 332.803 155.276 332.476 155.207C332.184 155.167 331.874 154.92 331.548 154.465C331.256 154.04 330.984 153.276 330.732 152.173C330.48 151.07 330.268 149.482 330.097 147.409C329.994 146.165 329.933 144.854 329.915 143.474C329.927 142.061 329.966 140.596 330.033 139.082C328.539 140.811 326.934 142.565 325.219 144.345C323.504 146.124 321.715 147.782 319.851 149.317C318.017 150.817 316.193 152.06 314.38 153.045C312.599 154.027 310.911 154.584 309.317 154.716C307.18 154.893 305.369 154.353 303.884 153.095C302.429 151.803 301.581 149.706 301.341 146.803C301.103 143.933 301.271 141.302 301.843 138.911C302.445 136.485 303.298 134.376 304.402 132.582C305.505 130.789 306.722 129.388 308.051 128.379C309.41 127.335 310.711 126.762 311.955 126.659C314.602 126.44 316.664 126.911 318.14 128.073C319.615 129.204 320.434 130.757 320.597 132.735ZM307.423 141.146C308.217 140.663 309.055 140.112 309.935 139.493C310.844 138.84 311.688 138.176 312.467 137.502C313.243 136.795 313.862 136.118 314.322 135.47C314.814 134.819 315.037 134.222 314.992 133.68C314.918 132.787 314.618 132.266 314.092 132.117C313.595 131.934 312.932 131.876 312.103 131.945C311.242 132.016 310.499 132.543 309.874 133.526C309.247 134.477 308.733 135.643 308.334 137.025C307.934 138.407 307.631 139.78 307.423 141.146ZM355.436 153.162C354.065 153.275 353.076 153.164 352.47 152.829C351.896 152.491 351.579 151.956 351.518 151.222C351.466 150.584 351.644 150.024 352.054 149.54C352.46 149.025 353.409 148.465 354.901 147.86C356.642 147.17 358.28 146.408 359.817 145.574C361.382 144.706 362.64 143.799 363.589 142.854C364.57 141.906 365.021 140.953 364.942 139.996C364.889 139.359 364.628 138.915 364.157 138.665C363.719 138.412 363.213 138.309 362.639 138.357C362.16 138.396 361.465 138.534 360.554 138.77C359.671 138.972 358.697 139.229 357.632 139.542C356.563 139.823 355.525 140.086 354.518 140.33C353.54 140.539 352.7 140.673 351.998 140.731C350.34 140.868 349.082 140.603 348.224 139.936C347.363 139.236 346.884 138.297 346.786 137.117C346.734 136.479 346.996 135.574 347.573 134.402C348.15 133.231 348.942 131.929 349.947 130.497C350.952 129.065 352.085 127.623 353.346 126.17C354.606 124.717 355.892 123.374 357.202 122.142C358.542 120.875 359.823 119.854 361.043 119.079C362.26 118.272 363.315 117.831 364.208 117.757C365.229 117.673 366.069 117.924 366.727 118.512C367.418 119.097 367.808 119.931 367.898 121.016C367.94 121.526 367.939 122.088 367.893 122.702C367.845 123.284 367.649 123.83 367.306 124.34C366.96 124.818 366.397 125.186 365.615 125.443C364.834 125.7 363.747 125.758 362.355 125.617C361.336 126.504 360.277 127.475 359.176 128.529C358.105 129.549 357.101 130.611 356.165 131.716C355.226 132.789 354.462 133.832 353.871 134.844C355.019 134.364 356.334 133.95 357.814 133.603C359.292 133.223 360.796 132.97 362.327 132.844C364.177 132.691 365.703 132.901 366.907 133.476C368.139 134.016 369.072 134.806 369.704 135.845C370.368 136.882 370.754 138.054 370.862 139.362C370.983 140.829 370.626 142.335 369.791 143.881C368.956 145.428 367.791 146.873 366.297 148.217C364.803 149.56 363.113 150.68 361.229 151.574C359.344 152.469 357.413 152.998 355.436 153.162ZM404.843 149.071C403.6 149.174 402.663 148.914 402.033 148.292C401.407 147.702 401.013 146.434 400.852 144.489C400.714 142.83 400.807 140.655 401.13 137.963C401.453 135.272 401.823 132.367 402.239 129.25C399.027 133.498 395.153 136.355 390.619 137.822C389.852 139.812 388.913 141.656 387.801 143.354C386.69 145.051 385.441 146.455 384.056 147.565C382.7 148.641 381.241 149.243 379.678 149.372C377.733 149.533 376.006 149.034 374.497 147.875C373.02 146.713 372.172 144.808 371.953 142.161C371.805 140.375 371.951 138.838 372.39 137.549C372.827 136.229 373.369 135.221 374.018 134.525C373.344 133.36 372.942 131.997 372.812 130.434C372.638 128.33 373.058 126.416 374.071 124.695C375.084 122.973 376.494 121.572 378.299 120.492C380.136 119.408 382.17 118.774 384.403 118.59C385.646 118.487 386.853 118.708 388.022 119.253C389.22 119.764 390.223 120.628 391.03 121.846C391.866 123.029 392.364 124.577 392.522 126.491C392.654 128.085 392.56 129.859 392.24 131.812C394.394 130.285 396.474 128.267 398.482 125.756C400.521 123.243 402.298 120.463 403.812 117.416C404.283 116.51 405.012 116.016 406.001 115.934C406.83 115.866 407.505 116.067 408.026 116.537C408.576 116.973 408.884 117.59 408.95 118.387C408.963 118.547 408.911 119.081 408.793 119.99C408.676 120.899 408.517 122.084 408.317 123.545C408.114 124.975 407.892 126.551 407.649 128.272C407.438 129.992 407.23 131.743 407.024 133.526C406.819 135.309 406.637 136.994 406.479 138.58C407.184 137.013 407.945 135.344 408.762 133.575C409.608 131.771 410.489 129.996 411.404 128.251C412.316 126.473 413.226 124.857 414.133 123.401C415.04 121.945 415.891 120.783 416.686 119.914C417.478 119.014 418.177 118.539 418.783 118.488C419.995 118.388 421.045 118.654 421.932 119.287C422.819 119.92 423.293 120.603 423.354 121.337C423.415 122.07 423.429 123.209 423.396 124.753C423.363 126.297 423.299 128.036 423.202 129.971C423.134 131.871 423.052 133.788 422.956 135.723C422.859 137.657 422.796 139.413 422.766 140.989C422.733 142.532 422.748 143.687 422.812 144.453C422.864 145.09 422.612 145.721 422.053 146.346C421.495 146.97 420.833 147.314 420.067 147.377C420.004 147.382 419.892 147.391 419.733 147.405C419.353 147.468 418.996 147.433 418.664 147.3C418.335 147.199 418.024 146.743 417.732 145.933C417.472 145.119 417.26 143.724 417.097 141.747C416.986 140.407 416.928 138.935 416.924 137.33C416.919 135.725 416.947 134.117 417.006 132.507C417.095 130.862 417.208 129.327 417.347 127.903C416.632 129.343 415.836 130.982 414.961 132.821C414.115 134.625 413.225 136.48 412.291 138.388C411.355 140.264 410.424 142.01 409.498 143.628C408.602 145.212 407.745 146.503 406.929 147.501C406.144 148.498 405.449 149.021 404.843 149.071ZM385.534 134.583C385.846 133.305 386.074 131.985 386.218 130.625C386.359 129.232 386.376 127.882 386.268 126.575C386.223 126.033 386.068 125.516 385.802 125.024C385.537 124.532 385.133 124.309 384.591 124.354C383.506 124.443 382.457 124.755 381.441 125.289C380.458 125.82 379.665 126.528 379.064 127.412C378.463 128.297 378.21 129.313 378.305 130.461C378.39 131.482 378.796 132.315 379.524 132.961C380.283 133.605 381.188 134.06 382.238 134.326C383.319 134.59 384.37 134.679 385.391 134.595C385.422 134.592 385.47 134.588 385.534 134.583ZM383.921 138.955C382.802 139.015 381.706 138.962 380.633 138.794C379.557 138.594 378.567 138.274 377.664 137.835C377.61 138.353 377.555 138.856 377.499 139.342C377.441 139.796 377.428 140.231 377.463 140.645C377.521 141.347 377.685 141.976 377.956 142.531C378.256 143.052 378.789 143.281 379.554 143.218C380.351 143.152 381.12 142.735 381.859 141.967C382.63 141.197 383.317 140.193 383.921 138.955ZM433.159 146.1C432.138 146.185 431.19 145.974 430.313 145.469C429.439 144.996 428.726 144.332 428.173 143.479C427.619 142.594 427.297 141.625 427.21 140.572C427.047 138.595 427.317 136.63 428.023 134.677C428.76 132.722 429.776 130.839 431.071 129.03C432.366 127.221 433.801 125.545 435.375 124.002C436.978 122.424 438.583 121.055 440.188 119.895C441.826 118.732 443.323 117.805 444.678 117.115C446.066 116.422 447.158 116.043 447.956 115.977C448.88 115.9 449.647 116.045 450.255 116.412C450.893 116.745 451.246 117.326 451.315 118.155C451.336 118.41 451.289 118.623 451.175 118.793C451.597 118.854 451.952 119.066 452.239 119.427C452.526 119.789 452.701 120.352 452.764 121.117C452.791 121.436 452.78 122.272 452.731 123.625C452.682 124.977 452.642 126.618 452.609 128.548C452.608 130.474 452.693 132.474 452.865 134.547C452.891 134.866 452.963 135.149 453.079 135.396C453.194 135.611 453.41 135.706 453.729 135.68C455.005 135.574 456.275 135.212 457.54 134.593C458.835 133.94 460.072 133.18 461.253 132.311C462.462 131.408 463.546 130.532 464.503 129.682C465.489 128.798 466.312 128.071 466.972 127.503C467.66 126.9 468.116 126.589 468.339 126.571C469.424 126.481 470.011 126.978 470.1 128.063C470.124 128.35 469.824 128.985 469.199 129.968C468.603 130.916 467.764 132.029 466.681 133.307C465.597 134.552 464.368 135.81 462.996 137.08C461.654 138.315 460.231 139.364 458.729 140.226C457.259 141.087 455.807 141.576 454.372 141.695C452.618 141.84 451.244 141.537 450.25 140.784C449.289 140.029 448.559 138.965 448.06 137.594C447.59 136.188 447.265 134.593 447.086 132.81C445.652 135.273 444.133 137.485 442.53 139.448C440.956 141.377 439.367 142.937 437.764 144.13C436.161 145.322 434.626 145.979 433.159 146.1ZM448.109 120.732C445.107 122.49 442.444 124.444 440.117 126.596C437.788 128.715 435.977 130.888 434.684 133.114C433.424 135.338 432.874 137.422 433.035 139.368C433.08 139.91 433.357 140.16 433.868 140.118C434.473 140.067 435.242 139.651 436.172 138.867C437.135 138.081 438.158 137.065 439.243 135.819C440.325 134.542 441.397 133.136 442.458 131.604C443.517 130.039 444.493 128.449 445.387 126.834C446.28 125.218 446.972 123.684 447.462 122.231C447.643 121.702 447.859 121.203 448.109 120.732ZM472.869 143.391C469.999 143.628 467.662 142.939 465.858 141.322C464.084 139.671 463.061 137.203 462.789 133.918C462.641 132.132 462.707 130.023 462.988 127.592C463.265 125.129 463.676 122.526 464.22 119.784C464.792 117.007 465.416 114.258 466.09 111.537C466.795 108.814 467.501 106.283 468.206 103.945C468.912 101.607 469.536 99.6444 470.079 98.0582C470.555 96.8307 471.32 96.1734 472.372 96.0862C473.042 96.0308 473.601 96.1932 474.05 96.5735C474.531 96.9511 474.809 97.6023 474.886 98.5271C474.923 98.9736 474.78 99.9648 474.458 101.501C474.136 103.036 473.699 104.935 473.147 107.196C472.625 109.423 472.054 111.83 471.433 114.418C470.845 117.004 470.289 119.602 469.767 122.214C469.277 124.824 468.902 127.279 468.643 129.58C468.381 131.849 468.315 133.765 468.445 135.328C468.497 135.966 468.715 136.462 469.098 136.815C469.512 137.166 470.022 137.317 470.628 137.267C471.936 137.158 473.255 136.808 474.587 136.216C475.95 135.622 477.272 134.902 478.55 134.058C479.861 133.211 481.088 132.323 482.231 131.393C483.374 130.464 484.394 129.593 485.29 128.78C486.215 127.933 486.962 127.261 487.531 126.764C488.278 126.092 488.795 125.744 489.082 125.72C490.167 125.631 490.752 126.112 490.839 127.164C490.861 127.42 490.585 127.972 490.013 128.822C489.529 129.569 488.838 130.525 487.939 131.691C487.04 132.857 485.987 134.1 484.78 135.421C483.602 136.706 482.323 137.936 480.943 139.11C479.595 140.281 478.232 141.261 476.852 142.049C475.472 142.838 474.145 143.285 472.869 143.391ZM492.618 141.466C490.864 141.612 489.262 141.263 487.811 140.419C486.363 139.608 485.171 138.39 484.234 136.766C483.328 135.139 482.782 133.194 482.594 130.93C482.394 128.506 482.485 126.122 482.869 123.779C483.251 121.403 483.811 119.253 484.551 117.33C485.288 115.374 486.058 113.817 486.861 112.659C487.694 111.466 488.445 110.842 489.115 110.787C489.816 110.729 490.407 110.889 490.888 111.266C491.401 111.641 491.692 112.243 491.76 113.072C491.771 113.2 491.666 113.674 491.445 114.495C491.253 115.282 491 116.298 490.686 117.544C490.369 118.759 490.064 120.116 489.771 121.618C489.475 123.087 489.245 124.583 489.083 126.106C488.952 127.626 488.943 129.071 489.056 130.443C489.194 132.101 489.558 133.403 490.15 134.35C490.743 135.296 491.884 135.699 493.574 135.559C495.296 135.417 496.929 134.784 498.474 133.661C500.05 132.535 501.535 131.079 502.929 129.294C504.32 127.477 505.631 125.474 506.862 123.285C505.215 123.55 503.657 123.743 502.19 123.865C501.202 123.946 500.476 123.91 500.014 123.756C499.549 123.57 499.238 123.306 499.082 122.966C498.957 122.623 498.875 122.213 498.835 121.734C498.78 121.064 499.032 120.433 499.593 119.841C500.155 119.249 500.8 118.906 501.531 118.814C502.895 118.605 504.273 118.378 505.665 118.134C507.09 117.888 508.497 117.627 509.887 117.351C510.784 115.383 511.602 113.436 512.342 111.513C513.111 109.555 513.809 107.715 514.437 105.993C514.999 103.859 515.622 101.881 516.306 100.059C517.019 98.2015 517.73 96.6977 518.437 95.5474C519.145 94.3971 519.849 93.7929 520.551 93.7349C521.38 93.6662 522.02 93.838 522.472 94.2501C522.955 94.6596 523.227 95.2311 523.288 95.9646C523.307 96.1878 523.201 96.8548 522.972 97.9655C522.743 99.0762 522.413 100.516 521.981 102.286C521.582 104.053 521.121 106.05 520.599 108.276C520.106 110.469 519.576 112.792 519.009 115.247C521.996 114.486 524.714 113.764 527.162 113.079C529.641 112.392 531.665 111.823 533.233 111.373C534.802 110.922 535.745 110.683 536.064 110.657C536.702 110.604 537.253 110.863 537.718 111.435C538.18 111.974 538.433 112.515 538.478 113.058C538.505 113.376 537.949 113.84 536.811 114.448C535.706 115.053 534.173 115.742 532.214 116.514C530.285 117.252 528.069 118.029 525.568 118.847C523.096 119.629 520.491 120.359 517.754 121.035C517.197 123.617 516.668 126.15 516.167 128.632C515.696 131.079 515.305 133.343 514.996 135.423C514.846 136.335 514.536 137.051 514.066 137.571C513.624 138.058 512.989 138.335 512.16 138.404C511.299 138.475 510.644 138.32 510.195 137.94C509.749 137.592 509.483 136.907 509.399 135.887C509.391 135.791 509.443 135.257 509.555 134.284C509.697 133.277 509.867 132.043 510.067 130.582C510.297 129.086 510.508 127.559 510.7 126.002C509.035 128.773 507.237 131.298 505.306 133.577C503.376 135.856 501.345 137.694 499.212 139.09C497.08 140.487 494.882 141.279 492.618 141.466ZM489.942 107.395C488.889 107.482 488.002 107.235 487.279 106.652C486.554 106.038 486.155 105.284 486.081 104.391C485.991 103.307 486.313 102.349 487.047 101.518C487.813 100.684 488.754 100.221 489.87 100.128C491.114 100.025 492.082 100.282 492.775 100.899C493.5 101.513 493.909 102.379 494.002 103.495C494.068 104.292 493.719 105.124 492.956 105.99C492.19 106.824 491.185 107.292 489.942 107.395ZM534.74 153.119C532.954 153.266 531.318 153.289 529.833 153.188C528.35 153.118 526.889 152.918 525.448 152.587C524.008 152.257 522.445 151.793 520.757 151.194C520.061 150.93 519.475 150.642 519 150.328C518.524 150.014 518.258 149.506 518.2 148.805C518.115 147.784 518.369 146.976 518.962 146.381C519.526 145.821 520.35 145.496 521.434 145.406C522.008 145.359 522.758 145.489 523.682 145.798C524.609 146.139 525.668 146.517 526.859 146.932C528.083 147.376 529.429 147.73 530.896 147.994C532.365 148.29 533.929 148.369 535.588 148.232C537.278 148.092 538.798 147.26 540.149 145.735C541.5 144.21 542.516 142.135 543.198 139.51C543.914 136.914 544.13 133.894 543.844 130.45C543.778 129.653 543.691 128.793 543.583 127.871C543.472 126.917 543.357 125.915 543.238 124.865C542.269 127.129 541.193 129.257 540.009 131.249C538.826 133.242 537.565 134.887 536.228 136.186C534.92 137.45 533.548 138.142 532.113 138.261C530.359 138.406 529.049 138.097 528.183 137.334C527.346 136.536 526.852 135.212 526.698 133.363C526.569 131.8 526.539 130.085 526.609 128.217C526.709 126.314 526.887 124.389 527.143 122.441C527.399 120.493 527.727 118.636 528.126 116.869C528.555 115.067 529.036 113.502 529.568 112.174C529.97 111.209 530.665 110.686 531.653 110.604C532.291 110.551 532.954 110.802 533.642 111.355C534.362 111.905 534.764 112.691 534.849 113.711C534.896 114.285 534.821 115.126 534.624 116.234C534.427 117.342 534.178 118.599 533.877 120.005C533.605 121.376 533.324 122.828 533.033 124.361C532.74 125.863 532.509 127.343 532.341 128.802C532.17 130.229 532.133 131.516 532.228 132.664C532.238 132.792 532.339 132.848 532.53 132.832C532.913 132.8 533.397 132.439 533.982 131.748C534.596 131.023 535.258 130.101 535.969 128.983C536.708 127.83 537.439 126.581 538.163 125.237C538.916 123.858 539.638 122.498 540.33 121.156C541.021 119.815 541.642 118.591 542.193 117.486C542.055 116.984 541.955 116.543 541.891 116.163C541.857 115.748 541.828 115.397 541.804 115.11C541.696 113.803 541.829 112.7 542.204 111.802C542.611 110.901 543.5 110.394 544.872 110.281C545.765 110.207 546.478 110.485 547.012 111.115C547.543 111.713 547.857 112.602 547.955 113.782C547.997 114.292 547.967 114.889 547.863 115.572C547.756 116.223 547.521 117.27 547.159 118.713L547.563 117.186C548.087 120.032 548.538 122.564 548.914 124.78C549.322 126.994 549.617 129.201 549.799 131.402C550.143 135.548 549.738 139.194 548.586 142.339C547.468 145.514 545.718 148.035 543.336 149.902C540.986 151.767 538.12 152.839 534.74 153.119ZM604.304 105.825C604.336 106.208 604.236 106.553 604.005 106.862C603.774 107.17 603.473 107.419 603.104 107.611C602.58 107.879 601.663 108.244 600.353 108.705C599.042 109.167 597.449 109.7 595.572 110.305C593.728 110.907 591.741 111.537 589.612 112.195C587.48 112.821 585.347 113.431 583.213 114.026C582.637 117.156 582.054 120.383 581.462 123.707C580.868 126.999 580.269 130.244 579.667 133.44C579.441 134.583 579.128 135.46 578.729 136.071C578.333 136.714 577.592 137.08 576.508 137.17C575.328 137.268 574.499 136.951 574.021 136.22C573.578 135.518 573.447 134.517 573.628 133.218C574.169 129.673 574.667 126.373 575.12 123.317C575.605 120.259 575.995 117.786 576.288 115.899C574.401 116.377 572.748 116.77 571.329 117.081C569.907 117.359 568.892 117.507 568.283 117.525C567.608 117.517 567.027 117.292 566.541 116.851C566.055 116.409 565.799 115.837 565.773 115.132C565.784 114.489 566.026 113.923 566.499 113.435C566.97 112.914 567.552 112.577 568.246 112.423C569.227 112.246 570.49 111.996 572.037 111.676C573.584 111.355 575.288 110.989 577.148 110.578C577.428 108.918 577.768 107.204 578.167 105.437C578.564 103.638 578.984 101.917 579.426 100.275C579.897 98.5986 580.353 97.132 580.795 95.8752C581.237 94.6185 581.659 93.7006 582.06 93.1215C582.377 92.6778 582.781 92.3233 583.273 92.0578C583.796 91.7897 584.313 91.6345 584.824 91.5922C585.493 91.5368 586.055 91.7311 586.509 92.1751C586.964 92.6192 587.217 93.1601 587.27 93.7979C587.291 94.053 587.298 94.3254 587.289 94.6151C587.279 94.8729 587.236 95.1333 587.161 95.3963C586.688 97.041 586.194 99.0245 585.679 101.347C585.197 103.667 584.701 106.212 584.192 108.984C586.555 108.435 588.87 107.89 591.137 107.349C593.434 106.774 595.509 106.249 597.365 105.774C599.249 105.265 600.755 104.835 601.882 104.485C602.501 104.209 603.047 104.212 603.52 104.494C603.99 104.744 604.252 105.188 604.304 105.825ZM597.241 131.801C596.443 131.867 595.734 131.637 595.112 131.11C594.523 130.581 594.183 129.774 594.093 128.69C594.054 128.212 594.053 127.425 594.091 126.33C594.158 125.201 594.243 123.909 594.348 122.456C594.484 120.999 594.599 119.481 594.693 117.9C594.819 116.316 594.903 114.816 594.947 113.399C595.022 111.98 595.05 110.774 595.032 109.78C594.996 108.563 595.243 107.675 595.775 107.118C596.304 106.528 596.967 106.2 597.765 106.134C598.402 106.081 598.99 106.193 599.526 106.47C600.092 106.712 600.479 107.306 600.685 108.252C600.921 109.164 601.048 110.502 601.066 112.267C602.258 109.599 603.488 107.201 604.757 105.073C606.058 102.943 607.456 101.222 608.953 99.9096C611.434 97.6813 613.742 96.4787 615.879 96.3018C617.091 96.2015 617.911 96.4065 618.338 96.917C618.766 97.4275 619.003 97.9697 619.051 98.5438C619.083 98.9264 619.016 99.2852 618.851 99.6199C618.718 99.952 618.395 100.316 617.882 100.712C617.369 101.107 616.578 101.638 615.509 102.305C614.074 103.194 612.674 104.322 611.31 105.687C609.978 107.049 608.675 108.763 607.401 110.827C606.127 112.891 604.874 115.403 603.642 118.363C602.41 121.323 601.175 124.828 599.937 128.88C599.74 129.988 599.385 130.74 598.871 131.136C598.39 131.529 597.847 131.751 597.241 131.801ZM615.809 130.978C614.789 131.062 613.84 130.852 612.964 130.346C612.09 129.873 611.376 129.21 610.824 128.356C610.269 127.471 609.948 126.502 609.861 125.45C609.697 123.473 609.968 121.508 610.673 119.555C611.411 117.599 612.427 115.717 613.722 113.908C615.017 112.099 616.452 110.423 618.026 108.88C619.629 107.302 621.233 105.933 622.839 104.772C624.477 103.609 625.973 102.683 627.329 101.992C628.717 101.3 629.809 100.92 630.606 100.854C631.531 100.778 632.298 100.923 632.906 101.29C633.544 101.622 633.897 102.203 633.965 103.032C633.987 103.288 633.94 103.5 633.826 103.67C634.248 103.731 634.603 103.943 634.89 104.305C635.176 104.666 635.351 105.23 635.415 105.995C635.441 106.314 635.43 107.15 635.382 108.502C635.333 109.855 635.292 111.496 635.259 113.425C635.258 115.352 635.344 117.352 635.515 119.424C635.542 119.743 635.613 120.026 635.73 120.274C635.844 120.489 636.061 120.583 636.38 120.557C637.655 120.451 638.926 120.089 640.191 119.471C641.486 118.818 642.723 118.057 643.903 117.189C645.113 116.286 646.196 115.409 647.154 114.56C648.14 113.675 648.963 112.949 649.622 112.38C650.311 111.778 650.767 111.467 650.99 111.448C652.074 111.359 652.661 111.856 652.751 112.94C652.775 113.227 652.474 113.862 651.849 114.845C651.253 115.793 650.414 116.906 649.332 118.184C648.247 119.43 647.019 120.688 645.647 121.957C644.304 123.192 642.882 124.241 641.38 125.104C639.91 125.964 638.457 126.454 637.022 126.572C635.268 126.718 633.895 126.414 632.901 125.661C631.939 124.906 631.209 123.843 630.71 122.471C630.241 121.065 629.916 119.471 629.736 117.687C628.303 120.15 626.784 122.363 625.181 124.326C623.606 126.254 622.018 127.815 620.415 129.007C618.811 130.199 617.276 130.856 615.809 130.978ZM630.759 105.61C627.758 107.367 625.094 109.322 622.768 111.473C620.439 113.593 618.628 115.765 617.335 117.992C616.074 120.215 615.524 122.3 615.685 124.245C615.73 124.787 616.008 125.037 616.518 124.995C617.124 124.945 617.892 124.528 618.823 123.745C619.785 122.958 620.809 121.942 621.894 120.697C622.976 119.419 624.048 118.014 625.109 116.481C626.167 114.916 627.144 113.326 628.037 111.711C628.931 110.096 629.623 108.562 630.113 107.108C630.294 106.579 630.509 106.08 630.759 105.61ZM653.881 128.115C652.127 128.26 650.524 127.911 649.074 127.068C647.626 126.256 646.433 125.039 645.496 123.414C644.591 121.788 644.045 119.842 643.857 117.578C643.656 115.154 643.748 112.77 644.132 110.427C644.513 108.051 645.074 105.902 645.814 103.978C646.551 102.023 647.321 100.466 648.124 99.3075C648.957 98.1147 649.708 97.4906 650.377 97.4352C651.079 97.3771 651.67 97.5368 652.151 97.9144C652.664 98.2894 652.954 98.8915 653.023 99.7207C653.033 99.8482 652.928 100.323 652.707 101.144C652.515 101.93 652.262 102.946 651.948 104.193C651.631 105.407 651.326 106.765 651.033 108.266C650.737 109.735 650.508 111.231 650.345 112.754C650.214 114.274 650.205 115.72 650.319 117.091C650.456 118.749 650.821 120.052 651.413 120.998C652.005 121.944 653.146 122.348 654.837 122.208C656.559 122.065 658.192 121.432 659.737 120.309C661.313 119.183 662.798 117.727 664.191 115.942C665.582 114.125 666.893 112.122 668.125 109.933C666.477 110.198 664.92 110.391 663.453 110.513C662.464 110.595 661.739 110.558 661.277 110.404C660.812 110.218 660.501 109.955 660.344 109.614C660.219 109.271 660.137 108.861 660.098 108.382C660.042 107.713 660.295 107.082 660.856 106.489C661.417 105.897 662.063 105.555 662.794 105.462C664.157 105.253 665.535 105.026 666.928 104.783C668.353 104.536 669.76 104.275 671.15 104C672.046 102.031 672.865 100.085 673.604 98.1611C674.373 96.203 675.072 94.363 675.7 92.6414C676.262 90.5077 676.885 88.5296 677.569 86.7069C678.282 84.8497 678.992 83.346 679.7 82.1957C680.407 81.0454 681.112 80.4412 681.813 80.3831C682.643 80.3145 683.283 80.4862 683.735 80.8984C684.218 81.3079 684.49 81.8794 684.551 82.6129C684.569 82.8361 684.464 83.5031 684.235 84.6138C684.006 85.7244 683.675 87.1646 683.244 88.9342C682.844 90.7012 682.384 92.6981 681.862 94.9247C681.369 97.1169 680.839 99.4405 680.271 101.896C683.259 101.135 685.976 100.412 688.424 99.7276C690.904 99.0407 692.928 98.4717 694.496 98.0208C696.064 97.5699 697.008 97.3312 697.327 97.3048C697.964 97.252 698.516 97.5114 698.98 98.083C699.443 98.6227 699.696 99.1636 699.741 99.7058C699.767 100.025 699.212 100.488 698.074 101.096C696.968 101.701 695.436 102.39 693.477 103.162C691.547 103.9 689.332 104.678 686.831 105.495C684.359 106.277 681.754 107.007 679.017 107.683C678.46 110.266 677.931 112.798 677.43 115.28C676.958 117.727 676.568 119.991 676.258 122.072C676.109 122.983 675.799 123.699 675.328 124.22C674.887 124.706 674.252 124.983 673.423 125.052C672.562 125.123 671.907 124.969 671.458 124.588C671.011 124.24 670.746 123.556 670.662 122.535C670.654 122.439 670.706 121.905 670.818 120.933C670.959 119.926 671.13 118.691 671.33 117.23C671.559 115.734 671.77 114.207 671.962 112.65C670.297 115.421 668.499 117.946 666.569 120.225C664.638 122.504 662.607 124.342 660.475 125.738C658.343 127.135 656.145 127.927 653.881 128.115ZM651.204 94.0434C650.152 94.1305 649.264 93.8829 648.542 93.3005C647.817 92.6862 647.417 91.9326 647.343 91.0397C647.253 89.9554 647.576 88.9976 648.309 88.1662C649.075 87.3321 650.016 86.8689 651.132 86.7765C652.376 86.6735 653.345 86.9305 654.038 87.5474C654.763 88.1616 655.172 89.0269 655.264 90.143C655.33 90.9403 654.982 91.7719 654.219 92.6378C653.453 93.4719 652.448 93.9404 651.204 94.0434Z" fill="#588DCA"/>
</svg>
