<svg width="523" height="322" viewBox="0 0 523 322" fill="none" xmlns="http://www.w3.org/2000/svg">
<path d="M19.4046 177.531C17.4967 178.075 15.7694 177.852 14.2226 176.862C12.667 175.842 11.4634 173.839 10.6119 170.855C10.0676 168.947 9.73875 166.977 9.6253 164.946C9.53383 162.876 9.64235 160.865 9.95083 158.914C10.2813 156.923 10.7919 155.097 11.4827 153.435C12.2043 151.765 13.1169 150.357 14.2207 149.21C15.3156 148.033 16.5709 147.242 17.9864 146.838C20.3867 146.153 22.4481 146.264 24.1708 147.17C25.8935 148.076 27.0401 149.53 27.6107 151.53C28.0497 153.068 28.0183 154.592 27.5166 156.099C27.0368 157.567 26.2143 159 25.0489 160.397C23.8835 161.794 22.5225 163.147 20.966 164.457C19.4094 165.766 17.7848 167.011 16.092 168.193C16.2542 169.345 16.4582 170.351 16.7039 171.213C16.8532 171.736 17.2201 171.914 17.8048 171.748C19.1896 171.353 20.6052 170.716 22.0517 169.837C23.5202 168.919 24.9689 167.874 26.398 166.701C27.8182 165.497 29.1725 164.295 30.4609 163.096C31.7405 161.865 32.8948 160.721 33.9238 159.662C34.9748 158.564 35.8389 157.685 36.516 157.026C37.2152 156.327 37.6879 155.943 37.9341 155.872C38.6111 155.679 39.1605 155.739 39.5823 156.051C40.0042 156.363 40.2809 156.75 40.4126 157.212C40.4741 157.427 40.1947 158.023 39.5745 158.998C38.9851 159.965 38.1275 161.158 37.0017 162.577C35.8978 163.957 34.6225 165.436 33.1757 167.013C31.751 168.551 30.2361 170.065 28.6311 171.554C27.0481 173.004 25.4586 174.256 23.8626 175.31C22.3061 176.387 20.8202 177.127 19.4046 177.531ZM15.7048 163.861C16.7558 162.763 17.7826 161.638 18.7852 160.487C19.8099 159.296 20.5928 158.074 21.1339 156.822C21.6663 155.538 21.735 154.204 21.34 152.82C21.2258 152.42 21.0435 152.189 20.793 152.127C20.5337 152.035 20.204 152.046 19.804 152.16C18.727 152.467 17.8783 153.225 17.258 154.433C16.6686 155.633 16.2504 157.083 16.0035 158.784C15.7787 160.446 15.6791 162.138 15.7048 163.861ZM38.2792 169.451C37.5407 169.661 36.9319 169.569 36.453 169.173C35.9652 168.746 35.6424 168.14 35.4845 167.353C35.3924 166.913 35.5553 166.201 35.9733 165.217C36.3825 164.202 36.9522 162.991 37.6824 161.585C38.4039 160.148 39.2111 158.603 40.1041 156.951C41.019 155.259 41.9604 153.543 42.9281 151.802C40.5246 149.793 38.6769 148.157 37.3851 146.895C36.1241 145.624 35.34 144.566 35.0326 143.722C34.6989 142.786 34.6333 141.973 34.8358 141.283C35.0691 140.584 35.6165 140.112 36.4781 139.866C36.9705 139.725 37.5441 139.811 38.1989 140.124C38.8845 140.427 39.8182 141.076 41.0002 142.07C42.213 143.055 43.8476 144.469 45.9039 146.311C47.4215 143.582 48.6685 141.363 49.6451 139.654C50.6436 137.905 51.4529 136.542 52.0731 135.567C52.724 134.582 53.2408 133.886 53.6233 133.477C54.0367 133.06 54.4126 132.803 54.7511 132.706C55.4896 132.496 56.0874 132.608 56.5444 133.043C57.0233 133.439 57.3461 134.046 57.5128 134.863C57.6356 135.527 57.4748 136.422 57.0304 137.547C56.608 138.632 56.0119 139.867 55.2421 141.251C54.4636 142.605 53.6058 144.031 52.669 145.529C51.7541 146.988 50.8656 148.423 50.0035 149.834C52.6839 151.998 55.1447 153.858 57.3858 155.415C59.6488 156.932 61.4922 158.203 62.916 159.228C64.3309 160.222 65.1416 161.022 65.3479 161.629C65.5938 162.258 65.5694 162.814 65.2747 163.297C65.0108 163.772 64.525 164.11 63.8172 164.312C63.4171 164.426 62.8853 164.428 62.2216 164.318C61.5579 164.208 60.6108 163.862 59.3803 163.281C58.1806 162.692 56.581 161.751 54.5815 160.458C52.6041 159.125 50.0862 157.297 47.0278 154.975C46.1349 156.628 45.2419 158.28 44.3489 159.932C43.4867 161.576 42.6598 163.11 41.868 164.534C41.0982 165.918 40.3944 167.067 39.7567 167.981C39.141 168.855 38.6485 169.345 38.2792 169.451ZM74.4349 161.532C72.7117 162.024 71.1051 162.05 69.6152 161.61C68.1341 161.2 66.8794 160.477 65.8513 159.439C64.8144 158.37 64.1072 157.174 63.7297 155.851C63.0977 153.636 62.8524 151.493 62.9939 149.422C63.1266 147.321 63.5274 145.344 64.1963 143.489C64.8564 141.604 65.6615 139.876 66.6116 138.308C67.5924 136.73 68.5842 135.366 69.5868 134.214C70.6115 133.024 71.5591 132.088 72.4297 131.407C73.2915 130.695 73.9532 130.273 74.4148 130.142C75.2456 129.905 75.883 129.922 76.3268 130.195C76.7927 130.428 77.1397 130.945 77.3679 131.745C77.4996 132.207 77.3191 132.857 76.8265 133.696C76.3646 134.527 75.7137 135.511 74.8737 136.649C74.0644 137.779 73.2244 139.033 72.3535 140.413C71.4826 141.793 70.693 143.283 69.9847 144.882C69.3071 146.473 68.8493 148.135 68.6112 149.866C68.4039 151.589 68.5592 153.359 69.0772 155.174C69.2703 155.851 69.5426 156.339 69.8941 156.638C70.2764 156.929 70.7753 156.986 71.3908 156.81C73.1448 156.31 74.9341 155.467 76.7587 154.281C78.6054 153.055 80.3927 151.68 82.1208 150.155C83.8709 148.591 85.489 147.032 86.9754 145.476C88.4925 143.912 89.7787 142.53 90.8342 141.331C91.2519 140.812 91.6147 140.392 91.9226 140.072C92.2304 139.751 92.4612 139.569 92.6151 139.525C93.5383 139.261 94.1359 139.607 94.408 140.561C94.5485 141.053 94.368 141.82 93.8665 142.861C93.3121 144.184 92.4587 145.626 91.3065 147.186C90.185 148.737 88.8811 150.29 87.3947 151.846C85.9392 153.392 84.4068 154.844 82.7974 156.202C81.2189 157.551 79.6998 158.699 78.24 159.648C76.7803 160.597 75.512 161.225 74.4349 161.532ZM94.1792 158.396C92.7636 158.799 91.634 158.689 90.7903 158.065C89.9466 157.44 89.3053 156.359 88.8664 154.82C88.4626 153.404 88.1975 151.483 88.071 149.057C87.9665 146.591 87.9566 143.815 88.0414 140.73C88.1482 137.604 88.3407 134.372 88.619 131.031C88.8885 127.66 89.2217 124.337 89.6186 121.062C90.0068 117.757 90.4344 114.707 90.9015 111.911C91.1481 110.676 91.5221 109.771 92.0235 109.196C92.5248 108.62 93.1447 108.227 93.8833 108.016C94.591 107.814 95.2481 107.843 95.8546 108.103C96.4523 108.331 96.8697 108.861 97.1067 109.692C97.1594 109.877 97.1151 110.655 96.9739 112.026C96.8239 113.367 96.6254 115.12 96.3783 117.287C96.1225 119.423 95.86 121.828 95.5908 124.5C95.3128 127.142 95.0655 129.891 94.849 132.748C94.6236 135.574 94.4818 138.343 94.4236 141.055C94.3653 143.767 94.4083 146.251 94.5524 148.506C95.2169 146.752 95.9143 144.823 96.6449 142.718C97.3974 140.573 98.1697 138.439 98.9617 136.317C99.7758 134.154 100.603 132.155 101.443 130.318C102.314 128.472 103.176 126.945 104.03 125.736C104.883 124.528 105.725 123.805 106.556 123.568C108.094 123.129 109.448 123.209 110.617 123.807C111.808 124.366 112.698 125.676 113.286 127.738C113.558 128.692 113.703 129.899 113.72 131.358C113.728 132.786 113.681 134.314 113.579 135.94C113.499 137.527 113.468 139.05 113.485 140.509C113.502 141.969 113.655 143.206 113.945 144.222C114.103 144.775 114.444 144.978 114.967 144.829C116.475 144.398 117.906 143.641 119.26 142.556C120.645 141.462 121.909 140.236 123.053 138.878C124.218 137.481 125.249 136.138 126.147 134.851C127.066 133.524 127.802 132.432 128.357 131.575C128.739 130.933 129.124 130.474 129.511 130.197C129.889 129.89 130.263 129.683 130.632 129.578C131.894 129.218 132.705 129.669 133.065 130.931C133.135 131.177 133.176 131.498 133.189 131.893C133.194 132.258 133.024 132.772 132.681 133.436C132.338 134.1 131.81 135.049 131.098 136.284C130.385 137.518 129.521 138.863 128.505 140.318C127.52 141.763 126.398 143.198 125.14 144.622C123.905 146.006 122.575 147.234 121.15 148.306C119.725 149.378 118.259 150.129 116.751 150.559C114.474 151.208 112.536 151.063 110.936 150.121C109.345 149.211 108.238 147.663 107.615 145.478C107.185 143.97 106.953 141.99 106.919 139.537C106.876 137.054 106.896 134.502 106.981 131.883C106.202 133.236 105.435 134.803 104.678 136.583C103.912 138.332 103.158 140.178 102.414 142.12C101.662 144.032 100.92 145.924 100.19 147.796C99.4816 149.629 98.7842 151.325 98.0978 152.885C97.4027 154.415 96.7297 155.671 96.0787 156.656C95.4278 157.64 94.7946 158.22 94.1792 158.396ZM131.323 144.106C129.384 144.659 127.802 144.478 126.576 143.563C125.372 142.609 124.507 141.209 123.98 139.362C123.48 137.608 123.381 135.806 123.686 133.956C123.981 132.074 124.56 130.196 125.422 128.319C126.284 126.442 127.331 124.63 128.563 122.881C129.785 121.101 131.063 119.456 132.395 117.944C133.75 116.393 135.076 115.033 136.373 113.864C137.661 112.665 138.802 111.707 139.796 110.991C140.789 110.275 141.532 109.847 142.025 109.706C142.548 109.557 143.018 109.573 143.436 109.753C143.875 109.894 144.2 110.334 144.411 111.072C144.631 111.841 144.52 112.622 144.08 113.413C143.641 114.204 143.036 114.942 142.266 115.627C141.18 116.603 139.964 117.765 138.619 119.114C137.295 120.423 135.991 121.86 134.707 123.424C133.423 124.988 132.284 126.594 131.29 128.242C130.327 129.881 129.627 131.512 129.191 133.134C128.747 134.725 128.726 136.228 129.13 137.643C129.218 137.951 129.35 138.18 129.525 138.329C129.701 138.479 129.989 138.497 130.389 138.382C130.912 138.233 131.534 137.79 132.256 137.051C132.968 136.282 133.713 135.338 134.492 134.217C135.262 133.066 136.009 131.838 136.735 130.532C137.452 129.196 138.092 127.882 138.655 126.59C139.241 125.259 139.694 124.048 140.015 122.958C140.244 122.127 140.585 121.398 141.038 120.769C141.522 120.132 142.087 119.722 142.733 119.537C143.256 119.388 143.731 119.419 144.157 119.63C144.605 119.802 144.935 120.257 145.145 120.995C145.216 121.241 145.367 121.831 145.6 122.763C145.823 123.664 146.089 124.769 146.396 126.079C146.725 127.35 147.087 128.677 147.482 130.062C147.825 131.262 148.231 132.278 148.701 133.109C149.193 133.9 149.824 134.186 150.593 133.967C151.516 133.703 152.378 133.108 153.178 132.181C153.97 131.223 154.682 130.105 155.316 128.826C155.971 127.507 156.532 126.149 156.999 124.752C157.465 123.354 157.826 122.053 158.082 120.849C158.359 119.605 158.529 118.625 158.59 117.909C158.218 115.086 158.135 112.814 158.343 111.091C158.541 109.337 158.933 108.028 159.518 107.162C160.134 106.287 160.811 105.745 161.549 105.534C162.38 105.297 163.13 105.3 163.798 105.542C164.496 105.775 165.057 106.63 165.478 108.107C165.697 108.876 165.703 110.123 165.496 111.846C165.289 113.568 164.91 115.507 164.36 117.66C164.509 119.115 164.763 120.59 165.123 122.085C165.483 123.579 165.97 124.938 166.585 126.16C167.249 125.338 167.849 124.235 168.386 122.851C168.914 121.436 169.407 119.898 169.865 118.236C170.314 116.544 170.763 114.852 171.212 113.16C171.652 111.437 172.112 109.842 172.592 108.374C173.102 106.897 173.652 105.675 174.242 104.709C174.853 103.702 175.559 103.085 176.359 102.857C177.19 102.62 177.988 102.558 178.752 102.673C179.539 102.748 180.282 103.135 180.98 103.834C181.701 104.494 182.4 105.543 183.076 106.98C183.774 108.378 184.466 110.277 185.15 112.678C185.51 113.939 185.985 115.135 186.573 116.265C187.153 117.364 187.845 118.215 188.649 118.818C189.444 119.389 190.365 119.526 191.411 119.227C193.104 118.745 194.533 118.038 195.698 117.106C196.854 116.144 197.815 115.138 198.58 114.088C199.346 113.037 199.972 112.143 200.461 111.405C200.971 110.627 201.411 110.185 201.78 110.08C202.395 109.905 202.91 109.958 203.323 110.239C203.758 110.481 204.05 110.863 204.199 111.387C204.287 111.694 204.179 112.307 203.875 113.226C203.594 114.105 203.138 115.133 202.509 116.311C201.902 117.449 201.137 118.616 200.213 119.811C199.312 120.967 198.294 122.006 197.159 122.929C196.025 123.851 194.796 124.501 193.473 124.879C191.073 125.563 188.965 125.699 187.15 125.285C185.356 124.831 183.781 123.684 182.424 121.841C181.088 119.959 179.916 117.249 178.906 113.71C178.845 113.495 178.788 113.295 178.735 113.11C178.682 112.926 178.63 112.741 178.577 112.556C178.358 111.787 178.153 111.13 177.965 110.585C177.807 110.031 177.607 109.622 177.365 109.358C177.11 110.329 176.808 111.547 176.46 113.01C176.143 114.465 175.776 116.034 175.357 117.718C174.939 119.401 174.455 121.086 173.905 122.774C173.385 124.453 172.816 126.013 172.195 127.455C171.575 128.896 170.889 130.107 170.137 131.087C169.415 132.058 168.639 132.662 167.808 132.899C167.193 133.074 166.428 132.96 165.514 132.555C164.631 132.142 163.794 131.482 163.003 130.576C162.203 129.64 161.61 128.494 161.224 127.14C160.375 129.179 159.44 131.093 158.42 132.882C157.39 134.64 156.297 136.116 155.141 137.311C154.024 138.528 152.85 139.312 151.619 139.664C150.604 139.953 149.535 139.942 148.415 139.629C147.325 139.308 146.226 138.49 145.119 137.175C144.012 135.861 142.971 133.845 141.996 131.128C141.068 133.356 140.017 135.386 138.842 137.219C137.699 139.043 136.483 140.554 135.194 141.754C133.937 142.944 132.646 143.728 131.323 144.106ZM207.007 136.691C204.699 137.35 202.896 137.681 201.6 137.685C200.334 137.68 199.406 137.462 198.817 137.031C198.237 136.631 197.868 136.153 197.71 135.6C197.491 134.83 197.557 134.129 197.909 133.496C198.292 132.855 198.898 132.415 199.729 132.178C200.283 132.02 201.105 131.869 202.195 131.725C203.286 131.58 204.354 131.358 205.4 131.06C208.477 130.182 210.805 128.719 212.384 126.672C213.972 124.655 214.913 122.007 215.209 118.728C215.496 115.418 215.21 111.44 214.35 106.794C213.219 110.877 211.66 114.333 209.672 117.163C207.714 119.984 205.351 121.79 202.582 122.58C199.32 123.51 197.232 122.375 196.319 119.175C195.88 117.636 195.835 115.902 196.183 113.973C196.531 112.043 197.16 110.05 198.071 107.994C198.982 105.937 200.057 103.933 201.298 101.982C202.529 99.9998 203.813 98.2026 205.15 96.59C206.518 94.9686 207.833 93.6285 209.095 92.5697C210.348 91.4801 211.421 90.808 212.313 90.5534C213.021 90.3515 213.672 90.299 214.265 90.396C214.889 90.4841 215.46 90.8536 215.979 91.5044C216.488 92.1243 216.941 93.1267 217.336 94.5115C218.433 98.358 219.357 102.121 220.107 105.8C220.848 109.449 221.253 112.911 221.322 116.185C221.391 119.46 220.981 122.455 220.092 125.171C219.234 127.879 217.754 130.214 215.652 132.178C213.55 134.142 210.668 135.647 207.007 136.691ZM201.964 116.566C202.026 116.782 202.149 116.863 202.333 116.81C202.949 116.635 203.688 116.075 204.549 115.13C205.403 114.155 206.271 112.942 207.155 111.492C208.061 110.002 208.902 108.398 209.676 106.68C210.441 104.93 211.055 103.175 211.518 101.412C212.011 99.6411 212.255 97.9907 212.251 96.461C210.915 97.8407 209.56 99.3917 208.188 101.114C206.838 102.797 205.606 104.546 204.494 106.361C203.412 108.167 202.609 109.96 202.085 111.74C201.583 113.481 201.543 115.089 201.964 116.566ZM234.242 116.243C232.334 116.788 230.607 116.565 229.06 115.575C227.504 114.555 226.301 112.552 225.449 109.567C224.905 107.659 224.576 105.69 224.463 103.659C224.371 101.589 224.48 99.578 224.788 97.6265C225.119 95.6355 225.629 93.8094 226.32 92.1481C227.042 90.4781 227.954 89.0697 229.058 87.9229C230.153 86.7454 231.408 85.9547 232.824 85.5509C235.224 84.8662 237.285 84.9769 239.008 85.8831C240.731 86.7893 241.877 88.2425 242.448 90.2427C242.887 91.7813 242.856 93.3043 242.354 94.8118C241.874 96.2797 241.052 97.7123 239.886 99.1096C238.721 100.507 237.36 101.86 235.803 103.169C234.247 104.479 232.622 105.724 230.929 106.906C231.091 108.058 231.295 109.064 231.541 109.926C231.69 110.449 232.057 110.627 232.642 110.46C234.027 110.065 235.443 109.429 236.889 108.55C238.357 107.632 239.806 106.586 241.235 105.413C242.656 104.21 244.01 103.008 245.298 101.808C246.578 100.578 247.732 99.4337 248.761 98.3748C249.812 97.2763 250.676 96.3976 251.353 95.7385C252.053 95.0399 252.525 94.6555 252.771 94.5853C253.448 94.3921 253.998 94.4517 254.42 94.764C254.841 95.0762 255.118 95.4631 255.25 95.9247C255.311 96.1401 255.032 96.7356 254.412 97.7112C253.822 98.6779 252.965 99.871 251.839 101.29C250.735 102.67 249.46 104.149 248.013 105.726C246.588 107.264 245.073 108.778 243.468 110.267C241.885 111.717 240.296 112.969 238.7 114.023C237.143 115.099 235.657 115.84 234.242 116.243ZM230.542 102.574C231.593 101.475 232.62 100.351 233.623 99.1994C234.647 98.0086 235.43 96.7869 235.971 95.5344C236.504 94.2512 236.572 92.9171 236.177 91.5324C236.063 91.1323 235.881 90.9015 235.63 90.8399C235.371 90.7475 235.041 90.7583 234.641 90.8724C233.564 91.1797 232.716 91.9376 232.095 93.1461C231.506 94.3458 231.088 95.7962 230.841 97.4972C230.616 99.1586 230.516 100.851 230.542 102.574ZM274.165 105.703C272.841 106.08 271.85 106.164 271.191 105.952C270.562 105.732 270.147 105.268 269.945 104.561C269.77 103.945 269.836 103.361 270.144 102.807C270.443 102.222 271.265 101.489 272.611 100.606C274.185 99.591 275.644 98.5257 276.99 97.4098C278.357 96.2543 279.415 95.1207 280.163 94.0089C280.941 92.8884 281.199 91.8665 280.935 90.9434C280.76 90.3279 280.417 89.9432 279.907 89.7891C279.428 89.6263 278.912 89.6239 278.358 89.7819C277.896 89.9136 277.241 90.1836 276.393 90.5921C275.566 90.9609 274.661 91.4023 273.676 91.9162C272.682 92.3993 271.715 92.8582 270.774 93.293C269.855 93.6882 269.057 93.9824 268.38 94.1755C266.78 94.632 265.495 94.6161 264.523 94.1278C263.543 93.6087 262.891 92.7799 262.566 91.6413C262.391 91.0259 262.472 90.0875 262.811 88.8261C263.15 87.5647 263.674 86.1342 264.382 84.5345C265.091 82.9348 265.922 81.3 266.877 79.6301C267.831 77.9602 268.832 76.3936 269.878 74.9303C270.947 73.4275 272.005 72.1774 273.051 71.18C274.089 70.1519 275.039 69.5149 275.9 69.2691C276.885 68.9882 277.758 69.0721 278.518 69.5207C279.309 69.9606 279.854 70.7037 280.152 71.7499C280.293 72.2423 280.4 72.794 280.474 73.405C280.54 73.9852 280.454 74.5588 280.217 75.1257C279.97 75.6619 279.489 76.132 278.772 76.5361C278.055 76.9402 277 77.2079 275.607 77.3392C274.78 78.407 273.929 79.5648 273.054 80.8128C272.201 82.0212 271.422 83.2583 270.718 84.5239C270.006 85.7588 269.458 86.9299 269.075 88.0375C270.108 87.3434 271.318 86.6824 272.702 86.0544C274.078 85.3956 275.505 84.8555 276.982 84.4341C278.767 83.925 280.305 83.8355 281.598 84.1657C282.912 84.4563 283.98 85.0502 284.801 85.9472C285.654 86.8355 286.26 87.9104 286.62 89.1721C287.023 90.5876 286.966 92.1348 286.446 93.8137C285.927 95.4926 285.065 97.1362 283.86 98.7444C282.655 100.353 281.215 101.778 279.539 103.022C277.864 104.265 276.073 105.159 274.165 105.703ZM297.733 98.131C295.825 98.6752 294.098 98.4525 292.551 97.4629C290.996 96.4425 289.792 94.4399 288.941 91.4549C288.396 89.547 288.067 87.5777 287.954 85.5469C287.863 83.4766 287.971 81.4657 288.28 79.5142C288.61 77.5231 289.121 75.697 289.811 74.0358C290.533 72.3658 291.446 70.9574 292.549 69.8106C293.644 68.633 294.9 67.8423 296.315 67.4385C298.715 66.7538 300.777 66.8645 302.5 67.7707C304.222 68.6769 305.369 70.1301 305.939 72.1303C306.378 73.6689 306.347 75.192 305.845 76.6994C305.366 78.1673 304.543 79.5999 303.378 80.9972C302.212 82.3946 300.851 83.7478 299.295 85.0571C297.738 86.3663 296.113 87.6118 294.421 88.7935C294.583 89.9452 294.787 90.9518 295.033 91.8135C295.182 92.3366 295.549 92.5148 296.134 92.348C297.518 91.9529 298.934 91.3162 300.38 90.4376C301.849 89.5196 303.298 88.474 304.727 87.301C306.147 86.0972 307.501 84.8956 308.79 83.6961C310.069 82.4659 311.224 81.3213 312.253 80.2624C313.304 79.164 314.168 78.2852 314.845 77.6262C315.544 76.9276 316.017 76.5431 316.263 76.4729C316.94 76.2798 317.489 76.3393 317.911 76.6516C318.333 76.9639 318.61 77.3508 318.741 77.8124C318.803 78.0278 318.523 78.6232 317.903 79.5988C317.314 80.5656 316.456 81.7586 315.33 83.1779C314.227 84.5577 312.951 86.0362 311.504 87.6137C310.08 89.1515 308.565 90.6652 306.96 92.1546C305.377 93.6045 303.787 94.8565 302.191 95.9108C300.635 96.9871 299.149 97.7271 297.733 98.131ZM294.033 84.4615C295.084 83.3631 296.111 82.2382 297.114 81.087C298.139 79.8962 298.921 78.6746 299.463 77.4221C299.995 76.1388 300.064 74.8048 299.669 73.42C299.555 73.02 299.372 72.7891 299.122 72.7275C298.862 72.6351 298.533 72.6459 298.133 72.7601C297.056 73.0673 296.207 73.8252 295.587 75.0337C294.997 76.2335 294.579 77.6838 294.332 79.3848C294.107 81.0462 294.008 82.7385 294.033 84.4615ZM355.615 78.7738C355.904 80.4881 355.157 81.5999 353.372 82.1091C352.449 82.3724 351.631 82.3062 350.919 81.9103C350.238 81.5056 349.748 80.7801 349.45 79.7339C348.941 77.9491 348.473 76.0192 348.048 73.9444C347.644 71.83 347.267 69.6914 346.916 67.5286C346.596 65.3571 346.287 63.2823 345.989 61.3042C345.338 63.2204 344.638 65.2003 343.89 67.2439C343.142 69.2875 342.381 71.285 341.606 73.2363C340.832 75.1876 340.06 76.9718 339.29 78.5891C338.542 80.1668 337.816 81.472 337.113 82.5046C336.4 83.5065 335.736 84.0952 335.121 84.2708C333.644 84.6922 332.213 84.518 330.829 83.7482C329.436 82.9476 328.498 81.7011 328.015 80.0086C327.848 79.424 327.686 78.6217 327.528 77.6019C327.361 76.5513 327.208 75.4303 327.068 74.2391C326.928 73.0479 326.774 71.9269 326.608 70.8763C326.441 69.8257 326.274 69.0081 326.108 68.4234C326.108 68.4234 326.099 68.3926 326.081 68.3311C326.068 68.1685 326.015 68.1003 325.923 68.1266C325.8 68.1617 325.58 68.6737 325.263 69.6626C324.937 70.6207 324.559 71.8601 324.127 73.3808C323.696 74.9014 323.236 76.4968 322.748 78.1669C322.29 79.8283 321.852 81.3841 321.434 82.8345C321.046 84.2761 320.703 85.4056 320.404 86.223C320.025 87.4624 319.583 88.304 319.077 88.7477C318.572 89.1915 317.934 89.5231 317.165 89.7425C316.088 90.0498 315.141 89.9373 314.323 89.4051C313.528 88.8334 312.942 87.8859 312.564 86.5627C312.406 86.0088 312.253 85.1208 312.104 83.8988C311.985 82.668 311.878 81.3009 311.782 79.7976C311.677 78.2635 311.586 76.7756 311.507 75.3338C311.451 73.8525 311.409 72.5998 311.383 71.5756C311.3 70.2349 311.435 69.2482 311.787 68.6154C312.161 67.943 312.748 67.4927 313.548 67.2645C315.425 66.729 316.627 67.3844 317.153 69.2307C317.25 69.5692 317.3 70.1539 317.304 70.9846C317.308 71.8154 317.301 72.7824 317.283 73.8857C317.265 74.9889 317.241 76.1274 317.21 77.301C317.169 78.4438 317.173 79.5075 317.221 80.4921C317.591 78.989 317.996 77.376 318.437 75.6531C318.877 73.9303 319.341 72.2338 319.83 70.5637C320.349 68.8848 320.888 67.3334 321.447 65.9095C322.037 64.4768 322.681 63.2946 323.38 62.363C324.071 61.4007 324.816 60.8054 325.616 60.5772C326.416 60.3489 327.284 60.4174 328.22 60.7826C329.148 61.1171 329.985 61.6603 330.732 62.4122C331.501 63.1246 332.026 63.9731 332.307 64.9579C332.57 65.881 332.763 67.0239 332.885 68.3866C333.008 69.7493 333.117 71.1823 333.213 72.6856C333.309 74.1889 333.489 75.6351 333.752 77.0242C334.465 75.5564 335.195 73.9171 335.943 72.1065C336.682 70.2651 337.439 68.3687 338.214 66.4174C338.988 64.4661 339.745 62.5697 340.484 60.7283C341.254 58.8781 341.971 57.1927 342.636 55.6721C343.331 54.1427 343.977 52.9101 344.575 51.9741C345.165 51.0073 345.675 50.4624 346.106 50.3395C347.367 49.9796 348.449 50.0372 349.35 50.5123C350.273 50.9478 350.967 51.9811 351.432 53.612C351.722 54.6275 352.022 55.9726 352.334 57.6475C352.676 59.3135 352.996 61.1356 353.294 63.1137C353.614 65.0523 353.912 67.0304 354.188 69.0481C354.486 71.0262 354.76 72.8614 355.01 74.5538C355.26 76.2462 355.462 77.6528 355.615 78.7738ZM368.174 78.0362C366.266 78.5805 364.539 78.3578 362.992 77.3682C361.436 76.3478 360.233 74.3451 359.381 71.3602C358.837 69.4523 358.508 67.483 358.394 65.4522C358.303 63.3819 358.412 61.3709 358.72 59.4194C359.05 57.4284 359.561 55.6023 360.252 53.941C360.973 52.271 361.886 50.8626 362.99 49.7158C364.085 48.5383 365.34 47.7476 366.756 47.3438C369.156 46.6591 371.217 46.7698 372.94 47.676C374.663 48.5822 375.809 50.0354 376.38 52.0356C376.819 53.5742 376.787 55.0972 376.286 56.6047C375.806 58.0726 374.983 59.5052 373.818 60.9025C372.653 62.2998 371.292 63.6531 369.735 64.9623C368.179 66.2716 366.554 67.517 364.861 68.6987C365.023 69.8504 365.227 70.8571 365.473 71.7187C365.622 72.2419 365.989 72.42 366.574 72.2532C367.959 71.8582 369.374 71.2214 370.821 70.3429C372.289 69.4248 373.738 68.3793 375.167 67.2063C376.587 66.0025 377.942 64.8008 379.23 63.6014C380.51 62.3712 381.664 61.2266 382.693 60.1677C383.744 59.0692 384.608 58.1905 385.285 57.5314C385.984 56.8328 386.457 56.4484 386.703 56.3782C387.38 56.185 387.93 56.2446 388.352 56.5569C388.773 56.8691 389.05 57.256 389.182 57.7176C389.243 57.933 388.964 58.5285 388.344 59.5041C387.754 60.4708 386.897 61.6639 385.771 63.0832C384.667 64.4629 383.392 65.9415 381.945 67.5189C380.52 69.0568 379.005 70.5704 377.4 72.0599C375.817 73.5097 374.228 74.7618 372.632 75.8161C371.075 76.8924 369.589 77.6324 368.174 78.0362ZM364.474 64.3668C365.525 63.2683 366.552 62.1435 367.554 60.9923C368.579 59.8015 369.362 58.5798 369.903 57.3273C370.436 56.0441 370.504 54.71 370.109 53.3253C369.995 52.9252 369.813 52.6944 369.562 52.6328C369.303 52.5404 368.973 52.5512 368.573 52.6653C367.496 52.9726 366.647 53.7305 366.027 54.939C365.438 56.1387 365.02 57.5891 364.773 59.2901C364.548 60.9515 364.448 62.6437 364.474 64.3668ZM390.524 72.5089C389.201 72.8864 388.209 72.9695 387.55 72.7583C386.922 72.5382 386.506 72.0743 386.305 71.3666C386.129 70.7511 386.195 70.1665 386.503 69.6128C386.802 69.0283 387.624 68.2946 388.97 67.4117C390.544 66.3969 392.004 65.3316 393.349 64.2157C394.717 63.0602 395.774 61.9266 396.522 60.8148C397.3 59.6943 397.558 58.6724 397.295 57.7493C397.119 57.1338 396.776 56.7491 396.266 56.595C395.787 56.4322 395.271 56.4298 394.717 56.5878C394.255 56.7195 393.6 56.9895 392.752 57.398C391.925 57.7669 391.02 58.2082 390.035 58.7221C389.041 59.2052 388.074 59.6642 387.133 60.0989C386.215 60.4942 385.417 60.7883 384.74 60.9815C383.139 61.4379 381.854 61.422 380.883 60.9337C379.903 60.4147 379.25 59.5858 378.925 58.4473C378.75 57.8318 378.831 56.8934 379.17 55.632C379.509 54.3706 380.033 52.9401 380.741 51.3404C381.45 49.7407 382.281 48.1059 383.236 46.436C384.19 44.7661 385.191 43.1995 386.238 41.7362C387.306 40.2334 388.364 38.9833 389.41 37.9859C390.448 36.9578 391.398 36.3208 392.26 36.075C393.244 35.7941 394.117 35.878 394.877 36.3266C395.668 36.7665 396.213 37.5096 396.511 38.5558C396.652 39.0482 396.759 39.5999 396.834 40.2109C396.899 40.7911 396.813 41.3647 396.576 41.9316C396.329 42.4678 395.848 42.9379 395.131 43.342C394.415 43.7461 393.36 44.0138 391.966 44.1451C391.139 45.2129 390.288 46.3708 389.413 47.6187C388.56 48.8272 387.781 50.0642 387.078 51.3298C386.365 52.5647 385.817 53.7359 385.434 54.8434C386.468 54.1493 387.677 53.4883 389.062 52.8603C390.438 52.2015 391.864 51.6614 393.341 51.2401C395.126 50.7309 396.665 50.6414 397.957 50.9716C399.271 51.2623 400.339 51.8561 401.16 52.7531C402.013 53.6414 402.619 54.7163 402.979 55.978C403.383 57.3935 403.325 58.9407 402.805 60.6196C402.286 62.2985 401.424 63.9421 400.219 65.5503C399.014 67.1586 397.574 68.5844 395.898 69.8276C394.223 71.0709 392.432 71.9647 390.524 72.5089ZM432.321 32.8825C432.427 33.2518 432.396 33.61 432.228 33.9572C432.061 34.3043 431.815 34.6075 431.49 34.8667C431.028 35.2314 430.199 35.7673 429.003 36.4745C427.807 37.1817 426.348 38.014 424.624 38.9716C422.932 39.9203 421.105 40.9239 419.144 41.9825C417.174 43.0102 415.2 44.0226 413.222 45.0196C413.265 48.202 413.318 51.481 413.383 54.8568C413.439 58.2019 413.481 61.5007 413.511 64.7535C413.51 65.9183 413.374 66.8391 413.101 67.5159C412.837 68.2235 412.182 68.7265 411.135 69.0249C409.997 69.3498 409.122 69.1999 408.511 68.5755C407.94 67.9731 407.617 67.0169 407.543 65.707C407.387 62.1246 407.234 58.7905 407.086 55.7048C406.968 52.6103 406.871 50.1092 406.792 48.2015C405.034 49.0359 403.488 49.743 402.156 50.3227C400.815 50.8716 399.848 51.214 399.255 51.35C398.591 51.4728 397.978 51.3649 397.415 51.0262C396.853 50.6875 396.49 50.1753 396.328 49.4895C396.214 48.8565 396.342 48.2544 396.711 47.6831C397.072 47.0811 397.578 46.6373 398.228 46.3519C399.156 45.9874 400.347 45.4978 401.802 44.883C403.258 44.2683 404.858 43.5788 406.603 42.8147C406.556 41.1312 406.556 39.384 406.605 37.573C406.646 35.7313 406.723 33.9621 406.838 32.2655C406.975 30.5293 407.139 29.0019 407.328 27.6834C407.518 26.3648 407.753 25.3825 408.035 24.7364C408.259 24.2398 408.587 23.8136 409.018 23.4577C409.479 23.0931 409.956 22.8405 410.449 22.7001C411.095 22.5157 411.684 22.5973 412.216 22.9448C412.747 23.2922 413.101 23.7737 413.277 24.3891C413.347 24.6353 413.406 24.9013 413.454 25.187C413.494 25.4419 413.502 25.7057 413.48 25.9782C413.335 27.6836 413.235 29.7253 413.181 32.1033C413.158 34.4724 413.166 37.0658 413.204 39.8834C415.416 38.8865 417.581 37.9028 419.7 36.9322C421.841 35.9221 423.775 35.0042 425.503 34.1786C427.253 33.3134 428.647 32.5997 429.684 32.0375C430.238 31.6465 430.774 31.5434 431.293 31.7282C431.803 31.8823 432.146 32.267 432.321 32.8825ZM444.274 33.0168C444.844 35.017 444.272 37.3266 442.556 39.9456C440.863 42.5251 437.862 45.2447 433.553 48.1045C433.562 48.1352 433.575 48.1814 433.593 48.2429C433.882 49.2584 434.238 50.0388 434.66 50.584C435.073 51.0985 435.695 51.2372 436.526 51.0001C437.757 50.649 439.021 49.8891 440.318 48.7204C441.637 47.5122 442.945 46.0908 444.242 44.4561C445.562 42.782 446.817 41.0594 448.009 39.2885C449.201 37.5176 450.292 35.8587 451.282 34.3119C452.293 32.7255 453.155 31.4314 453.868 30.4295C454.602 29.3881 455.123 28.8235 455.431 28.7357C456.077 28.5513 456.686 28.6439 457.257 29.0133C457.859 29.374 458.301 30.0467 458.582 31.0314C458.74 31.5853 458.898 32.2557 459.056 33.0426C459.743 30.3176 460.763 27.9467 462.118 25.9297C463.464 23.8819 464.893 22.2429 466.406 21.0128C467.94 19.7431 469.323 18.9327 470.554 18.5816C471.939 18.1865 472.956 18.1957 473.606 18.6092C474.248 18.9919 474.652 19.4755 474.819 20.0602C474.916 20.3987 474.935 20.7591 474.878 21.1415C474.843 21.4844 474.601 21.9194 474.152 22.4467C473.734 22.9652 472.98 23.6462 471.89 24.4897C470.434 25.5704 469.087 26.7369 467.847 27.9891C466.637 29.2326 465.624 30.753 464.805 32.5504C464.009 34.3083 463.461 36.5278 463.161 39.209C462.883 41.8506 462.952 45.1253 463.368 49.0331C463.451 50.1408 463.314 50.9452 462.958 51.4461C462.611 51.9778 462.129 52.3315 461.514 52.507C461.452 52.5246 461.344 52.5553 461.191 52.5992C460.922 52.709 460.621 52.7616 460.287 52.7571C459.993 52.7745 459.641 52.592 459.233 52.2094C458.863 51.8488 458.448 51.152 457.987 50.1188C457.526 49.0857 457.01 47.569 456.44 45.5688C456.097 44.3687 455.784 43.0938 455.498 41.7443C455.235 40.3552 454.99 38.9112 454.762 37.4122C453.631 39.3985 452.397 41.4309 451.06 43.5095C449.723 45.588 448.29 47.561 446.759 49.4285C445.251 51.2565 443.703 52.8294 442.115 54.1474C440.559 55.4567 439.011 56.3308 437.473 56.7697C435.411 57.3578 433.53 57.1791 431.829 56.2333C430.15 55.248 428.912 53.3552 428.113 50.555C427.323 47.7854 426.977 45.1722 427.074 42.7151C427.194 40.2185 427.621 37.9835 428.356 36.0102C429.091 34.0369 430.012 32.4263 431.121 31.1785C432.251 29.891 433.416 29.0761 434.616 28.7338C437.17 28.0052 439.284 28.0676 440.959 28.921C442.624 29.7436 443.729 31.1089 444.274 33.0168ZM432.981 43.8252C433.667 43.1969 434.382 42.4939 435.125 41.7162C435.89 40.8989 436.589 40.0839 437.223 39.2709C437.847 38.4272 438.322 37.6428 438.648 36.9177C439.004 36.1838 439.108 35.5553 438.959 35.0322C438.713 34.1705 438.317 33.7176 437.772 33.6734C437.249 33.5897 436.588 33.662 435.788 33.8902C434.957 34.1272 434.33 34.7885 433.908 35.874C433.476 36.9288 433.199 38.1726 433.075 39.6055C432.952 41.0384 432.92 42.445 432.981 43.8252ZM59.0444 233.907C58.1828 234.153 57.3301 234.08 56.4863 233.688C55.6733 233.288 55.0781 232.426 54.7006 231.103C54.4987 230.395 54.3057 229.369 54.1216 228.024C53.9683 226.67 53.8459 225.191 53.7542 223.586C53.6538 221.951 53.5885 220.323 53.5584 218.701C53.5591 217.07 53.5926 215.613 53.6591 214.329C53.7168 213.015 53.8161 212.022 53.957 211.349C54.1551 210.527 54.4015 209.991 54.6961 209.741C55.0127 209.451 55.3403 209.258 55.6788 209.161C56.2942 208.985 56.9162 209.008 57.5446 209.228C58.2039 209.439 58.7135 210.175 59.0734 211.437C59.2138 211.929 59.3498 212.756 59.4812 213.916C59.6038 215.046 59.7329 216.374 59.8685 217.899C60.0042 219.424 60.1222 221.004 60.2226 222.64C60.3538 224.266 60.4631 225.815 60.5504 227.288C60.6597 228.721 60.7537 229.925 60.8324 230.901C60.898 231.714 60.7373 232.376 60.3503 232.886C60.0029 233.417 59.5676 233.758 59.0444 233.907ZM56.2676 204.051C55.2522 204.341 54.2302 204.316 53.2018 203.978C52.1646 203.608 51.466 202.792 51.1061 201.531C50.8076 200.484 50.8278 199.564 51.1666 198.768C51.5054 197.973 51.9891 197.335 52.6179 196.857C53.2686 196.338 53.871 196 54.4249 195.842C54.9788 195.684 55.6293 195.631 56.3766 195.685C57.115 195.707 57.8182 195.955 58.4861 196.43C59.176 196.866 59.679 197.637 59.995 198.745C60.2057 199.484 60.1373 200.235 59.7897 201C59.4334 201.734 58.9188 202.38 58.2461 202.938C57.6041 203.487 56.9446 203.858 56.2676 204.051ZM71.4648 229.615C70.7262 229.826 69.9175 229.79 69.0385 229.509C68.1815 229.187 67.3861 228.616 66.6524 227.793C65.9099 226.94 65.3411 225.821 64.9461 224.437C64.4194 222.59 64.1038 220.551 63.9992 218.318C63.9254 216.076 63.9593 213.803 64.1009 211.5C64.2425 209.197 64.4038 207.021 64.5848 204.973C64.6687 203.984 64.913 203.266 65.3176 202.817C65.7134 202.338 66.3113 201.985 67.1114 201.757C68.9269 201.239 70.0937 201.887 70.6116 203.703C70.6994 204.011 70.7321 204.65 70.7097 205.622C70.6786 206.562 70.6122 207.729 70.5105 209.123C70.4396 210.507 70.3687 212.008 70.2977 213.626C70.2487 215.204 70.2393 216.804 70.2694 218.426C70.3215 220.008 70.4285 221.492 70.5906 222.876C70.9911 221.597 71.394 220.035 71.7991 218.189C72.2262 216.304 72.6776 214.328 73.1532 212.262C73.6595 210.188 74.2009 208.236 74.7775 206.408C75.3453 204.549 75.9811 202.987 76.6849 201.721C77.3887 200.455 78.1868 199.695 79.0792 199.441C79.8485 199.221 80.6155 199.169 81.3803 199.283C82.1671 199.358 82.9405 199.737 83.7007 200.418C84.4521 201.069 85.1813 202.109 85.8884 203.538C86.6263 204.958 87.3463 206.899 88.0486 209.361C88.3998 210.592 88.8498 211.761 89.3988 212.869C89.9698 213.937 90.642 214.777 91.4153 215.388C92.1799 215.969 93.07 216.114 94.0855 215.825C95.8395 215.324 97.3167 214.553 98.5171 213.512C99.7175 212.471 100.718 211.37 101.518 210.21C102.319 209.05 102.981 208.046 103.504 207.198C103.812 206.644 104.085 206.2 104.322 205.866C104.591 205.524 104.832 205.321 105.048 205.26C105.694 205.076 106.204 205.113 106.577 205.373C106.982 205.623 107.267 206.041 107.434 206.626C107.522 206.933 107.423 207.577 107.137 208.557C106.85 209.538 106.384 210.702 105.737 212.051C105.113 213.361 104.341 214.679 103.422 216.006C102.502 217.333 101.442 218.518 100.242 219.559C99.0417 220.6 97.7183 221.327 96.272 221.74C93.841 222.433 91.7025 222.577 89.8566 222.172C88.0326 221.727 86.4419 220.584 85.0844 218.742C83.7181 216.869 82.5215 214.132 81.4944 210.532C81.4681 210.439 81.4242 210.285 81.3627 210.07C81.0906 209.116 80.8338 208.274 80.5923 207.544C80.3816 206.806 80.1643 206.219 79.9403 205.784C79.6893 206.887 79.3833 208.205 79.0222 209.739C78.6919 211.264 78.3264 212.899 77.9257 214.644C77.5163 216.358 77.0716 218.066 76.5918 219.767C76.1032 221.437 75.5795 222.984 75.0207 224.408C74.4927 225.823 73.9295 226.999 73.3314 227.935C72.7332 228.871 72.111 229.431 71.4648 229.615ZM153.004 207.053C152.111 207.308 151.355 207.224 150.736 206.802C150.147 206.371 149.716 205.678 149.444 204.724C149.225 203.955 149.067 203.285 148.97 202.713C148.874 202.142 148.83 201.522 148.839 200.854C148.839 200.155 148.846 199.304 148.86 198.302C148.896 197.26 148.933 195.935 148.974 194.326C149.005 193.386 149.023 192.166 149.028 190.667C149.055 189.129 149.047 187.467 149.004 185.683C148.952 183.867 148.823 182.074 148.617 180.302C148.433 178.491 148.135 176.863 147.722 175.416C147.441 174.432 146.967 173.585 146.299 172.877C144.245 176.525 142.59 180.99 141.335 186.273C140.111 191.547 139.375 197.481 139.126 204.074C138.971 205.749 138.584 206.957 137.964 207.7C137.335 208.412 136.667 208.868 135.959 209.07C135.744 209.132 135.385 209.101 134.884 208.978C134.375 208.824 133.834 208.445 133.263 207.843C132.692 207.24 132.222 206.293 131.853 205.001C131.765 204.693 131.732 204.286 131.755 203.781C131.768 203.245 131.85 202.656 131.999 202.014C131.82 200.335 131.533 198.57 131.138 196.719C130.765 194.829 130.335 192.972 129.848 191.147C129.383 189.283 128.922 187.551 128.465 185.951C128.114 184.72 127.715 183.67 127.267 182.799C126.303 185.137 125.53 187.853 124.949 190.947C124.368 194.042 123.957 197.27 123.719 200.632C123.511 203.986 123.47 207.226 123.596 210.351C123.613 211.111 123.587 211.834 123.516 212.52C123.437 213.175 123.203 213.757 122.816 214.267C122.451 214.737 121.823 215.1 120.93 215.354C119.946 215.635 119.093 215.446 118.372 214.786C117.652 214.127 117.103 213.135 116.725 211.812C116.436 210.796 116.278 209.427 116.252 207.704C116.218 205.95 116.298 204.014 116.492 201.895C116.677 199.746 116.962 197.535 117.345 195.263C117.75 192.951 118.224 190.703 118.765 188.519C119.307 186.334 119.921 184.345 120.607 182.552C121.316 180.72 122.055 179.228 122.825 178.076C123.616 176.886 124.443 176.167 125.305 175.921C125.335 175.913 125.382 175.899 125.443 175.882C126.12 175.689 126.753 175.575 127.342 175.54C127.953 175.465 128.553 175.644 129.142 176.075C129.753 176.466 130.403 177.229 131.093 178.363C131.782 179.498 132.57 181.153 133.457 183.329C133.677 183.865 133.912 184.514 134.162 185.274C134.404 186.004 134.638 186.769 134.867 187.569C135.233 185.002 135.73 182.548 136.36 180.205C137.02 177.854 137.777 175.724 138.631 173.817C139.515 171.901 140.48 170.328 141.527 169.097C142.574 167.867 143.651 167.094 144.759 166.778C146.051 166.409 147.343 166.39 148.635 166.72C149.919 167.02 151.11 167.811 152.208 169.095C153.306 170.379 154.22 172.298 154.949 174.852C155.721 177.56 156.225 180.261 156.462 182.956C156.689 185.62 156.754 188.18 156.656 190.637C156.559 193.094 156.408 195.367 156.205 197.455C155.993 199.512 155.834 201.287 155.728 202.782C155.6 203.85 155.363 204.766 155.015 205.531C154.659 206.265 153.988 206.772 153.004 207.053ZM171.543 202.763C169.635 203.307 167.908 203.084 166.361 202.095C164.805 201.074 163.602 199.072 162.75 196.087C162.206 194.179 161.877 192.209 161.764 190.179C161.672 188.108 161.781 186.097 162.089 184.146C162.42 182.155 162.93 180.329 163.621 178.667C164.343 176.997 165.255 175.589 166.359 174.442C167.454 173.265 168.709 172.474 170.125 172.07C172.525 171.385 174.587 171.496 176.309 172.402C178.032 173.309 179.179 174.762 179.749 176.762C180.188 178.301 180.157 179.824 179.655 181.331C179.175 182.799 178.353 184.232 177.187 185.629C176.022 187.026 174.661 188.379 173.105 189.689C171.548 190.998 169.923 192.243 168.231 193.425C168.393 194.577 168.597 195.583 168.842 196.445C168.992 196.968 169.359 197.146 169.943 196.98C171.328 196.585 172.744 195.948 174.19 195.069C175.659 194.151 177.107 193.106 178.536 191.933C179.957 190.729 181.311 189.527 182.599 188.328C183.879 187.098 185.033 185.953 186.062 184.894C187.113 183.796 187.977 182.917 188.655 182.258C189.354 181.559 189.826 181.175 190.073 181.105C190.75 180.911 191.299 180.971 191.721 181.283C192.143 181.596 192.419 181.982 192.551 182.444C192.613 182.659 192.333 183.255 191.713 184.23C191.124 185.197 190.266 186.39 189.14 187.81C188.036 189.189 186.761 190.668 185.314 192.245C183.889 193.783 182.375 195.297 180.77 196.786C179.187 198.236 177.597 199.488 176.001 200.542C174.445 201.619 172.959 202.359 171.543 202.763ZM167.843 189.093C168.894 187.995 169.921 186.87 170.924 185.719C171.948 184.528 172.731 183.306 173.272 182.054C173.805 180.77 173.874 179.436 173.478 178.052C173.364 177.652 173.182 177.421 172.932 177.359C172.672 177.267 172.343 177.278 171.943 177.392C170.865 177.699 170.017 178.457 169.397 179.665C168.807 180.865 168.389 182.315 168.142 184.016C167.917 185.678 167.818 187.37 167.843 189.093ZM198.675 195.821C195.906 196.611 193.479 196.388 191.396 195.152C189.335 193.877 187.853 191.654 186.949 188.485C186.457 186.761 186.113 184.68 185.916 182.24C185.71 179.77 185.608 177.137 185.609 174.342C185.632 171.506 185.711 168.689 185.844 165.889C186.007 163.08 186.208 160.461 186.447 158.03C186.685 155.599 186.917 153.553 187.142 151.892C187.371 150.595 187.993 149.802 189.008 149.512C189.655 149.328 190.235 149.379 190.749 149.665C191.294 149.942 191.694 150.527 191.948 151.419C192.071 151.85 192.123 152.85 192.105 154.419C192.087 155.988 192.027 157.936 191.925 160.261C191.845 162.546 191.751 165.019 191.645 167.678C191.569 170.329 191.528 172.986 191.523 175.649C191.548 178.304 191.657 180.786 191.85 183.093C192.033 185.37 192.34 187.263 192.77 188.771C192.946 189.386 193.256 189.83 193.699 190.103C194.174 190.367 194.704 190.415 195.288 190.249C196.55 189.889 197.777 189.289 198.968 188.45C200.19 187.602 201.347 186.64 202.437 185.564C203.559 184.478 204.59 183.369 205.531 182.235C206.472 181.102 207.303 180.049 208.025 179.078C208.768 178.067 209.37 177.263 209.832 176.666C210.435 175.862 210.874 175.42 211.151 175.341C212.198 175.042 212.866 175.401 213.155 176.416C213.226 176.663 213.063 177.258 212.667 178.203C212.337 179.029 211.844 180.102 211.188 181.42C210.533 182.738 209.741 184.162 208.813 185.691C207.907 187.181 206.891 188.636 205.765 190.055C204.67 191.466 203.522 192.691 202.322 193.733C201.122 194.774 199.906 195.47 198.675 195.821ZM215.324 190.123C213.478 190.65 212.095 190.645 211.177 190.109C210.298 189.594 209.678 188.706 209.319 187.444C207.791 182.09 207.198 176.219 207.539 169.833C207.902 163.406 209.076 156.732 211.061 149.81C211.387 148.619 211.724 147.874 212.071 147.575C212.418 147.277 212.838 147.057 213.331 146.917C214.038 146.715 214.724 146.785 215.388 147.128C216.082 147.463 216.543 148.03 216.772 148.83C216.842 149.076 216.773 149.828 216.566 151.085C216.359 152.342 216.071 153.955 215.701 155.924C215.361 157.884 215.011 160.097 214.65 162.563C214.279 164.998 213.96 167.552 213.69 170.224C213.452 172.888 213.341 175.532 213.357 178.156C214.026 176.534 214.825 174.842 215.753 173.08C216.703 171.278 217.735 169.586 218.847 168.004C219.951 166.392 221.079 165.038 222.231 163.944C223.375 162.819 224.485 162.103 225.562 161.796C226.577 161.506 227.586 161.485 228.588 161.731C229.621 161.969 230.564 162.532 231.416 163.42C232.268 164.309 232.932 165.584 233.406 167.245C233.923 169.061 233.931 171.072 233.429 173.278C232.958 175.476 231.971 177.671 230.466 179.864C228.993 182.048 226.986 184.051 224.444 185.874C221.934 187.689 218.894 189.105 215.324 190.123ZM215.761 184.308C218.078 183.448 220.072 182.33 221.743 180.955C223.445 179.571 224.812 178.066 225.846 176.44C226.879 174.814 227.572 173.219 227.925 171.654C228.268 170.059 228.264 168.645 227.913 167.415C227.834 167.138 227.718 167.021 227.564 167.065C226.918 167.249 226.186 167.774 225.368 168.64C224.541 169.475 223.679 170.536 222.782 171.823C221.885 173.111 220.998 174.495 220.123 175.976C219.248 177.457 218.434 178.92 217.682 180.366C216.93 181.812 216.289 183.126 215.761 184.308ZM244.56 181.883C242.376 182.506 240.402 182.237 238.64 181.076C236.869 179.884 235.61 177.98 234.864 175.365C234.627 174.534 234.494 173.657 234.463 172.734C234.464 171.802 234.528 170.919 234.655 170.083C234.392 169.859 234.137 169.549 233.891 169.153C233.667 168.718 233.467 168.193 233.292 167.577C232.721 165.577 232.553 163.645 232.786 161.782C233.011 159.887 233.548 158.153 234.397 156.58C235.246 155.007 236.297 153.676 237.55 152.586C238.804 151.496 240.169 150.741 241.646 150.32C244.169 149.6 246.472 149.858 248.555 151.094C250.669 152.321 252.235 154.719 253.253 158.289C253.763 160.074 254.003 161.968 253.976 163.973C253.949 165.977 253.7 167.962 253.229 169.926C252.78 171.851 252.128 173.651 251.275 175.325C250.452 176.991 249.458 178.406 248.293 179.57C247.159 180.726 245.914 181.497 244.56 181.883ZM239.371 166.492C239.622 166.787 239.813 167.165 239.944 167.626C240.076 168.088 240.12 168.591 240.076 169.136C240.031 169.681 240.035 170.395 240.088 171.279C240.131 172.132 240.368 173.312 240.798 174.82C240.913 175.22 241.055 175.545 241.227 175.796C241.42 176.007 241.717 176.055 242.117 175.941C243.163 175.643 244.051 175.023 244.781 174.083C245.542 173.134 246.134 172 246.556 170.682C247.009 169.354 247.304 167.939 247.441 166.436C247.6 164.893 247.616 163.375 247.489 161.88C247.384 160.346 247.156 158.963 246.805 157.733C246.577 156.932 246.265 156.422 245.87 156.202C245.474 155.983 244.892 155.982 244.122 156.202C243.076 156.5 242.096 157.146 241.181 158.139C240.288 159.092 239.635 160.244 239.221 161.593C238.799 162.912 238.79 164.279 239.193 165.694C239.272 165.971 239.332 166.237 239.371 166.492ZM277.977 172.949C277.269 173.151 276.539 173.043 275.788 172.625C275.076 172.229 274.531 171.37 274.154 170.046C273.873 169.062 273.559 167.67 273.213 165.873C272.888 164.035 272.573 161.646 272.266 158.705C271.821 161.228 271.26 163.518 270.582 165.575C269.904 167.632 269.137 169.315 268.279 170.624C267.443 171.894 266.518 172.674 265.502 172.964C263.871 173.429 262.438 173.305 261.203 172.593C259.96 171.849 258.943 170.093 258.153 167.323C257.775 166 257.457 164.477 257.199 162.754C256.971 161.022 256.805 159.273 256.7 157.505C256.595 155.738 256.543 154.156 256.543 152.758C256.566 151.321 256.639 150.235 256.762 149.501C256.851 148.877 257.035 148.358 257.317 147.945C257.629 147.524 258.093 147.225 258.708 147.049C259.693 146.768 260.539 146.876 261.247 147.373C261.954 147.87 262.404 148.457 262.598 149.134C262.747 149.658 262.839 150.447 262.874 151.501C262.939 152.548 262.974 153.719 262.978 155.016C263.012 156.304 263.04 157.627 263.062 158.985C263.083 160.343 263.129 161.611 263.199 162.789C263.299 163.959 263.459 164.928 263.679 165.697C263.951 166.651 264.456 167.023 265.195 166.812C265.626 166.689 266.061 166.116 266.501 165.092C266.972 164.059 267.394 162.741 267.768 161.136C268.165 159.493 268.526 157.726 268.852 155.836C269.2 153.906 269.467 151.983 269.652 150.067C269.859 148.111 269.999 146.324 270.07 144.707C270.114 143.696 270.345 142.931 270.763 142.413C271.181 141.894 271.728 141.538 272.405 141.345C273.451 141.047 274.335 141.111 275.055 141.537C275.807 141.955 276.336 142.703 276.644 143.78C276.784 144.272 276.944 145.125 277.124 146.338C277.304 147.551 277.494 148.978 277.696 150.617C277.928 152.248 278.14 153.985 278.333 155.826C278.526 157.668 278.71 159.479 278.885 161.26C279.091 163.031 279.257 164.664 279.384 166.159C279.502 167.622 279.587 168.796 279.64 169.679C279.683 170.998 279.524 171.842 279.164 172.211C278.803 172.58 278.407 172.826 277.977 172.949ZM288.063 170.022C287.294 170.241 286.553 170.153 285.841 169.757C285.16 169.352 284.67 168.627 284.372 167.581C284.24 167.119 284.087 166.348 283.911 165.266C283.758 164.145 283.591 162.862 283.412 161.416C283.263 159.961 283.081 158.448 282.866 156.879C282.682 155.301 282.474 153.813 282.242 152.415C282.04 151.009 281.834 149.82 281.624 148.848C281.352 147.661 281.422 146.742 281.836 146.092C282.24 145.411 282.827 144.961 283.597 144.741C284.212 144.566 284.81 144.561 285.39 144.729C285.992 144.856 286.486 145.364 286.873 146.252C287.281 147.101 287.665 148.389 288.025 150.117C288.677 147.269 289.419 144.678 290.25 142.344C291.113 140.001 292.151 138.041 293.365 136.464C295.366 133.797 297.397 132.169 299.459 131.581C300.628 131.247 301.472 131.289 301.991 131.707C302.509 132.125 302.847 132.611 303.005 133.165C303.111 133.534 303.115 133.899 303.018 134.259C302.952 134.611 302.706 135.03 302.279 135.518C301.853 136.006 301.18 136.68 300.261 137.542C299.025 138.693 297.871 140.07 296.798 141.674C295.755 143.269 294.809 145.203 293.96 147.475C293.111 149.747 292.369 152.455 291.735 155.597C291.101 158.74 290.57 162.419 290.141 166.634C290.163 167.759 289.96 168.565 289.534 169.053C289.138 169.532 288.648 169.855 288.063 170.022ZM308.954 161.866C308.215 162.077 307.407 162.041 306.528 161.759C305.671 161.438 304.875 160.866 304.142 160.044C303.399 159.191 302.83 158.072 302.435 156.688C301.909 154.841 301.593 152.802 301.488 150.569C301.415 148.327 301.448 146.054 301.59 143.751C301.732 141.448 301.893 139.272 302.074 137.224C302.158 136.235 302.402 135.516 302.807 135.068C303.203 134.589 303.801 134.236 304.601 134.007C306.416 133.489 307.583 134.138 308.101 135.954C308.189 136.262 308.221 136.901 308.199 137.873C308.168 138.813 308.101 139.98 308 141.374C307.929 142.758 307.858 144.259 307.787 145.877C307.738 147.455 307.728 149.055 307.759 150.677C307.811 152.259 307.918 153.743 308.08 155.127C308.48 153.848 308.883 152.286 309.288 150.44C309.715 148.554 310.167 146.579 310.642 144.513C311.149 142.439 311.69 140.487 312.267 138.659C312.835 136.8 313.47 135.237 314.174 133.972C314.878 132.706 315.676 131.946 316.568 131.691C317.338 131.472 318.105 131.42 318.87 131.534C319.656 131.609 320.43 131.988 321.19 132.669C321.941 133.32 322.671 134.36 323.378 135.789C324.116 137.209 324.836 139.15 325.538 141.611C325.889 142.842 326.339 144.012 326.888 145.12C327.459 146.188 328.131 147.028 328.905 147.639C329.669 148.22 330.559 148.365 331.575 148.075C333.329 147.575 334.806 146.804 336.006 145.763C337.207 144.722 338.207 143.621 339.008 142.461C339.808 141.301 340.47 140.297 340.993 139.449C341.301 138.895 341.574 138.451 341.812 138.117C342.08 137.774 342.322 137.572 342.537 137.511C343.183 137.326 343.693 137.364 344.067 137.623C344.471 137.874 344.757 138.292 344.923 138.877C345.011 139.184 344.912 139.828 344.626 140.808C344.34 141.788 343.873 142.953 343.227 144.302C342.602 145.612 341.83 146.93 340.911 148.257C339.992 149.584 338.932 150.768 337.731 151.81C336.531 152.851 335.208 153.578 333.761 153.99C331.33 154.684 329.192 154.828 327.346 154.423C325.522 153.978 323.931 152.835 322.574 150.993C321.207 149.119 320.011 146.383 318.984 142.782C318.957 142.69 318.913 142.536 318.852 142.321C318.58 141.367 318.323 140.525 318.082 139.795C317.871 139.057 317.654 138.47 317.43 138.035C317.179 139.138 316.873 140.456 316.511 141.99C316.181 143.515 315.816 145.15 315.415 146.895C315.005 148.609 314.561 150.317 314.081 152.018C313.592 153.688 313.069 155.235 312.51 156.659C311.982 158.074 311.419 159.249 310.821 160.185C310.222 161.121 309.6 161.682 308.954 161.866ZM346.976 152.716C345.068 153.261 343.341 153.038 341.794 152.048C340.239 151.028 339.035 149.025 338.183 146.04C337.639 144.132 337.31 142.163 337.197 140.132C337.105 138.062 337.214 136.051 337.522 134.1C337.853 132.109 338.364 130.282 339.054 128.621C339.776 126.951 340.689 125.543 341.792 124.396C342.887 123.218 344.142 122.428 345.558 122.024C347.958 121.339 350.02 121.45 351.742 122.356C353.465 123.262 354.612 124.715 355.182 126.716C355.621 128.254 355.59 129.777 355.088 131.285C354.608 132.753 353.786 134.185 352.621 135.583C351.455 136.98 350.094 138.333 348.538 139.642C346.981 140.952 345.356 142.197 343.664 143.379C343.826 144.531 344.03 145.537 344.276 146.399C344.425 146.922 344.792 147.1 345.376 146.933C346.761 146.538 348.177 145.902 349.623 145.023C351.092 144.105 352.541 143.059 353.97 141.886C355.39 140.683 356.744 139.481 358.033 138.282C359.312 137.051 360.466 135.907 361.495 134.848C362.546 133.749 363.41 132.871 364.088 132.212C364.787 131.513 365.259 131.129 365.506 131.058C366.183 130.865 366.732 130.925 367.154 131.237C367.576 131.549 367.853 131.936 367.984 132.398C368.046 132.613 367.766 133.209 367.146 134.184C366.557 135.151 365.699 136.344 364.573 137.763C363.469 139.143 362.194 140.622 360.747 142.199C359.323 143.737 357.808 145.251 356.203 146.74C354.62 148.19 353.03 149.442 351.434 150.496C349.878 151.572 348.392 152.313 346.976 152.716ZM343.276 139.047C344.327 137.948 345.354 136.824 346.357 135.672C347.381 134.482 348.164 133.26 348.706 132.007C349.238 130.724 349.307 129.39 348.912 128.005C348.797 127.605 348.615 127.375 348.365 127.313C348.105 127.22 347.776 127.231 347.376 127.345C346.299 127.653 345.45 128.411 344.83 129.619C344.24 130.819 343.822 132.269 343.575 133.97C343.35 135.632 343.251 137.324 343.276 139.047ZM385.158 142.024C384.174 142.305 383.202 142.282 382.244 141.957C381.295 141.662 380.466 141.149 379.759 140.419C379.043 139.659 378.54 138.77 378.25 137.755C377.706 135.847 377.59 133.867 377.903 131.814C378.247 129.753 378.879 127.709 379.798 125.683C380.718 123.657 381.8 121.735 383.044 119.915C384.311 118.057 385.619 116.402 386.969 114.952C388.35 113.494 389.639 112.294 390.835 111.354C392.061 110.405 393.059 109.821 393.829 109.601C394.721 109.347 395.501 109.34 396.169 109.583C396.859 109.785 397.318 110.286 397.547 111.086C397.617 111.333 397.612 111.55 397.533 111.739C397.96 111.717 398.348 111.856 398.7 112.155C399.052 112.454 399.333 112.973 399.543 113.711C399.631 114.019 399.782 114.841 399.997 116.177C400.212 117.514 400.491 119.131 400.833 121.03C401.205 122.921 401.677 124.866 402.248 126.866C402.336 127.174 402.461 127.438 402.623 127.657C402.777 127.846 403.008 127.897 403.316 127.809C404.546 127.458 405.722 126.856 406.844 126.004C407.987 125.112 409.053 124.126 410.043 123.045C411.054 121.925 411.947 120.855 412.721 119.835C413.517 118.776 414.183 117.904 414.72 117.219C415.278 116.494 415.665 116.1 415.881 116.039C416.927 115.74 417.599 116.114 417.898 117.161C417.977 117.437 417.805 118.119 417.383 119.204C416.982 120.25 416.375 121.505 415.561 122.968C414.739 124.401 413.778 125.873 412.678 127.385C411.601 128.857 410.409 130.162 409.103 131.3C407.828 132.429 406.498 133.191 405.113 133.586C403.421 134.069 402.014 134.037 400.893 133.492C399.804 132.937 398.881 132.036 398.125 130.787C397.392 129.499 396.764 127.998 396.242 126.283C395.313 128.977 394.253 131.443 393.061 133.68C391.89 135.877 390.635 137.716 389.294 139.197C387.952 140.678 386.574 141.62 385.158 142.024ZM394.901 114.237C392.298 116.543 390.064 118.978 388.2 121.54C386.326 124.071 384.971 126.554 384.135 128.988C383.33 131.414 383.195 133.566 383.73 135.443C383.88 135.966 384.2 136.157 384.693 136.017C385.277 135.85 385.95 135.292 386.711 134.343C387.503 133.385 388.31 132.19 389.132 130.757C389.946 129.294 390.725 127.707 391.468 125.998C392.203 124.258 392.852 122.508 393.415 120.75C393.979 118.992 394.359 117.353 394.558 115.832C394.633 115.279 394.747 114.747 394.901 114.237ZM418.581 133.138C417.257 133.516 416.266 133.599 415.607 133.387C414.978 133.167 414.563 132.704 414.361 131.996C414.186 131.38 414.252 130.796 414.56 130.242C414.859 129.658 415.681 128.924 417.027 128.041C418.601 127.026 420.06 125.961 421.406 124.845C422.773 123.689 423.831 122.556 424.579 121.444C425.357 120.323 425.615 119.302 425.351 118.378C425.176 117.763 424.833 117.378 424.323 117.224C423.844 117.061 423.328 117.059 422.774 117.217C422.312 117.349 421.657 117.619 420.809 118.027C419.982 118.396 419.077 118.837 418.092 119.351C417.098 119.834 416.131 120.293 415.19 120.728C414.271 121.123 413.473 121.418 412.796 121.611C411.196 122.067 409.911 122.051 408.939 121.563C407.959 121.044 407.307 120.215 406.982 119.076C406.807 118.461 406.888 117.523 407.227 116.261C407.566 115 408.09 113.569 408.798 111.97C409.507 110.37 410.338 108.735 411.292 107.065C412.247 105.395 413.248 103.829 414.294 102.365C415.363 100.863 416.421 99.6125 417.467 98.6151C418.505 97.587 419.455 96.95 420.316 96.7042C421.301 96.4233 422.174 96.5072 422.934 96.9558C423.725 97.3957 424.27 98.1388 424.568 99.185C424.708 99.6774 424.816 100.229 424.89 100.84C424.956 101.42 424.87 101.994 424.633 102.561C424.386 103.097 423.905 103.567 423.188 103.971C422.471 104.375 421.416 104.643 420.023 104.774C419.196 105.842 418.345 107 417.47 108.248C416.617 109.456 415.838 110.693 415.134 111.959C414.422 113.194 413.874 114.365 413.491 115.473C414.524 114.778 415.733 114.117 417.118 113.489C418.494 112.831 419.921 112.291 421.398 111.869C423.183 111.36 424.721 111.271 426.013 111.601C427.328 111.891 428.395 112.485 429.217 113.382C430.069 114.271 430.676 115.346 431.036 116.607C431.439 118.023 431.382 119.57 430.862 121.249C430.343 122.928 429.481 124.571 428.276 126.18C427.071 127.788 425.63 129.214 423.955 130.457C422.28 131.7 420.489 132.594 418.581 133.138ZM457.936 121.262C456.951 121.543 455.979 121.521 455.021 121.195C454.072 120.9 453.244 120.388 452.536 119.658C451.82 118.897 451.317 118.009 451.028 116.994C450.483 115.086 450.368 113.106 450.681 111.053C451.024 108.992 451.656 106.948 452.575 104.922C453.495 102.896 454.577 100.973 455.822 99.1541C457.088 97.2953 458.397 95.6409 459.747 94.1909C461.127 92.7322 462.416 91.5327 463.612 90.5926C464.838 89.6436 465.837 89.0594 466.606 88.84C467.498 88.5854 468.278 88.5791 468.946 88.8212C469.636 89.0236 470.096 89.5249 470.324 90.325C470.394 90.5712 470.39 90.7888 470.31 90.9777C470.737 90.9559 471.126 91.0945 471.477 91.3936C471.829 91.6926 472.11 92.2114 472.321 92.9499C472.408 93.2577 472.56 94.0797 472.774 95.416C472.989 96.7524 473.268 98.37 473.61 100.269C473.983 102.159 474.454 104.104 475.025 106.105C475.113 106.412 475.238 106.676 475.401 106.896C475.554 107.085 475.785 107.136 476.093 107.048C477.324 106.697 478.5 106.095 479.621 105.243C480.764 104.351 481.83 103.365 482.82 102.284C483.831 101.163 484.724 100.093 485.498 99.0739C486.294 98.0149 486.96 97.1427 487.497 96.4572C488.055 95.7322 488.442 95.3389 488.658 95.2775C489.704 94.979 490.376 95.3529 490.675 96.3991C490.754 96.6761 490.582 97.3573 490.16 98.4429C489.759 99.4888 489.152 100.744 488.339 102.207C487.516 103.64 486.555 105.112 485.455 106.623C484.378 108.095 483.186 109.4 481.88 110.538C480.605 111.667 479.275 112.429 477.89 112.824C476.198 113.307 474.791 113.276 473.671 112.73C472.581 112.176 471.658 111.275 470.903 110.026C470.169 108.738 469.541 107.237 469.019 105.522C468.09 108.216 467.03 110.682 465.838 112.918C464.668 115.116 463.412 116.955 462.071 118.435C460.729 119.916 459.351 120.859 457.936 121.262ZM467.679 93.4755C465.076 95.7821 462.842 98.2163 460.977 100.778C459.103 103.309 457.748 105.792 456.912 108.227C456.107 110.653 455.972 112.805 456.508 114.682C456.657 115.205 456.978 115.396 457.47 115.256C458.055 115.089 458.727 114.531 459.488 113.582C460.28 112.624 461.087 111.429 461.909 109.996C462.723 108.533 463.502 106.946 464.245 105.237C464.98 103.496 465.629 101.747 466.192 99.9891C466.756 98.2311 467.137 96.5917 467.335 95.071C467.41 94.5171 467.525 93.9853 467.679 93.4755ZM90.8542 308.74C89.9925 308.985 89.2278 308.871 88.5598 308.396C87.9315 307.943 87.4417 307.101 87.0906 305.87C86.6077 304.177 86.1866 302.118 85.8272 299.692C85.4677 297.265 85.1765 294.669 84.9534 291.904C84.7304 289.14 84.5667 286.408 84.4623 283.709C84.3756 280.605 84.3482 277.768 84.38 275.197C84.4426 272.617 84.6413 270.513 84.976 268.887C85.3327 267.221 85.8957 266.279 86.6651 266.059C87.3728 265.857 88.0629 265.943 88.7353 266.317C89.4296 266.652 89.9172 267.311 90.1982 268.296C90.4001 269.004 90.5051 270.072 90.5133 271.5C90.5128 272.898 90.512 274.645 90.5112 276.742C91.0659 274.72 91.6601 272.721 92.2938 270.743C92.9584 268.756 93.6822 266.919 94.4653 265.232C95.2484 263.544 96.0797 262.142 96.9593 261.026C97.8388 259.91 98.771 259.212 99.7557 258.931C100.925 258.597 102.052 258.642 103.138 259.064C104.254 259.478 105.241 260.195 106.098 261.215C106.954 262.235 107.593 263.483 108.015 264.96C108.796 267.699 109.063 270.501 108.816 273.367C108.559 276.202 107.844 278.885 106.669 281.417C105.526 283.939 103.971 286.13 102.005 287.988C100.031 289.816 97.7052 291.112 95.028 291.876C94.2587 292.095 93.529 292.22 92.8389 292.251C92.1883 292.303 91.5751 292.312 90.9993 292.276C91.1919 294.351 91.413 296.467 91.6627 298.626C91.9519 300.806 92.2564 303.098 92.5763 305.503C92.6899 307.301 92.1158 308.38 90.8542 308.74ZM101.771 264.246C101.094 264.439 100.364 265.146 99.5812 266.368C98.8291 267.581 98.068 269.112 97.2981 270.963C96.5193 272.782 95.7647 274.744 95.0342 276.849C94.3256 278.915 93.6545 280.937 93.0207 282.914C92.4177 284.883 91.9071 286.593 91.489 288.043C93.7574 287.13 95.6436 285.926 97.1475 284.433C98.6426 282.908 99.8147 281.243 100.664 279.436C101.513 277.63 102.094 275.817 102.407 273.998C102.741 272.138 102.874 270.387 102.804 268.743C102.735 267.099 102.537 265.708 102.213 264.569C102.134 264.292 101.986 264.184 101.771 264.246ZM131.021 259.645C131.591 261.646 131.019 263.955 129.304 266.574C127.61 269.154 124.609 271.873 120.3 274.733C120.309 274.764 120.322 274.81 120.34 274.871C120.63 275.887 120.985 276.667 121.407 277.213C121.82 277.727 122.442 277.866 123.273 277.629C124.504 277.278 125.768 276.518 127.065 275.349C128.384 274.141 129.692 272.719 130.99 271.085C132.309 269.411 133.565 267.688 134.756 265.917C135.948 264.146 137.039 262.487 138.029 260.94C139.04 259.354 139.902 258.06 140.615 257.058C141.349 256.017 141.871 255.452 142.178 255.364C142.824 255.18 143.433 255.272 144.005 255.642C144.607 256.003 145.048 256.675 145.329 257.66C145.487 258.214 145.645 258.884 145.803 259.671C146.49 256.946 147.51 254.575 148.865 252.558C150.211 250.51 151.64 248.871 153.153 247.641C154.687 246.372 156.07 245.561 157.301 245.21C158.686 244.815 159.703 244.824 160.354 245.238C160.995 245.62 161.399 246.104 161.566 246.689C161.663 247.027 161.682 247.388 161.625 247.77C161.59 248.113 161.348 248.548 160.899 249.075C160.481 249.594 159.727 250.275 158.637 251.118C157.182 252.199 155.834 253.365 154.594 254.618C153.385 255.861 152.371 257.382 151.552 259.179C150.756 260.937 150.208 263.156 149.908 265.838C149.63 268.479 149.699 271.754 150.115 275.662C150.198 276.769 150.061 277.574 149.705 278.075C149.358 278.606 148.876 278.96 148.261 279.136C148.199 279.153 148.092 279.184 147.938 279.228C147.67 279.338 147.368 279.39 147.034 279.386C146.74 279.403 146.388 279.221 145.98 278.838C145.611 278.477 145.195 277.781 144.734 276.747C144.273 275.714 143.757 274.198 143.187 272.197C142.844 270.997 142.531 269.722 142.245 268.373C141.982 266.984 141.737 265.54 141.509 264.041C140.378 266.027 139.145 268.059 137.807 270.138C136.47 272.217 135.037 274.19 133.506 276.057C131.998 277.885 130.45 279.458 128.863 280.776C127.306 282.085 125.758 282.959 124.22 283.398C122.158 283.986 120.277 283.808 118.576 282.862C116.897 281.877 115.659 279.984 114.86 277.184C114.07 274.414 113.724 271.801 113.821 269.344C113.941 266.847 114.368 264.612 115.103 262.639C115.838 260.665 116.76 259.055 117.868 257.807C118.998 256.52 120.163 255.705 121.363 255.362C123.917 254.634 126.032 254.696 127.706 255.55C129.371 256.372 130.476 257.737 131.021 259.645ZM119.728 270.454C120.414 269.825 121.129 269.122 121.872 268.345C122.637 267.527 123.337 266.712 123.97 265.899C124.594 265.056 125.069 264.271 125.395 263.546C125.751 262.812 125.855 262.184 125.706 261.661C125.46 260.799 125.064 260.346 124.519 260.302C123.996 260.218 123.335 260.291 122.535 260.519C121.704 260.756 121.077 261.417 120.655 262.503C120.224 263.557 119.946 264.801 119.823 266.234C119.699 267.667 119.668 269.074 119.728 270.454ZM169.161 272.924C167.837 273.301 166.846 273.384 166.187 273.173C165.559 272.953 165.143 272.489 164.941 271.781C164.766 271.166 164.832 270.581 165.14 270.028C165.439 269.443 166.261 268.71 167.607 267.827C169.181 266.812 170.64 265.747 171.986 264.631C173.353 263.475 174.411 262.342 175.159 261.23C175.937 260.109 176.195 259.087 175.931 258.164C175.756 257.549 175.413 257.164 174.903 257.01C174.424 256.847 173.908 256.845 173.354 257.003C172.892 257.134 172.237 257.404 171.389 257.813C170.562 258.182 169.657 258.623 168.672 259.137C167.678 259.62 166.711 260.079 165.77 260.514C164.851 260.909 164.053 261.203 163.376 261.396C161.776 261.853 160.491 261.837 159.519 261.349C158.539 260.83 157.887 260.001 157.562 258.862C157.387 258.247 157.468 257.308 157.807 256.047C158.146 254.786 158.67 253.355 159.378 251.755C160.087 250.156 160.918 248.521 161.873 246.851C162.827 245.181 163.828 243.614 164.874 242.151C165.943 240.648 167.001 239.398 168.047 238.401C169.085 237.373 170.035 236.736 170.896 236.49C171.881 236.209 172.754 236.293 173.514 236.742C174.305 237.181 174.85 237.924 175.148 238.971C175.289 239.463 175.396 240.015 175.47 240.626C175.536 241.206 175.45 241.78 175.213 242.347C174.966 242.883 174.485 243.353 173.768 243.757C173.051 244.161 171.996 244.429 170.603 244.56C169.776 245.628 168.925 246.786 168.05 248.034C167.197 249.242 166.418 250.479 165.714 251.745C165.002 252.98 164.454 254.151 164.071 255.258C165.104 254.564 166.314 253.903 167.698 253.275C169.074 252.616 170.501 252.076 171.978 251.655C173.763 251.146 175.301 251.056 176.594 251.387C177.908 251.677 178.976 252.271 179.797 253.168C180.65 254.056 181.256 255.131 181.616 256.393C182.019 257.808 181.962 259.356 181.442 261.035C180.923 262.713 180.061 264.357 178.856 265.965C177.651 267.574 176.211 268.999 174.535 270.243C172.86 271.486 171.069 272.38 169.161 272.924ZM216.835 259.324C215.635 259.666 214.666 259.593 213.928 259.105C213.198 258.647 212.566 257.48 212.03 255.603C211.574 254.003 211.243 251.851 211.037 249.148C210.832 246.444 210.631 243.524 210.434 240.385C208.107 245.175 204.862 248.73 200.698 251.049C200.332 253.15 199.769 255.141 199.008 257.022C198.247 258.903 197.294 260.522 196.151 261.88C195.03 263.198 193.715 264.072 192.207 264.502C190.33 265.038 188.539 264.883 186.834 264.039C185.159 263.185 183.958 261.482 183.229 258.927C182.738 257.204 182.582 255.668 182.763 254.319C182.935 252.938 183.272 251.844 183.773 251.036C182.886 250.024 182.227 248.765 181.797 247.257C181.217 245.226 181.258 243.268 181.918 241.382C182.578 239.497 183.688 237.849 185.249 236.439C186.841 235.019 188.714 234.003 190.868 233.388C192.068 233.046 193.295 233.029 194.547 233.337C195.822 233.606 196.973 234.259 198.001 235.296C199.051 236.295 199.84 237.717 200.367 239.563C200.806 241.102 201.058 242.86 201.123 244.838C202.939 242.923 204.588 240.539 206.071 237.687C207.584 234.826 208.787 231.754 209.681 228.471C209.967 227.491 210.587 226.864 211.541 226.592C212.341 226.364 213.042 226.43 213.644 226.791C214.268 227.112 214.69 227.657 214.909 228.427C214.953 228.58 215.006 229.115 215.067 230.029C215.128 230.943 215.202 232.137 215.29 233.609C215.368 235.051 215.455 236.64 215.551 238.376C215.678 240.104 215.814 241.862 215.958 243.651C216.102 245.44 216.251 247.128 216.404 248.715C216.792 247.04 217.215 245.256 217.672 243.362C218.152 241.428 218.672 239.516 219.231 237.626C219.781 235.705 220.36 233.943 220.967 232.339C221.574 230.735 222.184 229.43 222.795 228.423C223.398 227.386 223.991 226.784 224.576 226.617C225.745 226.284 226.827 226.341 227.82 226.79C228.813 227.239 229.411 227.817 229.612 228.525C229.814 229.233 230.049 230.347 230.317 231.868C230.584 233.389 230.858 235.108 231.139 237.024C231.441 238.901 231.733 240.798 232.013 242.715C232.294 244.631 232.572 246.365 232.848 247.917C233.116 249.438 233.355 250.568 233.566 251.306C233.741 251.922 233.616 252.59 233.189 253.311C232.762 254.031 232.18 254.497 231.441 254.708C231.38 254.725 231.272 254.756 231.118 254.8C230.758 254.936 230.402 254.971 230.05 254.905C229.707 254.87 229.314 254.483 228.87 253.744C228.457 252.997 227.979 251.669 227.435 249.761C227.066 248.469 226.724 247.036 226.408 245.462C226.092 243.888 225.807 242.306 225.553 240.714C225.32 239.083 225.134 237.556 224.994 236.132C224.571 237.683 224.109 239.446 223.607 241.419C223.127 243.353 222.614 245.346 222.069 247.398C221.514 249.42 220.94 251.314 220.345 253.081C219.773 254.808 219.184 256.241 218.577 257.379C218 258.509 217.42 259.157 216.835 259.324ZM195.082 248.858C195.139 247.543 195.107 246.205 194.984 244.842C194.853 243.449 194.607 242.121 194.247 240.86C194.098 240.337 193.846 239.86 193.49 239.429C193.134 238.998 192.694 238.857 192.171 239.006C191.125 239.305 190.156 239.814 189.263 240.535C188.401 241.246 187.761 242.094 187.343 243.079C186.925 244.063 186.874 245.109 187.19 246.217C187.471 247.202 188.031 247.941 188.871 248.433C189.741 248.917 190.717 249.188 191.798 249.245C192.91 249.294 193.958 249.178 194.943 248.897C194.974 248.888 195.02 248.875 195.082 248.858ZM194.348 253.46C193.262 253.736 192.176 253.896 191.091 253.94C189.996 253.952 188.963 253.831 187.992 253.576C188.04 254.094 188.084 254.598 188.123 255.086C188.154 255.543 188.226 255.971 188.34 256.371C188.533 257.048 188.817 257.633 189.19 258.126C189.585 258.578 190.152 258.7 190.891 258.489C191.66 258.269 192.333 257.711 192.909 256.815C193.516 255.91 193.996 254.791 194.348 253.46ZM244.036 250.915C243.051 251.196 242.08 251.174 241.122 250.848C240.173 250.553 239.344 250.041 238.637 249.311C237.921 248.55 237.418 247.662 237.128 246.646C236.584 244.738 236.468 242.758 236.781 240.706C237.125 238.644 237.756 236.601 238.676 234.575C239.595 232.549 240.677 230.626 241.922 228.807C243.189 226.948 244.497 225.294 245.847 223.844C247.228 222.385 248.516 221.185 249.712 220.245C250.939 219.296 251.937 218.712 252.706 218.493C253.599 218.238 254.379 218.232 255.047 218.474C255.737 218.676 256.196 219.178 256.424 219.978C256.495 220.224 256.49 220.441 256.411 220.63C256.837 220.609 257.226 220.747 257.578 221.046C257.929 221.345 258.21 221.864 258.421 222.603C258.509 222.91 258.66 223.732 258.875 225.069C259.09 226.405 259.368 228.023 259.71 229.922C260.083 231.812 260.555 233.757 261.125 235.757C261.213 236.065 261.338 236.329 261.501 236.549C261.655 236.738 261.885 236.788 262.193 236.701C263.424 236.35 264.6 235.748 265.721 234.896C266.865 234.004 267.931 233.017 268.92 231.936C269.932 230.816 270.825 229.746 271.599 228.727C272.395 227.668 273.061 226.795 273.597 226.11C274.156 225.385 274.543 224.992 274.758 224.93C275.805 224.632 276.477 225.006 276.775 226.052C276.854 226.329 276.683 227.01 276.26 228.096C275.86 229.142 275.253 230.396 274.439 231.86C273.616 233.292 272.655 234.764 271.556 236.276C270.478 237.748 269.287 239.053 267.981 240.191C266.706 241.32 265.376 242.082 263.991 242.477C262.298 242.96 260.892 242.929 259.771 242.383C258.681 241.829 257.759 240.927 257.003 239.679C256.27 238.391 255.642 236.889 255.119 235.175C254.191 237.869 253.13 240.334 251.938 242.571C250.768 244.768 249.512 246.607 248.171 248.088C246.83 249.569 245.452 250.511 244.036 250.915ZM253.779 223.128C251.176 225.435 248.942 227.869 247.077 230.431C245.204 232.962 243.849 235.445 243.013 237.88C242.207 240.306 242.072 242.457 242.608 244.334C242.757 244.857 243.078 245.049 243.57 244.908C244.155 244.742 244.828 244.184 245.589 243.234C246.38 242.277 247.187 241.081 248.01 239.649C248.824 238.185 249.602 236.599 250.346 234.889C251.081 233.149 251.73 231.4 252.293 229.642C252.856 227.884 253.237 226.244 253.436 224.724C253.511 224.17 253.625 223.638 253.779 223.128ZM282.466 240.551C279.696 241.341 277.27 241.118 275.187 239.882C273.126 238.607 271.643 236.384 270.739 233.215C270.248 231.491 269.903 229.41 269.706 226.97C269.501 224.5 269.399 221.867 269.4 219.071C269.423 216.236 269.501 213.419 269.634 210.619C269.798 207.81 269.999 205.191 270.237 202.76C270.476 200.329 270.707 198.283 270.932 196.622C271.161 195.325 271.783 194.532 272.799 194.242C273.445 194.058 274.025 194.109 274.54 194.395C275.084 194.672 275.484 195.257 275.739 196.149C275.862 196.58 275.914 197.58 275.896 199.149C275.878 200.718 275.817 202.665 275.715 204.991C275.635 207.276 275.542 209.749 275.435 212.408C275.36 215.059 275.319 217.716 275.314 220.379C275.339 223.034 275.448 225.516 275.64 227.823C275.824 230.1 276.131 231.993 276.561 233.5C276.736 234.116 277.046 234.56 277.49 234.833C277.965 235.097 278.494 235.145 279.079 234.978C280.341 234.618 281.567 234.019 282.759 233.18C283.981 232.332 285.137 231.37 286.228 230.293C287.349 229.208 288.38 228.099 289.322 226.965C290.263 225.831 291.094 224.779 291.815 223.808C292.558 222.797 293.161 221.993 293.623 221.396C294.225 220.591 294.665 220.15 294.942 220.071C295.988 219.772 296.656 220.131 296.946 221.146C297.016 221.393 296.853 221.988 296.457 222.933C296.127 223.759 295.634 224.831 294.979 226.15C294.324 227.468 293.532 228.892 292.604 230.421C291.698 231.911 290.682 233.366 289.556 234.785C288.461 236.195 287.313 237.421 286.113 238.463C284.912 239.504 283.696 240.2 282.466 240.551ZM301.466 234.831C299.773 235.314 298.134 235.283 296.547 234.737C294.97 234.222 293.563 233.259 292.329 231.847C291.125 230.427 290.211 228.625 289.588 226.44C288.921 224.101 288.548 221.745 288.47 219.371C288.383 216.967 288.516 214.749 288.869 212.719C289.212 210.657 289.666 208.981 290.229 207.689C290.814 206.357 291.43 205.599 292.076 205.415C292.753 205.222 293.364 205.264 293.909 205.541C294.484 205.809 294.886 206.343 295.115 207.143C295.15 207.267 295.139 207.752 295.081 208.601C295.046 209.409 294.995 210.455 294.928 211.739C294.853 212.992 294.817 214.383 294.821 215.912C294.816 217.411 294.881 218.923 295.017 220.449C295.183 221.965 295.455 223.385 295.833 224.708C296.289 226.309 296.9 227.515 297.664 228.329C298.429 229.142 299.626 229.316 301.257 228.851C302.919 228.377 304.399 227.439 305.696 226.038C307.024 224.627 308.198 222.911 309.219 220.89C310.231 218.837 311.128 216.618 311.912 214.232C310.347 214.811 308.856 215.303 307.441 215.707C306.487 215.979 305.768 216.084 305.285 216.022C304.792 215.93 304.436 215.732 304.217 215.428C304.028 215.116 303.868 214.729 303.736 214.268C303.551 213.622 303.677 212.953 304.112 212.264C304.548 211.574 305.115 211.112 305.814 210.88C307.111 210.41 308.419 209.92 309.738 209.411C311.087 208.893 312.417 208.364 313.727 207.824C314.225 205.718 314.65 203.65 315.002 201.62C315.377 199.55 315.705 197.609 315.987 195.798C316.124 193.596 316.352 191.535 316.669 189.614C317.008 187.654 317.413 186.041 317.884 184.775C318.355 183.509 318.929 182.78 319.606 182.587C320.406 182.359 321.067 182.403 321.59 182.719C322.144 183.027 322.522 183.535 322.724 184.243C322.785 184.458 322.811 185.133 322.802 186.267C322.793 187.401 322.748 188.878 322.668 190.698C322.619 192.509 322.555 194.557 322.475 196.843C322.416 199.089 322.347 201.471 322.267 203.99C325.05 202.663 327.576 201.427 329.844 200.281C332.144 199.126 334.019 198.175 335.47 197.428C336.921 196.682 337.8 196.264 338.108 196.177C338.723 196.001 339.314 196.148 339.881 196.619C340.439 197.059 340.793 197.54 340.942 198.063C341.03 198.371 340.575 198.934 339.576 199.751C338.609 200.559 337.239 201.532 335.468 202.67C333.718 203.768 331.695 204.961 329.4 206.248C327.127 207.495 324.714 208.716 322.159 209.911C322.114 212.552 322.087 215.139 322.077 217.671C322.089 220.163 322.145 222.46 322.246 224.561C322.276 225.484 322.111 226.247 321.75 226.849C321.412 227.411 320.842 227.806 320.042 228.035C319.211 228.272 318.539 228.247 318.025 227.961C317.519 227.706 317.126 227.086 316.845 226.102C316.819 226.009 316.766 225.475 316.688 224.499C316.631 223.484 316.559 222.24 316.471 220.767C316.406 219.255 316.317 217.717 316.203 216.152C315.107 219.193 313.834 222.019 312.382 224.629C310.93 227.24 309.294 229.437 307.474 231.221C305.653 233.005 303.651 234.208 301.466 234.831ZM292.229 201.927C291.213 202.217 290.295 202.146 289.473 201.715C288.642 201.253 288.104 200.591 287.858 199.73C287.56 198.683 287.69 197.681 288.249 196.723C288.838 195.756 289.671 195.119 290.748 194.812C291.948 194.47 292.948 194.534 293.748 195.005C294.579 195.467 295.148 196.236 295.455 197.313C295.674 198.082 295.494 198.966 294.913 199.963C294.324 200.93 293.429 201.585 292.229 201.927ZM345.048 238.088C343.325 238.58 341.725 238.92 340.248 239.108C338.78 239.328 337.307 239.415 335.83 239.37C334.353 239.326 332.729 239.174 330.958 238.913C330.224 238.79 329.593 238.621 329.066 238.405C328.538 238.189 328.178 237.743 327.985 237.066C327.704 236.081 327.797 235.24 328.263 234.541C328.707 233.882 329.453 233.403 330.499 233.105C331.053 232.947 331.813 232.929 332.78 233.053C333.756 233.207 334.868 233.372 336.116 233.549C337.404 233.747 338.793 233.833 340.283 233.807C341.782 233.812 343.331 233.587 344.932 233.13C346.562 232.665 347.893 231.553 348.922 229.796C349.951 228.038 350.545 225.805 350.705 223.098C350.904 220.412 350.529 217.408 349.581 214.084C349.362 213.315 349.109 212.488 348.824 211.605C348.53 210.69 348.222 209.73 347.902 208.723C347.391 211.132 346.748 213.428 345.974 215.612C345.199 217.797 344.282 219.655 343.222 221.189C342.184 222.683 340.973 223.628 339.588 224.023C337.896 224.506 336.551 224.457 335.553 223.876C334.577 223.256 333.835 222.053 333.326 220.269C332.896 218.761 332.534 217.084 332.24 215.237C331.968 213.352 331.769 211.429 331.642 209.468C331.516 207.508 331.477 205.622 331.526 203.811C331.597 201.96 331.765 200.332 332.029 198.925C332.236 197.901 332.817 197.253 333.771 196.981C334.386 196.806 335.085 196.922 335.867 197.331C336.68 197.732 337.227 198.424 337.508 199.409C337.666 199.963 337.756 200.803 337.777 201.928C337.799 203.053 337.798 204.334 337.776 205.772C337.775 207.169 337.781 208.649 337.794 210.209C337.798 211.739 337.858 213.235 337.977 214.699C338.086 216.132 338.298 217.403 338.615 218.51C338.65 218.633 338.76 218.669 338.944 218.616C339.313 218.511 339.718 218.062 340.158 217.271C340.62 216.441 341.09 215.408 341.57 214.173C342.072 212.899 342.547 211.532 342.996 210.073C343.467 208.574 343.911 207.099 344.33 205.649C344.748 204.199 345.12 202.878 345.445 201.687C345.213 201.221 345.028 200.808 344.892 200.447C344.778 200.047 344.681 199.709 344.602 199.432C344.243 198.17 344.159 197.062 344.353 196.109C344.578 195.146 345.352 194.476 346.675 194.099C347.537 193.853 348.29 193.987 348.936 194.502C349.573 194.985 350.054 195.797 350.379 196.935C350.52 197.428 350.605 198.019 350.636 198.709C350.657 199.368 350.631 200.441 350.555 201.926L350.655 200.351C351.722 203.041 352.655 205.437 353.454 207.539C354.284 209.631 355.002 211.739 355.607 213.862C356.749 217.863 357.059 221.518 356.539 224.827C356.059 228.159 354.831 230.972 352.857 233.265C350.913 235.55 348.31 237.158 345.048 238.088ZM404.113 178.195C404.219 178.565 404.188 178.923 404.021 179.27C403.853 179.617 403.607 179.921 403.282 180.18C402.82 180.544 401.991 181.08 400.796 181.787C399.6 182.495 398.14 183.327 396.417 184.285C394.724 185.233 392.897 186.237 390.936 187.295C388.967 188.323 386.993 189.336 385.014 190.333C385.057 193.515 385.111 196.794 385.175 200.17C385.231 203.515 385.273 206.814 385.303 210.066C385.302 211.231 385.166 212.152 384.893 212.829C384.629 213.536 383.974 214.039 382.928 214.338C381.789 214.663 380.914 214.513 380.304 213.889C379.732 213.286 379.41 212.33 379.336 211.02C379.179 207.438 379.026 204.104 378.878 201.018C378.761 197.923 378.663 195.422 378.584 193.514C376.826 194.349 375.281 195.056 373.949 195.636C372.608 196.185 371.64 196.527 371.047 196.663C370.383 196.786 369.77 196.678 369.208 196.339C368.645 196 368.283 195.488 368.12 194.802C368.006 194.169 368.134 193.567 368.504 192.996C368.864 192.394 369.37 191.95 370.021 191.665C370.948 191.3 372.14 190.811 373.595 190.196C375.05 189.581 376.65 188.892 378.395 188.128C378.348 186.444 378.349 184.697 378.398 182.886C378.438 181.044 378.516 179.275 378.631 177.578C378.768 175.842 378.931 174.315 379.12 172.996C379.31 171.678 379.545 170.695 379.827 170.049C380.051 169.553 380.379 169.127 380.81 168.771C381.272 168.406 381.749 168.154 382.241 168.013C382.887 167.829 383.476 167.91 384.008 168.258C384.54 168.605 384.893 169.087 385.069 169.702C385.139 169.948 385.198 170.214 385.247 170.5C385.286 170.755 385.295 171.019 385.273 171.291C385.127 172.997 385.027 175.038 384.973 177.416C384.95 179.785 384.958 182.379 384.997 185.196C387.208 184.199 389.373 183.216 391.492 182.245C393.633 181.235 395.568 180.317 397.295 179.492C399.045 178.626 400.439 177.913 401.476 177.35C402.03 176.959 402.567 176.856 403.085 177.041C403.595 177.195 403.938 177.58 404.113 178.195ZM402.224 205.048C401.455 205.267 400.714 205.179 400.002 204.783C399.321 204.379 398.832 203.653 398.533 202.607C398.401 202.145 398.248 201.374 398.072 200.292C397.919 199.171 397.753 197.888 397.573 196.442C397.424 194.987 397.242 193.475 397.028 191.905C396.844 190.327 396.635 188.839 396.403 187.441C396.201 186.035 395.995 184.846 395.785 183.874C395.513 182.687 395.583 181.769 395.997 181.118C396.401 180.437 396.988 179.987 397.758 179.767C398.373 179.592 398.971 179.588 399.551 179.755C400.153 179.883 400.648 180.39 401.034 181.279C401.442 182.127 401.827 183.415 402.186 185.143C402.838 182.295 403.58 179.704 404.411 177.37C405.274 175.028 406.312 173.068 407.526 171.49C409.527 168.823 411.558 167.195 413.62 166.607C414.789 166.273 415.633 166.315 416.152 166.733C416.67 167.151 417.009 167.637 417.167 168.191C417.272 168.56 417.276 168.925 417.179 169.285C417.113 169.637 416.867 170.057 416.44 170.544C416.014 171.032 415.341 171.706 414.422 172.568C413.186 173.719 412.032 175.096 410.959 176.7C409.916 178.295 408.971 180.229 408.121 182.501C407.272 184.773 406.53 187.481 405.896 190.623C405.262 193.766 404.731 197.445 404.303 201.66C404.324 202.785 404.122 203.592 403.695 204.079C403.299 204.558 402.809 204.881 402.224 205.048ZM420.281 200.637C419.296 200.918 418.324 200.896 417.366 200.57C416.417 200.275 415.589 199.763 414.881 199.033C414.165 198.272 413.662 197.384 413.372 196.369C412.828 194.461 412.713 192.481 413.025 190.428C413.369 188.367 414.001 186.323 414.92 184.297C415.84 182.271 416.922 180.348 418.166 178.529C419.433 176.67 420.742 175.016 422.092 173.566C423.472 172.107 424.761 170.908 425.957 169.968C427.183 169.019 428.181 168.434 428.951 168.215C429.843 167.96 430.623 167.954 431.291 168.196C431.981 168.399 432.441 168.9 432.669 169.7C432.739 169.946 432.735 170.164 432.655 170.353C433.082 170.331 433.471 170.47 433.822 170.769C434.174 171.068 434.455 171.586 434.665 172.325C434.753 172.633 434.905 173.455 435.119 174.791C435.334 176.127 435.613 177.745 435.955 179.644C436.328 181.534 436.799 183.479 437.37 185.48C437.458 185.787 437.583 186.051 437.745 186.271C437.899 186.46 438.13 186.511 438.438 186.423C439.669 186.072 440.845 185.47 441.966 184.618C443.109 183.726 444.175 182.74 445.165 181.659C446.176 180.538 447.069 179.468 447.843 178.449C448.639 177.39 449.305 176.518 449.842 175.832C450.4 175.107 450.787 174.714 451.003 174.652C452.049 174.354 452.721 174.728 453.02 175.774C453.099 176.051 452.927 176.732 452.505 177.818C452.104 178.864 451.497 180.119 450.683 181.582C449.861 183.015 448.9 184.487 447.8 185.998C446.723 187.47 445.531 188.775 444.225 189.913C442.95 191.042 441.62 191.804 440.235 192.199C438.543 192.682 437.136 192.651 436.016 192.105C434.926 191.551 434.003 190.65 433.248 189.401C432.514 188.113 431.886 186.612 431.364 184.897C430.435 187.591 429.375 190.057 428.183 192.293C427.013 194.491 425.757 196.33 424.416 197.81C423.074 199.291 421.696 200.234 420.281 200.637ZM430.024 172.851C427.42 175.157 425.187 177.591 423.322 180.153C421.448 182.684 420.093 185.167 419.257 187.602C418.452 190.028 418.317 192.18 418.852 194.057C419.002 194.58 419.322 194.771 419.815 194.631C420.4 194.464 421.072 193.906 421.833 192.957C422.625 191.999 423.432 190.804 424.254 189.371C425.068 187.908 425.847 186.321 426.59 184.612C427.325 182.871 427.974 181.122 428.537 179.364C429.101 177.606 429.482 175.967 429.68 174.446C429.755 173.892 429.87 173.36 430.024 172.851ZM457.072 190.441C455.38 190.924 453.74 190.892 452.154 190.347C450.576 189.832 449.17 188.869 447.935 187.457C446.732 186.037 445.818 184.234 445.195 182.05C444.528 179.711 444.155 177.355 444.077 174.981C443.99 172.577 444.123 170.359 444.475 168.329C444.819 166.267 445.272 164.59 445.835 163.298C446.421 161.967 447.036 161.209 447.682 161.024C448.359 160.831 448.97 160.873 449.515 161.151C450.091 161.419 450.493 161.953 450.721 162.753C450.756 162.876 450.745 163.362 450.688 164.21C450.652 165.019 450.601 166.065 450.535 167.349C450.46 168.601 450.424 169.993 450.428 171.522C450.423 173.021 450.488 174.533 450.624 176.058C450.79 177.575 451.062 178.995 451.439 180.318C451.896 181.918 452.506 183.125 453.271 183.939C454.035 184.752 455.233 184.926 456.864 184.461C458.526 183.987 460.005 183.049 461.302 181.647C462.63 180.237 463.805 178.521 464.825 176.499C465.837 174.447 466.735 172.228 467.518 169.841C465.953 170.421 464.463 170.913 463.047 171.316C462.093 171.588 461.375 171.694 460.891 171.632C460.399 171.539 460.043 171.341 459.823 171.038C459.634 170.726 459.474 170.339 459.342 169.877C459.158 169.231 459.284 168.563 459.719 167.873C460.154 167.183 460.722 166.722 461.421 166.489C462.718 166.02 464.025 165.53 465.344 165.021C466.694 164.503 468.024 163.973 469.334 163.433C469.831 161.328 470.256 159.26 470.609 157.23C470.983 155.159 471.312 153.219 471.594 151.408C471.731 149.206 471.958 147.145 472.275 145.224C472.615 143.264 473.02 141.651 473.49 140.385C473.961 139.119 474.535 138.39 475.212 138.197C476.012 137.968 476.674 138.012 477.197 138.329C477.75 138.637 478.128 139.145 478.33 139.853C478.392 140.068 478.418 140.743 478.408 141.877C478.399 143.011 478.355 144.488 478.275 146.308C478.226 148.118 478.161 150.167 478.081 152.452C478.023 154.699 477.954 157.081 477.874 159.599C480.657 158.273 483.182 157.037 485.451 155.891C487.75 154.735 489.625 153.785 491.076 153.038C492.527 152.291 493.406 151.874 493.714 151.786C494.33 151.611 494.921 151.758 495.488 152.229C496.046 152.669 496.399 153.15 496.548 153.673C496.636 153.981 496.181 154.543 495.183 155.36C494.216 156.169 492.846 157.142 491.074 158.28C489.324 159.378 487.302 160.57 485.007 161.857C482.734 163.105 480.32 164.326 477.766 165.52C477.721 168.162 477.693 170.749 477.684 173.281C477.696 175.773 477.752 178.069 477.852 180.171C477.883 181.094 477.717 181.856 477.357 182.458C477.018 183.021 476.449 183.416 475.649 183.644C474.818 183.881 474.145 183.857 473.631 183.571C473.126 183.316 472.733 182.696 472.452 181.711C472.425 181.619 472.373 181.085 472.294 180.109C472.237 179.094 472.165 177.85 472.078 176.377C472.013 174.865 471.923 173.327 471.81 171.762C470.714 174.803 469.44 177.629 467.989 180.239C466.537 182.849 464.901 185.047 463.08 186.83C461.26 188.614 459.257 189.818 457.072 190.441ZM447.836 157.537C446.82 157.826 445.901 157.756 445.08 157.325C444.249 156.863 443.711 156.201 443.465 155.339C443.167 154.293 443.297 153.291 443.855 152.333C444.445 151.366 445.278 150.729 446.355 150.422C447.555 150.08 448.555 150.144 449.355 150.614C450.185 151.076 450.754 151.846 451.062 152.923C451.281 153.692 451.1 154.575 450.52 155.573C449.93 156.54 449.036 157.194 447.836 157.537Z" fill="#588DCA"/>
</svg>
