<svg width="516" height="278" viewBox="0 0 516 278" fill="none" xmlns="http://www.w3.org/2000/svg">
<path d="M15.5585 130.971C13.6059 131.322 11.9093 130.928 10.4687 129.79C9.0225 128.619 8.0244 126.507 7.47442 123.452C7.12289 121.499 6.99182 119.507 7.08121 117.475C7.19641 115.406 7.50468 113.416 8.00601 111.505C8.53316 109.557 9.22314 107.79 10.0759 106.206C10.9602 104.616 12.0086 103.306 13.2211 102.275C14.4279 101.212 15.7557 100.55 17.2044 100.29C19.6609 99.8473 21.7011 100.163 23.325 101.236C24.9488 102.309 25.945 103.869 26.3135 105.917C26.597 107.491 26.4141 109.004 25.7647 110.454C25.1412 111.866 24.18 113.21 22.8813 114.484C21.5825 115.759 20.0935 116.97 18.4143 118.117C16.7351 119.265 14.9944 120.342 13.1924 121.35C13.239 122.512 13.3417 123.534 13.5005 124.416C13.5969 124.951 13.9443 125.165 14.5426 125.057C15.9599 124.802 17.4319 124.309 18.9587 123.579C20.5113 122.812 22.057 121.916 23.5957 120.891C25.1288 119.835 26.5961 118.774 27.9976 117.709C29.3933 116.612 30.6559 115.588 31.7852 114.637C32.9404 113.649 33.8877 112.86 34.6272 112.272C35.3924 111.647 35.9011 111.311 36.153 111.266C36.8459 111.141 37.3866 111.255 37.7753 111.608C38.1639 111.961 38.4008 112.373 38.4858 112.846C38.5255 113.066 38.1882 113.631 37.474 114.54C36.7912 115.443 35.819 116.545 34.5574 117.845C33.3216 119.108 31.9054 120.452 30.3087 121.877C28.7378 123.266 27.0797 124.621 25.3344 125.943C23.6148 127.228 21.9085 128.315 20.2154 129.206C18.5595 130.121 17.0072 130.71 15.5585 130.971ZM13.2386 117.001C14.3937 116.012 15.5275 114.995 16.6398 113.95C17.778 112.867 18.6787 111.729 19.3419 110.537C19.9994 109.313 20.2006 107.993 19.9455 106.575C19.8718 106.166 19.7134 105.918 19.4702 105.832C19.2214 105.714 18.8923 105.692 18.4829 105.766C17.3806 105.964 16.4607 106.634 15.7232 107.774C15.0171 108.909 14.4565 110.311 14.0415 111.979C13.6523 113.61 13.3846 115.284 13.2386 117.001ZM35.144 124.811C34.3881 124.947 33.7916 124.794 33.3545 124.353C32.9117 123.88 32.6509 123.244 32.5721 122.445C32.5242 121.999 32.7573 121.306 33.2712 120.368C33.7795 119.399 34.467 118.251 35.3337 116.925C36.1947 115.567 37.1517 114.11 38.2048 112.555C39.2838 110.962 40.3914 109.349 41.5276 107.713C39.3362 105.474 37.6607 103.662 36.501 102.278C35.3729 100.888 34.6979 99.7576 34.4762 98.8871C34.2374 97.9221 34.2532 97.1064 34.5234 96.44C34.8251 95.7679 35.4168 95.3525 36.2986 95.1938C36.8025 95.103 37.3647 95.2457 37.9851 95.6217C38.6371 95.9921 39.5016 96.7306 40.5787 97.8372C41.6873 98.9382 43.173 100.508 45.0356 102.546C46.8174 99.9818 48.2793 97.8978 49.4212 96.2941C50.589 94.6532 51.53 93.3783 52.2442 92.4694C52.99 91.5548 53.5735 90.9132 53.9949 90.5447C54.4478 90.1706 54.8474 89.9523 55.1939 89.8899C55.9497 89.7539 56.5333 89.9252 56.9446 90.4039C57.3818 90.8454 57.6426 91.4813 57.727 92.3114C57.7831 92.9841 57.534 93.8581 56.9797 94.9333C56.4513 95.9714 55.7351 97.1408 54.8313 98.4415C53.9218 99.7107 52.9263 101.044 51.8449 102.442C50.7892 103.802 49.7622 105.142 48.7639 106.459C51.2155 108.879 53.4787 110.975 55.5536 112.748C57.6542 114.483 59.3619 115.931 60.6765 117.093C61.9854 118.223 62.7123 119.1 62.8572 119.724C63.0392 120.374 62.9596 120.925 62.6182 121.377C62.3083 121.823 61.7912 122.111 61.0668 122.241C60.6574 122.315 60.128 122.264 59.4786 122.088C58.8292 121.912 57.9212 121.474 56.7547 120.774C55.6196 120.068 54.1217 118.972 52.261 117.486C50.4261 115.963 48.1028 113.894 45.2909 111.279C44.2378 112.834 43.1847 114.389 42.1316 115.945C41.11 117.494 40.1343 118.938 39.2047 120.276C38.3008 121.576 37.4861 122.65 36.7605 123.496C36.0608 124.304 35.5219 124.743 35.144 124.811ZM71.9086 120.533C70.145 120.851 68.5438 120.716 67.1052 120.13C65.6722 119.575 64.4959 118.73 63.5762 117.595C62.6509 116.429 62.0663 115.168 61.8225 113.814C61.4143 111.546 61.3837 109.39 61.7307 107.344C62.072 105.267 62.6678 103.338 63.5181 101.56C64.3627 99.7494 65.3358 98.1111 66.4374 96.6447C67.5705 95.1726 68.6933 93.9138 69.8056 92.8681C70.9438 91.7853 71.9799 90.9485 72.914 90.3577C73.8424 89.7353 74.5428 89.3816 75.0152 89.2966C75.8655 89.1435 76.4979 89.2247 76.9124 89.5403C77.3527 89.8187 77.6466 90.3673 77.794 91.1861C77.879 91.6585 77.6346 92.2878 77.0608 93.0739C76.5185 93.8543 75.7728 94.7689 74.8236 95.8177C73.9059 96.8608 72.9451 98.0255 71.9411 99.3117C70.9371 100.598 70.003 102.002 69.1389 103.523C68.3062 105.038 67.6852 106.646 67.2758 108.345C66.898 110.039 66.8763 111.815 67.2108 113.673C67.3355 114.366 67.5579 114.879 67.8779 115.211C68.2294 115.538 68.72 115.645 69.3499 115.531C71.1451 115.208 73.0095 114.547 74.9432 113.549C76.9027 112.513 78.8181 111.323 80.6894 109.978C82.5866 108.596 84.3521 107.206 85.986 105.806C87.6513 104.401 89.0688 103.154 90.2385 102.065C90.7058 101.591 91.1086 101.21 91.4468 100.921C91.7851 100.633 92.0329 100.474 92.1904 100.446C93.1352 100.276 93.6955 100.679 93.8713 101.655C93.962 102.159 93.706 102.904 93.1032 103.891C92.4198 105.152 91.4272 106.501 90.1253 107.938C88.8548 109.37 87.4027 110.786 85.7688 112.185C84.1665 113.579 82.497 114.872 80.7605 116.062C79.0554 117.247 77.4294 118.239 75.8825 119.037C74.3355 119.836 73.0109 120.335 71.9086 120.533ZM91.8671 119.379C90.4184 119.64 89.3054 119.417 88.5281 118.712C87.7508 118.006 87.2204 116.866 86.9369 115.292C86.6761 113.843 86.6036 111.905 86.7194 109.478C86.8611 107.014 87.1278 104.251 87.5195 101.189C87.937 98.0902 88.4505 94.8926 89.0602 91.5965C89.6641 88.2688 90.3267 84.9956 91.0478 81.7769C91.7632 78.5267 92.4925 75.5342 93.2357 72.7992C93.6042 71.5949 94.0665 70.7313 94.6226 70.2085C95.1788 69.6857 95.8348 69.3562 96.5907 69.2202C97.315 69.0898 97.966 69.1839 98.5436 69.5026C99.1155 69.7898 99.478 70.3586 99.6311 71.2089C99.6651 71.3979 99.5436 72.1676 99.2665 73.518C98.9837 74.837 98.6115 76.5623 98.1499 78.6938C97.6826 80.7938 97.1819 83.16 96.6478 85.7922C96.1081 88.393 95.5882 91.104 95.0882 93.9253C94.5825 96.715 94.1656 99.4562 93.8375 102.149C93.5094 104.842 93.3047 107.317 93.2236 109.575C94.0594 107.897 94.9455 106.046 95.8821 104.024C96.8445 101.965 97.8255 99.9191 98.825 97.8858C99.8504 95.8154 100.873 93.9081 101.892 92.1639C102.942 90.4141 103.952 88.9805 104.922 87.863C105.891 86.7456 106.801 86.1103 107.651 85.9573C109.226 85.6738 110.565 85.8879 111.669 86.5996C112.798 87.2742 113.553 88.6665 113.932 90.7766C114.108 91.7529 114.132 92.9679 114.003 94.4217C113.869 95.8439 113.671 97.3591 113.407 98.9672C113.17 100.538 112.987 102.05 112.859 103.504C112.73 104.958 112.759 106.205 112.947 107.244C113.049 107.811 113.367 108.046 113.903 107.95C115.446 107.672 116.945 107.06 118.401 106.116C119.888 105.165 121.268 104.071 122.541 102.834C123.84 101.56 125 100.327 126.021 99.135C127.067 97.9061 127.909 96.8929 128.546 96.0955C128.991 95.4952 129.419 95.0766 129.832 94.8398C130.239 94.5714 130.631 94.4032 131.009 94.3352C132.3 94.1027 133.062 94.6321 133.295 95.9234C133.34 96.1753 133.35 96.4988 133.323 96.8937C133.291 97.2571 133.071 97.7519 132.664 98.378C132.256 99.0041 131.636 99.8961 130.804 101.054C129.972 102.212 128.978 103.463 127.823 104.81C126.698 106.15 125.44 107.466 124.046 108.757C122.679 110.011 121.233 111.101 119.709 112.025C118.184 112.95 116.651 113.551 115.108 113.829C112.777 114.249 110.863 113.91 109.365 112.815C107.873 111.75 106.925 110.1 106.523 107.864C106.245 106.321 106.211 104.327 106.421 101.883C106.626 99.4077 106.901 96.8708 107.246 94.2726C106.337 95.5418 105.417 97.0243 104.486 98.7199C103.55 100.384 102.616 102.146 101.682 104.004C100.743 105.832 99.8171 107.64 98.9038 109.431C98.0163 111.183 97.1535 112.802 96.3151 114.286C95.4711 115.739 94.6763 116.922 93.9305 117.837C93.1848 118.751 92.497 119.265 91.8671 119.379ZM130.25 108.86C128.265 109.217 126.709 108.879 125.58 107.847C124.477 106.777 123.756 105.298 123.416 103.408C123.092 101.613 123.174 99.81 123.661 97.9991C124.142 96.1567 124.905 94.3448 125.95 92.5635C126.995 90.7822 128.217 89.0828 129.617 87.4652C131.011 85.8161 132.446 84.306 133.922 82.9347C135.424 81.5262 136.879 80.3052 138.286 79.2715C139.688 78.2063 140.918 77.367 141.979 76.7534C143.039 76.1399 143.821 75.7878 144.324 75.6971C144.86 75.6007 145.326 75.663 145.724 75.8841C146.147 76.068 146.427 76.5379 146.563 77.2937C146.705 78.0811 146.517 78.8464 146.001 79.5897C145.484 80.3329 144.809 81.0072 143.975 81.6126C142.797 82.4749 141.472 83.5102 139.998 84.7183C138.551 85.8893 137.111 87.1891 135.677 88.6177C134.243 90.0463 132.95 91.5309 131.797 93.0717C130.675 94.6067 129.816 96.1594 129.221 97.7297C128.62 99.2685 128.45 100.762 128.711 102.211C128.768 102.526 128.876 102.767 129.036 102.933C129.196 103.099 129.481 103.145 129.89 103.072C130.426 102.975 131.089 102.596 131.88 101.933C132.666 101.239 133.501 100.373 134.388 99.3357C135.268 98.2668 136.134 97.1191 136.987 95.8927C137.833 94.6348 138.601 93.3911 139.29 92.1616C140.005 90.8949 140.576 89.7353 141.005 88.6827C141.315 87.879 141.727 87.1871 142.241 86.6069C142.785 86.0211 143.388 85.6687 144.05 85.5496C144.585 85.4532 145.054 85.5313 145.458 85.7839C145.887 85.9993 146.169 86.4849 146.305 87.2408C146.351 87.4927 146.442 88.0939 146.581 89.0444C146.714 89.9634 146.868 91.0899 147.043 92.424C147.244 93.7209 147.472 95.078 147.727 96.4952C147.948 97.7235 148.251 98.7744 148.636 99.648C149.047 100.484 149.646 100.832 150.433 100.69C151.378 100.52 152.295 100.014 153.184 99.1708C154.067 98.2965 154.887 97.2546 155.645 96.0452C156.428 94.7987 157.122 93.5033 157.725 92.1592C158.329 90.815 158.817 89.5565 159.192 88.3836C159.591 87.1736 159.858 86.2153 159.991 85.5085C159.901 82.6634 160.045 80.3939 160.423 78.7002C160.795 76.9749 161.316 75.7107 161.984 74.9076C162.684 74.0989 163.412 73.6264 164.167 73.4903C165.018 73.3373 165.763 73.4144 166.404 73.7218C167.076 74.0235 167.548 74.9301 167.82 76.4418C167.962 77.2292 167.844 78.4697 167.466 80.1635C167.088 81.8572 166.518 83.7481 165.756 85.8362C165.759 87.2988 165.865 88.7916 166.075 90.3146C166.284 91.8377 166.633 93.2379 167.123 94.5153C167.866 93.7638 168.573 92.726 169.245 91.402C169.912 90.0465 170.555 88.565 171.176 86.9576C171.792 85.3186 172.407 83.6796 173.023 82.0407C173.632 80.3702 174.249 78.8286 174.872 77.4157C175.527 75.9972 176.196 74.8364 176.879 73.9331C177.588 72.9927 178.351 72.4487 179.17 72.3013C180.02 72.1482 180.82 72.1668 181.57 72.357C182.345 72.51 183.046 72.9692 183.671 73.7345C184.323 74.4626 184.913 75.5756 185.443 77.0734C185.999 78.5341 186.497 80.4927 186.94 82.9492C187.172 84.2404 187.525 85.4775 187.998 86.6604C188.465 87.8118 189.069 88.7273 189.809 89.4069C190.544 90.055 191.446 90.2827 192.517 90.0899C194.249 89.7781 195.741 89.2168 196.994 88.4061C198.24 87.564 199.296 86.6585 200.162 85.6897C201.029 84.7209 201.741 83.8936 202.301 83.2076C202.886 82.4845 203.367 82.0889 203.745 82.0209C204.375 81.9075 204.881 82.0114 205.264 82.3326C205.673 82.6167 205.926 83.0264 206.022 83.5618C206.079 83.8767 205.91 84.4761 205.517 85.3598C205.149 86.2064 204.593 87.1843 203.85 88.2935C203.133 89.3656 202.255 90.4503 201.217 91.5475C200.205 92.6076 199.088 93.5402 197.868 94.3452C196.647 95.1503 195.36 95.6747 194.005 95.9185C191.549 96.3607 189.438 96.2855 187.673 95.6928C185.934 95.063 184.481 93.7639 183.314 91.7956C182.172 89.7901 181.276 86.9765 180.624 83.3547C180.584 83.1342 180.547 82.9295 180.513 82.7406C180.479 82.5516 180.445 82.3626 180.411 82.1737C180.269 81.3863 180.132 80.7121 179.998 80.1508C179.896 79.584 179.738 79.1572 179.524 78.8706C179.173 79.8117 178.752 80.993 178.26 82.4147C177.799 83.8306 177.277 85.3553 176.693 86.9886C176.109 88.6219 175.46 90.2507 174.744 91.8752C174.06 93.494 173.338 94.9897 172.577 96.3622C171.816 97.7347 171.013 98.8711 170.167 99.7712C169.352 100.666 168.52 101.189 167.67 101.342C167.04 101.456 166.29 101.266 165.421 100.772C164.583 100.272 163.816 99.5326 163.119 98.5526C162.417 97.541 161.941 96.3424 161.692 94.9566C160.644 96.9011 159.523 98.7123 158.329 100.39C157.13 102.037 155.896 103.397 154.626 104.471C153.393 105.571 152.147 106.234 150.887 106.461C149.848 106.648 148.786 106.53 147.702 106.108C146.65 105.679 145.638 104.756 144.667 103.338C143.697 101.919 142.862 99.8098 142.162 97.0094C141.017 99.134 139.768 101.049 138.417 102.756C137.098 104.457 135.737 105.839 134.336 106.905C132.966 107.964 131.604 108.616 130.25 108.86ZM206.295 109.02C203.933 109.445 202.107 109.595 200.816 109.47C199.557 109.339 198.656 109.03 198.113 108.542C197.576 108.086 197.256 107.575 197.154 107.008C197.012 106.221 197.148 105.53 197.561 104.935C198.006 104.335 198.653 103.958 199.504 103.805C200.071 103.703 200.904 103.634 202.003 103.599C203.102 103.564 204.187 103.45 205.258 103.257C208.407 102.69 210.869 101.466 212.644 99.5861C214.425 97.7373 215.626 95.1964 216.246 91.9632C216.862 88.6985 216.973 84.7117 216.581 80.0027C215.048 83.9527 213.152 87.2367 210.892 89.8545C208.664 92.4667 206.132 94.0279 203.298 94.5382C199.96 95.1392 197.996 93.802 197.406 90.5267C197.122 88.952 197.25 87.222 197.788 85.3368C198.327 83.4515 199.152 81.531 200.263 79.5752C201.374 77.6194 202.643 75.7326 204.072 73.9147C205.495 72.0653 206.952 70.4049 208.443 68.9335C209.965 67.4564 211.407 66.2539 212.768 65.3261C214.123 64.3667 215.258 63.8048 216.171 63.6404C216.895 63.51 217.548 63.5226 218.129 63.6782C218.741 63.8281 219.273 64.2526 219.724 64.9517C220.169 65.6194 220.519 66.6618 220.774 68.079C221.483 72.0157 222.027 75.852 222.407 79.5878C222.782 83.2921 222.84 86.7769 222.582 90.0422C222.325 93.3075 221.619 96.2471 220.463 98.8612C219.34 101.47 217.634 103.646 215.347 105.391C213.06 107.136 210.043 108.346 206.295 109.02ZM203.283 88.4932C203.322 88.7137 203.437 88.8069 203.626 88.7729C204.255 88.6595 205.046 88.1757 205.998 87.3216C206.944 86.436 207.929 85.3157 208.953 83.9608C210.003 82.5687 210.999 81.0564 211.941 79.4237C212.877 77.7595 213.662 76.0736 214.298 74.366C214.965 72.6527 215.373 71.0349 215.521 69.5125C214.054 70.7521 212.551 72.1606 211.014 73.7378C209.503 75.2779 208.104 76.8955 206.816 78.5905C205.559 80.2799 204.582 81.9841 203.883 83.703C203.211 85.3848 203.01 86.9815 203.283 88.4932ZM235.432 91.3867C233.479 91.7383 231.783 91.3447 230.342 90.2059C228.896 89.0356 227.898 86.923 227.348 83.8681C226.996 81.9155 226.865 79.9232 226.955 77.8912C227.07 75.8221 227.378 73.832 227.879 71.9209C228.407 69.9727 229.097 68.2065 229.949 66.6223C230.834 65.0325 231.882 63.722 233.095 62.6909C234.301 61.6282 235.629 60.9665 237.078 60.7057C239.534 60.2634 241.575 60.5789 243.198 61.6522C244.822 62.7255 245.818 64.2857 246.187 66.3327C246.47 67.9074 246.288 69.4198 245.638 70.8698C245.015 72.2826 244.053 73.6262 242.755 74.9004C241.456 76.1747 239.967 77.3857 238.288 78.5334C236.608 79.6811 234.868 80.7585 233.066 81.7658C233.112 82.9279 233.215 83.9498 233.374 84.8317C233.47 85.3671 233.818 85.5809 234.416 85.4732C235.833 85.218 237.305 84.7254 238.832 83.9954C240.385 83.2281 241.93 82.3321 243.469 81.3072C245.002 80.2509 246.47 79.1901 247.871 78.1249C249.267 77.0283 250.529 76.0044 251.659 75.0532C252.814 74.0649 253.761 73.2766 254.501 72.6883C255.266 72.0628 255.774 71.7274 256.026 71.682C256.719 71.5573 257.26 71.6713 257.649 72.024C258.037 72.3767 258.274 72.7893 258.359 73.2617C258.399 73.4821 258.062 74.0468 257.347 74.9558C256.665 75.859 255.692 76.9607 254.431 78.2608C253.195 79.5237 251.779 80.8679 250.182 82.2934C248.611 83.6817 246.953 85.0369 245.208 86.3591C243.488 87.6441 241.782 88.7316 240.089 89.6217C238.433 90.5376 236.881 91.1259 235.432 91.3867ZM233.112 77.4168C234.267 76.4285 235.401 75.4115 236.513 74.3659C237.651 73.2831 238.552 72.1455 239.215 70.9531C239.873 69.7292 240.074 68.4087 239.819 66.9915C239.745 66.582 239.587 66.3342 239.344 66.2479C239.095 66.1301 238.766 66.1081 238.356 66.1818C237.254 66.3802 236.334 67.0498 235.597 68.1906C234.891 69.3256 234.33 70.7271 233.915 72.395C233.526 74.0258 233.258 75.6997 233.112 77.4168ZM276.206 84.8753C274.852 85.1191 273.857 85.1031 273.222 84.8272C272.619 84.5457 272.252 84.0427 272.121 83.3184C272.008 82.6885 272.132 82.1134 272.494 81.5931C272.85 81.0413 273.741 80.3932 275.167 79.6486C276.835 78.7957 278.393 77.8811 279.843 76.9047C281.319 75.8912 282.484 74.8686 283.339 73.8368C284.225 72.7994 284.583 71.8083 284.413 70.8634C284.3 70.2336 283.997 69.8166 283.505 69.6125C283.045 69.4028 282.531 69.349 281.964 69.451C281.492 69.5361 280.813 69.7395 279.928 70.0614C279.069 70.3462 278.124 70.6951 277.093 71.1084C276.056 71.4901 275.048 71.8504 274.068 72.1893C273.115 72.4911 272.292 72.7043 271.599 72.829C269.961 73.1239 268.683 72.98 267.766 72.3974C266.842 71.7833 266.276 70.8936 266.066 69.7283C265.952 69.0984 266.127 68.1728 266.59 66.9515C267.053 65.7301 267.716 64.3589 268.581 62.8377C269.445 61.3165 270.435 59.7727 271.551 58.2061C272.667 56.6396 273.819 55.1804 275.006 53.8287C276.219 52.4398 277.396 51.3012 278.537 50.4131C279.672 49.4934 280.68 48.9542 281.562 48.7955C282.57 48.614 283.43 48.7844 284.141 49.3065C284.885 49.823 285.353 50.6166 285.545 51.6874C285.636 52.1913 285.688 52.751 285.701 53.3664C285.709 53.9503 285.566 54.5124 285.273 55.0529C284.975 55.5618 284.449 55.9816 283.696 56.3124C282.942 56.6431 281.866 56.8043 280.466 56.7962C279.537 57.7763 278.575 58.8437 277.58 59.9983C276.611 61.1157 275.713 62.269 274.886 63.4583C274.054 64.616 273.393 65.7268 272.901 66.7907C273.999 66.203 275.267 65.6657 276.708 65.1787C278.143 64.6603 279.616 64.265 281.128 63.9928C282.954 63.664 284.494 63.7282 285.747 64.1854C287.026 64.6055 288.029 65.3028 288.757 66.2772C289.517 67.2459 290.013 68.3759 290.245 69.6671C290.506 71.1158 290.295 72.6496 289.611 74.2684C288.927 75.8872 287.905 77.4367 286.546 78.917C285.187 80.3972 283.612 81.6725 281.821 82.7427C280.03 83.8129 278.159 84.5238 276.206 84.8753ZM300.412 79.6884C298.459 80.04 296.762 79.6463 295.322 78.5076C293.876 77.3373 292.878 75.2247 292.328 72.1698C291.976 70.2172 291.845 68.2249 291.934 66.1929C292.05 64.1238 292.358 62.1337 292.859 60.2226C293.386 58.2744 294.076 56.5082 294.929 54.924C295.813 53.3342 296.862 52.0237 298.074 50.9925C299.281 49.9299 300.609 49.2682 302.058 49.0074C304.514 48.5651 306.554 48.8806 308.178 49.9539C309.802 51.0272 310.798 52.5873 311.167 54.6344C311.45 56.2091 311.267 57.7215 310.618 59.1715C309.994 60.5843 309.033 61.9278 307.734 63.2021C306.436 64.4764 304.947 65.6874 303.267 66.8351C301.588 67.9828 299.848 69.0602 298.046 70.0674C298.092 71.2296 298.195 72.2515 298.354 73.1334C298.45 73.6688 298.797 73.8826 299.396 73.7749C300.813 73.5197 302.285 73.0271 303.812 72.297C305.364 71.5298 306.91 70.6338 308.449 69.6089C309.982 68.5526 311.449 67.4918 312.851 66.4266C314.246 65.33 315.509 64.3061 316.638 63.3549C317.794 62.3666 318.741 61.5783 319.48 60.99C320.246 60.3645 320.754 60.0291 321.006 59.9837C321.699 59.859 322.24 59.9729 322.628 60.3257C323.017 60.6784 323.254 61.091 323.339 61.5634C323.379 61.7838 323.041 62.3485 322.327 63.2574C321.644 64.1607 320.672 65.2624 319.411 66.5625C318.175 67.8254 316.759 69.1696 315.162 70.5951C313.591 71.9834 311.933 73.3386 310.188 74.6608C308.468 75.9458 306.762 77.0333 305.069 77.9234C303.413 78.8393 301.86 79.4276 300.412 79.6884ZM298.092 65.7185C299.247 64.7301 300.381 63.7132 301.493 62.6675C302.631 61.5847 303.532 60.4472 304.195 59.2548C304.853 58.0309 305.054 56.7104 304.799 55.2932C304.725 54.8837 304.567 54.6359 304.323 54.5496C304.075 54.4318 303.745 54.4098 303.336 54.4835C302.234 54.6819 301.314 55.3515 300.576 56.4922C299.87 57.6273 299.31 59.0288 298.895 60.6967C298.505 62.3275 298.238 64.0014 298.092 65.7185ZM359.933 66.1927C360.051 67.9274 359.196 68.9592 357.369 69.288C356.424 69.4581 355.618 69.3108 354.949 68.8459C354.311 68.3754 353.896 67.6048 353.703 66.534C353.374 64.7074 353.102 62.7406 352.885 60.6336C352.694 58.4895 352.532 56.324 352.398 54.1371C352.296 51.9445 352.195 49.8492 352.096 47.8512C351.257 49.693 350.363 51.5934 349.415 53.5523C348.467 55.5113 347.511 57.423 346.546 59.2875C345.581 61.1519 344.635 62.8504 343.708 64.3829C342.807 65.8783 341.955 67.1047 341.151 68.0621C340.343 68.9881 339.623 69.5077 338.994 69.6211C337.482 69.8933 336.076 69.5774 334.775 68.6736C333.469 67.7383 332.659 66.4045 332.348 64.6724C332.24 64.074 332.158 63.2596 332.103 62.2291C332.042 61.1671 332.001 60.0365 331.98 58.8372C331.959 57.6379 331.918 56.5073 331.857 55.4453C331.796 54.3834 331.711 53.5532 331.604 52.9548C331.604 52.9548 331.598 52.9233 331.587 52.8603C331.59 52.6972 331.544 52.6241 331.45 52.6411C331.324 52.6638 331.054 53.1513 330.64 54.1037C330.221 55.0246 329.72 56.2201 329.14 57.6903C328.559 59.1604 327.942 60.7021 327.29 62.3152C326.669 63.9227 326.078 65.4272 325.518 66.8287C324.989 68.2245 324.534 69.3142 324.155 70.0978C323.655 71.2933 323.131 72.0866 322.584 72.4778C322.037 72.869 321.369 73.1354 320.582 73.2772C319.48 73.4756 318.548 73.2694 317.788 72.6584C317.054 72.0103 316.565 71.0091 316.321 69.6549C316.219 69.088 316.154 68.1891 316.128 66.9584C316.133 65.7219 316.163 64.351 316.217 62.8456C316.265 61.3087 316.322 59.819 316.388 58.3766C316.479 56.897 316.563 55.6464 316.639 54.6247C316.69 53.2825 316.922 52.314 317.335 51.7194C317.774 51.0876 318.403 50.698 319.222 50.5506C321.143 50.2047 322.274 50.9766 322.614 52.8662C322.676 53.2127 322.668 53.7994 322.589 54.6264C322.511 55.4535 322.407 56.415 322.279 57.511C322.152 58.607 322.014 59.7373 321.866 60.9019C321.712 62.0351 321.61 63.0939 321.56 64.0784C322.077 62.6196 322.641 61.055 323.251 59.3845C323.86 57.7141 324.492 56.0723 325.144 54.4591C325.828 52.8403 326.519 51.3503 327.217 49.9891C327.946 48.6223 328.705 47.5102 329.494 46.6529C330.277 45.7642 331.078 45.2461 331.896 45.0986C332.715 44.9512 333.572 45.1058 334.467 45.5625C335.357 45.9876 336.135 46.6115 336.804 47.4341C337.498 48.2195 337.936 49.1161 338.117 50.1239C338.287 51.0687 338.365 52.2252 338.352 53.5933C338.338 54.9614 338.304 56.3981 338.25 57.9035C338.196 59.409 338.23 60.8659 338.354 62.2743C339.209 60.8847 340.099 59.3264 341.024 57.5992C341.943 55.8406 342.885 54.029 343.849 52.1646C344.814 50.3001 345.756 48.4886 346.675 46.7299C347.626 44.9656 348.507 43.36 349.32 41.9132C350.164 40.4606 350.93 39.2985 351.618 38.4267C352.301 37.5235 352.863 37.0321 353.304 36.9528C354.595 36.7203 355.665 36.8853 356.514 37.4477C357.389 37.973 357.977 39.0703 358.277 40.7394C358.464 41.7787 358.63 43.1471 358.773 44.8446C358.947 46.5365 359.084 48.3814 359.184 50.3794C359.309 52.3402 359.409 54.3381 359.482 56.3733C359.582 58.3712 359.672 60.2247 359.752 61.9335C359.832 63.6424 359.892 65.0621 359.933 66.1927ZM372.503 66.7098C370.551 67.0613 368.854 66.6677 367.414 65.5289C365.967 64.3586 364.969 62.246 364.419 59.1911C364.068 57.2385 363.937 55.2462 364.026 53.2143C364.141 51.1451 364.45 49.155 364.951 47.2439C365.478 45.2957 366.168 43.5295 367.021 41.9453C367.905 40.3555 368.953 39.045 370.166 38.0139C371.373 36.9512 372.701 36.2895 374.149 36.0287C376.606 35.5865 378.646 35.902 380.27 36.9752C381.894 38.0485 382.89 39.6087 383.258 41.6558C383.542 43.2304 383.359 44.7428 382.71 46.1928C382.086 47.6056 381.125 48.9492 379.826 50.2234C378.527 51.4977 377.038 52.7087 375.359 53.8564C373.68 55.0041 371.939 56.0815 370.137 57.0888C370.184 58.2509 370.287 59.2729 370.445 60.1547C370.542 60.6901 370.889 60.9039 371.487 60.7962C372.905 60.541 374.377 60.0484 375.903 59.3184C377.456 58.5511 379.002 57.6551 380.541 56.6302C382.074 55.5739 383.541 54.5131 384.942 53.448C386.338 52.3513 387.601 51.3274 388.73 50.3762C389.885 49.3879 390.833 48.5996 391.572 48.0113C392.337 47.3858 392.846 47.0504 393.098 47.005C393.791 46.8803 394.331 46.9943 394.72 47.347C395.109 47.6997 395.346 48.1123 395.431 48.5847C395.47 48.8051 395.133 49.3698 394.419 50.2788C393.736 51.182 392.764 52.2837 391.502 53.5838C390.266 54.8468 388.85 56.191 387.254 57.6164C385.683 59.0047 384.025 60.3599 382.279 61.6821C380.56 62.9671 378.853 64.0546 377.16 64.9447C375.504 65.8606 373.952 66.4489 372.503 66.7098ZM370.183 52.7398C371.339 51.7515 372.472 50.7345 373.585 49.6889C374.723 48.6061 375.623 47.4685 376.287 46.2761C376.944 45.0522 377.145 43.7317 376.89 42.3145C376.817 41.9051 376.658 41.6572 376.415 41.5709C376.166 41.4531 375.837 41.4311 375.428 41.5048C374.325 41.7033 373.406 42.3728 372.668 43.5136C371.962 44.6486 371.401 46.0501 370.986 47.7181C370.597 49.3488 370.329 51.0227 370.183 52.7398ZM395.293 63.4361C393.938 63.6799 392.944 63.6639 392.309 63.388C391.706 63.1065 391.339 62.6035 391.208 61.8792C391.095 61.2493 391.219 60.6742 391.58 60.1539C391.936 59.6021 392.828 58.954 394.254 58.2094C395.921 57.3565 397.48 56.4419 398.93 55.4655C400.406 54.452 401.571 53.4294 402.426 52.3976C403.312 51.3602 403.67 50.369 403.5 49.4242C403.387 48.7944 403.084 48.3774 402.592 48.1733C402.131 47.9636 401.618 47.9097 401.051 48.0118C400.579 48.0969 399.9 48.3003 399.015 48.6222C398.156 48.9069 397.211 49.2559 396.18 49.6692C395.143 50.0509 394.135 50.4112 393.155 50.7501C392.202 51.0519 391.378 51.2651 390.685 51.3898C389.048 51.6847 387.77 51.5408 386.852 50.9582C385.929 50.3441 385.362 49.4544 385.153 48.2891C385.039 47.6592 385.214 46.7336 385.677 45.5123C386.14 44.2909 386.803 42.9197 387.667 41.3985C388.532 39.8773 389.522 38.3334 390.638 36.7669C391.754 35.2004 392.906 33.7412 394.093 32.3895C395.306 31.0006 396.483 29.862 397.624 28.9739C398.759 28.0542 399.767 27.515 400.649 27.3562C401.657 27.1748 402.516 27.3452 403.228 27.8673C403.971 28.3838 404.439 29.1774 404.632 30.2482C404.723 30.7521 404.775 31.3118 404.788 31.9271C404.796 32.511 404.653 33.0732 404.36 33.6137C404.062 34.1226 403.536 34.5424 402.782 34.8731C402.029 35.2038 400.953 35.3651 399.553 35.357C398.624 36.3371 397.662 37.4045 396.667 38.559C395.697 39.6765 394.8 40.8298 393.973 42.019C393.141 43.1768 392.479 44.2876 391.988 45.3515C393.085 44.7638 394.354 44.2264 395.795 43.7395C397.23 43.2211 398.703 42.8258 400.215 42.5536C402.041 42.2248 403.581 42.289 404.834 42.7462C406.112 43.1663 407.116 43.8636 407.844 44.838C408.604 45.8067 409.1 46.9367 409.332 48.2279C409.593 49.6766 409.381 51.2104 408.697 52.8292C408.013 54.448 406.992 55.9975 405.633 57.4778C404.273 58.958 402.698 60.2333 400.908 61.3035C399.117 62.3737 397.245 63.0846 395.293 63.4361ZM440.829 28.1699C440.897 28.5478 440.831 28.9012 440.63 29.23C440.429 29.5588 440.154 29.8359 439.804 30.0614C439.308 30.3783 438.43 30.829 437.17 31.4136C435.91 31.9981 434.374 32.6809 432.564 33.462C430.785 34.2375 428.868 35.0542 426.811 35.9121C424.749 36.7386 422.684 37.5493 420.616 38.3443C420.342 41.5151 420.068 44.7832 419.796 48.1486C419.519 51.4826 419.232 54.7693 418.938 58.0088C418.821 59.1677 418.594 60.0704 418.255 60.7166C417.921 61.3944 417.22 61.8297 416.149 62.0224C414.983 62.2322 414.128 61.996 413.583 61.3139C413.074 60.6576 412.848 59.674 412.905 58.3632C413.106 54.783 413.286 51.4503 413.446 48.3652C413.638 45.2744 413.789 42.776 413.901 40.87C412.068 41.5251 410.46 42.0747 409.077 42.5188C407.688 42.9314 406.692 43.1758 406.088 43.2521C405.415 43.3081 404.816 43.1397 404.29 42.7466C403.764 42.3536 403.454 41.8078 403.361 41.1093C403.311 40.4681 403.498 39.8817 403.922 39.35C404.341 38.7869 404.888 38.3957 405.564 38.1765C406.523 37.9063 407.758 37.5378 409.267 37.071C410.776 36.6042 412.437 36.0776 414.25 35.4911C414.37 33.8112 414.545 32.0728 414.774 30.2757C414.998 28.4472 415.251 26.6945 415.534 25.0178C415.844 23.3039 416.158 21.8003 416.478 20.5072C416.798 19.2141 417.13 18.2601 417.475 17.6453C417.748 17.1735 418.116 16.7821 418.58 16.4709C419.076 16.154 419.576 15.9503 420.08 15.8595C420.741 15.7405 421.319 15.8803 421.813 16.279C422.308 16.6777 422.612 17.192 422.725 17.8218C422.771 18.0738 422.803 18.3443 422.823 18.6334C422.836 18.8911 422.819 19.1544 422.77 19.4233C422.455 21.1057 422.152 23.1273 421.862 25.4881C421.603 27.8432 421.352 30.4245 421.11 33.2318C423.41 32.4602 425.662 31.697 427.867 30.9424C430.098 30.1505 432.115 29.4299 433.916 28.7804C435.743 28.0938 437.201 27.5225 438.289 27.0664C438.88 26.7326 439.424 26.6834 439.921 26.919C440.413 27.123 440.716 27.54 440.829 28.1699ZM452.709 29.494C453.077 31.5411 452.278 33.7822 450.31 36.2174C448.368 38.6154 445.111 41.0226 440.539 43.4389C440.545 43.4704 440.553 43.5176 440.564 43.5806C440.752 44.6199 441.028 45.4318 441.393 46.0163C441.753 46.5694 442.358 46.7693 443.208 46.6162C444.468 46.3894 445.801 45.7592 447.208 44.7255C448.641 43.6547 450.085 42.3707 451.538 40.8734C453.018 39.339 454.439 37.7501 455.801 36.1067C457.164 34.4633 458.414 32.9213 459.553 31.4808C460.718 30.003 461.704 28.8012 462.513 27.8752C463.348 26.9121 463.922 26.4022 464.237 26.3455C464.899 26.2265 465.495 26.3792 466.027 26.8037C466.59 27.2226 466.962 27.9359 467.144 28.9437C467.246 29.5106 467.336 30.1934 467.415 30.9921C468.37 28.3491 469.621 26.0915 471.17 24.2195C472.713 22.316 474.299 20.8275 475.926 19.7542C477.58 18.6436 479.036 17.975 480.296 17.7482C481.713 17.493 482.725 17.6036 483.331 18.0797C483.931 18.5244 484.285 19.0459 484.393 19.6443C484.455 19.9907 484.439 20.3513 484.344 20.7261C484.274 21.0637 483.99 21.4725 483.492 21.9525C483.024 22.4268 482.206 23.0293 481.037 23.76C479.481 24.6904 478.024 25.7168 476.665 26.8393C475.338 27.9561 474.178 29.368 473.185 31.075C472.217 32.7449 471.451 34.8987 470.885 37.5367C470.346 40.1375 470.088 43.4028 470.113 47.3326C470.085 48.443 469.869 49.2298 469.465 49.6927C469.066 50.1872 468.552 50.4911 467.922 50.6045C467.859 50.6159 467.749 50.6357 467.591 50.6641C467.313 50.7466 467.009 50.769 466.677 50.7312C466.382 50.7192 466.05 50.5025 465.682 50.0812C465.35 49.6856 465.007 48.9509 464.651 47.8769C464.295 46.803 463.933 45.2425 463.564 43.1954C463.343 41.9672 463.158 40.6674 463.008 39.2962C462.885 37.8878 462.784 36.4265 462.707 34.9122C461.384 36.7761 459.954 38.6755 458.417 40.6105C456.879 42.5456 455.256 44.366 453.547 46.0717C451.864 47.7403 450.167 49.1513 448.457 50.3046C446.777 51.4523 445.151 52.1679 443.576 52.4514C441.466 52.8313 439.612 52.466 438.014 51.3556C436.441 50.208 435.397 48.2012 434.881 45.3353C434.371 42.5009 434.287 39.8661 434.629 37.431C434.997 34.9587 435.644 32.7774 436.572 30.8871C437.5 28.9968 438.577 27.4861 439.804 26.3548C441.057 25.1863 442.298 24.4915 443.526 24.2704C446.14 23.7998 448.237 24.0725 449.818 25.0884C451.394 26.0729 452.357 27.5414 452.709 29.494ZM440.396 39.1239C441.141 38.5671 441.922 37.9388 442.739 37.239C443.582 36.502 444.359 35.7606 445.07 35.0148C445.775 34.2375 446.326 33.5043 446.722 32.8152C447.15 32.1204 447.316 31.5054 447.219 30.97C447.061 30.0881 446.712 29.5981 446.174 29.4999C445.662 29.3645 444.997 29.3705 444.178 29.5179C443.328 29.671 442.638 30.2665 442.11 31.3046C441.576 32.3111 441.176 33.5211 440.91 34.9346C440.644 36.3481 440.473 37.7445 440.396 39.1239ZM49.3859 191.015C48.504 191.174 47.6628 191.016 46.8622 190.543C46.0931 190.063 45.5867 189.147 45.3429 187.792C45.2125 187.068 45.1227 186.027 45.0735 184.671C45.0559 183.308 45.0813 181.824 45.1499 180.219C45.2129 178.582 45.3101 176.955 45.4417 175.338C45.6048 173.715 45.7834 172.269 45.9773 170.998C46.1656 169.696 46.3634 168.718 46.5706 168.063C46.8496 167.265 47.1481 166.756 47.4662 166.536C47.8101 166.279 48.1553 166.119 48.5017 166.057C49.1316 165.943 49.7482 166.027 50.3517 166.309C50.9866 166.585 51.4203 167.368 51.6528 168.66C51.7435 169.164 51.7964 169.999 51.8116 171.167C51.821 172.303 51.8173 173.637 51.8003 175.168C51.7834 176.7 51.7434 178.284 51.6805 179.921C51.649 181.552 51.6034 183.105 51.5436 184.579C51.5097 186.016 51.4832 187.223 51.4644 188.202C51.4486 189.018 51.2229 189.66 50.787 190.129C50.3883 190.623 49.9212 190.919 49.3859 191.015ZM49.5966 161.031C48.5573 161.218 47.5429 161.092 46.5534 160.652C45.5581 160.181 44.9443 159.3 44.7118 158.009C44.5191 156.938 44.6308 156.024 45.0472 155.266C45.4635 154.508 46.0083 153.923 46.6816 153.509C47.3808 153.058 48.0138 152.781 48.5807 152.679C49.1476 152.577 49.8001 152.59 50.5384 152.717C51.2709 152.813 51.9458 153.13 52.5631 153.669C53.2062 154.171 53.6299 154.989 53.834 156.123C53.9701 156.879 53.8271 157.62 53.4051 158.346C52.9774 159.041 52.4011 159.632 51.6761 160.12C50.9827 160.603 50.2895 160.907 49.5966 161.031ZM62.1719 187.982C61.4161 188.118 60.6149 188.002 59.7683 187.634C58.9476 187.229 58.2131 186.581 57.5649 185.69C56.9111 184.767 56.4566 183.597 56.2015 182.18C55.8613 180.29 55.7504 178.229 55.8687 175.997C56.0186 173.759 56.2786 171.501 56.6489 169.223C57.0192 166.946 57.3965 164.797 57.7806 162.777C57.9626 161.801 58.2772 161.11 58.7244 160.705C59.166 160.268 59.7962 159.975 60.615 159.828C62.4731 159.493 63.5695 160.255 63.904 162.113C63.9607 162.428 63.9295 163.068 63.8105 164.032C63.6858 164.965 63.5035 166.12 63.2635 167.496C63.0551 168.867 62.835 170.353 62.6032 171.956C62.3973 173.521 62.2286 175.112 62.097 176.729C61.9912 178.309 61.95 179.795 61.9733 181.189C62.4992 179.957 63.0557 178.442 63.6427 176.646C64.2555 174.812 64.9014 172.891 65.5803 170.883C66.2908 168.869 67.0239 166.982 67.7797 165.22C68.5298 163.427 69.3181 161.935 70.1444 160.746C70.9708 159.557 71.8406 158.88 72.754 158.716C73.5413 158.574 74.3098 158.598 75.0593 158.788C75.8347 158.941 76.5666 159.395 77.2551 160.149C77.9379 160.871 78.56 161.978 79.1212 163.471C79.714 164.957 80.2371 166.96 80.6907 169.48C80.9175 170.739 81.2489 171.948 81.6848 173.105C82.1465 174.225 82.7317 175.127 83.4403 175.813C84.1433 176.466 85.0144 176.7 86.0537 176.513C87.8489 176.19 89.3955 175.57 90.6937 174.653C91.9918 173.737 93.0969 172.741 94.0089 171.666C94.921 170.592 95.6796 169.659 96.2849 168.867C96.6464 168.347 96.962 167.932 97.2316 167.624C97.5326 167.309 97.7934 167.132 98.0139 167.093C98.6752 166.973 99.1788 167.062 99.5246 167.357C99.9019 167.647 100.144 168.091 100.252 168.689C100.309 169.004 100.146 169.635 99.7638 170.582C99.3815 171.528 98.8014 172.641 98.0235 173.919C97.2715 175.16 96.372 176.395 95.3252 177.624C94.2784 178.852 93.1059 179.925 91.8078 180.842C90.5096 181.758 89.1204 182.35 87.6402 182.616C85.1522 183.064 83.01 182.995 81.2136 182.408C79.443 181.783 77.9741 180.487 76.8069 178.519C75.634 176.519 74.7158 173.677 74.0525 169.992C74.0355 169.897 74.0071 169.74 73.9674 169.52C73.7917 168.543 73.62 167.68 73.4524 166.93C73.3163 166.174 73.1585 165.568 72.979 165.113C72.6194 166.186 72.1835 167.467 71.6715 168.957C71.1909 170.442 70.6644 172.032 70.0919 173.729C69.5137 175.394 68.9012 177.048 68.2544 178.693C67.6019 180.306 66.9267 181.793 66.2288 183.154C65.5625 184.51 64.8851 185.624 64.1966 186.495C63.5082 187.367 62.8333 187.862 62.1719 187.982ZM145.552 173.653C144.639 173.818 143.895 173.659 143.321 173.177C142.778 172.69 142.418 171.958 142.243 170.982C142.101 170.194 142.011 169.511 141.971 168.933C141.932 168.355 141.951 167.734 142.026 167.07C142.096 166.375 142.188 165.529 142.301 164.533C142.44 163.5 142.61 162.185 142.81 160.589C142.935 159.656 143.074 158.444 143.229 156.953C143.409 155.425 143.566 153.771 143.701 151.991C143.83 150.179 143.88 148.382 143.852 146.599C143.849 144.778 143.715 143.128 143.448 141.648C143.267 140.64 142.879 139.751 142.285 138.98C139.878 142.404 137.787 146.683 136.012 151.814C134.269 156.94 132.945 162.771 132.041 169.307C131.72 170.958 131.214 172.122 130.523 172.799C129.827 173.444 129.116 173.832 128.392 173.963C128.171 174.002 127.818 173.936 127.332 173.763C126.84 173.559 126.34 173.129 125.831 172.473C125.323 171.817 124.95 170.827 124.712 169.504C124.655 169.189 124.663 168.782 124.735 168.281C124.802 167.749 124.942 167.171 125.155 166.547C125.143 164.858 125.033 163.074 124.825 161.193C124.642 159.275 124.399 157.384 124.096 155.52C123.819 153.619 123.533 151.85 123.238 150.212C123.011 148.952 122.718 147.867 122.359 146.956C121.168 149.187 120.128 151.812 119.242 154.833C118.355 157.854 117.625 161.026 117.053 164.348C116.512 167.664 116.148 170.883 115.963 174.006C115.904 174.764 115.806 175.481 115.667 176.156C115.523 176.8 115.233 177.356 114.797 177.825C114.387 178.256 113.725 178.554 112.812 178.719C111.804 178.9 110.975 178.627 110.323 177.898C109.672 177.17 109.224 176.129 108.981 174.775C108.793 173.736 108.773 172.358 108.919 170.64C109.059 168.892 109.332 166.973 109.736 164.885C110.135 162.764 110.638 160.593 111.246 158.37C111.879 156.11 112.574 153.92 113.331 151.801C114.087 149.681 114.896 147.763 115.758 146.048C116.645 144.295 117.529 142.884 118.41 141.815C119.316 140.709 120.21 140.076 121.092 139.918C121.124 139.912 121.171 139.903 121.234 139.892C121.927 139.767 122.568 139.717 123.157 139.741C123.773 139.728 124.352 139.965 124.895 140.452C125.464 140.903 126.035 141.726 126.608 142.924C127.181 144.121 127.801 145.847 128.467 148.1C128.632 148.656 128.801 149.325 128.974 150.106C129.142 150.856 129.299 151.641 129.447 152.46C130.066 149.942 130.806 147.549 131.666 145.281C132.557 143.007 133.522 140.964 134.561 139.151C135.632 137.332 136.749 135.863 137.913 134.743C139.077 133.623 140.226 132.961 141.36 132.757C142.683 132.519 143.971 132.629 145.223 133.086C146.471 133.512 147.577 134.418 148.542 135.805C149.507 137.192 150.225 139.192 150.695 141.806C151.194 144.578 151.427 147.316 151.394 150.02C151.355 152.694 151.164 155.248 150.822 157.683C150.48 160.118 150.104 162.364 149.694 164.421C149.279 166.447 148.944 168.198 148.689 169.675C148.455 170.725 148.128 171.613 147.706 172.339C147.278 173.034 146.56 173.472 145.552 173.653ZM164.427 171.231C162.475 171.582 160.778 171.189 159.337 170.05C157.891 168.88 156.893 166.767 156.343 163.712C155.992 161.76 155.861 159.767 155.95 157.735C156.065 155.666 156.373 153.676 156.875 151.765C157.402 149.817 158.092 148.051 158.945 146.466C159.829 144.877 160.877 143.566 162.09 142.535C163.297 141.472 164.624 140.811 166.073 140.55C168.53 140.107 170.57 140.423 172.194 141.496C173.818 142.569 174.814 144.13 175.182 146.177C175.466 147.751 175.283 149.264 174.633 150.714C174.01 152.127 173.049 153.47 171.75 154.744C170.451 156.019 168.962 157.23 167.283 158.377C165.604 159.525 163.863 160.603 162.061 161.61C162.108 162.772 162.21 163.794 162.369 164.676C162.466 165.211 162.813 165.425 163.411 165.317C164.829 165.062 166.301 164.569 167.827 163.839C169.38 163.072 170.926 162.176 172.465 161.151C173.998 160.095 175.465 159.034 176.866 157.969C178.262 156.872 179.525 155.848 180.654 154.897C181.809 153.909 182.756 153.121 183.496 152.532C184.261 151.907 184.77 151.571 185.022 151.526C185.715 151.401 186.255 151.515 186.644 151.868C187.033 152.221 187.27 152.633 187.355 153.106C187.394 153.326 187.057 153.891 186.343 154.8C185.66 155.703 184.688 156.805 183.426 158.105C182.19 159.368 180.774 160.712 179.177 162.137C177.607 163.526 175.948 164.881 174.203 166.203C172.484 167.488 170.777 168.576 169.084 169.466C167.428 170.382 165.876 170.97 164.427 171.231ZM162.107 157.261C163.262 156.272 164.396 155.255 165.509 154.21C166.647 153.127 167.547 151.989 168.211 150.797C168.868 149.573 169.069 148.253 168.814 146.835C168.741 146.426 168.582 146.178 168.339 146.092C168.09 145.974 167.761 145.952 167.352 146.026C166.249 146.224 165.329 146.894 164.592 148.035C163.886 149.17 163.325 150.571 162.91 152.239C162.521 153.87 162.253 155.544 162.107 157.261ZM192.116 167.026C189.281 167.537 186.889 167.073 184.94 165.636C183.016 164.161 181.762 161.802 181.178 158.558C180.861 156.795 180.726 154.689 180.773 152.242C180.814 149.764 180.975 147.134 181.254 144.352C181.56 141.533 181.918 138.738 182.329 135.965C182.772 133.186 183.233 130.6 183.712 128.205C184.192 125.81 184.626 123.797 185.015 122.167C185.372 120.899 186.07 120.172 187.11 119.985C187.771 119.866 188.343 119.974 188.826 120.31C189.341 120.64 189.68 121.262 189.845 122.175C189.924 122.616 189.877 123.616 189.702 125.176C189.528 126.735 189.274 128.667 188.941 130.97C188.634 133.237 188.295 135.688 187.924 138.323C187.584 140.953 187.279 143.593 187.008 146.242C186.769 148.887 186.63 151.367 186.592 153.682C186.548 155.966 186.665 157.879 186.943 159.423C187.056 160.053 187.32 160.525 187.734 160.841C188.18 161.151 188.702 161.252 189.301 161.144C190.592 160.912 191.872 160.437 193.141 159.721C194.442 158.999 195.689 158.157 196.881 157.194C198.105 156.226 199.241 155.225 200.291 154.191C201.34 153.157 202.272 152.192 203.086 151.298C203.927 150.366 204.606 149.626 205.125 149.077C205.805 148.337 206.286 147.942 206.57 147.891C207.641 147.698 208.27 148.121 208.457 149.16C208.502 149.412 208.281 149.989 207.792 150.889C207.382 151.679 206.785 152.697 206.001 153.943C205.218 155.19 204.288 156.528 203.212 157.957C202.162 159.349 201.006 160.695 199.745 161.995C198.515 163.289 197.251 164.395 195.952 165.311C194.654 166.228 193.375 166.8 192.116 167.026ZM209.249 163.015C207.36 163.355 205.985 163.213 205.124 162.587C204.301 161.988 203.773 161.042 203.541 159.751C202.554 154.271 202.549 148.371 203.524 142.05C204.525 135.692 206.358 129.168 209.023 122.478C209.466 121.325 209.875 120.617 210.25 120.355C210.626 120.092 211.066 119.915 211.569 119.825C212.294 119.694 212.969 119.833 213.595 120.24C214.253 120.642 214.655 121.253 214.803 122.071C214.848 122.323 214.705 123.064 214.374 124.295C214.042 125.525 213.595 127.101 213.03 129.023C212.498 130.94 211.929 133.107 211.323 135.525C210.712 137.911 210.14 140.42 209.606 143.052C209.103 145.679 208.729 148.298 208.485 150.911C209.312 149.364 210.275 147.76 211.374 146.099C212.499 144.401 213.693 142.82 214.958 141.357C216.217 139.862 217.474 138.628 218.73 137.654C219.979 136.649 221.155 136.047 222.258 135.848C223.297 135.661 224.303 135.74 225.275 136.086C226.279 136.425 227.161 137.079 227.921 138.048C228.681 139.017 229.214 140.351 229.52 142.052C229.854 143.91 229.662 145.912 228.943 148.057C228.255 150.197 227.053 152.283 225.338 154.315C223.655 156.341 221.458 158.135 218.747 159.696C216.069 161.251 212.903 162.357 209.249 163.015ZM210.264 157.273C212.655 156.647 214.75 155.733 216.55 154.531C218.381 153.324 219.891 151.963 221.082 150.448C222.272 148.933 223.121 147.415 223.627 145.893C224.128 144.339 224.265 142.933 224.038 141.673C223.987 141.39 223.883 141.262 223.725 141.291C223.064 141.41 222.283 141.859 221.383 142.639C220.477 143.387 219.514 144.357 218.493 145.549C217.472 146.741 216.452 148.03 215.434 149.416C214.415 150.803 213.46 152.178 212.567 153.541C211.675 154.905 210.907 156.149 210.264 157.273ZM239.161 157.728C236.925 158.13 234.988 157.666 233.35 156.335C231.707 154.973 230.644 152.953 230.162 150.276C230.009 149.426 229.964 148.54 230.025 147.618C230.119 146.691 230.27 145.819 230.481 145C230.241 144.751 230.018 144.417 229.813 143.999C229.633 143.543 229.487 143.001 229.373 142.371C229.005 140.324 229.03 138.385 229.448 136.554C229.86 134.691 230.567 133.019 231.569 131.539C232.57 130.058 233.749 128.838 235.104 127.878C236.46 126.919 237.893 126.303 239.405 126.031C241.987 125.566 244.253 126.052 246.203 127.49C248.184 128.921 249.503 131.464 250.161 135.117C250.49 136.944 250.541 138.853 250.314 140.844C250.087 142.836 249.642 144.786 248.977 146.694C248.339 148.565 247.511 150.29 246.495 151.871C245.511 153.447 244.381 154.756 243.106 155.798C241.862 156.835 240.547 157.478 239.161 157.728ZM235.531 141.896C235.75 142.214 235.903 142.61 235.988 143.082C236.073 143.555 236.066 144.06 235.968 144.598C235.87 145.136 235.803 145.847 235.767 146.731C235.725 147.584 235.844 148.782 236.121 150.325C236.195 150.735 236.305 151.072 236.45 151.339C236.622 151.568 236.912 151.646 237.321 151.572C238.392 151.379 239.338 150.852 240.158 149.989C241.009 149.12 241.711 148.051 242.263 146.781C242.846 145.505 243.28 144.127 243.566 142.644C243.878 141.125 244.045 139.616 244.068 138.116C244.116 136.579 244.027 135.181 243.8 133.921C243.653 133.102 243.393 132.564 243.022 132.305C242.65 132.047 242.071 131.989 241.283 132.131C240.213 132.323 239.173 132.868 238.164 133.765C237.18 134.625 236.416 135.706 235.87 137.007C235.318 138.277 235.172 139.636 235.433 141.085C235.484 141.368 235.517 141.639 235.531 141.896ZM273.301 152.167C272.577 152.297 271.861 152.117 271.155 151.626C270.486 151.161 270.03 150.252 269.786 148.898C269.605 147.89 269.431 146.474 269.266 144.651C269.126 142.79 269.05 140.381 269.038 137.425C268.344 139.891 267.557 142.113 266.678 144.092C265.798 146.072 264.867 147.67 263.883 148.887C262.925 150.068 261.926 150.752 260.887 150.939C259.218 151.239 257.804 150.974 256.647 150.141C255.483 149.278 254.646 147.429 254.136 144.595C253.892 143.24 253.728 141.693 253.642 139.953C253.588 138.207 253.596 136.449 253.668 134.681C253.74 132.912 253.846 131.332 253.986 129.941C254.151 128.513 254.332 127.44 254.528 126.722C254.678 126.11 254.913 125.613 255.234 125.23C255.587 124.841 256.078 124.59 256.708 124.476C257.716 124.295 258.547 124.487 259.202 125.052C259.856 125.617 260.246 126.246 260.37 126.939C260.467 127.474 260.48 128.268 260.409 129.321C260.37 130.369 260.288 131.538 260.163 132.829C260.069 134.114 259.965 135.433 259.851 136.786C259.737 138.14 259.656 139.406 259.608 140.586C259.592 141.759 259.655 142.739 259.797 143.527C259.972 144.503 260.438 144.923 261.194 144.787C261.635 144.708 262.125 144.18 262.665 143.205C263.236 142.225 263.788 140.955 264.32 139.396C264.878 137.8 265.414 136.078 265.926 134.23C266.465 132.344 266.922 130.458 267.297 128.569C267.698 126.644 268.015 124.88 268.246 123.277C268.391 122.276 268.697 121.538 269.165 121.063C269.632 120.589 270.212 120.29 270.905 120.165C271.976 119.972 272.848 120.124 273.523 120.62C274.229 121.111 274.681 121.907 274.88 123.01C274.971 123.514 275.045 124.378 275.103 125.603C275.161 126.828 275.209 128.267 275.246 129.918C275.314 131.564 275.353 133.313 275.361 135.165C275.369 137.016 275.372 138.837 275.369 140.626C275.397 142.409 275.4 144.05 275.378 145.55C275.349 147.018 275.317 148.195 275.281 149.079C275.193 150.395 274.951 151.219 274.556 151.551C274.16 151.882 273.742 152.087 273.301 152.167ZM283.629 150.259C282.842 150.4 282.113 150.239 281.445 149.774C280.807 149.303 280.392 148.533 280.199 147.462C280.114 146.99 280.038 146.207 279.971 145.113C279.93 143.983 279.893 142.689 279.858 141.232C279.855 139.769 279.824 138.247 279.767 136.664C279.741 135.075 279.682 133.574 279.59 132.16C279.53 130.74 279.443 129.536 279.33 128.549C279.178 127.341 279.34 126.434 279.816 125.828C280.286 125.19 280.915 124.801 281.703 124.659C282.333 124.545 282.928 124.601 283.488 124.825C284.075 125.012 284.516 125.567 284.812 126.489C285.134 127.374 285.388 128.694 285.574 130.449C286.506 127.68 287.502 125.175 288.562 122.936C289.654 120.691 290.882 118.844 292.247 117.396C294.503 114.941 296.687 113.524 298.797 113.144C299.994 112.928 300.829 113.054 301.304 113.522C301.778 113.989 302.066 114.506 302.168 115.073C302.236 115.451 302.204 115.814 302.072 116.163C301.971 116.507 301.684 116.9 301.211 117.343C300.738 117.785 300.001 118.389 299.001 119.155C297.657 120.177 296.371 121.433 295.144 122.922C293.947 124.405 292.814 126.235 291.742 128.411C290.671 130.588 289.663 133.208 288.719 136.271C287.775 139.335 286.88 142.943 286.034 147.094C285.944 148.216 285.662 148.998 285.189 149.441C284.747 149.878 284.227 150.151 283.629 150.259ZM305.228 144.224C304.472 144.36 303.671 144.244 302.825 143.876C302.004 143.471 301.269 142.823 300.621 141.932C299.967 141.009 299.513 139.839 299.258 138.422C298.918 136.533 298.807 134.472 298.925 132.239C299.075 130.001 299.335 127.744 299.705 125.466C300.076 123.188 300.453 121.039 300.837 119.019C301.019 118.044 301.334 117.353 301.781 116.947C302.222 116.51 302.852 116.218 303.671 116.071C305.529 115.736 306.626 116.498 306.96 118.356C307.017 118.671 306.986 119.311 306.867 120.275C306.742 121.208 306.56 122.362 306.32 123.739C306.111 125.109 305.891 126.596 305.66 128.198C305.454 129.763 305.285 131.354 305.153 132.971C305.048 134.551 305.006 136.038 305.03 137.432C305.556 136.199 306.112 134.685 306.699 132.888C307.312 131.055 307.958 129.134 308.637 127.126C309.347 125.112 310.08 123.224 310.836 121.462C311.586 119.669 312.374 118.178 313.201 116.989C314.027 115.799 314.897 115.123 315.81 114.958C316.598 114.816 317.366 114.841 318.116 115.031C318.891 115.184 319.623 115.637 320.311 116.391C320.994 117.114 321.616 118.221 322.178 119.713C322.77 121.2 323.293 123.203 323.747 125.722C323.974 126.982 324.305 128.19 324.741 129.347C325.203 130.467 325.788 131.37 326.497 132.055C327.2 132.709 328.071 132.942 329.11 132.755C330.905 132.432 332.452 131.812 333.75 130.896C335.048 129.979 336.153 128.984 337.065 127.909C337.977 126.834 338.736 125.901 339.341 125.109C339.703 124.589 340.018 124.175 340.288 123.866C340.589 123.552 340.85 123.375 341.07 123.335C341.732 123.216 342.235 123.304 342.581 123.6C342.958 123.889 343.201 124.333 343.309 124.932C343.365 125.247 343.202 125.877 342.82 126.824C342.438 127.771 341.858 128.883 341.08 130.161C340.328 131.402 339.428 132.637 338.382 133.866C337.335 135.095 336.162 136.168 334.864 137.084C333.566 138.001 332.177 138.592 330.697 138.859C328.209 139.307 326.066 139.237 324.27 138.65C322.499 138.026 321.03 136.73 319.863 134.761C318.69 132.762 317.772 129.919 317.109 126.234C317.092 126.14 317.063 125.982 317.024 125.762C316.848 124.786 316.676 123.922 316.509 123.172C316.373 122.416 316.215 121.811 316.035 121.355C315.676 122.428 315.24 123.71 314.728 125.2C314.247 126.685 313.721 128.275 313.148 129.971C312.57 131.636 311.958 133.291 311.311 134.935C310.658 136.549 309.983 138.036 309.285 139.397C308.619 140.752 307.941 141.866 307.253 142.738C306.565 143.61 305.89 144.105 305.228 144.224ZM343.973 138.907C342.02 139.259 340.324 138.865 338.883 137.726C337.437 136.556 336.439 134.443 335.889 131.389C335.537 129.436 335.406 127.444 335.495 125.412C335.611 123.343 335.919 121.352 336.42 119.441C336.947 117.493 337.637 115.727 338.49 114.143C339.374 112.553 340.423 111.242 341.635 110.211C342.842 109.149 344.17 108.487 345.619 108.226C348.075 107.784 350.115 108.099 351.739 109.173C353.363 110.246 354.359 111.806 354.728 113.853C355.011 115.428 354.828 116.94 354.179 118.39C353.555 119.803 352.594 121.147 351.296 122.421C349.997 123.695 348.508 124.906 346.829 126.054C345.149 127.201 343.409 128.279 341.607 129.286C341.653 130.448 341.756 131.47 341.915 132.352C342.011 132.887 342.358 133.101 342.957 132.994C344.374 132.738 345.846 132.246 347.373 131.516C348.926 130.749 350.471 129.852 352.01 128.828C353.543 127.771 355.01 126.711 356.412 125.645C357.808 124.549 359.07 123.525 360.199 122.574C361.355 121.585 362.302 120.797 363.041 120.209C363.807 119.583 364.315 119.248 364.567 119.202C365.26 119.078 365.801 119.192 366.19 119.544C366.578 119.897 366.815 120.31 366.9 120.782C366.94 121.003 366.602 121.567 365.888 122.476C365.205 123.379 364.233 124.481 362.972 125.781C361.736 127.044 360.32 128.388 358.723 129.814C357.152 131.202 355.494 132.557 353.749 133.88C352.029 135.165 350.323 136.252 348.63 137.142C346.974 138.058 345.421 138.646 343.973 138.907ZM341.653 124.937C342.808 123.949 343.942 122.932 345.054 121.886C346.192 120.803 347.093 119.666 347.756 118.474C348.414 117.25 348.615 115.929 348.36 114.512C348.286 114.102 348.128 113.855 347.884 113.768C347.636 113.651 347.307 113.629 346.897 113.702C345.795 113.901 344.875 114.57 344.137 115.711C343.431 116.846 342.871 118.248 342.456 119.915C342.067 121.546 341.799 123.22 341.653 124.937ZM383.03 132.071C382.022 132.252 381.058 132.133 380.137 131.714C379.222 131.326 378.449 130.733 377.817 129.937C377.181 129.108 376.769 128.175 376.581 127.135C376.23 125.183 376.312 123.201 376.828 121.189C377.375 119.173 378.207 117.202 379.324 115.278C380.441 113.353 381.709 111.548 383.129 109.862C384.574 108.139 386.041 106.623 387.528 105.314C389.048 104 390.449 102.935 391.733 102.119C393.048 101.297 394.099 100.815 394.887 100.673C395.8 100.509 396.577 100.58 397.217 100.888C397.884 101.158 398.291 101.702 398.438 102.521C398.484 102.773 398.457 102.989 398.36 103.169C398.786 103.19 399.159 103.367 399.479 103.699C399.799 104.032 400.027 104.576 400.163 105.332C400.22 105.647 400.289 106.48 400.37 107.831C400.45 109.182 400.566 110.819 400.717 112.743C400.9 114.661 401.176 116.644 401.544 118.691C401.601 119.006 401.699 119.281 401.839 119.515C401.973 119.719 402.198 119.792 402.513 119.736C403.772 119.509 405.003 119.027 406.203 118.291C407.429 117.517 408.589 116.642 409.681 115.665C410.799 114.651 411.794 113.675 412.665 112.738C413.563 111.764 414.313 110.962 414.915 110.333C415.543 109.668 415.967 109.315 416.188 109.275C417.258 109.082 417.89 109.521 418.083 110.592C418.134 110.876 417.895 111.536 417.367 112.574C416.864 113.575 416.135 114.763 415.18 116.138C414.219 117.482 413.116 118.851 411.871 120.246C410.652 121.603 409.337 122.783 407.924 123.785C406.542 124.781 405.143 125.407 403.726 125.662C401.994 125.974 400.597 125.803 399.537 125.149C398.507 124.488 397.679 123.5 397.052 122.182C396.45 120.827 395.975 119.271 395.626 117.513C394.434 120.101 393.133 122.448 391.724 124.555C390.341 126.625 388.908 128.33 387.426 129.67C385.944 131.01 384.479 131.81 383.03 132.071ZM395.492 105.393C392.672 107.428 390.207 109.628 388.096 111.991C385.98 114.323 384.385 116.659 383.31 118.998C382.267 121.332 381.919 123.459 382.265 125.381C382.361 125.916 382.661 126.138 383.165 126.048C383.763 125.94 384.488 125.452 385.34 124.583C386.223 123.709 387.145 122.6 388.106 121.256C389.062 119.881 389.994 118.38 390.905 116.753C391.809 115.095 392.629 113.419 393.365 111.726C394.1 110.033 394.643 108.439 394.992 106.946C395.121 106.402 395.288 105.885 395.492 105.393ZM417.171 126.558C415.817 126.802 414.822 126.786 414.187 126.51C413.584 126.229 413.217 125.726 413.087 125.001C412.973 124.372 413.097 123.796 413.459 123.276C413.815 122.724 414.706 122.076 416.133 121.332C417.8 120.479 419.358 119.564 420.808 118.588C422.284 117.574 423.449 116.552 424.304 115.52C425.19 114.482 425.548 113.491 425.378 112.546C425.265 111.917 424.962 111.5 424.47 111.296C424.01 111.086 423.496 111.032 422.929 111.134C422.457 111.219 421.778 111.423 420.893 111.744C420.034 112.029 419.089 112.378 418.058 112.791C417.021 113.173 416.013 113.533 415.034 113.872C414.08 114.174 413.257 114.387 412.564 114.512C410.926 114.807 409.648 114.663 408.731 114.08C407.807 113.466 407.241 112.577 407.031 111.411C406.918 110.781 407.092 109.856 407.555 108.635C408.018 107.413 408.682 106.042 409.546 104.521C410.41 103 411.4 101.456 412.516 99.8892C413.632 98.3226 414.784 96.8635 415.971 95.5117C417.184 94.1228 418.361 92.9843 419.502 92.0961C420.637 91.1765 421.645 90.6373 422.527 90.4785C423.535 90.2971 424.395 90.4674 425.107 90.9896C425.85 91.5061 426.318 92.2997 426.511 93.3705C426.601 93.8744 426.653 94.434 426.667 95.0494C426.674 95.6333 426.531 96.1955 426.239 96.7359C425.94 97.2449 425.414 97.6647 424.661 97.9954C423.907 98.3261 422.831 98.4874 421.431 98.4792C420.502 99.4594 419.54 100.527 418.545 101.681C417.576 102.799 416.678 103.952 415.852 105.141C415.019 106.299 414.358 107.41 413.867 108.474C414.964 107.886 416.233 107.349 417.673 106.862C419.108 106.343 420.581 105.948 422.093 105.676C423.92 105.347 425.459 105.411 426.712 105.868C427.991 106.289 428.994 106.986 429.722 107.96C430.482 108.929 430.978 110.059 431.211 111.35C431.471 112.799 431.26 114.333 430.576 115.951C429.892 117.57 428.87 119.12 427.511 120.6C426.152 122.08 424.577 123.356 422.786 124.426C420.995 125.496 419.124 126.207 417.171 126.558ZM457.513 118.662C456.505 118.843 455.541 118.724 454.62 118.304C453.705 117.916 452.932 117.324 452.301 116.527C451.664 115.699 451.252 114.765 451.065 113.726C450.713 111.773 450.795 109.791 451.311 107.78C451.858 105.763 452.69 103.793 453.807 101.868C454.924 99.9442 456.192 98.1389 457.612 96.4527C459.057 94.7293 460.524 93.2135 462.012 91.9052C463.531 90.5912 464.932 89.526 466.216 88.7097C467.531 87.8876 468.582 87.4057 469.37 87.264C470.283 87.0996 471.06 87.171 471.701 87.4784C472.367 87.7486 472.774 88.2931 472.921 89.112C472.967 89.3639 472.941 89.58 472.843 89.7601C473.269 89.7809 473.643 89.9575 473.963 90.2901C474.283 90.6227 474.511 91.1669 474.647 91.9227C474.703 92.2377 474.772 93.0707 474.853 94.4218C474.933 95.7729 475.049 97.4102 475.201 99.3339C475.383 101.252 475.659 103.234 476.027 105.281C476.084 105.596 476.182 105.871 476.322 106.106C476.456 106.31 476.681 106.383 476.996 106.326C478.256 106.1 479.486 105.618 480.686 104.882C481.913 104.108 483.072 103.233 484.164 102.256C485.282 101.242 486.277 100.266 487.149 99.3288C488.046 98.3543 488.796 97.5528 489.398 96.9242C490.026 96.2584 490.45 95.9056 490.671 95.8659C491.742 95.6732 492.373 96.1122 492.566 97.1829C492.617 97.4664 492.379 98.1271 491.85 99.1652C491.348 100.166 490.618 101.354 489.663 102.729C488.702 104.073 487.599 105.442 486.354 106.836C485.136 108.194 483.82 109.374 482.407 110.376C481.026 111.372 479.626 111.998 478.209 112.253C476.477 112.565 475.081 112.394 474.02 111.739C472.991 111.079 472.162 110.09 471.535 108.773C470.933 107.418 470.458 105.861 470.109 104.103C468.917 106.692 467.616 109.039 466.207 111.146C464.824 113.216 463.391 114.921 461.909 116.261C460.427 117.6 458.962 118.401 457.513 118.662ZM469.976 91.9833C467.156 94.0192 464.69 96.2188 462.58 98.5821C460.463 100.914 458.868 103.25 457.793 105.589C456.75 107.923 456.402 110.05 456.748 111.971C456.844 112.507 457.144 112.729 457.648 112.638C458.247 112.531 458.972 112.042 459.823 111.174C460.706 110.299 461.628 109.191 462.589 107.847C463.545 106.472 464.478 104.971 465.388 103.344C466.292 101.685 467.112 100.01 467.848 98.3165C468.584 96.6234 469.126 95.0301 469.475 93.5366C469.605 92.993 469.771 92.4753 469.976 91.9833ZM73.5838 268.644C72.702 268.803 71.9524 268.612 71.3351 268.073C70.755 267.56 70.3515 266.673 70.1247 265.414C69.8129 263.681 69.599 261.59 69.483 259.14C69.3671 256.69 69.3358 254.078 69.3893 251.305C69.4427 248.531 69.5519 245.797 69.7169 243.101C69.9398 240.004 70.1951 237.178 70.4829 234.623C70.8021 232.062 71.2093 229.989 71.7043 228.404C72.2252 226.782 72.8793 225.9 73.6666 225.759C74.391 225.628 75.0691 225.783 75.7008 226.222C76.3584 226.623 76.778 227.328 76.9594 228.336C77.0898 229.06 77.0879 230.134 76.9538 231.556C76.814 232.947 76.6393 234.685 76.4296 236.771C77.1829 234.815 77.9733 232.884 78.8009 230.98C79.66 229.069 80.5632 227.313 81.5105 225.712C82.4578 224.111 83.4246 222.799 84.411 221.776C85.3973 220.753 86.3944 220.151 87.4022 219.969C88.599 219.754 89.7164 219.91 90.7544 220.439C91.824 220.962 92.7342 221.773 93.485 222.874C94.2359 223.974 94.7474 225.28 95.0195 226.792C95.5241 229.595 95.5107 232.409 94.9791 235.236C94.4419 238.032 93.4629 240.63 92.0419 243.032C90.6525 245.428 88.8873 247.453 86.7464 249.107C84.5998 250.729 82.1566 251.786 79.4166 252.279C78.6293 252.421 77.8907 252.473 77.201 252.434C76.5485 252.422 75.9375 252.369 75.3681 252.277C75.353 254.36 75.3622 256.488 75.3957 258.661C75.4663 260.859 75.541 263.17 75.6198 265.595C75.5537 267.395 74.875 268.411 73.5838 268.644ZM88.8782 225.459C88.1853 225.583 87.3885 226.215 86.4878 227.352C85.6186 228.484 84.7088 229.932 83.7584 231.696C82.8023 233.429 81.856 235.307 80.9194 237.329C80.0086 239.313 79.1395 241.258 78.3119 243.163C77.5158 245.062 76.8374 246.712 76.2769 248.114C78.625 247.431 80.6217 246.421 82.2669 245.085C83.9065 243.716 85.2386 242.176 86.2634 240.463C87.2881 238.751 88.0468 237.005 88.5393 235.225C89.0576 233.409 89.364 231.679 89.4584 230.036C89.5529 228.394 89.4952 226.99 89.2854 225.824C89.2344 225.541 89.0986 225.419 88.8782 225.459ZM118.441 223.794C118.809 225.842 118.01 228.083 116.042 230.518C114.1 232.916 110.843 235.323 106.271 237.739C106.276 237.771 106.285 237.818 106.296 237.881C106.483 238.92 106.76 239.732 107.125 240.317C107.485 240.87 108.09 241.07 108.94 240.917C110.2 240.69 111.533 240.06 112.94 239.026C114.373 237.955 115.817 236.671 117.27 235.174C118.75 233.639 120.171 232.05 121.533 230.407C122.895 228.764 124.146 227.222 125.285 225.781C126.449 224.303 127.436 223.102 128.245 222.176C129.079 221.213 129.654 220.703 129.969 220.646C130.63 220.527 131.227 220.68 131.759 221.104C132.322 221.523 132.694 222.236 132.875 223.244C132.977 223.811 133.068 224.494 133.147 225.292C134.101 222.649 135.353 220.392 136.902 218.52C138.445 216.616 140.031 215.128 141.658 214.055C143.312 212.944 144.768 212.275 146.028 212.049C147.445 211.793 148.457 211.904 149.063 212.38C149.663 212.825 150.017 213.346 150.125 213.945C150.187 214.291 150.171 214.652 150.076 215.027C150.006 215.364 149.722 215.773 149.223 216.253C148.756 216.727 147.938 217.33 146.769 218.06C145.213 218.991 143.756 220.017 142.397 221.14C141.07 222.257 139.91 223.668 138.917 225.375C137.949 227.045 137.183 229.199 136.617 231.837C136.077 234.438 135.82 237.703 135.845 241.633C135.817 242.743 135.601 243.53 135.196 243.993C134.798 244.488 134.284 244.792 133.654 244.905C133.591 244.916 133.48 244.936 133.323 244.964C133.045 245.047 132.74 245.069 132.408 245.032C132.114 245.02 131.782 244.803 131.413 244.382C131.082 243.986 130.739 243.251 130.383 242.177C130.027 241.103 129.664 239.543 129.296 237.496C129.075 236.268 128.89 234.968 128.74 233.597C128.617 232.188 128.516 230.727 128.439 229.213C127.116 231.076 125.686 232.976 124.148 234.911C122.611 236.846 120.988 238.666 119.279 240.372C117.596 242.041 115.899 243.452 114.189 244.605C112.509 245.753 110.882 246.468 109.308 246.752C107.198 247.132 105.344 246.766 103.745 245.656C102.173 244.508 101.129 242.502 100.613 239.636C100.103 236.801 100.019 234.167 100.361 231.731C100.729 229.259 101.376 227.078 102.304 225.188C103.232 223.297 104.309 221.786 105.536 220.655C106.789 219.487 108.029 218.792 109.258 218.571C111.872 218.1 113.969 218.373 115.55 219.389C117.126 220.373 118.089 221.842 118.441 223.794ZM106.128 233.424C106.873 232.868 107.654 232.239 108.471 231.539C109.314 230.802 110.091 230.061 110.802 229.315C111.507 228.538 112.058 227.805 112.454 227.116C112.882 226.421 113.048 225.806 112.951 225.27C112.792 224.389 112.444 223.899 111.906 223.8C111.394 223.665 110.729 223.671 109.91 223.818C109.059 223.971 108.37 224.567 107.842 225.605C107.308 226.612 106.908 227.822 106.642 229.235C106.376 230.648 106.205 232.045 106.128 233.424ZM155.068 240.806C153.714 241.05 152.719 241.034 152.085 240.758C151.481 240.476 151.114 239.973 150.984 239.249C150.87 238.619 150.994 238.044 151.356 237.524C151.712 236.972 152.603 236.324 154.03 235.579C155.697 234.726 157.256 233.812 158.706 232.835C160.181 231.822 161.347 230.799 162.201 229.767C163.088 228.73 163.446 227.739 163.275 226.794C163.162 226.164 162.859 225.747 162.367 225.543C161.907 225.333 161.393 225.279 160.826 225.382C160.354 225.467 159.675 225.67 158.79 225.992C157.931 226.277 156.986 226.626 155.955 227.039C154.918 227.421 153.91 227.781 152.931 228.12C151.977 228.422 151.154 228.635 150.461 228.76C148.823 229.054 147.546 228.91 146.628 228.328C145.704 227.714 145.138 226.824 144.928 225.659C144.815 225.029 144.989 224.103 145.452 222.882C145.915 221.661 146.579 220.289 147.443 218.768C148.307 217.247 149.297 215.703 150.413 214.137C151.529 212.57 152.681 211.111 153.868 209.759C155.082 208.37 156.258 207.232 157.399 206.344C158.534 205.424 159.543 204.885 160.424 204.726C161.432 204.545 162.292 204.715 163.004 205.237C163.747 205.754 164.215 206.547 164.408 207.618C164.498 208.122 164.55 208.681 164.564 209.297C164.571 209.881 164.429 210.443 164.136 210.983C163.837 211.492 163.311 211.912 162.558 212.243C161.805 212.574 160.728 212.735 159.329 212.727C158.4 213.707 157.437 214.774 156.442 215.929C155.473 217.046 154.575 218.2 153.749 219.389C152.917 220.546 152.255 221.657 151.764 222.721C152.861 222.133 154.13 221.596 155.57 221.109C157.005 220.591 158.478 220.195 159.99 219.923C161.817 219.594 163.357 219.659 164.609 220.116C165.888 220.536 166.891 221.233 167.62 222.208C168.379 223.176 168.875 224.306 169.108 225.598C169.369 227.046 169.157 228.58 168.473 230.199C167.789 231.818 166.767 233.367 165.408 234.847C164.049 236.328 162.474 237.603 160.683 238.673C158.893 239.743 157.021 240.454 155.068 240.806ZM203.86 232.022C202.632 232.243 201.675 232.074 200.989 231.514C200.309 230.987 199.796 229.762 199.45 227.841C199.155 226.203 199.04 224.029 199.105 221.319C199.17 218.609 199.261 215.682 199.378 212.54C196.585 217.074 193.002 220.288 188.628 222.181C188.055 224.235 187.296 226.16 186.351 227.956C185.406 229.752 184.297 231.268 183.024 232.505C181.777 233.705 180.382 234.444 178.839 234.722C176.918 235.068 175.151 234.735 173.538 233.725C171.957 232.709 170.932 230.894 170.461 228.28C170.144 226.517 170.142 224.973 170.456 223.648C170.765 222.292 171.209 221.236 171.788 220.482C171.006 219.387 170.476 218.068 170.198 216.525C169.824 214.446 170.059 212.502 170.904 210.692C171.748 208.881 173.017 207.352 174.711 206.104C176.436 204.851 178.401 204.026 180.606 203.629C181.834 203.408 183.056 203.513 184.272 203.944C185.513 204.339 186.594 205.103 187.513 206.238C188.459 207.336 189.102 208.83 189.442 210.719C189.725 212.294 189.801 214.069 189.669 216.043C191.667 214.318 193.545 212.11 195.304 209.42C197.095 206.724 198.599 203.787 199.815 200.61C200.197 199.663 200.876 199.102 201.853 198.926C202.671 198.778 203.362 198.914 203.926 199.333C204.515 199.715 204.88 200.299 205.022 201.087C205.05 201.244 205.049 201.781 205.019 202.697C204.989 203.612 204.944 204.807 204.884 206.281C204.818 207.724 204.747 209.313 204.669 211.051C204.624 212.782 204.583 214.545 204.549 216.34C204.514 218.134 204.494 219.829 204.488 221.423C205.041 219.795 205.639 218.062 206.283 216.222C206.954 214.346 207.661 212.495 208.405 210.671C209.144 208.814 209.895 207.118 210.659 205.583C211.423 204.047 212.16 202.809 212.868 201.869C213.571 200.897 214.222 200.357 214.82 200.249C216.017 200.034 217.087 200.199 218.031 200.744C218.974 201.29 219.511 201.924 219.642 202.649C219.772 203.373 219.895 204.505 220.009 206.045C220.124 207.585 220.226 209.323 220.314 211.258C220.428 213.156 220.529 215.072 220.617 217.007C220.705 218.942 220.81 220.695 220.93 222.267C221.045 223.807 221.17 224.955 221.306 225.711C221.42 226.341 221.228 226.993 220.732 227.668C220.236 228.342 219.609 228.748 218.854 228.884C218.791 228.895 218.68 228.915 218.523 228.943C218.151 229.043 217.793 229.042 217.45 228.941C217.112 228.872 216.759 228.448 216.391 227.669C216.055 226.884 215.711 225.515 215.359 223.562C215.121 222.24 214.924 220.78 214.766 219.182C214.609 217.585 214.482 215.982 214.388 214.373C214.319 212.727 214.286 211.189 214.289 209.758C213.714 211.259 213.078 212.967 212.382 214.881C211.712 216.757 211.003 218.689 210.256 220.677C209.502 222.634 208.742 224.461 207.975 226.16C207.234 227.822 206.504 229.188 205.787 230.261C205.101 231.327 204.459 231.914 203.86 232.022ZM183.257 219.441C183.446 218.139 183.547 216.804 183.561 215.436C183.569 214.037 183.457 212.691 183.224 211.4C183.128 210.864 182.924 210.365 182.613 209.9C182.302 209.436 181.878 209.252 181.343 209.349C180.272 209.541 179.257 209.952 178.297 210.58C177.368 211.202 176.647 211.982 176.133 212.92C175.619 213.858 175.464 214.894 175.668 216.028C175.85 217.036 176.334 217.826 177.12 218.4C177.937 218.968 178.881 219.335 179.951 219.5C181.053 219.659 182.108 219.648 183.116 219.467C183.147 219.461 183.194 219.453 183.257 219.441ZM182.069 223.947C180.961 224.114 179.865 224.165 178.78 224.1C177.69 224.004 176.674 223.78 175.733 223.429C175.729 223.95 175.723 224.456 175.713 224.945C175.698 225.403 175.727 225.837 175.801 226.246C175.926 226.939 176.149 227.549 176.472 228.076C176.82 228.566 177.372 228.743 178.128 228.607C178.916 228.465 179.641 227.977 180.303 227.142C180.997 226.302 181.586 225.237 182.069 223.947ZM231.763 226.364C230.756 226.546 229.791 226.427 228.87 226.007C227.955 225.619 227.182 225.027 226.551 224.23C225.914 223.402 225.502 222.468 225.315 221.429C224.963 219.476 225.046 217.494 225.561 215.483C226.109 213.466 226.941 211.496 228.057 209.571C229.174 207.647 230.442 205.842 231.862 204.155C233.308 202.432 234.774 200.916 236.262 199.608C237.781 198.294 239.183 197.229 240.466 196.412C241.781 195.59 242.833 195.109 243.62 194.967C244.533 194.802 245.31 194.874 245.951 195.181C246.617 195.451 247.024 195.996 247.172 196.815C247.217 197.067 247.191 197.283 247.093 197.463C247.52 197.484 247.893 197.66 248.213 197.993C248.533 198.325 248.761 198.87 248.897 199.626C248.954 199.94 249.022 200.773 249.103 202.125C249.184 203.476 249.3 205.113 249.451 207.037C249.634 208.955 249.909 210.937 250.278 212.984C250.334 213.299 250.433 213.574 250.573 213.809C250.707 214.013 250.931 214.086 251.246 214.029C252.506 213.802 253.736 213.321 254.937 212.584C256.163 211.811 257.322 210.936 258.414 209.959C259.532 208.945 260.527 207.969 261.399 207.032C262.297 206.057 263.046 205.256 263.648 204.627C264.276 203.961 264.701 203.608 264.921 203.569C265.992 203.376 266.624 203.815 266.816 204.886C266.868 205.169 266.629 205.83 266.1 206.868C265.598 207.869 264.869 209.057 263.913 210.432C262.952 211.775 261.849 213.145 260.605 214.539C259.386 215.897 258.07 217.076 256.657 218.079C255.276 219.075 253.877 219.701 252.459 219.956C250.727 220.268 249.331 220.097 248.27 219.442C247.241 218.782 246.413 217.793 245.785 216.475C245.184 215.121 244.708 213.564 244.359 211.806C243.167 214.394 241.866 216.742 240.457 218.849C239.074 220.919 237.642 222.624 236.16 223.963C234.678 225.303 233.212 226.104 231.763 226.364ZM244.226 199.686C241.406 201.722 238.941 203.922 236.83 206.285C234.714 208.617 233.118 210.952 232.044 213.292C231.001 215.626 230.652 217.753 230.998 219.674C231.094 220.209 231.395 220.432 231.898 220.341C232.497 220.233 233.222 219.745 234.073 218.877C234.956 218.002 235.879 216.893 236.84 215.55C237.795 214.175 238.728 212.674 239.638 211.047C240.543 209.388 241.363 207.712 242.098 206.019C242.834 204.326 243.376 202.733 243.725 201.239C243.855 200.696 244.022 200.178 244.226 199.686ZM271.034 219.88C268.2 220.39 265.808 219.926 263.858 218.489C261.935 217.015 260.681 214.655 260.097 211.412C259.779 209.648 259.644 207.543 259.691 205.096C259.733 202.617 259.893 199.987 260.173 197.205C260.478 194.387 260.837 191.591 261.248 188.818C261.691 186.04 262.152 183.453 262.631 181.058C263.11 178.664 263.544 176.651 263.934 175.02C264.291 173.753 264.989 173.025 266.028 172.838C266.69 172.719 267.262 172.828 267.745 173.163C268.26 173.493 268.599 174.115 268.763 175.028C268.843 175.469 268.795 176.47 268.621 178.029C268.446 179.589 268.193 181.52 267.86 183.824C267.552 186.09 267.213 188.541 266.842 191.176C266.503 193.806 266.198 196.446 265.927 199.096C265.688 201.74 265.549 204.22 265.51 206.535C265.466 208.819 265.583 210.733 265.861 212.276C265.975 212.906 266.238 213.379 266.653 213.694C267.099 214.004 267.621 214.105 268.219 213.997C269.511 213.765 270.791 213.291 272.06 212.574C273.361 211.852 274.607 211.01 275.8 210.048C277.023 209.08 278.16 208.078 279.209 207.044C280.259 206.01 281.191 205.045 282.005 204.151C282.845 203.219 283.525 202.479 284.044 201.931C284.723 201.19 285.205 200.795 285.488 200.744C286.559 200.551 287.188 200.974 287.375 202.014C287.421 202.266 287.199 202.842 286.711 203.743C286.3 204.532 285.703 205.55 284.92 206.796C284.136 208.043 283.207 209.381 282.131 210.81C281.081 212.202 279.925 213.548 278.663 214.848C277.433 216.143 276.169 217.248 274.871 218.165C273.573 219.081 272.294 219.653 271.034 219.88ZM290.51 216.081C288.778 216.393 287.149 216.198 285.625 215.497C284.106 214.828 282.803 213.729 281.715 212.202C280.659 210.669 279.93 208.784 279.527 206.548C279.096 204.154 278.96 201.773 279.119 199.403C279.272 197.002 279.625 194.809 280.178 192.824C280.725 190.807 281.343 189.183 282.032 187.954C282.747 186.687 283.435 185.994 284.096 185.875C284.789 185.751 285.393 185.853 285.908 186.183C286.454 186.508 286.801 187.079 286.948 187.898C286.971 188.024 286.911 188.506 286.769 189.345C286.654 190.146 286.499 191.182 286.305 192.452C286.105 193.691 285.931 195.072 285.782 196.594C285.628 198.085 285.542 199.596 285.525 201.127C285.54 202.653 285.669 204.093 285.913 205.447C286.208 207.085 286.695 208.346 287.375 209.232C288.054 210.118 289.229 210.41 290.898 210.11C292.599 209.803 294.164 209.018 295.595 207.752C297.056 206.481 298.396 204.891 299.613 202.981C300.824 201.039 301.938 198.92 302.955 196.624C301.34 197.045 299.808 197.385 298.36 197.646C297.383 197.822 296.658 197.855 296.183 197.746C295.702 197.605 295.368 197.372 295.179 197.048C295.023 196.719 294.902 196.318 294.817 195.846C294.698 195.184 294.889 194.532 295.391 193.889C295.893 193.246 296.503 192.843 297.222 192.681C298.559 192.343 299.909 191.986 301.272 191.611C302.667 191.23 304.043 190.836 305.4 190.429C306.105 188.383 306.734 186.368 307.287 184.383C307.866 182.36 308.386 180.462 308.847 178.688C309.202 176.511 309.634 174.482 310.141 172.603C310.674 170.686 311.237 169.121 311.832 167.909C312.427 166.696 313.07 166.028 313.763 165.903C314.582 165.755 315.236 165.865 315.725 166.233C316.245 166.594 316.57 167.137 316.701 167.861C316.74 168.082 316.699 168.756 316.577 169.883C316.455 171.011 316.263 172.476 316.003 174.279C315.773 176.076 315.505 178.107 315.198 180.374C314.916 182.603 314.61 184.966 314.28 187.465C317.181 186.422 319.817 185.443 322.189 184.529C324.592 183.608 326.552 182.849 328.07 182.251C329.588 181.652 330.504 181.325 330.819 181.268C331.449 181.155 332.023 181.36 332.54 181.885C333.051 182.378 333.355 182.892 333.452 183.428C333.508 183.743 332.999 184.257 331.925 184.971C330.882 185.679 329.422 186.51 327.546 187.466C325.695 188.384 323.564 189.37 321.152 190.422C318.766 191.436 316.243 192.411 313.582 193.345C313.275 195.969 312.99 198.54 312.728 201.059C312.492 203.54 312.319 205.831 312.209 207.931C312.147 208.853 311.907 209.595 311.488 210.158C311.095 210.684 310.489 211.021 309.671 211.168C308.82 211.321 308.153 211.23 307.67 210.894C307.193 210.59 306.863 209.934 306.682 208.926C306.665 208.832 306.666 208.295 306.685 207.316C306.729 206.3 306.782 205.055 306.842 203.581C306.927 202.07 306.991 200.531 307.034 198.962C305.641 201.879 304.092 204.564 302.388 207.017C300.683 209.47 298.837 211.493 296.848 213.087C294.858 214.68 292.746 215.678 290.51 216.081ZM284.596 182.42C283.557 182.607 282.65 182.445 281.875 181.934C281.095 181.392 280.625 180.68 280.466 179.798C280.274 178.728 280.503 177.743 281.154 176.846C281.837 175.942 282.729 175.392 283.832 175.193C285.06 174.972 286.048 175.135 286.797 175.683C287.578 176.226 288.067 177.048 288.266 178.15C288.407 178.938 288.14 179.799 287.463 180.733C286.78 181.637 285.824 182.199 284.596 182.42ZM333.551 223.663C331.787 223.98 330.161 224.159 328.673 224.2C327.19 224.271 325.716 224.212 324.251 224.02C322.786 223.829 321.185 223.515 319.449 223.08C318.73 222.884 318.12 222.653 317.617 222.386C317.113 222.119 316.799 221.639 316.675 220.946C316.493 219.938 316.669 219.11 317.203 218.461C317.71 217.849 318.499 217.447 319.57 217.254C320.137 217.152 320.896 217.211 321.845 217.43C322.801 217.681 323.891 217.956 325.115 218.256C326.377 218.581 327.751 218.806 329.236 218.928C330.727 219.083 332.291 219.012 333.929 218.718C335.598 218.417 337.032 217.444 338.231 215.797C339.431 214.15 340.244 211.988 340.672 209.31C341.138 206.657 341.064 203.63 340.452 200.229C340.31 199.442 340.142 198.594 339.946 197.687C339.744 196.748 339.534 195.761 339.315 194.728C338.567 197.073 337.699 199.294 336.711 201.39C335.722 203.487 334.625 205.245 333.417 206.665C332.236 208.049 330.936 208.868 329.519 209.123C327.787 209.435 326.453 209.252 325.519 208.575C324.61 207.861 323.991 206.59 323.662 204.764C323.384 203.221 323.191 201.516 323.083 199.65C323 197.746 322.993 195.813 323.063 193.849C323.132 191.886 323.281 190.006 323.51 188.209C323.765 186.375 324.094 184.771 324.497 183.398C324.805 182.399 325.448 181.812 326.424 181.637C327.054 181.523 327.737 181.709 328.475 182.194C329.244 182.673 329.719 183.417 329.901 184.425C330.003 184.991 330.009 185.836 329.918 186.958C329.827 188.079 329.699 189.354 329.534 190.782C329.394 192.173 329.252 193.645 329.109 195.199C328.961 196.722 328.872 198.217 328.844 199.685C328.81 201.122 328.895 202.407 329.099 203.541C329.122 203.667 329.228 203.713 329.417 203.679C329.795 203.611 330.242 203.205 330.758 202.462C331.301 201.682 331.872 200.701 332.472 199.52C333.098 198.302 333.707 196.989 334.299 195.582C334.917 194.137 335.506 192.715 336.067 191.313C336.627 189.912 337.129 188.634 337.572 187.482C337.387 186.995 337.244 186.565 337.145 186.193C337.071 185.784 337.009 185.437 336.958 185.154C336.725 183.863 336.753 182.752 337.041 181.822C337.36 180.887 338.197 180.297 339.551 180.054C340.433 179.895 341.17 180.104 341.761 180.68C342.347 181.225 342.745 182.08 342.954 183.245C343.045 183.749 343.071 184.346 343.033 185.036C342.989 185.694 342.855 186.758 342.632 188.229L342.888 186.671C343.682 189.454 344.372 191.931 344.958 194.102C345.575 196.267 346.079 198.436 346.471 200.609C347.208 204.703 347.153 208.371 346.306 211.612C345.496 214.879 343.994 217.556 341.801 219.641C339.639 221.721 336.889 223.062 333.551 223.663ZM398.288 169.951C398.356 170.329 398.29 170.682 398.089 171.011C397.888 171.34 397.612 171.617 397.263 171.842C396.767 172.159 395.889 172.61 394.629 173.194C393.368 173.779 391.833 174.462 390.023 175.243C388.244 176.018 386.326 176.835 384.27 177.693C382.208 178.519 380.143 179.33 378.075 180.125C377.8 183.296 377.527 186.564 377.255 189.929C376.977 193.263 376.691 196.55 376.397 199.79C376.28 200.949 376.052 201.851 375.713 202.497C375.38 203.175 374.678 203.61 373.608 203.803C372.442 204.013 371.587 203.777 371.041 203.095C370.533 202.438 370.307 201.455 370.364 200.144C370.565 196.564 370.745 193.231 370.905 190.146C371.096 187.055 371.248 184.557 371.36 182.651C369.527 183.306 367.919 183.855 366.536 184.3C365.147 184.712 364.151 184.957 363.547 185.033C362.874 185.089 362.275 184.92 361.749 184.527C361.223 184.134 360.913 183.589 360.82 182.89C360.769 182.249 360.956 181.662 361.381 181.131C361.8 180.568 362.347 180.177 363.023 179.957C363.982 179.687 365.217 179.319 366.726 178.852C368.235 178.385 369.896 177.858 371.709 177.272C371.829 175.592 372.004 173.854 372.233 172.056C372.456 170.228 372.71 168.475 372.993 166.799C373.302 165.085 373.617 163.581 373.937 162.288C374.257 160.995 374.589 160.041 374.934 159.426C375.206 158.954 375.575 158.563 376.039 158.252C376.535 157.935 377.035 157.731 377.539 157.64C378.2 157.521 378.778 157.661 379.272 158.06C379.767 158.458 380.071 158.973 380.184 159.603C380.229 159.855 380.262 160.125 380.281 160.414C380.295 160.672 380.278 160.935 380.228 161.204C379.914 162.886 379.611 164.908 379.321 167.269C379.062 169.624 378.811 172.205 378.569 175.013C380.869 174.241 383.121 173.478 385.326 172.723C387.557 171.931 389.573 171.211 391.375 170.561C393.202 169.875 394.66 169.303 395.748 168.847C396.338 168.513 396.882 168.464 397.38 168.7C397.872 168.904 398.175 169.321 398.288 169.951ZM393.734 196.481C392.946 196.623 392.218 196.462 391.549 195.997C390.912 195.526 390.497 194.756 390.304 193.685C390.219 193.212 390.143 192.429 390.076 191.336C390.035 190.205 389.997 188.912 389.963 187.455C389.959 185.992 389.929 184.469 389.872 182.887C389.846 181.298 389.787 179.797 389.695 178.383C389.634 176.963 389.548 175.759 389.435 174.772C389.283 173.563 389.444 172.656 389.921 172.05C390.391 171.413 391.02 171.023 391.807 170.882C392.437 170.768 393.032 170.824 393.593 171.048C394.18 171.235 394.621 171.79 394.917 172.712C395.239 173.597 395.493 174.917 395.678 176.671C396.611 173.902 397.607 171.398 398.667 169.159C399.758 166.914 400.986 165.067 402.351 163.619C404.608 161.164 406.792 159.747 408.902 159.367C410.098 159.151 410.934 159.277 411.408 159.745C411.883 160.212 412.171 160.729 412.273 161.296C412.341 161.674 412.309 162.037 412.176 162.386C412.076 162.729 411.789 163.123 411.316 163.565C410.843 164.008 410.106 164.612 409.106 165.378C407.762 166.4 406.476 167.656 405.248 169.145C404.052 170.628 402.918 172.458 401.847 174.634C400.776 176.81 399.768 179.43 398.824 182.494C397.88 185.558 396.985 189.166 396.139 193.317C396.048 194.439 395.767 195.221 395.294 195.664C394.852 196.101 394.332 196.374 393.734 196.481ZM412.139 193.891C411.132 194.073 410.167 193.954 409.246 193.534C408.331 193.146 407.558 192.554 406.927 191.757C406.29 190.929 405.878 189.995 405.691 188.956C405.339 187.003 405.421 185.021 405.937 183.01C406.485 180.993 407.317 179.022 408.433 177.098C409.55 175.174 410.818 173.369 412.238 171.682C413.683 169.959 415.15 168.443 416.638 167.135C418.157 165.821 419.558 164.756 420.842 163.939C422.157 163.117 423.209 162.635 423.996 162.494C424.909 162.329 425.686 162.401 426.327 162.708C426.993 162.978 427.4 163.523 427.548 164.342C427.593 164.594 427.567 164.81 427.469 164.99C427.896 165.011 428.269 165.187 428.589 165.52C428.909 165.852 429.137 166.397 429.273 167.152C429.33 167.467 429.398 168.3 429.479 169.651C429.56 171.003 429.675 172.64 429.827 174.564C430.009 176.482 430.285 178.464 430.654 180.511C430.71 180.826 430.809 181.101 430.948 181.336C431.083 181.539 431.307 181.613 431.622 181.556C432.882 181.329 434.112 180.848 435.312 180.111C436.539 179.338 437.698 178.463 438.79 177.486C439.908 176.471 440.903 175.496 441.775 174.558C442.672 173.584 443.422 172.782 444.024 172.154C444.652 171.488 445.077 171.135 445.297 171.096C446.368 170.903 447 171.342 447.192 172.413C447.243 172.696 447.005 173.357 446.476 174.395C445.974 175.396 445.245 176.584 444.289 177.959C443.328 179.302 442.225 180.671 440.98 182.066C439.762 183.423 438.446 184.603 437.033 185.605C435.652 186.602 434.253 187.228 432.835 187.483C431.103 187.795 429.707 187.623 428.646 186.969C427.617 186.309 426.788 185.32 426.161 184.002C425.56 182.648 425.084 181.091 424.735 179.333C423.543 181.921 422.242 184.269 420.833 186.376C419.45 188.446 418.018 190.151 416.536 191.49C415.053 192.83 413.588 193.63 412.139 193.891ZM424.602 167.213C421.782 169.249 419.316 171.448 417.206 173.812C415.09 176.144 413.494 178.479 412.42 180.819C411.377 183.152 411.028 185.28 411.374 187.201C411.47 187.736 411.77 187.959 412.274 187.868C412.873 187.76 413.598 187.272 414.449 186.403C415.332 185.529 416.254 184.42 417.216 183.077C418.171 181.702 419.104 180.201 420.014 178.574C420.918 176.915 421.738 175.239 422.474 173.546C423.21 171.853 423.752 170.26 424.101 168.766C424.231 168.223 424.398 167.705 424.602 167.213ZM449.764 187.41C448.032 187.722 446.404 187.528 444.879 186.827C443.361 186.157 442.057 185.059 440.97 183.531C439.913 181.998 439.184 180.113 438.781 177.877C438.35 175.484 438.214 173.102 438.373 170.733C438.526 168.332 438.879 166.138 439.432 164.153C439.979 162.136 440.597 160.513 441.286 159.283C442.001 158.017 442.689 157.324 443.351 157.205C444.043 157.08 444.647 157.183 445.162 157.513C445.708 157.837 446.055 158.409 446.202 159.227C446.225 159.353 446.165 159.836 446.024 160.674C445.908 161.475 445.753 162.511 445.559 163.782C445.359 165.02 445.185 166.401 445.036 167.924C444.882 169.415 444.797 170.926 444.78 172.457C444.794 173.982 444.923 175.422 445.167 176.777C445.462 178.414 445.949 179.676 446.629 180.561C447.309 181.447 448.483 181.74 450.152 181.439C451.853 181.133 453.418 180.347 454.849 179.082C456.311 177.81 457.65 176.22 458.867 174.31C460.078 172.369 461.192 170.25 462.209 167.953C460.594 168.374 459.063 168.715 457.614 168.976C456.638 169.152 455.912 169.185 455.437 169.075C454.956 168.934 454.622 168.702 454.434 168.378C454.277 168.048 454.156 167.647 454.071 167.175C453.952 166.514 454.143 165.861 454.645 165.218C455.147 164.575 455.758 164.173 456.476 164.011C457.813 163.672 459.164 163.316 460.527 162.94C461.921 162.559 463.297 162.165 464.654 161.758C465.359 159.713 465.988 157.698 466.541 155.712C467.12 153.69 467.64 151.791 468.101 150.018C468.457 147.84 468.888 145.812 469.395 143.932C469.928 142.015 470.492 140.451 471.086 139.238C471.681 138.026 472.324 137.357 473.017 137.232C473.836 137.085 474.49 137.195 474.979 137.562C475.499 137.924 475.824 138.466 475.955 139.191C475.994 139.411 475.953 140.085 475.831 141.213C475.709 142.34 475.517 143.805 475.257 145.608C475.028 147.405 474.759 149.437 474.452 151.703C474.17 153.932 473.864 156.296 473.534 158.794C476.435 157.751 479.071 156.773 481.443 155.858C483.846 154.938 485.806 154.178 487.324 153.58C488.842 152.982 489.759 152.654 490.074 152.597C490.703 152.484 491.277 152.69 491.794 153.214C492.306 153.707 492.609 154.222 492.706 154.757C492.763 155.072 492.254 155.586 491.179 156.3C490.136 157.008 488.676 157.84 486.8 158.795C484.949 159.714 482.818 160.699 480.406 161.751C478.021 162.766 475.497 163.74 472.837 164.675C472.529 167.299 472.244 169.87 471.982 172.388C471.746 174.869 471.573 177.16 471.463 179.261C471.402 180.182 471.161 180.924 470.743 181.488C470.349 182.014 469.744 182.35 468.925 182.498C468.074 182.651 467.408 182.559 466.925 182.224C466.447 181.919 466.118 181.263 465.936 180.256C465.919 180.161 465.92 179.625 465.939 178.646C465.984 177.63 466.036 176.385 466.096 174.911C466.181 173.4 466.246 171.86 466.288 170.292C464.895 173.209 463.346 175.894 461.642 178.346C459.938 180.799 458.091 182.822 456.102 184.416C454.113 186.01 452 187.008 449.764 187.41ZM443.85 153.75C442.811 153.937 441.904 153.775 441.129 153.264C440.349 152.722 439.879 152.01 439.72 151.128C439.528 150.057 439.757 149.073 440.408 148.175C441.091 147.272 441.983 146.721 443.086 146.523C444.314 146.302 445.303 146.465 446.052 147.013C446.832 147.555 447.321 148.377 447.52 149.48C447.662 150.267 447.394 151.128 446.717 152.063C446.034 152.966 445.079 153.528 443.85 153.75Z" fill="#588DCA"/>
</svg>
