<svg width="419" height="60" viewBox="0 0 419 60" fill="none" xmlns="http://www.w3.org/2000/svg">
<path d="M12.2038 58.7095C11.6451 58.7478 11.2164 58.5768 10.9176 58.1964C10.6359 57.8308 10.4742 57.3447 10.4326 56.7382C10.4282 56.6743 10.4479 56.3763 10.4915 55.844C10.5511 55.3107 10.6323 54.6235 10.7349 53.7825C10.8376 52.9415 10.9496 52.0036 11.071 50.9689C11.1914 49.9182 11.318 48.843 11.451 47.7433C11.583 46.6277 11.7096 45.5525 11.831 44.5177C11.2334 45.8578 10.5893 47.1048 9.8987 48.2588C9.2081 49.4128 8.48675 50.3524 7.73465 51.0776C6.98145 51.7869 6.22175 52.1678 5.45555 52.2204C4.44992 52.2894 3.65438 52.0313 3.06892 51.446C2.49943 50.8596 2.18127 50.0796 2.11443 49.1059C2.05307 48.212 2.213 47.2708 2.59421 46.2824C2.99028 45.2769 3.52314 44.2781 4.19276 43.2859C4.87726 42.2766 5.63742 41.3183 6.47325 40.411C7.32503 39.5025 8.1834 38.6898 9.04833 37.9729C9.91327 37.256 10.7162 36.6877 11.4572 36.2679C12.2131 35.8312 12.8305 35.5963 13.3093 35.5635C13.9159 35.5218 14.3636 35.6194 14.6525 35.8562C14.9563 36.0759 15.129 36.489 15.1706 37.0956C15.1914 37.3989 15.1808 37.9449 15.1387 38.7336C15.0966 39.5224 15.033 40.4649 14.9479 41.5613C14.8628 42.6577 14.7592 43.8356 14.6372 45.0949C14.5311 46.3531 14.4176 47.6199 14.2966 48.8951C14.1745 50.1545 14.0561 51.3494 13.9412 52.4799C13.8264 53.6104 13.7262 54.6036 13.6406 55.4595C13.555 56.3153 13.486 56.9456 13.4336 57.3501C13.3971 57.7535 13.2828 58.0741 13.0906 58.3118C12.8984 58.5496 12.6028 58.6821 12.2038 58.7095ZM5.14683 49.4751C5.56186 49.4466 6.00998 49.1993 6.49119 48.7333C6.97131 48.2513 7.46606 47.6319 7.97544 46.8753C8.48373 46.1026 8.98598 45.2422 9.48222 44.294C9.97845 43.3458 10.4496 42.3833 10.8958 41.4064C11.3568 40.4125 11.7653 39.4704 12.1211 38.5799C11.2402 39.2979 10.3642 40.0878 9.49321 40.9494C8.62107 41.7951 7.83204 42.6832 7.1261 43.6138C6.41907 44.5283 5.86533 45.4564 5.46487 46.3981C5.06441 47.3397 4.89541 48.2655 4.95786 49.1753C4.96334 49.2551 4.97625 49.3264 4.9966 49.3892C5.01694 49.4519 5.06702 49.4806 5.14683 49.4751ZM27.1302 51.5024C26.7631 51.5276 26.4175 51.399 26.0933 51.1165C25.7863 50.8489 25.6092 50.3719 25.5621 49.6855C25.527 49.1748 25.5182 48.4617 25.5356 47.5463C25.5678 46.614 25.6617 45.4127 25.8174 43.9426C25.3376 45.1302 24.8251 46.1918 24.2799 47.1273C23.7347 48.0629 23.1843 48.8063 22.6288 49.3577C22.0881 49.8919 21.5544 50.1772 21.0276 50.2133C20.1816 50.2714 19.4936 50.062 18.9637 49.5852C18.4328 49.0924 18.1179 48.1277 18.0193 46.691C17.9722 46.0047 17.975 45.2266 18.0275 44.357C18.0961 43.4863 18.1965 42.6133 18.3289 41.7382C18.4613 40.8631 18.6002 40.0838 18.7458 39.4002C18.9062 38.6996 19.0547 38.1762 19.1913 37.83C19.2993 37.5339 19.4436 37.2995 19.6242 37.1267C19.8207 36.9528 20.0786 36.8549 20.3979 36.833C20.9087 36.798 21.3112 36.9387 21.6056 37.2553C21.9 37.5719 22.0592 37.9058 22.0833 38.2569C22.1019 38.5283 22.0649 38.9238 21.9723 39.4433C21.8956 39.9618 21.7909 40.5383 21.658 41.1729C21.5411 41.8064 21.4173 42.4564 21.2867 43.1229C21.156 43.7894 21.0465 44.4144 20.9583 44.9978C20.886 45.5801 20.8635 46.0708 20.8909 46.4699C20.9249 46.9647 21.1334 47.199 21.5165 47.1727C21.74 47.1573 22.0125 46.9221 22.3341 46.467C22.6717 46.0109 23.0153 45.4099 23.3651 44.6642C23.7297 43.9015 24.09 43.0748 24.4458 42.1844C24.8165 41.2769 25.1468 40.3641 25.4366 39.4461C25.7413 38.511 25.9951 37.6517 26.1979 36.8679C26.3246 36.3781 26.5171 36.0281 26.7753 35.8179C27.0335 35.6077 27.3382 35.4906 27.6894 35.4665C28.2321 35.4292 28.6575 35.5524 28.9657 35.836C29.2898 36.1184 29.471 36.539 29.5094 37.0977C29.5269 37.3531 29.5166 37.7868 29.4784 38.3989C29.4402 39.0109 29.3852 39.7284 29.3134 40.5512C29.2575 41.373 29.181 42.2443 29.0839 43.1651C28.9867 44.0859 28.8884 44.9907 28.7891 45.8796C28.7057 46.7674 28.6173 47.5834 28.5241 48.3275C28.4297 49.0557 28.3494 49.6386 28.2832 50.0761C28.1674 50.7256 28.0022 51.1218 27.7875 51.2649C27.5728 51.4079 27.3537 51.4871 27.1302 51.5024ZM33.5438 50.3405C33.0969 50.3712 32.6874 50.2469 32.3154 49.9678C31.9594 49.6875 31.7578 49.2041 31.7107 48.5178C31.6855 48.1506 31.6978 47.6286 31.7475 46.9516C31.8132 46.2735 31.9071 45.5373 32.029 44.7431C32.1498 43.9329 32.2871 43.1296 32.4409 42.3332C32.6107 41.5357 32.7785 40.8266 32.9444 40.2058C33.1092 39.569 33.261 39.0935 33.3998 38.7792C33.5821 38.3979 33.7583 38.1612 33.9284 38.0694C34.1134 37.9604 34.2937 37.9 34.4692 37.8879C34.7885 37.866 35.0904 37.9415 35.3749 38.1144C35.6754 38.2862 35.8481 38.6994 35.893 39.3538C35.9105 39.6092 35.8911 40.0276 35.8348 40.6088C35.7774 41.174 35.7026 41.8367 35.6104 42.5968C35.5182 43.3569 35.4117 44.142 35.2909 44.9522C35.1861 45.7613 35.0785 46.5305 34.9682 47.2597C34.8727 47.9719 34.7936 48.5708 34.7307 49.0562C34.6782 49.4608 34.5309 49.7676 34.2887 49.9766C34.0635 50.2006 33.8152 50.3219 33.5438 50.3405ZM35.2882 35.4501C34.7615 35.4863 34.2642 35.368 33.7964 35.0954C33.3276 34.8069 33.0707 34.3353 33.0258 33.6809C32.9885 33.1382 33.0941 32.6899 33.3424 32.336C33.5908 31.9822 33.8936 31.7208 34.2509 31.552C34.623 31.3661 34.9527 31.2632 35.2401 31.2435C35.5274 31.2238 35.851 31.2657 36.211 31.3693C36.5698 31.457 36.8879 31.6516 37.1652 31.9534C37.4574 32.238 37.6232 32.6677 37.6626 33.2423C37.6889 33.6254 37.5773 33.9859 37.3279 34.3238C37.0773 34.6457 36.7586 34.9081 36.3716 35.1111C36.0005 35.313 35.6394 35.426 35.2882 35.4501ZM42.7193 50.0234C41.8254 50.0848 41.037 49.9304 40.3541 49.5603C39.6722 49.2062 39.1338 48.7219 38.7388 48.1075C38.3427 47.4772 38.1211 46.8188 38.074 46.1324C37.9951 44.9831 38.0978 43.9096 38.3822 42.9117C38.6654 41.898 39.0669 40.9723 39.5868 40.1347C40.1056 39.2812 40.6788 38.5202 41.3065 37.8516C41.9502 37.182 42.577 36.6177 43.187 36.1589C43.8119 35.683 44.3726 35.3237 44.8691 35.0811C45.3646 34.8226 45.7321 34.6851 45.9715 34.6687C46.4025 34.6391 46.7123 34.7141 46.9011 34.8936C47.1047 35.056 47.2207 35.3447 47.2492 35.7597C47.2656 35.9992 47.1098 36.2986 46.7816 36.6579C46.4694 37.0161 46.0488 37.4299 45.5197 37.8992C45.0065 38.3674 44.4653 38.8937 43.896 39.4781C43.3266 40.0625 42.7856 40.709 42.273 41.4178C41.7763 42.1255 41.3797 42.8904 41.0833 43.7127C40.8029 44.5338 40.695 45.4152 40.7597 46.357C40.7838 46.7082 40.8662 46.9752 41.0071 47.158C41.1639 47.3396 41.4019 47.4195 41.7212 47.3976C42.631 47.3352 43.5938 47.1087 44.6094 46.7182C45.6399 46.3107 46.657 45.8239 47.6606 45.2579C48.6791 44.6748 49.6326 44.0801 50.5211 43.4738C51.4257 42.8664 52.1984 42.3242 52.8392 41.8472C53.0974 41.6371 53.3185 41.4695 53.5023 41.3447C53.6862 41.2198 53.8181 41.1546 53.8979 41.1491C54.3767 41.1162 54.6332 41.3472 54.6671 41.8421C54.6847 42.0975 54.5167 42.4538 54.1632 42.9111C53.7546 43.5004 53.1874 44.1167 52.4618 44.7599C51.7521 45.402 50.9529 46.0262 50.0644 46.6325C49.1918 47.2377 48.2914 47.7886 47.3632 48.2853C46.451 48.781 45.5887 49.185 44.7761 49.4974C43.9636 49.8097 43.278 49.9851 42.7193 50.0234ZM65.1801 49.5643C64.0946 49.6388 63.0731 49.4763 62.1155 49.077C61.159 48.6936 60.2724 48.161 59.4558 47.4794C58.6381 46.7817 57.8959 46.0147 57.2291 45.1784C56.5771 44.3251 56.014 43.4817 55.5398 42.6482C55.4085 43.5393 55.2844 44.3016 55.1675 44.935C55.0666 45.5674 54.9825 46.0944 54.9152 46.516C54.8573 46.8408 54.7909 47.1581 54.7159 47.4679C54.6569 47.7767 54.5462 48.0329 54.3838 48.2365C54.2213 48.4401 53.9805 48.5528 53.6613 48.5747C52.9749 48.6219 52.52 48.4205 52.2967 47.9708C52.0723 47.505 51.9349 46.905 51.8845 46.1708C51.8395 45.5163 51.8841 44.6472 52.0182 43.5635C52.1683 42.4787 52.3814 41.2612 52.6576 39.9111C52.9338 38.561 53.2631 37.1672 53.6456 35.7297C54.0429 34.275 54.4749 32.8581 54.9416 31.4789C55.4071 30.0838 55.8814 28.8163 56.3645 27.6766C56.6697 26.982 56.9519 26.5377 57.2112 26.3435C57.4694 26.1333 57.7821 26.0156 58.1492 25.9904C58.5164 25.9652 58.8023 26.0418 59.007 26.2202C59.2117 26.3986 59.325 26.6474 59.3469 26.9667C59.3611 27.1742 59.3275 27.385 59.246 27.5991C59.1644 27.8132 59.0782 28.0757 58.9873 28.3866C58.676 29.2259 58.3581 30.202 58.0336 31.3148C57.7079 32.4117 57.401 33.5474 57.1127 34.7219C56.8234 35.8804 56.5701 36.9803 56.3529 38.0216C57.1033 37.505 57.9426 36.9984 58.8707 36.5017C59.7978 35.989 60.7361 35.5236 61.6857 35.1056C62.6502 34.6705 63.5563 34.3197 64.404 34.053C65.2518 33.7863 65.9709 33.6327 66.5615 33.5922C67.0245 33.5604 67.3849 33.672 67.643 33.9269C67.9011 34.1818 68.0411 34.4689 68.063 34.7882C68.0794 35.0276 68.024 35.272 67.8968 35.5213C67.7696 35.7706 67.4805 35.9989 67.0297 36.2063C65.5323 36.8222 64.0435 37.4456 62.5632 38.0765C61.0989 38.7063 59.4736 39.4433 57.6872 40.2876C58.1218 41.0115 58.6219 41.755 59.1875 42.5181C59.752 43.2652 60.3531 43.9617 60.9908 44.6075C61.6274 45.2374 62.2718 45.7465 62.9239 46.1347C63.5749 46.507 64.2037 46.6723 64.8103 46.6307C65.7042 46.5693 66.5541 46.3346 67.3601 45.9264C68.1649 45.5023 68.901 45.0108 69.5683 44.4518C70.2344 43.8768 70.8139 43.3238 71.3067 42.7928C71.8155 42.2607 72.2122 41.8486 72.4969 41.5564C72.6604 41.3688 72.8192 41.2296 72.9734 41.1388C73.1435 41.0469 73.3562 40.9922 73.6116 40.9747C73.9149 40.9539 74.153 41.0338 74.3257 41.2144C74.5134 41.3779 74.6091 41.6039 74.6128 41.8923C74.6155 42.1648 74.4984 42.4454 74.2617 42.7343C74.0695 42.9721 73.7669 43.3537 73.3539 43.8792C72.9558 44.3876 72.4658 44.9585 71.8838 45.5919C71.3166 46.2082 70.6766 46.8134 69.9636 47.4076C69.2655 47.9848 68.5129 48.4695 67.7059 48.8617C66.8999 49.2698 66.058 49.504 65.1801 49.5643ZM75.1609 49.8174C74.7619 49.8448 74.4105 49.7486 74.1067 49.5289C73.804 49.3251 73.6446 48.871 73.6283 48.1665C73.6065 47.3821 73.6065 46.5642 73.6283 45.7127C73.65 44.8612 73.6836 44.065 73.7289 43.3242C73.8258 41.6978 73.7882 40.4494 73.6162 39.5791C73.4591 38.6918 73.1678 38.0703 72.7425 37.7146C72.3331 37.3578 71.7968 37.138 71.1335 37.0552C70.8099 37.0133 70.5463 36.9111 70.3427 36.7487C70.138 36.5703 70.0252 36.3294 70.0044 36.0261C69.977 35.6271 70.1186 35.3527 70.4291 35.2031C70.7236 35.0546 71.1103 34.9639 71.5892 34.931C71.9563 34.9058 72.4288 34.8975 73.0068 34.9059C73.5996 34.8973 74.2317 34.8779 74.9032 34.8479C75.3359 32.9739 75.8624 31.4141 76.4825 30.1688C77.1027 28.9234 77.8042 27.929 78.5872 27.1856C79.369 26.4263 80.2135 25.8792 81.1207 25.5443C82.0268 25.1934 82.9747 24.984 83.9644 24.9161C85.1935 24.8317 85.8382 25.2285 85.8984 26.1064C85.928 26.5374 85.743 26.8789 85.3433 27.1308C84.9436 27.3828 84.3257 27.6097 83.4895 27.8114C82.496 28.056 81.6325 28.444 80.8992 28.9755C80.1818 29.5059 79.5659 30.2298 79.0516 31.1471C78.5531 32.0634 78.1361 33.2307 77.8004 34.649C80.0159 34.4488 81.8274 34.2042 83.2349 33.9152C84.6424 33.6261 85.7233 33.3675 86.4774 33.1393C87.2464 32.8941 87.7826 32.761 88.0859 32.7402C88.5168 32.7106 88.7873 32.7963 88.8974 32.9972C89.0233 33.1971 89.0945 33.4167 89.111 33.6562C89.1296 33.9275 88.8934 34.2244 88.4023 34.5468C88.0802 34.7613 87.5603 35.0135 86.8425 35.3034C86.1235 35.5772 85.2769 35.8599 84.3026 36.1513C83.3271 36.4267 82.2936 36.6741 81.2021 36.8934C80.1254 37.0956 79.0683 37.2323 78.0307 37.3035C77.7753 37.321 77.5439 37.3369 77.3364 37.3511C77.2243 38.289 77.1161 39.2828 77.0118 40.3324C76.9223 41.3649 76.8471 42.3724 76.7862 43.3549C76.7253 44.3374 76.6744 45.231 76.6334 46.0357C76.6084 46.8393 76.6043 47.4811 76.6212 47.961C76.6458 48.5527 76.5243 49.0021 76.2567 49.3092C75.9891 49.6162 75.6238 49.7856 75.1609 49.8174ZM85.6359 47.3182C85.1251 47.3533 84.6523 47.2414 84.2176 46.9825C83.7839 46.7397 83.432 46.403 83.1619 45.9725C82.8907 45.526 82.737 45.0394 82.7009 44.5126C82.6329 43.5229 82.7821 42.5424 83.1485 41.571C83.5308 40.5986 84.0521 39.6647 84.7123 38.7694C85.3725 37.8741 86.1016 37.0462 86.8994 36.2858C87.712 35.5083 88.5238 34.8351 89.3348 34.2663C90.1617 33.6963 90.9165 33.2436 91.5991 32.908C92.2977 32.5714 92.8465 32.3894 93.2456 32.362C93.7085 32.3302 94.0907 32.4082 94.3923 32.596C94.7087 32.7667 94.8812 33.0596 94.9097 33.4746C94.9184 33.6023 94.8936 33.7083 94.8353 33.7925C95.0461 33.8261 95.2219 33.9343 95.3627 34.1171C95.5036 34.2999 95.5871 34.5829 95.6134 34.966C95.6244 35.1256 95.613 35.5433 95.5792 36.2192C95.5454 36.8951 95.5135 37.7153 95.4834 38.6796C95.4694 39.6428 95.4979 40.6432 95.5692 41.6807C95.5801 41.8404 95.6139 41.9824 95.6706 42.1068C95.7261 42.2153 95.8337 42.264 95.9933 42.253C96.6318 42.2092 97.2696 42.0371 97.9065 41.7368C98.5583 41.4194 99.1823 41.0478 99.7785 40.622C100.39 40.1791 100.937 39.7486 101.422 39.3304C101.921 38.8952 102.338 38.5379 102.671 38.2584C103.02 37.9618 103.25 37.8097 103.362 37.802C103.905 37.7648 104.195 38.0175 104.232 38.5602C104.242 38.7039 104.087 39.0192 103.767 39.5062C103.463 39.9762 103.036 40.5267 102.486 41.1579C101.934 41.7731 101.311 42.3932 100.617 43.0182C99.9366 43.6262 99.2182 44.1406 98.4612 44.5615C97.7202 44.9812 96.9906 45.2157 96.2723 45.265C95.3943 45.3253 94.7097 45.1638 94.2183 44.7805C93.7428 44.3962 93.3852 43.8594 93.1455 43.1702C92.9206 42.464 92.7695 41.6644 92.6922 40.7716C91.958 41.9928 91.1833 43.0884 90.3678 44.0585C89.5672 45.0116 88.7619 45.7805 87.9521 46.3654C87.1422 46.9502 86.3702 47.2678 85.6359 47.3182ZM93.2886 34.7406C91.7757 35.5982 90.4302 36.5566 89.252 37.6158C88.0726 38.659 87.152 39.7326 86.49 40.8365C85.844 41.9393 85.5545 42.9776 85.6213 43.9513C85.6399 44.2227 85.7769 44.3496 86.0323 44.332C86.3356 44.3112 86.7226 44.1082 87.1934 43.7231C87.6801 43.3369 88.199 42.8362 88.7501 42.221C89.3002 41.5898 89.8459 40.8948 90.3872 40.136C90.9274 39.3612 91.4266 38.5731 91.8848 37.7719C92.343 36.9706 92.6997 36.2084 92.9548 35.4852C93.049 35.2222 93.1602 34.974 93.2886 34.7406ZM103.863 46.3798C103.177 46.4269 102.683 46.3646 102.383 46.1927C102.098 46.0198 101.944 45.7498 101.918 45.3826C101.896 45.0634 101.99 44.7844 102.198 44.5456C102.405 44.2908 102.883 44.0174 103.633 43.7253C104.508 43.3926 105.333 43.0233 106.107 42.6173C106.896 42.1943 107.531 41.7498 108.012 41.2837C108.509 40.8166 108.741 40.3436 108.708 39.8647C108.687 39.5455 108.559 39.3217 108.326 39.1934C108.108 39.0639 107.856 39.0091 107.569 39.0288C107.329 39.0453 106.981 39.1093 106.523 39.2208C106.081 39.3154 105.592 39.4371 105.057 39.5861C104.521 39.7192 104 39.8431 103.495 39.958C103.004 40.0558 102.583 40.1168 102.232 40.1409C101.402 40.1978 100.775 40.0564 100.351 39.7167C99.9253 39.361 99.6924 38.8878 99.6519 38.2972C99.6299 37.978 99.7674 37.5275 100.064 36.9458C100.361 36.3641 100.766 35.7189 101.279 35.0101C101.791 34.3013 102.368 33.5882 103.008 32.8707C103.648 32.1531 104.301 31.4909 104.965 30.884C105.644 30.2601 106.291 29.7586 106.906 29.3795C107.521 28.9845 108.051 28.7717 108.498 28.741C109.009 28.7059 109.427 28.8376 109.752 29.1361C110.093 29.4334 110.283 29.8534 110.32 30.3961C110.337 30.6515 110.333 30.9325 110.306 31.2391C110.277 31.5297 110.176 31.8013 110.001 32.0539C109.824 32.2905 109.54 32.4704 109.148 32.5936C108.755 32.7167 108.211 32.738 107.516 32.6575C107.001 33.0938 106.464 33.5716 105.906 34.091C105.364 34.5934 104.854 35.1175 104.379 35.6634C103.902 36.1933 103.512 36.7091 103.21 37.211C103.787 36.9789 104.447 36.7813 105.19 36.618C105.931 36.4389 106.685 36.323 107.451 36.2704C108.377 36.2068 109.139 36.3229 109.737 36.6187C110.349 36.8974 110.81 37.2988 111.118 37.8229C111.443 38.3459 111.628 38.9346 111.673 39.5891C111.723 40.3234 111.534 41.0741 111.105 41.8412C110.677 42.6084 110.084 43.3226 109.328 43.984C108.572 44.6453 107.719 45.193 106.77 45.627C105.822 46.0609 104.853 46.3119 103.863 46.3798ZM129.381 31.2769C129.394 31.4685 129.342 31.6405 129.224 31.7929C129.106 31.9453 128.954 32.068 128.768 32.161C128.505 32.2913 128.044 32.4673 127.385 32.6889C126.727 32.9105 125.926 33.1659 124.984 33.4551C124.058 33.7433 123.06 34.0443 121.991 34.3582C120.921 34.6562 119.85 34.9462 118.779 35.2282C118.469 36.7891 118.154 38.3984 117.835 40.0562C117.515 41.698 117.193 43.3158 116.869 44.9097C116.748 45.4794 116.586 45.9155 116.382 46.2182C116.179 46.5368 115.806 46.7147 115.264 46.752C114.673 46.7925 114.261 46.6284 114.027 46.2595C113.81 45.9055 113.752 45.4044 113.852 44.756C114.147 42.9876 114.419 41.3411 114.667 39.8165C114.932 38.2909 115.144 37.0575 115.303 36.1163C114.357 36.3417 113.527 36.5269 112.816 36.672C112.103 36.8011 111.594 36.8681 111.29 36.8729C110.952 36.864 110.664 36.7475 110.424 36.5234C110.184 36.2993 110.06 36.0111 110.052 35.6589C110.062 35.3374 110.187 35.0562 110.427 34.8152C110.666 34.5582 110.959 34.3937 111.307 34.3217C111.799 34.2399 112.432 34.1242 113.208 33.9748C113.984 33.8253 114.838 33.6544 115.771 33.4621C115.922 32.6337 116.104 31.7793 116.317 30.8987C116.528 30.0021 116.749 29.1449 116.982 28.3271C117.229 27.4922 117.468 26.7621 117.698 26.1369C117.927 25.5117 118.145 25.0558 118.35 24.7691C118.511 24.5495 118.715 24.3751 118.963 24.2458C119.227 24.1155 119.486 24.0415 119.742 24.024C120.077 24.001 120.357 24.1021 120.581 24.3273C120.805 24.5524 120.927 24.8247 120.949 25.1439C120.958 25.2716 120.959 25.4078 120.953 25.5526C120.946 25.6814 120.923 25.8113 120.884 25.9423C120.635 26.7612 120.374 27.7494 120.101 28.9068C119.844 30.0632 119.578 31.3324 119.304 32.7144C120.489 32.4566 121.65 32.2005 122.787 31.946C123.94 31.6745 124.981 31.4266 125.912 31.2023C126.858 30.961 127.613 30.7567 128.179 30.5896C128.491 30.456 128.764 30.4613 128.998 30.6056C129.232 30.7339 129.359 30.9577 129.381 31.2769ZM129.593 44.2048C128.603 44.2727 127.782 43.9843 127.128 43.3395C126.473 42.6788 126.093 41.5743 125.986 40.0259C125.918 39.0362 125.962 38.0389 126.118 37.0339C126.288 36.0118 126.55 35.0396 126.904 34.1172C127.272 33.1778 127.712 32.3377 128.222 31.597C128.749 30.8552 129.342 30.2612 130.001 29.8151C130.659 29.3529 131.355 29.0967 132.089 29.0463C133.334 28.9608 134.331 29.2292 135.079 29.8514C135.827 30.4736 136.237 31.3035 136.308 32.341C136.363 33.1392 136.19 33.8808 135.788 34.5659C135.4 35.234 134.849 35.8492 134.134 36.4115C133.419 36.9738 132.613 37.4942 131.715 37.9728C130.818 38.4514 129.894 38.8917 128.943 39.2937C128.903 39.8738 128.898 40.3874 128.929 40.8343C128.947 41.1057 129.108 41.231 129.412 41.2101C130.13 41.1608 130.888 40.9965 131.687 40.7172C132.501 40.4208 133.318 40.0599 134.139 39.6347C134.958 39.1936 135.746 38.7466 136.5 38.2939C137.254 37.8251 137.938 37.3853 138.551 36.9743C139.179 36.5463 139.693 36.2063 140.093 35.9544C140.507 35.6854 140.778 35.5465 140.906 35.5377C141.257 35.5136 141.52 35.5998 141.694 35.7964C141.868 35.9929 141.963 36.2109 141.979 36.4504C141.987 36.5621 141.788 36.8243 141.384 37.237C140.995 37.6486 140.451 38.1429 139.753 38.7201C139.07 39.2802 138.293 39.8708 137.421 40.492C136.565 41.0961 135.666 41.6789 134.727 42.2406C133.802 42.7852 132.894 43.2324 132.004 43.5822C131.131 43.9468 130.327 44.1543 129.593 44.2048ZM129.204 37.1348C129.832 36.7068 130.451 36.2633 131.061 35.8045C131.686 35.3286 132.196 34.8125 132.591 34.2561C132.985 33.6838 133.157 33.0385 133.107 32.3202C133.093 32.1127 133.028 31.9808 132.912 31.9247C132.795 31.8525 132.632 31.8236 132.425 31.8378C131.866 31.8762 131.372 32.1586 130.943 32.6852C130.53 33.2108 130.175 33.8766 129.878 34.6829C129.595 35.4721 129.37 36.2894 129.204 37.1348ZM141.193 45.1166C140.698 45.1505 140.306 45.0491 140.017 44.8123C139.728 44.5756 139.56 44.114 139.513 43.4276C139.486 43.0285 139.484 42.4192 139.508 41.5997C139.548 40.779 139.598 39.8774 139.659 38.895C139.735 37.8954 139.805 36.9364 139.871 36.0177C139.791 36.0232 139.719 36.0281 139.655 36.0325C139.607 36.0358 139.551 36.0396 139.488 36.044C138.954 36.4495 138.304 36.6786 137.538 36.7311C137.091 36.7618 136.731 36.6582 136.458 36.4204C136.184 36.1665 136.033 35.8321 136.004 35.4171C135.977 35.018 136.089 34.6575 136.339 34.3356C136.589 33.9977 137.103 33.786 137.883 33.7004C138.583 33.6203 139.322 33.5134 140.099 33.3799C140.152 32.9914 140.189 32.7082 140.209 32.5304C140.665 29.5963 141.353 27.2396 142.273 25.4604C143.193 23.6653 144.289 22.3471 145.562 21.5059C146.852 20.6636 148.27 20.1894 149.819 20.0831C150.441 20.0404 150.832 20.1178 150.989 20.3155C151.162 20.4961 151.259 20.738 151.28 21.0413C151.303 21.3765 151.215 21.7274 151.015 22.0939C150.832 22.4593 150.41 22.7368 149.749 22.9265C148.501 23.2046 147.429 23.6953 146.531 24.3984C145.633 25.1015 144.9 26.1061 144.332 27.412C143.78 28.7169 143.367 30.4131 143.093 32.5008C143.085 32.6136 143.069 32.727 143.045 32.8409C144.135 32.6057 145.24 32.3534 146.36 32.0841C147.481 31.8147 148.592 31.538 149.695 31.2538C150.083 28.9498 150.598 26.998 151.242 25.3981C151.886 23.7982 152.615 22.4973 153.428 21.4953C154.241 20.4932 155.097 19.7529 155.994 19.2743C156.907 18.7947 157.811 18.5241 158.705 18.4628C159.311 18.4212 159.76 18.5267 160.05 18.7794C160.338 19.0162 160.494 19.2942 160.516 19.6135C160.54 19.9646 160.472 20.258 160.312 20.4935C160.15 20.7131 159.795 20.9059 159.245 21.0719C158.236 21.3336 157.315 21.8138 156.481 22.5126C155.646 23.1954 154.92 24.1834 154.303 25.4767C153.685 26.754 153.204 28.3908 152.86 30.387C154.307 29.983 155.668 29.5929 156.941 29.2168C158.229 28.8237 159.368 28.4729 160.357 28.1644C161.362 27.8549 162.171 27.6069 162.784 27.4205C163.412 27.233 163.798 27.1343 163.942 27.1245C164.15 27.1102 164.352 27.1444 164.551 27.227C164.749 27.3097 164.866 27.6144 164.902 28.1411C164.922 28.4284 164.593 28.7798 163.916 29.1951C163.239 29.6105 162.315 30.0588 161.145 30.54C159.975 31.0053 158.636 31.482 157.13 31.9703C155.64 32.4575 154.093 32.9326 152.489 33.3955C152.401 34.2195 152.319 35.1232 152.242 36.1068C152.18 37.0733 152.119 38.0558 152.059 39.0542C152.014 40.0356 151.975 40.9765 151.94 41.877C151.922 42.7764 151.904 43.5634 151.886 44.2382C151.885 44.9279 151.896 45.4404 151.919 45.7756C151.953 46.2704 151.821 46.6804 151.522 47.0056C151.24 47.3297 150.843 47.5093 150.332 47.5444C150.029 47.5652 149.71 47.4748 149.376 47.2733C149.057 47.0706 148.875 46.642 148.83 45.9876C148.818 45.812 148.816 45.4273 148.823 44.8334C148.832 44.2554 148.847 43.5407 148.869 42.6892C148.906 41.8366 148.948 40.9197 148.992 39.9383C149.036 38.9409 149.089 37.951 149.149 36.9686C149.209 35.9701 149.275 35.0515 149.345 34.2127C148.179 34.5172 147.035 34.7882 145.913 35.0256C144.79 35.2631 143.746 35.4631 142.779 35.6257C142.689 36.6582 142.609 37.7062 142.537 38.7696C142.465 39.817 142.415 40.8388 142.387 41.8351C142.599 41.8847 142.783 41.9924 142.938 42.1581C143.094 42.3238 143.182 42.5503 143.201 42.8377C143.223 43.1569 143.149 43.4827 142.98 43.8151C142.811 44.1635 142.575 44.4604 142.271 44.7057C141.967 44.9511 141.608 45.0881 141.193 45.1166ZM163.605 41.8702C162.616 41.9381 161.794 41.6497 161.14 41.0049C160.485 40.3442 160.105 39.2397 159.999 37.6913C159.931 36.7016 159.974 35.7043 160.13 34.6993C160.3 33.6772 160.562 32.705 160.916 31.7826C161.285 30.8432 161.724 30.0031 162.235 29.2624C162.761 28.5206 163.354 27.9266 164.013 27.4805C164.671 27.0183 165.367 26.7621 166.101 26.7117C167.346 26.6262 168.343 26.8946 169.091 27.5168C169.84 28.139 170.249 28.9689 170.321 30.0064C170.375 30.8046 170.202 31.5462 169.8 32.2313C169.413 32.8994 168.861 33.5146 168.146 34.0769C167.431 34.6392 166.625 35.1596 165.727 35.6382C164.83 36.1168 163.906 36.5571 162.955 36.9591C162.915 37.5392 162.91 38.0528 162.941 38.4997C162.959 38.7711 163.12 38.8964 163.424 38.8756C164.142 38.8262 164.901 38.6619 165.699 38.3826C166.513 38.0862 167.33 37.7253 168.151 37.3001C168.971 36.859 169.758 36.412 170.513 35.9593C171.266 35.4906 171.95 35.0507 172.563 34.6398C173.191 34.2117 173.705 33.8717 174.105 33.6198C174.519 33.3508 174.791 33.2119 174.918 33.2031C175.269 33.179 175.532 33.2652 175.706 33.4618C175.88 33.6583 175.975 33.8763 175.991 34.1158C175.999 34.2275 175.8 34.4897 175.396 34.9024C175.007 35.314 174.464 35.8084 173.765 36.3855C173.082 36.9456 172.305 37.5362 171.433 38.1574C170.577 38.7615 169.679 39.3443 168.739 39.906C167.814 40.4506 166.906 40.8978 166.016 41.2476C165.143 41.6122 164.339 41.8198 163.605 41.8702ZM163.216 34.8002C163.844 34.3722 164.463 33.9287 165.073 33.4699C165.698 32.994 166.208 32.4779 166.603 31.9215C166.997 31.3492 167.169 30.7039 167.12 29.9856C167.105 29.7781 167.04 29.6462 166.924 29.5901C166.807 29.5179 166.644 29.489 166.437 29.5032C165.878 29.5416 165.384 29.824 164.956 30.3506C164.543 30.8762 164.187 31.542 163.89 32.3483C163.607 33.1375 163.383 33.9548 163.216 34.8002ZM177.664 40.7608C176.77 40.8222 175.982 40.6678 175.299 40.2977C174.617 39.9435 174.079 39.4593 173.684 38.8449C173.288 38.2145 173.066 37.5562 173.019 36.8698C172.94 35.7205 173.043 34.6469 173.327 33.6491C173.61 32.6353 174.012 31.7097 174.532 30.8721C175.051 30.0186 175.624 29.2575 176.251 28.589C176.895 27.9193 177.522 27.3551 178.132 26.8962C178.757 26.4203 179.318 26.0611 179.814 25.8185C180.31 25.56 180.677 25.4225 180.916 25.406C181.347 25.3765 181.657 25.4514 181.846 25.6309C182.05 25.7934 182.166 26.0821 182.194 26.4971C182.211 26.7365 182.055 27.0359 181.727 27.3952C181.414 27.7535 180.994 28.1672 180.465 28.6366C179.951 29.1048 179.41 29.6311 178.841 30.2155C178.272 30.7998 177.731 31.4464 177.218 32.1552C176.721 32.8628 176.325 33.6278 176.028 34.45C175.748 35.2711 175.64 36.1526 175.705 37.0944C175.729 37.4456 175.811 37.7125 175.952 37.8953C176.109 38.077 176.347 38.1569 176.666 38.135C177.576 38.0725 178.539 37.8461 179.554 37.4556C180.585 37.0481 181.602 36.5613 182.606 35.9952C183.624 35.4121 184.578 34.8174 185.466 34.2112C186.371 33.6038 187.143 33.0616 187.784 32.5846C188.042 32.3744 188.263 32.2069 188.447 32.082C188.631 31.9571 188.763 31.8919 188.843 31.8865C189.322 31.8536 189.578 32.0846 189.612 32.5794C189.63 32.8348 189.462 33.1912 189.108 33.6484C188.7 34.2378 188.132 34.8541 187.407 35.4973C186.697 36.1394 185.898 36.7636 185.009 37.3699C184.137 37.975 183.236 38.526 182.308 39.0227C181.396 39.5183 180.534 39.9223 179.721 40.2347C178.909 40.5471 178.223 40.7224 177.664 40.7608ZM203.55 26.1859C203.564 26.3775 203.511 26.5495 203.393 26.7019C203.275 26.8543 203.124 26.977 202.937 27.07C202.674 27.2003 202.213 27.3763 201.554 27.5979C200.896 27.8195 200.096 28.0749 199.153 28.3642C198.227 28.6523 197.229 28.9533 196.16 29.2672C195.09 29.5652 194.019 29.8552 192.948 30.1372C192.638 31.6981 192.324 33.3074 192.004 34.9652C191.684 36.607 191.362 38.2248 191.039 39.8187C190.917 40.3884 190.755 40.8245 190.551 41.1272C190.348 41.4458 189.976 41.6238 189.433 41.661C188.842 41.7015 188.43 41.5374 188.196 41.1685C187.98 40.8145 187.921 40.3134 188.021 39.665C188.317 37.8966 188.588 36.2501 188.837 34.7256C189.101 33.1999 189.313 31.9665 189.473 31.0253C188.526 31.2507 187.697 31.4359 186.985 31.581C186.272 31.7101 185.763 31.7771 185.459 31.7819C185.122 31.773 184.833 31.6565 184.593 31.4324C184.353 31.2083 184.229 30.9201 184.221 30.5679C184.231 30.2464 184.356 29.9652 184.596 29.7242C184.835 29.4672 185.129 29.3028 185.476 29.2308C185.968 29.1489 186.602 29.0333 187.377 28.8838C188.153 28.7343 189.007 28.5634 189.94 28.3711C190.092 27.5428 190.274 26.6883 190.486 25.8077C190.697 24.9111 190.919 24.0539 191.151 23.2361C191.399 22.4012 191.637 21.6711 191.867 21.0459C192.097 20.4207 192.314 19.9648 192.519 19.6781C192.68 19.4585 192.885 19.2841 193.132 19.1548C193.396 19.0245 193.656 18.9505 193.911 18.933C194.246 18.91 194.526 19.0111 194.75 19.2363C194.974 19.4615 195.097 19.7337 195.119 20.0529C195.127 20.1806 195.129 20.3169 195.123 20.4616C195.115 20.5904 195.092 20.7203 195.053 20.8513C194.805 21.6702 194.544 22.6584 194.27 23.8159C194.013 24.9722 193.747 26.2414 193.473 27.6234C194.658 27.3656 195.819 27.1095 196.957 26.855C198.109 26.5835 199.15 26.3356 200.081 26.1113C201.027 25.87 201.783 25.6658 202.348 25.4986C202.66 25.365 202.933 25.3703 203.167 25.5146C203.401 25.6429 203.528 25.8667 203.55 26.1859ZM200.322 38.8929C199.875 38.9235 199.465 38.7993 199.093 38.5201C198.737 38.2398 198.536 37.7565 198.489 37.0701C198.463 36.703 198.476 36.1809 198.525 35.5039C198.591 34.8258 198.685 34.0897 198.807 33.2955C198.928 32.4853 199.065 31.682 199.219 30.8856C199.389 30.0881 199.556 29.3789 199.722 28.7581C199.887 28.1213 200.039 27.6458 200.178 27.3316C200.36 26.9502 200.536 26.7136 200.706 26.6217C200.891 26.5128 201.072 26.4523 201.247 26.4403C201.566 26.4183 201.868 26.4938 202.153 26.6668C202.453 26.8386 202.626 27.2517 202.671 27.9062C202.688 28.1616 202.669 28.5799 202.613 29.1611C202.555 29.7264 202.48 30.3891 202.388 31.1492C202.296 31.9093 202.19 32.6944 202.069 33.5046C201.964 34.3136 201.856 35.0828 201.746 35.8121C201.651 36.5243 201.571 37.1231 201.509 37.6086C201.456 38.0131 201.309 38.3199 201.067 38.529C200.841 38.7529 200.593 38.8742 200.322 38.8929ZM202.066 24.0024C201.539 24.0386 201.042 23.9204 200.574 23.6478C200.105 23.3592 199.849 22.8877 199.804 22.2332C199.766 21.6905 199.872 21.2422 200.12 20.8884C200.369 20.5345 200.671 20.2732 201.029 20.1043C201.401 19.9184 201.731 19.8156 202.018 19.7959C202.305 19.7761 202.629 19.8181 202.989 19.9217C203.348 20.0093 203.666 20.204 203.943 20.5057C204.235 20.7904 204.401 21.22 204.441 21.7947C204.467 22.1778 204.355 22.5383 204.106 22.8761C203.855 23.198 203.536 23.4605 203.149 23.6635C202.778 23.8653 202.417 23.9783 202.066 24.0024ZM209.025 37.9105C208.61 37.939 208.229 37.7647 207.883 37.3876C207.552 37.0093 207.278 36.4106 207.062 35.5916C206.886 34.898 206.719 34.1075 206.562 33.2202C206.405 32.3329 206.257 31.461 206.118 30.6045C205.994 29.7309 205.893 28.968 205.817 28.3157C205.74 27.6635 205.693 27.2176 205.677 26.9782C205.617 26.1162 205.72 25.3955 205.985 24.816C206.249 24.2205 206.812 23.8932 207.674 23.834C208.041 23.8088 208.331 23.9493 208.545 24.2554C208.757 24.5455 208.882 24.9619 208.919 25.5047C208.942 25.8399 208.971 26.2629 209.006 26.7737C209.056 27.2674 209.111 27.825 209.169 28.4465C209.232 29.1317 209.299 29.8729 209.37 30.6699C209.456 31.4499 209.525 32.231 209.579 33.0131C210.077 32.0968 210.612 31.1219 211.183 30.0884C211.752 29.039 212.308 28.0225 212.85 27.0391C213.408 26.0546 213.909 25.1862 214.355 24.4339C214.799 23.6657 215.139 23.1212 215.373 22.8004C215.578 22.5137 215.834 22.2636 216.14 22.0501C216.445 21.8207 216.773 21.6939 217.124 21.6698C217.507 21.6435 217.837 21.7733 218.113 22.059C218.389 22.3448 218.541 22.6872 218.568 23.0862C218.589 23.3895 218.545 23.6812 218.436 23.9614C218.343 24.2404 218.217 24.5056 218.058 24.7571C217.625 25.4604 217.112 26.2815 216.519 27.2203C215.942 28.158 215.336 29.1458 214.701 30.1837C214.066 31.2056 213.444 32.1945 212.836 33.1504C212.244 34.1052 211.717 34.9513 211.254 35.6887C210.88 36.3078 210.575 36.7777 210.341 37.0986C210.105 37.4034 209.887 37.6108 209.686 37.7209C209.501 37.8298 209.281 37.893 209.025 37.9105ZM222.202 37.8481C221.212 37.916 220.39 37.6276 219.737 36.9829C219.082 36.3221 218.701 35.2176 218.595 33.6692C218.527 32.6796 218.571 31.6822 218.727 30.6772C218.897 29.6552 219.159 28.6829 219.513 27.7605C219.881 26.8211 220.321 25.981 220.831 25.2403C221.358 24.4985 221.95 23.9046 222.609 23.4584C223.267 22.9963 223.963 22.74 224.698 22.6896C225.943 22.6041 226.939 22.8725 227.688 23.4947C228.436 24.1169 228.846 24.9468 228.917 25.9844C228.972 26.7825 228.798 27.5241 228.396 28.2093C228.009 28.8773 227.458 29.4925 226.743 30.0548C226.028 30.6171 225.221 31.1376 224.324 31.6161C223.427 32.0947 222.503 32.535 221.552 32.9371C221.512 33.5172 221.507 34.0307 221.537 34.4777C221.556 34.749 221.717 34.8743 222.02 34.8535C222.739 34.8042 223.497 34.6398 224.296 34.3605C225.109 34.0641 225.927 33.7033 226.747 33.2781C227.567 32.8369 228.354 32.3899 229.109 31.9372C229.863 31.4685 230.546 31.0286 231.16 30.6177C231.788 30.1897 232.302 29.8497 232.701 29.5977C233.116 29.3287 233.387 29.1898 233.515 29.181C233.866 29.1569 234.128 29.2432 234.302 29.4397C234.476 29.6363 234.571 29.8543 234.588 30.0937C234.595 30.2054 234.397 30.4676 233.992 30.8803C233.604 31.2919 233.06 31.7863 232.362 32.3634C231.679 32.9235 230.901 33.5142 230.03 34.1353C229.173 34.7394 228.275 35.3223 227.335 35.8839C226.41 36.4285 225.503 36.8757 224.613 37.2255C223.74 37.5902 222.936 37.7977 222.202 37.8481ZM221.813 30.7781C222.441 30.3501 223.06 29.9067 223.67 29.4478C224.295 28.9719 224.805 28.4558 225.199 27.8994C225.593 27.3271 225.765 26.6818 225.716 25.9635C225.702 25.756 225.637 25.6242 225.521 25.568C225.403 25.4958 225.241 25.4669 225.033 25.4811C224.475 25.5195 223.981 25.802 223.552 26.3286C223.139 26.8541 222.784 27.52 222.486 28.3262C222.204 29.1154 221.979 29.9327 221.813 30.7781ZM234.665 37.4016C233.978 37.4487 233.485 37.3863 233.185 37.2145C232.9 37.0416 232.745 36.7715 232.72 36.4044C232.698 36.0852 232.791 35.8061 232.999 35.5673C233.206 35.3125 233.685 35.0391 234.435 34.7471C235.31 34.4144 236.134 34.0451 236.908 33.6391C237.697 33.2161 238.332 32.7716 238.814 32.3055C239.311 31.8384 239.543 31.3654 239.51 30.8865C239.488 30.5672 239.361 30.3434 239.127 30.2151C238.91 30.0857 238.657 30.0309 238.37 30.0506C238.131 30.067 237.782 30.131 237.325 30.2426C236.882 30.3371 236.393 30.4589 235.858 30.6079C235.322 30.7409 234.802 30.8649 234.296 30.9797C233.806 31.0776 233.385 31.1385 233.034 31.1626C232.204 31.2196 231.577 31.0782 231.152 30.7385C230.727 30.3828 230.494 29.9096 230.453 29.319C230.432 28.9997 230.569 28.5493 230.866 27.9676C231.163 27.3859 231.568 26.7406 232.08 26.0319C232.593 25.3231 233.169 24.61 233.81 23.8924C234.45 23.1749 235.102 22.5127 235.766 21.9058C236.445 21.2818 237.092 20.7803 237.708 20.4013C238.322 20.0063 238.853 19.7934 239.3 19.7628C239.811 19.7277 240.229 19.8594 240.554 20.1578C240.895 20.4552 241.084 20.8752 241.121 21.4179C241.139 21.6733 241.134 21.9543 241.107 22.2609C241.079 22.5515 240.977 22.8231 240.802 23.0757C240.626 23.3123 240.342 23.4922 239.949 23.6153C239.557 23.7385 239.013 23.7598 238.318 23.6792C237.802 24.1155 237.266 24.5934 236.708 25.1128C236.165 25.6152 235.656 26.1393 235.18 26.6851C234.703 27.215 234.314 27.7309 234.011 28.2328C234.589 28.0007 235.249 27.803 235.991 27.6398C236.733 27.4606 237.487 27.3447 238.253 27.2921C239.179 27.2286 239.941 27.3447 240.538 27.6405C241.151 27.9192 241.611 28.3206 241.92 28.8447C242.244 29.3677 242.429 29.9564 242.474 30.6109C242.525 31.3451 242.336 32.0958 241.907 32.863C241.479 33.6301 240.886 34.3444 240.13 35.0057C239.373 35.6671 238.521 36.2147 237.572 36.6487C236.624 37.0827 235.655 37.3336 234.665 37.4016ZM249.492 36.3598C248.055 36.4584 246.892 36.0972 246.001 35.2763C245.126 34.4382 244.632 33.1972 244.519 31.553C244.458 30.6591 244.506 29.6054 244.663 28.3918C244.819 27.1622 245.043 25.8638 245.334 24.4967C245.64 23.1125 245.971 21.7426 246.327 20.387C246.699 19.0304 247.069 17.7701 247.438 16.606C247.807 15.442 248.133 14.4654 248.416 13.6762C248.663 13.0659 249.049 12.7426 249.576 12.7065C249.911 12.6835 250.19 12.7686 250.412 12.9619C250.649 13.154 250.784 13.4816 250.816 13.9445C250.831 14.168 250.753 14.6625 250.581 15.4281C250.409 16.1936 250.177 17.1397 249.886 18.2663C249.609 19.3759 249.306 20.5754 248.978 21.8649C248.665 23.1534 248.369 24.4487 248.09 25.7509C247.826 27.052 247.622 28.2769 247.476 29.4255C247.329 30.5582 247.283 31.5157 247.337 32.2978C247.358 32.6171 247.464 32.8665 247.653 33.046C247.857 33.2244 248.111 33.3032 248.415 33.2823C249.069 33.2374 249.731 33.0717 250.401 32.7851C251.087 32.4975 251.753 32.1471 252.398 31.7339C253.059 31.3197 253.679 30.8842 254.257 30.4276C254.835 29.9709 255.351 29.5426 255.804 29.1426C256.273 28.7255 256.651 28.3948 256.939 28.1505C257.317 27.8199 257.578 27.6496 257.722 27.6397C258.265 27.6025 258.554 27.8472 258.59 28.374C258.599 28.5017 258.458 28.776 258.166 29.197C257.918 29.5668 257.566 30.04 257.108 30.6167C256.651 31.1934 256.116 31.8075 255.503 32.459C254.905 33.0934 254.257 33.6992 253.559 34.2764C252.877 34.8525 252.188 35.3328 251.492 35.7173C250.797 36.1018 250.13 36.316 249.492 36.3598ZM257.983 34.935C257.536 34.9657 257.126 34.8414 256.754 34.5622C256.398 34.282 256.197 33.7986 256.15 33.1122C256.125 32.7451 256.137 32.223 256.187 31.546C256.252 30.8679 256.346 30.1318 256.468 29.3376C256.589 28.5274 256.726 27.7241 256.88 26.9277C257.05 26.1302 257.218 25.4211 257.383 24.8002C257.548 24.1635 257.7 23.688 257.839 23.3737C258.021 22.9923 258.197 22.7557 258.367 22.6638C258.552 22.5549 258.733 22.4944 258.908 22.4824C259.228 22.4605 259.529 22.536 259.814 22.7089C260.114 22.8807 260.287 23.2939 260.332 23.9483C260.35 24.2037 260.33 24.622 260.274 25.2033C260.216 25.7685 260.142 26.4312 260.049 27.1913C259.957 27.9514 259.851 28.7365 259.73 29.5467C259.625 30.3558 259.518 31.1249 259.407 31.8542C259.312 32.5664 259.233 33.1652 259.17 33.6507C259.117 34.0552 258.97 34.362 258.728 34.5711C258.503 34.7951 258.254 34.9164 257.983 34.935ZM259.727 20.0446C259.201 20.0807 258.703 19.9625 258.236 19.6899C257.767 19.4013 257.51 18.9298 257.465 18.2754C257.428 17.7326 257.533 17.2843 257.781 16.9305C258.03 16.5767 258.333 16.3153 258.69 16.1465C259.062 15.9605 259.392 15.8577 259.679 15.838C259.966 15.8183 260.29 15.8602 260.65 15.9638C261.009 16.0514 261.327 16.2461 261.604 16.5478C261.896 16.8325 262.062 17.2621 262.102 17.8368C262.128 18.2199 262.016 18.5804 261.767 18.9183C261.516 19.2402 261.198 19.5026 260.811 19.7056C260.44 19.9075 260.078 20.0205 259.727 20.0446ZM284.494 32.2011C284.458 33.0696 283.977 33.5357 283.051 33.5992C282.572 33.6321 282.179 33.5147 281.872 33.2471C281.581 32.9784 281.417 32.5727 281.379 32.03C281.316 31.1042 281.288 30.1118 281.295 29.0528C281.318 27.9767 281.355 26.8916 281.409 25.7974C281.478 24.7021 281.542 23.6552 281.602 22.6567C281.084 23.5262 280.536 24.4219 279.958 25.3436C279.38 26.2654 278.8 27.1632 278.218 28.0371C277.637 28.911 277.074 29.7034 276.529 30.4143C276 31.1082 275.509 31.6712 275.057 32.1031C274.605 32.5191 274.219 32.738 273.9 32.7599C273.134 32.8125 272.452 32.5786 271.855 32.0583C271.257 31.522 270.928 30.8149 270.867 29.9369C270.847 29.6337 270.85 29.2244 270.879 28.7092C270.907 28.1781 270.948 27.6139 271.004 27.0167C271.059 26.4196 271.1 25.8554 271.128 25.3243C271.156 24.7931 271.159 24.3759 271.138 24.0726C271.138 24.0726 271.137 24.0566 271.135 24.0247C271.146 23.9438 271.127 23.905 271.079 23.9083C271.015 23.9127 270.854 24.1402 270.597 24.5909C270.338 25.0257 270.024 25.5925 269.655 26.2914C269.286 26.9903 268.895 27.7228 268.483 28.4888C268.086 29.2538 267.71 29.9692 267.355 30.6351C267.016 31.2999 266.73 31.8166 266.499 32.1854C266.185 32.7522 265.881 33.1178 265.588 33.2823C265.295 33.4468 264.948 33.5427 264.549 33.5701C263.991 33.6085 263.539 33.455 263.195 33.1098C262.865 32.7475 262.677 32.2232 262.63 31.5368C262.61 31.2495 262.627 30.7992 262.681 30.1861C262.751 29.5719 262.841 28.8921 262.95 28.1469C263.058 27.3857 263.168 26.6485 263.279 25.9352C263.406 25.2048 263.516 24.5878 263.609 24.0842C263.708 23.4199 263.877 22.9513 264.114 22.6783C264.367 22.3883 264.701 22.2291 265.116 22.2006C266.09 22.1338 266.609 22.5792 266.675 23.537C266.687 23.7126 266.651 24.0037 266.567 24.4105C266.482 24.8172 266.379 25.2894 266.255 25.8271C266.132 26.3649 266.001 26.9191 265.864 27.4898C265.726 28.0446 265.617 28.5653 265.538 29.0518C265.875 28.3551 266.241 27.6083 266.635 26.8114C267.03 26.0145 267.433 25.2331 267.846 24.467C268.274 23.6999 268.699 22.9971 269.12 22.3588C269.558 21.7193 269.996 21.2081 270.434 20.8252C270.872 20.4263 271.298 20.2126 271.713 20.1841C272.128 20.1556 272.546 20.2793 272.966 20.5552C273.385 20.8151 273.738 21.1678 274.025 21.6132C274.327 22.0415 274.495 22.5111 274.53 23.0219C274.563 23.5007 274.539 24.0798 274.457 24.759C274.375 25.4381 274.28 26.1504 274.171 26.8956C274.062 27.6408 273.999 28.3668 273.984 29.0735C274.485 28.4297 275.012 27.7039 275.566 26.896C276.119 26.0722 276.686 25.2234 277.268 24.3495C277.849 23.4757 278.416 22.6268 278.969 21.803C279.538 20.9781 280.064 20.2284 280.547 19.5537C281.046 18.878 281.49 18.3423 281.88 17.9466C282.269 17.5351 282.575 17.3216 282.798 17.3063C283.453 17.2613 283.976 17.4019 284.367 17.7278C284.773 18.0368 285.005 18.6142 285.063 19.4602C285.099 19.987 285.107 20.6761 285.085 21.5276C285.079 22.378 285.046 23.3024 284.987 24.3008C284.942 25.2822 284.882 26.2807 284.807 27.2961C284.747 28.2946 284.691 29.2206 284.637 30.0743C284.583 30.928 284.536 31.6369 284.494 32.2011ZM288.908 40.1736C288.461 40.2043 288.098 40.0688 287.821 39.767C287.561 39.4802 287.409 39.0175 287.365 38.379C287.305 37.5011 287.313 36.4501 287.389 35.226C287.466 34.0019 287.593 32.7021 287.771 31.3267C287.949 29.9512 288.153 28.5981 288.382 27.2673C288.663 25.7405 288.944 24.3499 289.227 23.0956C289.526 21.8402 289.841 20.8322 290.174 20.0717C290.522 19.2941 290.895 18.8915 291.294 18.8642C291.661 18.839 291.99 18.9527 292.28 19.2055C292.584 19.4411 292.754 19.8144 292.789 20.3252C292.815 20.6923 292.755 21.2256 292.611 21.9252C292.465 22.6087 292.283 23.4632 292.065 24.4886C292.546 23.5574 293.045 22.6411 293.56 21.7397C294.092 20.8372 294.636 20.014 295.195 19.27C295.753 18.526 296.305 17.9268 296.852 17.4723C297.398 17.0178 297.926 16.7731 298.437 16.738C299.044 16.6964 299.59 16.8353 300.077 17.1547C300.58 17.473 300.988 17.9261 301.301 18.514C301.614 19.102 301.797 19.779 301.85 20.5452C301.947 21.9659 301.787 23.3642 301.368 24.7401C300.948 26.1 300.319 27.338 299.482 28.454C298.66 29.5688 297.672 30.4786 296.518 31.1833C295.362 31.8721 294.09 32.2641 292.701 32.3595C292.302 32.3868 291.932 32.3721 291.592 32.3153C291.268 32.2734 290.967 32.2139 290.689 32.1367C290.568 33.1715 290.456 34.2296 290.354 35.3111C290.269 36.4075 290.18 37.5604 290.086 38.7696C289.955 39.6607 289.562 40.1287 288.908 40.1736ZM298.87 19.5469C298.519 19.571 298.089 19.8411 297.579 20.3573C297.085 20.8723 296.554 21.5423 295.985 22.3672C295.415 23.1761 294.842 24.0574 294.266 25.0111C293.705 25.9477 293.166 26.8667 292.651 27.7681C292.151 28.6685 291.724 29.4516 291.369 30.1175C292.573 29.9065 293.621 29.5138 294.511 28.9395C295.401 28.3492 296.147 27.6564 296.75 26.8613C297.353 26.0661 297.826 25.2398 298.168 24.3824C298.525 23.5079 298.772 22.665 298.908 21.8537C299.045 21.0425 299.093 20.3415 299.053 19.7509C299.043 19.6073 298.982 19.5393 298.87 19.5469ZM304.866 32.4146C304.467 32.4419 304.114 32.3218 303.807 32.0542C303.516 31.7855 303.352 31.3798 303.314 30.8371C303.298 30.5977 303.303 30.2044 303.33 29.6573C303.371 29.0931 303.423 28.4481 303.485 27.7221C303.564 26.995 303.632 26.2366 303.69 25.4467C303.764 24.6558 303.817 23.9064 303.849 23.1986C303.896 22.4897 303.919 21.8867 303.917 21.3897C303.907 20.7809 304.037 20.339 304.307 20.0638C304.576 19.7728 304.91 19.6135 305.309 19.5861C305.628 19.5642 305.921 19.6243 306.187 19.7664C306.468 19.8914 306.657 20.1912 306.754 20.6657C306.866 21.1231 306.92 21.793 306.916 22.6753C307.531 21.3501 308.163 20.16 308.812 19.1051C309.477 18.0491 310.189 17.1984 310.946 16.553C312.202 15.4564 313.365 14.8714 314.434 14.798C315.041 14.7564 315.449 14.8646 315.659 15.1229C315.869 15.3811 315.984 15.6538 316.004 15.9412C316.017 16.1327 315.981 16.3116 315.897 16.4778C315.828 16.6429 315.664 16.8225 315.404 17.0168C315.145 17.211 314.746 17.4709 314.207 17.7966C313.483 18.2312 312.775 18.7849 312.084 19.4579C311.408 20.1297 310.745 20.9771 310.093 22.0002C309.442 23.0232 308.798 24.2702 308.161 25.7413C307.524 27.2123 306.882 28.9564 306.235 30.9735C306.128 31.526 305.945 31.8994 305.686 32.0937C305.443 32.2868 305.169 32.3937 304.866 32.4146ZM318.284 31.2289C317.15 31.3067 316.213 30.9701 315.472 30.2191C314.73 29.4521 314.312 28.3903 314.219 27.0335C314.189 26.6025 314.215 26.1597 314.296 25.705C314.393 25.2493 314.516 24.8239 314.666 24.4287C314.56 24.2917 314.468 24.1136 314.388 23.8945C314.324 23.6583 314.281 23.3806 314.259 23.0614C314.188 22.0238 314.306 21.0615 314.614 20.1743C314.921 19.2712 315.364 18.479 315.942 17.7977C316.521 17.1165 317.174 16.5746 317.9 16.1719C318.626 15.7692 319.372 15.5416 320.138 15.489C321.447 15.3992 322.547 15.7647 323.437 16.5857C324.343 17.4055 324.86 18.7413 324.987 20.5929C325.051 21.5188 324.972 22.4704 324.75 23.4479C324.528 24.4253 324.2 25.37 323.766 26.2819C323.346 27.1768 322.841 27.9893 322.249 28.7195C321.674 29.4486 321.041 30.0374 320.35 30.4857C319.675 30.933 318.986 31.1807 318.284 31.2289ZM317.345 23.1623C317.437 23.3324 317.491 23.5372 317.508 23.7766C317.524 24.016 317.493 24.2667 317.415 24.5287C317.337 24.7907 317.264 25.1405 317.198 25.578C317.131 25.9996 317.124 26.6015 317.178 27.3836C317.192 27.5912 317.228 27.7651 317.286 27.9055C317.358 28.0288 317.498 28.0833 317.706 28.0691C318.249 28.0318 318.747 27.8212 319.202 27.4371C319.673 27.052 320.08 26.559 320.424 25.958C320.783 25.356 321.075 24.6945 321.298 23.9735C321.536 23.2355 321.702 22.4944 321.795 21.7503C321.903 20.9891 321.935 20.2892 321.891 19.6507C321.863 19.2357 321.763 18.9539 321.593 18.8052C321.422 18.6565 321.137 18.5959 320.738 18.6233C320.196 18.6605 319.649 18.8745 319.098 19.2651C318.563 19.6386 318.124 20.1339 317.781 20.7508C317.437 21.3517 317.291 22.0193 317.341 22.7536C317.351 22.8973 317.352 23.0335 317.345 23.1623ZM336.446 16.3182C337.18 14.1669 337.807 11.9588 338.325 9.69401C338.422 9.23829 338.582 8.8825 338.805 8.62663C339.044 8.36966 339.387 8.22584 339.834 8.19516C340.201 8.16996 340.488 8.26252 340.695 8.47285C340.9 8.66721 341.016 8.94796 341.041 9.3151C341.062 9.61839 340.971 10.1699 340.77 10.9696C340.567 11.7533 340.323 12.7484 340.036 13.9548C339.75 15.1612 339.477 16.5512 339.216 18.1248C338.955 19.6983 338.761 21.4197 338.632 23.2889C338.504 25.158 338.512 27.1461 338.657 29.2532C338.696 29.8278 338.617 30.3064 338.419 30.6889C338.237 31.0862 337.883 31.303 337.357 31.3391C336.782 31.3786 336.345 31.2081 336.047 30.8276C335.764 30.4461 335.601 29.9441 335.558 29.3215C335.474 28.0924 335.444 27.0681 335.468 26.2485C335.506 25.4119 335.553 24.695 335.609 24.0978C334.919 25.4923 334.168 26.7066 333.357 27.7406C332.561 28.7575 331.781 29.5487 331.018 30.1143C330.256 30.6958 329.588 31.0063 329.013 31.0458C328.071 31.1104 327.287 30.8996 326.66 30.4134C326.033 29.9272 325.683 29.1493 325.61 28.0799C325.553 27.2498 325.694 26.3821 326.033 25.4768C326.37 24.5555 326.837 23.6414 327.432 22.7345C328.027 21.8276 328.69 20.9722 329.421 20.1683C330.167 19.3473 330.919 18.6221 331.677 17.9927C332.435 17.3473 333.145 16.8334 333.809 16.4511C334.472 16.0688 335.019 15.8628 335.45 15.8333C335.929 15.8004 336.261 15.962 336.446 16.3182ZM335.984 17.649C335.893 17.7194 335.793 17.7904 335.686 17.8619C335.593 17.9164 335.501 17.9788 335.41 18.0492C334.83 18.474 334.215 18.9812 333.566 19.5711C332.916 20.1449 332.278 20.7821 331.652 21.4826C331.026 22.1671 330.457 22.8797 329.947 23.6204C329.451 24.3441 329.059 25.0606 328.771 25.77C328.498 26.4623 328.383 27.1197 328.425 27.7423C328.433 27.854 328.486 27.9305 328.585 27.9718C328.685 28.0132 328.774 28.0311 328.854 28.0256C329.412 27.9873 329.994 27.6987 330.599 27.1601C331.219 26.6203 331.834 25.8885 332.445 24.9645C333.07 24.0235 333.676 22.9314 334.264 21.6882C334.869 20.4439 335.442 19.0975 335.984 17.649ZM351.38 29.2459C351.013 29.2711 350.667 29.1425 350.343 28.86C350.036 28.5924 349.859 28.1154 349.812 27.429C349.777 26.9182 349.768 26.2052 349.785 25.2898C349.817 24.3574 349.911 23.1562 350.067 21.6861C349.587 22.8737 349.075 23.9353 348.529 24.8708C347.984 25.8064 347.434 26.5498 346.878 27.1011C346.338 27.6354 345.804 27.9206 345.277 27.9568C344.431 28.0149 343.743 27.8055 343.213 27.3286C342.682 26.8358 342.367 25.8711 342.269 24.4345C342.222 23.7481 342.224 22.9701 342.277 22.1005C342.346 21.2297 342.446 20.3568 342.578 19.4817C342.711 18.6066 342.85 17.8272 342.995 17.1437C343.156 16.443 343.304 15.9196 343.441 15.5735C343.549 15.2774 343.693 15.0429 343.874 14.8702C344.07 14.6963 344.328 14.5984 344.647 14.5765C345.158 14.5414 345.561 14.6822 345.855 14.9988C346.15 15.3154 346.309 15.6492 346.333 16.0004C346.351 16.2718 346.314 16.6672 346.222 17.1868C346.145 17.7053 346.04 18.2818 345.908 18.9164C345.791 19.5499 345.667 20.1999 345.536 20.8664C345.406 21.5329 345.296 22.1579 345.208 22.7413C345.136 23.3236 345.113 23.8143 345.14 24.2134C345.174 24.7082 345.383 24.9425 345.766 24.9162C345.99 24.9008 346.262 24.6656 346.584 24.2105C346.921 23.7543 347.265 23.1534 347.615 22.4077C347.979 21.6449 348.339 20.8183 348.695 19.9279C349.066 19.0203 349.396 18.1076 349.686 17.1896C349.991 16.2545 350.245 15.3951 350.447 14.6114C350.574 14.1216 350.767 13.7716 351.025 13.5614C351.283 13.3512 351.588 13.2341 351.939 13.21C352.482 13.1727 352.907 13.2959 353.215 13.5794C353.539 13.8619 353.721 14.2825 353.759 14.8412C353.776 15.0966 353.766 15.5303 353.728 16.1423C353.69 16.7544 353.635 17.4718 353.563 18.2947C353.507 19.1165 353.431 19.9877 353.333 20.9086C353.236 21.8294 353.138 22.7342 353.039 23.6231C352.955 24.5109 352.867 25.3269 352.774 26.071C352.679 26.7992 352.599 27.382 352.533 27.8196C352.417 28.4691 352.252 28.8653 352.037 29.0083C351.822 29.1514 351.603 29.2306 351.38 29.2459ZM360.66 28.1999C359.766 28.2613 358.978 28.1069 358.295 27.7368C357.613 27.3827 357.075 26.8984 356.68 26.284C356.284 25.6537 356.062 24.9953 356.015 24.3089C355.936 23.1596 356.039 22.0861 356.323 21.0882C356.606 20.0745 357.008 19.1488 357.528 18.3112C358.047 17.4577 358.62 16.6967 359.247 16.0281C359.891 15.3585 360.518 14.7942 361.128 14.3354C361.753 13.8595 362.314 13.5002 362.81 13.2576C363.306 12.9991 363.673 12.8616 363.912 12.8452C364.343 12.8156 364.653 12.8906 364.842 13.0701C365.046 13.2325 365.162 13.5212 365.19 13.9362C365.207 14.1757 365.051 14.4751 364.723 14.8344C364.41 15.1926 363.99 15.6064 363.461 16.0757C362.947 16.5439 362.406 17.0702 361.837 17.6546C361.268 18.239 360.727 18.8855 360.214 19.5943C359.717 20.302 359.321 21.0669 359.024 21.8891C358.744 22.7103 358.636 23.5917 358.701 24.5335C358.725 24.8847 358.807 25.1517 358.948 25.3345C359.105 25.5161 359.343 25.596 359.662 25.5741C360.572 25.5117 361.535 25.2852 362.55 24.8947C363.581 24.4872 364.598 24.0004 365.602 23.4344C366.62 22.8513 367.574 22.2566 368.462 21.6503C369.367 21.0429 370.139 20.5007 370.78 20.0237C371.038 19.8136 371.259 19.646 371.443 19.5211C371.627 19.3963 371.759 19.3311 371.839 19.3256C372.318 19.2927 372.574 19.5237 372.608 20.0186C372.626 20.274 372.458 20.6303 372.104 21.0876C371.695 21.6769 371.128 22.2932 370.403 22.9364C369.693 23.5785 368.894 24.2027 368.005 24.809C367.133 25.4142 366.232 25.9651 365.304 26.4618C364.392 26.9575 363.53 27.3615 362.717 27.6738C361.905 27.9862 361.219 28.1616 360.66 28.1999ZM386.546 13.6251C386.56 13.8166 386.507 13.9886 386.389 14.141C386.271 14.2935 386.12 14.4161 385.933 14.5091C385.67 14.6395 385.209 14.8155 384.55 15.0371C383.892 15.2587 383.092 15.5141 382.149 15.8033C381.223 16.0914 380.225 16.3924 379.156 16.7064C378.086 17.0044 377.015 17.2944 375.944 17.5764C375.634 19.1373 375.32 20.7466 375 22.4043C374.68 24.0461 374.358 25.664 374.035 27.2579C373.913 27.8275 373.751 28.2637 373.547 28.5663C373.344 28.8849 372.972 29.0629 372.429 29.1001C371.838 29.1407 371.426 28.9765 371.192 28.6077C370.976 28.2537 370.917 27.7525 371.017 27.1041C371.313 25.3358 371.584 23.6893 371.833 22.1647C372.097 20.639 372.309 19.4056 372.469 18.4644C371.522 18.6898 370.693 18.875 369.981 19.0201C369.268 19.1492 368.759 19.2162 368.455 19.2211C368.118 19.2122 367.829 19.0956 367.589 18.8716C367.349 18.6475 367.225 18.3593 367.217 18.007C367.227 17.6856 367.352 17.4043 367.592 17.1633C367.831 16.9064 368.125 16.7419 368.472 16.6699C368.964 16.588 369.598 16.4724 370.373 16.3229C371.149 16.1735 372.003 16.0026 372.936 15.8102C373.088 14.9819 373.27 14.1274 373.482 13.2468C373.693 12.3503 373.915 11.4931 374.147 10.6752C374.395 9.84031 374.633 9.11026 374.863 8.48507C375.093 7.85987 375.31 7.40392 375.515 7.11722C375.676 6.89765 375.881 6.72324 376.128 6.59397C376.392 6.4636 376.652 6.38966 376.907 6.37213C377.242 6.34912 377.522 6.45021 377.746 6.6754C377.97 6.9006 378.093 7.17282 378.115 7.49207C378.123 7.61977 378.125 7.75599 378.119 7.90075C378.111 8.02955 378.088 8.15944 378.049 8.29042C377.801 9.10936 377.54 10.0976 377.266 11.255C377.009 12.4113 376.743 13.6805 376.469 15.0625C377.654 14.8048 378.815 14.5486 379.953 14.2942C381.105 14.0226 382.146 13.7747 383.077 13.5505C384.023 13.3091 384.779 13.1049 385.344 12.9378C385.656 12.8041 385.929 12.8094 386.163 12.9537C386.397 13.082 386.524 13.3058 386.546 13.6251ZM383.318 26.332C382.871 26.3627 382.461 26.2384 382.089 25.9592C381.733 25.679 381.532 25.1956 381.485 24.5092C381.459 24.1421 381.472 23.62 381.521 22.943C381.587 22.2649 381.681 21.5288 381.803 20.7346C381.924 19.9244 382.061 19.1211 382.215 18.3247C382.385 17.5272 382.552 16.8181 382.718 16.1972C382.883 15.5605 383.035 15.085 383.174 14.7707C383.356 14.3893 383.532 14.1527 383.702 14.0608C383.887 13.9519 384.068 13.8914 384.243 13.8794C384.562 13.8575 384.864 13.933 385.149 14.1059C385.449 14.2777 385.622 14.6909 385.667 15.3453C385.684 15.6007 385.665 16.019 385.609 16.6003C385.551 17.1655 385.476 17.8282 385.384 18.5883C385.292 19.3484 385.186 20.1335 385.065 20.9437C384.96 21.7528 384.852 22.522 384.742 23.2512C384.647 23.9634 384.567 24.5623 384.505 25.0477C384.452 25.4522 384.305 25.7591 384.063 25.9681C383.837 26.1921 383.589 26.3134 383.318 26.332ZM385.062 11.4416C384.535 11.4777 384.038 11.3595 383.57 11.0869C383.101 10.7983 382.845 10.3268 382.8 9.67236C382.762 9.12963 382.868 8.68135 383.116 8.32752C383.365 7.97368 383.667 7.71233 384.025 7.54347C384.397 7.35755 384.727 7.25473 385.014 7.235C385.301 7.21528 385.625 7.25722 385.985 7.36081C386.344 7.44844 386.662 7.64312 386.939 7.94484C387.231 8.2295 387.397 8.65915 387.436 9.2338C387.463 9.6169 387.351 9.97739 387.102 10.3153C386.851 10.6372 386.532 10.8996 386.145 11.1026C385.774 11.3045 385.413 11.4175 385.062 11.4416ZM392.021 25.3497C391.606 25.3782 391.225 25.2038 390.879 24.8267C390.548 24.4484 390.274 23.8498 390.058 23.0307C389.882 22.3371 389.715 21.5467 389.558 20.6593C389.401 19.772 389.253 18.9001 389.114 18.0436C388.99 17.1701 388.889 16.4071 388.813 15.7549C388.736 15.1026 388.689 14.6568 388.673 14.4173C388.613 13.5553 388.716 12.8346 388.981 12.2551C389.245 11.6596 389.808 11.3323 390.67 11.2732C391.037 11.248 391.327 11.3884 391.541 11.6945C391.753 11.9847 391.878 12.4011 391.915 12.9438C391.938 13.279 391.967 13.702 392.002 14.2128C392.052 14.7066 392.107 15.2641 392.165 15.8856C392.228 16.5709 392.295 17.312 392.366 18.1091C392.452 18.889 392.521 19.6701 392.575 20.4523C393.073 19.536 393.608 18.5611 394.179 17.5276C394.748 16.4781 395.304 15.4617 395.846 14.4783C396.404 13.4937 396.905 12.6254 397.351 11.8731C397.795 11.1048 398.135 10.5603 398.369 10.2395C398.574 9.95279 398.83 9.70271 399.136 9.48925C399.441 9.25982 399.769 9.13306 400.12 9.10895C400.503 9.08266 400.833 9.21239 401.109 9.49815C401.385 9.7839 401.537 10.1263 401.564 10.5254C401.585 10.8287 401.541 11.1204 401.432 11.4005C401.339 11.6795 401.213 11.9448 401.054 12.1963C400.621 12.8996 400.108 13.7206 399.515 14.6594C398.937 15.5972 398.332 16.585 397.697 17.6228C397.062 18.6448 396.44 19.6337 395.832 20.5895C395.24 21.5443 394.713 22.3904 394.25 23.1278C393.876 23.7469 393.571 24.2169 393.337 24.5377C393.101 24.8425 392.883 25.05 392.682 25.16C392.497 25.2689 392.277 25.3322 392.021 25.3497ZM405.198 25.2872C404.208 25.3551 403.386 25.0667 402.733 24.422C402.078 23.7613 401.697 22.6567 401.591 21.1084C401.523 20.1187 401.567 19.1214 401.722 18.1164C401.893 17.0943 402.155 16.1221 402.509 15.1997C402.877 14.2602 403.317 13.4202 403.827 12.6795C404.354 11.9377 404.946 11.3437 405.605 10.8975C406.263 10.4354 406.959 10.1791 407.694 10.1287C408.939 10.0433 409.935 10.3116 410.684 10.9338C411.432 11.5561 411.842 12.3859 411.913 13.4235C411.968 14.2216 411.794 14.9633 411.392 15.6484C411.005 16.3165 410.454 16.9317 409.739 17.494C409.023 18.0563 408.217 18.5767 407.32 19.0553C406.423 19.5338 405.499 19.9741 404.548 20.3762C404.507 20.9563 404.503 21.4699 404.533 21.9168C404.552 22.1882 404.713 22.3134 405.016 22.2926C405.734 22.2433 406.493 22.079 407.292 21.7996C408.105 21.5032 408.923 21.1424 409.743 20.7172C410.563 20.276 411.35 19.8291 412.105 19.3763C412.859 18.9076 413.542 18.4678 414.156 18.0568C414.784 17.6288 415.298 17.2888 415.697 17.0368C416.112 16.7678 416.383 16.6289 416.511 16.6202C416.862 16.5961 417.124 16.6823 417.298 16.8788C417.472 17.0754 417.567 17.2934 417.584 17.5328C417.591 17.6446 417.393 17.9068 416.988 18.3195C416.599 18.731 416.056 19.2254 415.358 19.8026C414.675 20.3627 413.897 20.9533 413.026 21.5744C412.169 22.1785 411.271 22.7614 410.331 23.3231C409.406 23.8677 408.499 24.3149 407.609 24.6646C406.736 25.0293 405.932 25.2368 405.198 25.2872ZM404.809 18.2173C405.437 17.7892 406.056 17.3458 406.666 16.887C407.291 16.411 407.801 15.8949 408.195 15.3386C408.589 14.7663 408.761 14.121 408.712 13.4027C408.698 13.1951 408.633 13.0633 408.517 13.0071C408.399 12.935 408.237 12.906 408.029 12.9203C407.471 12.9586 406.977 13.2411 406.548 13.7677C406.135 14.2932 405.78 14.9591 405.482 15.7654C405.2 16.5546 404.975 17.3719 404.809 18.2173Z" fill="#BF42D8"/>
</svg>
