<svg width="492" height="115" viewBox="0 0 492 115" fill="none" xmlns="http://www.w3.org/2000/svg">
<path d="M28.6602 39.9031C26.195 39.6868 23.7984 39.1767 21.4704 38.3727C19.185 37.5725 17.0419 36.6135 15.0413 35.4957C13.7706 39.2389 12.5956 43.3546 11.5165 47.8428C11.2346 49.103 10.877 50.2495 10.4437 51.2822C10.0142 52.2724 9.41013 53.0546 8.63162 53.6288C7.85312 54.2029 6.76256 54.4284 5.35995 54.3054C4.04235 54.1897 3.21579 53.6032 2.88027 52.5459C2.54476 51.4885 2.44227 50.216 2.57282 48.7284C2.61385 48.2608 2.89016 47.0644 3.40176 45.1391C3.91336 43.2138 4.54541 40.8921 5.29789 38.1742C6.0541 35.4137 6.83903 32.5701 7.65266 29.6434C6.06295 27.7478 5.3315 26.0775 5.45832 24.6324C5.52173 23.9098 5.79392 23.2484 6.2749 22.6481C6.80212 22.0091 7.72453 21.7474 9.04213 21.863C9.21214 21.878 9.44032 21.9622 9.72665 22.1159C10.3606 19.773 10.9083 17.6795 11.37 15.8355C11.8778 13.9527 12.1903 12.5881 12.3074 11.7417C12.5342 10.1341 12.8936 8.96637 13.3858 8.23861C13.8817 7.46834 14.4596 6.98367 15.1195 6.7846C15.8257 6.54676 16.5188 6.45768 17.1989 6.51735C18.0914 6.59568 18.7547 6.84663 19.1887 7.27018C19.6226 7.69374 19.7818 8.56432 19.6662 9.88192C19.5543 11.157 19.4305 12.324 19.2947 13.3829C21.6907 9.99534 24.0784 7.67787 26.4579 6.43044C28.8411 5.14051 31.3716 4.61303 34.0493 4.84802C36.6845 5.07927 38.9163 6.00324 40.7446 7.61993C42.573 9.23662 43.8991 11.4517 44.7229 14.2652C45.593 17.0398 45.8621 20.3186 45.5302 24.1014C45.0229 29.8818 43.3054 34.0784 40.3778 36.6912C37.4965 39.2651 33.5906 40.3358 28.6602 39.9031ZM17.8692 28.1628C19.3672 29.1509 20.9808 30.042 22.71 30.8362C24.4429 31.5879 26.2445 32.0459 28.1146 32.21C31.1324 32.4748 33.4115 31.8824 34.9522 30.4329C36.5353 28.9871 37.4854 26.4578 37.8024 22.845C38.3656 16.427 36.7133 13.0483 32.8455 12.7089C30.3803 12.4925 27.8577 13.6632 25.2775 16.2207C22.7399 18.782 20.2705 22.7627 17.8692 28.1628ZM52.7252 60.5178C50.09 60.2865 48.045 59.1862 46.5903 57.2168C45.1393 55.205 44.5947 52.1376 44.9565 48.0148C45.1877 45.3796 45.7165 42.7705 46.5428 40.1875C47.4153 37.5657 48.5086 35.1132 49.8225 32.83C51.1827 30.508 52.6887 28.4773 54.3404 26.7377C56.0347 25.0018 57.8422 23.6828 59.7631 22.7806C61.6877 21.8359 63.6276 21.4493 65.5828 21.6209C68.898 21.9118 71.4124 23.0319 73.1259 24.9811C74.8394 26.9304 75.5749 29.2864 75.3325 32.0491C75.146 34.1743 74.3812 36.056 73.0382 37.6941C71.7414 39.2936 70.0345 40.6857 67.9175 41.8705C65.8005 43.0553 63.4609 44.0921 60.8987 44.9808C58.3365 45.8696 55.7199 46.6465 53.0489 47.3115C52.7021 48.823 52.4765 50.1738 52.3721 51.3639C52.3087 52.0864 52.6807 52.4831 53.4883 52.554C55.401 52.7218 57.4672 52.6034 59.6871 52.1985C61.9532 51.7549 64.2555 51.1432 66.594 50.3633C68.9362 49.5409 71.1952 48.6898 73.3711 47.81C75.5508 46.8877 77.5336 46.0123 79.3195 45.1839C81.1516 44.3168 82.6464 43.6342 83.8037 43.1361C85.0072 42.5993 85.779 42.3458 86.119 42.3756C87.0541 42.4576 87.7099 42.7936 88.0864 43.3834C88.463 43.9733 88.6233 44.587 88.5673 45.2245C88.5412 45.5221 87.9096 46.1305 86.6725 47.0499C85.4779 47.973 83.8415 49.05 81.7633 50.2811C79.7312 51.4733 77.4386 52.707 74.8854 53.982C72.3784 55.2182 69.7707 56.3814 67.0624 57.4715C64.4003 58.5228 61.8243 59.3247 59.3345 59.8771C56.8835 60.4758 54.6803 60.6894 52.7252 60.5178ZM54.6307 41.7324C56.4628 40.8653 58.2775 39.9538 60.0746 38.9979C61.9179 38.0032 63.4749 36.8549 64.7456 35.553C66.02 34.2086 66.7412 32.5801 66.909 30.6674C66.9575 30.1149 66.8404 29.7406 66.5578 29.5444C66.2789 29.3058 65.8632 29.1623 65.3107 29.1138C63.8231 28.9832 62.4052 29.5227 61.0569 30.7321C59.7512 31.9453 58.5394 33.5522 57.4216 35.5528C56.35 37.5146 55.4197 39.5745 54.6307 41.7324ZM83.1188 61.0006C82.0988 60.9111 81.1085 60.4816 80.1481 59.712C79.234 58.9036 78.5159 57.8127 77.994 56.4391C77.4758 55.0231 77.3006 53.3587 77.4685 51.4461C77.6923 48.8959 78.271 46.2055 79.2047 43.375C80.1809 40.5482 81.3058 37.7344 82.5795 34.9337C83.8532 32.133 85.0908 29.5004 86.2922 27.036C86.8679 25.8444 87.5144 25.066 88.2317 24.7006C88.9528 24.2928 89.8659 24.1373 90.971 24.2343C93.4787 24.4544 94.6225 25.8182 94.4024 28.3259C94.3651 28.751 94.1011 29.563 93.6105 30.762C93.1235 31.9185 92.4848 33.3402 91.6943 35.0268C90.9463 36.7173 90.1428 38.5527 89.2837 40.5332C88.4708 42.4749 87.6968 44.4628 86.9615 46.497C86.2724 48.4924 85.6989 50.3909 85.241 52.1924C86.3491 50.7906 87.5952 49.0368 88.9792 46.9311C90.4095 44.7866 91.9129 42.5414 93.4893 40.1955C95.1083 37.8534 96.7123 35.6813 98.3014 33.6793C99.8942 31.6347 101.43 29.992 102.91 28.7513C104.389 27.5105 105.745 26.9442 106.978 27.0524C108.041 27.1456 109.021 27.4458 109.918 27.9529C110.862 28.4212 111.645 29.2609 112.267 30.4719C112.893 31.6404 113.305 33.2827 113.505 35.399C113.748 37.5189 113.719 40.279 113.421 43.6793C113.272 45.3794 113.275 47.0501 113.431 48.6914C113.633 50.2938 114.07 51.6599 114.742 52.7896C115.417 53.8769 116.456 54.482 117.859 54.6051C120.282 54.8177 122.488 54.5616 124.479 53.8369C126.47 53.1122 128.241 52.2182 129.79 51.1549C131.34 50.0916 132.643 49.1566 133.698 48.3498C134.346 47.807 134.897 47.3842 135.352 47.0815C135.849 46.7825 136.246 46.646 136.544 46.6722C137.437 46.7505 138.054 47.0402 138.395 47.5413C138.779 48.0461 138.936 48.7023 138.865 49.5099C138.827 49.9349 138.397 50.6895 137.574 51.7737C136.751 52.8579 135.615 54.086 134.167 55.458C132.765 56.7912 131.175 58.0651 129.398 59.2798C127.621 60.4944 125.737 61.4641 123.747 62.1888C121.756 62.9135 119.761 63.1882 117.764 63.0129C114.406 62.7183 111.674 61.8789 109.568 60.4949C107.509 59.0721 106.073 56.8902 105.26 53.9492C104.451 50.9657 104.265 46.9875 104.701 42.0147C104.712 41.8871 104.731 41.6746 104.757 41.3771C104.873 40.0595 104.954 38.8888 105.001 37.865C105.091 36.8449 105.1 36.0105 105.028 35.3618C104.19 36.6159 103.181 38.1121 102 39.8502C100.862 41.5921 99.628 43.454 98.2976 45.4359C96.971 47.3754 95.6037 49.2899 94.1958 51.1794C92.7916 53.0263 91.4024 54.7033 90.0281 56.2103C88.6962 57.721 87.4349 58.9166 86.244 59.7972C85.0531 60.6778 84.0114 61.0789 83.1188 61.0006ZM175.664 36.742C175.619 37.252 175.41 37.6834 175.036 38.0361C174.663 38.3888 174.212 38.649 173.683 38.8167C172.934 39.0509 171.647 39.3233 169.821 39.6342C167.994 39.9451 165.78 40.2862 163.178 40.6574C160.618 41.0324 157.865 41.4119 154.919 41.7958C151.976 42.1372 149.036 42.4574 146.097 42.7563C144.634 46.7396 143.138 50.8486 141.61 55.0832C140.086 59.2754 138.567 63.4037 137.054 67.4684C136.498 68.9187 135.889 70.0002 135.227 70.7131C134.561 71.4684 133.506 71.7827 132.061 71.6559C130.488 71.5179 129.47 70.9146 129.007 69.846C128.583 68.8237 128.637 67.4792 129.168 65.8127C130.68 61.2768 132.079 57.0522 133.364 53.139C134.693 49.2294 135.762 46.0682 136.574 43.6552C133.986 43.8565 131.725 44.0007 129.79 44.0878C127.859 44.1325 126.491 44.0982 125.687 43.9848C124.802 43.8215 124.09 43.3949 123.551 42.7051C123.012 42.0154 122.805 41.2048 122.929 40.2735C123.089 39.4309 123.535 38.7419 124.267 38.2065C125.003 37.6286 125.844 37.317 126.79 37.2715C128.119 37.2596 129.836 37.2176 131.941 37.1453C134.046 37.0731 136.368 36.9769 138.905 36.857C139.648 34.7378 140.481 32.5623 141.405 30.3306C142.333 28.0563 143.272 25.8901 144.224 23.8321C145.222 21.7353 146.153 19.911 147.017 18.3593C147.881 16.8076 148.643 15.6966 149.301 15.0262C149.817 14.5147 150.428 14.14 151.135 13.9022C151.883 13.6681 152.598 13.5809 153.278 13.6405C154.17 13.7189 154.865 14.101 155.361 14.7871C155.858 15.4731 156.069 16.2412 155.994 17.0912C155.965 17.4313 155.912 17.7907 155.836 18.1695C155.763 18.5058 155.648 18.8383 155.491 19.1672C154.497 21.2215 153.4 23.7165 152.2 26.6522C151.043 29.5916 149.817 32.8248 148.522 36.3518C151.751 36.164 154.916 35.9706 158.017 35.7716C161.165 35.5338 164.011 35.3125 166.556 35.1075C169.147 34.8638 171.223 34.639 172.783 34.4333C173.659 34.2103 174.376 34.3375 174.934 34.8147C175.495 35.2495 175.738 35.8919 175.664 36.742ZM159.961 70.1852C158.601 70.0659 157.401 69.5752 156.364 68.7131C155.322 67.8936 154.534 66.8608 154.001 65.6148C153.472 64.3262 153.269 62.9807 153.392 61.5781C153.623 58.9428 154.423 56.4218 155.79 54.0148C157.2 51.6115 158.961 49.3675 161.071 47.2826C163.181 45.1978 165.445 43.3191 167.862 41.6467C170.325 39.9355 172.742 38.4986 175.114 37.3362C177.529 36.1775 179.705 35.2977 181.642 34.6967C183.622 34.0995 185.143 33.8475 186.206 33.9408C187.438 34.049 188.413 34.4129 189.129 35.0326C189.892 35.6135 190.225 36.4565 190.128 37.5616C190.098 37.9016 189.989 38.1704 189.8 38.368C190.342 38.544 190.76 38.9019 191.055 39.4418C191.35 39.9817 191.453 40.7617 191.364 41.7817C191.327 42.2068 191.123 43.3025 190.754 45.069C190.385 46.8355 189.961 48.9827 189.482 51.5105C189.046 54.042 188.706 56.6892 188.464 59.4519C188.427 59.8769 188.457 60.2651 188.555 60.6163C188.656 60.925 188.919 61.098 189.344 61.1353C191.044 61.2845 192.796 61.0955 194.598 60.5684C196.446 60.0025 198.244 59.2822 199.991 58.4076C201.785 57.4942 203.406 56.5872 204.856 55.6865C206.352 54.747 207.597 53.9782 208.592 53.3802C209.633 52.7434 210.302 52.4381 210.6 52.4642C212.045 52.591 212.704 53.377 212.577 54.8221C212.544 55.2046 212.005 55.9712 210.962 57.1217C209.965 58.2335 208.611 59.5067 206.9 60.9413C205.194 62.3334 203.295 63.7087 201.206 65.0673C199.163 66.3871 197.057 67.4443 194.888 68.2392C192.763 69.0377 190.743 69.353 188.831 69.1852C186.493 68.9801 184.756 68.2709 183.621 67.0576C182.527 65.8481 181.808 64.2859 181.462 62.371C181.162 60.4173 181.096 58.2485 181.262 55.8646C178.822 58.7771 176.327 61.3421 173.777 63.5597C171.273 65.7384 168.833 67.4303 166.457 68.6352C164.081 69.8401 161.916 70.3568 159.961 70.1852ZM185.333 40.2246C180.992 41.8567 177.051 43.8236 173.508 46.1254C169.969 48.3847 167.099 50.8311 164.897 53.4648C162.738 56.1022 161.545 58.7172 161.318 61.3099C161.254 62.0325 161.563 62.4236 162.243 62.4832C163.05 62.5541 164.154 62.1798 165.553 61.3604C166.996 60.5447 168.57 59.4407 170.277 58.0486C171.988 56.614 173.713 55.0094 175.454 53.2347C177.198 51.4176 178.84 49.5486 180.379 47.6278C181.918 45.707 183.173 43.847 184.145 42.0477C184.502 41.3938 184.898 40.786 185.333 40.2246ZM202.959 90.02C199.771 89.7403 197.369 89.2939 195.752 88.6809C194.178 88.0717 193.127 87.3584 192.599 86.5411C192.068 85.7663 191.835 84.9964 191.903 84.2314C191.996 83.1688 192.412 82.3273 193.152 81.7069C193.934 81.0903 194.899 80.8323 196.047 80.933C196.812 81.0001 197.908 81.2034 199.334 81.5427C200.76 81.882 202.196 82.1151 203.641 82.2419C207.892 82.6149 211.488 81.9026 214.429 80.1048C217.368 78.3496 219.802 75.5009 221.733 71.5586C223.667 67.5737 225.206 62.4834 226.349 56.2877C222.995 60.8332 219.406 64.3944 215.582 66.9713C211.801 69.552 207.997 70.6744 204.172 70.3388C199.667 69.9434 197.608 67.5355 197.996 63.1152C198.182 60.99 198.952 58.8089 200.305 56.572C201.657 54.335 203.391 52.1528 205.505 50.0255C207.619 47.8982 209.913 45.9151 212.387 44.0764C214.865 42.1951 217.321 40.5689 219.754 39.1977C222.23 37.8302 224.505 36.7878 226.581 36.0706C228.661 35.3108 230.317 34.985 231.55 35.0932C232.527 35.179 233.363 35.4236 234.055 35.827C234.791 36.2342 235.326 36.9664 235.661 38.0238C236.001 39.0387 236.086 40.5025 235.919 42.4151C235.452 47.728 234.81 52.8541 233.991 57.7935C233.176 62.6903 232.031 67.1941 230.557 71.305C229.082 75.4158 227.144 78.9506 224.743 81.9094C222.385 84.8719 219.429 87.0752 215.875 88.5195C212.322 89.9637 208.017 90.4639 202.959 90.02ZM206.268 62.5562C206.242 62.8537 206.357 63.0137 206.612 63.0361C207.462 63.1107 208.649 62.7651 210.172 61.9993C211.699 61.1911 213.359 60.0946 215.151 58.71C216.989 57.2865 218.799 55.6894 220.582 53.9185C222.369 52.105 223.97 50.2111 225.385 48.2366C226.843 46.2658 227.934 44.3271 228.658 42.4204C226.336 43.5016 223.911 44.7878 221.381 46.2791C218.898 47.7315 216.531 49.3227 214.281 51.0526C212.073 52.7862 210.218 54.6366 208.718 56.6036C207.264 58.5319 206.447 60.5161 206.268 62.5562ZM240.324 77.623C239.261 77.5297 238.381 77.067 237.683 76.2348C237.027 75.4064 236.763 74.2696 236.89 72.8245C236.946 72.1869 237.122 71.153 237.419 69.7228C237.762 68.2539 238.166 66.5761 238.632 64.6896C239.14 62.8068 239.634 60.8371 240.114 58.7805C240.637 56.7277 241.086 54.7755 241.463 52.924C241.882 51.0763 242.192 49.4973 242.393 48.1872C242.62 46.5795 243.145 45.4692 243.97 44.8563C244.798 44.2009 245.744 43.9198 246.807 44.0131C247.657 44.0877 248.403 44.3673 249.046 44.852C249.735 45.298 250.108 46.1659 250.166 47.456C250.271 48.7072 250.135 50.4942 249.76 52.817C251.929 49.5808 254.087 46.7078 256.234 44.1979C258.425 41.6918 260.651 39.7457 262.914 38.3595C266.677 35.9914 269.982 34.9323 272.83 35.1822C274.445 35.3239 275.476 35.7785 275.923 36.5458C276.369 37.3131 276.559 38.0793 276.492 38.8444C276.447 39.3544 276.279 39.8107 275.986 40.2134C275.737 40.6198 275.23 41.025 274.466 41.4292C273.703 41.8333 272.544 42.3526 270.989 42.9871C268.902 43.8319 266.808 44.9973 264.707 46.4834C262.649 47.9732 260.55 49.9305 258.41 52.3553C256.27 54.7802 254.056 57.7982 251.769 61.4094C249.482 65.0207 247.067 69.3489 244.526 74.394C244.017 75.8055 243.38 76.7134 242.617 77.1175C241.895 77.5254 241.131 77.6939 240.324 77.623ZM265.027 79.4054C263.667 79.286 262.468 78.7953 261.43 77.9333C260.388 77.1137 259.601 76.0809 259.068 74.8349C258.538 73.5464 258.335 72.2008 258.458 70.7982C258.689 68.163 259.489 65.6419 260.856 63.2349C262.267 60.8316 264.027 58.5876 266.137 56.5027C268.248 54.4179 270.511 52.5393 272.928 50.8668C275.391 49.1556 277.808 47.7187 280.18 46.5563C282.595 45.3976 284.771 44.5178 286.708 43.9169C288.688 43.3196 290.209 43.0677 291.272 43.1609C292.504 43.2691 293.479 43.633 294.196 44.2527C294.958 44.8336 295.291 45.6766 295.194 46.7817C295.164 47.1217 295.055 47.3905 294.867 47.5881C295.408 47.7641 295.826 48.122 296.121 48.6619C296.417 49.2018 296.52 49.9818 296.43 51.0019C296.393 51.4269 296.19 52.5227 295.82 54.2891C295.451 56.0556 295.027 58.2028 294.548 60.7306C294.112 63.2622 293.773 65.9093 293.53 68.672C293.493 69.097 293.523 69.4852 293.621 69.8364C293.722 70.1451 293.985 70.3181 294.41 70.3554C296.111 70.5046 297.862 70.3156 299.664 69.7885C301.513 69.2226 303.311 68.5023 305.058 67.6277C306.851 66.7143 308.473 65.8073 309.922 64.9066C311.418 63.9671 312.663 63.1983 313.658 62.6003C314.699 61.9636 315.368 61.6582 315.666 61.6843C317.111 61.8112 317.77 62.5971 317.643 64.0422C317.61 64.4248 317.071 65.1913 316.028 66.3418C315.031 67.4536 313.677 68.7268 311.967 70.1614C310.26 71.5535 308.362 72.9289 306.272 74.2874C304.229 75.6072 302.123 76.6645 299.955 77.4593C297.829 78.2578 295.809 78.5732 293.897 78.4053C291.559 78.2002 289.822 77.491 288.687 76.2777C287.594 75.0682 286.874 73.506 286.528 71.5911C286.229 69.6374 286.162 67.4686 286.328 65.0847C283.888 67.9972 281.393 70.5622 278.843 72.7798C276.339 74.9586 273.899 76.6504 271.523 77.8553C269.147 79.0603 266.982 79.5769 265.027 79.4054ZM290.399 49.4447C286.058 51.0768 282.117 53.0438 278.574 55.3455C275.035 57.6048 272.165 60.0513 269.963 62.6849C267.805 65.3223 266.611 67.9373 266.384 70.53C266.321 71.2526 266.629 71.6437 267.309 71.7034C268.116 71.7742 269.22 71.3999 270.62 70.5805C272.062 69.7648 273.636 68.6609 275.343 67.2688C277.054 65.8341 278.779 64.2295 280.52 62.4549C282.264 60.6377 283.906 58.7687 285.445 56.8479C286.984 54.9271 288.24 53.0671 289.211 51.2678C289.568 50.6139 289.964 50.0062 290.399 49.4447ZM361.407 83.9442C360.95 86.217 359.489 87.2452 357.024 87.0289C355.749 86.917 354.762 86.4449 354.065 85.6127C353.409 84.7843 353.145 83.6475 353.272 82.2024C353.488 79.7372 353.826 77.1113 354.284 74.3247C354.789 71.4994 355.338 68.6565 355.932 65.7961C356.568 62.9395 357.172 60.2085 357.743 57.6031C356.019 59.679 354.204 61.8112 352.299 63.9997C350.394 66.1882 348.494 68.3129 346.6 70.3739C344.706 72.4348 342.894 74.2889 341.165 75.936C339.482 77.5444 337.956 78.8239 336.588 79.7746C335.223 80.6828 334.116 81.0996 333.266 81.025C331.226 80.8459 329.527 79.9473 328.17 78.3292C326.817 76.6685 326.243 74.6693 326.448 72.3317C326.519 71.5241 326.699 70.4477 326.988 69.1025C327.281 67.7148 327.624 66.2459 328.017 64.6956C328.41 63.1454 328.753 61.6764 329.047 60.2887C329.34 58.901 329.522 57.8034 329.593 56.9959C329.593 56.9959 329.596 56.9533 329.604 56.8683C329.665 56.6596 329.632 56.5496 329.504 56.5384C329.334 56.5235 328.816 57.0562 327.951 58.1367C327.088 59.1746 326.027 60.5377 324.765 62.2258C323.503 63.914 322.17 65.6816 320.766 67.5286C319.404 69.3793 318.118 71.1081 316.906 72.715C315.737 74.3256 314.771 75.5686 314.009 76.444C312.947 77.807 311.995 78.6444 311.154 78.9561C310.313 79.2677 309.361 79.3769 308.299 79.2837C306.811 79.1531 305.685 78.5618 304.921 77.5096C304.203 76.4187 303.924 74.9594 304.084 73.1317C304.151 72.3667 304.383 71.1878 304.78 69.595C305.219 68.006 305.737 66.2526 306.334 64.3347C306.934 62.3743 307.529 60.4777 308.118 58.6449C308.754 56.7733 309.299 55.1936 309.755 53.9058C310.29 52.1967 310.928 51.032 311.668 50.4116C312.453 49.7525 313.399 49.4714 314.504 49.5684C317.097 49.7959 318.281 51.1848 318.057 53.735C318.016 54.2025 317.801 54.9545 317.41 55.991C317.019 57.0275 316.55 58.2284 316.001 59.5937C315.453 60.959 314.88 62.3649 314.282 63.8115C313.688 65.2156 313.186 66.5421 312.776 67.7911C313.953 66.0955 315.226 64.2798 316.595 62.3441C317.964 60.4084 319.351 58.517 320.755 56.67C322.202 54.8268 323.612 53.1517 324.987 51.6447C326.404 50.1415 327.769 48.9764 329.084 48.1495C330.402 47.2801 331.614 46.8939 332.719 46.9909C333.824 47.0879 334.873 47.5867 335.864 48.4876C336.86 49.3459 337.643 50.4212 338.215 51.7134C338.833 52.9669 339.083 54.2737 338.963 55.6338C338.852 56.9089 338.547 58.4241 338.051 60.1794C337.554 61.9347 337.007 63.7713 336.411 65.6892C335.814 67.607 335.349 69.4936 335.015 71.3488C336.601 69.8605 338.292 68.1671 340.086 66.2687C341.884 64.3278 343.73 62.3268 345.624 60.2658C347.518 58.2049 349.364 56.2039 351.162 54.263C353.002 52.3258 354.699 50.5687 356.25 48.9916C357.845 47.4183 359.237 46.1913 360.428 45.3107C361.623 44.3876 362.518 43.9522 363.113 44.0044C364.855 44.1573 366.174 44.7442 367.07 45.7651C368.012 46.7472 368.384 48.3646 368.186 50.6172C368.063 52.0198 367.796 53.8382 367.386 56.0722C367.018 58.3099 366.549 60.7315 365.978 63.3369C365.452 65.9035 364.881 68.5088 364.264 71.153C363.692 73.7583 363.159 76.1743 362.664 78.4009C362.169 80.6274 361.75 82.4752 361.407 83.9442ZM378.749 75.1867C374.541 74.8175 372.609 72.6777 372.952 68.7674C373.083 67.2798 373.654 65.8951 374.666 64.6133C375.72 63.3352 377.049 62.1027 378.652 60.9156C380.259 59.6861 381.953 58.4427 383.734 57.1856C384.828 56.425 385.869 55.7882 386.857 55.2753C387.89 54.7235 388.731 54.1762 389.378 53.6334C390.071 53.0518 390.452 52.3784 390.519 51.6134C390.683 49.7432 389.683 48.1993 387.52 46.9815C385.403 45.725 382.666 44.9494 379.308 44.6547C378.331 44.5689 377.557 44.1155 376.986 43.2945C376.42 42.431 376.183 41.468 376.276 40.4054C376.384 39.1728 376.963 38.1956 378.011 37.4738C379.059 36.752 380.242 36.449 381.56 36.5646C385.81 36.9376 389.245 37.8172 391.865 39.2035C394.527 40.5936 396.46 42.2408 397.663 44.1453C398.87 46.0073 399.392 47.8734 399.228 49.7435C399.011 52.2087 398.317 54.2679 397.144 55.921C396.017 57.5354 394.609 58.9323 392.921 60.1119C391.279 61.2527 389.573 62.388 387.804 63.5176C386.763 64.1544 385.639 64.7624 384.431 65.3418C383.267 65.9249 382.279 66.4378 381.47 66.8807C380.66 67.3236 380.242 67.6939 380.216 67.9914C380.186 68.3314 380.426 68.5238 380.936 68.5686C381.191 68.5909 381.563 68.4951 382.053 68.2811C382.589 68.0284 383.145 67.7987 383.72 67.5922C384.341 67.3469 384.885 67.2448 385.353 67.2858C386.713 67.4051 387.315 68.3574 387.158 70.1425C387.08 71.0351 386.746 71.9053 386.158 72.7531C385.573 73.5584 384.66 74.2064 383.418 74.697C382.218 75.1913 380.662 75.3546 378.749 75.1867ZM380.712 85.7668C380.562 87.4669 379.648 88.3718 377.968 88.4813C377.67 89.4403 377.14 90.1005 376.381 90.4622C375.663 90.8275 374.625 90.9505 373.264 90.8312C371.862 90.7081 370.75 90.2036 369.928 89.3177C369.145 88.478 368.819 87.3144 368.949 85.8268C369.132 83.7441 369.865 82.2237 371.149 81.2656C372.436 80.2649 373.865 79.8336 375.438 79.9716C377.181 80.1245 378.528 80.6283 379.481 81.4829C380.477 82.3412 380.887 83.7691 380.712 85.7668ZM457.303 53.8121C457.255 54.3646 456.511 55.0275 455.073 55.8007C453.677 56.5776 451.802 57.4411 449.449 58.391C447.096 59.3409 444.501 60.3553 441.665 61.4342C438.872 62.5168 436.053 63.64 433.21 64.8039C435.364 66.6205 437.526 68.3307 439.698 69.9348C441.871 71.5388 443.841 72.9967 445.611 74.3084C447.423 75.6238 448.842 76.7763 449.869 77.7658C450.942 78.7166 451.454 79.4683 451.406 80.0208C451.335 80.8284 450.968 81.5886 450.306 82.3014C449.648 82.9718 448.66 83.2491 447.342 83.1335C446.959 83.0999 446.195 82.7759 445.05 82.1614C443.909 81.5044 442.527 80.6551 440.905 79.6133C439.287 78.529 437.529 77.3255 435.632 76.0026C433.778 74.6834 431.908 73.2986 430.022 71.8482C428.183 70.359 426.469 68.9023 424.881 67.478C424.164 66.8583 423.681 66.2591 423.432 65.6805C423.229 65.0631 423.15 64.4993 423.195 63.9893C423.258 63.2667 423.509 62.6035 423.948 61.9995C424.433 61.3567 425.188 60.802 426.214 60.3352C428.274 59.3167 430.459 58.3306 432.77 57.377C435.127 56.3846 437.455 55.4753 439.755 54.6492C442.101 53.7843 444.285 53.0551 446.307 52.4616C448.333 51.8256 450.047 51.3335 451.448 50.9854C452.892 50.6409 453.868 50.4911 454.379 50.5358C455.569 50.6403 456.375 50.968 456.798 51.5191C457.224 52.0276 457.393 52.792 457.303 53.8121ZM488.448 78.8385C488.307 80.4537 487.52 82.0978 486.088 83.7711C484.66 85.4018 482.851 86.9777 480.662 88.4988C478.473 90.0199 476.099 91.4393 473.542 92.7568C471.032 94.0355 468.557 95.1461 466.119 96.0885C463.719 97.0772 461.599 97.812 459.758 98.2929C457.913 98.8163 456.587 99.0426 455.779 98.9717C454.249 98.8374 453.019 98.4511 452.09 97.8128C451.161 97.1745 450.758 96.154 450.881 94.7514C450.975 93.6888 451.302 92.8824 451.865 92.3321C452.427 91.7818 453.194 91.3352 454.167 90.9922C456.509 90.1698 458.92 89.2892 461.401 88.3505C463.882 87.4118 466.259 86.4425 468.531 85.4426C470.845 84.4465 472.903 83.4492 474.704 82.4508C476.547 81.4562 478.024 80.4936 479.133 79.563C480.247 78.5899 480.839 77.6996 480.91 76.8921C480.992 75.957 480.69 75.2452 480.005 74.7568C479.362 74.2721 478.472 73.9156 477.336 73.6874C476.203 73.4167 474.936 73.2198 473.533 73.0967C471.62 72.9288 470.019 72.874 468.729 72.9321C467.439 72.9902 466.319 73.0632 465.369 73.1512C464.465 73.2004 463.631 73.1914 462.866 73.1243C461.591 73.0124 460.701 72.6559 460.197 72.0549C459.697 71.4113 459.49 70.6008 459.575 69.6232C459.646 68.8156 460.016 68.0129 460.686 67.2151C461.356 66.4172 462.368 65.8636 463.723 65.5542C466.564 64.9041 469.094 64.141 471.312 63.2649C473.577 62.35 475.362 61.286 476.668 60.0728C478.016 58.8634 478.757 57.4936 478.891 55.9635C478.932 55.496 478.727 55.1567 478.274 54.9456C477.864 54.7383 476.979 54.575 475.619 54.4556C474.386 54.3475 472.992 54.375 471.435 54.5383C469.922 54.7052 468.424 54.9378 466.941 55.236C465.505 55.4955 464.264 55.7292 463.218 55.9372C462.214 56.149 461.585 56.2436 461.33 56.2213C459.459 56.0571 458.606 55.04 458.771 53.1699C458.808 52.7448 459.186 52.0927 459.906 51.2136C460.626 50.3345 461.666 49.4621 463.027 48.5964C464.391 47.6882 466.04 46.9549 467.974 46.3965C469.95 45.8418 472.192 45.6744 474.7 45.8945C477.165 46.1108 479.268 46.788 481.01 47.926C482.794 49.0676 484.122 50.5333 484.993 52.323C485.91 54.0738 486.275 56.0119 486.089 58.137C485.947 59.7522 485.295 61.3225 484.134 62.8481C483.018 64.335 481.662 65.6294 480.067 66.7315C482.84 67.8314 484.985 69.4973 486.502 71.7292C488.023 73.9186 488.672 76.2883 488.448 78.8385Z" fill="#D84242"/>
</svg>
