<svg width="419" height="232" viewBox="0 0 419 232" fill="none" xmlns="http://www.w3.org/2000/svg">
<path d="M49.0596 42.2758C46.6468 41.7261 44.3418 40.8947 42.1449 39.7816C39.9895 38.678 37.9968 37.4364 36.1669 36.0568C34.3987 39.5924 32.6749 43.51 30.9952 47.8096C30.5445 49.0198 30.0343 50.1069 29.4645 51.0711C28.9043 51.9937 28.1995 52.6865 27.3501 53.1494C26.5007 53.6123 25.3896 53.6874 24.0168 53.3747C22.7272 53.0809 21.9881 52.3874 21.7995 51.2942C21.611 50.201 21.6825 48.9264 22.0142 47.4704C22.1185 47.0128 22.555 45.865 23.3237 44.0272C24.0925 42.1894 25.0344 39.9753 26.1496 37.385C27.2743 34.753 28.4388 32.0426 29.643 29.2538C28.3259 27.1596 27.8285 25.4053 28.1507 23.9908C28.3118 23.2836 28.6714 22.6654 29.2296 22.1362C29.8388 21.5748 30.7882 21.441 32.0779 21.7348C32.2443 21.7727 32.4589 21.8872 32.7216 22.0784C33.6684 19.8435 34.4958 17.844 35.204 16.0799C35.9633 14.2837 36.4585 12.9743 36.6896 12.1517C37.1329 10.5899 37.6479 9.4819 38.2345 8.82785C38.8306 8.1322 39.469 7.73065 40.1499 7.6232C40.8819 7.48363 41.5806 7.48966 42.2463 7.64129C43.1199 7.8403 43.7428 8.17914 44.1152 8.65779C44.4875 9.13645 44.5267 10.0206 44.233 11.3102C43.9487 12.5582 43.6672 13.6975 43.3887 14.7281C46.2232 11.698 48.904 9.72684 51.4311 8.81468C53.9676 7.86093 56.5463 7.68257 59.1672 8.27962C61.7464 8.86719 63.8317 10.0862 65.4232 11.9365C67.0146 13.7869 68.0271 16.1618 68.4606 19.0611C68.9451 21.9284 68.7657 25.2133 67.9223 28.9157C66.6334 34.5735 64.3611 38.4974 61.1053 40.6876C57.9005 42.8457 53.8853 43.3751 49.0596 42.2758ZM39.9659 29.1767C41.3156 30.3594 42.793 31.4618 44.3981 32.4838C46.0127 33.4642 47.7352 34.163 49.5656 34.5799C52.5193 35.2528 54.8578 34.976 56.5813 33.7495C58.3464 32.5325 59.6317 30.1559 60.4372 26.6199C61.8682 20.3381 60.6909 16.7661 56.9052 15.9037C54.4924 15.354 51.8339 16.1706 48.9299 18.3534C46.0674 20.5457 43.0795 24.1535 39.9659 29.1767ZM70.0967 65.9724C67.5175 65.3848 65.6412 64.0166 64.4679 61.8676C63.304 59.677 63.1817 56.5641 64.101 52.5288C64.6885 49.9496 65.5673 47.4367 66.7373 44.9901C67.9584 42.5114 69.3751 40.2304 70.9874 38.1472C72.6508 36.0318 74.419 34.2247 76.292 32.726C78.2066 31.2367 80.1768 30.1758 82.2026 29.5433C84.2378 28.8692 86.2123 28.7501 88.1259 29.186C91.3708 29.9252 93.7094 31.3769 95.1418 33.5412C96.5742 35.7054 96.9824 38.1395 96.3664 40.8436C95.8926 42.9236 94.879 44.6838 93.3256 46.1241C91.8233 47.5322 89.9429 48.6792 87.6844 49.565C85.4259 50.4508 82.967 51.1597 80.3078 51.6917C77.6485 52.2236 74.9505 52.6374 72.2139 52.9329C71.6647 54.3832 71.2574 55.6907 70.9921 56.8555C70.831 57.5627 71.1456 58.0064 71.936 58.1864C73.8081 58.6129 75.8713 58.7766 78.1256 58.6775C80.431 58.5463 82.7951 58.2534 85.2179 57.7989C87.6502 57.3027 90.004 56.7668 92.2794 56.1912C94.5642 55.5739 96.6477 54.9764 98.5297 54.3987C100.463 53.7888 102.036 53.3159 103.251 52.9799C104.516 52.6117 105.315 52.4656 105.648 52.5414C106.563 52.7499 107.167 53.1719 107.46 53.8075C107.753 54.4431 107.828 55.0729 107.686 55.6969C107.62 55.9881 106.911 56.505 105.561 57.2475C104.251 57.9995 102.484 58.844 100.257 59.7809C98.0821 60.6856 95.6429 61.5959 92.94 62.5118C90.2881 63.3955 87.5465 64.1931 84.715 64.9047C81.9347 65.5841 79.2736 66.0281 76.7318 66.2367C74.222 66.4964 72.0104 66.4083 70.0967 65.9724ZM74.5399 47.6209C76.4729 47.011 78.3947 46.3548 80.3051 45.6522C82.2667 44.9176 83.9654 43.9918 85.4014 42.8748C86.8468 41.7163 87.7827 40.201 88.2092 38.3289C88.3324 37.7881 88.2674 37.4013 88.0141 37.1686C87.7702 36.8942 87.3779 36.6955 86.8371 36.5723C85.3811 36.2406 83.903 36.5821 82.4027 37.5969C80.9441 38.6212 79.525 40.0483 78.1454 41.8783C76.8169 43.6761 75.6151 45.5903 74.5399 47.6209ZM100.142 70.5852C99.1438 70.3577 98.2212 69.7975 97.3744 68.9044C96.5786 67.9792 96.0157 66.8007 95.6854 65.369C95.3647 63.8956 95.4176 62.2229 95.844 60.3508C96.4126 57.8548 97.352 55.2681 98.662 52.5909C100.014 49.9232 101.511 47.2886 103.154 44.6872C104.797 42.0857 106.381 39.646 107.906 37.3679C108.639 36.2657 109.385 35.5825 110.145 35.3181C110.915 35.0121 111.841 34.9823 112.923 35.2287C115.377 35.7878 116.325 37.2946 115.766 39.7491C115.671 40.1651 115.299 40.9337 114.65 42.0548C114.01 43.1343 113.184 44.4558 112.171 46.0193C111.2 47.5923 110.154 49.3014 109.034 51.1466C107.964 52.9597 106.927 54.8238 105.922 56.7391C104.968 58.6222 104.141 60.425 103.443 62.1475C104.731 60.9094 106.204 59.3415 107.862 57.4436C109.571 55.5136 111.365 53.4938 113.246 51.3842C115.169 49.2841 117.053 47.3503 118.9 45.583C120.756 43.7741 122.502 42.3557 124.136 41.3277C125.771 40.2998 127.191 39.9232 128.397 40.198C129.437 40.4349 130.368 40.8657 131.188 41.4902C132.06 42.0825 132.721 43.0209 133.172 44.3052C133.633 45.548 133.819 47.2312 133.729 49.3549C133.68 51.4881 133.277 54.2188 132.519 57.5468C132.14 59.2109 131.916 60.8665 131.847 62.5137C131.829 64.1287 132.076 65.5415 132.588 66.7521C133.109 67.9211 134.057 68.662 135.429 68.9748C137.801 69.5149 140.022 69.5615 142.093 69.1143C144.164 68.6671 146.039 68.0223 147.719 67.1796C149.399 66.337 150.817 65.5879 151.972 64.9323C152.688 64.4825 153.291 64.1386 153.783 63.9006C154.316 63.672 154.729 63.5909 155.02 63.6573C155.893 63.8563 156.465 64.2272 156.735 64.7701C157.047 65.3225 157.113 65.9939 156.933 66.7843C156.838 67.2003 156.309 67.8894 155.346 68.8515C154.383 69.8136 153.091 70.8758 151.47 72.0381C149.899 73.1682 148.151 74.2141 146.226 75.1757C144.3 76.1373 142.302 76.8417 140.231 77.2889C138.16 77.736 136.146 77.7369 134.191 77.2915C130.905 76.5428 128.312 75.3397 126.415 73.682C124.568 71.9923 123.442 69.6353 123.037 66.6111C122.641 63.5454 122.998 59.5788 124.107 54.7115C124.135 54.5867 124.182 54.3787 124.249 54.0875C124.543 52.7979 124.782 51.6491 124.968 50.6412C125.196 49.6428 125.318 48.8174 125.335 48.1649C124.334 49.2934 123.131 50.6384 121.725 52.1998C120.361 53.7706 118.885 55.4474 117.297 57.2299C115.719 58.9709 114.104 60.6816 112.452 62.362C110.81 64.0008 109.205 65.4732 107.639 66.7792C106.114 68.0947 104.702 69.1076 103.402 69.8181C102.102 70.5285 101.016 70.7842 100.142 70.5852ZM195.127 59.1408C195.013 59.64 194.747 60.0389 194.329 60.3375C193.911 60.6361 193.429 60.8326 192.882 60.9268C192.108 61.0569 190.796 61.1518 188.945 61.2114C187.093 61.2709 184.853 61.3076 182.224 61.3214C179.637 61.3447 176.858 61.3461 173.887 61.3257C170.925 61.2637 167.969 61.1809 165.017 61.0773C163.025 64.8245 160.985 68.6919 158.895 72.6793C156.814 76.6251 154.748 80.5085 152.696 84.3295C151.948 85.6908 151.198 86.6795 150.445 87.2956C149.683 87.9534 148.594 88.1211 147.18 87.7989C145.64 87.4483 144.714 86.7121 144.401 85.5905C144.12 84.52 144.356 83.1953 145.109 81.6166C147.224 77.3285 149.184 73.3334 150.99 69.6315C152.838 65.9389 154.328 62.9526 155.46 60.6724C152.869 60.5198 150.609 60.3551 148.68 60.1782C146.761 59.9598 145.411 59.7397 144.63 59.5181C143.775 59.2358 143.128 58.7164 142.687 57.9597C142.247 57.203 142.152 56.3718 142.402 55.466C142.675 54.653 143.21 54.0311 144.009 53.6003C144.816 53.1279 145.692 52.9335 146.636 53.0172C147.954 53.1862 149.66 53.3781 151.756 53.5929C153.851 53.8076 156.164 54.0282 158.694 54.2545C159.718 52.2561 160.84 50.2142 162.059 48.1288C163.287 46.0019 164.513 43.9837 165.735 42.0742C167.009 40.1326 168.18 38.452 169.247 37.0323C170.314 35.6125 171.22 34.6154 171.963 34.0409C172.544 33.6043 173.2 33.3162 173.932 33.1767C174.706 33.0466 175.426 33.0573 176.091 33.209C176.965 33.408 177.601 33.8811 178 34.6283C178.398 35.3755 178.503 36.1651 178.313 36.9971C178.237 37.3299 178.136 37.6788 178.009 38.0437C177.892 38.3671 177.733 38.6809 177.532 38.9853C176.268 40.8853 174.842 43.2079 173.254 45.953C171.707 48.7077 170.053 51.7441 168.29 55.0622C171.515 55.3153 174.677 55.5543 177.776 55.779C180.927 55.9716 183.777 56.1395 186.326 56.2826C188.926 56.3936 191.013 56.4533 192.586 56.4616C193.485 56.36 194.178 56.5835 194.665 57.1322C195.163 57.6393 195.316 58.3088 195.127 59.1408ZM175.02 90.1371C173.689 89.8339 172.568 89.1846 171.657 88.1894C170.736 87.2358 170.097 86.1055 169.738 84.7985C169.389 83.45 169.371 82.0893 169.683 80.7164C170.271 78.1372 171.406 75.7483 173.088 73.5497C174.812 71.3606 176.861 69.3768 179.236 67.5985C181.61 65.8201 184.108 64.2668 186.73 62.9386C189.403 61.5783 191.993 60.4837 194.502 59.6548C197.051 58.8353 199.327 58.2597 201.328 57.9278C203.37 57.6055 204.912 57.5627 205.952 57.7997C207.158 58.0745 208.074 58.5676 208.7 59.279C209.376 59.9583 209.592 60.8387 209.345 61.9204C209.269 62.2532 209.124 62.5046 208.911 62.6747C209.423 62.9227 209.789 63.3342 210.008 63.9093C210.227 64.4843 210.223 65.271 209.995 66.2694C209.901 66.6854 209.55 67.7434 208.944 69.4432C208.338 71.1431 207.626 73.2126 206.808 75.6518C206.031 78.1004 205.335 80.6768 204.719 83.3809C204.624 83.7969 204.601 84.1855 204.65 84.5467C204.709 84.8664 204.946 85.0736 205.362 85.1683C207.026 85.5474 208.787 85.5984 210.644 85.3214C212.552 85.0122 214.431 84.5432 216.281 83.9144C218.182 83.2534 219.912 82.5754 221.471 81.8802C223.08 81.1529 224.419 80.5607 225.486 80.1036C226.603 79.6143 227.308 79.4029 227.599 79.4692C229.014 79.7915 229.56 80.6598 229.238 82.0742C229.152 82.4486 228.515 83.1348 227.325 84.1327C226.186 85.0985 224.671 86.1757 222.781 87.3643C220.901 88.5113 218.833 89.6156 216.578 90.6773C214.375 91.7069 212.145 92.4679 209.888 92.9604C207.673 93.4623 205.63 93.5 203.758 93.0736C201.47 92.5523 199.846 91.6135 198.886 90.257C197.967 88.9101 197.467 87.2645 197.385 85.3203C197.354 83.344 197.583 81.1863 198.072 78.8472C195.258 81.4007 192.437 83.6025 189.609 85.4525C186.832 87.2704 184.185 88.6147 181.667 89.4852C179.15 90.3558 176.934 90.5731 175.02 90.1371ZM204.232 63.9063C199.71 64.9328 195.537 66.3453 191.714 68.1438C187.901 69.9006 184.725 71.9339 182.185 74.2436C179.688 76.5628 178.15 78.9912 177.572 81.5289C177.411 82.2361 177.663 82.6655 178.329 82.8172C179.119 82.9972 180.264 82.7765 181.762 82.1551C183.301 81.5431 185.011 80.6637 186.892 79.5167C188.782 78.3281 190.709 76.9731 192.675 75.4517C194.65 73.8887 196.531 72.2604 198.317 70.5669C200.103 68.8733 201.6 67.2013 202.807 65.5509C203.25 64.9516 203.725 64.4034 204.232 63.9063ZM214.921 115.637C211.801 114.926 209.482 114.157 207.963 113.33C206.487 112.512 205.543 111.662 205.131 110.781C204.709 109.941 204.584 109.147 204.755 108.398C204.992 107.358 205.519 106.581 206.336 106.067C207.195 105.562 208.186 105.438 209.309 105.694C210.058 105.864 211.116 106.215 212.483 106.745C213.85 107.275 215.241 107.701 216.655 108.024C220.815 108.971 224.475 108.755 227.634 107.374C230.783 106.035 233.582 103.544 236.031 99.9005C238.49 96.2158 240.707 91.3822 242.682 85.3995C238.741 89.4465 234.701 92.4864 230.562 94.5192C226.465 96.5615 222.544 97.1562 218.8 96.3033C214.39 95.2987 212.678 92.6332 213.664 88.3067C214.138 86.2267 215.197 84.1705 216.841 82.1384C218.486 80.1062 220.5 78.1801 222.884 76.3601C225.267 74.5402 227.81 72.8876 230.511 71.4025C233.222 69.8758 235.876 68.5988 238.473 67.5713C241.112 66.5533 243.508 65.8302 245.662 65.402C247.826 64.9322 249.511 64.8347 250.718 65.1095C251.675 65.3275 252.469 65.6834 253.1 66.1773C253.773 66.6807 254.204 67.479 254.392 68.5722C254.59 69.6238 254.476 71.0856 254.05 72.9576C252.865 78.1578 251.531 83.1488 250.048 87.9308C248.574 92.6712 246.828 96.9775 244.808 100.85C242.788 104.722 240.387 107.96 237.606 110.565C234.866 113.179 231.638 114.96 227.921 115.907C224.205 116.854 219.871 116.764 214.921 115.637ZM221.935 88.8782C221.869 89.1694 221.961 89.3435 222.21 89.4003C223.042 89.5899 224.265 89.4089 225.878 88.8575C227.501 88.2645 229.295 87.404 231.258 86.276C233.273 85.1158 235.284 83.7798 237.291 82.2679C239.308 80.7144 241.152 79.0558 242.823 77.2922C244.535 75.5381 245.88 73.7658 246.856 71.9753C244.409 72.7305 241.831 73.6748 239.122 74.8082C236.464 75.9094 233.903 77.1638 231.438 78.5715C229.015 79.9886 226.926 81.5695 225.172 83.3142C223.469 85.0267 222.39 86.8814 221.935 88.8782ZM253.625 108.437C252.585 108.201 251.775 107.622 251.197 106.703C250.661 105.793 250.553 104.631 250.876 103.216C251.018 102.592 251.333 101.592 251.822 100.216C252.361 98.807 252.99 97.1998 253.708 95.3941C254.467 93.5979 255.224 91.7137 255.98 89.7416C256.777 87.779 257.488 85.9062 258.113 84.1231C258.78 82.3495 259.302 80.8274 259.679 79.5567C260.122 77.9949 260.794 76.9664 261.694 76.4714C262.604 75.9347 263.579 75.7849 264.619 76.0218C265.451 76.2114 266.153 76.5899 266.723 77.1576C267.345 77.6931 267.597 78.6038 267.48 79.8898C267.413 81.1436 267.035 82.8955 266.348 85.1457C268.936 82.2346 271.465 79.6819 273.934 77.4875C276.445 75.3025 278.916 73.6774 281.346 72.612C285.396 70.7777 288.815 70.1781 291.602 70.813C293.183 71.1732 294.142 71.7637 294.481 72.5846C294.819 73.4056 294.902 74.1904 294.732 74.9393C294.618 75.4385 294.389 75.8676 294.045 76.2268C293.742 76.5954 293.185 76.928 292.373 77.2245C291.562 77.521 290.343 77.8778 288.716 78.2949C286.534 78.8479 284.301 79.7177 282.017 80.9042C279.776 82.1001 277.43 83.7537 274.98 85.8649C272.53 87.9761 269.926 90.665 267.169 93.9315C264.412 97.1981 261.431 101.158 258.227 105.81C257.53 107.139 256.776 107.952 255.965 108.249C255.195 108.555 254.415 108.618 253.625 108.437ZM277.856 113.564C276.524 113.26 275.403 112.611 274.492 111.616C273.572 110.662 272.932 109.532 272.574 108.225C272.224 106.876 272.206 105.516 272.519 104.143C273.106 101.564 274.241 99.1747 275.924 96.9762C277.648 94.7871 279.697 92.8033 282.071 91.0249C284.446 89.2466 286.944 87.6933 289.565 86.3651C292.238 85.0048 294.829 83.9102 297.337 83.0813C299.887 82.2618 302.162 81.6861 304.163 81.3543C306.206 81.032 307.747 80.9892 308.787 81.2262C309.993 81.501 310.909 81.9941 311.535 82.7055C312.212 83.3848 312.427 84.2652 312.181 85.3468C312.105 85.6797 311.96 85.9311 311.746 86.1012C312.258 86.3492 312.624 86.7607 312.843 87.3357C313.062 87.9108 313.058 88.6975 312.831 89.6959C312.736 90.1119 312.386 91.1699 311.78 92.8697C311.174 94.5696 310.461 96.6391 309.643 99.0783C308.867 101.527 308.17 104.103 307.554 106.807C307.459 107.223 307.437 107.612 307.486 107.973C307.544 108.293 307.781 108.5 308.197 108.595C309.861 108.974 311.622 109.025 313.479 108.748C315.388 108.439 317.267 107.97 319.117 107.341C321.018 106.68 322.747 106.002 324.306 105.307C325.916 104.579 327.254 103.987 328.321 103.53C329.439 103.041 330.143 102.829 330.435 102.896C331.849 103.218 332.395 104.086 332.073 105.501C331.988 105.875 331.35 106.561 330.16 107.559C329.021 108.525 327.507 109.602 325.617 110.791C323.736 111.938 321.669 113.042 319.414 114.104C317.21 115.133 314.98 115.894 312.724 116.387C310.509 116.889 308.465 116.927 306.593 116.5C304.305 115.979 302.681 115.04 301.721 113.684C300.803 112.337 300.302 110.691 300.22 108.747C300.189 106.771 300.418 104.613 300.907 102.274C298.094 104.827 295.273 107.029 292.445 108.879C289.667 110.697 287.02 112.041 284.503 112.912C281.985 113.782 279.769 114 277.856 113.564ZM307.068 87.3328C302.545 88.3593 298.373 89.7718 294.55 91.5703C290.736 93.3271 287.56 95.3604 285.021 97.6701C282.523 99.9893 280.986 102.418 280.407 104.955C280.246 105.663 280.499 106.092 281.164 106.244C281.955 106.424 283.099 106.203 284.597 105.582C286.137 104.97 287.847 104.09 289.727 102.943C291.617 101.755 293.545 100.4 295.511 98.8782C297.486 97.3152 299.366 95.6869 301.153 93.9933C302.939 92.2998 304.435 90.6278 305.643 88.9774C306.086 88.3781 306.561 87.8299 307.068 87.3328ZM372.722 131.171C371.961 133.36 370.374 134.18 367.961 133.631C366.713 133.346 365.8 132.744 365.221 131.825C364.685 130.915 364.578 129.753 364.9 128.339C365.449 125.926 366.141 123.37 366.975 120.672C367.859 117.941 368.79 115.2 369.767 112.447C370.786 109.703 371.756 107.08 372.676 104.576C370.686 106.398 368.598 108.264 366.412 110.173C364.227 112.082 362.056 113.928 359.899 115.712C357.742 117.497 355.695 119.087 353.758 120.484C351.872 121.848 350.186 122.908 348.701 123.664C347.226 124.378 346.072 124.64 345.24 124.451C343.243 123.996 341.683 122.875 340.558 121.087C339.444 119.257 339.147 117.199 339.668 114.911C339.848 114.12 340.173 113.078 340.643 111.785C341.122 110.45 341.661 109.042 342.262 107.559C342.862 106.077 343.402 104.668 343.881 103.333C344.36 101.998 344.69 100.936 344.87 100.145C344.87 100.145 344.879 100.104 344.898 100.02C344.987 99.8219 344.969 99.7084 344.844 99.68C344.678 99.6421 344.092 100.099 343.088 101.052C342.092 101.963 340.855 103.169 339.375 104.67C337.896 106.171 336.335 107.741 334.692 109.379C333.092 111.028 331.582 112.565 330.163 113.992C328.785 115.429 327.659 116.529 326.785 117.293C325.548 118.499 324.491 119.199 323.615 119.393C322.74 119.588 321.782 119.566 320.742 119.329C319.286 118.998 318.251 118.259 317.637 117.112C317.074 115.934 316.996 114.45 317.404 112.661C317.574 111.912 317.964 110.776 318.574 109.252C319.225 107.738 319.977 106.071 320.829 104.252C321.69 102.392 322.538 100.593 323.371 98.8578C324.255 97.09 325.01 95.5992 325.637 94.3854C326.399 92.7651 327.19 91.6979 328.007 91.1839C328.875 90.6378 329.85 90.488 330.932 90.7344C333.469 91.3125 334.454 92.8495 333.885 95.3456C333.781 95.8032 333.465 96.5188 332.937 97.4925C332.409 98.4662 331.78 99.5921 331.051 100.87C330.323 102.148 329.564 103.463 328.774 104.815C327.995 106.125 327.317 107.371 326.741 108.553C328.138 107.033 329.646 105.407 331.266 103.676C332.885 101.944 334.516 100.259 336.159 98.6203C337.843 96.991 339.468 95.5233 341.034 94.2173C342.643 92.9208 344.154 91.9524 345.569 91.312C346.993 90.63 348.246 90.4122 349.328 90.6586C350.41 90.905 351.381 91.5418 352.24 92.5692C353.11 93.5549 353.74 94.7268 354.131 96.0849C354.573 97.4108 354.642 98.7394 354.339 100.071C354.054 101.319 353.547 102.778 352.816 104.45C352.085 106.121 351.294 107.866 350.442 109.685C349.59 111.504 348.872 113.31 348.289 115.102C350.063 113.844 351.969 112.396 354.004 110.759C356.049 109.081 358.15 107.35 360.307 105.566C362.464 103.781 364.565 102.05 366.61 100.372C368.697 98.703 370.617 97.1929 372.368 95.8417C374.162 94.4998 375.708 93.4737 377.008 92.7633C378.317 92.0113 379.263 91.7016 379.845 91.8343C381.551 92.2228 382.778 92.9837 383.526 94.1169C384.326 95.218 384.474 96.8709 383.972 99.0758C383.659 100.449 383.148 102.214 382.437 104.371C381.769 106.538 380.974 108.873 380.054 111.377C379.185 113.848 378.264 116.352 377.293 118.887C376.372 121.391 375.515 123.711 374.722 125.85C373.928 127.989 373.262 129.762 372.722 131.171ZM391.095 124.854C386.976 123.916 385.353 121.533 386.225 117.706C386.556 116.249 387.311 114.955 388.488 113.823C389.706 112.7 391.19 111.66 392.94 110.702C394.699 109.703 396.547 108.701 398.482 107.698C399.67 107.093 400.788 106.604 401.836 106.23C402.935 105.824 403.842 105.396 404.557 104.947C405.323 104.465 405.791 103.849 405.962 103.101C406.379 101.27 405.599 99.6046 403.621 98.1039C401.695 96.5711 399.088 95.4303 395.802 94.6816C394.845 94.4637 394.14 93.9092 393.687 93.0182C393.243 92.0856 393.139 91.0994 393.376 90.0593C393.651 88.8529 394.357 87.9635 395.494 87.391C396.631 86.8186 397.844 86.6792 399.133 86.973C403.293 87.9207 406.577 89.2594 408.983 90.9892C411.432 92.7284 413.122 94.6233 414.055 96.6738C414.998 98.6827 415.261 100.602 414.844 102.433C414.294 104.846 413.326 106.791 411.939 108.269C410.603 109.715 409.019 110.908 407.186 111.847C405.404 112.754 403.559 113.646 401.653 114.525C400.535 115.014 399.338 115.464 398.063 115.873C396.83 116.293 395.782 116.666 394.92 116.995C394.057 117.324 393.593 117.634 393.526 117.925C393.451 118.258 393.662 118.481 394.162 118.595C394.411 118.651 394.793 118.607 395.308 118.462C395.873 118.284 396.455 118.132 397.053 118.006C397.701 117.847 398.254 117.82 398.712 117.925C400.043 118.228 400.51 119.253 400.112 121C399.913 121.874 399.464 122.691 398.766 123.451C398.077 124.169 397.084 124.687 395.787 125.004C394.531 125.33 392.967 125.28 391.095 124.854ZM391.6 135.602C391.221 137.266 390.192 138.039 388.512 137.919C388.086 138.828 387.472 139.41 386.67 139.665C385.91 139.929 384.864 139.91 383.533 139.607C382.16 139.294 381.127 138.643 380.433 137.653C379.772 136.715 379.607 135.518 379.939 134.062C380.403 132.023 381.336 130.617 382.738 129.842C384.149 129.026 385.624 128.793 387.164 129.144C388.869 129.532 390.136 130.215 390.964 131.191C391.833 132.177 392.045 133.647 391.6 135.602ZM197.838 142.202C197.714 142.743 196.888 143.298 195.358 143.869C193.869 144.448 191.894 145.049 189.433 145.67C186.973 146.291 184.264 146.943 181.308 147.626C178.393 148.318 175.448 149.048 172.473 149.814C174.36 151.907 176.27 153.895 178.203 155.78C180.137 157.664 181.891 159.377 183.466 160.917C185.082 162.467 186.331 163.802 187.214 164.922C188.148 166.01 188.553 166.824 188.43 167.365C188.25 168.155 187.783 168.858 187.03 169.475C186.287 170.049 185.27 170.189 183.98 169.896C183.606 169.81 182.893 169.385 181.842 168.621C180.8 167.815 179.547 166.785 178.082 165.533C176.627 164.238 175.049 162.807 173.35 161.238C171.692 159.679 170.028 158.053 168.357 156.359C166.737 154.634 165.237 152.957 163.857 151.33C163.232 150.619 162.835 149.96 162.667 149.352C162.55 148.713 162.548 148.144 162.662 147.645C162.823 146.937 163.162 146.315 163.679 145.776C164.246 145.205 165.07 144.758 166.15 144.435C168.329 143.706 170.628 143.027 173.047 142.396C175.517 141.734 177.948 141.15 180.339 140.644C182.78 140.106 185.043 139.681 187.128 139.368C189.221 139.014 190.986 138.759 192.421 138.605C193.898 138.46 194.887 138.444 195.386 138.558C196.551 138.824 197.305 139.258 197.649 139.861C198.002 140.423 198.065 141.203 197.838 142.202ZM225.289 171.232C224.929 172.813 223.926 174.335 222.28 175.798C220.643 177.219 218.637 178.534 216.261 179.744C213.885 180.953 211.341 182.036 208.628 182.993C205.967 183.919 203.364 184.682 200.82 185.284C198.309 185.938 196.108 186.377 194.219 186.603C192.32 186.871 190.975 186.914 190.185 186.734C188.687 186.393 187.521 185.843 186.688 185.084C185.854 184.326 185.594 183.26 185.906 181.887C186.143 180.847 186.578 180.093 187.21 179.624C187.842 179.155 188.663 178.817 189.673 178.61C192.105 178.113 194.614 177.569 197.199 176.977C199.785 176.384 202.271 175.747 204.658 175.066C207.087 174.394 209.261 173.685 211.181 172.941C213.142 172.207 214.736 171.454 215.962 170.683C217.197 169.87 217.905 169.069 218.085 168.278C218.293 167.363 218.091 166.617 217.479 166.04C216.908 165.472 216.075 164.998 214.981 164.617C213.895 164.195 212.666 163.828 211.293 163.515C209.421 163.088 207.842 162.816 206.556 162.698C205.27 162.58 204.151 162.5 203.198 162.458C202.296 162.384 201.47 162.262 200.722 162.091C199.473 161.807 198.641 161.333 198.223 160.669C197.815 159.963 197.72 159.132 197.938 158.175C198.118 157.385 198.594 156.64 199.366 155.94C200.138 155.241 201.216 154.83 202.6 154.708C205.503 154.45 208.113 154.039 210.43 153.472C212.798 152.874 214.712 152.063 216.17 151.038C217.671 150.024 218.591 148.767 218.932 147.27C219.037 146.812 218.879 146.448 218.459 146.177C218.081 145.916 217.226 145.634 215.895 145.331C214.689 145.056 213.304 144.894 211.74 144.844C210.217 144.803 208.702 144.83 207.192 144.924C205.734 144.985 204.473 145.048 203.408 145.112C202.385 145.185 201.748 145.193 201.499 145.136C199.668 144.719 198.962 143.596 199.379 141.765C199.473 141.349 199.937 140.755 200.77 139.982C201.602 139.208 202.751 138.486 204.217 137.813C205.693 137.099 207.426 136.597 209.418 136.307C211.451 136.026 213.695 136.165 216.149 136.724C218.562 137.274 220.554 138.231 222.125 139.595C223.737 140.969 224.853 142.602 225.473 144.493C226.143 146.353 226.241 148.322 225.767 150.402C225.407 151.983 224.548 153.45 223.189 154.804C221.882 156.125 220.363 157.223 218.632 158.098C221.23 159.565 223.128 161.507 224.328 163.924C225.537 166.3 225.857 168.736 225.289 171.232Z" fill="#D84242"/>
</svg>
