<svg width="905" height="115" viewBox="0 0 905 115" fill="none" xmlns="http://www.w3.org/2000/svg">
<path d="M8.22131 99.1269C7.55044 99.1659 6.90316 99.0593 6.27947 98.8071C5.65578 98.5548 5.0802 98.0274 4.55272 97.2246C4.0271 96.4538 3.57503 95.2941 3.19652 93.7455C2.81615 92.1649 2.54982 90.0648 2.39753 87.4452C2.25453 84.9854 2.24581 82.6299 2.37138 80.3788C2.49509 78.0958 2.74547 76.0618 3.12252 74.2769C3.49771 72.4601 3.99102 71.021 4.60246 69.9598C5.21204 68.8666 5.93213 68.2958 6.76273 68.2475C7.49749 68.2048 8.12489 68.5209 8.64494 69.1959C9.16499 69.8708 9.46308 70.8632 9.53923 72.173C9.59866 73.1953 9.54887 74.5444 9.38988 76.2205C9.26283 77.8947 9.09528 79.6994 8.88725 81.6348C8.67737 83.5382 8.49664 85.3918 8.34507 87.1956C8.22359 88.9657 8.19907 90.4736 8.2715 91.7195C8.2845 91.9431 8.32944 92.1649 8.40633 92.3848C8.48137 92.5728 8.58278 92.663 8.71056 92.6556C8.90224 92.6445 9.19477 92.1627 9.58816 91.2102C9.98155 90.2578 10.4541 89.0123 11.0057 87.4737C11.5874 85.9013 12.2096 84.1983 12.8723 82.3647C13.567 80.5293 14.2954 78.724 15.0577 76.9488C15.85 75.1397 16.6535 73.5224 17.4682 72.0967C18.1662 70.8701 19.0237 69.9067 20.0408 69.2065C21.0578 68.5063 22.0136 68.1302 22.9081 68.0782C23.7068 68.0318 24.5015 68.1939 25.2924 68.5647C26.1152 68.9335 26.8063 69.5184 27.3657 70.3193C27.9251 71.1202 28.241 72.1436 28.3135 73.3895C28.3413 73.8687 28.3239 74.671 28.2611 75.7966C28.2284 76.8883 28.173 78.1416 28.095 79.5565C28.0151 80.9395 27.9362 82.3384 27.8582 83.7534C27.7783 85.1363 27.7061 86.3746 27.6414 87.4682C27.6087 88.5599 27.6054 89.3294 27.6314 89.7767C27.6351 89.8406 27.6397 89.9204 27.6453 90.0163C27.6657 90.3677 27.7021 90.7181 27.7545 91.0677C27.805 91.3853 27.9101 91.5395 28.0699 91.5302C28.4213 91.5097 28.8453 91.0844 29.342 90.2542C29.8687 89.3902 30.4436 88.2509 31.0665 86.8363C31.7214 85.42 32.399 83.842 33.0992 82.1024C33.7994 80.3628 34.5128 78.5744 35.2394 76.7371C35.9961 74.8661 36.7424 73.0918 37.4783 71.4142C38.0373 70.0034 38.5303 69.1093 38.9571 68.7319C39.3821 68.3225 39.8022 68.1058 40.2175 68.0816C40.7925 68.0482 41.4162 68.3004 42.0886 68.8383C42.7609 69.3762 43.1324 70.2521 43.2029 71.4661C43.2271 71.8814 43.2353 72.2976 43.2275 72.7148C43.2197 73.1319 43.1329 73.5697 42.9672 74.0281C41.877 77.3289 40.7248 80.393 39.5109 83.2202C38.327 86.0136 37.1227 88.4556 35.898 90.5462C34.6732 92.6368 33.4704 94.2774 32.2895 95.4679C31.1086 96.6585 29.9751 97.2853 28.8889 97.3484C26.6527 97.4784 24.8933 96.9877 23.6106 95.8763C22.358 94.7311 21.6723 93.1362 21.5534 91.0916C21.5089 90.3249 21.5001 89.3478 21.5273 88.1602C21.5525 86.9407 21.5882 85.6244 21.6343 84.2113C21.7104 82.7645 21.7875 81.3336 21.8655 79.9187C21.9435 78.5038 22.0281 77.2007 22.1191 76.0094C22.157 75.5584 22.0604 75.2755 21.8293 75.1608C21.6302 75.0441 21.4629 75.1981 21.3273 75.6227C20.9751 76.733 20.5966 77.941 20.1917 79.2467C19.7868 80.5524 19.4046 81.6965 19.045 82.679C18.467 84.3153 17.7836 86.0699 16.995 87.9429C16.2383 89.8139 15.3962 91.5938 14.4686 93.2825C13.5392 94.9392 12.5452 96.3112 11.4865 97.3985C10.4278 98.4858 9.33942 99.0619 8.22131 99.1269ZM51.1795 96.1488C49.1988 96.2639 47.5616 95.6699 46.2678 94.3668C44.9721 93.0318 44.2342 90.8149 44.0541 87.7161C43.9389 85.7354 44.0474 83.7418 44.3795 81.7351C44.7417 79.6947 45.2861 77.7558 46.0127 75.9185C46.7694 74.0475 47.6659 72.3766 48.7023 70.906C49.7707 69.4335 50.9685 68.258 52.2957 67.3795C53.6211 66.469 55.0186 65.9711 56.4881 65.8857C58.9799 65.7408 60.9676 66.2984 62.4512 67.5584C63.9349 68.8184 64.737 70.4867 64.8577 72.5632C64.9506 74.1605 64.5879 75.64 63.7695 77.0018C62.9812 78.3298 61.8661 79.5486 60.4241 80.6581C58.982 81.7677 57.3587 82.7916 55.5541 83.7299C53.7495 84.6683 51.8924 85.5295 49.9827 86.3136C49.8898 87.473 49.8694 88.4999 49.9214 89.3944C49.953 89.9375 50.2722 90.1914 50.8792 90.1561C52.3168 90.0725 53.8372 89.7598 55.4404 89.2178C57.0738 88.642 58.7157 87.9376 60.3661 87.1044C62.0147 86.2392 63.5984 85.3618 65.1173 84.4722C66.6344 83.5506 68.0105 82.6853 69.2456 81.8762C70.5108 81.0334 71.5458 80.3642 72.3504 79.8686C73.185 79.3393 73.7302 79.0672 73.9857 79.0524C74.6885 79.0115 75.2118 79.1894 75.5554 79.5862C75.899 79.9829 76.0847 80.4209 76.1126 80.9C76.1256 81.1237 75.7231 81.6439 74.9051 82.4608C74.1191 83.2757 73.0219 84.2531 71.6137 85.3927C70.2356 86.4986 68.6685 87.6635 66.9126 88.8874C65.1868 90.0776 63.3783 91.2245 61.4871 92.3281C59.6261 93.3979 57.8018 94.2733 56.0143 94.9542C54.2606 95.6651 52.649 96.0633 51.1795 96.1488ZM50.5494 82.0015C51.8146 81.1586 53.062 80.2848 54.2915 79.3799C55.5512 78.4412 56.5816 77.4197 57.3829 76.3153C58.1823 75.179 58.5402 73.8921 58.4566 72.4545C58.4325 72.0392 58.3049 71.7741 58.0739 71.6594C57.8409 71.5126 57.5168 71.4513 57.1015 71.4755C55.9834 71.5405 54.9899 72.0951 54.1211 73.1393C53.2842 74.1816 52.5598 75.5059 51.948 77.1121C51.3663 78.6845 50.9001 80.3143 50.5494 82.0015ZM72.6074 93.9895C71.7129 94.0415 70.8966 93.7845 70.1585 93.2184C69.4524 92.6504 69.0594 91.6796 68.9795 90.3059C68.9368 89.5711 68.9723 88.5273 69.086 87.1744C69.2316 85.8197 69.4346 84.3494 69.695 82.7636C69.9536 81.1459 70.245 79.5423 70.5693 77.9528C70.9255 76.3614 71.276 74.9467 71.6207 73.7086C71.9636 72.4386 72.2771 71.4908 72.5613 70.8652C72.9339 70.1063 73.2912 69.6368 73.6334 69.4566C74.0056 69.2427 74.3674 69.1255 74.7188 69.1051C75.3577 69.0679 75.9599 69.2252 76.5252 69.577C77.1225 69.9269 77.4593 70.7568 77.5354 72.0666C77.5651 72.5777 77.5176 73.4139 77.3928 74.5751C77.2661 75.7043 77.1026 77.0281 76.9024 78.5462C76.7022 80.0644 76.4728 81.6324 76.2142 83.2501C75.9876 84.866 75.7564 86.402 75.5205 87.8581C75.3147 89.2805 75.1438 90.4764 75.0079 91.4459C74.8946 92.2539 74.5935 92.8644 74.1046 93.2774C73.6496 93.7206 73.1505 93.958 72.6074 93.9895ZM76.4077 64.2468C75.3535 64.3081 74.3615 64.0613 73.4317 63.5063C72.5001 62.9194 71.9962 61.971 71.92 60.6612C71.8569 59.5751 72.0774 58.6808 72.5814 57.9783C73.0855 57.2759 73.6966 56.7596 74.4146 56.4293C75.1628 56.0653 75.8243 55.8666 76.3994 55.8331C76.9744 55.7997 77.6208 55.8904 78.3384 56.1051C79.0542 56.2878 79.6863 56.6838 80.2346 57.293C80.8129 57.8684 81.1355 58.7312 81.2024 59.8812C81.247 60.6479 81.0163 61.3665 80.5103 62.037C80.0026 62.6756 79.3595 63.1938 78.5813 63.5916C77.835 63.9876 77.1105 64.206 76.4077 64.2468ZM83.0983 94.774C82.2996 94.8204 81.5961 94.5728 80.9876 94.0312C80.4111 93.4878 80.0913 92.673 80.0281 91.5868C80.0003 91.1076 80.0187 90.3212 80.0833 89.2276C80.178 88.1002 80.2954 86.8113 80.4355 85.3607C80.6075 83.9082 80.7598 82.3929 80.8924 80.8145C81.057 79.2343 81.1783 77.7367 81.2563 76.3218C81.3662 74.905 81.4244 73.6996 81.4307 72.7056C81.424 71.4879 81.6933 70.6068 82.2386 70.0622C82.7821 69.4857 83.4532 69.1743 84.2518 69.1278C84.8907 69.0907 85.475 69.217 86.0048 69.5067C86.5646 69.7627 86.9362 70.3661 87.1197 71.3171C87.3333 72.2342 87.4273 73.575 87.4016 75.3395C88.6587 72.7021 89.9475 70.3353 91.2681 68.2391C92.6206 66.1411 94.0611 64.4547 95.5897 63.1798C98.1242 61.013 100.462 59.8675 102.602 59.743C103.816 59.6725 104.63 59.8976 105.045 60.4184C105.46 60.9392 105.684 61.4871 105.718 62.0621C105.74 62.4455 105.665 62.8024 105.492 63.133C105.351 63.4618 105.019 63.8177 104.496 64.2006C103.973 64.5836 103.17 65.0951 102.085 65.7351C100.628 66.5891 99.2011 67.6818 97.804 69.0131C96.4389 70.3426 95.0941 72.0235 93.7699 74.0557C92.4456 76.088 91.1313 78.5685 89.8271 81.4971C88.5228 84.4257 87.2023 87.9002 85.8653 91.9206C85.641 93.0235 85.2675 93.7664 84.7448 94.1494C84.2541 94.5305 83.7052 94.7387 83.0983 94.774ZM117.542 64.9327C119.056 60.6456 120.355 56.2428 121.438 51.7243C121.642 50.815 121.969 50.1068 122.421 49.5997C122.904 49.0908 123.593 48.8104 124.487 48.7584C125.222 48.7157 125.794 48.9068 126.203 49.3318C126.611 49.7248 126.836 50.2887 126.879 51.0234C126.914 51.6304 126.722 52.7314 126.301 54.3265C125.879 55.8896 125.37 57.8745 124.772 60.2813C124.175 62.688 123.599 65.4621 123.045 68.6036C122.49 71.745 122.065 75.1835 121.769 78.919C121.473 82.6544 121.448 86.6306 121.693 90.8475C121.76 91.9975 121.591 92.953 121.187 93.7137C120.816 94.5046 120.103 94.9306 119.049 94.9919C117.899 95.0588 117.029 94.7087 116.44 93.9416C115.882 93.1726 115.567 92.1652 115.495 90.9193C115.352 88.4595 115.313 86.4103 115.378 84.7718C115.473 83.0994 115.582 81.6667 115.705 80.4735C114.296 83.248 112.769 85.6607 111.125 87.7115C109.512 89.7286 107.936 91.2947 106.398 92.4098C104.862 93.5569 103.519 94.1638 102.369 94.2307C100.484 94.3403 98.9201 93.9023 97.6768 92.9168C96.4335 91.9313 95.7497 90.3683 95.6252 88.228C95.5287 86.5668 95.8286 84.8344 96.5251 83.031C97.2198 81.1956 98.1719 79.3772 99.3814 77.576C100.591 75.7748 101.935 74.0779 103.413 72.4855C104.921 70.8592 106.44 69.4246 107.971 68.1817C109.499 66.9068 110.931 65.894 112.266 65.1433C113.6 64.3926 114.699 63.9921 115.561 63.942C116.52 63.8863 117.18 64.2165 117.542 64.9327ZM116.59 67.5844C116.406 67.7233 116.206 67.8632 115.99 68.004C115.804 68.111 115.619 68.2339 115.434 68.3728C114.265 69.2101 113.025 70.2118 111.714 71.3778C110.402 72.5119 109.113 73.7728 107.847 75.1606C106.58 76.5164 105.428 77.9297 104.392 79.4003C103.385 80.8371 102.587 82.2619 101.996 83.6746C101.435 85.0534 101.191 86.3658 101.263 87.6117C101.276 87.8353 101.381 87.9895 101.578 88.0742C101.776 88.1589 101.954 88.1966 102.114 88.1873C103.232 88.1223 104.401 87.5575 105.621 86.4929C106.874 85.4264 108.119 83.9757 109.359 82.1406C110.629 80.2718 111.865 78.1004 113.067 75.6264C114.302 73.1506 115.476 70.47 116.59 67.5844ZM178.92 62.8551C178.942 63.2384 178.834 63.5813 178.595 63.8837C178.356 64.1861 178.05 64.4282 177.675 64.6103C177.145 64.8655 176.22 65.2078 174.898 65.6372C173.577 66.0666 171.971 66.5606 170.08 67.1193C168.221 67.6761 166.22 68.2573 164.075 68.8627C161.929 69.4363 159.782 69.9938 157.634 70.5354C156.981 73.6505 156.319 76.8624 155.645 80.171C154.97 83.4477 154.293 86.6765 153.612 89.8574C153.358 90.994 153.024 91.8629 152.61 92.4639C152.198 93.0969 151.449 93.445 150.363 93.5081C149.181 93.5768 148.36 93.2399 147.9 92.4973C147.474 91.7849 147.367 90.7814 147.58 89.4868C148.209 85.9564 148.787 82.6693 149.315 79.6255C149.875 76.5799 150.325 74.1176 150.665 72.2387C148.766 72.6696 147.104 73.0227 145.678 73.2979C144.249 73.5412 143.231 73.6646 142.622 73.6679C141.947 73.643 141.373 73.404 140.898 72.9508C140.422 72.4976 140.18 71.9187 140.172 71.214C140.198 70.5713 140.454 70.0115 140.939 69.5346C141.423 69.0257 142.013 68.7029 142.71 68.5662C143.695 68.4128 144.964 68.1947 146.519 67.9121C148.073 67.6294 149.785 67.3055 151.655 66.9403C151.975 65.2869 152.357 63.5819 152.8 61.8253C153.241 60.0366 153.702 58.327 154.185 56.6962C154.697 55.0317 155.189 53.5767 155.662 52.3312C156.134 51.0856 156.578 50.1783 156.994 49.6093C157.321 49.1735 157.734 48.829 158.232 48.5757C158.762 48.3205 159.283 48.178 159.794 48.1483C160.465 48.1093 161.022 48.3173 161.465 48.7724C161.908 49.2274 162.148 49.7744 162.185 50.4133C162.2 50.6689 162.2 50.9414 162.185 51.2307C162.168 51.4882 162.119 51.7474 162.038 52.0086C161.524 53.6412 160.981 55.612 160.41 57.921C159.871 60.2282 159.313 62.7608 158.736 65.519C161.112 65.0283 163.439 64.5404 165.719 64.0552C168.029 63.5363 170.117 63.0623 171.983 62.6333C173.879 62.1705 175.395 61.7778 176.53 61.4554C177.156 61.1946 177.702 61.211 178.168 61.5044C178.632 61.766 178.883 62.2162 178.92 62.8551ZM177.156 88.8252C175.176 88.9404 173.538 88.3464 172.244 87.0433C170.949 85.7082 170.211 83.4913 170.031 80.3925C169.916 78.4119 170.024 76.4182 170.356 74.4116C170.718 72.3711 171.263 70.4322 171.989 68.595C172.746 66.7239 173.643 65.0531 174.679 63.5824C175.747 62.11 176.945 60.9345 178.272 60.0559C179.598 59.1455 180.995 58.6475 182.465 58.5621C184.957 58.4173 186.944 58.9748 188.428 60.2349C189.912 61.4949 190.714 63.1631 190.834 65.2396C190.927 66.8369 190.565 68.3165 189.746 69.6783C188.958 71.0063 187.843 72.225 186.401 73.3346C184.959 74.4442 183.335 75.4681 181.531 76.4064C179.726 77.3447 177.869 78.2059 175.959 78.9901C175.866 80.1494 175.846 81.1764 175.898 82.0709C175.93 82.6139 176.249 82.8678 176.856 82.8325C178.293 82.749 179.814 82.4362 181.417 81.8942C183.05 81.3185 184.692 80.614 186.343 79.7808C187.991 78.9157 189.575 78.0383 191.094 77.1486C192.611 76.227 193.987 75.3617 195.222 74.5527C196.488 73.7098 197.522 73.0406 198.327 72.5451C199.162 72.0158 199.707 71.7437 199.962 71.7288C200.665 71.688 201.188 71.8659 201.532 72.2626C201.876 72.6593 202.061 73.0973 202.089 73.5765C202.102 73.8001 201.7 74.3204 200.882 75.1372C200.096 75.9522 198.999 76.9295 197.59 78.0692C196.212 79.175 194.645 80.3399 192.889 81.5639C191.163 82.7541 189.355 83.9009 187.464 85.0046C185.603 86.0744 183.778 86.9497 181.991 87.6306C180.237 88.3416 178.626 88.7398 177.156 88.8252ZM176.526 74.6779C177.791 73.8351 179.039 72.9612 180.268 72.0563C181.528 71.1177 182.558 70.0961 183.36 68.9918C184.159 67.8555 184.517 66.5685 184.433 65.1309C184.409 64.7156 184.282 64.4506 184.051 64.3358C183.818 64.1891 183.494 64.1278 183.078 64.1519C181.96 64.2169 180.967 64.7715 180.098 65.8157C179.261 66.858 178.536 68.1823 177.925 69.7885C177.343 71.3609 176.877 72.9907 176.526 74.6779ZM203.379 87.0123C201.59 87.1163 200.017 86.791 198.659 86.0366C197.302 85.3141 196.236 84.3343 195.459 83.0974C194.68 81.8284 194.25 80.5071 194.171 79.1334C194.037 76.8333 194.265 74.6885 194.854 72.6989C195.442 70.6774 196.264 68.8346 197.322 67.1704C198.377 65.4743 199.539 63.9643 200.809 62.6404C202.11 61.3146 203.375 60.1993 204.605 59.2944C205.864 58.3557 206.993 57.649 207.991 57.1743C208.988 56.6676 209.725 56.4004 210.205 56.3725C211.067 56.3224 211.685 56.4788 212.059 56.8417C212.463 57.1708 212.689 57.7507 212.737 58.5813C212.765 59.0605 212.447 59.6559 211.783 60.3676C211.151 61.0775 210.301 61.8962 209.233 62.8238C208.197 63.7494 207.104 64.7907 205.953 65.9474C204.802 67.1041 203.707 68.3859 202.667 69.7926C201.659 71.1975 200.85 72.719 200.24 74.3572C199.662 75.9935 199.427 77.754 199.537 79.6388C199.578 80.3417 199.737 80.8773 200.015 81.2458C200.325 81.6124 200.799 81.7772 201.438 81.7401C203.259 81.6342 205.189 81.2014 207.228 80.4418C209.298 79.6484 211.342 78.6961 213.361 77.5851C215.41 76.4402 217.329 75.2709 219.119 74.077C220.941 72.8813 222.497 71.8131 223.789 70.8726C224.31 70.4576 224.755 70.1272 225.126 69.8813C225.496 69.6354 225.761 69.5078 225.921 69.4985C226.879 69.4428 227.387 69.9101 227.445 70.9004C227.475 71.4116 227.131 72.1207 226.415 73.0278C225.585 74.1979 224.438 75.4186 222.973 76.6897C221.54 77.959 219.929 79.1906 218.14 80.3845C216.382 81.5765 214.57 82.6595 212.703 83.6335C210.868 84.6056 209.135 85.3955 207.504 86.0032C205.872 86.6109 204.497 86.9473 203.379 87.0123ZM223.332 88.2564C221.863 88.3418 220.784 87.9878 220.097 87.1943C219.41 86.4009 219.02 85.2055 218.927 83.6082C218.842 82.1387 219.002 80.2061 219.408 77.8105C219.843 75.3812 220.439 72.67 221.194 69.6771C221.98 66.6504 222.873 63.5374 223.873 60.3379C224.871 57.1066 225.921 53.9363 227.022 50.8271C228.122 47.686 229.204 44.8023 230.27 42.1761C230.78 41.0245 231.342 40.2225 231.957 39.7701C232.572 39.3177 233.262 39.0692 234.029 39.0246C234.764 38.9819 235.399 39.1533 235.934 39.5389C236.468 39.8925 236.759 40.5006 236.81 41.3632C236.821 41.5548 236.608 42.3045 236.171 43.612C235.732 44.8876 235.156 46.5559 234.443 48.6168C233.727 50.6457 232.947 52.9349 232.101 55.4842C231.254 58.0016 230.413 60.6309 229.579 63.3719C228.743 66.081 228 68.7526 227.352 71.3866C226.704 74.0207 226.204 76.4538 225.853 78.6859C226.884 77.1195 227.985 75.3886 229.157 73.4934C230.359 71.5644 231.578 69.6504 232.814 67.7515C234.08 65.8188 235.324 64.0476 236.544 62.4381C237.797 60.8267 238.971 59.5243 240.067 58.531C241.164 57.5377 242.143 57.016 243.006 56.9659C244.603 56.873 245.907 57.246 246.917 58.0847C247.958 58.8897 248.54 60.3624 248.664 62.5028C248.722 63.4931 248.6 64.7022 248.298 66.1301C247.995 67.5261 247.616 69.0066 247.162 70.5716C246.738 72.1028 246.376 73.5823 246.074 75.0102C245.772 76.4381 245.652 77.6792 245.713 78.7334C245.747 79.3084 246.035 79.5802 246.578 79.5486C248.144 79.4576 249.705 79.0302 251.264 78.2665C252.854 77.5009 254.355 76.5803 255.767 75.5045C257.209 74.3949 258.508 73.3097 259.665 72.2488C260.851 71.1541 261.808 70.249 262.536 69.5336C263.049 68.9909 263.525 68.6267 263.963 68.4409C264.399 68.2233 264.809 68.1033 265.192 68.081C266.502 68.0048 267.195 68.6217 267.271 69.9315C267.286 70.187 267.256 70.5093 267.183 70.8982C267.107 71.2552 266.83 71.7201 266.35 72.2929C265.871 72.8657 265.149 73.6769 264.184 74.7267C263.219 75.7765 262.083 76.9003 260.774 78.0983C259.497 79.2944 258.09 80.45 256.552 81.5652C255.044 82.6465 253.478 83.5549 251.854 84.2904C250.23 85.0259 248.636 85.4391 247.07 85.5301C244.706 85.6676 242.846 85.1025 241.49 83.8351C240.136 82.5996 239.393 80.8478 239.262 78.5796C239.171 77.0142 239.376 75.031 239.877 72.6298C240.377 70.1967 240.954 67.7111 241.607 65.1728C240.553 66.324 239.462 67.6856 238.335 69.2577C237.207 70.7977 236.068 72.4346 234.918 74.1682C233.767 75.8699 232.631 77.5547 231.51 79.2226C230.419 80.8566 229.368 82.3601 228.358 83.7331C227.346 85.074 226.416 86.1539 225.566 86.9726C224.716 87.7913 223.971 88.2192 223.332 88.2564ZM285.662 94.1048C283.873 94.2088 282.238 94.1917 280.755 94.0535C279.274 93.9473 277.818 93.7114 276.387 93.3459C274.955 92.9804 273.403 92.4776 271.731 91.8375C271.042 91.5571 270.463 91.2541 269.996 90.9287C269.528 90.6033 269.274 90.0892 269.233 89.3864C269.173 88.3641 269.447 87.5629 270.055 86.9826C270.632 86.4362 271.464 86.1314 272.55 86.0683C273.125 86.0349 273.871 86.1838 274.788 86.5152C275.706 86.8785 276.755 87.2823 277.935 87.7265C279.149 88.2009 280.485 88.588 281.945 88.8878C283.407 89.2195 284.968 89.3371 286.63 89.2405C288.323 89.1421 289.863 88.3473 291.251 86.8563C292.639 85.3652 293.706 83.3158 294.452 80.7082C295.231 78.1306 295.521 75.1167 295.32 71.6665C295.274 70.8678 295.208 70.0062 295.122 69.0817C295.034 68.1251 294.944 67.1207 294.851 66.0683C293.827 68.3075 292.699 70.4085 291.467 72.3713C290.235 74.3342 288.934 75.9484 287.565 77.2139C286.227 78.4457 284.838 79.1034 283.401 79.1869C281.644 79.2891 280.342 78.9481 279.495 78.1639C278.678 77.3459 278.216 76.0105 278.108 74.1576C278.017 72.5923 278.029 70.8767 278.145 69.0108C278.291 67.1111 278.516 65.1908 278.82 63.2499C279.124 61.309 279.497 59.4602 279.94 57.7036C280.413 55.9131 280.932 54.3604 281.496 53.0454C281.922 52.0911 282.63 51.5852 283.62 51.5276C284.259 51.4905 284.915 51.7568 285.59 52.3266C286.296 52.8946 286.679 53.6897 286.738 54.712C286.771 55.287 286.676 56.126 286.452 57.2289C286.227 58.3318 285.947 59.5821 285.612 60.9799C285.306 62.344 284.99 63.7888 284.662 65.3144C284.332 66.808 284.065 68.282 283.861 69.7363C283.655 71.1586 283.586 72.4448 283.653 73.5949C283.66 73.7227 283.76 73.781 283.951 73.7699C284.335 73.7476 284.827 73.3984 285.429 72.7223C286.061 72.0125 286.746 71.1072 287.483 70.0066C288.25 68.8721 289.012 67.6418 289.769 66.3157C290.555 64.9558 291.31 63.6137 292.035 62.2894C292.759 60.9651 293.41 59.7573 293.988 58.6659C293.862 58.1604 293.772 57.7168 293.718 57.3353C293.694 56.92 293.673 56.5686 293.657 56.2811C293.581 54.9713 293.741 53.8722 294.138 52.9836C294.567 52.0932 295.469 51.6081 296.842 51.5282C297.737 51.4762 298.443 51.7717 298.961 52.4147C299.478 53.0258 299.77 53.9223 299.839 55.1044C299.869 55.6155 299.823 56.2111 299.702 56.8913C299.58 57.5395 299.32 58.5803 298.922 60.0138L299.363 58.4977C299.818 61.3561 300.206 63.8979 300.527 66.123C300.881 68.3462 301.122 70.5599 301.25 72.7642C301.492 76.9172 300.998 80.552 299.768 83.6686C298.573 86.8153 296.762 89.2926 294.335 91.1005C291.939 92.9065 289.049 93.908 285.662 94.1048ZM309.291 81.336C308.269 81.3954 307.326 81.1618 306.462 80.635C305.6 80.1402 304.903 79.4595 304.372 78.5929C303.839 77.6943 303.541 76.7179 303.48 75.6637C303.365 73.683 303.684 71.7252 304.437 69.7903C305.222 67.8534 306.284 65.9967 307.623 64.22C308.962 62.4432 310.437 60.8029 312.049 59.2988C313.69 57.7609 315.328 56.4317 316.962 55.311C318.627 54.1884 320.146 53.2987 321.518 52.642C322.923 51.9834 324.024 51.6309 324.823 51.5845C325.749 51.5306 326.512 51.6946 327.111 52.0765C327.74 52.4245 328.079 53.0139 328.127 53.8445C328.142 54.1 328.09 54.3114 327.972 54.4786C328.393 54.5503 328.742 54.7704 329.02 55.1388C329.298 55.5073 329.459 56.0749 329.504 56.8416C329.522 57.1611 329.491 57.9963 329.409 59.3474C329.327 60.6984 329.246 62.3379 329.166 64.2658C329.118 66.1918 329.154 68.1931 329.275 70.2696C329.293 70.589 329.358 70.8738 329.468 71.1238C329.577 71.3418 329.791 71.4416 330.111 71.423C331.389 71.3487 332.668 71.0179 333.948 70.4306C335.258 69.8095 336.514 69.0794 337.715 68.2403C338.946 67.3674 340.051 66.5178 341.029 65.6917C342.036 64.8318 342.877 64.1258 343.55 63.5738C344.253 62.988 344.717 62.6886 344.94 62.6756C346.026 62.6125 346.601 63.124 346.664 64.2101C346.681 64.4977 346.365 65.1251 345.716 66.0923C345.097 67.0258 344.231 68.1179 343.118 69.3687C342.002 70.5874 340.744 71.8146 339.341 73.0501C337.968 74.2517 336.521 75.2655 334.998 76.0912C333.507 76.9151 332.043 77.3689 330.606 77.4524C328.849 77.5546 327.483 77.2173 326.508 76.4405C325.565 75.6619 324.861 74.581 324.396 73.1976C323.961 71.7805 323.676 70.1784 323.54 68.3912C322.046 70.818 320.474 72.9929 318.823 74.916C317.202 76.8053 315.575 78.3262 313.943 79.4789C312.311 80.6315 310.761 81.2506 309.291 81.336ZM324.859 56.3424C321.815 58.0258 319.104 59.9144 316.726 62.0079C314.346 64.0695 312.482 66.1973 311.135 68.3912C309.82 70.5832 309.219 72.6535 309.332 74.6022C309.364 75.1453 309.635 75.402 310.146 75.3723C310.753 75.337 311.532 74.9392 312.481 74.1788C313.463 73.4165 314.511 72.426 315.626 71.2073C316.739 69.9565 317.845 68.578 318.944 67.0718C320.04 65.5335 321.055 63.968 321.988 62.3751C322.921 60.7823 323.65 59.2654 324.176 57.8245C324.37 57.3004 324.597 56.8063 324.859 56.3424ZM341.072 93.0954C340.177 93.1474 339.456 92.8688 338.907 92.2596C338.393 91.6805 338.099 90.752 338.024 89.4742C337.922 87.7171 337.96 85.6154 338.138 83.1689C338.317 80.7224 338.599 78.1257 338.984 75.3787C339.369 72.6317 339.805 69.9299 340.292 67.2731C340.884 64.2256 341.476 61.4506 342.067 58.948C342.691 56.4436 343.344 54.4344 344.025 52.9203C344.736 51.3724 345.491 50.5752 346.29 50.5288C347.025 50.4861 347.679 50.7205 348.254 51.232C348.859 51.7097 349.191 52.4597 349.25 53.482C349.293 54.2167 349.163 55.2821 348.859 56.6781C348.554 58.0421 348.172 59.7471 347.714 61.7931C348.696 59.941 349.712 58.119 350.762 56.327C351.844 54.5332 352.951 52.8982 354.083 51.422C355.215 49.9458 356.332 48.759 357.434 47.8615C358.536 46.9641 359.598 46.4856 360.62 46.4262C361.834 46.3556 362.925 46.6448 363.892 47.2938C364.891 47.9409 365.698 48.8556 366.311 50.038C366.925 51.2204 367.276 52.5783 367.365 54.1117C367.531 56.9549 367.18 59.7479 366.314 62.4908C365.446 65.2018 364.163 67.6644 362.464 69.8787C360.798 72.0912 358.803 73.89 356.479 75.2752C354.154 76.6284 351.602 77.3858 348.822 77.5474C348.024 77.5938 347.284 77.5566 346.604 77.4359C345.958 77.3453 345.357 77.2199 344.803 77.0598C344.539 79.1266 344.293 81.2405 344.066 83.4013C343.873 85.5922 343.67 87.8958 343.458 90.3122C343.177 92.0915 342.381 93.0193 341.072 93.0954ZM361.428 52.0528C360.725 52.0937 359.858 52.6249 358.828 53.6464C357.829 54.6661 356.753 55.9948 355.598 57.6326C354.441 59.2384 353.277 60.9889 352.105 62.8842C350.963 64.7456 349.867 66.5722 348.817 68.3642C347.799 70.1543 346.928 71.7114 346.204 73.0357C348.617 72.639 350.72 71.8757 352.514 70.7457C354.305 69.5837 355.812 68.214 357.035 66.6364C358.257 65.0587 359.22 63.4161 359.922 61.7085C360.654 59.9671 361.165 58.2866 361.456 56.667C361.746 55.0474 361.857 53.6466 361.788 52.4646C361.772 52.1771 361.652 52.0398 361.428 52.0528ZM365.994 92.3197C363.163 93.2535 361.697 92.8419 361.595 91.0849C361.541 90.1585 362.04 89.3602 363.09 88.6901C364.63 87.6069 365.84 86.0781 366.718 84.1038C367.565 82.1313 368.19 79.9153 368.592 77.4559C369.026 74.9945 369.33 72.5087 369.504 69.9983C369.605 68.9668 369.869 68.2783 370.298 67.9328C370.725 67.5554 371.194 67.3518 371.705 67.3221C372.695 67.2645 373.645 67.61 374.554 68.3585C375.461 69.0751 375.967 70.3279 376.071 72.1168C376.212 74.5447 375.979 76.8822 375.372 79.1292C374.798 81.3743 373.986 83.4088 372.938 85.2327C371.924 87.0867 370.796 88.6268 369.553 89.853C368.31 91.0792 367.124 91.9014 365.994 92.3197ZM403.463 79.4194C402.664 79.4658 401.963 79.2662 401.36 78.8204C400.759 78.4066 400.45 77.495 400.432 76.0857C400.405 74.5166 400.422 72.8809 400.483 71.1784C400.545 69.476 400.628 67.8845 400.735 66.4038C400.962 63.1531 400.913 60.6557 400.587 58.9117C400.292 57.1339 399.722 55.8848 398.879 55.1645C398.068 54.4424 397 53.9916 395.675 53.8122C395.029 53.7216 394.504 53.5117 394.1 53.1826C393.694 52.8215 393.474 52.3375 393.439 51.7305C393.392 50.9318 393.681 50.3862 394.305 50.0934C394.897 49.8026 395.672 49.6293 396.631 49.5736C397.366 49.5309 398.311 49.524 399.466 49.553C400.652 49.5482 401.917 49.5227 403.26 49.4767C404.165 45.7379 405.25 42.6296 406.517 40.152C407.783 37.6743 409.207 35.7003 410.788 34.2301C412.368 32.7279 414.068 31.6514 415.889 31.0006C417.709 30.3178 419.609 29.9189 421.59 29.8038C424.049 29.6608 425.33 30.4678 425.433 32.2248C425.483 33.0874 425.105 33.7664 424.301 34.2619C423.496 34.7575 422.256 35.1982 420.579 35.5841C418.587 36.0525 416.852 36.8105 415.375 37.858C413.929 38.9037 412.682 40.3385 411.634 42.1624C410.618 43.9844 409.76 46.3101 409.059 49.1396C413.494 48.7856 417.121 48.3343 419.942 47.7857C422.763 47.237 424.93 46.7424 426.443 46.3019C427.986 45.8275 429.061 45.5727 429.668 45.5374C430.531 45.4873 431.07 45.6643 431.286 46.0684C431.534 46.4707 431.671 46.9115 431.699 47.3907C431.731 47.9338 431.252 48.5225 430.263 49.157C429.615 49.5793 428.57 50.0728 427.128 50.6374C425.684 51.1701 423.985 51.7177 422.031 52.28C420.074 52.8105 418.002 53.2835 415.815 53.6992C413.657 54.081 411.54 54.3323 409.464 54.4531C408.953 54.4828 408.489 54.5097 408.074 54.5338C407.83 56.4071 407.593 58.3922 407.362 60.4892C407.162 62.5523 406.99 64.5656 406.848 66.5292C406.706 68.4928 406.585 70.2788 406.486 71.8872C406.42 73.4938 406.398 74.7772 406.422 75.7375C406.459 76.9213 406.206 77.8175 405.665 78.4259C405.123 79.0344 404.389 79.3656 403.463 79.4194ZM422.741 71.6315C421.846 71.6835 421.03 71.4264 420.292 70.8603C419.586 70.2923 419.193 69.3215 419.113 67.9478C419.07 67.213 419.106 66.1692 419.219 64.8163C419.365 63.4616 419.568 61.9914 419.828 60.4056C420.087 58.7878 420.378 57.1842 420.702 55.5947C421.059 54.0034 421.409 52.5886 421.754 51.3505C422.097 50.0805 422.41 49.1327 422.695 48.5072C423.067 47.7483 423.424 47.2787 423.767 47.0986C424.139 46.8846 424.501 46.7674 424.852 46.747C425.491 46.7098 426.093 46.8672 426.658 47.2189C427.256 47.5689 427.592 48.3987 427.669 49.7085C427.698 50.2196 427.651 51.0558 427.526 52.217C427.399 53.3463 427.236 54.67 427.036 56.1882C426.835 57.7063 426.606 59.2743 426.347 60.892C426.121 62.5079 425.89 64.0439 425.654 65.5001C425.448 66.9224 425.277 68.1183 425.141 69.0879C425.028 69.8958 424.727 70.5063 424.238 70.9194C423.783 71.3625 423.284 71.5999 422.741 71.6315ZM426.541 41.8888C425.487 41.9501 424.495 41.7032 423.565 41.1482C422.633 40.5613 422.129 39.613 422.053 38.3032C421.99 37.217 422.211 36.3227 422.715 35.6203C423.219 34.9178 423.83 34.4015 424.548 34.0713C425.296 33.7072 425.958 33.5085 426.533 33.4751C427.108 33.4416 427.754 33.5323 428.472 33.747C429.187 33.9298 429.819 34.3257 430.368 34.935C430.946 35.5104 431.269 36.3731 431.336 37.5232C431.38 38.2899 431.149 39.0085 430.644 39.6789C430.136 40.3175 429.493 40.8357 428.715 41.2335C427.968 41.6295 427.244 41.8479 426.541 41.8888ZM435.914 72.1478C435.147 72.1924 434.366 71.9814 433.569 71.5148C432.803 71.0144 432.151 70.283 431.615 69.3205C431.076 68.3261 430.765 67.1101 430.681 65.6726C430.57 63.7558 430.707 61.6964 431.092 59.4943C431.508 57.2904 432.037 55.08 432.677 52.8631C433.318 50.6462 433.95 48.558 434.573 46.5986C434.871 45.6517 435.266 45.0037 435.758 44.6545C436.249 44.2734 436.91 44.0587 437.74 44.0104C439.625 43.9008 440.622 44.7884 440.732 46.6733C440.75 46.9927 440.643 47.624 440.409 48.5672C440.174 49.4784 439.854 50.6028 439.451 51.9405C439.08 53.2762 438.684 54.7257 438.262 56.2888C437.87 57.8181 437.512 59.3776 437.187 60.9671C436.893 62.5228 436.674 63.9939 436.53 65.3806C437.2 64.2198 437.934 62.7828 438.732 61.0696C439.56 59.3226 440.431 57.4929 441.346 55.5806C442.292 53.6665 443.246 51.8801 444.208 50.2215C445.167 48.531 446.128 47.1449 447.091 46.0632C448.054 44.9815 448.999 44.4137 449.925 44.3598C450.724 44.3134 451.484 44.4295 452.205 44.7081C452.956 44.9529 453.629 45.4908 454.222 46.3217C454.813 47.1208 455.298 48.2946 455.677 49.8432C456.087 51.39 456.367 53.4413 456.515 55.9969C456.59 57.2748 456.774 58.5142 457.068 59.7151C457.392 60.8823 457.865 61.8485 458.487 62.6137C459.106 63.347 459.943 63.683 460.998 63.6217C462.818 63.5158 464.428 63.0857 465.827 62.3312C467.225 61.5768 468.442 60.7208 469.476 59.7631C470.51 58.8055 471.375 57.9699 472.071 57.2563C472.492 56.7831 472.855 56.4094 473.16 56.1352C473.496 55.8592 473.776 55.7147 474 55.7017C474.671 55.6627 475.16 55.8106 475.468 56.1453C475.808 56.4781 475.995 56.948 476.031 57.555C476.049 57.8744 475.812 58.4812 475.319 59.3753C474.826 60.2695 474.117 61.3044 473.192 62.48C472.297 63.6219 471.256 64.7402 470.069 65.8349C468.883 66.9296 467.59 67.8542 466.192 68.6086C464.793 69.3631 463.343 69.7839 461.842 69.8712C459.318 70.0179 457.199 69.6923 455.486 68.8944C453.803 68.0627 452.5 66.5999 451.577 64.5059C450.652 62.38 450.081 59.4482 449.864 55.7105C449.858 55.6147 449.849 55.4549 449.836 55.2313C449.778 54.241 449.711 53.3634 449.635 52.5986C449.59 51.8319 449.506 51.2117 449.382 50.7381C448.897 51.76 448.311 52.98 447.624 54.3983C446.969 55.8147 446.256 57.3306 445.484 58.9461C444.711 60.5297 443.904 62.0991 443.065 63.6545C442.224 65.1778 441.376 66.5734 440.52 67.8412C439.696 69.1072 438.89 70.1317 438.102 70.9147C437.314 71.6978 436.585 72.1088 435.914 72.1478ZM486.37 43.4913C487.883 39.2042 489.182 34.8014 490.266 30.2829C490.469 29.3735 490.797 28.6653 491.248 28.1583C491.731 27.6494 492.42 27.3689 493.315 27.3169C494.049 27.2742 494.621 27.4653 495.031 27.8903C495.438 28.2833 495.663 28.8472 495.706 29.582C495.741 30.1889 495.549 31.29 495.129 32.885C494.707 34.4482 494.197 36.4331 493.6 38.8398C493.002 41.2465 492.426 44.0206 491.872 47.1621C491.317 50.3036 490.892 53.7421 490.596 57.4775C490.301 61.213 490.275 65.1891 490.52 69.406C490.587 70.5561 490.419 71.5115 490.014 72.2723C489.643 73.0631 488.931 73.4892 487.877 73.5505C486.727 73.6173 485.857 73.2672 485.267 72.5001C484.71 71.7312 484.395 70.7238 484.322 69.4779C484.179 67.018 484.14 64.9688 484.205 63.3303C484.3 61.658 484.409 60.2252 484.532 59.0321C483.123 61.8065 481.596 64.2192 479.953 66.2701C478.339 68.2871 476.763 69.8532 475.225 70.9683C473.689 72.1154 472.346 72.7224 471.196 72.7892C469.311 72.8988 467.747 72.4608 466.504 71.4753C465.261 70.4898 464.577 68.9269 464.453 66.7865C464.356 65.1253 464.656 63.393 465.352 61.5895C466.047 59.7541 466.999 57.9358 468.209 56.1346C469.418 54.3333 470.762 52.6365 472.24 51.044C473.748 49.4177 475.267 47.9831 476.798 46.7402C478.327 45.4654 479.758 44.4526 481.093 43.7018C482.428 42.9511 483.526 42.5507 484.389 42.5005C485.347 42.4448 486.007 42.7751 486.37 43.4913ZM485.418 46.143C485.234 46.2819 485.033 46.4217 484.817 46.5625C484.631 46.6695 484.446 46.7925 484.262 46.9314C483.092 47.7687 481.852 48.7703 480.542 49.9363C479.229 51.0704 477.94 52.3314 476.675 53.7191C475.407 55.075 474.255 56.4882 473.219 57.9588C472.213 59.3957 471.414 60.8204 470.823 62.2331C470.262 63.612 470.018 64.9244 470.09 66.1703C470.103 66.3939 470.208 66.548 470.406 66.6327C470.603 66.7174 470.781 66.7551 470.941 66.7459C472.059 66.6809 473.228 66.116 474.449 65.0514C475.701 63.985 476.947 62.5342 478.186 60.6992C479.456 58.8303 480.692 56.6589 481.895 54.185C483.129 51.7092 484.303 49.0285 485.418 46.143ZM523.415 68.6477C521.146 68.7796 519.279 68.0868 517.812 66.5693C516.344 65.0199 515.531 62.8875 515.373 60.1721C515.323 59.3096 515.384 58.4246 515.555 57.5171C515.759 56.6077 516.014 55.7595 516.321 54.9723C516.113 54.696 515.931 54.3379 515.778 53.8981C515.654 53.4244 515.574 52.8682 515.536 52.2292C515.416 50.1528 515.673 48.2306 516.307 46.4628C516.94 44.6631 517.842 43.088 519.013 41.7378C520.185 40.3875 521.501 39.3173 522.962 38.5272C524.422 37.7371 525.919 37.2975 527.453 37.2084C530.072 37.0561 532.264 37.8102 534.027 39.4706C535.822 41.1292 536.828 43.8114 537.043 47.5171C537.151 49.37 536.973 51.2715 536.509 53.2217C536.046 55.1719 535.37 57.0543 534.482 58.8689C533.624 60.6497 532.596 62.2641 531.398 63.7121C530.232 65.1582 528.953 66.3224 527.562 67.2046C526.203 68.085 524.82 68.566 523.415 68.6477ZM521.706 52.4956C521.886 52.8377 521.99 53.2484 522.018 53.7276C522.046 54.2068 521.979 54.7075 521.817 55.2298C521.655 55.7521 521.503 56.4501 521.362 57.3237C521.218 58.1655 521.192 59.369 521.283 60.9344C521.307 61.3497 521.376 61.6983 521.488 61.9803C521.631 62.2284 521.91 62.3404 522.325 62.3163C523.411 62.2531 524.413 61.8423 525.331 61.0837C526.28 60.3234 527.105 59.3459 527.805 58.1512C528.537 56.9547 529.133 55.6379 529.595 54.2007C530.086 52.7297 530.433 51.2511 530.635 49.7648C530.867 48.2448 530.946 46.8459 530.872 45.568C530.823 44.7374 530.63 44.1717 530.292 43.8708C529.954 43.5699 529.386 43.4427 528.587 43.4891C527.501 43.5522 526.403 43.9687 525.294 44.7383C524.215 45.4742 523.326 46.4554 522.628 47.682C521.929 48.8766 521.621 50.2087 521.707 51.6782C521.724 51.9657 521.723 52.2382 521.706 52.4956ZM557.975 67.2155C557.24 67.2583 556.552 66.9938 555.909 66.4221C555.301 65.8805 554.957 64.9228 554.877 63.5492C554.817 62.5269 554.815 61.1006 554.869 59.2704C554.952 57.4064 555.166 55.006 555.508 52.0692C554.523 54.4343 553.476 56.5467 552.366 58.4062C551.256 60.2658 550.14 61.741 549.017 62.832C547.925 63.8892 546.852 64.4484 545.797 64.5097C544.104 64.6082 542.733 64.175 541.683 63.2103C540.631 62.2137 540.022 60.2778 539.855 57.4026C539.775 56.0289 539.797 54.4731 539.92 52.735C540.075 50.995 540.294 49.2514 540.578 47.504C540.861 45.7566 541.155 44.2009 541.46 42.8369C541.796 41.4391 542.104 40.3954 542.384 39.706C542.606 39.1161 542.9 38.6503 543.264 38.3086C543.661 37.965 544.179 37.7746 544.818 37.7374C545.84 37.678 546.642 37.9679 547.224 38.6072C547.806 39.2465 548.118 39.9176 548.159 40.6204C548.19 41.1635 548.108 41.9536 547.912 42.9907C547.748 44.026 547.526 45.1768 547.247 46.4431C547 47.7076 546.739 49.0049 546.464 50.3351C546.189 51.6654 545.957 52.9129 545.768 54.0778C545.611 55.2409 545.556 56.2218 545.602 57.0204C545.66 58.0107 546.072 58.4836 546.839 58.439C547.286 58.413 547.836 57.9483 548.489 57.0449C549.173 56.1397 549.873 54.9451 550.588 53.4611C551.333 51.9433 552.071 50.2977 552.801 48.5243C553.562 46.7171 554.241 44.8986 554.84 43.0688C555.469 41.2051 555.995 39.4917 556.417 37.9286C556.68 36.9517 557.073 36.2557 557.593 35.8408C558.114 35.4259 558.726 35.198 559.429 35.1571C560.515 35.094 561.363 35.3492 561.973 35.9227C562.616 36.4944 562.969 37.3393 563.034 38.4574C563.064 38.9686 563.034 39.8358 562.945 41.059C562.856 42.2822 562.731 43.7159 562.57 45.36C562.441 47.0023 562.27 48.7431 562.056 50.5826C561.843 52.4221 561.627 54.2297 561.41 56.0053C561.225 57.779 561.031 59.409 560.829 60.8953C560.625 62.3495 560.452 63.5135 560.311 64.3872C560.065 65.6836 559.727 66.4726 559.294 66.7542C558.862 67.0358 558.422 67.1895 557.975 67.2155ZM600.05 38.3731C600.072 38.7564 599.964 39.0993 599.725 39.4016C599.486 39.704 599.18 39.9462 598.806 40.1282C598.276 40.3834 597.35 40.7257 596.029 41.1551C594.707 41.5845 593.101 42.0786 591.211 42.6372C589.352 43.1941 587.35 43.7752 585.206 44.3807C583.059 44.9542 580.912 45.5118 578.764 46.0534C578.111 49.1685 577.449 52.3803 576.776 55.689C576.101 58.9657 575.423 62.1945 574.742 65.3753C574.488 66.512 574.154 67.3809 573.74 67.9819C573.328 68.6149 572.579 68.9629 571.493 69.0261C570.311 69.0948 569.49 68.7579 569.03 68.0153C568.604 67.3028 568.497 66.2993 568.711 65.0048C569.339 61.4743 569.917 58.1872 570.445 55.1435C571.005 52.0978 571.455 49.6356 571.795 47.7567C569.897 48.1876 568.234 48.5406 566.808 48.8159C565.38 49.0592 564.361 49.1825 563.752 49.1859C563.078 49.161 562.503 48.9219 562.028 48.4687C561.553 48.0155 561.311 47.4366 561.302 46.7319C561.328 46.0893 561.584 45.5295 562.07 45.0525C562.553 44.5436 563.143 44.2208 563.84 44.0841C564.825 43.9307 566.095 43.7127 567.649 43.43C569.203 43.1473 570.915 42.8234 572.785 42.4583C573.106 40.8049 573.487 39.0999 573.93 37.3432C574.371 35.5546 574.833 33.8449 575.315 32.2142C575.827 30.5497 576.319 29.0946 576.792 27.8491C577.264 26.6036 577.709 25.6963 578.124 25.1272C578.451 24.6915 578.864 24.3469 579.362 24.0936C579.892 23.8384 580.413 23.696 580.924 23.6662C581.595 23.6272 582.152 23.8353 582.595 24.2903C583.038 24.7454 583.278 25.2924 583.316 25.9313C583.33 26.1868 583.33 26.4593 583.315 26.7487C583.298 27.0061 583.249 27.2654 583.168 27.5265C582.654 29.1591 582.111 31.1299 581.54 33.439C581.001 35.7461 580.443 38.2788 579.867 41.0369C582.242 40.5462 584.57 40.0583 586.849 39.5732C589.159 39.0543 591.247 38.5803 593.113 38.1513C595.01 37.6884 596.525 37.2958 597.661 36.9734C598.287 36.7126 598.832 36.7289 599.298 37.0224C599.762 37.2839 600.013 37.7341 600.05 38.3731ZM653.006 58.4215C652.915 60.1577 651.943 61.0797 650.09 61.1874C649.131 61.2431 648.348 61.0002 647.74 60.4586C647.163 59.9151 646.843 59.1003 646.78 58.0141C646.672 56.1613 646.637 54.176 646.674 52.0582C646.741 49.9067 646.84 47.7373 646.969 45.5501C647.13 43.3611 647.281 41.2688 647.422 39.2733C646.368 41.0014 645.253 42.781 644.078 44.6124C642.902 46.4437 641.724 48.2271 640.542 49.9626C639.361 51.6981 638.218 53.271 637.114 54.6815C636.04 56.0581 635.048 57.1736 634.136 58.028C633.222 58.8504 632.445 59.2802 631.806 59.3173C630.273 59.4065 628.915 58.9245 627.732 57.8714C626.547 56.7863 625.903 55.3653 625.801 53.6082C625.766 53.0013 625.782 52.1829 625.851 51.1532C625.917 50.0916 626.012 48.9642 626.135 47.771C626.258 46.5779 626.352 45.4505 626.419 44.3888C626.485 43.3272 626.501 42.4929 626.466 41.8859C626.466 41.8859 626.464 41.854 626.46 41.7901C626.483 41.6285 626.446 41.5505 626.35 41.556C626.223 41.5635 625.896 42.0152 625.371 42.9111C624.845 43.7752 624.205 44.9022 623.452 46.2922C622.7 47.6822 621.903 49.1389 621.062 50.6623C620.253 52.1838 619.486 53.6067 618.762 54.931C618.069 56.2534 617.488 57.2809 617.018 58.0134C616.378 59.1404 615.763 59.8653 615.173 60.1881C614.583 60.5109 613.888 60.6956 613.09 60.742C611.971 60.807 611.072 60.4907 610.39 59.7931C609.738 59.0616 609.373 58.0091 609.293 56.6354C609.259 56.0604 609.303 55.1603 609.424 53.9352C609.577 52.7083 609.771 51.3508 610.005 49.8627C610.237 48.3426 610.472 46.8705 610.71 45.4463C610.978 43.9883 611.211 42.7567 611.409 41.7515C611.62 40.425 611.966 39.4914 612.448 38.9505C612.959 38.3758 613.63 38.0644 614.461 38.0161C616.41 37.9028 617.44 38.8045 617.551 40.7213C617.572 41.0727 617.493 41.6542 617.316 42.4659C617.139 43.2775 616.921 44.2198 616.663 45.2926C616.405 46.3654 616.133 47.471 615.846 48.6096C615.558 49.7162 615.33 50.7551 615.162 51.7265C615.851 50.3402 616.598 48.8544 617.403 47.2689C618.208 45.6835 619.031 44.1291 619.872 42.6058C620.745 41.0805 621.61 39.684 622.466 38.4162C623.354 37.1465 624.24 36.1334 625.126 35.3767C626.009 34.5881 626.867 34.1696 627.697 34.1213C628.528 34.0731 629.36 34.3292 630.194 34.8897C631.026 35.4183 631.725 36.131 632.29 37.0277C632.885 37.8906 633.212 38.8332 633.271 39.8555C633.327 40.8139 633.266 41.9714 633.089 43.328C632.911 44.6846 632.705 46.1069 632.471 47.595C632.237 49.0831 632.097 50.5337 632.051 51.9467C633.067 50.6696 634.137 49.2291 635.262 47.6251C636.385 45.9892 637.537 44.3035 638.718 42.568C639.899 40.8325 641.051 39.1468 642.174 37.5109C643.329 35.8731 644.397 34.3846 645.377 33.0455C646.388 31.7045 647.288 30.6425 648.076 29.8594C648.862 29.0444 649.479 28.624 649.926 28.598C651.236 28.5218 652.279 28.8138 653.054 29.4739C653.86 30.1002 654.312 31.2599 654.41 32.953C654.472 34.0073 654.472 35.3856 654.41 37.088C654.381 38.7886 654.296 40.6366 654.156 42.6321C654.045 44.5938 653.905 46.5894 653.735 48.6187C653.594 50.6142 653.461 52.465 653.336 54.1712C653.211 55.8773 653.101 57.2941 653.006 58.4215ZM666.105 60.3525C663.837 60.4844 661.969 59.7916 660.503 58.2741C659.034 56.7248 658.221 54.5923 658.063 51.8769C658.013 51.0144 658.074 50.1294 658.246 49.2219C658.449 48.3125 658.704 47.4643 659.011 46.6772C658.803 46.4008 658.622 46.0427 658.468 45.6029C658.344 45.1293 658.264 44.573 658.227 43.9341C658.106 41.8576 658.363 39.9354 658.997 38.1676C659.63 36.3679 660.532 34.7929 661.704 33.4426C662.875 32.0923 664.191 31.0221 665.652 30.232C667.113 29.4419 668.61 29.0023 670.143 28.9132C672.763 28.7609 674.954 29.515 676.717 31.1754C678.513 32.834 679.518 35.5162 679.734 39.222C679.841 41.0748 679.663 42.9764 679.2 44.9266C678.736 46.8767 678.06 48.7591 677.172 50.5737C676.314 52.3546 675.286 53.9689 674.088 55.4169C672.922 56.863 671.643 58.0272 670.252 58.9094C668.893 59.7898 667.511 60.2708 666.105 60.3525ZM664.397 44.2004C664.577 44.5426 664.681 44.9532 664.709 45.4324C664.736 45.9116 664.669 46.4123 664.507 46.9346C664.346 47.4569 664.194 48.1549 664.052 49.0286C663.909 49.8703 663.883 51.0739 663.974 52.6392C663.998 53.0545 664.066 53.4031 664.179 53.6851C664.321 53.9332 664.6 54.0452 665.016 54.0211C666.102 53.9579 667.104 53.5471 668.021 52.7886C668.971 52.0282 669.795 51.0507 670.495 49.856C671.227 48.6596 671.824 47.3427 672.285 45.9055C672.776 44.4345 673.123 42.9559 673.325 41.4697C673.557 39.9496 673.636 38.5507 673.562 37.2728C673.514 36.4422 673.321 35.8765 672.983 35.5756C672.645 35.2747 672.076 35.1475 671.278 35.1939C670.191 35.2571 669.094 35.6735 667.984 36.4431C666.905 37.179 666.017 38.1602 665.319 39.3868C664.619 40.5814 664.312 41.9135 664.397 43.383C664.414 43.6705 664.414 43.943 664.397 44.2004ZM684.06 59.8376C683.261 59.8841 682.558 59.6365 681.949 59.0949C681.373 58.5514 681.053 57.7366 680.99 56.6504C680.962 56.1712 680.98 55.3848 681.045 54.2912C681.14 53.1639 681.257 51.8749 681.397 50.4243C681.569 48.9719 681.721 47.4565 681.854 45.8781C682.019 44.2979 682.14 42.8003 682.218 41.3854C682.328 39.9687 682.386 38.7632 682.392 37.7692C682.386 36.5515 682.655 35.6704 683.2 35.1259C683.744 34.5493 684.415 34.2379 685.213 34.1914C685.852 34.1543 686.437 34.2806 686.966 34.5704C687.526 34.8263 687.898 35.4297 688.081 36.3807C688.295 37.2978 688.389 38.6387 688.363 40.4031C689.62 37.7657 690.909 35.3989 692.23 33.3028C693.582 31.2047 695.023 29.5183 696.551 28.2434C699.086 26.0767 701.423 24.9311 703.564 24.8066C704.778 24.7361 705.592 24.9612 706.007 25.482C706.422 26.0028 706.646 26.5507 706.679 27.1257C706.702 27.5091 706.626 27.8661 706.453 28.1967C706.312 28.5254 705.98 28.8813 705.458 29.2642C704.935 29.6472 704.131 30.1587 703.047 30.7988C701.59 31.6528 700.163 32.7454 698.766 34.0767C697.4 35.4062 696.056 37.0871 694.731 39.1194C693.407 41.1516 692.093 43.6321 690.789 46.5607C689.484 49.4894 688.164 52.9639 686.827 56.9842C686.603 58.0871 686.229 58.83 685.706 59.213C685.216 59.5941 684.667 59.8023 684.06 59.8376ZM707.853 57.9736C705.872 58.0888 704.235 57.4948 702.941 56.1917C701.645 54.8566 700.907 52.6397 700.727 49.541C700.612 47.5603 700.721 45.5666 701.053 43.56C701.415 41.5195 701.959 39.5807 702.686 37.7434C703.443 35.8723 704.339 34.2015 705.376 32.7309C706.444 31.2584 707.642 30.0829 708.969 29.2044C710.294 28.2939 711.692 27.796 713.161 27.7105C715.653 27.5657 717.641 28.1233 719.124 29.3833C720.608 30.6433 721.41 32.3116 721.531 34.388C721.624 35.9853 721.261 37.4649 720.443 38.8267C719.654 40.1547 718.539 41.3734 717.097 42.483C715.655 43.5926 714.032 44.6165 712.227 45.5548C710.423 46.4931 708.566 47.3544 706.656 48.1385C706.563 49.2979 706.543 50.3248 706.595 51.2193C706.626 51.7623 706.945 52.0162 707.552 51.981C708.99 51.8974 710.51 51.5846 712.114 51.0427C713.747 50.4669 715.389 49.7624 717.039 48.9292C718.688 48.0641 720.272 47.1867 721.791 46.2971C723.308 45.3755 724.684 44.5101 725.919 43.7011C727.184 42.8582 728.219 42.189 729.024 41.6935C729.858 41.1642 730.403 40.8921 730.659 40.8772C731.362 40.8364 731.885 41.0143 732.229 41.411C732.572 41.8078 732.758 42.2457 732.786 42.7249C732.799 42.9485 732.396 43.4688 731.578 44.2856C730.792 45.1006 729.695 46.0779 728.287 47.2176C726.909 48.3234 725.342 49.4883 723.586 50.7123C721.86 51.9025 720.051 53.0494 718.16 54.153C716.299 55.2228 714.475 56.0981 712.688 56.779C710.934 57.49 709.322 57.8882 707.853 57.9736ZM707.223 43.8264C708.488 42.9835 709.735 42.1096 710.965 41.2048C712.224 40.2661 713.255 39.2445 714.056 38.1402C714.855 37.0039 715.213 35.7169 715.13 34.2794C715.106 33.8641 714.978 33.599 714.747 33.4842C714.514 33.3375 714.19 33.2762 713.775 33.3004C712.657 33.3654 711.663 33.9199 710.794 34.9641C709.957 36.0065 709.233 37.3307 708.621 38.9369C708.039 40.5094 707.573 42.1392 707.223 43.8264ZM749.92 55.3838C748.003 55.4953 746.655 55.189 745.876 54.465C745.13 53.7711 744.719 52.7693 744.643 51.4595C744.32 45.9009 745.021 40.0423 746.747 33.8838C748.502 27.6914 751.104 21.4339 754.55 15.1112C755.128 14.0199 755.619 13.3663 756.023 13.1505C756.427 12.9346 756.885 12.8119 757.396 12.7822C758.131 12.7394 758.785 12.9579 759.357 13.4374C759.962 13.9151 760.289 14.5693 760.337 15.3999C760.352 15.6555 760.121 16.3741 759.645 17.5557C759.169 18.7373 758.535 20.2486 757.745 22.0896C756.986 23.9287 756.162 26.0121 755.271 28.3397C754.379 30.6353 753.51 33.0578 752.665 35.6072C751.851 38.1547 751.166 40.7108 750.61 43.2754C751.617 41.8385 752.765 40.3614 754.055 38.844C755.375 37.2928 756.751 35.8665 758.182 34.5653C759.611 33.2321 761.007 32.1573 762.37 31.3408C763.731 30.4924 764.97 30.0357 766.088 29.9707C767.142 29.9094 768.132 30.1083 769.056 30.5674C770.012 31.0247 770.809 31.7797 771.447 32.8325C772.086 33.8852 772.455 35.2741 772.555 36.9992C772.665 38.884 772.234 40.8483 771.263 42.8921C770.324 44.9341 768.881 46.861 766.935 48.673C765.021 50.4832 762.625 52.0008 759.747 53.2259C756.901 54.4491 753.626 55.1684 749.92 55.3838ZM751.615 49.8041C754.064 49.4694 756.253 48.8132 758.184 47.8355C760.146 46.856 761.809 45.6855 763.172 44.3241C764.536 42.9627 765.56 41.5569 766.245 40.1067C766.928 38.6245 767.232 37.2445 767.158 35.9667C767.141 35.6792 767.053 35.5401 766.893 35.5493C766.223 35.5883 765.394 35.941 764.407 36.6074C763.418 37.2419 762.345 38.0896 761.189 39.1505C760.032 40.2114 758.866 41.3691 757.688 42.6235C756.511 43.8779 755.398 45.1286 754.349 46.3756C753.299 47.6226 752.388 48.7655 751.615 49.8041ZM780.317 53.761C778.337 53.8761 776.699 53.2821 775.406 51.979C774.11 50.644 773.372 48.4271 773.192 45.3283C773.077 43.3476 773.185 41.354 773.517 39.3473C773.879 37.3069 774.424 35.368 775.15 33.5307C775.907 31.6597 776.804 29.9888 777.84 28.5182C778.908 27.0457 780.106 25.8702 781.433 24.9917C782.759 24.0812 784.156 23.5833 785.626 23.4979C788.118 23.353 790.105 23.9106 791.589 25.1706C793.073 26.4306 793.875 28.0989 793.995 30.1754C794.088 31.7727 793.726 33.2522 792.907 34.614C792.119 35.942 791.004 37.1608 789.562 38.2703C788.12 39.3799 786.496 40.4038 784.692 41.3421C782.887 42.2805 781.03 43.1417 779.12 43.9258C779.028 45.0852 779.007 46.1121 779.059 47.0066C779.091 47.5497 779.41 47.8036 780.017 47.7683C781.455 47.6847 782.975 47.372 784.578 46.83C786.212 46.2542 787.853 45.5498 789.504 44.7166C791.152 43.8514 792.736 42.974 794.255 42.0844C795.772 41.1628 797.148 40.2975 798.383 39.4884C799.649 38.6456 800.684 37.9764 801.488 37.4809C802.323 36.9515 802.868 36.6794 803.123 36.6646C803.826 36.6237 804.35 36.8016 804.693 37.1984C805.037 37.5951 805.222 38.0331 805.25 38.5122C805.263 38.7359 804.861 39.2561 804.043 40.073C803.257 40.8879 802.16 41.8653 800.751 43.0049C799.373 44.1108 797.806 45.2757 796.05 46.4996C794.325 47.6898 792.516 48.8367 790.625 49.9403C788.764 51.0101 786.94 51.8855 785.152 52.5664C783.398 53.2773 781.787 53.6755 780.317 53.761ZM779.687 39.6137C780.952 38.7708 782.2 37.897 783.429 36.9921C784.689 36.0534 785.719 35.0319 786.521 33.9275C787.32 32.7912 787.678 31.5043 787.594 30.0667C787.57 29.6514 787.443 29.3864 787.212 29.2716C786.979 29.1248 786.655 29.0635 786.239 29.0877C785.121 29.1527 784.128 29.7073 783.259 30.7515C782.422 31.7938 781.698 33.1181 781.086 34.7243C780.504 36.2967 780.038 37.9265 779.687 39.6137ZM808.31 52.9029C805.435 53.0701 803.115 52.3234 801.352 50.663C799.619 48.9687 798.657 46.4763 798.465 43.1859C798.361 41.3969 798.479 39.2905 798.819 36.8667C799.157 34.411 799.632 31.8191 800.242 29.091C800.883 26.3292 801.574 23.5965 802.314 20.893C803.086 18.1876 803.854 15.6748 804.616 13.3546C805.379 11.0345 806.051 9.08817 806.633 7.51576C807.139 6.30033 807.919 5.66197 808.974 5.60068C809.645 5.56168 810.2 5.73776 810.639 6.12891C811.111 6.51821 811.373 7.17608 811.427 8.10252C811.453 8.54976 811.286 9.53712 810.926 11.0646C810.566 12.592 810.083 14.4793 809.476 16.7263C808.9 18.9395 808.27 21.3321 807.586 23.9041C806.934 26.4743 806.315 29.0585 805.728 31.6569C805.174 34.2535 804.739 36.6988 804.424 38.993C804.107 41.2552 803.994 43.169 804.085 44.7344C804.122 45.3733 804.327 45.8742 804.701 46.2372C805.107 46.5982 805.613 46.7611 806.22 46.7258C807.53 46.6497 808.857 46.3321 810.203 45.773C811.581 45.2121 812.919 44.5253 814.218 43.7125C815.549 42.8979 816.798 42.04 817.963 41.1389C819.129 40.2377 820.17 39.3919 821.085 38.6014C822.031 37.7771 822.794 37.1237 823.375 36.6412C824.139 35.9878 824.664 35.6527 824.952 35.636C826.038 35.5729 826.612 36.0684 826.673 37.1226C826.688 37.3782 826.399 37.9239 825.806 38.7597C825.304 39.494 824.59 40.4331 823.662 41.5768C822.735 42.7206 821.652 43.9375 820.413 45.2276C819.204 46.4839 817.895 47.6819 816.487 48.8215C815.11 49.9593 813.723 50.9054 812.324 51.6599C810.926 52.4143 809.588 52.8287 808.31 52.9029ZM827.358 50.9782C825.09 51.1101 823.223 50.4173 821.756 48.8998C820.288 47.3504 819.475 45.218 819.317 42.5026C819.267 41.6401 819.327 40.755 819.499 39.8476C819.703 38.9382 819.958 38.09 820.265 37.3028C820.056 37.0265 819.875 36.6684 819.721 36.2286C819.598 35.7549 819.517 35.1987 819.48 34.5597C819.359 32.4832 819.616 30.5611 820.251 28.7933C820.883 26.9935 821.786 25.4185 822.957 24.0683C824.129 22.718 825.445 21.6478 826.905 20.8577C828.366 20.0676 829.863 19.628 831.396 19.5388C834.016 19.3866 836.208 20.1406 837.971 21.8011C839.766 23.4597 840.771 26.1419 840.987 29.8476C841.095 31.7005 840.917 33.602 840.453 35.5522C839.989 37.5024 839.314 39.3848 838.425 41.1994C837.567 42.9802 836.539 44.5946 835.341 46.0426C834.175 47.4887 832.897 48.6529 831.506 49.5351C830.146 50.4154 828.764 50.8965 827.358 50.9782ZM825.65 34.8261C825.83 35.1682 825.934 35.5789 825.962 36.0581C825.99 36.5373 825.923 37.038 825.761 37.5603C825.599 38.0826 825.447 38.7806 825.306 39.6542C825.162 40.496 825.136 41.6995 825.227 43.2649C825.251 43.6802 825.32 44.0288 825.432 44.3107C825.575 44.5589 825.854 44.6709 826.269 44.6467C827.355 44.5836 828.357 44.1728 829.275 43.4142C830.224 42.6539 831.049 41.6763 831.749 40.4817C832.48 39.2852 833.077 37.9684 833.538 36.5312C834.03 35.0602 834.376 33.5816 834.579 32.0953C834.811 30.5753 834.89 29.1764 834.815 27.8985C834.767 27.0679 834.574 26.5022 834.236 26.2013C833.898 25.9004 833.33 25.7732 832.531 25.8196C831.445 25.8827 830.347 26.2991 829.238 27.0688C828.159 27.8047 827.27 28.7859 826.572 30.0125C825.872 31.2071 825.565 32.5392 825.651 34.0087C825.667 34.2962 825.667 34.5687 825.65 34.8261ZM849.733 50.2064C849.062 50.2454 848.415 50.1387 847.791 49.8865C847.167 49.6343 846.592 49.1068 846.064 48.3041C845.539 47.5333 845.087 46.3735 844.708 44.8249C844.328 43.2443 844.062 41.1442 843.909 38.5247C843.766 36.0648 843.758 33.7093 843.883 31.4583C844.007 29.1752 844.257 27.1413 844.634 25.3564C845.009 23.5395 845.503 22.1005 846.114 21.0392C846.724 19.946 847.444 19.3752 848.274 19.327C849.009 19.2842 849.637 19.6004 850.157 20.2753C850.677 20.9503 850.975 21.9426 851.051 23.2524C851.11 24.2747 851.061 25.6239 850.902 27.2999C850.775 28.9741 850.607 30.7789 850.399 32.7142C850.189 34.6176 850.008 36.4712 849.857 38.2751C849.735 40.0451 849.711 41.5531 849.783 42.799C849.796 43.0226 849.841 43.2443 849.918 43.4643C849.993 43.6522 850.094 43.7425 850.222 43.7351C850.414 43.7239 850.706 43.2421 851.1 42.2897C851.493 41.3372 851.966 40.0917 852.517 38.5531C853.099 36.9807 853.721 35.2777 854.384 33.4442C855.079 31.6088 855.807 29.8034 856.569 28.0282C857.362 26.2192 858.165 24.6018 858.98 23.1761C859.678 21.9496 860.535 20.9862 861.552 20.286C862.57 19.5858 863.525 19.2097 864.42 19.1577C865.218 19.1112 866.013 19.2734 866.804 19.6441C867.627 20.013 868.318 20.5978 868.877 21.3987C869.437 22.1996 869.753 23.223 869.825 24.4689C869.853 24.9481 869.836 25.7505 869.773 26.876C869.74 27.9677 869.685 29.2211 869.607 30.636C869.527 32.0189 869.448 33.4179 869.37 34.8328C869.29 36.2158 869.218 37.454 869.153 38.5476C869.12 39.6394 869.117 40.4089 869.143 40.8561C869.147 40.92 869.151 40.9999 869.157 41.0957C869.177 41.4471 869.214 41.7976 869.266 42.1471C869.317 42.4647 869.422 42.6189 869.582 42.6096C869.933 42.5892 870.357 42.1639 870.854 41.3336C871.38 40.4696 871.955 39.3303 872.578 37.9158C873.233 36.4994 873.911 34.9214 874.611 33.1818C875.311 31.4423 876.025 29.6539 876.751 27.8166C877.508 25.9455 878.254 24.1712 878.99 22.4937C879.549 21.0829 880.042 20.1887 880.469 19.8113C880.894 19.402 881.314 19.1852 881.729 19.1611C882.304 19.1277 882.928 19.3799 883.6 19.9178C884.273 20.4557 884.644 21.3316 884.715 22.5455C884.739 22.9608 884.747 23.3771 884.739 23.7942C884.731 24.2114 884.645 24.6491 884.479 25.1075C883.389 28.4084 882.237 31.4724 881.023 34.2996C879.839 37.093 878.634 39.535 877.41 41.6256C876.185 43.7162 874.982 45.3568 873.801 46.5474C872.62 47.7379 871.487 48.3647 870.401 48.4279C868.164 48.5579 866.405 48.0672 865.122 46.9557C863.87 45.8105 863.184 44.2156 863.065 42.1711C863.021 41.4044 863.012 40.4272 863.039 39.2396C863.064 38.0201 863.1 36.7038 863.146 35.2908C863.222 33.8439 863.299 32.413 863.377 30.9981C863.455 29.5832 863.54 28.2801 863.631 27.0888C863.669 26.6379 863.572 26.355 863.341 26.2402C863.142 26.1236 862.975 26.2775 862.839 26.7021C862.487 27.8124 862.108 29.0204 861.703 30.3261C861.299 31.6318 860.916 32.7759 860.557 33.7585C859.979 35.3948 859.295 37.1494 858.507 39.0223C857.75 40.8934 856.908 42.6733 855.98 44.3619C855.051 46.0187 854.057 47.3907 852.998 48.4779C851.94 49.5652 850.851 50.1414 849.733 50.2064ZM890.683 34.7477C890.235 34.7737 889.826 34.6213 889.454 34.2903C889.112 33.9255 888.913 33.2479 888.855 32.2576C888.814 31.5548 888.878 30.4452 889.046 28.9289C889.214 27.4126 889.465 25.6671 889.799 23.6924C890.163 21.6838 890.587 19.5918 891.069 17.4161C891.55 15.2085 892.081 13.046 892.664 10.9286C893.244 8.77933 893.852 6.83675 894.488 5.1009C894.791 4.24987 895.298 3.59535 896.009 3.13733C896.75 2.64552 897.567 2.37361 898.462 2.32161C899.388 2.26775 900.084 2.66002 900.55 3.49842C901.015 4.33682 901.277 5.26716 901.337 6.28944C901.359 6.67279 901.209 7.40272 900.887 8.47923C900.597 9.55387 900.192 10.8596 899.673 12.3963C899.153 13.9331 898.577 15.6013 897.944 17.4011C897.342 19.167 896.725 20.9658 896.094 22.7975C895.493 24.5954 894.936 26.3107 894.422 27.9433C893.908 29.5758 893.494 31.0103 893.182 32.2465C892.976 33.1239 892.66 33.7513 892.233 34.1287C891.838 34.5043 891.321 34.7106 890.683 34.7477ZM888.968 48.262C888.585 48.2843 888.132 48.2145 887.61 48.0525C887.087 47.8906 886.613 47.4533 886.187 46.7409C885.795 46.0585 885.553 44.9346 885.462 43.3692C885.392 42.1553 885.721 41.2066 886.451 40.5231C887.18 39.8396 888.184 39.4607 889.462 39.3864C890.548 39.3233 891.396 39.5785 892.006 40.152C892.649 40.7237 893.002 41.5686 893.067 42.6867C893.127 43.709 892.924 44.6343 892.459 45.4627C892.027 46.2892 891.472 46.9465 890.795 47.4346C890.152 47.9528 889.543 48.2286 888.968 48.262Z" fill="#C28E00"/>
</svg>
