<svg width="523" height="253" viewBox="0 0 523 253" fill="none" xmlns="http://www.w3.org/2000/svg">
<path d="M84.0385 165.469C83.3923 165.653 82.7373 165.69 82.0737 165.58C81.41 165.47 80.7332 165.081 80.0434 164.412C79.3624 163.775 78.6683 162.741 77.9612 161.312C77.2453 159.853 76.5275 157.861 75.8076 155.338C75.1317 152.969 74.6095 150.672 74.2412 148.447C73.8641 146.192 73.665 144.153 73.6437 142.329C73.6137 140.474 73.7814 138.962 74.1467 137.793C74.5032 136.593 75.0815 135.879 75.8816 135.65C76.5894 135.449 77.2706 135.62 77.9253 136.166C78.58 136.711 79.0873 137.614 79.4472 138.876C79.7282 139.861 79.9738 141.188 80.1841 142.859C80.4251 144.52 80.6552 146.318 80.8742 148.252C81.0844 150.156 81.3122 152.004 81.5576 153.798C81.825 155.552 82.1299 157.029 82.4723 158.229C82.5337 158.444 82.6259 158.651 82.7489 158.849C82.8631 159.016 82.9818 159.082 83.1049 159.046C83.2895 158.994 83.47 158.46 83.6462 157.445C83.8224 156.429 84.012 155.111 84.2148 153.489C84.4397 151.827 84.6756 150.03 84.9225 148.096C85.2002 146.153 85.5175 144.232 85.8743 142.334C86.2531 140.395 86.6846 138.642 87.1687 137.073C87.5825 135.723 88.2093 134.596 89.0492 133.691C89.8891 132.786 90.7399 132.21 91.6015 131.965C92.3708 131.745 93.1818 131.73 94.0345 131.919C94.9179 132.1 95.7199 132.52 96.4405 133.18C97.1611 133.839 97.6926 134.769 98.035 135.969C98.1666 136.431 98.3246 137.218 98.5087 138.33C98.7149 139.403 98.9341 140.638 99.1665 142.036C99.3902 143.403 99.6182 144.785 99.8506 146.183C100.074 147.55 100.274 148.775 100.449 149.856C100.655 150.928 100.82 151.68 100.943 152.111C100.96 152.173 100.982 152.249 101.008 152.342C101.105 152.68 101.217 153.014 101.344 153.344C101.463 153.643 101.599 153.771 101.753 153.727C102.091 153.63 102.413 153.123 102.716 152.204C103.042 151.246 103.354 150.009 103.654 148.492C103.984 146.967 104.301 145.28 104.605 143.429C104.91 141.579 105.216 139.678 105.524 137.726C105.855 135.735 106.196 133.841 106.549 132.043C106.787 130.544 107.073 129.564 107.407 129.103C107.732 128.611 108.095 128.308 108.495 128.194C109.049 128.036 109.713 128.146 110.486 128.524C111.26 128.902 111.813 129.676 112.147 130.846C112.261 131.246 112.36 131.65 112.443 132.059C112.526 132.468 112.537 132.914 112.475 133.397C112.131 136.856 111.675 140.098 111.107 143.122C110.56 146.106 109.917 148.752 109.178 151.059C108.439 153.367 107.623 155.23 106.73 156.65C105.837 158.069 104.867 158.928 103.821 159.226C101.667 159.841 99.8428 159.746 98.3487 158.941C96.8765 158.096 95.8595 156.689 95.2977 154.72C95.087 153.981 94.8654 153.029 94.6329 151.864C94.3917 150.669 94.1394 149.376 93.8763 147.987C93.6351 146.559 93.3983 145.145 93.1659 143.748C92.9335 142.35 92.7319 141.059 92.5609 139.877C92.4996 139.429 92.3436 139.174 92.0931 139.112C91.8734 139.042 91.7436 139.228 91.7039 139.672C91.6023 140.833 91.4963 142.094 91.3859 143.457C91.2754 144.819 91.1518 146.019 91.0152 147.056C90.8079 148.779 90.5236 150.641 90.1623 152.641C89.8319 154.632 89.3981 156.552 88.8611 158.403C88.3153 160.222 87.6444 161.778 86.8482 163.07C86.0521 164.362 85.1156 165.161 84.0385 165.469ZM125.314 153.195C123.406 153.739 121.678 153.517 120.132 152.527C118.576 151.507 117.372 149.504 116.521 146.519C115.977 144.611 115.648 142.642 115.534 140.611C115.443 138.541 115.551 136.53 115.86 134.578C116.19 132.587 116.701 130.761 117.392 129.1C118.113 127.43 119.026 126.021 120.13 124.875C121.225 123.697 122.48 122.906 123.895 122.503C126.296 121.818 128.357 121.929 130.08 122.835C131.802 123.741 132.949 125.194 133.52 127.194C133.959 128.733 133.927 130.256 133.426 131.763C132.946 133.231 132.123 134.664 130.958 136.061C129.792 137.459 128.431 138.812 126.875 140.121C125.318 141.43 123.694 142.676 122.001 143.857C122.163 145.009 122.367 146.016 122.613 146.877C122.762 147.401 123.129 147.579 123.714 147.412C125.099 147.017 126.514 146.38 127.961 145.502C129.429 144.584 130.878 143.538 132.307 142.365C133.727 141.161 135.081 139.96 136.37 138.76C137.649 137.53 138.804 136.385 139.833 135.326C140.884 134.228 141.748 133.349 142.425 132.69C143.124 131.992 143.597 131.607 143.843 131.537C144.52 131.344 145.069 131.403 145.491 131.716C145.913 132.028 146.19 132.415 146.322 132.876C146.383 133.092 146.104 133.687 145.483 134.663C144.894 135.63 144.036 136.823 142.911 138.242C141.807 139.622 140.531 141.1 139.085 142.678C137.66 144.216 136.145 145.729 134.54 147.219C132.957 148.668 131.368 149.921 129.772 150.975C128.215 152.051 126.729 152.791 125.314 153.195ZM121.614 139.526C122.665 138.427 123.692 137.302 124.694 136.151C125.719 134.96 126.502 133.739 127.043 132.486C127.575 131.203 127.644 129.869 127.249 128.484C127.135 128.084 126.952 127.853 126.702 127.791C126.443 127.699 126.113 127.71 125.713 127.824C124.636 128.131 123.787 128.889 123.167 130.098C122.578 131.297 122.159 132.748 121.912 134.449C121.688 136.11 121.588 137.802 121.614 139.526ZM145.755 146.415C144.893 146.661 144.041 146.588 143.197 146.197C142.384 145.796 141.789 144.934 141.411 143.611C141.209 142.903 141.016 141.877 140.832 140.532C140.679 139.178 140.556 137.699 140.465 136.094C140.364 134.459 140.299 132.831 140.269 131.209C140.27 129.578 140.303 128.121 140.37 126.837C140.427 125.523 140.527 124.53 140.668 123.857C140.866 123.036 141.112 122.499 141.407 122.249C141.723 121.959 142.051 121.766 142.389 121.669C143.005 121.494 143.627 121.516 144.255 121.736C144.914 121.947 145.424 122.684 145.784 123.945C145.924 124.438 146.06 125.264 146.192 126.424C146.314 127.554 146.443 128.882 146.579 130.407C146.715 131.932 146.833 133.513 146.933 135.148C147.064 136.774 147.174 138.324 147.261 139.796C147.37 141.229 147.464 142.434 147.543 143.409C147.609 144.223 147.448 144.884 147.061 145.394C146.713 145.925 146.278 146.266 145.755 146.415ZM142.978 116.56C141.963 116.849 140.941 116.825 139.912 116.486C138.875 116.116 138.177 115.3 137.817 114.039C137.518 112.993 137.538 112.072 137.877 111.276C138.216 110.481 138.7 109.844 139.328 109.365C139.979 108.846 140.582 108.508 141.135 108.35C141.689 108.192 142.34 108.14 143.087 108.193C143.826 108.215 144.529 108.464 145.197 108.939C145.887 109.374 146.39 110.146 146.706 111.253C146.916 111.992 146.848 112.744 146.5 113.508C146.144 114.242 145.629 114.888 144.957 115.446C144.315 115.995 143.655 116.366 142.978 116.56ZM156.164 144.893C155.395 145.113 154.655 145.024 153.943 144.629C153.261 144.224 152.772 143.498 152.473 142.452C152.342 141.991 152.188 141.219 152.013 140.138C151.859 139.017 151.693 137.733 151.513 136.287C151.364 134.832 151.182 133.32 150.968 131.751C150.784 130.173 150.576 128.685 150.343 127.287C150.142 125.88 149.935 124.691 149.725 123.719C149.453 122.533 149.524 121.614 149.937 120.964C150.342 120.282 150.929 119.832 151.698 119.613C152.313 119.437 152.911 119.433 153.491 119.6C154.093 119.728 154.588 120.236 154.974 121.124C155.383 121.972 155.767 123.26 156.126 124.988C156.778 122.14 157.52 119.549 158.352 117.215C159.214 114.873 160.252 112.913 161.466 111.335C163.467 108.668 165.498 107.04 167.56 106.452C168.73 106.119 169.573 106.161 170.092 106.579C170.61 106.996 170.949 107.482 171.107 108.036C171.212 108.405 171.216 108.77 171.12 109.131C171.053 109.482 170.807 109.902 170.381 110.39C169.954 110.877 169.281 111.552 168.362 112.413C167.127 113.564 165.972 114.942 164.899 116.546C163.857 118.141 162.911 120.074 162.061 122.346C161.212 124.619 160.47 127.326 159.836 130.469C159.202 133.611 158.671 137.29 158.243 141.505C158.264 142.63 158.062 143.437 157.635 143.925C157.239 144.404 156.749 144.726 156.164 144.893ZM183.272 108.259C183.815 103.745 184.122 99.1652 184.195 94.5192C184.195 93.5873 184.36 92.8248 184.69 92.2315C185.051 91.6295 185.662 91.2055 186.523 90.9597C187.231 90.7578 187.831 90.8196 188.323 91.1451C188.807 91.4398 189.149 91.941 189.351 92.6488C189.518 93.2335 189.57 94.35 189.508 95.9983C189.437 97.6158 189.373 99.6641 189.314 102.143C189.256 104.622 189.299 107.455 189.443 110.642C189.587 113.829 189.921 117.277 190.447 120.987C190.973 124.697 191.816 128.583 192.974 132.645C193.29 133.753 193.334 134.722 193.105 135.553C192.916 136.406 192.313 136.977 191.298 137.266C190.19 137.583 189.265 137.431 188.522 136.81C187.81 136.182 187.283 135.267 186.941 134.067C186.265 131.697 185.78 129.706 185.486 128.093C185.214 126.44 185.008 125.018 184.868 123.827C184.098 126.842 183.134 129.529 181.977 131.889C180.842 134.21 179.646 136.082 178.388 137.505C177.139 138.96 175.961 139.845 174.853 140.161C173.037 140.679 171.415 140.592 169.987 139.902C168.559 139.211 167.551 137.835 166.963 135.773C166.506 134.173 166.421 132.417 166.708 130.505C166.985 128.562 167.518 126.58 168.306 124.558C169.093 122.537 170.035 120.588 171.13 118.711C172.247 116.795 173.417 115.064 174.64 113.517C175.853 111.94 177.03 110.639 178.169 109.615C179.308 108.592 180.292 107.961 181.123 107.724C182.046 107.461 182.763 107.639 183.272 108.259ZM182.922 111.055C182.772 111.23 182.607 111.411 182.427 111.595C182.269 111.74 182.115 111.9 181.965 112.076C181.007 113.148 180.015 114.396 178.99 115.82C177.957 117.213 176.974 118.725 176.041 120.355C175.1 121.955 174.284 123.585 173.593 125.246C172.924 126.868 172.456 128.433 172.187 129.94C171.94 131.408 171.988 132.742 172.33 133.942C172.392 134.158 172.528 134.285 172.739 134.325C172.95 134.365 173.132 134.362 173.286 134.319C174.363 134.011 175.381 133.205 176.34 131.9C177.329 130.586 178.229 128.899 179.039 126.837C179.87 124.737 180.603 122.348 181.237 119.671C181.902 116.986 182.463 114.114 182.922 111.055ZM242.72 92.8479C242.825 93.2171 242.794 93.5754 242.627 93.9226C242.46 94.2697 242.214 94.5729 241.888 94.8321C241.427 95.1968 240.598 95.7327 239.402 96.4399C238.206 97.1471 236.747 97.9794 235.023 98.937C233.33 99.8857 231.504 100.889 229.543 101.948C227.573 102.976 225.599 103.988 223.621 104.985C223.663 108.167 223.717 111.446 223.782 114.822C223.837 118.167 223.88 121.466 223.909 124.719C223.909 125.884 223.772 126.804 223.5 127.481C223.235 128.189 222.58 128.692 221.534 128.99C220.396 129.315 219.521 129.165 218.91 128.541C218.339 127.938 218.016 126.982 217.942 125.672C217.785 122.09 217.633 118.756 217.485 115.67C217.367 112.576 217.269 110.075 217.191 108.167C215.432 109.001 213.887 109.708 212.555 110.288C211.214 110.837 210.247 111.179 209.654 111.315C208.99 111.438 208.377 111.33 207.814 110.992C207.252 110.653 206.889 110.141 206.727 109.455C206.613 108.822 206.741 108.22 207.11 107.649C207.471 107.046 207.976 106.603 208.627 106.317C209.555 105.953 210.746 105.463 212.201 104.848C213.656 104.234 215.257 103.544 217.002 102.78C216.954 101.097 216.955 99.3494 217.004 97.5384C217.044 95.6967 217.122 93.9275 217.237 92.2309C217.374 90.4947 217.537 88.9673 217.727 87.6487C217.916 86.3302 218.152 85.3479 218.434 84.7018C218.658 84.2052 218.986 83.779 219.416 83.4231C219.878 83.0585 220.355 82.8059 220.848 82.6655C221.494 82.4811 222.083 82.5627 222.614 82.9101C223.146 83.2576 223.5 83.7391 223.675 84.3545C223.746 84.6007 223.805 84.8666 223.853 85.1524C223.893 85.4073 223.901 85.6711 223.879 85.9436C223.733 87.649 223.634 89.6907 223.58 92.0686C223.557 94.4378 223.565 97.0312 223.603 99.8488C225.814 98.8519 227.98 97.8682 230.099 96.8976C232.24 95.8875 234.174 94.9696 235.902 94.144C237.652 93.2788 239.045 92.5651 240.083 92.0029C240.637 91.6119 241.173 91.5088 241.692 91.6936C242.202 91.8477 242.544 92.2324 242.72 92.8479ZM246.662 118.578C244.754 119.122 243.027 118.899 241.48 117.91C239.924 116.889 238.721 114.887 237.869 111.902C237.325 109.994 236.996 108.024 236.882 105.994C236.791 103.923 236.9 101.912 237.208 99.9608C237.539 97.9698 238.049 96.1437 238.74 94.4824C239.461 92.8124 240.374 91.404 241.478 90.2572C242.573 89.0797 243.828 88.289 245.244 87.8852C247.644 87.2005 249.705 87.3112 251.428 88.2174C253.151 89.1236 254.297 90.5768 254.868 92.577C255.307 94.1156 255.275 95.6386 254.774 97.1461C254.294 98.614 253.471 100.047 252.306 101.444C251.141 102.841 249.78 104.194 248.223 105.504C246.667 106.813 245.042 108.058 243.349 109.24C243.511 110.392 243.715 111.398 243.961 112.26C244.11 112.783 244.477 112.961 245.062 112.795C246.447 112.4 247.862 111.763 249.309 110.884C250.777 109.966 252.226 108.921 253.655 107.748C255.075 106.544 256.43 105.342 257.718 104.143C258.998 102.913 260.152 101.768 261.181 100.709C262.232 99.6106 263.096 98.7319 263.773 98.0728C264.472 97.3742 264.945 96.9898 265.191 96.9196C265.868 96.7264 266.418 96.786 266.84 97.0983C267.261 97.4105 267.538 97.7974 267.67 98.259C267.731 98.4744 267.452 99.0699 266.832 100.045C266.242 101.012 265.385 102.205 264.259 103.625C263.155 105.004 261.88 106.483 260.433 108.06C259.008 109.598 257.493 111.112 255.888 112.601C254.305 114.051 252.716 115.303 251.12 116.357C249.563 117.434 248.077 118.174 246.662 118.578ZM242.962 104.908C244.013 103.81 245.04 102.685 246.042 101.534C247.067 100.343 247.85 99.1212 248.391 97.8687C248.924 96.5855 248.992 95.2514 248.597 93.8667C248.483 93.4666 248.301 93.2358 248.05 93.1742C247.791 93.0818 247.461 93.0926 247.061 93.2067C245.984 93.514 245.136 94.2719 244.515 95.4804C243.926 96.6801 243.508 98.1305 243.261 99.8314C243.036 101.493 242.936 103.185 242.962 104.908ZM271.859 111.09C270.135 111.582 268.529 111.607 267.039 111.167C265.558 110.758 264.303 110.034 263.275 108.997C262.238 107.928 261.531 106.732 261.153 105.409C260.521 103.193 260.276 101.05 260.418 98.9802C260.55 96.8792 260.951 94.9013 261.62 93.0467C262.28 91.1613 263.085 89.4342 264.035 87.8653C265.016 86.2877 266.008 84.9233 267.01 83.7721C268.035 82.5813 268.983 81.6455 269.853 80.9645C270.715 80.2528 271.377 79.8311 271.838 79.6994C272.669 79.4624 273.307 79.4802 273.75 79.7529C274.216 79.9861 274.563 80.5027 274.792 81.3028C274.923 81.7644 274.743 82.4149 274.25 83.2542C273.788 84.0848 273.137 85.0691 272.297 86.2072C271.488 87.3365 270.648 88.5911 269.777 89.971C268.906 91.3508 268.117 92.8406 267.408 94.4402C266.731 96.0312 266.273 97.6925 266.035 99.4242C265.828 101.147 265.983 102.916 266.501 104.732C266.694 105.409 266.966 105.897 267.318 106.196C267.7 106.486 268.199 106.544 268.814 106.368C270.568 105.868 272.358 105.025 274.182 103.838C276.029 102.613 277.816 101.238 279.544 99.7133C281.295 98.1492 282.913 96.5894 284.399 95.034C285.916 93.4698 287.202 92.0879 288.258 90.8884C288.676 90.3699 289.038 89.9502 289.346 89.6295C289.654 89.3088 289.885 89.1264 290.039 89.0825C290.962 88.8192 291.56 89.1645 291.832 90.1184C291.972 90.6108 291.792 91.3777 291.29 92.4193C290.736 93.7421 289.882 95.1835 288.73 96.7434C287.609 98.2946 286.305 99.8479 284.818 101.403C283.363 102.95 281.83 104.402 280.221 105.76C278.643 107.108 277.123 108.257 275.664 109.206C274.204 110.155 272.936 110.783 271.859 111.09ZM291.603 107.953C290.187 108.357 289.058 108.247 288.214 107.622C287.37 106.998 286.729 105.916 286.29 104.378C285.886 102.962 285.621 101.041 285.495 98.6148C285.39 96.1489 285.38 93.3731 285.465 90.2875C285.572 87.1623 285.764 83.9294 286.043 80.5889C286.312 77.2177 286.645 73.8948 287.042 70.6203C287.43 67.315 287.858 64.2646 288.325 61.4693C288.572 60.2342 288.946 59.3289 289.447 58.7533C289.948 58.1777 290.568 57.7845 291.307 57.5738C292.015 57.3719 292.672 57.4008 293.278 57.6604C293.876 57.8892 294.293 58.419 294.53 59.2499C294.583 59.4345 294.539 60.2125 294.398 61.5838C294.248 62.9244 294.049 64.6782 293.802 66.8451C293.546 68.9812 293.284 71.3854 293.014 74.0578C292.736 76.6994 292.489 79.4487 292.273 82.3057C292.047 85.132 291.905 87.9011 291.847 90.6131C291.789 93.3252 291.832 95.8087 291.976 98.0636C292.641 96.3101 293.338 94.3807 294.069 92.2756C294.821 90.1308 295.593 87.9971 296.385 85.8744C297.199 83.7121 298.027 81.7125 298.867 79.8755C299.738 78.0297 300.6 76.5026 301.453 75.2942C302.307 74.0858 303.149 73.3631 303.979 73.126C305.518 72.6871 306.872 72.7668 308.041 73.3651C309.232 73.9238 310.121 75.234 310.71 77.2958C310.982 78.2497 311.126 79.4563 311.143 80.9157C311.151 82.3442 311.105 83.8716 311.003 85.498C310.923 87.0847 310.892 88.6078 310.909 90.0671C310.926 91.5264 311.079 92.7638 311.369 93.7793C311.527 94.3332 311.867 94.5355 312.39 94.3863C313.898 93.9562 315.329 93.1985 316.684 92.1134C318.069 91.0194 319.333 89.7936 320.476 88.4358C321.642 87.0385 322.673 85.6961 323.57 84.4086C324.489 83.0815 325.226 81.9895 325.78 81.1326C326.163 80.491 326.548 80.0319 326.935 79.7551C327.313 79.4476 327.687 79.2411 328.056 79.1358C329.317 78.7759 330.128 79.2267 330.488 80.4884C330.558 80.7346 330.6 81.0555 330.613 81.4511C330.617 81.8159 330.448 82.3301 330.105 82.9937C329.762 83.6573 329.234 84.6065 328.521 85.8414C327.809 87.0762 326.944 88.4209 325.928 89.8754C324.943 91.3211 323.822 92.7558 322.564 94.1795C321.328 95.5636 319.998 96.7916 318.574 97.8635C317.149 98.9354 315.683 99.6865 314.175 100.117C311.898 100.766 309.959 100.62 308.36 99.6791C306.769 98.7686 305.662 97.2209 305.039 95.036C304.609 93.5282 304.376 91.5479 304.342 89.0952C304.299 86.6117 304.32 84.0601 304.405 81.4404C303.626 82.7939 302.858 84.3606 302.102 86.1405C301.336 87.8896 300.582 89.7354 299.838 91.6779C299.085 93.5897 298.344 95.4816 297.614 97.3538C296.905 99.1865 296.208 100.883 295.521 102.443C294.826 103.972 294.153 105.229 293.502 106.214C292.851 107.198 292.218 107.778 291.603 107.953ZM353.708 100.07C351.985 100.561 350.385 100.901 348.908 101.09C347.44 101.309 345.967 101.396 344.49 101.352C343.013 101.307 341.389 101.155 339.618 100.895C338.884 100.771 338.253 100.602 337.726 100.386C337.198 100.171 336.838 99.7244 336.645 99.0474C336.364 98.0627 336.457 97.221 336.923 96.5223C337.367 95.8631 338.113 95.3843 339.159 95.0858C339.713 94.9278 340.473 94.9105 341.44 95.034C342.416 95.1883 343.528 95.3535 344.776 95.5299C346.064 95.7282 347.453 95.8145 348.943 95.7887C350.442 95.7937 351.991 95.568 353.592 95.1115C355.222 94.6462 356.553 93.5347 357.582 91.7769C358.611 90.0191 359.205 87.7864 359.365 85.0788C359.564 82.3932 359.189 79.3887 358.241 76.0653C358.022 75.296 357.769 74.4696 357.484 73.5859C357.19 72.6715 356.882 71.711 356.562 70.7043C356.051 73.1128 355.408 75.4092 354.634 77.5935C353.859 79.7778 352.942 81.6367 351.882 83.1703C350.844 84.6644 349.633 85.6089 348.248 86.004C346.556 86.4868 345.211 86.4379 344.213 85.8573C343.237 85.2371 342.495 84.0346 341.986 82.2498C341.556 80.742 341.194 79.0649 340.9 77.2187C340.628 75.3329 340.429 73.4097 340.302 71.4493C340.176 69.4888 340.137 67.6031 340.186 65.7922C340.257 63.9417 340.425 62.3132 340.689 60.9067C340.896 59.8827 341.477 59.2346 342.431 58.9624C343.046 58.7869 343.745 58.9036 344.527 59.3127C345.34 59.7131 345.887 60.4056 346.168 61.3903C346.326 61.9442 346.416 62.7838 346.437 63.909C346.459 65.0343 346.458 66.3156 346.436 67.7529C346.435 69.1507 346.441 70.6298 346.454 72.1902C346.458 73.7199 346.518 75.2166 346.637 76.6804C346.746 78.1134 346.958 79.3837 347.275 80.4916C347.31 80.6146 347.419 80.6499 347.604 80.5972C347.973 80.4918 348.378 80.0437 348.818 79.2526C349.28 78.4221 349.75 77.3893 350.23 76.1544C350.732 74.8799 351.207 73.513 351.656 72.0539C352.127 70.5552 352.571 69.0807 352.99 67.6303C353.408 66.18 353.78 64.8593 354.105 63.6682C353.873 63.2022 353.688 62.7889 353.552 62.4285C353.438 62.0284 353.341 61.6899 353.262 61.413C352.903 60.1513 352.819 59.0436 353.013 58.0898C353.238 57.1273 354.012 56.4573 355.335 56.0798C356.197 55.834 356.95 55.9684 357.596 56.4829C358.233 56.9667 358.714 57.7779 359.039 58.9165C359.18 59.4088 359.265 60.0001 359.296 60.6902C359.317 61.3495 359.29 62.422 359.215 63.9077L359.315 62.3319C360.382 65.0224 361.315 67.4184 362.114 69.5198C362.944 71.6124 363.662 73.7203 364.267 75.8436C365.409 79.844 365.719 83.499 365.199 86.8087C364.719 90.1403 363.491 92.9529 361.517 95.2466C359.573 97.5315 356.97 99.1392 353.708 100.07ZM373.984 82.4557C372.999 82.7366 372.028 82.7143 371.07 82.3886C370.12 82.0937 369.292 81.5813 368.585 80.8514C367.869 80.0906 367.366 79.2025 367.076 78.187C366.532 76.2792 366.416 74.2989 366.729 72.2463C367.073 70.185 367.704 68.1413 368.624 66.1153C369.543 64.0894 370.625 62.1668 371.87 60.3475C373.137 58.4887 374.445 56.8343 375.795 55.3843C377.176 53.9256 378.464 52.7261 379.66 51.786C380.887 50.837 381.885 50.2528 382.654 50.0334C383.547 49.7788 384.327 49.7725 384.995 50.0146C385.685 50.217 386.144 50.7183 386.372 51.5184C386.443 51.7646 386.438 51.9822 386.359 52.1711C386.785 52.1493 387.174 52.2879 387.526 52.587C387.877 52.886 388.158 53.4048 388.369 54.1433C388.457 54.4511 388.608 55.2731 388.823 56.6094C389.038 57.9458 389.316 59.5634 389.658 61.4624C390.031 63.3527 390.503 65.2979 391.073 67.2981C391.161 67.6058 391.286 67.8696 391.449 68.0895C391.603 68.2785 391.833 68.3292 392.141 68.2414C393.372 67.8902 394.548 67.2885 395.669 66.4363C396.813 65.5444 397.879 64.5581 398.868 63.4772C399.88 62.3567 400.772 61.2868 401.547 60.2673C402.343 59.2083 403.009 58.3361 403.545 57.6506C404.104 56.9256 404.491 56.5323 404.706 56.4709C405.753 56.1724 406.425 56.5463 406.723 57.5925C406.802 57.8695 406.631 58.5507 406.208 59.6363C405.808 60.6822 405.201 61.9369 404.387 63.4003C403.564 64.8329 402.603 66.305 401.504 67.8166C400.426 69.2887 399.235 70.5937 397.929 71.7316C396.654 72.8607 395.324 73.6228 393.939 74.0179C392.246 74.5007 390.84 74.4693 389.719 73.9238C388.629 73.3695 387.707 72.4681 386.951 71.2194C386.218 69.9312 385.59 68.4299 385.067 66.7154C384.139 69.4095 383.078 71.875 381.886 74.1118C380.716 76.3091 379.46 78.1481 378.119 79.6289C376.778 81.1096 375.4 82.0519 373.984 82.4557ZM383.727 54.6689C381.124 56.9755 378.89 59.4097 377.025 61.9716C375.152 64.5026 373.797 66.9856 372.961 69.4203C372.155 71.8464 372.02 73.9979 372.556 75.875C372.705 76.3982 373.026 76.5895 373.518 76.449C374.103 76.2822 374.776 75.7243 375.537 74.7752C376.328 73.8173 377.135 72.622 377.958 71.1894C378.772 69.726 379.55 68.1395 380.294 66.43C381.029 64.6896 381.678 62.9405 382.241 61.1825C382.804 59.4245 383.185 57.7851 383.384 56.2644C383.459 55.7105 383.573 55.1787 383.727 54.6689ZM407.564 87.0022C406.702 87.248 405.937 87.1334 405.27 86.6585C404.641 86.2055 404.151 85.3635 403.8 84.1326C403.317 82.4401 402.896 80.3807 402.537 77.9542C402.177 75.5277 401.886 72.932 401.663 70.1671C401.44 67.4022 401.276 64.6703 401.172 61.9714C401.085 58.8681 401.058 56.0308 401.09 53.4594C401.152 50.8793 401.351 48.7761 401.686 47.1499C402.042 45.4841 402.605 44.5415 403.375 44.322C404.083 44.1201 404.773 44.2061 405.445 44.58C406.139 44.9144 406.627 45.5739 406.908 46.5586C407.11 47.2664 407.215 48.3345 407.223 49.7631C407.222 51.1609 407.222 52.9081 407.221 55.0048C407.776 52.9831 408.37 50.9833 409.004 49.0056C409.668 47.0191 410.392 45.182 411.175 43.4945C411.958 41.8069 412.789 40.4051 413.669 39.289C414.549 38.1729 415.481 37.4743 416.465 37.1934C417.635 36.8599 418.762 36.9043 419.848 37.3267C420.964 37.7403 421.951 38.4572 422.807 39.4773C423.664 40.4974 424.303 41.746 424.724 43.2231C425.506 45.9618 425.773 48.7641 425.525 51.6299C425.269 54.4649 424.554 57.1481 423.379 59.6794C422.235 62.202 420.681 64.3926 418.715 66.2511C416.741 68.0788 414.415 69.3745 411.738 70.1383C410.968 70.3577 410.239 70.4827 409.549 70.5132C408.898 70.5657 408.285 70.5742 407.709 70.5388C407.902 72.6136 408.123 74.7301 408.372 76.8884C408.662 79.0687 408.966 81.3611 409.286 83.7656C409.4 85.5635 408.826 86.6423 407.564 87.0022ZM418.481 42.5085C417.804 42.7016 417.074 43.409 416.291 44.6306C415.539 45.8435 414.778 47.375 414.008 49.2252C413.229 51.0447 412.474 53.007 411.744 55.1121C411.035 57.1777 410.364 59.1994 409.73 61.1771C409.127 63.1461 408.617 64.8558 408.199 66.3061C410.467 65.3928 412.353 64.1892 413.857 62.6953C415.352 61.1706 416.524 59.5052 417.373 57.699C418.223 55.8928 418.804 54.0799 419.116 52.2602C419.451 50.4011 419.584 48.6495 419.514 47.0055C419.444 45.3616 419.247 43.9703 418.922 42.8317C418.843 42.5548 418.696 42.447 418.481 42.5085ZM431.717 80.8107C429.159 82.3393 427.638 82.2574 427.155 80.5649C426.9 79.6725 427.213 78.7847 428.092 77.9016C429.359 76.5087 430.206 74.753 430.633 72.6345C431.029 70.5248 431.156 68.226 431.012 65.7381C430.898 63.2414 430.653 60.749 430.276 58.261C430.149 57.2324 430.257 56.5028 430.6 56.0721C430.934 55.6107 431.348 55.3098 431.84 55.1694C432.794 54.8972 433.796 55.0273 434.846 55.5596C435.888 56.0611 436.655 57.1735 437.146 58.8968C437.813 61.2354 438.096 63.5674 437.994 65.8926C437.923 68.209 437.574 70.3715 436.949 72.38C436.364 74.4105 435.598 76.1596 434.653 77.6273C433.707 79.095 432.729 80.1562 431.717 80.8107ZM40.7418 249.847C39.9725 250.067 39.2451 250.025 38.5595 249.721C37.8827 249.448 37.3819 248.626 37.0572 247.255C36.6886 245.729 36.3486 244.129 36.0372 242.454C35.7258 240.78 35.4605 239.208 35.2414 237.74C34.7548 234.518 34.1624 232.091 33.4641 230.46C32.7879 228.789 31.9598 227.695 30.9798 227.176C30.0306 226.648 28.89 226.441 27.5581 226.554C26.9076 226.607 26.3494 226.517 25.8835 226.283C25.4089 226.019 25.0882 225.595 24.9214 225.01C24.702 224.241 24.8648 223.646 25.4101 223.224C25.9245 222.811 26.6433 222.473 27.5665 222.209C28.2743 222.008 29.1952 221.795 30.3293 221.571C31.4855 221.308 32.7142 221.007 34.0154 220.669C34.0829 216.823 34.4644 213.553 35.16 210.859C35.8556 208.165 36.8148 205.928 38.0374 204.148C39.2514 202.338 40.6761 200.916 42.3116 199.884C43.9384 198.821 45.7058 198.017 47.6137 197.473C49.9831 196.797 51.4093 197.305 51.8921 198.998C52.1291 199.829 51.909 200.574 51.2318 201.233C50.5547 201.892 49.4401 202.592 47.8882 203.334C46.0461 204.226 44.5182 205.344 43.3045 206.689C42.1215 208.024 41.2175 209.697 40.5926 211.705C39.9983 213.705 39.6677 216.162 39.6006 219.076C43.8516 217.763 47.2938 216.532 49.9272 215.381C52.5606 214.231 54.5675 213.276 55.948 212.516C57.3505 211.716 58.3441 211.233 58.9288 211.066C59.7597 210.829 60.3245 210.885 60.6232 211.232C60.9528 211.57 61.1834 211.971 61.315 212.432C61.4643 212.955 61.1255 213.634 60.2988 214.469C59.758 215.023 58.8456 215.732 57.5617 216.598C56.2691 217.432 54.7303 218.337 52.9453 219.312C51.1515 220.256 49.2325 221.17 47.1882 222.053C45.1659 222.896 43.1547 223.603 41.1545 224.173C40.6621 224.314 40.2159 224.441 39.8159 224.555C39.9866 226.436 40.1879 228.425 40.42 230.522C40.6741 232.579 40.9459 234.582 41.2352 236.529C41.5245 238.476 41.7963 240.246 42.0506 241.837C42.3356 243.42 42.5945 244.677 42.827 245.609C43.1211 246.756 43.0701 247.686 42.6743 248.398C42.2784 249.11 41.6342 249.593 40.7418 249.847ZM57.8578 238.043C56.9962 238.289 56.1435 238.216 55.2997 237.824C54.4867 237.424 53.8915 236.562 53.514 235.239C53.3121 234.531 53.1191 233.505 52.935 232.16C52.7817 230.806 52.6593 229.327 52.5676 227.722C52.4672 226.087 52.4019 224.459 52.3718 222.837C52.3725 221.206 52.406 219.749 52.4725 218.465C52.5302 217.151 52.6295 216.158 52.7704 215.485C52.9686 214.663 53.2149 214.127 53.5095 213.877C53.8261 213.587 54.1537 213.394 54.4922 213.297C55.1076 213.121 55.7296 213.144 56.358 213.364C57.0173 213.575 57.5269 214.311 57.8868 215.573C58.0272 216.065 58.1632 216.892 58.2946 218.052C58.4172 219.182 58.5463 220.51 58.6819 222.035C58.8176 223.56 58.9356 225.14 59.036 226.776C59.1672 228.402 59.2765 229.951 59.3638 231.424C59.4731 232.857 59.5671 234.061 59.6458 235.037C59.7115 235.85 59.5507 236.512 59.1637 237.022C58.8163 237.553 58.381 237.894 57.8578 238.043ZM55.0811 208.187C54.0656 208.477 53.0436 208.453 52.0152 208.114C50.978 207.744 50.2794 206.928 49.9195 205.667C49.6211 204.62 49.6412 203.7 49.98 202.904C50.3188 202.109 50.8025 201.472 51.4313 200.993C52.0821 200.474 52.6844 200.136 53.2383 199.978C53.7922 199.82 54.4427 199.768 55.19 199.821C55.9284 199.843 56.6316 200.092 57.2995 200.566C57.9894 201.002 58.4924 201.774 58.8084 202.881C59.0191 203.62 58.9507 204.372 58.6031 205.136C58.2468 205.87 57.7322 206.516 57.0595 207.074C56.4175 207.623 55.758 207.994 55.0811 208.187ZM70.8268 235.674C70.0883 235.885 69.2795 235.85 68.4005 235.568C67.5436 235.247 66.7482 234.675 66.0145 233.853C65.272 233 64.7032 231.881 64.3082 230.496C63.7815 228.65 63.4658 226.61 63.3612 224.377C63.2874 222.135 63.3213 219.863 63.4629 217.56C63.6045 215.256 63.7658 213.081 63.9469 211.032C64.0308 210.043 64.2751 209.325 64.6796 208.877C65.0754 208.398 65.6734 208.044 66.4735 207.816C68.289 207.298 69.4558 207.947 69.9737 209.762C70.0615 210.07 70.0942 210.71 70.0718 211.681C70.0407 212.622 69.9743 213.789 69.8726 215.182C69.8017 216.567 69.7308 218.068 69.6598 219.685C69.6108 221.263 69.6013 222.863 69.6314 224.485C69.6835 226.068 69.7906 227.551 69.9527 228.936C70.3532 227.657 70.756 226.094 71.1612 224.248C71.5883 222.363 72.0397 220.387 72.5152 218.322C73.0216 216.247 73.563 214.296 74.1396 212.467C74.7074 210.608 75.3431 209.046 76.0469 207.78C76.7508 206.515 77.5489 205.755 78.4412 205.5C79.2106 205.281 79.9776 205.228 80.7424 205.343C81.5291 205.418 82.3026 205.796 83.0628 206.478C83.8141 207.129 84.5434 208.168 85.2505 209.597C85.9883 211.017 86.7084 212.958 87.4107 215.42C87.7618 216.651 88.2119 217.82 88.7609 218.928C89.3319 219.997 90.004 220.836 90.7774 221.448C91.542 222.028 92.432 222.174 93.4475 221.884C95.2015 221.384 96.6788 220.613 97.8792 219.571C99.0796 218.53 100.08 217.43 100.88 216.269C101.681 215.109 102.343 214.105 102.866 213.257C103.174 212.703 103.447 212.26 103.684 211.926C103.953 211.583 104.195 211.381 104.41 211.319C105.056 211.135 105.566 211.173 105.94 211.432C106.344 211.683 106.629 212.1 106.796 212.685C106.884 212.993 106.785 213.637 106.499 214.617C106.213 215.597 105.746 216.762 105.099 218.111C104.475 219.42 103.703 220.739 102.784 222.066C101.864 223.393 100.805 224.577 99.6041 225.618C98.4037 226.659 97.0804 227.386 95.6341 227.799C93.2031 228.492 91.0646 228.637 89.2186 228.232C87.3947 227.787 85.8039 226.643 84.4465 224.801C83.0802 222.928 81.8836 220.191 80.8565 216.591C80.8301 216.499 80.7862 216.345 80.7248 216.129C80.4527 215.175 80.1959 214.334 79.9544 213.604C79.7437 212.865 79.5264 212.278 79.3024 211.843C79.0514 212.946 78.7454 214.265 78.3843 215.799C78.054 217.324 77.6885 218.959 77.2878 220.704C76.8783 222.418 76.4337 224.125 75.9539 225.826C75.4653 227.496 74.9416 229.043 74.3828 230.467C73.8547 231.882 73.2916 233.058 72.6934 233.994C72.0953 234.93 71.4731 235.49 70.8268 235.674ZM113.819 196.705C114.362 192.191 114.669 187.611 114.741 182.965C114.742 182.033 114.907 181.271 115.237 180.678C115.598 180.076 116.209 179.652 117.07 179.406C117.778 179.204 118.378 179.266 118.87 179.591C119.354 179.886 119.696 180.387 119.898 181.095C120.065 181.68 120.117 182.796 120.055 184.444C119.984 186.062 119.92 188.11 119.861 190.589C119.803 193.068 119.846 195.901 119.99 199.088C120.133 202.275 120.468 205.723 120.994 209.433C121.52 213.143 122.363 217.029 123.521 221.091C123.837 222.199 123.881 223.168 123.652 223.999C123.463 224.852 122.86 225.423 121.845 225.713C120.737 226.029 119.812 225.877 119.069 225.257C118.357 224.628 117.83 223.713 117.488 222.513C116.812 220.144 116.327 218.152 116.033 216.539C115.761 214.886 115.555 213.464 115.415 212.273C114.645 215.288 113.681 217.975 112.524 220.335C111.389 222.656 110.193 224.528 108.935 225.951C107.686 227.406 106.508 228.291 105.4 228.607C103.584 229.125 101.962 229.038 100.534 228.348C99.1059 227.657 98.0976 226.281 97.5095 224.219C97.053 222.619 96.968 220.863 97.2545 218.951C97.5322 217.008 98.0649 215.026 98.8525 213.005C99.6401 210.983 100.582 209.034 101.677 207.157C102.794 205.241 103.964 203.51 105.187 201.963C106.4 200.386 107.577 199.085 108.716 198.061C109.854 197.038 110.839 196.407 111.67 196.17C112.593 195.907 113.31 196.085 113.819 196.705ZM113.469 199.501C113.319 199.677 113.154 199.857 112.974 200.041C112.816 200.186 112.662 200.347 112.512 200.522C111.554 201.594 110.562 202.842 109.537 204.266C108.504 205.659 107.521 207.171 106.588 208.801C105.647 210.401 104.831 212.031 104.14 213.692C103.471 215.314 103.003 216.879 102.734 218.386C102.487 219.854 102.535 221.188 102.877 222.388C102.939 222.604 103.075 222.731 103.286 222.771C103.497 222.811 103.679 222.809 103.833 222.765C104.91 222.457 105.928 221.651 106.887 220.346C107.876 219.032 108.776 217.345 109.585 215.284C110.417 213.183 111.15 210.794 111.784 208.118C112.449 205.432 113.01 202.56 113.469 199.501ZM155.459 213.179C153.274 213.802 151.3 213.533 149.538 212.372C147.767 211.18 146.509 209.276 145.762 206.66C145.525 205.83 145.392 204.953 145.361 204.03C145.362 203.098 145.426 202.214 145.554 201.379C145.29 201.155 145.035 200.845 144.789 200.449C144.565 200.014 144.365 199.489 144.19 198.873C143.619 196.873 143.451 194.941 143.684 193.077C143.909 191.183 144.446 189.449 145.295 187.876C146.144 186.303 147.195 184.971 148.449 183.882C149.702 182.792 151.067 182.037 152.544 181.615C155.067 180.895 157.37 181.153 159.453 182.389C161.567 183.617 163.133 186.015 164.152 189.585C164.661 191.369 164.902 193.264 164.874 195.268C164.847 197.273 164.598 199.257 164.127 201.222C163.678 203.147 163.027 204.947 162.173 206.621C161.351 208.287 160.357 209.701 159.191 210.866C158.057 212.021 156.812 212.792 155.459 213.179ZM150.269 197.788C150.52 198.082 150.711 198.46 150.842 198.922C150.974 199.384 151.018 199.887 150.974 200.432C150.929 200.977 150.934 201.691 150.986 202.575C151.03 203.427 151.266 204.608 151.697 206.116C151.811 206.516 151.953 206.841 152.125 207.092C152.318 207.303 152.615 207.351 153.015 207.237C154.061 206.939 154.949 206.319 155.679 205.379C156.44 204.43 157.032 203.296 157.454 201.977C157.908 200.65 158.203 199.235 158.339 197.732C158.498 196.189 158.514 194.67 158.388 193.176C158.283 191.642 158.055 190.259 157.703 189.028C157.475 188.228 157.163 187.718 156.768 187.498C156.372 187.278 155.79 187.278 155.021 187.497C153.974 187.796 152.994 188.442 152.079 189.435C151.187 190.388 150.533 191.539 150.12 192.889C149.697 194.207 149.688 195.574 150.092 196.99C150.171 197.267 150.23 197.533 150.269 197.788ZM188.875 204.245C188.167 204.447 187.437 204.339 186.686 203.921C185.974 203.525 185.429 202.665 185.052 201.342C184.771 200.357 184.457 198.966 184.111 197.168C183.786 195.331 183.471 192.942 183.164 190.001C182.719 192.524 182.158 194.814 181.48 196.87C180.802 198.927 180.035 200.61 179.177 201.92C178.341 203.19 177.416 203.97 176.4 204.259C174.769 204.725 173.336 204.601 172.102 203.888C170.858 203.145 169.841 201.389 169.051 198.619C168.674 197.296 168.356 195.773 168.097 194.05C167.869 192.318 167.703 190.568 167.598 188.801C167.493 187.034 167.441 185.452 167.442 184.054C167.464 182.617 167.537 181.531 167.661 180.797C167.749 180.173 167.934 179.654 168.215 179.241C168.527 178.819 168.991 178.521 169.607 178.345C170.591 178.064 171.437 178.172 172.145 178.669C172.852 179.166 173.303 179.753 173.496 180.43C173.645 180.953 173.737 181.742 173.772 182.797C173.837 183.843 173.872 185.015 173.876 186.311C173.91 187.599 173.938 188.922 173.96 190.281C173.981 191.639 174.027 192.907 174.097 194.085C174.197 195.254 174.357 196.224 174.577 196.993C174.849 197.947 175.354 198.318 176.093 198.108C176.524 197.985 176.959 197.411 177.399 196.387C177.87 195.355 178.292 194.036 178.667 192.432C179.063 190.788 179.424 189.021 179.75 187.131C180.098 185.202 180.365 183.279 180.55 181.363C180.758 179.407 180.897 177.62 180.968 176.002C181.012 174.991 181.243 174.227 181.661 173.708C182.079 173.19 182.626 172.834 183.303 172.641C184.349 172.342 185.233 172.406 185.954 172.833C186.705 173.251 187.234 173.998 187.542 175.075C187.682 175.568 187.842 176.421 188.022 177.634C188.202 178.847 188.392 180.273 188.594 181.913C188.826 183.544 189.039 185.28 189.231 187.122C189.424 188.964 189.608 190.775 189.783 192.555C189.989 194.327 190.155 195.96 190.282 197.454C190.4 198.918 190.485 200.092 190.538 200.975C190.581 202.294 190.423 203.138 190.062 203.507C189.701 203.876 189.306 204.122 188.875 204.245ZM223.648 166.922C223.754 167.291 223.723 167.649 223.555 167.996C223.388 168.343 223.142 168.647 222.817 168.906C222.355 169.27 221.526 169.806 220.33 170.514C219.134 171.221 217.675 172.053 215.951 173.011C214.259 173.959 212.432 174.963 210.471 176.022C208.501 177.049 206.527 178.062 204.549 179.059C204.592 182.241 204.645 185.52 204.71 188.896C204.766 192.241 204.808 195.54 204.838 198.793C204.837 199.957 204.701 200.878 204.428 201.555C204.164 202.263 203.509 202.766 202.462 203.064C201.324 203.389 200.449 203.239 199.838 202.615C199.267 202.012 198.944 201.056 198.87 199.746C198.714 196.164 198.561 192.83 198.413 189.744C198.295 186.649 198.198 184.148 198.119 182.241C196.361 183.075 194.815 183.782 193.483 184.362C192.142 184.911 191.175 185.253 190.582 185.389C189.918 185.512 189.305 185.404 188.742 185.065C188.18 184.727 187.817 184.214 187.655 183.529C187.541 182.896 187.669 182.293 188.038 181.722C188.399 181.12 188.905 180.676 189.555 180.391C190.483 180.027 191.674 179.537 193.129 178.922C194.585 178.307 196.185 177.618 197.93 176.854C197.883 175.17 197.883 173.423 197.932 171.612C197.973 169.77 198.05 168.001 198.165 166.305C198.302 164.568 198.466 163.041 198.655 161.722C198.845 160.404 199.08 159.422 199.362 158.776C199.586 158.279 199.914 157.853 200.345 157.497C200.806 157.132 201.283 156.88 201.776 156.739C202.422 156.555 203.011 156.636 203.543 156.984C204.074 157.331 204.428 157.813 204.604 158.428C204.674 158.674 204.733 158.94 204.781 159.226C204.821 159.481 204.829 159.745 204.807 160.017C204.662 161.723 204.562 163.764 204.508 166.142C204.485 168.512 204.493 171.105 204.531 173.922C206.743 172.926 208.908 171.942 211.027 170.971C213.168 169.961 215.102 169.043 216.83 168.218C218.58 167.352 219.974 166.639 221.011 166.077C221.565 165.686 222.101 165.582 222.62 165.767C223.13 165.921 223.473 166.306 223.648 166.922ZM279.702 174.94C279.991 176.654 279.244 177.766 277.459 178.275C276.536 178.539 275.718 178.472 275.006 178.077C274.325 177.672 273.835 176.946 273.537 175.9C273.028 174.115 272.56 172.186 272.135 170.111C271.731 167.996 271.354 165.858 271.003 163.695C270.683 161.523 270.374 159.449 270.076 157.47C269.425 159.387 268.725 161.367 267.977 163.41C267.229 165.454 266.468 167.451 265.693 169.403C264.919 171.354 264.147 173.138 263.377 174.755C262.629 176.333 261.903 177.638 261.199 178.671C260.487 179.673 259.823 180.262 259.208 180.437C257.731 180.858 256.3 180.684 254.916 179.915C253.522 179.114 252.585 177.867 252.102 176.175C251.935 175.59 251.773 174.788 251.615 173.768C251.448 172.718 251.295 171.597 251.155 170.405C251.014 169.214 250.861 168.093 250.694 167.043C250.528 165.992 250.361 165.174 250.194 164.59C250.194 164.59 250.186 164.559 250.168 164.497C250.155 164.335 250.102 164.267 250.01 164.293C249.887 164.328 249.667 164.84 249.35 165.829C249.024 166.787 248.646 168.026 248.214 169.547C247.783 171.068 247.323 172.663 246.834 174.333C246.377 175.995 245.939 177.55 245.52 179.001C245.133 180.442 244.79 181.572 244.491 182.389C244.112 183.629 243.67 184.47 243.164 184.914C242.659 185.358 242.021 185.689 241.252 185.909C240.175 186.216 239.228 186.104 238.41 185.571C237.615 185 237.028 184.052 236.651 182.729C236.493 182.175 236.339 181.287 236.19 180.065C236.072 178.834 235.965 177.467 235.869 175.964C235.764 174.43 235.673 172.942 235.594 171.5C235.537 170.019 235.496 168.766 235.47 167.742C235.387 166.401 235.522 165.414 235.874 164.782C236.248 164.109 236.835 163.659 237.635 163.431C239.512 162.895 240.714 163.551 241.24 165.397C241.337 165.736 241.387 166.32 241.391 167.151C241.395 167.982 241.388 168.949 241.37 170.052C241.352 171.155 241.328 172.294 241.296 173.467C241.256 174.61 241.26 175.674 241.308 176.658C241.678 175.155 242.083 173.542 242.523 171.819C242.964 170.097 243.428 168.4 243.917 166.73C244.436 165.051 244.975 163.5 245.534 162.076C246.124 160.643 246.768 159.461 247.467 158.529C248.158 157.567 248.903 156.972 249.703 156.743C250.503 156.515 251.371 156.584 252.307 156.949C253.235 157.283 254.072 157.827 254.819 158.579C255.588 159.291 256.113 160.139 256.394 161.124C256.657 162.047 256.85 163.19 256.972 164.553C257.095 165.916 257.204 167.349 257.3 168.852C257.396 170.355 257.576 171.801 257.839 173.191C258.552 171.723 259.282 170.083 260.03 168.273C260.769 166.431 261.526 164.535 262.301 162.584C263.075 160.632 263.832 158.736 264.571 156.895C265.341 155.044 266.058 153.359 266.722 151.838C267.418 150.309 268.064 149.076 268.662 148.14C269.252 147.174 269.762 146.629 270.193 146.506C271.454 146.146 272.536 146.204 273.437 146.679C274.359 147.114 275.053 148.147 275.519 149.778C275.808 150.794 276.109 152.139 276.42 153.814C276.763 155.48 277.083 157.302 277.381 159.28C277.701 161.219 277.999 163.197 278.275 165.214C278.573 167.192 278.847 169.028 279.097 170.72C279.347 172.413 279.548 173.819 279.702 174.94ZM292.906 173.968C290.722 174.592 288.748 174.323 286.986 173.162C285.215 171.97 283.956 170.066 283.21 167.45C282.973 166.619 282.84 165.742 282.809 164.819C282.81 163.888 282.874 163.004 283.001 162.169C282.738 161.945 282.483 161.635 282.237 161.239C282.013 160.804 281.813 160.278 281.638 159.663C281.067 157.663 280.899 155.731 281.132 153.867C281.357 151.973 281.894 150.239 282.743 148.666C283.592 147.093 284.643 145.761 285.896 144.672C287.15 143.582 288.515 142.826 289.992 142.405C292.515 141.685 294.818 141.943 296.901 143.179C299.015 144.407 300.581 146.805 301.599 150.375C302.109 152.159 302.349 154.054 302.322 156.058C302.295 158.063 302.046 160.047 301.575 162.012C301.126 163.937 300.474 165.736 299.621 167.411C298.798 169.076 297.804 170.491 296.639 171.656C295.505 172.811 294.26 173.582 292.906 173.968ZM287.717 158.578C287.968 158.872 288.159 159.25 288.29 159.712C288.422 160.173 288.466 160.677 288.422 161.222C288.377 161.767 288.381 162.481 288.434 163.365C288.477 164.217 288.714 165.398 289.144 166.905C289.259 167.306 289.401 167.631 289.573 167.881C289.766 168.093 290.063 168.141 290.463 168.027C291.509 167.728 292.397 167.109 293.127 166.169C293.888 165.22 294.48 164.086 294.902 162.767C295.355 161.44 295.65 160.025 295.787 158.521C295.946 156.979 295.962 155.46 295.835 153.966C295.73 152.431 295.502 151.049 295.151 149.818C294.923 149.018 294.611 148.508 294.216 148.288C293.82 148.068 293.238 148.068 292.468 148.287C291.422 148.586 290.442 149.232 289.527 150.225C288.634 151.178 287.981 152.329 287.567 153.679C287.145 154.997 287.136 156.364 287.539 157.78C287.618 158.057 287.678 158.323 287.717 158.578ZM310.317 169.551C309.548 169.77 308.807 169.682 308.095 169.286C307.414 168.881 306.924 168.156 306.626 167.11C306.494 166.648 306.341 165.877 306.165 164.795C306.012 163.674 305.845 162.391 305.666 160.945C305.517 159.49 305.335 157.977 305.12 156.408C304.936 154.83 304.728 153.342 304.496 151.944C304.294 150.538 304.088 149.348 303.877 148.377C303.605 147.19 303.676 146.271 304.09 145.621C304.494 144.94 305.081 144.49 305.85 144.27C306.466 144.095 307.064 144.09 307.644 144.258C308.246 144.385 308.74 144.893 309.127 145.781C309.535 146.63 309.919 147.918 310.279 149.645C310.931 146.797 311.672 144.207 312.504 141.873C313.367 139.53 314.405 137.57 315.619 135.993C317.62 133.326 319.651 131.698 321.713 131.11C322.882 130.776 323.726 130.818 324.245 131.236C324.763 131.654 325.101 132.14 325.259 132.694C325.365 133.063 325.369 133.428 325.272 133.788C325.206 134.14 324.96 134.559 324.533 135.047C324.107 135.535 323.434 136.209 322.515 137.07C321.279 138.222 320.125 139.599 319.052 141.203C318.009 142.798 317.063 144.732 316.214 147.004C315.365 149.276 314.623 151.983 313.989 155.126C313.355 158.269 312.823 161.947 312.395 166.163C312.417 167.288 312.214 168.094 311.788 168.582C311.392 169.061 310.902 169.384 310.317 169.551ZM333.131 162.543C331.223 163.088 329.496 162.865 327.949 161.875C326.393 160.855 325.19 158.852 324.338 155.867C323.794 153.96 323.465 151.99 323.351 149.959C323.26 147.889 323.369 145.878 323.677 143.927C324.008 141.936 324.518 140.109 325.209 138.448C325.93 136.778 326.843 135.37 327.947 134.223C329.042 133.045 330.297 132.255 331.713 131.851C334.113 131.166 336.174 131.277 337.897 132.183C339.62 133.089 340.766 134.543 341.337 136.543C341.776 138.081 341.744 139.604 341.243 141.112C340.763 142.58 339.94 144.012 338.775 145.41C337.61 146.807 336.249 148.16 334.692 149.47C333.136 150.779 331.511 152.024 329.818 153.206C329.98 154.358 330.184 155.364 330.43 156.226C330.579 156.749 330.946 156.927 331.531 156.76C332.916 156.365 334.331 155.729 335.778 154.85C337.246 153.932 338.695 152.886 340.124 151.713C341.544 150.51 342.899 149.308 344.187 148.109C345.467 146.878 346.621 145.734 347.65 144.675C348.701 143.576 349.565 142.698 350.242 142.039C350.941 141.34 351.414 140.956 351.66 140.885C352.337 140.692 352.887 140.752 353.309 141.064C353.73 141.376 354.007 141.763 354.139 142.225C354.2 142.44 353.921 143.036 353.301 144.011C352.711 144.978 351.854 146.171 350.728 147.59C349.624 148.97 348.349 150.449 346.902 152.026C345.477 153.564 343.962 155.078 342.357 156.567C340.774 158.017 339.185 159.269 337.589 160.323C336.032 161.4 334.546 162.14 333.131 162.543ZM329.431 148.874C330.482 147.776 331.509 146.651 332.511 145.499C333.536 144.309 334.319 143.087 334.86 141.835C335.393 140.551 335.461 139.217 335.066 137.832C334.952 137.432 334.77 137.202 334.519 137.14C334.26 137.048 333.93 137.058 333.53 137.173C332.453 137.48 331.605 138.238 330.984 139.446C330.395 140.646 329.977 142.096 329.73 143.797C329.505 145.459 329.405 147.151 329.431 148.874ZM373.621 150.843C371.775 151.37 370.392 151.365 369.474 150.828C368.595 150.313 367.976 149.425 367.616 148.164C366.088 142.809 365.495 136.939 365.836 130.552C366.199 124.126 367.373 117.452 369.358 110.53C369.684 109.339 370.021 108.594 370.368 108.295C370.715 107.996 371.135 107.777 371.628 107.636C372.335 107.434 373.021 107.505 373.685 107.848C374.379 108.182 374.84 108.75 375.069 109.55C375.139 109.796 375.07 110.547 374.863 111.804C374.656 113.061 374.368 114.675 373.998 116.644C373.658 118.604 373.308 120.817 372.947 123.283C372.576 125.718 372.257 128.271 371.987 130.944C371.749 133.607 371.638 136.251 371.655 138.875C372.323 137.254 373.122 135.562 374.05 133.799C375 131.998 376.032 130.306 377.144 128.724C378.248 127.111 379.376 125.758 380.528 124.664C381.672 123.539 382.782 122.823 383.859 122.516C384.874 122.226 385.883 122.204 386.885 122.451C387.918 122.689 388.861 123.252 389.713 124.14C390.565 125.028 391.229 126.303 391.703 127.965C392.221 129.78 392.229 131.791 391.727 133.998C391.255 136.195 390.268 138.391 388.763 140.583C387.29 142.767 385.283 144.771 382.741 146.594C380.231 148.408 377.191 149.825 373.621 150.843ZM374.059 145.028C376.375 144.167 378.369 143.049 380.04 141.674C381.742 140.29 383.109 138.785 384.143 137.16C385.177 135.534 385.869 133.938 386.222 132.374C386.565 130.778 386.561 129.365 386.21 128.134C386.131 127.857 386.015 127.741 385.861 127.785C385.215 127.969 384.483 128.494 383.665 129.359C382.838 130.194 381.976 131.255 381.079 132.543C380.182 133.83 379.295 135.215 378.42 136.696C377.545 138.177 376.731 139.64 375.979 141.086C375.227 142.532 374.586 143.846 374.059 145.028ZM402.933 142.631C401.025 143.175 399.298 142.952 397.751 141.963C396.195 140.942 394.992 138.94 394.14 135.955C393.596 134.047 393.267 132.078 393.154 130.047C393.062 127.976 393.171 125.965 393.479 124.014C393.81 122.023 394.32 120.197 395.011 118.536C395.733 116.866 396.645 115.457 397.749 114.31C398.844 113.133 400.099 112.342 401.515 111.938C403.915 111.254 405.976 111.364 407.699 112.271C409.422 113.177 410.568 114.63 411.139 116.63C411.578 118.169 411.547 119.692 411.045 121.199C410.565 122.667 409.743 124.1 408.577 125.497C407.412 126.894 406.051 128.248 404.494 129.557C402.938 130.866 401.313 132.112 399.62 133.293C399.783 134.445 399.987 135.452 400.232 136.313C400.382 136.836 400.748 137.015 401.333 136.848C402.718 136.453 404.134 135.816 405.58 134.937C407.049 134.019 408.497 132.974 409.926 131.801C411.347 130.597 412.701 129.395 413.989 128.196C415.269 126.966 416.423 125.821 417.452 124.762C418.503 123.664 419.367 122.785 420.044 122.126C420.744 121.427 421.216 121.043 421.462 120.973C422.139 120.78 422.689 120.839 423.111 121.151C423.533 121.464 423.809 121.851 423.941 122.312C424.002 122.528 423.723 123.123 423.103 124.099C422.513 125.065 421.656 126.258 420.53 127.678C419.426 129.057 418.151 130.536 416.704 132.113C415.279 133.651 413.764 135.165 412.159 136.654C410.576 138.104 408.987 139.356 407.391 140.411C405.835 141.487 404.349 142.227 402.933 142.631ZM399.233 128.961C400.284 127.863 401.311 126.738 402.314 125.587C403.338 124.396 404.121 123.174 404.662 121.922C405.195 120.639 405.263 119.305 404.868 117.92C404.754 117.52 404.572 117.289 404.321 117.227C404.062 117.135 403.732 117.146 403.332 117.26C402.255 117.567 401.407 118.325 400.786 119.534C400.197 120.733 399.779 122.184 399.532 123.885C399.307 125.546 399.207 127.238 399.233 128.961ZM430.065 135.689C427.295 136.479 424.869 136.257 422.786 135.021C420.725 133.745 419.243 131.522 418.338 128.353C417.847 126.63 417.503 124.548 417.306 122.109C417.1 119.638 416.998 117.005 416.999 114.21C417.022 111.375 417.1 108.557 417.233 105.757C417.397 102.948 417.598 100.329 417.837 97.8982C418.075 95.4675 418.307 93.4215 418.531 91.7601C418.76 90.4635 419.383 89.6703 420.398 89.3807C421.044 89.1963 421.625 89.2471 422.139 89.533C422.684 89.8101 423.084 90.3949 423.338 91.2873C423.461 91.7181 423.513 92.7181 423.495 94.2873C423.477 95.8565 423.417 97.8037 423.315 100.129C423.235 102.415 423.141 104.887 423.035 107.546C422.959 110.197 422.918 112.854 422.913 115.518C422.938 118.172 423.047 120.654 423.239 122.962C423.423 125.238 423.73 127.131 424.16 128.639C424.336 129.254 424.645 129.698 425.089 129.971C425.564 130.235 426.094 130.283 426.678 130.117C427.94 129.757 429.166 129.157 430.358 128.318C431.58 127.47 432.737 126.508 433.827 125.432C434.949 124.347 435.98 123.237 436.921 122.103C437.862 120.97 438.693 119.917 439.414 118.946C440.158 117.936 440.76 117.131 441.222 116.534C441.825 115.73 442.264 115.288 442.541 115.209C443.587 114.911 444.255 115.269 444.545 116.285C444.615 116.531 444.452 117.126 444.057 118.071C443.726 118.897 443.234 119.97 442.578 121.288C441.923 122.607 441.131 124.03 440.203 125.56C439.297 127.049 438.281 128.504 437.155 129.923C436.06 131.334 434.912 132.56 433.712 133.601C432.511 134.642 431.296 135.338 430.065 135.689ZM448.235 129.657C446.05 130.281 444.077 130.012 442.315 128.851C440.544 127.659 439.285 125.755 438.539 123.139C438.302 122.308 438.168 121.431 438.138 120.508C438.138 119.576 438.202 118.693 438.33 117.858C438.067 117.634 437.812 117.324 437.566 116.928C437.342 116.493 437.142 115.967 436.967 115.352C436.396 113.352 436.227 111.42 436.461 109.556C436.686 107.662 437.223 105.928 438.072 104.355C438.921 102.781 439.972 101.45 441.225 100.36C442.478 99.2708 443.844 98.5154 445.321 98.094C447.844 97.3742 450.147 97.6322 452.23 98.8682C454.344 100.095 455.91 102.494 456.928 106.063C457.437 107.848 457.678 109.743 457.651 111.747C457.624 113.752 457.375 115.736 456.904 117.701C456.455 119.626 455.803 121.425 454.95 123.1C454.127 124.765 453.133 126.18 451.968 127.345C450.833 128.5 449.589 129.271 448.235 129.657ZM443.046 114.266C443.296 114.561 443.487 114.939 443.619 115.401C443.751 115.862 443.795 116.366 443.75 116.911C443.706 117.456 443.71 118.17 443.763 119.053C443.806 119.906 444.043 121.087 444.473 122.594C444.587 122.994 444.73 123.32 444.901 123.57C445.095 123.781 445.391 123.83 445.792 123.716C446.838 123.417 447.726 122.798 448.456 121.858C449.217 120.908 449.808 119.775 450.231 118.456C450.684 117.129 450.979 115.714 451.116 114.21C451.275 112.668 451.291 111.149 451.164 109.654C451.059 108.12 450.831 106.738 450.48 105.507C450.252 104.707 449.94 104.197 449.545 103.977C449.149 103.757 448.567 103.757 447.797 103.976C446.751 104.275 445.771 104.92 444.856 105.913C443.963 106.867 443.31 108.018 442.896 109.368C442.474 110.686 442.464 112.053 442.868 113.469C442.947 113.746 443.007 114.011 443.046 114.266ZM469.903 124.025C469.257 124.209 468.602 124.247 467.938 124.136C467.275 124.026 466.598 123.637 465.908 122.969C465.227 122.331 464.533 121.298 463.826 119.869C463.11 118.409 462.392 116.418 461.672 113.894C460.996 111.525 460.474 109.228 460.106 107.004C459.729 104.749 459.53 102.709 459.508 100.885C459.478 99.03 459.646 97.518 460.011 96.349C460.368 95.1491 460.946 94.4351 461.746 94.2068C462.454 94.0049 463.135 94.1766 463.79 94.722C464.445 95.2673 464.952 96.1708 465.312 97.4324C465.593 98.4171 465.839 99.7447 466.049 101.415C466.29 103.077 466.52 104.875 466.739 106.809C466.949 108.712 467.177 110.56 467.422 112.354C467.69 114.108 467.995 115.585 468.337 116.785C468.398 117 468.491 117.207 468.614 117.405C468.728 117.572 468.847 117.638 468.97 117.603C469.154 117.55 469.335 117.016 469.511 116.001C469.687 114.986 469.877 113.667 470.08 112.045C470.304 110.384 470.54 108.586 470.787 106.652C471.065 104.709 471.382 102.789 471.739 100.89C472.118 98.9517 472.549 97.198 473.034 95.629C473.447 94.2798 474.074 93.1526 474.914 92.2474C475.754 91.3423 476.605 90.7668 477.466 90.521C478.236 90.3015 479.047 90.2865 479.899 90.4759C480.783 90.6564 481.585 91.0765 482.305 91.7362C483.026 92.3958 483.557 93.3257 483.9 94.5258C484.031 94.9874 484.189 95.7742 484.373 96.8864C484.58 97.959 484.799 99.1942 485.031 100.592C485.255 101.959 485.483 103.342 485.715 104.74C485.939 106.107 486.138 107.331 486.314 108.412C486.52 109.485 486.684 110.237 486.807 110.667C486.825 110.729 486.847 110.806 486.873 110.898C486.97 111.237 487.082 111.571 487.209 111.9C487.328 112.199 487.464 112.327 487.618 112.283C487.956 112.187 488.277 111.679 488.581 110.76C488.907 109.802 489.219 108.565 489.519 107.049C489.849 105.524 490.166 103.836 490.47 101.985C490.774 100.135 491.081 98.2341 491.389 96.2827C491.719 94.2916 492.061 92.3973 492.413 90.5996C492.651 89.1009 492.937 88.1208 493.272 87.6594C493.597 87.1672 493.96 86.8641 494.36 86.7499C494.914 86.5919 495.577 86.7021 496.351 87.0804C497.124 87.4588 497.678 88.2326 498.011 89.4019C498.126 89.802 498.224 90.2064 498.308 90.6152C498.391 91.0241 498.402 91.4702 498.34 91.9537C497.996 95.4128 497.54 98.6544 496.971 101.678C496.425 104.663 495.782 107.308 495.043 109.616C494.303 111.923 493.487 113.787 492.594 115.206C491.702 116.625 490.732 117.484 489.686 117.783C487.532 118.397 485.708 118.302 484.213 117.497C482.741 116.652 481.724 115.245 481.162 113.276C480.952 112.537 480.73 111.586 480.498 110.421C480.256 109.225 480.004 107.933 479.741 106.544C479.5 105.115 479.263 103.702 479.031 102.304C478.798 100.906 478.597 99.6158 478.426 98.4334C478.364 97.985 478.208 97.73 477.958 97.6684C477.738 97.5979 477.608 97.7847 477.569 98.2286C477.467 99.389 477.361 100.65 477.251 102.013C477.14 103.376 477.017 104.576 476.88 105.613C476.673 107.336 476.388 109.197 476.027 111.197C475.697 113.188 475.263 115.109 474.726 116.959C474.18 118.779 473.509 120.334 472.713 121.626C471.917 122.918 470.98 123.718 469.903 124.025ZM506.497 100.009C506.066 100.132 505.633 100.073 505.198 99.8307C504.785 99.5492 504.442 98.9315 504.17 97.9775C503.977 97.3005 503.797 96.2038 503.631 94.6872C503.464 93.1707 503.329 91.4124 503.224 89.4124C503.141 87.3729 503.098 85.2388 503.095 83.0103C503.082 80.751 503.13 78.5246 503.236 76.3313C503.334 74.1072 503.504 72.0787 503.746 70.2459C503.856 69.3492 504.208 68.5999 504.802 67.998C505.418 67.3565 506.156 66.9129 507.018 66.6671C507.91 66.4125 508.675 66.6436 509.312 67.3603C509.949 68.077 510.408 68.9277 510.689 69.9125C510.794 70.2817 510.807 71.0268 510.728 72.1476C510.679 73.2597 510.568 74.6222 510.396 76.2353C510.224 77.8484 510.026 79.6022 509.801 81.4965C509.598 83.3514 509.388 85.2414 509.172 87.1665C508.978 89.0521 508.808 90.8476 508.662 92.5531C508.516 94.2585 508.426 95.7485 508.39 97.0232C508.381 97.9243 508.209 98.6055 507.875 99.0669C507.571 99.5195 507.112 99.8336 506.497 100.009ZM507.77 113.572C507.401 113.677 506.944 113.708 506.399 113.664C505.854 113.62 505.295 113.296 504.724 112.694C504.193 112.114 503.712 111.069 503.282 109.562C502.948 108.392 503.063 107.395 503.626 106.568C504.189 105.742 505.086 105.154 506.317 104.802C507.363 104.504 508.246 104.568 508.967 104.995C509.718 105.413 510.248 106.16 510.555 107.237C510.836 108.222 510.84 109.169 510.567 110.079C510.325 110.98 509.927 111.742 509.373 112.366C508.858 113.012 508.324 113.414 507.77 113.572Z" fill="#C28E00"/>
</svg>
